<svg id="Layer_1" data-name="Layer 1" xmlns="http://www.w3.org/2000/svg" viewBox="0 0 964 246"><defs><style>.cls-1{fill:#14540e;}.cls-2{fill:#55b553;}.cls-3{fill:#b7120b;}.cls-4{fill:#aa5355;}</style></defs><title>moba</title><path class="cls-1" d="M288,71.73v82.85c0,4.16-.09,8.33,0,12.49.06,2.36-.8,3.26-3.18,3.24q-12.5-.13-25,0c-2.29,0-3.47-.63-3.32-3.07.08-1.33,0-2.67,0-4,0-46.82.08-93.64-.08-140.46,0-4.66.94-6.48,6-6.2,8,.45,16,.23,24,.14,4.27,0,7.36,1.62,9.3,5.45Q319.29,68.7,343,115.41c.27,0,.68-.41,1-1.07,14.37-30.95,30.8-60.87,45.86-91.49,2.08-4.23,5.13-6.19,9.85-6.12,8.16.13,16.34.28,24.49-.09,4.32-.2,5.18,1.3,5.17,5.33-.14,43.15-.09,86.31-.09,129.46,0,5-.2,10,0,15,.16,3.18-1.12,4-4,4-7.66-.14-15.33-.25-23,0-3.52.1-4.51-1.07-4.49-4.55.14-30.32.12-60.65.14-91a5.75,5.75,0,0,0-.76-3.27c-2.38,4.43-4.81,8.82-7.12,13.28q-15.72,30.38-31.35,60.8c-3.14,6.16-7.89,8.87-14.81,9-7.49.11-13.07-1.92-16.7-9.13-11.36-22.6-23.08-45-34.68-67.51-1.13-2.19-2.37-4.33-3.55-6.49Z"/><path class="cls-1" d="M86,133.63c-2,3.33-4.93,4.53-8.73,4.77-6.65.43-13.29.54-20,.48-4.3,0-7.3-1.64-9.48-5.24a21.87,21.87,0,0,0-7.63-7.75c-5.11-3-7.33-7.67-8-13.13-.93-7.59-1.53-15.18-4-22.52a10.72,10.72,0,0,1,2.72-11.53,9.87,9.87,0,0,0,3-5.07C35.16,66.4,40.16,61.28,44,55.49c1.35-2,3.11-2.61,5.06-1.1,2.69,2.07,5,1.79,7.7-.12a31.06,31.06,0,0,1,5.87-2.71c3.5-1.51,5.46-3.77,4-7.82-1.2-3.25.7-5.07,3.21-6.39,5.27-2.76,10-6,12-12,.76-2.23,2.83-2.6,5-2.18,11,2.15,22.25,1.31,33.22,3.71a23.66,23.66,0,0,0,14.23-1.47,7.35,7.35,0,0,1,3.85-.79c6.32,1.26,9-2.29,11.08-7.47,3.14-7.85,5.34-8.09,10.9-1.69,6.64,7.64,9.25,16.82,9.88,26.64.83,13,3.17,16.18,15.6,20.42,10.27,3.5,12.05,6,11.89,16.69-.08,5,.85,9.33,6.28,11.21a3.55,3.55,0,0,1,2.58,3.31c.42,5.08,2.71,9.55,4.65,14.14,3.74,8.86,2.5,17.3-2.58,25.21-3.33,5.2-5.46,5.48-11.33,4-11.24-2.84-22.59-5.23-33.9-7.82-4.52-1.05-7.68-4.16-10.86-7.23-.83-4-3.95-5.54-7.28-6.73-6.19-2.23-12.65-2.61-19.14-2.24-4.33.24-7.87-.76-9.93-5a3.91,3.91,0,0,0-4.51-2.3c-8.85,1.59-18.5,9.37-17.86,17.33C89.67,125.62,87.43,129.33,86,133.63Z"/><path class="cls-1" d="M711.3,90.24c1.13,1.68,2.73,1.79,4.09,2.3,20.77,7.7,28.92,25.91,21,46.64-6.88,18-21.3,26-39,29.81-6.08,1.3-12.25,1.27-18.42,1.28-18.16,0-36.33,0-54.5.12-3.17,0-4.66-.45-4.65-4.24q.2-72.5.06-145c0-2.84.25-4.64,4-4.59,21.16.27,42.34-.13,63.48.61,13.78.48,27.17,3.53,37.67,13.63,17.23,16.57,12.88,46-8.34,56.79C714.89,88.49,713.11,89.34,711.3,90.24ZM655.81,124.5c0,5.16,0,10.32,0,15.47,0,1.8.1,3.31,2.55,3.26,9.81-.17,19.68.39,29.4-.57,10.52-1,16.06-8.82,15.85-20.07-.2-10.29-5.18-15.46-16.46-16.87-9.44-1.18-18.94-.31-28.41-.58-2.61-.07-3,1.28-3,3.4C655.84,113.86,655.8,119.18,655.81,124.5Zm0-62.69h0c0,5.32,0,10.64,0,16,0,1.65-.28,3.49,2.34,3.41,9.13-.28,18.31.83,27.36-1,9.58-1.91,14.39-8.2,14.15-18.14-.26-11-4.59-16.34-14.74-18-8.75-1.43-17.59-.44-26.38-.75-2.26-.08-2.81,1-2.78,3C655.85,51.5,655.8,56.66,655.8,61.81Z"/><path class="cls-1" d="M525,15c34.26.07,61.51,16.93,73.45,47.76C617.75,112.74,588.74,170,528,171.93c-23.92.78-45.62-5.46-62-23.37-23.45-25.59-27.8-55.71-14.89-87.32,12.61-30.88,37.9-44.58,70.42-46.19C522.63,15,523.8,15,525,15Zm42.72,77.81c-.2-2.68-.35-6-.71-9.32-3.51-31.67-34.25-48.66-62.8-34.73C498.39,51.63,493.34,55.48,490,61c-11.59,19.14-11.74,39.09-3.22,59.28,4.4,10.42,12.66,16.85,23.43,20.16,19.82,6.09,40.5-.88,50.36-17.2C566.06,114.13,567.33,103.9,567.69,92.85Z"/><path class="cls-1" d="M813.14,135.85c-8.5,0-17,.08-25.5,0-2.56,0-3.89.76-4.68,3.28-2.19,7-4.68,13.88-7,20.84-2.42,7.38-6.25,10.32-13.9,10.39s-15-.08-22.49.11c-3.35.08-4-.73-2.74-4q14.89-37.87,29.52-75.85C775,68.26,783.82,46,792.1,23.47c2-5.48,4.73-7.33,10.44-7,8.13.52,16.33.26,24.49.08,3.26-.07,4.93.89,6.18,4.15Q861.16,93.46,889.44,166c1.18,3.05,1.24,4.46-2.73,4.34-7.83-.24-15.67,0-23.5-.12-6.7-.13-9.94-2.63-12.2-9-2.48-7.07-5-14.12-7.24-21.27-.94-3-2.38-4.25-5.64-4.17C829.81,136,821.47,135.84,813.14,135.85Zm.31-85.26c-.5.45-.88.62-1,.89-6.23,18.6-12.34,37.25-18.76,55.79-1.33,3.86.08,4.12,3.2,4.1,10.82-.09,21.64-.21,32.46.08,4.48.12,4.43-1.41,3.23-4.88C826.16,88,819.88,69.46,813.45,50.59Z"/><path class="cls-1" d="M573,191.25H261.51c-2.88,0-5.75.4-5.29-4.18.25-2.45,1.09-3.14,3.35-3.06,3.16.11,6.33,0,9.49,0H884.93c3,0,6.75-1.08,6.06,4.35-.23,1.81-.69,2.81-2.61,2.78-1.33,0-2.67,0-4,0H573Z"/><path class="cls-2" d="M152.29,122c3.18,3.07,6.34,6.18,10.86,7.23A116.87,116.87,0,0,1,146,139.35c-8.13,4-11.46,10.27-11.24,19.29.35,14.65.06,29.32.07,44,0,8.83,0,17.66.08,26.49.06,4-1,4.42-4.63,2.6-5.35-2.71-7.25-6-7.07-12.41.57-21.47,0-43,0-64.46,0-9.8,3.93-17.87,12.16-23.34C140.78,128,146.1,124.18,152.29,122Z"/><path class="cls-3" d="M86,133.63c1.45-4.3,3.69-8,7.59-10.54,4.44,2.62,8.93,5.17,13.32,7.88,8.35,5.14,13.41,12.3,13.41,22.46q0,35.25,0,70.5c0,3-7.72,9.41-10.87,9.15-1.49-.12-1.34-1.19-1.36-2.13-.06-2.34-.07-4.67-.07-7,0-21.84-.13-43.67.09-65.5.08-8.1-2.59-14.21-9.93-18.06C94.07,138.23,90.05,135.89,86,133.63Z"/><path class="cls-4" d="M890.18,202.71c.81,3.09-.84,4.14-1.67,5.45-3,4.63-6.4,9-5.24,15.08.17.89.11,2.25-1.23,2.3s-1.46-1.33-1.31-2.22c1.07-6.21-2.34-10.85-5.41-15.58-.74-1.14-1.27-2.47-3.22-2.68-5.52-.6-6.19-.06-6.3,5.57-.1,5.06.46,10.17-.47,15.26-2.05-.23-1.82-1.64-1.85-2.67-.1-3.33,0-6.66-.06-10-.13-10.27,1.38-7.36-8.63-8.28-2-.18-4,.19-6,.17-2.7,0-5.16-.49-5.16,3.8s1.64,5.19,5.33,4.84c1.37-.13,3-.56,4.3.72-1.47,2.12-3.65,1.27-5.45,1.22-3.07-.08-4.87.26-4.89,4.2s2.21,4.09,5,4.19c2.19.08,4.5-.45,7.79,1.11-4.79,1.35-8.52.73-12.16,1-1.76.12-2.23-1.11-2.23-2.62q0-8.75,0-17.48c0-2,.89-3,3-3,9.3.08,18.6.06,27.9,0,4.6,0,5.37,4.18,6.94,6.91,1.92,3.33,3.38,2.16,5.09.46C886.48,208.41,887.2,205.08,890.18,202.71Z"/><path class="cls-4" d="M685.58,224.34c2.49-6.26,4.68-11.81,6.92-17.34.55-1.36.92-3.25,2.52-3.4,1.82-.18,2.07,1.86,2.63,3.16,2.34,5.5,4.6,11,6.89,16.57.37.88,1.12,1.86-.26,2.48s-1.5-.63-2-1.48c-4-7-9.9-7.12-14.33-.23-1.61,2.51-3.34,2.5-5.2.48-1.57-1.72-2.88-3.68-4.49-5.34-1.18-1.22-2.06-3.51-4.33-2.55-1.94.82-1.07,2.89-1.29,4.45s.54,3.35-.88,4.72c-1.54,0-1.48-1.11-1.48-2,0-5.82.06-11.65,0-17.47,0-2.37.79-3.37,3.18-3.21s4.68-.14,6.91.74c3.94,1.56,5.65,6.81,2.39,9.26-4.37,3.29-2.53,5.42.09,8.08C683.6,222,684.31,222.91,685.58,224.34Zm-13.12-15.09c-.16,2.65-.47,5.26,3.54,4.89,3-.27,5.89-.72,5.89-4.55s-2.93-4.21-5.93-4.51C672.5,204.73,672,206.61,672.46,209.25Zm22.7-2.25c-1.26,2.89-2.2,5.31-3.35,7.62s-.08,2.74,2,2.77c1.63,0,3.52.8,4.71-.54,1.35-1.54-.36-3.08-.84-4.55A47.58,47.58,0,0,0,695.16,207Z"/><path class="cls-3" d="M84,154.32a9.12,9.12,0,0,1,9-9.36,9.08,9.08,0,0,1,.5,18.14A9,9,0,0,1,84,154.32Z"/><path class="cls-2" d="M159.3,154.4c-.25,5.38-4.11,8.94-9.43,8.69a9.26,9.26,0,0,1-8.64-9.22,9.54,9.54,0,0,1,9.43-9A8.68,8.68,0,0,1,159.3,154.4Z"/><path class="cls-4" d="M422,219.43V203.66l1.3,0v22.73c-4.44-3.84-7.12-8.79-10.65-13-.83-1-1.21-2.82-2.72-2.53-2,.38-1.18,2.41-1.42,3.75-.64,3.61.84,7.45-.68,11l-1.52,0c0-6.87,0-13.74,0-20.61a1.2,1.2,0,0,1,1.18-1.32c.95,0,1.42.72,1.92,1.39q4,5.38,8.09,10.76C418.49,217,419.23,218.6,422,219.43Z"/><path class="cls-4" d="M608.39,214.73c-.24,7.05-4.85,11.57-11.71,11.48-5.63-.07-9.93-5.46-9.86-12.06.08-7.91,5.36-11.5,11.49-11.24S608.62,208,608.39,214.73ZM606,214.5c0-6-3.07-9.51-8.41-9.54-5.15,0-8.63,3.83-8.56,9.5s3.52,9.61,8.55,9.63S606,220.41,606,214.5Z"/><path class="cls-4" d="M428.9,215.05c0-1.17-.32-2.45.06-3.47,1-2.73-2.89-7.15,2.1-8.29,7.43-1.69,14,1,15.95,6,3.48,9.06-1.83,18.1-11.35,16.79a8.26,8.26,0,0,0-3-.06c-3.13.76-4.24-.25-3.83-3.51a61.83,61.83,0,0,0,.06-7.46Zm2.18-.79h0c0,2.32,0,4.65,0,7,0,1.11-.1,2.22,1.42,2.78,4.14,1.51,10.33-.66,12.17-4.43,2.41-4.92.65-11.19-3.75-13.47-6.16-3.18-9.88-1.05-9.87,5.65C431.09,212.6,431.08,213.43,431.08,214.26Z"/><path class="cls-4" d="M321.87,208.12c0,4.25.08,7,0,9.81-.09,2.61.47,5.29-1,7.86-1.49-7.27-.82-14.61-1-23.1,6.32,5.13,8.89,11.92,15.17,17.58V203.63l2.05,0c0,7,0,13.94,0,20.92,0,.35-.7,1-.86,1a5.62,5.62,0,0,1-3-2.22c-2.65-4-5.5-7.91-8.31-11.82C324.26,210.75,323.56,210.06,321.87,208.12Z"/><path class="cls-4" d="M810.07,214.21c.08,6.95-4.42,12.09-10.5,12-6.58-.11-11.13-4.76-11.22-11.45s4.51-11.73,10.77-11.83C805.88,202.8,810,207.05,810.07,214.21Zm-19.27.49c.07,5.79,3.4,9.39,8.69,9.38,4.87,0,8.5-4.21,8.42-9.78s-3.72-9.45-8.78-9.34S790.73,208.81,790.8,214.7Z"/><path class="cls-4" d="M292.2,225.53c-9.13-8.33-9.13-8.33-19.87-.17,2.85-7.07,5.51-14.22,8.67-21.14.94-2.08,2.6-.54,3.19.91C286.92,211.91,289.54,218.73,292.2,225.53Zm-9.57-18.25c-2.11,1.43-2.09,3.82-3.12,5.62-2,3.47-1,4.51,2.87,4.4,3.25-.09,4.32-.87,2.8-4C284.24,211.37,283.5,209.35,282.63,207.28Z"/><path class="cls-4" d="M610.5,214.42c0-6.64,4.76-11.54,11.11-11.52s10.7,4.57,10.74,11.15c0,7.39-4.22,12-11,12C615.06,226,610.47,221.11,610.5,214.42Zm19.48-.19c-.05-5.87-3.38-9.39-8.76-9.28s-8.37,3.8-8.26,9.77c.11,5.78,3.58,9.48,8.79,9.36S630,220.21,630,214.23Z"/><path class="cls-4" d="M384.65,225.74c.62-7.89,5.12-14.23,7.71-21.28a1.73,1.73,0,0,1,3.36,0c2.18,7.12,5.22,13.93,7.31,21.32-3.16-2.07-3.46-6.67-9-6.72S387.69,223.22,384.65,225.74Zm5-8.76c3,.15,6.89,1.46,7.37-.45.78-3-1.16-6.42-3.34-9.36A42.58,42.58,0,0,0,389.6,217Z"/><path class="cls-4" d="M830.64,222.06c-4,5.18-10.4,5.44-15,1-4.2-4-4.36-13.62-.28-17.35S826.67,202,831.21,207c-6.17-1.17-12.53-4.74-15.41,3-1.59,4.28-1,8.66,2.42,12C822.16,225.89,826.41,223.51,830.64,222.06Z"/><path class="cls-4" d="M493.43,225.75c-2.89-2.15-4.86-5.18-6.76-8.14a3,3,0,0,0-3.28-1.47c-2.16.13-1.44,1.83-1.59,3-.29,2.23.37,4.56-.51,6.7-1.82,0-1.78-1.3-1.79-2.15-.09-5.81,0-11.63-.12-17.45-.05-2.43,1-3.34,3.29-3.09,2.14.23,4.4,0,6.4.66,4.62,1.46,6,8,1.82,10.23-3.84,2.07-2.12,3.41-.61,5.39l4.13,5.44Zm-9-20.71c-2.64-.5-2.8,1.62-2.58,4s-1,5.3,3.2,5.14c3.1-.12,5.78-.91,5.86-4.5C491,205.91,488,205.33,484.39,205Z"/><path class="cls-4" d="M728.2,203.49c4.1,5.17,5.85,11.47,8.78,17.95,3.9-6,4.87-12.8,8.75-18.31,1.91,1.75.44,3.09,0,4.26-2.06,5.56-4.33,11.05-6.5,16.58-.38.95-.87,2-1.92,2.07-1.29.12-1.39-1.21-1.77-2.06C732.59,217.34,729.25,210.84,728.2,203.49Z"/><path class="cls-4" d="M764.47,204.11c-4.07,1.76-6.89,1-9.6.94-2.92-.05-3.36,1.45-3.14,3.7.2,2.1-.91,4.95,3,5,2,0,4.19-.71,6.34.81a4.48,4.48,0,0,1-4.7,1.35c-3.53-.68-4.6.58-4.79,4.1-.21,4.05,1.9,4.17,4.88,4.12,2,0,4.18-.62,6,2-3.81,0-7.63.06-11.44,0-1.53,0-1.68-1.35-1.69-2.56,0-6,0-12-.06-17.92,0-1.22-.07-2.5,1.62-2.42C754.93,203.38,759.05,202.59,764.47,204.11Z"/><path class="cls-4" d="M785.64,205.92c-2.24,1.22-3.31-.91-5-.93-2.26,0-4,.61-4.71,2.81s.47,3.51,2.3,4.37c1.34.63,2.75,1.13,4.14,1.67,2.76,1.07,4.61,2.91,4.11,6-.44,2.68-1.71,5.46-4.44,6.13-3,.74-6.31.47-8.82-2a1.22,1.22,0,0,1-.24-1.76c.68-.74,1.34-.46,2.08.18,2.4,2.08,4.95,2.6,7.44.15s2.35-4.72-.72-6.45c-1.42-.81-3.12-1.11-4.63-1.78-2.43-1.07-4.42-3-4.1-5.62a6.11,6.11,0,0,1,5-5.55C781,202.63,783.91,202.61,785.64,205.92Z"/><path class="cls-4" d="M309.92,203.78c-2,5.09-4,10.24-6.17,15.25-1,2.34-1.34,6.41-3.73,6.46-3,0-3-4.19-4.08-6.57A81.46,81.46,0,0,1,290,203c4.08,2,3.86,5.76,5.45,8.35s1,7.82,4.63,7.76c2.86-.05,2.78-5.05,4.23-7.73s1.5-6.07,4-8.18Z"/><path class="cls-4" d="M257.08,221.6c2.86,1.12,4.47,2.06,6.2,2.36,2.49.43,4.57-.33,5.42-3.14.8-2.63-.36-4.1-2.64-5.06-.92-.39-1.8-.86-2.74-1.19-2.85-1-5.14-2.35-5.09-5.88,0-2.75,1.65-4.33,3.94-5.19,3.11-1.16,6-.88,8.43,1.94-1.78,1.49-3,.55-4.36-.05-2.12-.95-4.18-.45-5,1.74a4.07,4.07,0,0,0,2.08,5.08,25.75,25.75,0,0,0,2.79,1c2.76,1.17,5.77,2.11,5.29,6.13-.37,3.06-1.6,5.55-4.77,6.29C263.16,226.46,259.78,226.36,257.08,221.6Z"/><path class="cls-4" d="M514.8,214.56a13.79,13.79,0,0,1,0-2.49c.54-2.9-1.69-6.6,1.45-8.63,3-1.91,12.6.64,14.82,3.44a11.68,11.68,0,0,1,1.75,12.62c-1.9,4.29-5.26,6.75-10.19,6.56a20.22,20.22,0,0,0-3.48,0c-3.6.5-4.71-1.14-4.39-4.53.23-2.3.05-4.64.05-7Zm2.15-.1c0,2.32,0,4.63,0,6.95,0,1.19.12,2.16,1.6,2.63a9.74,9.74,0,0,0,12.84-7.53,9.34,9.34,0,0,0-3.1-9.38,9.68,9.68,0,0,0-9.85-1.66c-3.26,1.3-.85,5.28-1.48,8A4.66,4.66,0,0,0,517,214.46Z"/><path class="cls-4" d="M665.29,203.16c-3.38,3.74-9-1.5-10.14,4.57-1.63,8.36,5.83,5,9.52,6.55-1.43,2.1-3.12,1.62-4.43,1.45-4-.52-5.16,1.3-5.18,5.05,0,4.37,3.12,3,5.25,3.24s4.15-.68,7.11,2H655c-1.84,0-2.09-1.22-2.08-2.69,0-5.82,0-11.64-.06-17.46,0-1.93.84-2.72,2.67-2.72Z"/><path class="cls-4" d="M586,221.75c-4.84,5.3-11.24,5.69-15.68,1.49-4.26-4-4.5-12.44-.48-16.76,4.41-4.73,10.4-4.91,16.11.43-4.48-.78-7.95-3.29-11.53-1.29s-5.61,5.32-5.17,9.47c.39,3.72,1.88,7,5.81,8.56C578.77,225.15,581.94,222.65,586,221.75Z"/><path class="cls-4" d="M362.38,221.46c3.25,1.23,5.06,2.87,7.62,2.34,2.16-.44,3.75-1.36,4.28-3.53.6-2.42-1-3.67-2.85-4.61a12.63,12.63,0,0,0-2.34-.79c-2.93-.8-5.27-2.25-5.48-5.59a5.37,5.37,0,0,1,3.71-5.86c3.12-1.06,6.12-.87,8.63,2.26-2.19,1.43-3.43-.92-5.15-.75-2.11.2-4.08.37-4.79,2.69s.46,3.75,2.72,4.46c1.09.34,2.11.92,3.18,1.35,3,1.2,5.14,3,4.64,6.68a6.24,6.24,0,0,1-5.39,5.72C367.81,226.45,364.66,226.08,362.38,221.46Z"/><path class="cls-4" d="M636,227.32c0-8.58,0-15.72,0-22.86,0-.27.24-.74.46-.8a14.87,14.87,0,0,1,9.7.47c2.86,1.12,3.93,3.42,3.56,6.39s-2,6.06-5,5.95c-6.55-.23-7.52,3.24-7,8.44C637.79,225.23,637.28,225.6,636,227.32Zm2-17.19c.62,1.5-1.72,5.12,3.21,4.94,3.58-.13,5.92-1.48,6.05-5,.15-3.95-2.85-4.6-6.08-4.92C637.28,204.74,637.87,207.27,638,210.13Z"/><path class="cls-4" d="M511,204.66c-2.62,1-5.42.46-8.12.43-2.46,0-3.37,1-3,3.28.3,2-1.16,5,2.66,5.32,2.09.18,4.29-.42,6.37.7-1.12,2.23-3,1.31-4.47,1.29-3.36,0-4.64,1.25-4.74,4.71-.11,3.91,2.16,3.75,4.78,3.73,2,0,4.15-.45,6,1.84-3.63,0-7.26.06-10.88,0-1.87,0-1.84-1.55-1.84-2.91,0-5.64,0-11.29,0-16.93,0-1.72.39-3,2.41-2.94h10.78C511,203.66,511,204.16,511,204.66Z"/><path class="cls-4" d="M475.68,222.05a9.61,9.61,0,0,1-14.15,1.61c-4.77-4.19-5-13.72-.47-18,4-3.8,10.81-3.56,15.15,1.39-6.42-2.41-12.15-3.95-15.27,3.13-1.8,4.1-1.44,8.2,1.87,11.52C466.85,225.72,471.22,224.16,475.68,222.05Z"/><path class="cls-4" d="M720.25,203.77c-.1.54-.08.74-.16.81-2,1.67-5.83-1.2-6.86,2.2-.73,2.43-.28,5.24-.26,7.87,0,3.84.27,7.69-1.34,11.36-2-3.88-1.1-8-1.2-11.94-.18-7.86,0-7.86-7-10.3Z"/><path class="cls-4" d="M360.11,206.57c-10.2-2.28-13.78-1.55-16,2.94-2.34,4.76-.26,10.55,5.8,15.48-5.62.38-7.49-3.12-8.74-7.22a11.25,11.25,0,0,1,4.92-13.38C350.38,201.78,356,202.45,360.11,206.57Z"/><path class="cls-4" d="M559.4,204c-7.34,1.85-7.31,1.85-7.34,9.88,0,3.82-.16,7.63-.3,11.44,0,.18-.49.35-1.15.79-1.45-4.24-.59-8.47-.67-12.58-.16-7.67,0-7.67-7.23-9.47A45.67,45.67,0,0,1,559.4,204Z"/><path class="cls-4" d="M723.07,225.55v-22l1.33,0c1,7.27.27,14.58.51,21.87Z"/><path class="cls-4" d="M313.57,225.6c-1.11-7.36-1.7-14.69-.09-22C315.24,211,314.45,218.29,313.57,225.6Z"/><path class="cls-4" d="M353.46,216c2.85-1.15,5.32-1.89,6.53-.15,1.48,2.13,1.18,5.18,0,7.54-1.07,2.07-3.66,1.94-5.68,2.51-.2.06-.77-.59-.88-1-.28-1,.54-1,1.16-1.07,2.57-.14,3.7-1.39,3.93-4C358.75,216.59,355.75,217.36,353.46,216Z"/><path class="cls-4" d="M835.73,203.56v21.9a61.47,61.47,0,0,1-1.23-21.89Z"/><path class="cls-4" d="M538.71,204.2v21.35h-1.25C537.53,218.41,536.71,211.28,538.71,204.2Z"/></svg>