<svg id="Layer_1" data-name="Layer 1" xmlns="http://www.w3.org/2000/svg" viewBox="0 0 500 139.86"><defs><style>.cls-1{fill:#b32317;}.cls-2{fill:#ffcf00;}.cls-3{fill:#de3831;}.cls-4{fill:#002395;}.cls-5{fill:#333;}</style></defs><title>ICT Innovators, NG</title><rect class="cls-1" x="105.38" y="82.16" width="371.98" height="0.82"/><rect class="cls-2" x="23.49" y="11.49" width="21.16" height="16.46" rx="0.67" ry="0.67"/><path class="cls-3" d="M81.61,108.14v18.28a1.45,1.45,0,0,1-1.44,1.44H25.59a2.11,2.11,0,0,1-2.1-2.1V45.6a2.1,2.1,0,0,1,2.1-2.1h17a2.08,2.08,0,0,1,2.07,2.07V86.79A19.91,19.91,0,0,0,64.56,106.7H80.17A1.44,1.44,0,0,1,81.61,108.14Z"/><path class="cls-4" d="M61.15,43.5H80.91a.7.7,0,0,1,.7.7V90.35a.7.7,0,0,1-.7.7H69.4a9,9,0,0,1-9-9V44.2A.7.7,0,0,1,61.15,43.5Z"/><rect class="cls-3" x="60.45" y="11.49" width="21.16" height="16.46" rx="0.67" ry="0.67"/><path class="cls-3" d="M114,37.68c0,4.8-7.26,4.8-7.26,0S114,32.89,114,37.68Zm-6.71,6.92v25h6.16v-25Z"/><path class="cls-3" d="M144.31,66.39a12.79,12.79,0,0,1-9.59,3.94c-7.21,0-13.22-4.34-13.22-13.17S127.51,44,134.72,44a11.8,11.8,0,0,1,9,3.68l-3.88,4.09a7.56,7.56,0,0,0-5-2,7,7,0,0,0-7.16,7.37c0,4.74,3.23,7.26,7.06,7.26a7.48,7.48,0,0,0,5.45-2.06Z"/><path class="cls-3" d="M159.65,37.68v7.07h6.86V50H159.6V60.79c0,2.37,1.31,3.53,3.23,3.53a7.1,7.1,0,0,0,3-.75l1.71,5.24a13.64,13.64,0,0,1-5.09,1.06c-5.4.2-8.93-2.87-8.93-9.08V50h-4.65V44.75h4.65V38.34Z"/><path class="cls-3" d="M195.88,37.68c0,4.8-7.26,4.8-7.26,0S195.88,32.89,195.88,37.68Zm-6.71,6.92v25h6.16v-25Z"/><path class="cls-3" d="M223.13,69.57v-13c0-3.78-2.07-6.66-6-6.66s-6.36,3.18-6.36,7V69.57h-6.11V44.65h5.5l.41,3.38c2.52-2.48,5-3.74,8.17-3.74,5.85,0,10.55,4.39,10.55,12.21V69.57Z"/><path class="cls-3" d="M256.84,69.57v-13c0-3.78-2.07-6.66-6-6.66s-6.36,3.18-6.36,7V69.57h-6.11V44.65h5.5l.41,3.38c2.52-2.48,5-3.74,8.17-3.74,5.85,0,10.55,4.39,10.55,12.21V69.57Z"/><path class="cls-3" d="M297,57.16c0,7.16-4.9,13-13,13s-12.92-5.81-12.92-13,4.95-13,12.87-13A12.58,12.58,0,0,1,297,57.16Zm-19.73,0c0,3.78,2.27,7.31,6.76,7.31s6.76-3.53,6.76-7.31-2.62-7.37-6.76-7.37C279.55,49.79,277.23,53.42,277.23,57.16Z"/><path class="cls-3" d="M330.41,44.65l-10.59,25h-6.66l-10.65-25h6.71l3.43,8.22,3.84,10.49L320.27,53l3.43-8.32Z"/><path class="cls-3" d="M357.06,44.7H363V69.57h-5.8l-.3-3.63c-1.42,2.92-5.3,4.34-8.08,4.39-7.36,0-12.81-4.49-12.81-13.22,0-8.58,5.7-13.07,13-13,3.33,0,6.51,1.56,7.93,4ZM342.12,57.11c0,4.74,3.28,7.57,7.37,7.57,9.69,0,9.69-15.09,0-15.09A7.08,7.08,0,0,0,342.12,57.11Z"/><path class="cls-3" d="M379.72,37.68v7.07h6.86V50h-6.91V60.79c0,2.37,1.31,3.53,3.22,3.53a7.1,7.1,0,0,0,3-.75l1.72,5.24a13.69,13.69,0,0,1-5.1,1.06c-5.4.2-8.93-2.87-8.93-9.08V50h-4.64V44.75h4.64V38.34Z"/><path class="cls-3" d="M419.83,57.16c0,7.16-4.89,13-13,13S394,64.32,394,57.16s4.94-13,12.86-13A12.58,12.58,0,0,1,419.83,57.16Zm-19.73,0c0,3.78,2.27,7.31,6.76,7.31s6.76-3.53,6.76-7.31-2.62-7.37-6.76-7.37C402.42,49.79,400.1,53.42,400.1,57.16Z"/><path class="cls-3" d="M433.71,44.7l.45,2.87c1.92-3.08,4.49-3.53,7-3.53a9.48,9.48,0,0,1,6.41,2.37l-2.78,5.35a6.15,6.15,0,0,0-4.44-1.62c-3.23,0-6.21,1.72-6.21,6.31V69.57H428V44.7Z"/><path class="cls-3" d="M470.09,51.31a8.35,8.35,0,0,0-6.15-2.22c-2.93,0-4.55.9-4.55,2.47s1.47,2.52,4.65,2.72c4.69.31,10.64,1.36,10.64,8,0,4.39-3.58,8.18-10.69,8.18-3.94,0-7.87-.66-11.51-4.44l3-4.39c1.77,2,5.8,3.43,8.58,3.48,2.32,0,4.49-1.16,4.49-3s-1.42-2.42-4.95-2.62c-4.69-.35-10.29-2.07-10.29-7.72s6-7.77,10.49-7.77c3.89,0,6.82.76,9.69,3.28Z"/><path d="M123.7,112.28a9.17,9.17,0,0,1-6.5,2.68c-6,0-9.16-4.21-9.19-9s3.06-9.24,9.19-9.24a9.17,9.17,0,0,1,6.5,2.68l-.94.82a7.82,7.82,0,0,0-5.56-2.27c-5.21,0-7.89,3.67-7.86,8s2.7,7.8,7.86,7.8a8,8,0,0,0,5.59-2.27Z"/><path d="M154.31,105.84c0,4.69-3,9.21-9,9.21s-9-4.54-9-9.26,3-9.19,9-9.19S154.34,101,154.31,105.84Zm-16.65,0c0,4,2.57,8,7.65,8s7.68-3.93,7.68-8-2.55-7.93-7.68-7.93S137.63,101.6,137.66,105.81Z"/><path d="M185,105.84c0,4.69-3,9.21-9,9.21s-9-4.54-9-9.26,3-9.19,9-9.19S185,101,185,105.84Zm-16.66,0c0,4,2.57,8,7.65,8s7.68-3.93,7.68-8-2.55-7.93-7.68-7.93S168.29,101.6,168.32,105.81Z"/><path d="M199.77,108.58v6.17h-1.38V96.9h7.84c7.75,0,7.75,11.68,0,11.68Zm0-10.41v9.16h6.46c5.94,0,5.94-9.16,0-9.16Z"/><path d="M226.58,105.14H237v1.25H226.58v7h11.28v1.32H225.23V96.9h12.32v1.3h-11Z"/><path d="M265.31,114.75H263.5L257.32,108h-4.87v6.76h-1.38V96.9h7.86a5.52,5.52,0,0,1,5.87,5.56c0,2.91-1.89,5.46-5.79,5.46Zm-12.86-8.06h6.33c3.11,0,4.49-1.76,4.51-4.26a4.11,4.11,0,0,0-4.36-4.26h-6.48Z"/><path d="M292,114.75l-2-4.38H279.34l-1.94,4.38h-1.48l8-17.85h1.5l8,17.85Zm-2.51-5.66-4.79-10.87-4.8,10.87Z"/><path d="M308,98.13h-6.46V96.91h14.29v1.22h-6.46v16.61H308Z"/><path d="M328.65,114.75V96.9H330v17.85Z"/><path d="M358.9,96.87l-7.34,17.91h-1.48l-7.35-17.91h1.48l6.61,16.33,6.6-16.33Z"/><path d="M372.78,105.14h10.46v1.25H372.78v7h11.27v1.32H371.43V96.9h12.32v1.3h-11Z"/><path d="M398.77,113.8a1.31,1.31,0,0,1-.07.44l-1,2.6h-1.1l.79-2.12a.93.93,0,0,1-.61-.92A1,1,0,0,1,398.77,113.8Z"/><path class="cls-5" d="M446.86,96.75h3.44V115h-2.14v0l-9.57-12.3V115h-3.43V96.78H438l8.91,11.28Z"/><path class="cls-5" d="M473.67,101.22A7,7,0,0,0,469,99.4c-3.9,0-6.26,3-6.26,6.71,0,3,1.74,6.09,6.26,6.09a6.08,6.08,0,0,0,4.11-1.46v-3.22h-4.66v-3.07h7.81v7.67a9.09,9.09,0,0,1-7.26,3.27c-6.84,0-9.62-4.49-9.62-9.28,0-5.12,3.2-9.85,9.62-9.85A9.58,9.58,0,0,1,475.8,99Z"/></svg>