<svg id="Layer_1" data-name="Layer 1" xmlns="http://www.w3.org/2000/svg" viewBox="0 0 500 139.86"><defs><style>.cls-1{fill:#dbdada;}</style></defs><title>ICT Innovators, UGwhite</title><rect class="cls-1" x="105.38" y="82.16" width="371.98" height="0.82"/><rect class="cls-1" x="23.49" y="11.49" width="21.16" height="16.46" rx="0.67" ry="0.67"/><path class="cls-1" d="M81.61,108.14v18.28a1.45,1.45,0,0,1-1.44,1.44H25.59a2.11,2.11,0,0,1-2.1-2.1V45.6a2.1,2.1,0,0,1,2.1-2.1h17a2.08,2.08,0,0,1,2.07,2.07V86.79A19.91,19.91,0,0,0,64.56,106.7H80.17A1.44,1.44,0,0,1,81.61,108.14Z"/><path class="cls-1" d="M61.15,43.5H80.91a.7.7,0,0,1,.7.7V90.35a.7.7,0,0,1-.7.7H69.4a9,9,0,0,1-9-9V44.2A.7.7,0,0,1,61.15,43.5Z"/><rect class="cls-1" x="60.45" y="11.49" width="21.16" height="16.46" rx="0.67" ry="0.67"/><path class="cls-1" d="M114,37.68c0,4.8-7.26,4.8-7.26,0S114,32.89,114,37.68Zm-6.71,6.92v25h6.16v-25Z"/><path class="cls-1" d="M144.31,66.39a12.79,12.79,0,0,1-9.59,3.94c-7.21,0-13.22-4.34-13.22-13.17S127.51,44,134.72,44a11.8,11.8,0,0,1,9,3.68l-3.88,4.09a7.56,7.56,0,0,0-5-2,7,7,0,0,0-7.16,7.37c0,4.74,3.23,7.26,7.06,7.26a7.48,7.48,0,0,0,5.45-2.06Z"/><path class="cls-1" d="M159.65,37.68v7.07h6.86V50H159.6V60.79c0,2.37,1.31,3.53,3.23,3.53a7.1,7.1,0,0,0,3-.75l1.71,5.24a13.64,13.64,0,0,1-5.09,1.06c-5.4.2-8.93-2.87-8.93-9.08V50h-4.65V44.75h4.65V38.34Z"/><path class="cls-1" d="M195.88,37.68c0,4.8-7.26,4.8-7.26,0S195.88,32.89,195.88,37.68Zm-6.71,6.92v25h6.16v-25Z"/><path class="cls-1" d="M223.13,69.57v-13c0-3.78-2.07-6.66-6-6.66s-6.36,3.18-6.36,7V69.57h-6.11V44.65h5.5l.41,3.38c2.52-2.48,5-3.74,8.17-3.74,5.85,0,10.55,4.39,10.55,12.21V69.57Z"/><path class="cls-1" d="M256.84,69.57v-13c0-3.78-2.07-6.66-6-6.66s-6.36,3.18-6.36,7V69.57h-6.11V44.65h5.5l.41,3.38c2.52-2.48,5-3.74,8.17-3.74,5.85,0,10.55,4.39,10.55,12.21V69.57Z"/><path class="cls-1" d="M297,57.16c0,7.16-4.9,13-13,13s-12.92-5.81-12.92-13,4.95-13,12.87-13A12.58,12.58,0,0,1,297,57.16Zm-19.73,0c0,3.78,2.27,7.31,6.76,7.31s6.76-3.53,6.76-7.31-2.62-7.37-6.76-7.37C279.55,49.79,277.23,53.42,277.23,57.16Z"/><path class="cls-1" d="M330.41,44.65l-10.59,25h-6.66l-10.65-25h6.71l3.43,8.22,3.84,10.49L320.27,53l3.43-8.32Z"/><path class="cls-1" d="M357.06,44.7H363V69.57h-5.8l-.3-3.63c-1.42,2.92-5.3,4.34-8.08,4.39-7.36,0-12.81-4.49-12.81-13.22,0-8.58,5.7-13.07,13-13,3.33,0,6.51,1.56,7.93,4ZM342.12,57.11c0,4.74,3.28,7.57,7.37,7.57,9.69,0,9.69-15.09,0-15.09A7.08,7.08,0,0,0,342.12,57.11Z"/><path class="cls-1" d="M379.72,37.68v7.07h6.86V50h-6.91V60.79c0,2.37,1.31,3.53,3.22,3.53a7.1,7.1,0,0,0,3-.75l1.72,5.24a13.69,13.69,0,0,1-5.1,1.06c-5.4.2-8.93-2.87-8.93-9.08V50h-4.64V44.75h4.64V38.34Z"/><path class="cls-1" d="M419.83,57.16c0,7.16-4.89,13-13,13S394,64.32,394,57.16s4.94-13,12.86-13A12.58,12.58,0,0,1,419.83,57.16Zm-19.73,0c0,3.78,2.27,7.31,6.76,7.31s6.76-3.53,6.76-7.31-2.62-7.37-6.76-7.37C402.42,49.79,400.1,53.42,400.1,57.16Z"/><path class="cls-1" d="M433.71,44.7l.45,2.87c1.92-3.08,4.49-3.53,7-3.53a9.48,9.48,0,0,1,6.41,2.37l-2.78,5.35a6.15,6.15,0,0,0-4.44-1.62c-3.23,0-6.21,1.72-6.21,6.31V69.57H428V44.7Z"/><path class="cls-1" d="M470.09,51.31a8.35,8.35,0,0,0-6.15-2.22c-2.93,0-4.55.9-4.55,2.47s1.47,2.52,4.65,2.72c4.69.31,10.64,1.36,10.64,8,0,4.39-3.58,8.18-10.69,8.18-3.94,0-7.87-.66-11.51-4.44l3-4.39c1.77,2,5.8,3.43,8.58,3.48,2.32,0,4.49-1.16,4.49-3s-1.42-2.42-4.95-2.62c-4.69-.35-10.29-2.07-10.29-7.72s6-7.77,10.49-7.77c3.89,0,6.82.76,9.69,3.28Z"/><path class="cls-1" d="M123,112.93a9.38,9.38,0,0,1-6.61,2.72c-6.12,0-9.3-4.28-9.33-9.18s3.11-9.37,9.33-9.37A9.33,9.33,0,0,1,123,99.82l-1,.83a7.93,7.93,0,0,0-5.65-2.31c-5.29,0-8,3.73-8,8.08s2.74,7.93,8,7.93A8.08,8.08,0,0,0,122,112Z"/><path class="cls-1" d="M153.62,106.4c0,4.76-3.05,9.35-9.14,9.35s-9.15-4.61-9.15-9.4,3-9.33,9.15-9.33S153.65,101.5,153.62,106.4Zm-16.91,0c0,4.09,2.61,8.08,7.77,8.08s7.8-4,7.8-8.08-2.59-8.06-7.8-8.06S136.68,102.1,136.71,106.37Z"/><path class="cls-1" d="M184.33,106.4c0,4.76-3.06,9.35-9.15,9.35s-9.15-4.61-9.15-9.4,3-9.33,9.15-9.33S184.35,101.5,184.33,106.4Zm-16.92,0c0,4.09,2.61,8.08,7.77,8.08s7.8-4,7.8-8.08-2.59-8.06-7.8-8.06S167.38,102.1,167.41,106.37Z"/><path class="cls-1" d="M198.91,109.17v6.27h-1.4V97.3h8c7.87,0,7.87,11.87,0,11.87Zm0-10.57v9.3h6.56c6,0,6-9.3,0-9.3Z"/><path class="cls-1" d="M225.7,105.67h10.63v1.27H225.7v7.15h11.45v1.35H224.33V97.3h12.51v1.32H225.7Z"/><path class="cls-1" d="M264.59,115.44h-1.84l-6.27-6.87h-5v6.87h-1.4V97.3h8a5.61,5.61,0,0,1,6,5.65c0,3-1.91,5.55-5.88,5.55Zm-13.06-8.19H258c3.16,0,4.56-1.79,4.58-4.33a4.17,4.17,0,0,0-4.43-4.32h-6.58Z"/><path class="cls-1" d="M291.23,115.44l-2-4.46H278.4l-2,4.46h-1.5l8.13-18.14h1.53l8.14,18.14Zm-2.54-5.75-4.87-11-4.88,11Z"/><path class="cls-1" d="M307.11,98.57h-6.56V97.33h14.51v1.24h-6.55v16.87h-1.4Z"/><path class="cls-1" d="M327.6,115.44V97.3H329v18.14Z"/><path class="cls-1" d="M357.89,97.3l-7.46,18.19h-1.51L341.46,97.3H343l6.71,16.58,6.72-16.58Z"/><path class="cls-1" d="M371.54,105.67h10.62v1.27H371.54v7.15H383v1.35H370.17V97.3h12.51v1.32H371.54Z"/><path class="cls-1" d="M397.5,114.66a1.11,1.11,0,0,1-.08.44l-1,2.64h-1.12l.81-2.15a.94.94,0,0,1-.62-.93A1,1,0,0,1,397.5,114.66Z"/><path class="cls-1" d="M443.46,97.33v10.39c0,5.36-3.29,8.11-7.85,8.11-4.35,0-8.05-2.64-8.05-8.11V97.33H431v10.39c0,3.26,1.87,5,4.69,5s4.43-1.89,4.43-5V97.33Z"/><path class="cls-1" d="M470.15,101.73a7,7,0,0,0-4.61-1.81c-3.89,0-6.25,3-6.25,6.68,0,3,1.74,6.07,6.25,6.07a6,6,0,0,0,4.09-1.45V108H465v-3h7.78v7.64a9,9,0,0,1-7.23,3.26c-6.82,0-9.59-4.48-9.59-9.25,0-5.1,3.19-9.82,9.59-9.82a9.61,9.61,0,0,1,6.74,2.78Z"/></svg>