<svg xmlns="http://www.w3.org/2000/svg" viewBox="0 0 127.6 127.6"><defs><style>.cls-1{fill:#fff;stroke:#b32317;stroke-miterlimit:10;stroke-width:3px;}.cls-2{fill:#ffcf00;}.cls-3{fill:#b32317;}.cls-4{fill:#231f20;}</style></defs><title>favicon</title><g id="Layer_2" data-name="Layer 2"><g id="Layer_1-2" data-name="Layer 1"><circle class="cls-1" cx="63.8" cy="63.8" r="62.3"/><rect class="cls-2" x="43.92" y="24" width="14.47" height="11.26" rx="0.67" ry="0.67"/><path class="cls-3" d="M83.68,90.11v12.5a1,1,0,0,1-1,1H45.36a1.44,1.44,0,0,1-1.44-1.44V47.33a1.44,1.44,0,0,1,1.44-1.44H57a1.42,1.42,0,0,1,1.42,1.42V75.5A13.62,13.62,0,0,0,72,89.12H82.69A1,1,0,0,1,83.68,90.11Z"/><path class="cls-4" d="M69.2,45.9H83.68a0,0,0,0,1,0,0V78.42a0,0,0,0,1,0,0H76.42A7.22,7.22,0,0,1,69.2,71.2V45.9A0,0,0,0,1,69.2,45.9Z"/><rect class="cls-4" x="69.2" y="24" width="14.47" height="11.26" rx="0.67" ry="0.67"/></g></g></svg>