<svg xmlns="http://www.w3.org/2000/svg" viewBox="0 0 448.21 116.37"><defs><style>.cls-1{fill:#b32317;}.cls-2{fill:#ffcf00;}.cls-3{fill:#231f20;}.cls-4{fill:#3d424e;}</style></defs><title>innovators_1</title><g id="Layer_2" data-name="Layer 2"><g id="Layer_1-2" data-name="Layer 1"><path d="M115,63.63c-1.09-1.75-2.84-2-4.53-2s-4.53.64-4.53,3c0,1.9,2.05,2.35,4.57,2.82,2.89.55,5.88,1.07,5.88,4.3,0,3.38-3.42,4.19-5.92,4.19-2.33,0-5-1-6.13-3.25l1-.51c.92,1.82,3.27,2.72,5.11,2.72s4.77-.51,4.77-3.16c0-2.25-2.46-2.74-4.92-3.21-2.74-.53-5.54-1.09-5.54-3.85-.06-3.16,3.23-4.14,5.68-4.14,2.14,0,4,.34,5.47,2.54Z"/><path d="M142.07,75.71,140.43,72h-8.94l-1.62,3.68h-1.24l6.71-15h1.26l6.71,15ZM140,71l-4-9.1-4,9.1Z"/><path d="M168,73.64a7.71,7.71,0,0,1-5.45,2.25,7.25,7.25,0,0,1-7.69-7.57,7.32,7.32,0,0,1,7.69-7.74A7.7,7.7,0,0,1,168,62.82l-.79.69a6.54,6.54,0,0,0-4.66-1.9c-4.36,0-6.6,3.08-6.58,6.67s2.27,6.54,6.58,6.54a6.71,6.71,0,0,0,4.68-1.9Z"/><path d="M193.69,73.64a7.71,7.71,0,0,1-5.45,2.25,7.25,7.25,0,0,1-7.69-7.57,7.32,7.32,0,0,1,7.69-7.74,7.7,7.7,0,0,1,5.45,2.25l-.79.69a6.54,6.54,0,0,0-4.66-1.9c-4.36,0-6.6,3.08-6.58,6.67s2.27,6.54,6.58,6.54a6.71,6.71,0,0,0,4.68-1.9Z"/><path d="M222.13,68.25c0,3.93-2.52,7.72-7.55,7.72S207,72.16,207,68.2s2.5-7.69,7.55-7.69S222.15,64.21,222.13,68.25Zm-14,0c0,3.38,2.16,6.67,6.41,6.67S221,71.61,221,68.22s-2.14-6.65-6.43-6.65S208.15,64.7,208.17,68.22Z"/><path d="M245.26,71.05c-1.45-3.65-.55-8.1,4.11-10s8.42.7,9.9,4.37.56,8.07-4.12,10S246.75,74.81,245.26,71.05Zm13-5.21c-1.29-3.13-4.5-5.38-8.44-3.78s-4.73,5.46-3.47,8.59,4.47,5.36,8.45,3.75S259.55,69.11,258.21,65.85Z"/><path d="M271,67.86h8.61V69H271v6.78h-1.15v-15h10.07V61.9H271Z"/><path d="M314.4,60.75V70c0,7.82-11.46,7.84-11.46,0v-9.3h1.13V70a4.6,4.6,0,1,0,9.19,0v-9.3Z"/><path d="M340.62,63.5a7,7,0,0,0-4.81-1.93,6.31,6.31,0,0,0-6.6,6.67,6.22,6.22,0,0,0,6.6,6.56,6.75,6.75,0,0,0,4.55-1.73V68.89h-5.22v-1h6.31v5.6a7.72,7.72,0,0,1-5.64,2.42c-5.09,0-7.72-3.55-7.72-7.63a7.31,7.31,0,0,1,7.72-7.74,7.79,7.79,0,0,1,5.47,2.24Z"/><path d="M367.78,75.71,366.14,72H357.2l-1.62,3.68h-1.24l6.71-15h1.26l6.71,15ZM365.69,71l-4-9.1-4,9.1Z"/><path d="M382.77,60.75l10.07,12.38V60.75H394v15h-.45L383.43,63.35V75.71h-1.16v-15Z"/><path d="M421.15,68.06a7.18,7.18,0,0,1-7.59,7.65H408.5v-15h5.07A7.18,7.18,0,0,1,421.15,68.06Zm-11.5-6.22V74.6h3.91a6.38,6.38,0,1,0,0-12.76Z"/><path d="M447,75.71,445.32,72h-8.94l-1.62,3.68h-1.24l6.71-15h1.26l6.71,15ZM444.87,71l-4-9.1-4,9.1Z"/><rect class="cls-1" x="103.97" y="49.86" width="344.24" height="0.76"/><rect class="cls-2" width="21.16" height="16.46" rx="0.67" ry="0.67"/><path class="cls-1" d="M58.12,96.65v18.28a1.44,1.44,0,0,1-1.44,1.44H2.1a2.11,2.11,0,0,1-2.1-2.1V34.11A2.1,2.1,0,0,1,2.1,32h17a2.08,2.08,0,0,1,2.07,2.07V75.29A19.91,19.91,0,0,0,41.07,95.21h15.6A1.44,1.44,0,0,1,58.12,96.65Z"/><path class="cls-3" d="M37.66,32H57.42a.7.7,0,0,1,.7.7V78.85a.7.7,0,0,1-.7.7H45.91a9,9,0,0,1-9-9V32.71A.7.7,0,0,1,37.66,32Z"/><rect class="cls-3" x="36.96" width="21.16" height="16.46" rx="0.67" ry="0.67"/><path class="cls-1" d="M112,8.7c0,4.44-6.72,4.44-6.72,0S112,4.26,112,8.7Zm-6.21,6.4V38.21h5.7V15.09Z"/><path class="cls-1" d="M140,35.26a11.85,11.85,0,0,1-8.87,3.64c-6.68,0-12.23-4-12.23-12.19s5.56-12.19,12.23-12.19a10.93,10.93,0,0,1,8.31,3.41l-3.6,3.78a7,7,0,0,0-4.62-1.82,6.48,6.48,0,0,0-6.63,6.82c0,4.39,3,6.72,6.54,6.72a6.92,6.92,0,0,0,5-1.91Z"/><path class="cls-1" d="M154.19,8.7v6.54h6.35v4.9h-6.4v9.95c0,2.19,1.21,3.27,3,3.27a6.49,6.49,0,0,0,2.75-.7l1.59,4.86a12.73,12.73,0,0,1-4.72,1c-5,.19-8.26-2.66-8.26-8.4V20.14h-4.3v-4.9h4.3V9.3Z"/><path class="cls-1" d="M187.72,8.7c0,4.44-6.72,4.44-6.72,0S187.72,4.26,187.72,8.7Zm-6.21,6.4V38.21h5.7V15.09Z"/><path class="cls-1" d="M212.94,38.21v-12c0-3.5-1.91-6.16-5.56-6.16s-5.88,2.94-5.88,6.44V38.21h-5.65V15.14h5.09l.37,3.13c2.33-2.29,4.67-3.46,7.56-3.46,5.42,0,9.76,4.06,9.76,11.3V38.21Z"/><path class="cls-1" d="M244.13,38.21v-12c0-3.5-1.91-6.16-5.56-6.16s-5.88,2.94-5.88,6.44V38.21H227V15.14h5.09l.37,3.13c2.33-2.29,4.67-3.46,7.56-3.46,5.42,0,9.76,4.06,9.76,11.3V38.21Z"/><path class="cls-1" d="M281.26,26.72c0,6.63-4.53,12-12,12s-12-5.37-12-12,4.58-12,11.91-12A11.64,11.64,0,0,1,281.26,26.72Zm-18.26,0c0,3.5,2.1,6.77,6.26,6.77s6.26-3.27,6.26-6.77-2.43-6.82-6.26-6.82C265.15,19.9,263,23.26,263,26.72Z"/><path class="cls-1" d="M312.22,15.14,302.41,38.3h-6.16L286.4,15.14h6.21l3.18,7.61,3.55,9.71,3.5-9.62,3.18-7.7Z"/><path class="cls-1" d="M336.88,15.19h5.46v23H337l-.28-3.36c-1.31,2.71-4.9,4-7.47,4.06-6.82,0-11.86-4.16-11.86-12.23s5.28-12.09,12-12c3.08,0,6,1.45,7.33,3.74ZM323.06,26.67a6.59,6.59,0,0,0,6.82,7c9,0,9-14,0-14A6.55,6.55,0,0,0,323.06,26.67Z"/><path class="cls-1" d="M357.85,8.7v6.54h6.35v4.9h-6.4v9.95c0,2.19,1.21,3.27,3,3.27a6.49,6.49,0,0,0,2.75-.7l1.59,4.86a12.73,12.73,0,0,1-4.72,1c-5,.19-8.26-2.66-8.26-8.4V20.14h-4.3v-4.9h4.3V9.3Z"/><path class="cls-1" d="M395,26.72c0,6.63-4.53,12-12,12s-12-5.37-12-12,4.58-12,11.91-12A11.64,11.64,0,0,1,395,26.72Zm-18.26,0c0,3.5,2.1,6.77,6.26,6.77s6.26-3.27,6.26-6.77S386.8,19.9,383,19.9C378.86,19.9,376.71,23.26,376.71,26.72Z"/><path class="cls-1" d="M407.81,15.19l.42,2.66c1.77-2.85,4.16-3.27,6.49-3.27a8.73,8.73,0,0,1,5.93,2.19l-2.57,4.95A5.69,5.69,0,0,0,414,20.23c-3,0-5.74,1.59-5.74,5.84V38.21h-5.7v-23Z"/><path class="cls-1" d="M441.48,21.3a7.76,7.76,0,0,0-5.7-2.05c-2.71,0-4.2.84-4.2,2.29s1.35,2.33,4.3,2.52c4.34.28,9.85,1.26,9.85,7.38,0,4.06-3.32,7.56-9.9,7.56-3.64,0-7.28-.61-10.65-4.11l2.8-4.06c1.63,1.82,5.37,3.17,7.94,3.22,2.15,0,4.16-1.07,4.16-2.75s-1.31-2.24-4.58-2.43C431.16,28.54,426,27,426,21.72s5.51-7.19,9.71-7.19c3.6,0,6.3.7,9,3Z"/><path class="cls-4" d="M337.88,103.1a3.58,3.58,0,0,1-2.44-1,3.42,3.42,0,0,1-.76-1.05,3.37,3.37,0,0,1-.31-1.31,3.07,3.07,0,0,1,0-.81,3.37,3.37,0,0,1,.31-1.31,3.41,3.41,0,0,1,.76-1.05,3.58,3.58,0,0,1,2.44-1H343v1.4h-5.08a2.1,2.1,0,0,0-2.11,2,2.28,2.28,0,0,0,0,.7,2.1,2.1,0,0,0,2.11,2h2a3.54,3.54,0,0,1,1.34.26,3.41,3.41,0,0,1,1.11.72,3.6,3.6,0,0,1,.76,1.07,3.38,3.38,0,0,1,.31,1.31v.81a3.21,3.21,0,0,1-.28,1.35,3.59,3.59,0,0,1-.77,1.09,3.63,3.63,0,0,1-1.12.74,3.45,3.45,0,0,1-1.36.27h-5.21v-1.4h5.21a2.13,2.13,0,0,0,2.11-1.78,1.22,1.22,0,0,1,0-.18,1.26,1.26,0,0,0,0-.18v-.57a2.13,2.13,0,0,0-.65-1.49,2,2,0,0,0-1.49-.62Z"/><path class="cls-4" d="M345.92,92.33h1.4v3.54h5.11v1.4h-5.11V106a2,2,0,0,0,.62,1.49,2.06,2.06,0,0,0,1.51.62,2.12,2.12,0,0,0,2.11-2.11H353a3.55,3.55,0,0,1-.27,1.38,3.33,3.33,0,0,1-.76,1.12,3.85,3.85,0,0,1-1.12.76,3.31,3.31,0,0,1-1.36.28,3.4,3.4,0,0,1-1.38-.28,3.54,3.54,0,0,1-1.88-1.88,3.4,3.4,0,0,1-.28-1.38Z"/><path class="cls-4" d="M361.21,95.46A6.94,6.94,0,0,1,364,96a7,7,0,0,1,3.77,3.77,7,7,0,0,1,.55,2.76v6.75h-1.43v-2.51a6.78,6.78,0,0,1-2.42,2.05,7,7,0,0,1-3.23.76,6.85,6.85,0,0,1-2.74-.55,7.09,7.09,0,0,1-3.75-3.75,6.84,6.84,0,0,1-.55-2.74,6.94,6.94,0,0,1,.55-2.76A7.06,7.06,0,0,1,358.47,96,6.85,6.85,0,0,1,361.21,95.46Zm0,1.43a5.43,5.43,0,0,0-2.19.45,5.88,5.88,0,0,0-1.8,1.2,5.62,5.62,0,0,0-1.66,4,5.43,5.43,0,0,0,.45,2.19,5.73,5.73,0,0,0,3,3,5.43,5.43,0,0,0,2.19.45,5.62,5.62,0,0,0,4-1.66,5.88,5.88,0,0,0,1.2-1.8,5.43,5.43,0,0,0,.45-2.19,5.53,5.53,0,0,0-.45-2.2,5.56,5.56,0,0,0-3-3A5.53,5.53,0,0,0,361.21,96.89Z"/><path class="cls-4" d="M377.63,95.59a7,7,0,0,1,2.76.55,7,7,0,0,1,3.77,3.77,7,7,0,0,1,.55,2.76v13.51h-1.4v-9.26a7,7,0,0,1-5.67,2.81,6.85,6.85,0,0,1-2.74-.55,7.09,7.09,0,0,1-3.75-3.75,6.84,6.84,0,0,1-.55-2.74,6.94,6.94,0,0,1,.55-2.76,7.06,7.06,0,0,1,3.75-3.77A6.85,6.85,0,0,1,377.63,95.59Zm0,1.43a5.43,5.43,0,0,0-2.19.45,5.87,5.87,0,0,0-1.8,1.2,5.62,5.62,0,0,0-1.66,4,5.43,5.43,0,0,0,.45,2.19,5.73,5.73,0,0,0,3,3,5.43,5.43,0,0,0,2.19.45,5.53,5.53,0,0,0,2.2-.45,5.69,5.69,0,0,0,3-3,5.43,5.43,0,0,0,.45-2.19,5.62,5.62,0,0,0-1.66-4,5.84,5.84,0,0,0-1.81-1.2A5.53,5.53,0,0,0,377.63,97Z"/><path class="cls-3" d="M394.57,95.57a6.85,6.85,0,0,1,2.74.55,7.26,7.26,0,0,1,2.24,1.5,7,7,0,0,1,2.07,5,6.75,6.75,0,0,1-.55,2.73,7.13,7.13,0,0,1-3.75,3.74,6.85,6.85,0,0,1-2.74.55,7,7,0,0,1-2.58-.47,6.88,6.88,0,0,1-2.15-1.34v7.78h-2.32v-13a7,7,0,0,1,2.07-5,7.25,7.25,0,0,1,2.24-1.5A6.85,6.85,0,0,1,394.57,95.57Zm0,2.32a4.74,4.74,0,0,0-4.36,6.56,4.54,4.54,0,0,0,1,1.5,5,5,0,0,0,1.51,1,4.65,4.65,0,0,0,3.67,0,5,5,0,0,0,1.51-1,4.54,4.54,0,0,0,1-1.5,4.72,4.72,0,0,0-4.36-6.56Z"/><path class="cls-3" d="M410.7,109.64a6.85,6.85,0,0,1-2.74-.55,7.13,7.13,0,0,1-3.75-3.74,6.75,6.75,0,0,1-.55-2.73,7,7,0,0,1,2.07-5,7.25,7.25,0,0,1,2.24-1.5,7.07,7.07,0,0,1,5.48,0,7,7,0,0,1,3.73,3.74,7,7,0,0,1,.55,2.76V103q0,.22-.05.73H406.13a4.42,4.42,0,0,0,.62,1.43,5.13,5.13,0,0,0,1,1.13,4.54,4.54,0,0,0,1.34.76,4.58,4.58,0,0,0,1.58.27A2.78,2.78,0,0,0,412,107a5.45,5.45,0,0,0,1.24-.9l1.62,1.62a7.69,7.69,0,0,1-2,1.39A4.92,4.92,0,0,1,410.7,109.64Zm4.56-8.18a5.45,5.45,0,0,0-.63-1.42,4.55,4.55,0,0,0-1-1.13,4.74,4.74,0,0,0-1.34-.74,4.76,4.76,0,0,0-3.16,0,4.68,4.68,0,0,0-2.36,1.88,4.63,4.63,0,0,0-.62,1.42Z"/><path class="cls-3" d="M424.12,103.56a3.71,3.71,0,0,1-1.42-.27,3.87,3.87,0,0,1-1.17-.74,3.65,3.65,0,0,1-.82-1.12,3.5,3.5,0,0,1-.34-1.4,3.26,3.26,0,0,1,0-.84,3.44,3.44,0,0,1,.34-1.38,3.82,3.82,0,0,1,.82-1.13,3.73,3.73,0,0,1,2.59-1h5.19V98h-5.19a1.4,1.4,0,0,0-1,.39,1.88,1.88,0,0,0-.47,1.55,1.46,1.46,0,0,0,.47,1,1.39,1.39,0,0,0,1,.39H426a3.66,3.66,0,0,1,1.43.28,3.75,3.75,0,0,1,1.17.77,4,4,0,0,1,.81,1.13,3.51,3.51,0,0,1,.34,1.4v.76a3.36,3.36,0,0,1-.31,1.45,4.27,4.27,0,0,1-.81,1.17,3.5,3.5,0,0,1-1.19.8,3.83,3.83,0,0,1-1.47.28h-5.32V107H426a1.35,1.35,0,0,0,.93-.35,1.73,1.73,0,0,0,.53-.84v-.11a.29.29,0,0,1,0-.09.3.3,0,0,0,0-.09V105a1.51,1.51,0,0,0-.45-1,1.41,1.41,0,0,0-1-.42Z"/><path class="cls-3" d="M438.52,95.49a6.94,6.94,0,0,1,2.76.55A7.06,7.06,0,0,1,445,99.79a6.85,6.85,0,0,1,.55,2.74v6.75h-2.35v-1.51a7.17,7.17,0,0,1-2.15,1.31,7,7,0,0,1-2.58.47,6.75,6.75,0,0,1-2.73-.55,7.28,7.28,0,0,1-2.23-1.5,7,7,0,0,1-1.51-2.23,7.06,7.06,0,0,1,0-5.48A7.13,7.13,0,0,1,435.79,96,6.75,6.75,0,0,1,438.52,95.49Zm0,2.32a4.68,4.68,0,0,0-1.84.36,4.54,4.54,0,0,0-1.5,1,5,5,0,0,0-1,1.51,4.65,4.65,0,0,0,0,3.67,4.76,4.76,0,0,0,2.51,2.51,4.53,4.53,0,0,0,1.84.38,4.6,4.6,0,0,0,1.86-.38,4.84,4.84,0,0,0,1.5-1,4.78,4.78,0,0,0,1-5.17,4.82,4.82,0,0,0-1-1.51,4.55,4.55,0,0,0-1.5-1A4.75,4.75,0,0,0,438.52,97.81Z"/><path d="M262.46,111.75V103h.89v1l.16-.19a2.57,2.57,0,0,1,3.89,0,3.06,3.06,0,0,1,0,4.05,2.57,2.57,0,0,1-3.89,0l-.16-.19v4.12Zm4.25-7.37a1.92,1.92,0,0,0-2.8,0,2.06,2.06,0,0,0,0,2.84,1.91,1.91,0,0,0,2.8,0,2.07,2.07,0,0,0,0-2.84Z"/><path d="M274.26,107.83a2.92,2.92,0,0,1-4.12,0,2.77,2.77,0,0,1-.85-2.05,2.91,2.91,0,0,1,5.83,0A2.77,2.77,0,0,1,274.26,107.83Zm-.63-3.48a2,2,0,1,0,.59,1.43A2,2,0,0,0,273.64,104.34Z"/><path d="M280.27,104.8l-1.79,4.5L275.81,103h1l1.67,4.29,1.8-4.58,1.8,4.58,1.67-4.29h1l-2.65,6.28Z"/><path d="M291.24,106.14h-4.9a1.9,1.9,0,0,0,.7,1.18,2,2,0,0,0,2.21.25A2,2,0,0,0,290,107h1a2.83,2.83,0,0,1-1.07,1.26,2.65,2.65,0,0,1-1.46.46,3.16,3.16,0,0,1-1.27-.23,3,3,0,0,1-.92-.62,2.77,2.77,0,0,1-.85-2.05,2.92,2.92,0,0,1,2.91-2.91,2.85,2.85,0,0,1,2,.82,2.65,2.65,0,0,1,.88,2Zm-1.65-1.94a2,2,0,0,0-3,.53,2,2,0,0,0-.27.65h4A2.05,2.05,0,0,0,289.59,104.2Z"/><path d="M294.9,103.89a.93.93,0,0,0-.59.2,1.69,1.69,0,0,0-.41.48,2.43,2.43,0,0,0-.32,1.24v2.79h-.89V103h.89v1.15l0-.23a1.46,1.46,0,0,1,1.38-1,1.4,1.4,0,0,1,.56.11v1.15A1,1,0,0,0,294.9,103.89Z"/><path d="M302.08,106.14h-4.9a1.9,1.9,0,0,0,.7,1.18,2,2,0,0,0,2.21.25,2,2,0,0,0,.73-.61h1a2.83,2.83,0,0,1-1.07,1.26,2.66,2.66,0,0,1-1.46.46,3.17,3.17,0,0,1-1.27-.23,3,3,0,0,1-.92-.62,2.77,2.77,0,0,1-.85-2.05,2.92,2.92,0,0,1,2.91-2.91,2.85,2.85,0,0,1,2,.82,2.65,2.65,0,0,1,.88,2Zm-1.65-1.94a2,2,0,0,0-3,.53,2,2,0,0,0-.27.65h4A2.05,2.05,0,0,0,300.43,104.2Z"/><path d="M308,108.59v-1l-.16.19a2.58,2.58,0,0,1-3.89,0,3.06,3.06,0,0,1,0-4.05,2.58,2.58,0,0,1,3.89,0l.16.19V99.09h.89v9.5Zm-.56-4.21a1.92,1.92,0,0,0-2.8,0,2.06,2.06,0,0,0,0,2.84,1.91,1.91,0,0,0,2.8,0,2.07,2.07,0,0,0,0-2.84Z"/><path d="M314.17,108.59v-9.5h.89V104l.16-.19a2.57,2.57,0,0,1,3.89,0,3.06,3.06,0,0,1,0,4.05,2.57,2.57,0,0,1-3.89,0l-.16-.19v1Zm4.25-4.21a1.92,1.92,0,0,0-2.8,0,2.06,2.06,0,0,0,0,2.84,1.91,1.91,0,0,0,2.8,0,2.07,2.07,0,0,0,0-2.84Z"/><path d="M321,111.75l1.87-4.08L320.56,103h1l1.79,3.74L325,103h1l-3.85,8.74Z"/></g></g></svg>