<svg xmlns="http://www.w3.org/2000/svg" viewBox="0 0 456.32 116.37"><defs><style>.cls-1{fill:#fff;}</style></defs><title>logo_ic_white</title><g id="Layer_2" data-name="Layer 2"><g id="Layer_1-2" data-name="Layer 1"><path class="cls-1" d="M95.83,81.51c-1.18-1.9-3.08-2.17-4.91-2.2S86,80,86,82.6c0,2.06,2.22,2.55,4.95,3.05,3.12.6,6.36,1.16,6.36,4.65,0,3.65-3.7,4.53-6.41,4.53-2.52,0-5.39-1-6.63-3.51l1.11-.56c1,2,3.54,2.94,5.52,2.94s5.16-.56,5.16-3.42c0-2.43-2.66-3-5.32-3.47-3-.58-6-1.18-6-4.16-.07-3.42,3.49-4.48,6.15-4.48,2.31,0,4.33.37,5.92,2.75Z"/><path class="cls-1" d="M125.08,94.58l-1.78-4h-9.67l-1.76,4h-1.34l7.26-16.19h1.36l7.26,16.19Zm-2.27-5.13-4.35-9.85-4.35,9.85Z"/><path class="cls-1" d="M153.13,92.34a8.34,8.34,0,0,1-5.9,2.43c-5.46,0-8.3-3.82-8.32-8.19s2.77-8.37,8.32-8.37a8.33,8.33,0,0,1,5.9,2.43l-.86.74a7.08,7.08,0,0,0-5-2.06c-4.72,0-7.15,3.33-7.12,7.22s2.45,7.08,7.12,7.08a7.26,7.26,0,0,0,5.07-2.06Z"/><path class="cls-1" d="M180.93,92.34a8.34,8.34,0,0,1-5.9,2.43c-5.46,0-8.3-3.82-8.32-8.19s2.77-8.37,8.32-8.37a8.33,8.33,0,0,1,5.9,2.43l-.86.74a7.08,7.08,0,0,0-5-2.06c-4.72,0-7.15,3.33-7.12,7.22s2.45,7.08,7.12,7.08a7.26,7.26,0,0,0,5.07-2.06Z"/><path class="cls-1" d="M211.71,86.51c0,4.26-2.73,8.35-8.16,8.35s-8.16-4.12-8.16-8.4,2.71-8.32,8.16-8.32S211.73,82.13,211.71,86.51Zm-15.1,0c0,3.66,2.34,7.22,6.94,7.22s7-3.56,7-7.22-2.31-7.19-7-7.19S196.58,82.67,196.6,86.48Z"/><path class="cls-1" d="M236.73,89.54c-1.57-4-.6-8.76,4.44-10.8s9.11.76,10.71,4.73.61,8.73-4.45,10.78S238.35,93.6,236.73,89.54Zm14-5.63c-1.39-3.38-4.87-5.82-9.14-4.09s-5.12,5.91-3.75,9.3,4.84,5.8,9.15,4.06S252.19,87.44,250.74,83.91Z"/><path class="cls-1" d="M264.58,86.09h9.32v1.18h-9.32V94.6h-1.25V78.39h10.89v1.25h-9.64Z"/><path class="cls-1" d="M311.54,78.39V88.45c0,8.46-12.4,8.49-12.4,0V78.39h1.23V88.45a5,5,0,1,0,9.95,0V78.39Z"/><path class="cls-1" d="M339.91,81.37a7.52,7.52,0,0,0-5.2-2.08,6.83,6.83,0,0,0-7.15,7.22,6.73,6.73,0,0,0,7.15,7.1,7.3,7.3,0,0,0,4.93-1.88V87.2H334V86.11h6.82v6.06a8.35,8.35,0,0,1-6.11,2.61c-5.5,0-8.35-3.84-8.35-8.26,0-5.07,3.43-8.37,8.35-8.37a8.43,8.43,0,0,1,5.92,2.43Z"/><path class="cls-1" d="M369.3,94.58l-1.78-4h-9.67l-1.76,4h-1.34L362,78.39h1.36l7.26,16.19ZM367,89.44l-4.35-9.85-4.35,9.85Z"/><path class="cls-1" d="M385.51,78.39l10.89,13.39V78.39h1.23V94.58h-.49L386.23,81.21V94.58H385V78.39Z"/><path class="cls-1" d="M427,86.3a7.77,7.77,0,0,1-8.21,8.28h-5.48V78.39h5.48A7.77,7.77,0,0,1,427,86.3Zm-12.44-6.73V93.38h4.23a6.9,6.9,0,1,0,0-13.81Z"/><path class="cls-1" d="M455,94.58l-1.78-4h-9.67l-1.76,4h-1.34l7.26-16.19h1.36l7.26,16.19Zm-2.27-5.13-4.35-9.85L444,89.44Z"/><rect class="cls-1" x="83.85" y="66.61" width="372.47" height="0.82"/><rect class="cls-1" width="21.16" height="16.46" rx="0.67" ry="0.67"/><path class="cls-1" d="M58.12,96.65v18.28a1.44,1.44,0,0,1-1.44,1.44H2.1a2.11,2.11,0,0,1-2.1-2.1V34.11A2.1,2.1,0,0,1,2.1,32h17a2.08,2.08,0,0,1,2.07,2.07V75.29A19.91,19.91,0,0,0,41.07,95.21h15.6A1.44,1.44,0,0,1,58.12,96.65Z"/><path class="cls-1" d="M37.66,32H57.42a.7.7,0,0,1,.7.7V78.85a.7.7,0,0,1-.7.7H45.91a9,9,0,0,1-9-9V32.71A.7.7,0,0,1,37.66,32Z"/><rect class="cls-1" x="36.96" width="21.16" height="16.46" rx="0.67" ry="0.67"/><path class="cls-1" d="M92.52,22.07c0,4.8-7.27,4.8-7.27,0S92.52,17.27,92.52,22.07ZM85.8,29V54H92V29Z"/><path class="cls-1" d="M122.84,50.82a12.82,12.82,0,0,1-9.6,3.94C106,54.76,100,50.41,100,41.57s6-13.19,13.24-13.19a11.83,11.83,0,0,1,9,3.69l-3.89,4.09a7.56,7.56,0,0,0-5-2,7,7,0,0,0-7.17,7.38c0,4.75,3.23,7.27,7.07,7.27a7.49,7.49,0,0,0,5.46-2.07Z"/><path class="cls-1" d="M138.2,22.07v7.07h6.87v5.31h-6.92V45.21c0,2.37,1.31,3.54,3.23,3.54a7,7,0,0,0,3-.76l1.72,5.25A13.78,13.78,0,0,1,141,54.3c-5.41.2-8.94-2.88-8.94-9.09V34.45h-4.65V29.14H132V22.73Z"/><path class="cls-1" d="M174.48,22.07c0,4.8-7.27,4.8-7.27,0S174.48,17.27,174.48,22.07ZM167.76,29V54h6.16V29Z"/><path class="cls-1" d="M201.76,54V41c0-3.79-2.07-6.67-6-6.67-3.79,0-6.37,3.18-6.37,7V54h-6.11V29h5.51l.4,3.38c2.53-2.48,5.05-3.74,8.18-3.74,5.86,0,10.56,4.4,10.56,12.23V54Z"/><path class="cls-1" d="M235.51,54V41c0-3.79-2.07-6.67-6-6.67-3.79,0-6.37,3.18-6.37,7V54H217V29h5.51l.4,3.38c2.53-2.48,5.05-3.74,8.18-3.74,5.86,0,10.56,4.4,10.56,12.23V54Z"/><path class="cls-1" d="M275.68,41.57c0,7.17-4.9,13-13,13s-12.93-5.81-12.93-13,5-13,12.88-13A12.59,12.59,0,0,1,275.68,41.57Zm-19.75,0c0,3.79,2.27,7.33,6.77,7.33s6.77-3.54,6.77-7.33-2.63-7.38-6.77-7.38C258.25,34.2,255.93,37.83,255.93,41.57Z"/><path class="cls-1" d="M309.18,29,298.57,54.1H291.9L281.24,29H288l3.44,8.23,3.84,10.51L299,37.38,302.46,29Z"/><path class="cls-1" d="M335.86,29.09h5.91V54H336l-.3-3.64c-1.41,2.93-5.3,4.34-8.08,4.4-7.38.05-12.83-4.5-12.83-13.24,0-8.59,5.71-13.08,13-13,3.33,0,6.52,1.57,7.93,4Zm-15,12.43c0,4.75,3.28,7.58,7.38,7.58,9.7,0,9.7-15.11,0-15.11A7.09,7.09,0,0,0,320.91,41.52Z"/><path class="cls-1" d="M358.55,22.07v7.07h6.87v5.31H358.5V45.21c0,2.37,1.31,3.54,3.23,3.54a7,7,0,0,0,3-.76l1.72,5.25a13.78,13.78,0,0,1-5.1,1.06c-5.41.2-8.94-2.88-8.94-9.09V34.45h-4.65V29.14h4.65V22.73Z"/><path class="cls-1" d="M398.72,41.57c0,7.17-4.9,13-13,13s-12.93-5.81-12.93-13,5-13,12.88-13A12.59,12.59,0,0,1,398.72,41.57Zm-19.75,0c0,3.79,2.27,7.33,6.77,7.33s6.77-3.54,6.77-7.33-2.63-7.38-6.77-7.38C381.29,34.2,379,37.83,379,41.57Z"/><path class="cls-1" d="M412.61,29.09l.46,2.88c1.92-3.08,4.5-3.54,7-3.54a9.45,9.45,0,0,1,6.42,2.37l-2.78,5.36a6.16,6.16,0,0,0-4.45-1.62c-3.23,0-6.21,1.72-6.21,6.32V54H406.9V29.09Z"/><path class="cls-1" d="M449,35.71a8.4,8.4,0,0,0-6.16-2.22c-2.93,0-4.55.91-4.55,2.48s1.46,2.53,4.65,2.73c4.7.3,10.66,1.36,10.66,8,0,4.4-3.59,8.18-10.71,8.18-3.94,0-7.88-.66-11.52-4.45l3-4.39c1.77,2,5.81,3.44,8.59,3.49,2.32.05,4.5-1.16,4.5-3s-1.41-2.42-5-2.63c-4.7-.35-10.31-2.07-10.31-7.73s6-7.78,10.51-7.78c3.89,0,6.82.76,9.7,3.28Z"/></g></g></svg>