<svg xmlns="http://www.w3.org/2000/svg" viewBox="0 0 131 101"><defs><style>.cls-1{fill:none;stroke:#a7a9ac;stroke-miterlimit:10;opacity:0.66;}.cls-2{fill:#a7a9ac;}.cls-3{fill:#bcbec0;}.cls-4{fill:#939598;}.cls-5{fill:#d1d3d4;}</style></defs><title>brand-img-09</title><g id="Layer_2" data-name="Layer 2"><g id="Layer_1-2" data-name="Layer 1"><rect class="cls-1" x="0.5" y="0.5" width="130" height="100"/><path class="cls-2" d="M82.42,56.66a33.61,33.61,0,0,0,14.29-2.82c4.35-2,6.77-6,5.76-10.05a19,19,0,0,0-2.75-6c-2.77-4-6.78-6.67-11.12-8.76-7.86-3.78-16.08-5.7-24.83-4.25a19.93,19.93,0,0,0-4.42,1.27c-3.25,1.36-5.82,3.46-6.77,7.17-.46-2,.84-4.86,3-6.73a18.3,18.3,0,0,1,10.8-4.19c14.19-1,26.62,3,36.57,13.43a18,18,0,0,1,3.48,6c1.81,4.79.05,9.32-4.32,12.09a21.29,21.29,0,0,1-9,3,40.37,40.37,0,0,1-5.4.24C86,57,84.21,56.78,82.42,56.66Z"/><path class="cls-3" d="M89.57,38.17c-4.44.19-8.46,1-11.64,4.17-3.38,3.41-2.22,7.82-2.6,11.95H71a84,84,0,0,1,.72-8.42c.67-3.68,3-6.06,6.64-7.19a49,49,0,0,1,15.29-1.83V54.29H89.76V48.42H79.32c-.1-1.79.48-2.61,2.21-2.74,1.95-.15,3.92-.06,5.88-.06h2.16Z"/><path class="cls-3" d="M48.6,54.73V37.08H52c4.08,0,8.16,0,12.24,0a12.59,12.59,0,0,1,2.52.27A4.28,4.28,0,0,1,70.43,41a3.72,3.72,0,0,1-2,4.15,15.69,15.69,0,0,1,2.08,3.4c.84,2.74-.62,5.08-3.42,5.84a10.61,10.61,0,0,1-2.66.41c-5,0-10,0-14.95,0A6.42,6.42,0,0,1,48.6,54.73Zm3.88-1.9a8.66,8.66,0,0,0,1.06.14c3.61,0,7.22,0,10.83-.05a4,4,0,0,0,2.28-.53A4.82,4.82,0,0,0,68.38,50c.39-1.65-.74-3-2.77-3.13-4.34-.27-8.7-.23-13-.27C52.42,48.65,52.48,50.71,52.48,52.83ZM59.56,39v0c-2,0-3.91,0-5.87,0-.4,0-1.12.31-1.13.5a17.74,17.74,0,0,0,.16,5c.1.39,2.19.34,3.36.38q2.69.09,5.39,0a26,26,0,0,0,4.1-.34c1.89-.36,2.83-1.49,2.72-3-.12-1.66-1.07-2.5-3.18-2.59C63.26,38.9,61.41,39,59.56,39Z"/><path class="cls-3" d="M43,47.47c2.75,1.75,4.3,4,4.3,7.32H45.07c-.74-4.61-4.31-6.74-9.36-6.69-2.06,0-4.12,0-6.37,0v6.67h-5V37.28c.48,0,.88-.11,1.29-.11,5.09,0,10.17-.07,15.26,0a10.39,10.39,0,0,1,3.41.62,4.44,4.44,0,0,1,3,4.08A4.42,4.42,0,0,1,45,46.48C44.38,46.8,43.77,47.08,43,47.47ZM29.34,46.11c4.28,0,8.33,0,12.39,0a5.33,5.33,0,0,0,1.83-.49c1.89-.75,2.68-2,2.44-3.77a3.4,3.4,0,0,0-3.46-2.91c-4.07-.09-8.14,0-12.22,0a1.32,1.32,0,0,0-.94.87C29.29,41.85,29.34,43.91,29.34,46.11Z"/><path class="cls-4" d="M19.18,65.62H17.65l-1.94-2.68h-.6V64.6a1.17,1.17,0,0,0,.12.67.6.6,0,0,0,.48.19h.22v.16H13.48v-.16h.22a.58.58,0,0,0,.52-.24,1.33,1.33,0,0,0,.09-.62V60.9a1.18,1.18,0,0,0-.12-.67.62.62,0,0,0-.49-.19h-.22v-.16h2.09a5,5,0,0,1,1.35.13,1.54,1.54,0,0,1,.74.49,1.28,1.28,0,0,1,.3.85,1.34,1.34,0,0,1-.34.92,2,2,0,0,1-1.07.55l1.18,1.64a2.94,2.94,0,0,0,.7.75,1.76,1.76,0,0,0,.76.24Zm-4.07-2.95h.24a1.86,1.86,0,0,0,1.24-.36,1.14,1.14,0,0,0,.42-.91,1.18,1.18,0,0,0-.34-.87,1.2,1.2,0,0,0-.89-.34,3.72,3.72,0,0,0-.66.08Z"/><path class="cls-4" d="M20,63.2a2,2,0,0,0,.42,1.35,1.28,1.28,0,0,0,1,.49,1.08,1.08,0,0,0,.66-.21,1.55,1.55,0,0,0,.47-.72l.13.08a2,2,0,0,1-.52,1.05,1.38,1.38,0,0,1-1.07.48,1.56,1.56,0,0,1-1.19-.54,2.08,2.08,0,0,1-.5-1.46,2.21,2.21,0,0,1,.51-1.55,1.66,1.66,0,0,1,1.28-.56,1.43,1.43,0,0,1,1.07.43,1.58,1.58,0,0,1,.42,1.15ZM20,63h1.79a1.67,1.67,0,0,0-.09-.52.84.84,0,0,0-.32-.37.8.8,0,0,0-.44-.14.87.87,0,0,0-.63.27A1.18,1.18,0,0,0,20,63Z"/><path class="cls-4" d="M24.35,60.47v1.27h.91V62h-.91v2.51a.84.84,0,0,0,.11.51.34.34,0,0,0,.28.13A.49.49,0,0,0,25,65.1a.56.56,0,0,0,.2-.26h.17a1.33,1.33,0,0,1-.42.62.9.9,0,0,1-.56.21.76.76,0,0,1-.38-.11.65.65,0,0,1-.27-.31,1.62,1.62,0,0,1-.09-.62V62H23V61.9a1.6,1.6,0,0,0,.48-.31,2.52,2.52,0,0,0,.43-.53,4.79,4.79,0,0,0,.27-.59Z"/><path class="cls-4" d="M27,61.63v3.11a1.41,1.41,0,0,0,.05.48.36.36,0,0,0,.16.18.83.83,0,0,0,.38.06v.15H25.67v-.15a.88.88,0,0,0,.38-.05.38.38,0,0,0,.15-.18,1.37,1.37,0,0,0,.06-.49V63.25a5.28,5.28,0,0,0,0-.82.33.33,0,0,0-.09-.19.26.26,0,0,0-.17-.05.85.85,0,0,0-.29.06l-.06-.15,1.17-.47Zm-.35-2A.43.43,0,0,1,27,60a.42.42,0,0,1-.12.3.41.41,0,0,1-.3.13.43.43,0,1,1,0-.86Z"/><path class="cls-4" d="M29.17,61.63v.87q.49-.87,1-.87a.55.55,0,0,1,.38.14.44.44,0,0,1,.15.33.39.39,0,0,1-.11.28.35.35,0,0,1-.26.11.56.56,0,0,1-.33-.15.55.55,0,0,0-.27-.15.25.25,0,0,0-.17.08,2,2,0,0,0-.39.57v1.86a1.14,1.14,0,0,0,.08.49.44.44,0,0,0,.19.19.85.85,0,0,0,.4.08v.15h-2v-.15a.83.83,0,0,0,.44-.09.36.36,0,0,0,.15-.22,2.17,2.17,0,0,0,0-.41v-1.5a6.21,6.21,0,0,0,0-.81.31.31,0,0,0-.1-.19.28.28,0,0,0-.18-.06.84.84,0,0,0-.3.06l0-.15L29,61.63Z"/><path class="cls-4" d="M31.57,63.2A2,2,0,0,0,32,64.56,1.28,1.28,0,0,0,33,65a1.08,1.08,0,0,0,.66-.21,1.55,1.55,0,0,0,.47-.72l.13.08a2,2,0,0,1-.52,1.05,1.38,1.38,0,0,1-1.07.48,1.56,1.56,0,0,1-1.19-.54,2.08,2.08,0,0,1-.5-1.46,2.21,2.21,0,0,1,.51-1.55,1.66,1.66,0,0,1,1.28-.56,1.43,1.43,0,0,1,1.07.43,1.58,1.58,0,0,1,.42,1.15Zm0-.25h1.79a1.67,1.67,0,0,0-.09-.52.84.84,0,0,0-.32-.37.8.8,0,0,0-.44-.14.87.87,0,0,0-.63.27A1.18,1.18,0,0,0,31.57,63Z"/><path class="cls-4" d="M35.91,62.45l.5-.49a1.52,1.52,0,0,1,.41-.25,1.17,1.17,0,0,1,.44-.09,1,1,0,0,1,.63.21,1,1,0,0,1,.35.61,2.86,2.86,0,0,1,.74-.67,1.3,1.3,0,0,1,.62-.16,1,1,0,0,1,.55.16,1.05,1.05,0,0,1,.38.52,2.34,2.34,0,0,1,.09.77v1.67a1.52,1.52,0,0,0,.06.5.36.36,0,0,0,.16.16.78.78,0,0,0,.37.07v.15H39.28v-.15h.08a.67.67,0,0,0,.39-.1.37.37,0,0,0,.14-.21,2.74,2.74,0,0,0,0-.41V63.07a1.42,1.42,0,0,0-.11-.67.57.57,0,0,0-.53-.27,1,1,0,0,0-.45.11,2.43,2.43,0,0,0-.55.42v2.08a1.58,1.58,0,0,0,0,.49.36.36,0,0,0,.17.16,1,1,0,0,0,.42.07v.15h-2v-.15a.9.9,0,0,0,.44-.08.39.39,0,0,0,.17-.23,2.23,2.23,0,0,0,0-.42V63.07a1.26,1.26,0,0,0-.14-.68.6.6,0,0,0-.52-.27.94.94,0,0,0-.45.12,1.75,1.75,0,0,0-.54.42v2.08a1.44,1.44,0,0,0,.05.49.37.37,0,0,0,.16.17,1,1,0,0,0,.42.06v.15H34.63v-.15a.85.85,0,0,0,.37-.06.36.36,0,0,0,.16-.18,1.39,1.39,0,0,0,.06-.48V63.26a5.37,5.37,0,0,0,0-.83.34.34,0,0,0-.09-.19.26.26,0,0,0-.17-.05.82.82,0,0,0-.28.06l-.06-.15,1.17-.47h.18Z"/><path class="cls-4" d="M42.15,63.2a2,2,0,0,0,.42,1.35,1.28,1.28,0,0,0,1,.49,1.08,1.08,0,0,0,.66-.21,1.55,1.55,0,0,0,.47-.72l.13.08a2,2,0,0,1-.52,1.05,1.38,1.38,0,0,1-1.07.48A1.56,1.56,0,0,1,42,65.19a2.08,2.08,0,0,1-.5-1.46,2.21,2.21,0,0,1,.51-1.55,1.66,1.66,0,0,1,1.28-.56,1.43,1.43,0,0,1,1.07.43,1.58,1.58,0,0,1,.42,1.15Zm0-.25h1.79a1.67,1.67,0,0,0-.09-.52.84.84,0,0,0-.32-.37.8.8,0,0,0-.44-.14.87.87,0,0,0-.63.27A1.18,1.18,0,0,0,42.15,63Z"/><path class="cls-4" d="M46.47,62.45a1.83,1.83,0,0,1,1.3-.82.93.93,0,0,1,.55.16,1.06,1.06,0,0,1,.36.52,2.42,2.42,0,0,1,.09.78v1.65a1.39,1.39,0,0,0,.06.5.34.34,0,0,0,.15.16.84.84,0,0,0,.38.06v.15H47.45v-.15h.08a.65.65,0,0,0,.38-.08.44.44,0,0,0,.15-.24,2.47,2.47,0,0,0,0-.4V63.16a1.61,1.61,0,0,0-.14-.77.49.49,0,0,0-.46-.24,1.39,1.39,0,0,0-1,.55v2a1.47,1.47,0,0,0,0,.49.39.39,0,0,0,.16.18,1,1,0,0,0,.42.06v.15H45.19v-.15h.08a.45.45,0,0,0,.4-.15,1.1,1.1,0,0,0,.1-.57V63.3a6.27,6.27,0,0,0,0-.85.37.37,0,0,0-.1-.21.27.27,0,0,0-.18-.05.82.82,0,0,0-.28.06l-.06-.15,1.17-.47h.18Z"/><path class="cls-4" d="M50.8,60.47v1.27h.91V62H50.8v2.51a.84.84,0,0,0,.11.51.34.34,0,0,0,.28.13.49.49,0,0,0,.27-.09.56.56,0,0,0,.2-.26h.17a1.33,1.33,0,0,1-.42.62.9.9,0,0,1-.56.21.76.76,0,0,1-.38-.11.65.65,0,0,1-.27-.31,1.62,1.62,0,0,1-.09-.62V62h-.61V61.9a1.6,1.6,0,0,0,.48-.31,2.52,2.52,0,0,0,.43-.53,4.79,4.79,0,0,0,.27-.59Z"/><path class="cls-4" d="M58,62.69a1.84,1.84,0,0,1,.89.41,1.26,1.26,0,0,1,.41,1,1.42,1.42,0,0,1-.27.82,1.55,1.55,0,0,1-.74.57,4.3,4.3,0,0,1-1.44.18H54.12v-.16h.22a.58.58,0,0,0,.52-.23,1.32,1.32,0,0,0,.1-.63V60.9a1.17,1.17,0,0,0-.12-.67.62.62,0,0,0-.49-.19h-.22v-.16H56.6a4.86,4.86,0,0,1,1.11.1,1.79,1.79,0,0,1,1,.54,1.32,1.32,0,0,1,.33.89,1.23,1.23,0,0,1-.26.77A1.54,1.54,0,0,1,58,62.69Zm-2.22-.23.36,0h.44a2.47,2.47,0,0,0,.93-.13A1,1,0,0,0,58,62a1.15,1.15,0,0,0,.16-.6,1.1,1.1,0,0,0-.41-.86,1.78,1.78,0,0,0-1.2-.36,2.89,2.89,0,0,0-.76.09Zm0,2.74a4.26,4.26,0,0,0,1,.11A1.75,1.75,0,0,0,57.9,65a1.08,1.08,0,0,0,.4-.85,1.24,1.24,0,0,0-.18-.64,1.21,1.21,0,0,0-.59-.49,2.54,2.54,0,0,0-1-.18h-.45l-.3,0Z"/><path class="cls-4" d="M60.67,63.2a2,2,0,0,0,.42,1.35,1.28,1.28,0,0,0,1,.49,1.08,1.08,0,0,0,.66-.21,1.55,1.55,0,0,0,.47-.72l.13.08a2,2,0,0,1-.52,1.05,1.38,1.38,0,0,1-1.07.48,1.56,1.56,0,0,1-1.19-.54,2.08,2.08,0,0,1-.5-1.46,2.21,2.21,0,0,1,.51-1.55,1.66,1.66,0,0,1,1.28-.56,1.43,1.43,0,0,1,1.07.43,1.58,1.58,0,0,1,.42,1.15Zm0-.25h1.79a1.67,1.67,0,0,0-.09-.52.84.84,0,0,0-.32-.37.8.8,0,0,0-.44-.14.87.87,0,0,0-.63.27A1.18,1.18,0,0,0,60.67,63Z"/><path class="cls-4" d="M65,62.45a1.83,1.83,0,0,1,1.3-.82.93.93,0,0,1,.54.16,1.06,1.06,0,0,1,.36.52,2.44,2.44,0,0,1,.09.78v1.65a1.38,1.38,0,0,0,.06.5.34.34,0,0,0,.15.16.84.84,0,0,0,.38.06v.15H66v-.15h.08a.65.65,0,0,0,.38-.08.44.44,0,0,0,.15-.24,2.47,2.47,0,0,0,0-.4V63.16a1.61,1.61,0,0,0-.14-.77.49.49,0,0,0-.46-.24,1.39,1.39,0,0,0-1,.55v2a1.47,1.47,0,0,0,0,.49.39.39,0,0,0,.16.18,1,1,0,0,0,.42.06v.15H63.71v-.15h.08a.45.45,0,0,0,.4-.15,1.1,1.1,0,0,0,.1-.57V63.3a6.27,6.27,0,0,0,0-.85.37.37,0,0,0-.1-.21.27.27,0,0,0-.18-.05.82.82,0,0,0-.28.06l-.06-.15,1.17-.47H65Z"/><path class="cls-4" d="M68.85,63.2a2,2,0,0,0,.42,1.35,1.28,1.28,0,0,0,1,.49,1.08,1.08,0,0,0,.66-.21,1.56,1.56,0,0,0,.47-.72l.13.08A2,2,0,0,1,71,65.26a1.38,1.38,0,0,1-1.07.48,1.56,1.56,0,0,1-1.2-.54,2.08,2.08,0,0,1-.5-1.46,2.21,2.21,0,0,1,.51-1.55A1.66,1.66,0,0,1,70,61.62a1.43,1.43,0,0,1,1.07.43,1.58,1.58,0,0,1,.42,1.15Zm0-.25h1.79a1.68,1.68,0,0,0-.09-.52.84.84,0,0,0-.32-.37.8.8,0,0,0-.44-.14.87.87,0,0,0-.63.27A1.18,1.18,0,0,0,68.85,63Z"/><path class="cls-4" d="M73.56,62v2.55a1.24,1.24,0,0,0,.12.69.52.52,0,0,0,.42.19h.35v.15H72.13v-.15h.17a.59.59,0,0,0,.31-.08.44.44,0,0,0,.19-.23,1.92,1.92,0,0,0,.05-.56V62h-.75v-.3h.75v-.25a2.32,2.32,0,0,1,.19-1,1.52,1.52,0,0,1,.57-.65,1.55,1.55,0,0,1,.86-.25,1.31,1.31,0,0,1,.82.29.54.54,0,0,1,.25.43.34.34,0,0,1-.11.24.33.33,0,0,1-.24.11.38.38,0,0,1-.21-.07,1.1,1.1,0,0,1-.26-.3,1.06,1.06,0,0,0-.29-.31.55.55,0,0,0-.29-.08.53.53,0,0,0-.33.1.58.58,0,0,0-.19.32,6,6,0,0,0-.06,1.12v.28h1V62Z"/><path class="cls-4" d="M76.26,61.63v3.11a1.42,1.42,0,0,0,.05.48.36.36,0,0,0,.16.18.83.83,0,0,0,.38.06v.15H75v-.15a.88.88,0,0,0,.38-.05.38.38,0,0,0,.16-.18,1.37,1.37,0,0,0,.06-.49V63.25a5.28,5.28,0,0,0,0-.82.33.33,0,0,0-.09-.19.27.27,0,0,0-.17-.05.85.85,0,0,0-.29.06l-.06-.15,1.17-.47Zm-.35-2a.43.43,0,0,1,.43.43.42.42,0,0,1-.12.3.41.41,0,0,1-.3.13.43.43,0,1,1,0-.86Z"/><path class="cls-4" d="M78.46,60.47v1.27h.91V62h-.91v2.51a.84.84,0,0,0,.11.51.34.34,0,0,0,.28.13.49.49,0,0,0,.27-.09.56.56,0,0,0,.2-.26h.17a1.33,1.33,0,0,1-.42.62.9.9,0,0,1-.56.21.76.76,0,0,1-.38-.11.65.65,0,0,1-.27-.31,1.61,1.61,0,0,1-.09-.62V62h-.61V61.9a1.6,1.6,0,0,0,.48-.31,2.54,2.54,0,0,0,.43-.53,4.81,4.81,0,0,0,.27-.59Z"/><path class="cls-4" d="M82.24,61.63v1.32H82.1a1.72,1.72,0,0,0-.41-.85.93.93,0,0,0-.64-.22.7.7,0,0,0-.48.16.45.45,0,0,0-.18.35.63.63,0,0,0,.14.41,1.5,1.5,0,0,0,.53.37l.62.3a1.26,1.26,0,0,1,.86,1.1,1,1,0,0,1-.4.85,1.38,1.38,0,0,1-.89.32,3.06,3.06,0,0,1-.81-.13.85.85,0,0,0-.23,0,.17.17,0,0,0-.15.11h-.14V64.29H80a1.57,1.57,0,0,0,.45.89,1.09,1.09,0,0,0,.75.3.67.67,0,0,0,.48-.17.54.54,0,0,0,.18-.41.66.66,0,0,0-.21-.49,3.56,3.56,0,0,0-.82-.5,2.4,2.4,0,0,1-.8-.55,1,1,0,0,1-.19-.61,1.08,1.08,0,0,1,.33-.8,1.16,1.16,0,0,1,.85-.32,2,2,0,0,1,.55.1,1.32,1.32,0,0,0,.29.06.16.16,0,0,0,.11,0,.38.38,0,0,0,.09-.13Z"/><path class="cls-4" d="M88.49,63.7H86.27l-.39.91a1.42,1.42,0,0,0-.14.5.29.29,0,0,0,.13.23,1.08,1.08,0,0,0,.54.13v.16H84.59v-.16a1,1,0,0,0,.46-.17,2.58,2.58,0,0,0,.48-.83l2-4.72h.15l2,4.77a2.19,2.19,0,0,0,.44.75.9.9,0,0,0,.55.19v.16H88.42v-.16a.85.85,0,0,0,.46-.11.29.29,0,0,0,.12-.24,1.77,1.77,0,0,0-.17-.59Zm-.12-.31-1-2.32-1,2.32Z"/><path class="cls-4" d="M94.45,61.74v2.35a5.79,5.79,0,0,0,0,.82.37.37,0,0,0,.1.21.24.24,0,0,0,.16.06.76.76,0,0,0,.3-.07l.06.15-1.16.48h-.19v-.82a3.51,3.51,0,0,1-.76.68,1.15,1.15,0,0,1-.55.14.89.89,0,0,1-.56-.19,1,1,0,0,1-.33-.48,2.91,2.91,0,0,1-.09-.84V62.5a.86.86,0,0,0-.06-.38.38.38,0,0,0-.18-.16,1,1,0,0,0-.42-.05v-.16h1.36v2.59a1,1,0,0,0,.19.71.66.66,0,0,0,.46.17,1,1,0,0,0,.41-.11,2.26,2.26,0,0,0,.55-.44v-2.2a.62.62,0,0,0-.12-.45.78.78,0,0,0-.5-.12v-.16Z"/><path class="cls-4" d="M96.51,60.47v1.27h.91V62h-.91v2.51a.84.84,0,0,0,.11.51.34.34,0,0,0,.28.13.49.49,0,0,0,.27-.09.56.56,0,0,0,.2-.26h.17a1.33,1.33,0,0,1-.42.62.9.9,0,0,1-.56.21.76.76,0,0,1-.38-.11.65.65,0,0,1-.27-.31,1.61,1.61,0,0,1-.09-.62V62H95.2V61.9a1.6,1.6,0,0,0,.48-.31,2.54,2.54,0,0,0,.43-.53,4.81,4.81,0,0,0,.27-.59Z"/><path class="cls-4" d="M98.93,59.6v2.83a3.24,3.24,0,0,1,.75-.66,1.16,1.16,0,0,1,.55-.15.9.9,0,0,1,.57.18,1.08,1.08,0,0,1,.35.57,4,4,0,0,1,.08,1v1.37a1.44,1.44,0,0,0,.06.5.33.33,0,0,0,.14.16.81.81,0,0,0,.37.06v.15h-1.9v-.15H100a.64.64,0,0,0,.38-.08.44.44,0,0,0,.15-.24,3.53,3.53,0,0,0,0-.4V63.37a3.33,3.33,0,0,0-.07-.83.57.57,0,0,0-.21-.3.59.59,0,0,0-.35-.1,1,1,0,0,0-.43.11,2,2,0,0,0-.54.44v2a1.59,1.59,0,0,0,0,.49.36.36,0,0,0,.17.16.94.94,0,0,0,.42.07v.15H97.63v-.15a.86.86,0,0,0,.41-.08.3.3,0,0,0,.13-.16,1.45,1.45,0,0,0,.05-.48V61.23a5.81,5.81,0,0,0,0-.82.37.37,0,0,0-.1-.21.26.26,0,0,0-.17-.05,1,1,0,0,0-.29.07l-.06-.15,1.16-.47Z"/><path class="cls-4" d="M104,61.63a1.71,1.71,0,0,1,1.41.67,2.05,2.05,0,0,1,.45,1.31,2.46,2.46,0,0,1-.25,1.05A1.77,1.77,0,0,1,104,65.73a1.64,1.64,0,0,1-1.39-.7,2.16,2.16,0,0,1-.44-1.32,2.34,2.34,0,0,1,.26-1.06,1.81,1.81,0,0,1,.7-.78A1.78,1.78,0,0,1,104,61.63Zm-.13.28a.88.88,0,0,0-.45.13.93.93,0,0,0-.37.47,2.25,2.25,0,0,0-.14.86,3,3,0,0,0,.34,1.46,1,1,0,0,0,.89.61.83.83,0,0,0,.68-.34,1.93,1.93,0,0,0,.27-1.16,2.65,2.65,0,0,0-.44-1.62A.92.92,0,0,0,103.88,61.9Z"/><path class="cls-4" d="M107.58,61.63v.87q.49-.87,1-.87a.55.55,0,0,1,.38.14.44.44,0,0,1,.15.33.39.39,0,0,1-.11.28.35.35,0,0,1-.26.11.56.56,0,0,1-.33-.15.55.55,0,0,0-.27-.15.25.25,0,0,0-.17.08,2.06,2.06,0,0,0-.39.57v1.86a1.14,1.14,0,0,0,.08.49.44.44,0,0,0,.2.19.85.85,0,0,0,.4.08v.15h-2v-.15a.83.83,0,0,0,.44-.09.36.36,0,0,0,.15-.22,2.24,2.24,0,0,0,0-.41v-1.5a6.21,6.21,0,0,0,0-.81.31.31,0,0,0-.1-.19.28.28,0,0,0-.18-.06.84.84,0,0,0-.3.06l0-.15,1.17-.47Z"/><path class="cls-4" d="M110.67,61.63v3.11a1.39,1.39,0,0,0,.05.48.36.36,0,0,0,.16.18.83.83,0,0,0,.38.06v.15h-1.88v-.15a.88.88,0,0,0,.38-.05.38.38,0,0,0,.15-.18,1.37,1.37,0,0,0,.06-.49V63.25a5.28,5.28,0,0,0,0-.82.33.33,0,0,0-.09-.19.26.26,0,0,0-.17-.05.86.86,0,0,0-.29.06l-.06-.15,1.17-.47Zm-.35-2a.43.43,0,0,1,.43.43.42.42,0,0,1-.12.3.41.41,0,0,1-.3.13.43.43,0,1,1,0-.86Z"/><path class="cls-4" d="M112.87,60.47v1.27h.91V62h-.91v2.51a.85.85,0,0,0,.11.51.34.34,0,0,0,.28.13.49.49,0,0,0,.27-.09.56.56,0,0,0,.2-.26h.17a1.33,1.33,0,0,1-.42.62.9.9,0,0,1-.56.21.76.76,0,0,1-.38-.11.65.65,0,0,1-.28-.31,1.63,1.63,0,0,1-.09-.62V62h-.61V61.9a1.6,1.6,0,0,0,.48-.31,2.51,2.51,0,0,0,.43-.53,4.78,4.78,0,0,0,.27-.59Z"/><path class="cls-4" d="M113.93,61.74h1.81v.16h-.09a.43.43,0,0,0-.29.08.26.26,0,0,0-.1.21,1.17,1.17,0,0,0,.14.46l.94,2,.87-2.14a.89.89,0,0,0,.07-.34.19.19,0,0,0,0-.11.22.22,0,0,0-.11-.07.79.79,0,0,0-.25,0v-.16h1.26v.16a.6.6,0,0,0-.24.07.68.68,0,0,0-.19.19,2.56,2.56,0,0,0-.14.33L116,66.35a2,2,0,0,1-.6.85,1.18,1.18,0,0,1-.71.29.59.59,0,0,1-.41-.14.43.43,0,0,1-.16-.33.37.37,0,0,1,.12-.29.45.45,0,0,1,.32-.11,1.13,1.13,0,0,1,.38.09l.21.06a.44.44,0,0,0,.28-.13,1.37,1.37,0,0,0,.3-.51l.27-.67-1.39-2.92a2.42,2.42,0,0,0-.2-.33.62.62,0,0,0-.49-.32Z"/><line class="cls-4" x1="10.89" y1="58.55" x2="120.45" y2="58.55"/><rect class="cls-5" x="10.89" y="58.15" width="109.56" height="0.8"/><line class="cls-4" x1="10.89" y1="68.1" x2="120.45" y2="68.1"/><rect class="cls-5" x="10.89" y="67.7" width="109.56" height="0.8"/></g></g></svg>