<svg xmlns="http://www.w3.org/2000/svg" viewBox="0 0 131 101"><defs><style>.cls-1{fill:none;stroke:#a7a9ac;stroke-miterlimit:10;opacity:0.66;}.cls-2{fill:#6d6e71;}.cls-3{fill:#bcbec0;}.cls-4{fill:#939598;}</style></defs><title>brand-img-21</title><g id="Layer_2" data-name="Layer 2"><g id="Layer_1-2" data-name="Layer 1"><path class="cls-1" d="M.5.5v100h130V.5Z"/><path class="cls-2" d="M66.41,92.55l0,0S66.32,92.62,66.41,92.55Z"/><path class="cls-2" d="M66.37,92.57l0,0C66.54,92.4,66.42,92.51,66.37,92.57Z"/><polygon class="cls-3" points="6.94 56.33 6.94 64.29 34.77 31.05 28.39 31.05 6.94 56.33"/><polygon class="cls-3" points="31.33 27.45 37.82 27.45 46.74 16.81 40.36 16.81 31.33 27.45"/><polygon class="cls-3" points="37.34 77.89 30.33 77.89 19.28 63.21 7.17 77.67 7.17 69.71 20.27 54.27 23.27 58.44 37.34 77.89"/><polygon class="cls-4" points="28.29 52.29 47.73 77.89 40.4 77.78 21.92 52.29 21.91 52.29 50.7 16.8 57.08 16.8 28.29 52.29"/><polygon class="cls-4" points="7.17 32.55 14.37 43.37 7.17 51.55 7.17 32.55"/><path class="cls-3" d="M48,50.33h.44a1.15,1.15,0,0,0,.89-.3L52,47a1.33,1.33,0,0,1,.51-.33,2.22,2.22,0,0,1,.69-.09h2.41l-3.54,3.71a2.33,2.33,0,0,1-.81.55,2.26,2.26,0,0,1,.57.25,2.15,2.15,0,0,1,.48.41L55.9,55.8H53.42l-.41,0a1.27,1.27,0,0,1-.29-.08.88.88,0,0,1-.21-.12l-.17-.17-2.71-3.2a.79.79,0,0,0-.37-.25,2.05,2.05,0,0,0-.61-.07H48V55.8H45.2V46.61H48Z"/><path class="cls-3" d="M59.58,48.25v2.14h3.76V52H59.58v2.19h4.91V55.8H56.79V46.61h7.69v1.64Z"/><path class="cls-3" d="M76.63,46.61V55.8H75.19a1.58,1.58,0,0,1-.54-.08,1.3,1.3,0,0,1-.43-.27L68.58,50c0,.16,0,.32,0,.48s0,.3,0,.43V55.8H66.2V46.61H68l.22,0a.79.79,0,0,1,.19.1l.21.17,5.68,5.52c0-.18,0-.35-.06-.51s0-.32,0-.47V46.61Z"/><path class="cls-3" d="M84.67,52.3V55.8H81.9V52.3l-4.33-5.7H80a1.08,1.08,0,0,1,.57.13,1.15,1.15,0,0,1,.35.33l1.69,2.67.39.59a6.09,6.09,0,0,1,.3.54,5.83,5.83,0,0,1,.28-.55q.16-.27.37-.58l1.67-2.67a1.21,1.21,0,0,1,.14-.16,1,1,0,0,1,.19-.15,1.06,1.06,0,0,1,.25-.11,1.15,1.15,0,0,1,.32,0H89Z"/><path class="cls-3" d="M99.36,55.8H97.21a1.15,1.15,0,0,1-.58-.13.91.91,0,0,1-.34-.33l-.71-1.6H91l-.71,1.6a.83.83,0,0,1-.32.32,1.1,1.1,0,0,1-.58.14H87.26l4.63-9.19h2.84Zm-4.41-3.51-1.11-2.52q-.12-.24-.26-.56t-.28-.7q-.12.39-.26.71c-.09.22-.18.41-.26.57l-1.1,2.5Z"/><path class="cls-4" d="M114.61,55.8H112.1a1.17,1.17,0,0,1-1-.4l-2-2.67a.88.88,0,0,0-.31-.25,1.23,1.23,0,0,0-.49-.08h-.71v3.4h-2.77V46.61h3.89a10.25,10.25,0,0,1,2.21.21,4.71,4.71,0,0,1,1.49.57,2.33,2.33,0,0,1,.84.86,2.38,2.38,0,0,1,.11,1.93,2.43,2.43,0,0,1-.46.74,3.19,3.19,0,0,1-.75.6,4.52,4.52,0,0,1-1,.43,2.61,2.61,0,0,1,.51.27,2.11,2.11,0,0,1,.43.38Zm-5.89-4.87a3.67,3.67,0,0,0,1-.11,1.89,1.89,0,0,0,.65-.31,1.16,1.16,0,0,0,.37-.46,1.38,1.38,0,0,0,.12-.56,1.08,1.08,0,0,0-.51-.95,2.92,2.92,0,0,0-1.59-.34H107.6v2.72Z"/><path class="cls-4" d="M118.41,48.25v2.14h3.76V52h-3.76v2.19h4.91V55.8h-7.69V46.61h7.69v1.64Z"/></g></g></svg>