<svg xmlns="http://www.w3.org/2000/svg" viewBox="0 0 131 101"><defs><style>.cls-1,.cls-6{fill:none;stroke-miterlimit:10;}.cls-1{stroke:#a7a9ac;opacity:0.66;}.cls-2{fill:#6d6e71;}.cls-3{fill:#a7a9ac;}.cls-4{fill:#bcbec0;}.cls-5{fill:#d1d3d4;}.cls-6{stroke:#bcbec0;stroke-width:0.5px;}</style></defs><title>brand-img-19 </title><g id="Layer_2" data-name="Layer 2"><g id="Layer_1-2" data-name="Layer 1"><path class="cls-1" d="M.5.5v100h130V.5Z"/><path class="cls-2" d="M66.41,92.55l0,0S66.32,92.62,66.41,92.55Z"/><path class="cls-2" d="M66.37,92.57l0,0C66.54,92.4,66.42,92.51,66.37,92.57Z"/><path class="cls-3" d="M74.48,25.92a.07.07,0,0,1,0,.05c-.21.21-.32.49-.53.69a4.54,4.54,0,0,0-.57.65c-.3.28-.57.59-.88.86s-.56.49-.86.72-.54.4-.83.58-.36.22-.55.32-.47.21-.68.35-.22.08-.32.13-.26.12-.4.16a1.45,1.45,0,0,0-.34.16l-.14,0a.61.61,0,0,0-.36.1.16.16,0,0,1-.1,0,.3.3,0,0,1-.12-.1c-.25-.52-.4-1.07-.61-1.6,0-.12-.12-.25,0-.36s.16-.29.23-.44a10.85,10.85,0,0,1,1.18-1.84c.42-.61.78-1.27,1.17-1.9a3,3,0,0,1,.75-1c.06,0,.05-.1,0-.16a16.6,16.6,0,0,0,3.21-2,16.83,16.83,0,0,0,2.56-2.51c.55-.64,1.11-1.27,1.69-1.88.16-.17.33-.5.61-.3a.73.73,0,0,1,.2.84,27.7,27.7,0,0,1-1,2.61,30.09,30.09,0,0,1-2.26,4.2c-.16.25-.33.5-.5.75S74.57,25.58,74.48,25.92Z"/><path class="cls-3" d="M63.34,13.35a5.23,5.23,0,0,1,3.11.89,5.71,5.71,0,0,1,2.5,3.33,3.16,3.16,0,0,1-.39,2.65,3.58,3.58,0,0,1-2.34,1.21.49.49,0,0,1-.29,0,.35.35,0,0,1-.14-.17,1.36,1.36,0,0,1-.06-.15c-.53-1.67-1.09-3.33-1.64-5-.26-.77-.49-1.55-.76-2.32C63.29,13.63,63.14,13.47,63.34,13.35Z"/><path class="cls-3" d="M63.34,13.35c-.07.11,0,.22,0,.32.61,1.83,1.22,3.66,1.83,5.49.21.64.4,1.29.6,1.93a.53.53,0,0,1-.42.07A6.75,6.75,0,0,1,62.06,20a4.82,4.82,0,0,1-1.87-2.3A3.35,3.35,0,0,1,60,16.09a1.35,1.35,0,0,0,0-.58A3.54,3.54,0,0,1,63.34,13.35Z"/><path class="cls-3" d="M78.22,31.1c1.56-.17,3.12-.3,4.69-.33a.55.55,0,0,0,.41.11,1.23,1.23,0,0,1,.95.35.74.74,0,0,0,.11.1,2.06,2.06,0,0,1,1,1.34c-.09.31-.41.2-.61.31l-.29.09c-.52.14-1,.33-1.54.52a10.74,10.74,0,0,0-1.28.54,1.06,1.06,0,0,1-.45.13c-.24-.11-.18-.32-.21-.51s.07-.39-.1-.56-.18,0-.31-.06c.12.07.22,0,.3.07A2.82,2.82,0,0,1,81,34.31a.26.26,0,0,1-.09.13.28.28,0,0,1-.21.05c-.15-.08-.14-.2-.11-.33s.17-.35,0-.54a5.17,5.17,0,0,0-.23.49l-.35.74a.41.41,0,0,1-.17.16.3.3,0,0,1-.18,0,.5.5,0,0,1-.31-.26c0-.15.11-.1.19-.12a3,3,0,0,0,.66-1.45c-.34.14-.58-.07-.82-.26l-1.28-1a2.57,2.57,0,0,1-.58-.68l.15-.06A.68.68,0,0,1,78.22,31.1Z"/><path class="cls-3" d="M77.56,31.23c.28,0,.31.35.5.49l1.69,1.34c.12.09.2.19.33,0s.24-.11.25.11a4.3,4.3,0,0,1-.43,1c-.06.11-.07.28-.25.26s-.22-.15-.29-.26c-.17-.3-.34-.59-.53-.88l-.07-.06c-.09-.13-.22,0-.33-.06s-.06.12-.12.16-.08.23-.06.34c.06.43,0,.87.05,1.3,0,.26-.11.45-.43.25a4.9,4.9,0,0,1-1.5.09.22.22,0,0,1-.08-.06c-.15-.54,0-.71.5-.73.12,0,.25,0,.33-.1s0-.21-.14-.2a1.38,1.38,0,0,1-.69-.05c-.25-.4-.15-.64.31-.69a6.9,6.9,0,0,0,1-.06c0-.12.09-.25-.12-.23a13.28,13.28,0,0,1-1.45,0c.11,0,.25,0,.2.17a.27.27,0,0,1-.17.12.35.35,0,0,1-.26-.07l-.13-.09c-.1-.08-.17-.05-.21.06a.26.26,0,0,1-.15.17.12.12,0,0,1-.09,0,.39.39,0,0,0-.29-.27c-.33-.14-.7-.12-1-.23a1.21,1.21,0,0,0-.37-.39c.09.18.29.29.13.46a2.49,2.49,0,0,0-.91.19c-.07,0-.2.08-.24,0-.13-.23-.36-.22-.56-.28l.89-.49.16-.06a1.53,1.53,0,0,1,.69-.35,5.7,5.7,0,0,1,1.06-.29l.1,0c.11,0,.2-.16.35-.1l.4-.12a3.05,3.05,0,0,1,1.28-.28h.1a.36.36,0,0,1,.35-.07Z"/><path class="cls-3" d="M70.53,23.35c.05.06.19,0,.18.16s-.11.07-.16.1a1.25,1.25,0,0,0-.44.48c-.58.87-1.05,1.81-1.68,2.66a7.43,7.43,0,0,0-1,1.6.34.34,0,0,0,0,.21c0,.25-.08.24-.25.15s-.22-.26-.29-.42c-.19-.62-.43-1.22-.66-1.82s-.34-1-.53-1.5c-.05-.14-.15-.29,0-.45a.13.13,0,0,1,.1,0h.37c.24-.15.51-.06.77-.05l.13,0c.14,0,.28-.14.44-.05l.67-.13a2.19,2.19,0,0,1,1-.29A7.84,7.84,0,0,0,70.53,23.35Z"/><path class="cls-3" d="M63.6,24.24l.23.06a1,1,0,0,1,.67.09,3.33,3.33,0,0,0,.83.09l0,.06a.71.71,0,0,1-.3.55,3.45,3.45,0,0,0-.44.63,14.61,14.61,0,0,1-2,2.82.84.84,0,0,0-.22.37.7.7,0,0,1-.37.47.87.87,0,0,1-.6-.23,3.22,3.22,0,0,1-.84-.58.24.24,0,0,1,0-.24,4.62,4.62,0,0,0,.62-1.17A10.93,10.93,0,0,1,62.14,26,12.53,12.53,0,0,0,63,24.83a1.4,1.4,0,0,0,.18-.58.1.1,0,0,1,.08-.08.08.08,0,0,0,.06,0C63.44,24.18,63.53,24.16,63.6,24.24Z"/><path class="cls-3" d="M85.37,32.71c-.16-.14-.32-.27-.24-.52s-.08-.19-.16-.26c-.29-.25-.6-.48-.88-.74a.81.81,0,0,0-.83-.18c-.18.07-.29-.08-.35-.24q2.29-.11,4.6-.05a7.08,7.08,0,0,1,2,.15c.3.1.59.22.53.62a.32.32,0,0,1-.13.38,1.57,1.57,0,0,1-1,.45,14.3,14.3,0,0,0-3,.39C85.68,32.74,85.53,32.84,85.37,32.71Z"/><path class="cls-3" d="M87.52,40c.09.09.23.13.25.28s.21.16.24.3h0c-.06.17-.21.18-.36.2-.3,0-.59.12-.88.17a.12.12,0,0,0,.06.14c.83.6,1.55,1.32,2.32,2a.21.21,0,0,1,0,.22l0,.37a.56.56,0,0,1,0,.31.12.12,0,0,0,0,.06c.07.25.1.5-.15.67a.45.45,0,0,1-.39-.15,4.4,4.4,0,0,0-.58-.53l-3.46-2.74c-.23-.18-.4-.38-.28-.69s.27-.33.43-.19a1,1,0,0,0,.83.19c.43,0,.89.11,1.29-.15.27,0,0-.19.07-.27a.24.24,0,0,1,0-.1c0-.12.3,0,.19-.25,0-.06.08-.07.13,0S87.48,39.94,87.52,40Z"/><path class="cls-3" d="M65.9,21.35a3.89,3.89,0,0,0,2.32-.88l.34-.26a4.34,4.34,0,0,1-1.66,1.54,2.16,2.16,0,0,1-1.59.41h-.09a1.06,1.06,0,0,1-.91,0,.9.9,0,0,0-.44-.06,1.69,1.69,0,0,1-1-.34,8,8,0,0,1-1.7-1.17,2.89,2.89,0,0,1-.46-.53,3.55,3.55,0,0,1-1-2.16l0-.11a1.35,1.35,0,0,1-.05-.77l0-.28a.18.18,0,0,1,.14.08,4.35,4.35,0,0,0,.58,1.7,5.86,5.86,0,0,0,3.69,2.59,4.14,4.14,0,0,0,1.13.17C65.47,21.29,65.7,21.22,65.9,21.35Z"/><path class="cls-3" d="M63.23,24.21c.25.43-.12.7-.29,1a20,20,0,0,1-1.28,1.64,3.09,3.09,0,0,0-.54,1.1c-.08.28-.38.36-.44.63-.37,0-.6-.35-.92-.5a.48.48,0,0,1-.16-.21.53.53,0,0,1,.14-.44c.26-.33.49-.68.73-1a4.75,4.75,0,0,0,.55-1c.14-.37.51-.6.69-1a1.16,1.16,0,0,0,.19-.61c.11-.17.21,0,.31,0l.05,0v0h.09C62.65,24,63,23.91,63.23,24.21Z"/><path class="cls-3" d="M58,22l0,0,.76.48c.21-.11.27.15.43.17l.18.14a4.71,4.71,0,0,1-.76,1.36c-.28.42-.57.83-.82,1.26a.76.76,0,0,1-.64.46,2.72,2.72,0,0,1-1.12-1.07,6.37,6.37,0,0,1,.68-1.22c.11-.2.25-.38.35-.59A2.21,2.21,0,0,1,58,22Z"/><path class="cls-3" d="M60,23l.51.2a.69.69,0,0,1,.6.28.43.43,0,0,1,0,.39,6.62,6.62,0,0,1-.71,1.32,8.49,8.49,0,0,0-.91,1.34,1.27,1.27,0,0,1-.7.64,1.7,1.7,0,0,1-.74-.54,1.23,1.23,0,0,1,.3-.89A3.23,3.23,0,0,0,59,24.67a.7.7,0,0,1,.28-.37A2,2,0,0,0,60,23Z"/><path class="cls-3" d="M87.52,40l-.3-.24c.19.36-.17.24-.21.39-.13-.06-.06-.2-.12-.29s-.11-.08-.16-.1.11.05.13.13.06.24-.06.33-.05,0-.07,0c-.33-.39-.33-.39-.78-.17a.12.12,0,0,1-.08-.06.46.46,0,0,1,0-.07s0-.12,0-.12-.05.08-.07.12a.27.27,0,0,1,0,.09.14.14,0,0,1-.18,0,.24.24,0,0,0-.32-.09c-.08,0-.13.16-.25.08s-.06-.14,0-.34a.45.45,0,0,1-.5,0c-.08-.07.13-.15,0-.23a9.85,9.85,0,0,1-1.12-.89.48.48,0,0,1-.23-.47l.05,0a.08.08,0,0,1,.09,0l1.29.18A7,7,0,0,1,87,39.51C87.14,39.7,87.41,39.79,87.52,40Z"/><path class="cls-3" d="M60,23c.32.19,0,.35,0,.49s-.21.28-.21.48a.24.24,0,0,1-.11.18c-.75.41-.76,1.37-1.38,1.88-.05,0-.14.1-.06.21s0,.23-.15.28-.29-.1-.4-.21-.41-.28-.44-.55c.47-.12.6-.57.8-.92s.63-.81.86-1.28a2.94,2.94,0,0,1,.55-.84Z"/><path class="cls-3" d="M85.37,32.71a19.39,19.39,0,0,1,3.57-.5A1.1,1.1,0,0,0,90,31.49c.34.23.39.42.17.72a2.85,2.85,0,0,1-.35.34,2.78,2.78,0,0,1-1,.19,12.34,12.34,0,0,0-2.62.37c-.07,0-.12.12-.22.05s-.26-.09-.34.06l-.16.05c0,.05-.09.09-.16,0l-.19,0c-.1,0-.15.12-.26.12a.2.2,0,0,1-.14,0c-.09-.14,0-.28,0-.43a.23.23,0,0,1,0-.09C84.91,32.79,85.16,32.81,85.37,32.71Z"/><path class="cls-3" d="M88.62,46l-.06,0c-.37-.1-.58-.42-.86-.63-.92-.72-1.82-1.46-2.73-2.19-.19-.15-.42-.28-.4-.58.26-.19.45.1.67.13a17.32,17.32,0,0,1,1.63.81,6.29,6.29,0,0,0,1.17,1,1.73,1.73,0,0,1,.8.83C88.81,45.64,88.64,45.79,88.62,46Z"/><path class="cls-3" d="M89.14,43.17a2.33,2.33,0,0,1-.71-.56,11.57,11.57,0,0,0-1.59-1.36c-.1-.09-.3-.15-.25-.29s.24-.11.38-.15a6.08,6.08,0,0,0,1-.21,5.74,5.74,0,0,1,.93,1.59,1.59,1.59,0,0,0,.18.6C89.16,42.93,89.28,43,89.14,43.17Z"/><path class="cls-3" d="M68.34,30.56h.1c.12,0,.22-.1.34-.13a2.26,2.26,0,0,0,.35-.15,1.45,1.45,0,0,0,.41-.15c.21-.1.43-.2.63-.32a6,6,0,0,0,.54-.32,8.11,8.11,0,0,0,.85-.62,6.58,6.58,0,0,0,.85-.71,10.87,10.87,0,0,0,.88-.88,5.85,5.85,0,0,1,.55-.65c.21-.21.32-.5.6-.64l-.12.2a17.8,17.8,0,0,1-1.26,1.59l0,.06a1,1,0,0,1-.55.58l0,.06c-.12.36-.45.52-.75.7l-.09.08c-.12.15-.21.32-.43.34a.59.59,0,0,0-.29.23c-.1,0-.1.22-.25.16s-.12.08-.18.14a10.09,10.09,0,0,1-2.14,1c-.16-.13-.1-.29-.08-.45A.2.2,0,0,1,68.34,30.56Z"/><path class="cls-3" d="M59.82,16.82l-.1-.11a4.16,4.16,0,0,1,.23-1.19.37.37,0,0,1,.19.41,3.55,3.55,0,0,0,.77,2.91,5.31,5.31,0,0,0,2,1.57,6.9,6.9,0,0,0,2.92.69l0,.1c-.2.15-.43,0-.65.07a6.25,6.25,0,0,1-4.45-2.34A3.89,3.89,0,0,1,59.9,17,.21.21,0,0,0,59.82,16.82Z"/><path class="cls-3" d="M88.85,45.44c-.57-.7-1.48-1-2-1.78.11-.13.23,0,.33,0a8.63,8.63,0,0,1,1.57.84.62.62,0,0,0,.33.17c.17.17,0,.29,0,.43Z"/><path class="cls-3" d="M74.48,25.92c-.11-.26.16-.34.24-.5a2.28,2.28,0,0,1,.28-.36A4.4,4.4,0,0,1,74.48,25.92Z"/><path class="cls-3" d="M58.53,54.54a31.65,31.65,0,0,0,1.11-6.95,21.74,21.74,0,0,0-.12-3.4c.08-.1,0-.21,0-.31a.73.73,0,0,1,0-.25A10.5,10.5,0,0,0,58.76,40a6,6,0,0,0-1.11-1.87l-.07-.08a1.07,1.07,0,0,0-.24-.33c-.08-.14-.25-.22-.3-.39a.11.11,0,0,1,0-.1c.83-.34,1.59-.81,2.39-1.21,1.09-.55,2.16-1.13,3.25-1.67.12-.06.23-.15.38-.1a4.68,4.68,0,0,1,1,1.52,10.79,10.79,0,0,1,.8,5.47A27.43,27.43,0,0,1,63,48.74c-.18.48-.38,1-.57,1.44a.8.8,0,0,1-.12.45c-.67,1.54-1.35,3.07-2.07,4.58-.08.17-.12.37-.32.46-.34.64-.68,1.27-1,1.91a.55.55,0,0,1-.66.33c-.32-.08-.29-.37-.27-.61A17.6,17.6,0,0,1,58.45,55C58.48,54.84,58.51,54.69,58.53,54.54Z"/><path class="cls-3" d="M63.1,34.27,57.77,37c-.21.11-.39.35-.69.23s-.47-.37-.72-.54l-.52-.42L55,35.64l-.41-.32-.29-.23a1.26,1.26,0,0,0-.33-.22l-.14-.08a1.28,1.28,0,0,0-.32-.18,1,1,0,0,1-.23-.13,3,3,0,0,0-.77-.43L52.42,34a5.13,5.13,0,0,0-.89-.47,2,2,0,0,1-.38-.18,3.56,3.56,0,0,0-.77-.38A2.82,2.82,0,0,1,50,32.8a.21.21,0,0,1-.06-.08,1.47,1.47,0,0,1,0-.29c0-.12-.1-.24-.2,0s0,.19-.13.25a.29.29,0,0,1-.21,0,3.4,3.4,0,0,0-.59-.21c-.2-.07-.39-.15-.59-.2a.35.35,0,0,1-.13-.09c-.1-.23-.31-.14-.48-.16h-.05l-.1,0c-.24-.05-.47-.15-.72-.2l-.09,0a1.55,1.55,0,0,0-.32-.1l-.09,0a2.37,2.37,0,0,0-.46-.13l-.1,0c-.37-.12-.75-.23-1.13-.31l-.1,0a4.93,4.93,0,0,0-.78-.2l-.1,0a5.39,5.39,0,0,0-.95-.23l-.29-.05a1.14,1.14,0,0,0-.36-.12l-.1,0a6.72,6.72,0,0,0-1.18-.26l-.1,0L40,30a1.81,1.81,0,0,1-.77-.36.15.15,0,0,1,0-.11,34,34,0,0,1,4.57-.13,59.7,59.7,0,0,1,11.35,1.16,20.86,20.86,0,0,1,5.7,2A7.26,7.26,0,0,1,63.1,34.27Z"/><path class="cls-3" d="M70,43.45A15.8,15.8,0,0,1,68.82,40c.21-.13.27.06.37.17.22.26.26.27.39,0a.7.7,0,0,1,.53-.39c.23-.06.33,0,.27.26a.21.21,0,0,1-.08.06c-.14,0-.3,0-.41.08a1,1,0,0,0,0,.36c0,.61.16.77.73.56a1.1,1.1,0,0,1,.79,0c.1,0,.27.07.16.25s-.31,0-.46,0-.31,0-.35.2.12.19.21.27C72.29,42.87,73.64,44,75,45c.27.22.38.58.7.76l.76,2.54a.06.06,0,0,1-.06,0c0,.06.06,0,.09.06l.23.7c-.27.15-.46,0-.65-.18-.52-.39-1-.8-1.53-1.21-.71-.57-1.44-1.12-2.14-1.7a8.13,8.13,0,0,0-1.32-1,.73.73,0,0,1-.25-.26c-.11-.21-.23-.4-.35-.6a2.27,2.27,0,0,0-.2-.29l-.09-.12A.86.86,0,0,0,70,43.45Z"/><path class="cls-3" d="M71.91,33c.18,0,.48-.29.54.19,0,.1.2,0,.29,0a1.23,1.23,0,0,1,.87-.09.07.07,0,0,1,.07,0,.15.15,0,0,1,0,.08.37.37,0,0,1-.18.07c-.13,0-.25,0-.38,0s-.09,0-.09.11c0,.68.08,1.35.07,2l0,.1c.12.21.25.14.38,0a.32.32,0,0,0,0-.14,2,2,0,0,1,0-.26c0-.22,0-.42.23-.51a.59.59,0,0,1,.68.16,6.69,6.69,0,0,1,.44.64l.07.07c.08,0,.18.23.23,0L75,35.34a3.19,3.19,0,0,0-.37-.64.11.11,0,0,1,0-.09c.14-.08.22-.23.37-.31s-.06-.05,0-.1A.39.39,0,0,1,75,34a.61.61,0,0,0,0-.32.5.5,0,0,1,0-.19.13.13,0,0,1,.07-.06.06.06,0,0,1,.06.06l.06,0a.1.1,0,0,1,.09,0,1.5,1.5,0,0,1,.08.56.53.53,0,0,1-.19.36c-.15.09-.2.21-.08.36s.12.16.18.23.1.28.23.05l0-.09a.15.15,0,0,1,.12-.07c.13.08.09.2.08.32s0,.06,0,.1,0,.2-.12.25a.39.39,0,0,0-.32.17.62.62,0,0,1-.87-.29,1.79,1.79,0,0,0-.43-.56c-.07-.05-.15-.11-.23-.05s0,.13,0,.2c0,.29.26.59,0,.85,0,0,.09.1.14.14.7.57,1.45,1.09,2.11,1.71.2.19.3-.05.46,0s0,.26-.08.37a1.62,1.62,0,0,0-.24.39c-.1.16-.18.33-.27.49s-.08.14-.16.16a2.74,2.74,0,0,1-.91-.29c-1.56-.64-3.12-1.28-4.69-1.9-.43-.21-.88-.34-1.31-.55a3.11,3.11,0,0,1,.34-.93.15.15,0,0,1,0-.09,1.37,1.37,0,0,0,.51-.78.15.15,0,0,1,.12-.09l.52-.5a1.33,1.33,0,0,1,.11.74c0,.21,0,.41.06.62,0,0,0,.1,0,.15s.17.16.3.12a.22.22,0,0,0,.14-.23,1.42,1.42,0,0,0,0-.18c0-.51,0-.59.55-.6a2,2,0,0,0,.61-.08.56.56,0,0,0,.45-.61.48.48,0,0,0-.12-.35l-.07-.07a.61.61,0,0,0-.45-.27c-.11,0-.25,0-.29-.14A.44.44,0,0,1,71.91,33Z"/><path class="cls-3" d="M71,44.88a2.71,2.71,0,0,1,1,.74,1.2,1.2,0,0,0,.28.24L76,48.77a1.24,1.24,0,0,0,.68.33c.43,1.12.87,2.24,1.39,3.33a1,1,0,0,1-1.22-.08c-.57-.48-1.17-.92-1.76-1.38a.57.57,0,0,0-.4-.17c-.32-.18-.41-.54-.63-.79s-.16-.24-.22-.37a5.2,5.2,0,0,0-.62-.88l-.06-.08a1.65,1.65,0,0,0-.3-.56,2.37,2.37,0,0,0-.15-.26l-.32-.47a4.87,4.87,0,0,0-.32-.53c0-.09-.09-.18-.15-.26l-.16-.26c-.07-.13-.16-.25-.24-.38a3.59,3.59,0,0,0-.2-.34,2.62,2.62,0,0,0-.15-.26A2.34,2.34,0,0,1,71,45,.15.15,0,0,1,71,44.88Z"/><path class="cls-3" d="M74.72,50.75c.1,0,.16-.13.31,0,.6.5,1.22,1,1.82,1.46.28.23.55.42.92.25a.91.91,0,0,1,.32,0,39.19,39.19,0,0,1,2.21,4.23,3.26,3.26,0,0,1,.15.53.36.36,0,0,1-.23.46c0,.09-.09,0-.14,0-.22-.21-.48-.37-.69-.59a4.64,4.64,0,0,0-.61-.59.4.4,0,0,1-.12-.12,1.1,1.1,0,0,0-.27-.38c-.1-.13-.19-.26-.3-.37a2.48,2.48,0,0,1-.21-.25c-.1-.11-.17-.23-.27-.34l-.23-.29-.15-.21c-.08-.11-.17-.22-.25-.32s-.21-.34-.38-.45a.34.34,0,0,1-.1-.11.5.5,0,0,0-.23-.34.32.32,0,0,1-.1-.11,1.63,1.63,0,0,0-.5-.72.35.35,0,0,1-.1-.13,14.41,14.41,0,0,0-.77-1.26C74.77,51,74.68,50.88,74.72,50.75Z"/><path class="cls-3" d="M88.26,46.55a4.44,4.44,0,0,1-4.79,1.81,5.94,5.94,0,0,1-4.85-5.69A3.73,3.73,0,0,1,79,41c0-.08.05-.14.15-.1.09.26,0,.48-.07.73a2.78,2.78,0,0,0,0,.95,4,4,0,0,0,.34,1.31,6.49,6.49,0,0,0,4.12,3.54l.36.1.11,0,.31.06a6.41,6.41,0,0,0,1.31.05,6.84,6.84,0,0,0,.82-.19A2.86,2.86,0,0,0,87,47.2a3,3,0,0,0,.83-.53C88,46.58,88.08,46.44,88.26,46.55Z"/><path class="cls-3" d="M78.72,56.33l.11.09c.17.19.37.34.53.54s.56.44.81.69c0,0,0,0,.06,0-.06.36-.34.47-.69.28a2.82,2.82,0,0,1-.67-.64,58.78,58.78,0,0,1-6.44-8.78,39.43,39.43,0,0,1-2.28-4.77s0,0,0,0h0l.11.09.18.3c.12.21.25.4.35.62.09.06.11.17.17.25s.15.22.2.34a1.56,1.56,0,0,1,.17.31l.17.25c.07.15.18.28.25.43s.1.18.16.26a2.7,2.7,0,0,1,.18.31c.12.13.18.3.29.43a5.08,5.08,0,0,0,.33.53,2.81,2.81,0,0,1,.18.32,1.59,1.59,0,0,1,.31.56,0,0,0,0,0,0,0,6,6,0,0,1,.63.92l.24.38c.48.7,1,1.41,1.43,2.12a.46.46,0,0,1,.11.23l.09.1a2.28,2.28,0,0,1,.49.73l.1.1a.51.51,0,0,1,.22.34l.1.1c.15.1.21.28.33.41s.18.22.25.34a1,1,0,0,1,.18.26c.1.08.15.2.24.29a1.59,1.59,0,0,0,.28.32c0,.11.12.18.2.25s.24.24.29.4A.63.63,0,0,1,78.72,56.33Z"/><path class="cls-3" d="M87.92,46.74a2.76,2.76,0,0,1-.85.54.62.62,0,0,1-.5-.17L81,42.71c-.52-.41-1-.84-1.57-1.22a.4.4,0,0,1-.19-.51,1.24,1.24,0,0,0,0-.61l.09-.11a1.74,1.74,0,0,1,.76.25.44.44,0,0,0,.21.14.37.37,0,0,1,.22.18A7.67,7.67,0,0,0,81.75,42c1.56,1.22,3.1,2.46,4.66,3.68A8.11,8.11,0,0,0,87.92,46.74Z"/><path class="cls-3" d="M68.81,36.49a3.21,3.21,0,0,1,1.33.5,5.21,5.21,0,0,1,1.4,1c.7.62,1.47,1.14,2.17,1.77a.51.51,0,0,0,.38.1,1,1,0,0,1,.67.14c.15.11.28,0,.41,0a.21.21,0,0,1,.21,0c.07.07,0,.14,0,.19s-.09.25-.16.36-.06.2-.1.3a.73.73,0,0,1-.34.11.29.29,0,0,1-.15,0c-.18-.09-.2-.26-.23-.42s.06-.2-.08-.24h-.13c-.09,0-.1.11-.17.14a1.33,1.33,0,0,1-.39,0c-.1,0-.16-.17-.29-.07a.83.83,0,0,0-.11.14c-.06.09-.09.23-.22.21s-.08-.16-.11-.25-.12-.11-.2-.14l-.22-.06a3.63,3.63,0,0,0-.8-.09.84.84,0,0,1-.56-.25c-.66-.52-1.33-1-2-1.58a2.09,2.09,0,0,0-.5-.31A3.77,3.77,0,0,1,68.81,36.49Z"/><path class="cls-3" d="M75.68,45.8c-.2,0-.42,0-.48-.34s-.21-.3-.36-.41l-3.77-3-.24-.17c-.14-.09-.39-.07-.29-.36a.44.44,0,0,1,.55-.28c.16,0,.31.11.45,0a.72.72,0,0,1,.7-.25,2.47,2.47,0,0,0,1.13-.16.14.14,0,0,1,.09.07.22.22,0,0,1,0,.22c-.12.12-.29.11-.44.17s-.26,0-.29.09.13.2.22.27c.57.46,1.13,1,1.74,1.36a2,2,0,0,1,.66.94Z"/><path class="cls-3" d="M42.33,30.56l.26,0c.34.13.7.16,1,.27h0c.29.1.59.14.87.23h0c.42.12.84.24,1.26.35h0l.55.16h0c.13,0,.25.1.39.12h0c.27,0,.51.23.8.18l.05,0a.34.34,0,0,1,.12.31c0,.08,0,.17,0,.25a.3.3,0,0,1-.07.2c-.27.09-.49-.09-.74-.14s-.33-.34-.56-.42a1.2,1.2,0,0,0-.49-.13,2,2,0,0,0-.9.11.13.13,0,0,1-.14,0c-1.21-.33-2.44-.57-3.66-.83-.6-.15-1.19-.3-1.79-.43-.19,0-.27-.11-.26-.31s0-.58,0-.87c0-.1,0-.14.11-.08l.08.1c.22.24.53.24.8.37s.39.1.58.16h0c.44.07.87.18,1.3.29h0C42.1,30.42,42.21,30.52,42.33,30.56Z"/><path class="cls-3" d="M87.92,46.74a1.09,1.09,0,0,1-.76-.32q-2.9-2.31-5.81-4.6c-.34-.27-.56-.65-.87-.94,0,0,0-.06,0-.1a.17.17,0,0,1,.14,0,1.89,1.89,0,0,1,.34.13l.2.08a5.6,5.6,0,0,1,1,.47l5.28,4.17a7.41,7.41,0,0,1,.86.81c0,.07,0,.11-.05.15S88,46.68,87.92,46.74Z"/><path class="cls-3" d="M79.32,40.38c.26.2.15.43.07.64s-.08.31.15.39a1.06,1.06,0,0,1,.27.19l6.43,5.09a2.74,2.74,0,0,0,.84.59,1.63,1.63,0,0,1-.62.24,2,2,0,0,1-.82-.41l-5.94-4.71a2.19,2.19,0,0,1-.68-.78,2.39,2.39,0,0,1,.13-.71.53.53,0,0,1,0-.18c0-.08,0-.19.08-.25Z"/><path class="cls-3" d="M58,22a.18.18,0,0,1-.11.24c-.46.16-.55.61-.78.95-.35.51-.66,1-1,1.57-.21,0-.32-.13-.45-.25s-.43-.45-.65-.67-.22-.2-.21-.37A22.55,22.55,0,0,0,56.45,21Z"/><path class="cls-3" d="M56.45,21a.17.17,0,0,1,0,.26,4.81,4.81,0,0,0-.41.63,9.1,9.1,0,0,0-.67,1,1,1,0,0,1-.53.56c-.15,0-.24-.07-.33-.16-.22-.31-.56-.52-.72-.89a.57.57,0,0,1,.15-.63c.38-.41.5-1,.89-1.39.11-.12.06-.24-.06-.35s-.22-.17-.23-.32Z"/><path class="cls-3" d="M49,16.25a.79.79,0,0,0,0-.1c-.06-.21-.21-.45,0-.6a.63.63,0,0,1,.75.1c.48.41.94.84,1.41,1.26l.49.45c.4.38.41.38.05.83a2.31,2.31,0,0,1-.71.69c-.21,0-.29-.15-.4-.27a12.12,12.12,0,0,1-.89-1.13,3.21,3.21,0,0,0-.45-.59.2.2,0,0,1-.09-.17C49.19,16.55,49,16.43,49,16.25Z"/><path class="cls-3" d="M50.92,18.88c.23-.26.48-.49.71-.75s.36-.48,0-.76l2.07,1.72a2.38,2.38,0,0,1-.66,1.21,1.94,1.94,0,0,0-.5.64.29.29,0,0,1-.22-.1c-.44-.51-.84-1-1.25-1.57C51,19.15,50.89,19,50.92,18.88Z"/><path class="cls-3" d="M52.56,20.91c-.13-.32.08-.41.31-.56a2.24,2.24,0,0,0,.65-.93,2.37,2.37,0,0,1,.21-.33l.82.63c.58.49.55.47.13,1.09a10.38,10.38,0,0,1-.81,1.25c-.1.11,0,.23,0,.35a.2.2,0,0,1-.2-.06,15,15,0,0,1-1-1.2A.28.28,0,0,1,52.56,20.91Z"/><path class="cls-3" d="M75.33,44a.2.2,0,0,1-.2-.19c0-.32-.23-.43-.43-.58l-2-1.57c-.12-.09-.26-.18-.19-.35s.21,0,.31,0a4.23,4.23,0,0,0,.57-.16.47.47,0,0,1,.6-.13,1.06,1.06,0,0,0,.92-.06.23.23,0,0,1,.15,0,.38.38,0,0,1,.23.11.3.3,0,0,1,0,.15,7.41,7.41,0,0,1-.12,1A9.82,9.82,0,0,0,75.33,44Z"/><path class="cls-3" d="M68.62,37.92c.15-.13.26,0,.38.07l2.3,1.85a.51.51,0,0,0,.45.14,1.72,1.72,0,0,1,.81.11.17.17,0,0,1,0,.15.34.34,0,0,1-.29.08c-.08,0-.14-.12-.23,0s.09.42-.06.6-.15.14-.25.09-.05-.15,0-.22.08-.26-.08-.35a.2.2,0,0,0-.24,0c-.13.11-.09.23,0,.36s.14.16,0,.22-.21,0-.29-.08a.49.49,0,0,1-.13-.38.47.47,0,0,0-.12-.38c0,.05.06.08.08.14s0,.12,0,.17a.1.1,0,0,1-.16,0c-.1-.17-.31-.2-.43-.35,0-.29,0-.28-.17-.22s-.46.14-.47.45c0,.1-.15.22-.22.2s-.25-.06-.29-.19S69,40,68.82,40A6.23,6.23,0,0,1,68.62,37.92Z"/><path class="cls-3" d="M88.31,46.4c-.31,0-.44-.34-.66-.51-1.42-1.11-2.8-2.27-4.25-3.34-.46-.34-.89-.72-1.33-1.09.09-.12.2,0,.3,0,.66.29,1.32.61,2,.91a.35.35,0,0,1,.24.26c.13.39.5.56.78.79.85.7,1.73,1.36,2.57,2.06.21.18.49.29.62.56Z"/><path class="cls-3" d="M64.44,31.27a7.14,7.14,0,0,1-1.88-.77.59.59,0,0,1,.47-.58,3.61,3.61,0,0,1,.46.15c.37.21.82.23,1.17.48A.58.58,0,0,1,64.44,31.27Z"/><path class="cls-3" d="M54.77,24.52A11.56,11.56,0,0,1,53.46,23a.63.63,0,0,1,.3-.56c.28.17.44.46.67.68s.51.53.75.8a.51.51,0,0,1,0,.35C55.16,24.56,55,24.64,54.77,24.52Z"/><path class="cls-3" d="M52,21.33c-.52-.65-1-1.31-1.48-2,.15-.07.09-.44.41-.27.46.55.89,1.13,1.35,1.68.06.12.23.17.24.33S52.29,21.39,52,21.33Z"/><path class="cls-3" d="M64.44,31.27l.24-.67c.37-.13.7.11,1.05.13a1.39,1.39,0,0,0,.43,0l.1,0c.12.05.27,0,.35.16s-.23.33-.32.51A4,4,0,0,1,64.44,31.27Z"/><path class="cls-3" d="M61.19,29.7a11,11,0,0,1-1.6-1c.09-.22.08-.53.45-.53.5.34,1,.69,1.52,1a.42.42,0,0,1,.14.09C61.51,29.38,61.48,29.68,61.19,29.7Z"/><path class="cls-3" d="M52,21.33a.73.73,0,0,0,.48-.24.19.19,0,0,1,.19.1c.3.41.67.77,1,1.15,0,0,.05.08,0,.13.1.28-.24.35-.26.56A16.49,16.49,0,0,1,52,21.33Z"/><path class="cls-3" d="M50.9,19.05c-.17,0-.09.33-.33.28a14.34,14.34,0,0,1-1.36-2.06,1.92,1.92,0,0,1-.26-.87c.2,0,.22.17.26.31l.08.14c.21.16.28.41.45.59.33.46.69.9,1.05,1.34C50.83,18.86,51,18.91,50.9,19.05Z"/><path class="cls-3" d="M79.91,39.47a2.87,2.87,0,0,1,.62-.52.37.37,0,0,1,.48.18,1.89,1.89,0,0,0,.91.61.18.18,0,0,1,.07.08A.2.2,0,0,1,82,40a.17.17,0,0,1-.14.05,1,1,0,0,0-.74,0,.76.76,0,0,0-.86,0,.48.48,0,0,0-.57-.15C79.66,39.73,79.84,39.63,79.91,39.47Z"/><path class="cls-3" d="M61.19,29.7c.2-.1.21-.42.51-.4A2.81,2.81,0,0,1,63,30c-.22.12-.29.36-.43.54A8.14,8.14,0,0,1,61.19,29.7Z"/><path class="cls-3" d="M54.77,24.52c.44.08.28-.31.39-.49.19.05.27.24.43.33.26.26.51.52.78.77a.6.6,0,0,1-.58.4A7.67,7.67,0,0,1,54.77,24.52Z"/><path class="cls-3" d="M66.29,31.44a.8.8,0,0,1,.32-.52c.16-.16.39-.09.58-.15h.1a1.36,1.36,0,0,1,.64,0h0c.1,0,.19-.16.32,0a1.07,1.07,0,0,0,0,.42A6.26,6.26,0,0,1,66.29,31.44Z"/><path class="cls-3" d="M59.92,28.16a1.6,1.6,0,0,1-.33.54l-.75-.57c-.5-.31-.5-.5,0-.79a1,1,0,0,1,.7.4,1.85,1.85,0,0,0,.22.23C59.81,28,59.91,28.05,59.92,28.16Z"/><path class="cls-3" d="M58,27.54,56.6,26.33a.72.72,0,0,1,.6-.41,1.2,1.2,0,0,1,.2.14c.37.41.88.67,1.24,1.08-.14.13-.24,0-.35-.07a1.74,1.74,0,0,0-.28-.17.24.24,0,0,0-.29.11c-.07.11.06.14.11.19S58.09,27.36,58,27.54Z"/><path class="cls-3" d="M58,27.54c0-.14-.17-.17-.24-.27s-.36-.1-.15-.34.29-.32.53-.1.29.23.44.35a.2.2,0,0,1,.22.19c-.35.43-.35.43,0,.76A3.55,3.55,0,0,1,58,27.54Z"/><path class="cls-3" d="M57.1,25.92c-.17.13-.29.33-.51.4-.24-.3-.61-.47-.8-.8.23,0,.29-.36.56-.31A1.39,1.39,0,0,1,57.1,25.92Z"/><path class="cls-3" d="M70.38,34l.38-.27c.13.16.06.38.2.53a.19.19,0,0,1,0,.26.51.51,0,0,0-.07.3c0,.19.07.4-.06.58a.21.21,0,0,1-.24-.06,1.45,1.45,0,0,1-.13-.81A2.93,2.93,0,0,0,70.38,34Z"/><path class="cls-3" d="M70.88,34.34a.78.78,0,0,1-.12-.57.76.76,0,0,1,.43-.29,1.31,1.31,0,0,1,.9,0c.23.2.32.42.13.69-.1,0-.15,0-.2-.1a.75.75,0,0,0-.89-.24c-.21.11-.06.34-.17.48A.11.11,0,0,1,70.88,34.34Z"/><path class="cls-3" d="M79.65,39.93c.32-.26.42-.24.56.15l0,0c0,.17.08.34-.06.48l-.78-.34Z"/><path class="cls-3" d="M76,39.6l0,.1a1,1,0,0,0-.2.49.21.21,0,0,1-.05.15.67.67,0,0,1-.4.15,1.2,1.2,0,0,1,.21-.93A.37.37,0,0,1,76,39.6Z"/><path class="cls-3" d="M72,33.51l-.85,0a1.08,1.08,0,0,1,.44-.3c.29.1.66,0,.83.39-.19.16-.26-.08-.4-.12h0A.07.07,0,0,0,72,33.51Z"/><path class="cls-3" d="M70.38,34a1.18,1.18,0,0,1,.13.74,4.14,4.14,0,0,0,.09.54.15.15,0,0,1-.14.17,6.52,6.52,0,0,1-.12-1.39Z"/><path class="cls-3" d="M75.52,41.06l0,.05c-.19.32-.13.72-.33,1a3.24,3.24,0,0,1,.06-1.06A.19.19,0,0,1,75.52,41.06Z"/><path class="cls-3" d="M75.63,40.68l0,0,0,.06-.12.27a.28.28,0,0,1-.22,0l0-.11a.2.2,0,0,1,0-.19l.07-.07A.39.39,0,0,1,75.63,40.68Z"/><path class="cls-3" d="M49.2,16.71c-.08-.1-.13-.24-.26-.31s-.1-.15,0-.15S49.28,16.5,49.2,16.71Z"/><path class="cls-3" d="M76.48,48.4h-.29c.08-.13.16-.12.26-.06A.08.08,0,0,1,76.48,48.4Z"/><path class="cls-3" d="M79,40.81s.07-.13.17-.08l-.06.18L79,41Z"/><path class="cls-3" d="M70.19,43.68l0,0a.4.4,0,0,1-.1-.28C70.13,43.5,70.21,43.56,70.19,43.68Z"/><path class="cls-3" d="M45.6,38.5a5.19,5.19,0,0,1,2.86-1.45,5.58,5.58,0,0,1,4.22,1.08.82.82,0,0,0,.35.28,3.35,3.35,0,0,1,.73.76,5,5,0,0,1-1.19.67c-2.22,1.16-4.44,2.31-6.67,3.46a3.48,3.48,0,0,1-1.12.5c-.29-.13-.25-.42-.33-.66a3.4,3.4,0,0,1-.14-1.08,6.18,6.18,0,0,1,.19-1.53c.05-.18.13-.34.19-.51l-.1-.07s0-.08,0-.1l.21-.29a.39.39,0,0,1,.09-.19.2.2,0,0,1,.28,0c-.11-.05-.11-.16,0-.28Z"/><path class="cls-3" d="M44.11,43a5.63,5.63,0,0,1,.1-1.83c0-.07.06-.07.12-.05.13.31,0,.61,0,.91a4.68,4.68,0,0,0,.14,1,2.6,2.6,0,0,0,.24.71c.2.37.35.75.58,1.1a1.64,1.64,0,0,0,.28.36.42.42,0,0,1,.15.15,2.3,2.3,0,0,0,.56.61l.56.45a1.11,1.11,0,0,0,.28.18c.14.06.25.18.41.19l.09,0a.7.7,0,0,0,.42.2.77.77,0,0,1,.28.11,1.71,1.71,0,0,0,.38.14,5.43,5.43,0,0,0,1.35.17,8,8,0,0,0,1-.1,4.48,4.48,0,0,0,1.37-.53,3.22,3.22,0,0,0,.55-.35A5.28,5.28,0,0,0,54.42,45c.07,0,.13-.11.23,0a4.69,4.69,0,0,1-3.55,3l-.53.11a6.12,6.12,0,0,1-3.33-.65,8.33,8.33,0,0,1-1.34-.93s0,0,0,0a6.36,6.36,0,0,1-1.54-2.59C44.22,43.58,44.17,43.31,44.11,43Z"/><path class="cls-3" d="M45,39.4l0-.16.14-.16a.41.41,0,0,0,.14.33C45.18,39.4,45.08,39.33,45,39.4Z"/><path class="cls-3" d="M48.31,47.28,48,47.16c-.13-.09-.3-.1-.41-.24h0v0c-.23,0-.35-.18-.54-.25a1.25,1.25,0,0,0-.26-.16c-.18-.14-.36-.28-.53-.43s-.45-.38-.56-.67a.14.14,0,0,1-.15,0c0-.18-.19-.27-.25-.43a5.88,5.88,0,0,1-.54-1.08.07.07,0,0,1,.06-.07l4.73-2.45,4-2.06a1.79,1.79,0,0,1,.28-.09A5.31,5.31,0,0,1,55,43.47a5.25,5.25,0,0,1-.31,1.19c0,.14-.17.21-.2.35a4.76,4.76,0,0,1-1.33,1.56.59.59,0,0,1-.13.06c-.19,0-.31.18-.47.26a5.82,5.82,0,0,1-1.44.54,4.23,4.23,0,0,1-1.07.11,5.34,5.34,0,0,1-1.32-.15A1.33,1.33,0,0,0,48.31,47.28Z"/><path class="cls-3" d="M51.16,33.3l.38.12c.26.25.64.3.91.53l.06,0a2.84,2.84,0,0,1,.79.44l.22.08c.09.14.26.15.37.25a7.57,7.57,0,0,1,.72.48l.41.33.85.67.52.41c.21.17.34.42.59.56.09.2.28.32.4.5a1.11,1.11,0,0,1,.24.32l.06,0A7.72,7.72,0,0,1,59.14,41a7,7,0,0,1,.31,1.51c0,.11.07.22,0,.32s-.15-.09-.17-.19c-.14-.5-.25-1-.44-1.49-.06-.12-.07-.26-.19-.35l-.4-.85c0-.2-.18-.31-.24-.48A8.27,8.27,0,0,0,56.91,38a2.46,2.46,0,0,0-.7-.69.49.49,0,0,1-.23-.24,2.44,2.44,0,0,0-.72-.61l-.06-.05a2.55,2.55,0,0,0-.76-.57.45.45,0,0,1-.28-.16c-.08-.1-.16-.21-.3-.21-1-.49-2-1-3-1.44l-.45-.16a.18.18,0,0,1-.15-.05l-.18-.12c-.25-.2-.18-.46-.12-.7s.24-.07.37-.07A5.19,5.19,0,0,1,51.16,33.3Z"/><path class="cls-3" d="M58.86,41.07c.25.56.28,1.17.54,1.72a1.59,1.59,0,0,1,.16.89l0,.18a.12.12,0,0,1-.11.14c-.2-.95-.45-1.89-.72-2.82C58.78,41.12,58.8,41.08,58.86,41.07Z"/><path class="cls-3" d="M49.56,33.5l-.18-.11a.35.35,0,0,1,0-.31c.15-.21.22-.55.62-.34h0a4.54,4.54,0,0,1,0,.89Z"/><path class="cls-3" d="M47.91,32.94a.29.29,0,0,0-.22-.08.17.17,0,0,1-.16,0l-.66-.25s0,0,0,0h0c.24,0,.46.22.71.09a.13.13,0,0,0,.17-.11.17.17,0,0,1,.11-.14.51.51,0,0,1,.32.29c0,.12.15.24,0,.37Z"/><path class="cls-3" d="M56.93,38A4.72,4.72,0,0,1,58,39.48s0,0,0,.05h0A17.05,17.05,0,0,0,56.89,38s0,0,0,0Z"/><path class="cls-3" d="M49.95,33.62c0-.29-.11-.6,0-.89l.38.14s0,0,0,0h0c-.19,0-.32,0-.29.26a1.68,1.68,0,0,0,.08.5Z"/><path class="cls-3" d="M56.93,38l0,0-.67-.72C56.57,37.4,56.73,37.7,56.93,38Z"/><path class="cls-3" d="M55.27,36.45a2.89,2.89,0,0,1,.88.69L56,37.06Z"/><path class="cls-3" d="M46.89,32.51l0,.06-.11,0-.06-.06c-.09-.11-.26-.14-.33-.28a.28.28,0,0,1-.05-.21C46.61,32.07,46.72,32.33,46.89,32.51Z"/><path class="cls-3" d="M54.44,35.82a1.33,1.33,0,0,1,.76.57Z"/><path class="cls-3" d="M58,39.53l0-.05c.11.13.29.24.2.45Z"/><path class="cls-3" d="M58.86,41.07l-.09.11-.15-.41C58.82,40.78,58.78,41,58.86,41.07Z"/><path class="cls-3" d="M59.5,44l.11-.14c0,.12.17.28-.08.33A.22.22,0,0,1,59.5,44Z"/><path class="cls-3" d="M53,38.41a.38.38,0,0,1-.35-.28Z"/><path class="cls-3" d="M54.5,45c0-.16.11-.24.2-.35,0,.11,0,.18-.06.28Z"/><path class="cls-3" d="M53.86,35.45c.17,0,.25.06.3.21Z"/><path class="cls-3" d="M66.22,30.83l-.07,0a1.57,1.57,0,0,1-.47,0,.2.2,0,0,1-.11-.12.5.5,0,0,1,.29-.55,1.22,1.22,0,0,0,.46-.79,2.58,2.58,0,0,1,.59-1c.06.15.08.33.22.45l.67,1.91c-.13.2-.41.06-.55.22h0C66.92,30.83,66.57,30.85,66.22,30.83Z"/><path class="cls-3" d="M73.3,27.3l0,0a2.65,2.65,0,0,1,.59-.65Z"/><path class="cls-3" d="M86,33.13l0,.05-.31,0c.12-.08-.24-.21,0-.25S86,32.86,86,33.13Z"/><path class="cls-3" d="M65.24,21.19h.59a.19.19,0,0,1,.07.16,1.41,1.41,0,0,1-.58,0C65.3,21.28,65.23,21.26,65.24,21.19Z"/><path class="cls-3" d="M81.27,38.51l.6-.26a5.27,5.27,0,0,1,1.24-.13,5.44,5.44,0,0,0,1.65,1.44c0,.11-.23,0-.23.14a.18.18,0,0,1-.19.13c-.25,0-.41.05-.41.36,0,.15-.16.15-.27,0s-.07-.22-.22-.22a2.22,2.22,0,0,0-.43,0c-.18,0-.25,0-.23-.22s.25-.06.37-.05A5.75,5.75,0,0,1,81.27,38.51Z"/><path class="cls-3" d="M80.31,35.34l-1.21.72h-.18c-.12,0-.19.24-.33.07a.39.39,0,0,1,0-.4,1.1,1.1,0,0,1,.3-.29,3.51,3.51,0,0,1,.42-.28l.19-.06h.09c.15.08.16-.09.24-.13l.15-.14a1.08,1.08,0,0,1,.74-.37l.16-.06c.2.14.16.34.18.53A1.34,1.34,0,0,1,80.31,35.34Z"/><path class="cls-3" d="M84.79,33c.1,0,.12.07.07.14a.53.53,0,0,0-.09.33.08.08,0,0,1,0,.09A12.45,12.45,0,0,1,83,34c-.23-.14-.36-.29-.12-.52A7.94,7.94,0,0,1,84.47,33C84.58,33,84.7,33.08,84.79,33Z"/><path class="cls-3" d="M82.9,33.52A.35.35,0,0,0,83,34c0,.15-.18.16-.29.21a.44.44,0,0,1-.14,0l-.22.09a.25.25,0,0,1-.12.12l-.16.08-.17.08c-.12,0-.23.15-.37,0a3.27,3.27,0,0,1,0-.55A7,7,0,0,1,82.9,33.52Z"/><path class="cls-3" d="M78.31,33.3c.08-.05-.26-.26.08-.21.1.15.26.07.39.12l.05,0c.28.41.5.87.78,1.28,0,.07.1.18,0,.26s-.12-.12-.22-.08h0l0,0c-.07-.09-.12-.19-.19-.28l0-.08a.91.91,0,0,0-.26-.34c-.1,0,0-.25-.2-.13a.29.29,0,0,1-.22.09A.51.51,0,0,1,78.31,33.3Z"/><path class="cls-3" d="M79.61,34.8a5.89,5.89,0,0,0-.6-1.12,1.15,1.15,0,0,1-.19-.43c.07-.08.14-.05.16,0,.07.34.35.56.47.88,0,.09.09.22.22.22s.12-.13.16-.21l.49-1c.16.16,0,.28-.06.38A4.91,4.91,0,0,1,79.61,34.8Z"/><path class="cls-3" d="M81.6,34.05a.5.5,0,0,1,0,.57.48.48,0,0,1-.54.29c-.15-.14-.07-.34-.16-.5l.09-.11c.05-.1.15-.09.24-.1Z"/><path class="cls-3" d="M80.72,34.47l-.74.37a7.32,7.32,0,0,1,.33-.79c.11,0,.15-.2.3-.15s.07.18.08.28A.21.21,0,0,0,80.72,34.47Z"/><path class="cls-3" d="M81.21,34.21l-.24.1c-.14-.36,0-.73-.09-1.1a0,0,0,0,1,0-.05c.26.08.16.3.17.46S81.06,34,81.21,34.21Z"/><path class="cls-3" d="M80.92,33.16l0,.05a.29.29,0,0,1-.45-.12C80.61,33.1,80.78,32.89,80.92,33.16Z"/><path class="cls-3" d="M80.68,34.17l-.08-.26c-.13-.16,0-.31,0-.47.15,0,.21.06.19.18A1.62,1.62,0,0,1,80.68,34.17Z"/><path class="cls-3" d="M80.59,33.45c.07.16,0,.31,0,.47l-.29.13Z"/><path class="cls-3" d="M82,33c-.13.22-.25.25-.44.06A.61.61,0,0,1,82,33Z"/><path class="cls-3" d="M79.33,34.67l.06,0,.34.27c0,.14-.08.15-.18.14h0C79.37,35,79.23,34.9,79.33,34.67Z"/><path class="cls-3" d="M82.72,33.19c-.05,0-.1-.09,0-.15s.13,0,.21,0,.07.08,0,.14A.12.12,0,0,1,82.72,33.19Z"/><path class="cls-3" d="M84.79,33c-.06.24-.1.25-.32,0a.21.21,0,0,1,.24-.06Z"/><path class="cls-3" d="M79.55,35.13l.18-.14h.1c0,.12,0,.26-.12.31S79.61,35.19,79.55,35.13Z"/><path class="cls-3" d="M76.47,37.82c-.2.33-.34.28-.64,0-.73-.66-1.53-1.24-2.34-1.88.34,0,.39-.17.29-.43a4,4,0,0,1-.09-.43c0-.11-.07-.23.06-.28a.32.32,0,0,1,.37.07,2.63,2.63,0,0,1,.46.64.5.5,0,0,0,.75.22.39.39,0,0,1,.41,0,.47.47,0,0,0,.36,0,7.1,7.1,0,0,1,1.46-.11c.4,0,.43-.05.27-.42,0-.05,0-.1,0-.14l.27.19c.05-.12,0-.25.14-.33.15.1.06.27.11.4l0,.09c0,.14.34.18.18.41-.28.41-.74.64-1.06,1-.23.17-.36.44-.58.62S76.69,37.78,76.47,37.82Z"/><path class="cls-3" d="M75.16,34.5a1.26,1.26,0,0,0,.21-.39,1.21,1.21,0,0,0-.07-.52l-.06,0a1,1,0,0,0,.11-.22c0-.26.17-.21.33-.08a3.8,3.8,0,0,1,0,1.37,1.61,1.61,0,0,0-.1.52c-.07.23-.18.24-.31,0s-.19-.11-.19-.24S74.92,34.61,75.16,34.5Z"/><path class="cls-3" d="M76.17,33.35c-.09-.16-.33.1-.38-.18.6-.14,1.25.05,1.87-.15,0,.16.13.32,0,.49-.24-.14-.5-.05-.75-.07S76.4,33.54,76.17,33.35Z"/><path class="cls-3" d="M76.32,34.13c.29,0,.6.08.9-.08-.07.13.19.3-.07.37a3.51,3.51,0,0,1-.67.06c-.12,0-.24,0-.33.09a.5.5,0,0,1-.27.14c-.2-.18-.13-.38-.07-.57.13,0,.08-.27.28-.23S76.18,34.11,76.32,34.13Z"/><path class="cls-3" d="M76.32,34.13c-.19.08-.26,0-.24-.18a.65.65,0,0,1-.09-.28.58.58,0,0,1,0-.24l.15-.07c.4,0,.8,0,1.2,0,.14,0,.24,0,.29.16l-1,0C76.21,33.56,76.13,33.7,76.32,34.13Z"/><path class="cls-3" d="M77.86,35.07v.1c0,.14.15.35-.12.43a2.72,2.72,0,0,0-.91-.05c-.14,0-.29,0-.42-.08a.25.25,0,0,1-.06-.2,3.32,3.32,0,0,1,.9,0A1.26,1.26,0,0,0,77.86,35.07Z"/><path class="cls-3" d="M76.11,34.51c0-.07,0-.16.13-.13.3.07.6-.09.9,0,0,.07.07.18-.08.18h-.22c-.51,0-.54,0-.53.62-.15.14-.18,0-.21-.1A.73.73,0,0,1,76.11,34.51Z"/><path class="cls-3" d="M78.32,35.34c-.08-.13,0-.27-.05-.41a15.33,15.33,0,0,1-.11-1.59c0-.11.09-.07.16,0a2,2,0,0,0,.08.62,5.38,5.38,0,0,1,.09,1.29A.18.18,0,0,1,78.32,35.34Z"/><path class="cls-3" d="M75.84,34.12a.9.9,0,0,0,0,.58.94.94,0,0,1,0,.61c0,.06-.09.11-.17,0l0-.31c-.19-.12,0-.28-.05-.41.08-.45-.06-.91,0-1.36l.12.09a2,2,0,0,1,.08.64A.21.21,0,0,1,75.84,34.12Z"/><path class="cls-3" d="M75.89,35.26a1.25,1.25,0,0,1,0-.57.47.47,0,0,1,.24-.18c0,.19,0,.38.05.57s0,.18.15.14l.06,0a.15.15,0,0,1,.07.16c0,.05-.08.05-.14,0S76,35.42,75.89,35.26Z"/><path class="cls-3" d="M73.62,33.19l0-.05c0-.13.08-.15.19-.12a2.19,2.19,0,0,1,1.08.21c.11,0,.27.06.19.24l0,.05a1.71,1.71,0,0,0-1.29-.24C73.73,33.27,73.66,33.26,73.62,33.19Z"/><path class="cls-3" d="M73.86,33l-.19.12-.06,0c0-.16-.08-.24-.18-.34s-.1-.16,0-.22.13,0,.16.09S74,32.73,73.86,33Z"/><path class="cls-3" d="M75.83,34a1.44,1.44,0,0,1,0-.68c.07,0,.13.12.22.08l0,.21C75.91,33.73,76,34,75.83,34Z"/><path class="cls-3" d="M78.78,33.21c-.18.14-.31.11-.39-.12h.32C78.81,33.08,78.83,33.13,78.78,33.21Z"/><path class="cls-3" d="M75.13,33.46c0-.13-.12-.17-.19-.24.18,0,.32.06.25.29Z"/><path class="cls-3" d="M88,40.62c-.07-.11-.32-.07-.24-.3C87.84,40.42,88,40.46,88,40.62Z"/><path class="cls-3" d="M65.31,24.49h.38c-.08.25.09.46.16.68.13.42.28.83.42,1.24-.34.76-.9,1.37-1.3,2.08s-.76,1.07-1,1.67c-.2.12-.33-.1-.51-.12A5.15,5.15,0,0,1,62,29.35c.13-.18.33-.32.3-.59,0-.06.06-.13.12-.18a8.92,8.92,0,0,0,1.1-1.36c.39-.48.54-1.11,1-1.54.07-.06.06-.14,0-.23s0-.18.12-.22A1.14,1.14,0,0,0,65.31,24.49Z"/><path class="cls-3" d="M63.87,30.17c-.06-.2.06-.33.17-.46.48-.54.73-1.22,1.16-1.79a6.08,6.08,0,0,0,.93-1.48s.09,0,.14,0a13.4,13.4,0,0,1,.66,1.82c-.23.5-.5,1-.68,1.52a.62.62,0,0,1-.48.48c-.08,0-.11.26-.16.4a2.68,2.68,0,0,1-1.35-.3c-.09-.12-.07-.27-.15-.4,0,.1,0,.22-.07.3S63.89,30.26,63.87,30.17Z"/><path class="cls-3" d="M61.51,29.06l.08.15a12.84,12.84,0,0,1-1.67-1L59.76,28l0,0a5.85,5.85,0,0,1,.88.58Z"/><path class="cls-3" d="M83.45,40c.26-.16.16.1.21.18s0,.11.12.11.1,0,.08-.09c-.13-.43.13-.44.44-.42a.78.78,0,0,0,.21,0c.22.09.44-.12.7,0-.14.08-.31.15-.15.36.06-.21.21-.24.39-.2s.2.06.11.19-.07.09-.07.15.08.12.09.19-.06-.11-.07-.17.22-.08.2-.24l0-.06a.1.1,0,0,1,.12.09h0l.1.19c.18.35.41.36.77,0,.09-.09,0-.22.06-.32s.08-.09.15-.07l0,.31h0c0,.09.11.19,0,.26,0,.35-.33.26-.51.26-.46,0-.92,0-1.37,0-.09,0-.18,0-.22-.09s-.21-.33-.37-.15a.36.36,0,0,0,0,.55l.2.16,3.57,2.83a2.1,2.1,0,0,1,.44.44c-.6-.23-1.15-.54-1.73-.81a1,1,0,0,0-.17,0c-.42-.28-.91-.43-1.35-.67l-.28-.17c-.37-.2-.77-.33-1-.74,0,0,0,0,0,0-.64,0-.4-.81-.9-.93,0,0-.11-.12-.07-.15C83.55,40.7,83.24,40.27,83.45,40Z"/><path class="cls-3" d="M87,40.46l0-.26a.25.25,0,0,1,.1.28C87.08,40.52,87,40.48,87,40.46Z"/><path class="cls-3" d="M65.24,21.19l.08.14a6.18,6.18,0,0,1-3-.92,5.13,5.13,0,0,1-2-1.94c.28-.06.24.25.4.33a10.06,10.06,0,0,0,1.06,1A7,7,0,0,0,65.24,21.19Z"/><path class="cls-3" d="M60.73,18.81c-.18-.06-.18-.33-.4-.33a3.22,3.22,0,0,1-.51-1.66c.07,0,.14,0,.14.06A4.47,4.47,0,0,0,60.73,18.81Z"/><path class="cls-3" d="M61,23.49l.88.33a.34.34,0,0,1,0,.46c-.27.3-.34.75-.73,1a.27.27,0,0,0-.12.17c-.14.72-.71,1.17-1.06,1.77a2.89,2.89,0,0,0-.4.63,2.25,2.25,0,0,1-.82-.65,15.5,15.5,0,0,0,1.68-2.3A2,2,0,0,0,61,23.49Z"/><path class="cls-3" d="M58.8,27.16l.82.65.16.16,0,0a9.28,9.28,0,0,0-.94-.63l-.22-.19A15.66,15.66,0,0,0,57.3,26c.21-.05.28.12.4.23l.35.27Z"/><path class="cls-3" d="M62.25,23.91s.09.09.08.15a.06.06,0,0,1-.05,0c-.09,0-.08-.11,0-.18Z"/><path class="cls-3" d="M57.69,26.28c-.14-.06-.22-.23-.4-.23l-.19-.13c-.17-.32-.51-.46-.75-.71l-.81-.82c.08-.1.12,0,.16,0l.41.32a7.07,7.07,0,0,0,1.09,1C57.35,26,57.59,26.06,57.69,26.28Z"/><path class="cls-3" d="M86.75,40.27c0,.35-.28.34-.52.31s-.36-.28-.35-.54c0,0,.08,0,.1,0C86.4,39.68,86.61,39.74,86.75,40.27Z"/><path class="cls-3" d="M85.88,40l-.12-.09c-.09-.2-.09-.2.29-.19C86,39.86,85.87,39.91,85.88,40Z"/><path class="cls-3" d="M87,39.88l-.15.07-.22-.18C86.71,39.84,86.91,39.6,87,39.88Z"/><path class="cls-3" d="M85.42,40.14l.15-.07a.15.15,0,0,0,.15-.07c0,.16-.09.17-.18.23A.11.11,0,0,1,85.42,40.14Z"/><path class="cls-3" d="M83.45,40c.1.15,0,.31,0,.46s-.2.24.1.26c.13,0,0,.15,0,.23s-.2,0-.28.11l.43.34c.1.08.2.14.14.3s0,.23.07.29.17-.12.29-.23c.09.63.6.81,1,1.1-.23,0-.38-.21-.61-.2a22.36,22.36,0,0,0-2.52-1.16l-1-.48c0-.26.24-.24.41-.24s.51,0,.77,0c-.39,0-.44-.14-.32-.65.16-.35.48-.27.78-.25.08.12.16.13.3.07A1,1,0,0,1,83.45,40Z"/><path class="cls-3" d="M59.57,43.69l-.16-.89a8.79,8.79,0,0,0-1.65-4.54,1.3,1.3,0,0,1-.08-.16c.16,0,.19.11.24.19a9.92,9.92,0,0,1,1.71,5.27S59.59,43.64,59.57,43.69Z"/><path class="cls-3" d="M57,37.28a2.59,2.59,0,0,1-.61-.58s0,0,0,0h0l.65.6,0,0Z"/><path class="cls-3" d="M57,37.28l0,0a.87.87,0,0,1,.39.39s0,0,0,0h0A.93.93,0,0,1,57,37.28Z"/><path class="cls-3" d="M57.38,37.76l0,0c.11.09.26.16.2.34C57.52,38,57.4,37.9,57.38,37.76Z"/><path class="cls-3" d="M48.13,32.65l-.26-.29a.32.32,0,0,1-.27-.12l-.06-.33,0,0c.19,0,.35.13.54.16l.12.08a.1.1,0,0,1,.08,0,.17.17,0,0,1,0,.13c-.06.13.14.27,0,.4A.1.1,0,0,1,48.13,32.65Z"/><path class="cls-3" d="M42,30.44a4.84,4.84,0,0,1-1.3-.29A3.11,3.11,0,0,1,42,30.44Z"/><path class="cls-3" d="M50,32.74c-.33-.08-.39.24-.58.37-.09-.15,0-.31,0-.47a.07.07,0,0,1,.07-.06l.16,0s.08,0,.12-.06.13-.13.23-.15a.08.08,0,0,1,.06.06Z"/><path class="cls-3" d="M45.76,31.42a3.5,3.5,0,0,1-1.26-.35A3.7,3.7,0,0,1,45.76,31.42Z"/><path class="cls-3" d="M49.64,31.89a1.2,1.2,0,0,1,.57,0C50,32.15,50,32.16,49.64,31.89Z"/><path class="cls-3" d="M49.7,32.61H49.6c0-.07,0-.14,0-.21s0-.26.15-.23.29.1.21.3l-.08-.06C49.79,32.41,49.84,32.61,49.7,32.61Z"/><path class="cls-3" d="M48.1,32.08c-.23.16-.37,0-.54-.16a1.18,1.18,0,0,1,.42,0C48.15,31.88,48.05,32,48.1,32.08Z"/><path class="cls-3" d="M43.64,30.85a2.3,2.3,0,0,1-1-.27A2.73,2.73,0,0,1,43.64,30.85Z"/><path class="cls-3" d="M52.46,34a2.61,2.61,0,0,1-.91-.53C51.85,33.6,52.22,33.67,52.46,34Z"/><path class="cls-3" d="M40.06,30l-.69-.26c-.06,0-.21,0-.1-.16l.77.32C40.13,30,40.12,30,40.06,30Z"/><path class="cls-3" d="M50.32,32.91l0,0c.26.16.62.13.8.43A4.19,4.19,0,0,1,50.32,32.91Z"/><path class="cls-3" d="M44.51,31.08a1.7,1.7,0,0,1-.87-.23A1.82,1.82,0,0,1,44.51,31.08Z"/><path class="cls-3" d="M55.88,36.28l-.89-.7s0,0,0,0h0l.88.69s0,0,0,0Z"/><path class="cls-3" d="M53.31,34.45,52.52,34A1.17,1.17,0,0,1,53.31,34.45Z"/><path class="cls-3" d="M47.49,31.88c-.3.12-.55-.07-.8-.18C47,31.67,47.22,31.84,47.49,31.88Z"/><path class="cls-3" d="M54.58,35.26a4.66,4.66,0,0,1-.75-.5s0,0,0,0h0l.13.08c.13,0,.2.18.34.2l.28.23s0,0,0,0Z"/><path class="cls-3" d="M40.06,30l0-.1a1.43,1.43,0,0,1,.61.21A1.52,1.52,0,0,1,40.06,30Z"/><path class="cls-3" d="M48.28,32.23l-.07-.06a1.14,1.14,0,0,1,.61.21l0,.05A.44.44,0,0,1,48.28,32.23Z"/><path class="cls-3" d="M49.44,32.58l0,.05a.47.47,0,0,1-.56-.26h0A1.08,1.08,0,0,1,49.44,32.58Z"/><path class="cls-3" d="M46.31,31.58a.73.73,0,0,1-.55-.16A.77.77,0,0,1,46.31,31.58Z"/><path class="cls-3" d="M55.88,36.28l0-.05.52.43,0,0Z"/><path class="cls-3" d="M53.87,34.72l0,0c-.13,0-.29,0-.3-.24A.64.64,0,0,1,53.87,34.72Z"/><path class="cls-3" d="M54.58,35.26l0,0,.42.32,0,0Z"/><path class="cls-3" d="M42.33,30.56a.72.72,0,0,1-.38-.12C42.12,30.36,42.23,30.45,42.33,30.56Z"/><path class="cls-3" d="M46.69,31.7a.42.42,0,0,1-.39-.12A.43.43,0,0,1,46.69,31.7Z"/><path class="cls-3" d="M54.33,35c-.15,0-.24-.11-.34-.2C54.15,34.79,54.23,34.91,54.33,35Z"/><path class="cls-3" d="M72.21,40.28l.25-.08c.11.16.32.24.34.46,0,0,0,0,0,0s0,0,0,0c0-.17-.23-.32-.09-.51.26,0,.36.18.27.45a3.14,3.14,0,0,1,.3-.46c.11,0,.14.07.17.16a.5.5,0,0,1,0,.1c0,.15.09.34-.08.46a1.12,1.12,0,0,1-1,.24,2.08,2.08,0,0,0-.86.15,1.13,1.13,0,0,0-1,0c-.49.22-.81,0-.77-.55a1.4,1.4,0,0,1,.08-.61c.16.17.31-.08.47,0h0c.34.08.34.08.53.35.1-.17-.12-.24-.13-.37.22.1.38.2.34.49a.34.34,0,0,0,.35.42c-.19-.2-.36-.37-.16-.6a.32.32,0,0,1,.46,0c.31.2.12.39,0,.59.26-.08.3-.26.23-.49s-.16-.19,0-.27c.27.09.23.35.31.54s.05.09.12.09,0,0-.06,0a.14.14,0,0,1-.05-.07C72.26,40.55,72.06,40.43,72.21,40.28Z"/><path class="cls-3" d="M70.81,44.7a2.94,2.94,0,0,1-.36-.64.11.11,0,0,1,.09,0l.33.57s0,0,0,.06Z"/><path class="cls-3" d="M70.28,40.05c-.16,0-.31.25-.47,0A.52.52,0,0,1,70.28,40.05Z"/><path class="cls-3" d="M70.81,44.7l.06-.06.18.25V45A.05.05,0,0,1,71,45Z"/><path class="cls-3" d="M70.54,44.07h-.09a.45.45,0,0,1-.15-.3C70.44,43.82,70.46,44,70.54,44.07Z"/><path class="cls-3" d="M75.35,40.76l0,0c-.19,0-.19-.15-.23-.28s0-.44.3-.58c-.34.33-.62.21-.91,0h0c-.56.23-.89-.2-1.24-.5-.64-.54-1.33-1-1.93-1.59A9.29,9.29,0,0,0,70.14,37a18,18,0,0,1,2.14.82c1.16.44,2.3.93,3.45,1.39a.32.32,0,0,1-.11.39,2.38,2.38,0,0,0-.24.92C75.43,40.6,75.38,40.68,75.35,40.76Z"/><path class="cls-3" d="M75.15,33.66V34c-.22,0-.23.25-.34.37a.2.2,0,0,1-.23,0l-.07-.06c-.06-.18-.21,0-.3-.08a1.43,1.43,0,0,1-.66-.08c-.3-.34-.21-.61.21-.7a1.52,1.52,0,0,1,1.07.17C74.91,33.5,75,33.61,75.15,33.66Z"/><path class="cls-3" d="M73.6,34.19c.21.08.42,0,.63,0,0,.1.16,0,.19.14a.17.17,0,0,1,0,.09.31.31,0,0,1-.18.09,2.88,2.88,0,0,1-.47,0,.34.34,0,0,0-.35.2c-.17.07,0,.34-.25.39S73,34.92,73,34.8c0-.5-.08-1-.07-1.49,0,0-.09-.06,0-.11s.08,0,.13,0,.28.07.43.06a.15.15,0,0,1,.15-.07l.16,0c.21.05.12.14,0,.22-.28.06-.48.17-.43.52C73.4,34.09,73.44,34.19,73.6,34.19Z"/><path class="cls-3" d="M70.82,35.4l0-.58c.2-.25.49-.22.77-.23a1,1,0,0,0,.68-.19.91.91,0,0,0,.19-.29l.05-.09a.18.18,0,0,1,.14-.07c.09.47-.29.83-.9.83l-.11,0c-.58,0-.6,0-.56.6,0,.17,0,.34-.17.43a.38.38,0,0,1-.44-.06c-.09-.09,0-.12,0-.16s.17-.1.27-.08S70.83,35.46,70.82,35.4Z"/><path class="cls-3" d="M73.35,34.73c0-.16,0-.31.25-.27a4.58,4.58,0,0,0,.62,0c.29.11.39.39.54.62a1.4,1.4,0,0,1,.1.2c0,.08,0,.15-.09.17s-.26-.37-.4-.55a.72.72,0,0,0-.33-.28c-.31-.09-.52.09-.5.42l0,.36C73.27,35.3,73.23,35.15,73.35,34.73Z"/><path class="cls-3" d="M77.76,35.56c.17-.09-.08-.3.11-.38.1.11.22.24.14.39s-.24.16-.41.16a6.26,6.26,0,0,0-1.49.1.51.51,0,0,1-.44-.17l0-.26a.41.41,0,0,1,.23.06c.28.21.59.06.88.08S77.45,35.52,77.76,35.56Z"/><path class="cls-3" d="M73.75,33.4c.07,0,.15-.09,0-.18a1.76,1.76,0,0,1,.94,0,.48.48,0,0,1,.36.28l.07.15c-.07.05-.23-.12-.25.08a1.19,1.19,0,0,0-1-.23A.17.17,0,0,1,73.75,33.4Z"/><path class="cls-3" d="M76.47,37.82c.14-.13.2-.34.4-.42,0,.21.19.24.3.35L77,38c-.19.18-.36.44-.69.18C76.34,38,76.46,38,76.47,37.82Z"/><path class="cls-3" d="M72.53,34.08l0,.06a.09.09,0,0,1-.05.08c-.16.13-.28.36-.56.19a.22.22,0,0,1,0-.16.24.24,0,0,1,.25-.09.51.51,0,0,0-.14-.66l-.11-.1c.22-.08.33.18.53.15l.06,0A.61.61,0,0,1,72.53,34.08Z"/><path class="cls-3" d="M73,33.31a7.07,7.07,0,0,1,.11,1.31,1.87,1.87,0,0,0,.07.51.27.27,0,0,1,0,.28c0,.07-.11.05-.17.05,0-.65-.06-1.29-.09-1.94A.62.62,0,0,1,73,33.31Z"/><path class="cls-3" d="M75.62,39.58l.11-.39.06-.14c.15,0,.3-.23.46,0a1.78,1.78,0,0,1-.25.54Z"/><path class="cls-3" d="M76.25,39.05c-.16-.11-.3.1-.46,0,.1-.17.12-.38.28-.51s.3-.15.42.06A1.16,1.16,0,0,1,76.25,39.05Z"/><path class="cls-3" d="M76.5,38.61a.71.71,0,0,0-.42-.06c0-.18.12-.27.22-.38A.78.78,0,0,0,77,38Z"/><path class="cls-3" d="M74.81,35.32a.16.16,0,0,1-.08-.15c0-.19-.24-.29-.21-.5a.11.11,0,0,1,.14,0c.2.2.44.37.4.7C75,35.5,74.89,35.33,74.81,35.32Z"/><path class="cls-3" d="M73.12,35.38l0-.26c.08-.09,0-.21,0-.32s.07-.13.17-.07c.09.23-.09.53.2.71v.1h-.1C73.35,35.49,73.23,35.45,73.12,35.38Z"/><path class="cls-3" d="M69.19,35.5c.08-.33.35-.52.54-.77A.83.83,0,0,1,69.19,35.5Z"/><path class="cls-3" d="M74.57,34.4a.24.24,0,0,0,.21,0c.06-.09.12-.17.24-.17s.17,0,.13,0a.69.69,0,0,1-.45.36C74.59,34.58,74.49,34.55,74.57,34.4Z"/><path class="cls-3" d="M73.51,35.5l.06,0c-.07.25-.29.14-.44.15s-.16-.09-.09-.2S73.35,35.49,73.51,35.5Z"/><path class="cls-3" d="M75.92,35.48l-.22-.09,0-.05a.14.14,0,0,0,.14-.07,1,1,0,0,1,.46.17A.27.27,0,0,1,75.92,35.48Z"/><path class="cls-3" d="M75.68,35.65l.44.17c-.12.13-.26,0-.36,0a.56.56,0,0,0-.44,0C75.42,35.62,75.51,35.49,75.68,35.65Z"/><path class="cls-3" d="M75.17,35.44c.09.08.12.18,0,.22s-.29.08-.34-.13S75.05,35.46,75.17,35.44Z"/><path class="cls-3" d="M70.82,35.4c0,.06.27.11,0,.17a1.77,1.77,0,0,1-.36,0l0-.11.14-.17C70.66,35.37,70.72,35.43,70.82,35.4Z"/><path class="cls-3" d="M73.51,35.5a.77.77,0,0,1-.48,0L73,35.45l.14-.07C73.28,35.3,73.39,35.4,73.51,35.5Z"/><path class="cls-3" d="M75,34.21a.47.47,0,0,1-.24.17c0-.2.09-.4.37-.34Z"/><path class="cls-3" d="M73.47,33.25c-.16.1-.32.23-.43-.06A.73.73,0,0,1,73.47,33.25Z"/><path class="cls-3" d="M75.65,34.61l.05.41-.09.11C75.55,35,75.5,34.77,75.65,34.61Z"/><path class="cls-3" d="M75.3,35.17q.18.17.31,0c0,.12,0,.27-.11.28S75.32,35.29,75.3,35.17Z"/><path class="cls-3" d="M75.17,35.44l-.34.09-.06,0,0-.16.26,0Z"/><path class="cls-3" d="M74.57,34.4c0,.1.07.14.13.2l0,.05h-.11c-.16,0-.17-.13-.19-.24l0-.05a.08.08,0,0,1,.11,0Z"/><path class="cls-3" d="M75.3,33.6a.43.43,0,0,1,.07.52A1.13,1.13,0,0,1,75.3,33.6Z"/><path class="cls-3" d="M72.53,34.08v-.47a.35.35,0,0,1,.1.36Z"/><path class="cls-3" d="M75.16,34.5c-.15.12-.07.28,0,.42C74.92,34.75,74.86,34.6,75.16,34.5Z"/><path class="cls-3" d="M82.76,39.88a.44.44,0,0,1-.35.07.27.27,0,0,0-.35.21c-.13,0-.15-.09-.13-.2A.3.3,0,0,1,82,39.8s0,0,0,0,0,0,0,0c-.41.06-.59-.39-1-.38,0-.33-.25-.41-.51-.48a1.87,1.87,0,0,1,.74-.43.94.94,0,0,1,.4.2c.34.32.73.59,1.1.89.19.15.45.07.71.2C83.21,39.89,83,39.76,82.76,39.88Z"/><path class="cls-3" d="M77.47,36.76a13.39,13.39,0,0,1,1.11-1s.06,0,.06,0v.47c.14-.36.3-.32.47-.18L78,37a.44.44,0,0,1-.45,0C77.42,36.91,77.36,36.84,77.47,36.76Z"/><path class="cls-3" d="M77.47,36.76c.07.27.33.15.49.23l-.79.76c-.16-.06-.55.06-.3-.35C77.07,37.19,77.19,36.91,77.47,36.76Z"/><path class="cls-3" d="M75.67,52.34,74.09,50s0,0,0-.05h0l.58.83.91,1.37C75.68,52.19,75.74,52.25,75.67,52.34Z"/><path class="cls-3" d="M73.88,49.63a5.69,5.69,0,0,1-.61-.94,1.81,1.81,0,0,1,.64.91Z"/><path class="cls-3" d="M73.24,48.66l-.35-.56a.06.06,0,0,1,0-.06h0C73.06,48.24,73.3,48.39,73.24,48.66Z"/><path class="cls-3" d="M72.72,47.81a1.85,1.85,0,0,1-.33-.54.08.08,0,0,1,.1.06,2.45,2.45,0,0,1,.34.48C72.79,47.87,72.76,47.89,72.72,47.81Z"/><path class="cls-3" d="M72.49,47.33l-.1-.06c-.16-.11-.19-.3-.3-.44a.06.06,0,0,1,0-.06h0A2.14,2.14,0,0,1,72.49,47.33Z"/><path class="cls-3" d="M71.76,46.28l-.25-.44a.09.09,0,0,1,.11.06.83.83,0,0,1,.24.38A.1.1,0,0,1,71.76,46.28Z"/><path class="cls-3" d="M73.88,49.63l0,0a.55.55,0,0,1,.23.32l-.05.06Z"/><path class="cls-3" d="M71,45,71,45c.12.07.16.19.24.3s-.06.08-.1,0A.77.77,0,0,1,71,45Z"/><path class="cls-3" d="M71.62,45.9l-.11-.06-.16-.25a.06.06,0,0,1,0-.06h0A.87.87,0,0,1,71.62,45.9Z"/><path class="cls-3" d="M72.72,47.81h.1l.12.23-.06.07A.72.72,0,0,1,72.72,47.81Z"/><path class="cls-3" d="M72.15,46.75l-.05.07a.66.66,0,0,1-.16-.29.13.13,0,0,1,.1,0Z"/><path class="cls-3" d="M72,46.53h-.1l-.17-.25h.09Z"/><path class="cls-3" d="M71.4,45.52l-.06.07-.16-.29h.1Z"/><path class="cls-3" d="M76.25,53.17a5,5,0,0,1-.49-.73A.93.93,0,0,1,76.25,53.17Z"/><path class="cls-3" d="M80.17,57.65a6.22,6.22,0,0,1-.89-.71c.08-.08.12,0,.15.05A3.82,3.82,0,0,1,80.17,57.65Z"/><path class="cls-3" d="M79.43,57l-.15-.05c-.1-.22-.38-.28-.45-.52A1.59,1.59,0,0,1,79.43,57Z"/><path class="cls-3" d="M77,54.14a1.17,1.17,0,0,1-.31-.43c.24,0,.26.31.42.43C77.05,54.2,77,54.22,77,54.14Z"/><path class="cls-3" d="M78.41,56c-.07-.14-.25-.21-.28-.38s0,0,0-.05h0l.29.37s0,0,0,.05Z"/><path class="cls-3" d="M78.41,56l.05-.06c.09.13.33.17.26.4Z"/><path class="cls-3" d="M77.93,55.37c-.1-.11-.26-.18-.29-.36l0,0c.15.07.19.23.3.34s0,0,0,0Z"/><path class="cls-3" d="M77,54.14h.1c.06.12.2.19.22.33a.1.1,0,0,1-.09,0C77.15,54.36,77,54.29,77,54.14Z"/><path class="cls-3" d="M76.57,53.61c-.07-.12-.2-.19-.22-.34C76.52,53.33,76.63,53.41,76.57,53.61Z"/><path class="cls-3" d="M77.67,55l0,0c-.14,0-.17-.19-.25-.29s0,0,0,0h0A.5.5,0,0,1,77.67,55Z"/><path class="cls-3" d="M77.44,54.68l0,0-.19-.24h.09C77.37,54.54,77.45,54.58,77.44,54.68Z"/><path class="cls-3" d="M77.93,55.37l0,0,.2.24,0,.05C78.06,55.53,77.94,55.5,77.93,55.37Z"/><path class="cls-3" d="M79.33,43.83A3.08,3.08,0,0,1,79,42.55c.16-.15.24,0,.33.09C81.17,44.12,83,45.57,84.87,47c.18.14.36.26.55.38s.23.11.22.27a3.45,3.45,0,0,1-1.36,0,.24.24,0,0,0-.27,0h0a1.8,1.8,0,0,0-.47-.36c-1-.7-1.9-1.53-2.89-2.25A7,7,0,0,1,79.33,43.83Z"/><path class="cls-3" d="M85.64,47.69c-1.43-.93-2.69-2.06-4-3.11-.85-.66-1.73-1.31-2.53-2,0,0,0,0-.07,0a2.21,2.21,0,0,1,0-.94c.28.12.38.41.61.58q3.12,2.46,6.23,4.95c.19.15.49.11.6.38A2.18,2.18,0,0,1,85.64,47.69Z"/><path class="cls-3" d="M79.33,43.83a.43.43,0,0,1,.35.22,3.75,3.75,0,0,0,.75.64c.85.67,1.72,1.31,2.53,2a2.13,2.13,0,0,0,.95.57c.22,0,0,.2.09.3A6.38,6.38,0,0,1,79.33,43.83Z"/><path class="cls-3" d="M84,47.6c.12-.18.21-.12.27,0A.39.39,0,0,1,84,47.6Z"/><path class="cls-3" d="M81.93,40l.13.2c-.1.44-.09.46.32.52.07,0,.13,0,.14.09s-.1.08-.16.09a4.77,4.77,0,0,1-.8,0,.51.51,0,0,0-.44.15.15.15,0,0,1-.16,0c-.09-.1,0-.48-.34-.17h-.1l-.22-.09c-.1-.2,0-.41-.08-.62a.55.55,0,0,1,.89,0c.22-.19.48-.08.72-.07Z"/><path class="cls-3" d="M80.21,40.07a1.29,1.29,0,0,1,.08.62c-.09,0-.08-.06-.12-.09Z"/><path class="cls-3" d="M75,40.9A.84.84,0,0,1,74,41a.8.8,0,0,0-.6,0l0-.16c0-.19-.05-.38,0-.58h0c0-.1.11,0,.17,0s0,0,0,0,0,0,0,0a.35.35,0,0,1,.37,0c.11,0,.07.11.08.15s-.13-.3.09-.38l.12.09c.15.09.1.25.12.38s0,.27.22.26h.1C74.82,40.84,74.92,40.81,75,40.9Z"/><path class="cls-3" d="M74.64,40.83c-.14.05-.27.11-.26-.15a2.43,2.43,0,0,0-.08-.5c0-.07,0-.15.13-.13s.06.08,0,.14A.58.58,0,0,0,74.64,40.83Z"/><path class="cls-3" d="M72.8,40.75c0-.23-.33-.3-.34-.54l.09-.11.16,0c0,.2.13.37.13.56t0,0Z"/><path class="cls-3" d="M75.07,40.53l.23.28,0,.17-.21-.08s0-.07,0-.1S75,40.61,75.07,40.53Z"/><path class="cls-3" d="M73.63,40.3l.15.14c-.17,0-.24-.17-.36-.12l-.13-.2C73.49,40,73.53,40.21,73.63,40.3Z"/><path class="cls-3" d="M74.17,40.09c-.1.12,0,.28-.07.47L74,40.32C74,40.22,73.94,40,74.17,40.09Z"/><path class="cls-3" d="M75.06,40.79v.1H75l-.22-.08A.47.47,0,0,1,75.06,40.79Z"/><path class="cls-3" d="M73.42,40.32c0,.19.16.38,0,.58l-.06,0C73.43,40.68,73.29,40.49,73.42,40.32Z"/><path class="cls-3" d="M45.21,32.12c-.1-.06-.23,0-.31-.08a1.29,1.29,0,0,1,.93-.12V32a.25.25,0,0,1-.11.1,1,1,0,0,1-.46.07Z"/><path class="cls-3" d="M47.6,32.24c.13,0,.19.07.27.12l0,.17c-.13.12-.16,0-.21-.08Z"/><path class="cls-3" d="M46.31,32l.08.15c-.08,0-.15,0-.22,0l-.09,0c-.09-.05-.22-.06-.25-.19v0A.68.68,0,0,1,46.31,32Z"/><path class="cls-3" d="M80.62,40.77c0-.11-.06-.3.13-.25a.3.3,0,0,1,.21.43Z"/><path class="cls-3" d="M55.7,24.43l-.16,0a1.51,1.51,0,0,1-.38-.37l-.77-.83c.08-.1.12,0,.16,0l.29.23a5,5,0,0,0,.64.69C55.56,24.25,55.68,24.3,55.7,24.43Z"/><path class="cls-3" d="M54.55,23.24l-.16,0-.67-.72-1.21-1.38a.81.81,0,0,0-.23-.31s.06-.08.09,0l.18.13a12.35,12.35,0,0,0,1.3,1.49C54,22.72,54.38,22.92,54.55,23.24Z"/><path class="cls-3" d="M52.38,20.79h-.09L50.9,19.05c-.38-.56-.86-1-1.22-1.61,0,0,0,0,0,0h0l1.21,1.49Z"/><path class="cls-3" d="M49.71,17.39l0,0-.41-.59C49.53,16.95,49.59,17.19,49.71,17.39Z"/><path class="cls-3" d="M72.22,40.75a1.82,1.82,0,0,0-.3-.6c.15-.08.23,0,.28.13l.05.42s0,0,0,.05Z"/><path class="cls-3" d="M81.83,40s0,.2-.09.13c-.21-.24-.42-.06-.63-.06C81.31,39.75,81.57,39.87,81.83,40Z"/><path class="cls-3" d="M72,34.29l-.09.12c0,.18-.27,0-.32.19-.24,0-.5.17-.72-.08.08,0,.14-.09,0-.17l.05-.05A1.37,1.37,0,0,1,72,34.29Z"/><path class="cls-3" d="M70.85,34.51a1.79,1.79,0,0,0,.74,0c.22-.07.45-.06.67-.14a.08.08,0,0,1,.06.07.76.76,0,0,1-.65.22,2.17,2.17,0,0,0-.87.14C70.82,34.72,70.77,34.6,70.85,34.51Z"/><path class="cls-3" d="M72,34.29H70.93c.07-.18-.17-.45.11-.54a1.32,1.32,0,0,1,.93,0c.16.07.05.31.21.4Z"/><path class="cls-3" d="M75.35,40.76a.28.28,0,0,1,0-.26c.08-.14.23-.15.36-.2a.9.9,0,0,1-.12.38C75.56,40.78,75.44,40.73,75.35,40.76Z"/><path class="cls-3" d="M44.3,42.08a4.14,4.14,0,0,1,0-.89,1,1,0,0,1,.13-.61.18.18,0,0,1,.1,0,14.55,14.55,0,0,0-.16,1.53A.09.09,0,0,1,44.3,42.08Z"/><path class="cls-3" d="M44.52,40.6l-.18.59-.13,0A3.06,3.06,0,0,1,44.63,40h.11A4.72,4.72,0,0,1,44.52,40.6Z"/><path class="cls-3" d="M44.3,42.08h.11l.13,1a.09.09,0,0,1-.1,0A3.5,3.5,0,0,1,44.3,42.08Z"/><path class="cls-3" d="M44.43,43.12h.1a2.54,2.54,0,0,0,.24.66l0,.05a.11.11,0,0,1-.1,0A2.43,2.43,0,0,1,44.43,43.12Z"/><path class="cls-3" d="M44.52,40.6a1.54,1.54,0,0,1,.23-.65.88.88,0,0,1-.18.59Z"/><path class="cls-3" d="M47.33,38.8c-.12,0-.23,0-.25-.14a.09.09,0,0,1,0-.07C47.27,38.57,47.27,38.69,47.33,38.8Z"/><path class="cls-3" d="M46.05,39.21c.14,0,.2.1.36.23C46.19,39.4,46.08,39.4,46.05,39.21Z"/><path class="cls-3" d="M46.51,39.43l.41-.35C46.82,39.27,46.76,39.38,46.51,39.43Z"/><path class="cls-3" d="M46.5,38.63c.18-.07.26,0,.38.18Z"/><path class="cls-3" d="M47.8,38.73s-.06-.09,0-.13a.1.1,0,0,1,.1,0,.07.07,0,0,1,0,.12S47.83,38.72,47.8,38.73Z"/><path class="cls-3" d="M51.09,47.37a14.61,14.61,0,0,0,1.46-.51.06.06,0,0,1,0,.06l0,0a3.31,3.31,0,0,1-1.39.53A.09.09,0,0,1,51.09,47.37Z"/><path class="cls-3" d="M48.73,47.33a9.82,9.82,0,0,0,1.32.14c.08,0,.07.06,0,.1a3.7,3.7,0,0,1-1.39-.18S48.68,47.33,48.73,47.33Z"/><path class="cls-3" d="M44.65,43.82h.1l.55,1.11v0h0A3.67,3.67,0,0,1,44.65,43.82Z"/><path class="cls-3" d="M50.07,47.58v-.1a5.92,5.92,0,0,0,1-.1l0,.1A3.22,3.22,0,0,1,50.07,47.58Z"/><path class="cls-3" d="M45.67,45.39c.17.23.44.37.57.63t0,0h0C46,45.87,45.69,45.73,45.67,45.39Z"/><path class="cls-3" d="M52.5,46.95l0-.08a1.44,1.44,0,0,1,.51-.34s0,0,0,0l0,.07A1.24,1.24,0,0,1,52.5,46.95Z"/><path class="cls-3" d="M46.2,46.07l0-.05.59.46c.08,0,.07.06,0,.1Z"/><path class="cls-3" d="M45.26,45l0,0c.08.14.31.2.22.42C45.44,45.22,45.3,45.13,45.26,45Z"/><path class="cls-3" d="M47,46.59l.52.3c-.2.13-.3-.09-.44-.15S47,46.7,47,46.59Z"/><path class="cls-3" d="M47.61,46.93c.14.07.32.07.41.24C47.87,47.11,47.66,47.16,47.61,46.93Z"/><path class="cls-3" d="M48.73,47.33l0,.07a.64.64,0,0,1-.37-.12C48.47,47.15,48.59,47.3,48.73,47.33Z"/><path class="cls-3" d="M47,46.59l.08.15a.41.41,0,0,1-.28-.16l0-.1A.24.24,0,0,1,47,46.59Z"/><path class="cls-3" d="M46.59,32.55l-.22-.09c-.09-.17-.35-.11-.42-.31s.15,0,.22,0h0a.91.91,0,0,1,.47.39Z"/><path class="cls-3" d="M46.64,32.51l-.47-.39c.1,0,.15,0,.23.07s.28.16.3.34Z"/><path class="cls-3" d="M48.83,32.38c.16.15.38.15.56.26s0,.32,0,.48.06.2,0,.28l0,0a.55.55,0,0,1-.25,0,2.62,2.62,0,0,1-.39-.14.38.38,0,0,1-.12-.1,5.17,5.17,0,0,1-.38-.82l.09-.11A1.05,1.05,0,0,0,48.83,32.38Z"/><path class="cls-3" d="M48.13,32.65a.15.15,0,0,0,.16,0c.11.1.18.21.1.35v0L48.23,33C48.26,32.87,48.09,32.78,48.13,32.65Z"/><path class="cls-3" d="M78.64,35.78l-.06,0c0-.17-.31-.14-.3-.35s.31,0,.29-.2c0-.4-.17-.82,0-1.21.13-.06.24,0,.35.07a1.07,1.07,0,0,1,.17.26h0c.05.12.15.22.2.35h0c0,.18.17.3.21.46a.13.13,0,0,1-.14.06c-.27-.05-.28-.35-.51-.5a3.16,3.16,0,0,1,.07.79Z"/><path class="cls-3" d="M79,35.48a1.86,1.86,0,0,1-.1-1.07l.54.77C79.25,35.28,79.14,35.43,79,35.48Z"/><path class="cls-3" d="M78.61,34c-.07.4.08.81,0,1.2-.07.09-.12.05-.16,0a3.46,3.46,0,0,1-.07-1.25l.2-.13C78.71,33.86,78.65,33.93,78.61,34Z"/><path class="cls-3" d="M78.61,34l0-.21,0-.25.25.38c0,.06.08.09.07.15Z"/><path class="cls-3" d="M78.94,34.08a.17.17,0,0,1-.07-.15.5.5,0,0,1,.26.39Z"/><path class="cls-3" d="M79.33,34.67a.47.47,0,0,1-.2-.35A.43.43,0,0,1,79.33,34.67Z"/><path class="cls-3" d="M78.46,35.17a.16.16,0,0,0,.16,0c.08.08.25.17,0,.19a2.52,2.52,0,0,1-.32,0l0-.06Z"/><path class="cls-3" d="M75.83,34c.08-.09,0-.21,0-.31s.07-.13.17-.07a.44.44,0,0,1,0,.31c-.1,0-.11.05-.11.13s-.06.1-.13.05Z"/><path class="cls-3" d="M75.92,35.48l.43,0h.08a4.67,4.67,0,0,0,1,0c.13,0,.27,0,.37.1a15.81,15.81,0,0,1-1.66.08S75.83,35.69,75.92,35.48Z"/><path class="cls-3" d="M64.25,30.31,64,30.23c0-.14-.09-.28.07-.4A.53.53,0,0,1,64.25,30.31Z"/><path class="cls-3" d="M85.42,40.14l.12.09.19.28A.41.41,0,0,1,85.42,40.14Z"/><path class="cls-3" d="M48.4,33l-.1-.35c0-.12-.18-.21-.1-.35a2.85,2.85,0,0,1,.43.79A.24.24,0,0,1,48.4,33Z"/><path class="cls-3" d="M49.7,32.61c.11,0,0-.33.22-.19C49.84,32.47,50,32.75,49.7,32.61Z"/><path class="cls-3" d="M72.8,40.75l0-.05c.07,0,.15,0,.13.14s0,0-.07.06Z"/><path class="cls-3" d="M72.22,40.75l0-.05.06,0a.11.11,0,0,1,.12.1C72.31,41,72.27,40.85,72.22,40.75Z"/><path class="cls-3" d="M70,40.88s.06.07,0,.09A.12.12,0,0,1,70,41a0,0,0,0,1,0-.08S70,40.88,70,40.88Z"/><path class="cls-3" d="M72.44,40.84l-.12-.1s.12-.1.13-.09S72.47,40.77,72.44,40.84Z"/><path class="cls-3" d="M73.75,33.4c.16.08.31,0,.47,0a.66.66,0,0,1,.69.33l-.06.26a1,1,0,0,0-1.24-.35c-.22.12-.24.34,0,.53-.14.06-.22,0-.26-.14C73.24,33.62,73.32,33.47,73.75,33.4Z"/><path class="cls-3" d="M74.51,34.36h-.11c-.07,0-.19,0-.18-.14l.28,0c.06,0,.13,0,.13,0S74.56,34.32,74.51,34.36Z"/><path class="cls-3" d="M74.36,34.42l.19.24c0,.2.26.29.17.51l-.5-.69Z"/><path class="cls-3" d="M72.32,34.47l-.05,0a.25.25,0,0,1,.17-.23l0-.05C72.52,34.29,72.38,34.36,72.32,34.47Z"/><path class="cls-3" d="M72.44,34.19l-.17.23a1.22,1.22,0,0,1-.67.11c0-.17.22,0,.3-.13C72.13,34.46,72.25,34.24,72.44,34.19Z"/><path class="cls-3" d="M82,39.8a.45.45,0,0,1,.36,0A.31.31,0,0,1,82,39.8Z"/><path class="cls-3" d="M81.14,40.67v-.41C81.25,40.46,81.27,40.56,81.14,40.67Z"/><path class="cls-3" d="M81.79,40.65c-.16,0-.17-.15-.22-.29C81.72,40.42,81.74,40.55,81.79,40.65Z"/><path class="cls-3" d="M73.85,40.62c.13,0,.32,0,.25.26C74,40.85,73.93,40.7,73.85,40.62Z"/><path class="cls-3" d="M45.54,32.22a.36.36,0,0,1-.31-.12l.45-.09a.12.12,0,0,1,.13.06C45.8,32.26,45.62,32.17,45.54,32.22Z"/><path class="cls-3" d="M45.82,32.1,45.67,32l.16-.07c.1.08.26.06.34.17l-.23,0C45.86,32.21,45.85,32.14,45.82,32.1Z"/><path class="cls-3" d="M45.82,32.1l.11.06c.13.12.39.06.44.31l-.83-.24C45.59,32.08,45.75,32.19,45.82,32.1Z"/><path class="cls-3" d="M9.91,63.31l.35,0H11l.33,0V78L11,78h-.77l-.32,0Z"/><path class="cls-3" d="M14.89,76.36l.59.18a6.76,6.76,0,0,0,.68.18c.25.05.53.1.85.14a8.41,8.41,0,0,0,1.08.06,5.33,5.33,0,0,0,1.68-.24,3.37,3.37,0,0,0,1.16-.63,2.5,2.5,0,0,0,.68-.94A3,3,0,0,0,21.86,74a3.2,3.2,0,0,0-.15-1.05,2.09,2.09,0,0,0-.53-.81,4.25,4.25,0,0,0-1-.71q-.66-.34-1.66-.72-.71-.27-1.36-.57A4.77,4.77,0,0,1,16,69.35a3.24,3.24,0,0,1-.78-1.05,3.6,3.6,0,0,1-.29-1.53,3.35,3.35,0,0,1,1.19-2.67,5.22,5.22,0,0,1,3.48-1c.3,0,.6,0,.91,0l.86.1c.26,0,.51.09.73.14l.54.14q0,.31-.11.62a5.36,5.36,0,0,1-.17.6,9.77,9.77,0,0,0-2.78-.43,3.48,3.48,0,0,0-2.43.69,2.31,2.31,0,0,0-.74,1.76,2,2,0,0,0,.22,1,2.3,2.3,0,0,0,.62.71,5,5,0,0,0,.95.56q.55.26,1.18.5.86.35,1.6.71a5.39,5.39,0,0,1,1.28.86,3.63,3.63,0,0,1,.84,1.15,3.8,3.8,0,0,1,.31,1.6A4.5,4.5,0,0,1,23,75.7,3.79,3.79,0,0,1,22,77.09a4.85,4.85,0,0,1-1.69.86,7.91,7.91,0,0,1-2.25.3,9.65,9.65,0,0,1-2-.17q-.8-.17-1.49-.4a4.65,4.65,0,0,1,.14-.66A5.64,5.64,0,0,1,14.89,76.36Z"/><path class="cls-3" d="M26.33,63.31l.35,0h.74l.33,0v8.86A9.38,9.38,0,0,0,28,74.35a3.84,3.84,0,0,0,.65,1.46,2.48,2.48,0,0,0,1.11.83,4.57,4.57,0,0,0,1.61.25,3.29,3.29,0,0,0,2.73-1.08,5.89,5.89,0,0,0,.87-3.63V63.31l.33,0H36l.35,0v9a6.85,6.85,0,0,1-1.2,4.41,4.63,4.63,0,0,1-3.8,1.47,4.63,4.63,0,0,1-3.8-1.47,6.84,6.84,0,0,1-1.21-4.41Z"/><path class="cls-3" d="M40.29,63.31l.35,0h.74l.33,0V78l-.33,0h-.77l-.32,0Zm2.37,7.17,5.17-7.17.34,0h.77l.43,0-5,7L50.14,78l-.46,0h-.84l-.38,0Z"/><path class="cls-3" d="M52.4,63.31l.35,0h.74l.33,0v6.25H61V63.31l.33,0h.74l.35,0V78l-.32,0h-.77L61,78V70.85H53.81V78l-.33,0h-.77l-.32,0Z"/><path class="cls-3" d="M69.82,63.31l.39,0h.91l.38,0L76.39,78,76,78h-.82l-.35,0-1.22-3.74h-6L66.45,78l-.38,0h-.82l-.34,0ZM73.25,73l-2.63-8.17L68,73Z"/><path class="cls-4" d="M91.5,63.36a8.66,8.66,0,0,1,.9-.13c.25,0,.5,0,.75,0l.86,0a9.56,9.56,0,0,1,1,.13L91.52,77.93l-.79.12a8.32,8.32,0,0,1-1.05.06A8.46,8.46,0,0,1,88.57,78l-.72-.11-1.94-8.45-2.06,8.45-.68.11a8.35,8.35,0,0,1-2.09,0l-.76-.12L76.86,63.38a11,11,0,0,1,1.1-.14q.53,0,.94,0c.26,0,.53,0,.81,0a8.27,8.27,0,0,1,1,.13l1.69,9.33q.51-2.25,1-4.69t1-4.65l.82-.11a8.1,8.1,0,0,1,.92-.05,7,7,0,0,1,.84.05l.74.11,2.12,9.43Z"/><path class="cls-4" d="M104.06,70.34a7.8,7.8,0,0,1-.18,1.59H99.93v2.9h5.12a7.45,7.45,0,0,1,.18,1.55,7.68,7.68,0,0,1-.18,1.61H96.32V63.31h8.62q.08.45.12.84a7,7,0,0,1,0,.74,9.67,9.67,0,0,1-.16,1.61h-5v2.25h3.94A8,8,0,0,1,104.06,70.34Z"/><path class="cls-4" d="M112.8,69q.86.35,1.54.71a4.63,4.63,0,0,1,1.17.86,3.42,3.42,0,0,1,.76,1.2,5.39,5.39,0,0,1-.11,3.66A4.05,4.05,0,0,1,115,76.94a5.13,5.13,0,0,1-1.81,1,8.21,8.21,0,0,1-2.46.34,11,11,0,0,1-2.24-.2,14,14,0,0,1-2.09-.63,11.7,11.7,0,0,1,.29-1.52q.2-.81.49-1.64a8.41,8.41,0,0,0,3.27.82,3.43,3.43,0,0,0,1.62-.32,1.14,1.14,0,0,0,.58-1.09,1.21,1.21,0,0,0-.12-.56,1.26,1.26,0,0,0-.33-.4,2,2,0,0,0-.46-.28l-.52-.21-1.14-.43a7.33,7.33,0,0,1-1.34-.63,4.29,4.29,0,0,1-1-.87,3.65,3.65,0,0,1-.66-1.15,4.53,4.53,0,0,1-.24-1.53,4.73,4.73,0,0,1,.37-1.92,4,4,0,0,1,1-1.42,4.4,4.4,0,0,1,1.6-.88,7,7,0,0,1,2.1-.3,9.77,9.77,0,0,1,2,.2,16.65,16.65,0,0,1,2.07.59,10.54,10.54,0,0,1-.3,1.44,9.08,9.08,0,0,1-.54,1.48q-.53-.23-1.25-.47a5.52,5.52,0,0,0-1.78-.25,3,3,0,0,0-.62.06,1.82,1.82,0,0,0-.53.19,1,1,0,0,0-.38.37,1.11,1.11,0,0,0-.14.58,1,1,0,0,0,.39.88,3.85,3.85,0,0,0,.92.49Z"/><path class="cls-4" d="M120.76,66.5h-3.41a7,7,0,0,1,0-3.19h10.43q.08.45.12.84a7,7,0,0,1,0,.74,9.67,9.67,0,0,1-.16,1.61h-3.41V77.93a11,11,0,0,1-1.8.18,10.85,10.85,0,0,1-1.82-.18Z"/><path class="cls-5" d="M11.8,83.68q.34.14.6.28a1.86,1.86,0,0,1,.46.34,1.35,1.35,0,0,1,.3.47,2.11,2.11,0,0,1,0,1.43,1.58,1.58,0,0,1-.44.58,2,2,0,0,1-.71.38,3.22,3.22,0,0,1-1,.13,4.27,4.27,0,0,1-.88-.08A5.38,5.38,0,0,1,9.31,87a4.52,4.52,0,0,1,.11-.6c.05-.21.12-.43.19-.64a3.3,3.3,0,0,0,1.28.32,1.34,1.34,0,0,0,.64-.12.45.45,0,0,0,.23-.43.47.47,0,0,0,0-.22.5.5,0,0,0-.13-.16A.81.81,0,0,0,11.4,85l-.2-.08-.45-.17a2.89,2.89,0,0,1-.52-.25,1.66,1.66,0,0,1-.4-.34,1.43,1.43,0,0,1-.26-.45,1.77,1.77,0,0,1-.09-.6,1.86,1.86,0,0,1,.14-.75A1.58,1.58,0,0,1,10,81.8a1.71,1.71,0,0,1,.63-.34,2.72,2.72,0,0,1,.83-.12,3.8,3.8,0,0,1,.79.08,6.53,6.53,0,0,1,.81.23,4.2,4.2,0,0,1-.12.57,3.58,3.58,0,0,1-.21.58l-.49-.18a2.19,2.19,0,0,0-.7-.1l-.24,0a.69.69,0,0,0-.21.08.39.39,0,0,0-.15.14.44.44,0,0,0-.06.23.4.4,0,0,0,.15.34,1.53,1.53,0,0,0,.36.19Z"/><path class="cls-5" d="M14.86,87.18l-.34,0-.3,0-.33,0-.42-.06,1.79-5.72.39,0,.36,0,.33,0,.41,0,1.77,5.73a5.14,5.14,0,0,1-.8.07l-.32,0-.34,0-.3-1.11-.43.1a2.6,2.6,0,0,1-.41,0l-.38,0-.4-.08ZM16,82.95,15.44,85l.26.06.25,0,.27,0,.28-.06Z"/><path class="cls-5" d="M20.2,84.33q0,1.7,1.42,1.7a2.4,2.4,0,0,0,.48,0,5,5,0,0,0,.56-.16A4.29,4.29,0,0,1,23,87l-.43.14-.38.08-.36,0h-.37a3,3,0,0,1-1.2-.22,2.4,2.4,0,0,1-.86-.61,2.58,2.58,0,0,1-.52-.94,3.81,3.81,0,0,1-.18-1.19,3.7,3.7,0,0,1,.18-1.19,2.76,2.76,0,0,1,.53-.95,2.4,2.4,0,0,1,.86-.62,2.87,2.87,0,0,1,1.16-.22,4.57,4.57,0,0,1,.73.06,3.74,3.74,0,0,1,.77.22,2.35,2.35,0,0,1-.12.64,4.81,4.81,0,0,1-.22.54l-.29-.1-.25-.06-.24,0h-.26a1.22,1.22,0,0,0-1,.44A2,2,0,0,0,20.2,84.33Z"/><path class="cls-5" d="M24.68,84.33q0,1.7,1.42,1.7a2.4,2.4,0,0,0,.48,0,5,5,0,0,0,.56-.16A4.29,4.29,0,0,1,27.49,87l-.43.14-.38.08-.36,0h-.37a3,3,0,0,1-1.2-.22,2.4,2.4,0,0,1-.86-.61,2.58,2.58,0,0,1-.52-.94,3.81,3.81,0,0,1-.18-1.19,3.7,3.7,0,0,1,.18-1.19,2.76,2.76,0,0,1,.53-.95,2.4,2.4,0,0,1,.86-.62,2.87,2.87,0,0,1,1.16-.22,4.57,4.57,0,0,1,.73.06,3.74,3.74,0,0,1,.77.22,2.35,2.35,0,0,1-.12.64,4.81,4.81,0,0,1-.22.54l-.29-.1-.25-.06-.24,0H26A1.22,1.22,0,0,0,25,83,2,2,0,0,0,24.68,84.33Z"/><path class="cls-5" d="M27.65,84.34a4.55,4.55,0,0,1,.15-1.19,2.69,2.69,0,0,1,.46-.95,2.15,2.15,0,0,1,.79-.63,2.61,2.61,0,0,1,1.13-.23,2.58,2.58,0,0,1,1.13.23,2.16,2.16,0,0,1,.78.63,2.69,2.69,0,0,1,.46.95,4.51,4.51,0,0,1,.15,1.19,4.42,4.42,0,0,1-.15,1.18,2.64,2.64,0,0,1-.46.94,2.09,2.09,0,0,1-.78.62,2.66,2.66,0,0,1-1.13.22A2.69,2.69,0,0,1,29,87.07a2.09,2.09,0,0,1-.79-.62,2.64,2.64,0,0,1-.46-.94A4.46,4.46,0,0,1,27.65,84.34Zm3.55,0q0-1.75-1-1.75t-1,1.75a2.63,2.63,0,0,0,.25,1.3.84.84,0,0,0,.78.43Q31.2,86.07,31.2,84.34Z"/><line class="cls-6" x1="2.03" y1="55.41" x2="2.03" y2="93.24"/></g></g></svg>