<svg xmlns="http://www.w3.org/2000/svg" xmlns:xlink="http://www.w3.org/1999/xlink" viewBox="0 0 131 101"><defs><style>.cls-1{fill:none;stroke:#a7a9ac;stroke-miterlimit:10;opacity:0.66;}.cls-2{fill:#6d6e71;opacity:0.61;}.cls-3{fill:url(#linear-gradient);}.cls-4{fill:url(#linear-gradient-2);}.cls-5{fill:url(#linear-gradient-3);}.cls-6{fill:url(#linear-gradient-4);}.cls-7{fill:#a7a9ac;}.cls-8{fill:url(#radial-gradient);}.cls-9{fill:url(#radial-gradient-2);}.cls-10{fill:url(#radial-gradient-3);}.cls-11{fill:url(#radial-gradient-4);}.cls-12{fill:url(#radial-gradient-5);}.cls-13{fill:url(#radial-gradient-6);}.cls-14{fill:url(#radial-gradient-7);}.cls-15{fill:url(#radial-gradient-8);}.cls-16{fill:url(#radial-gradient-9);}.cls-17{fill:#fff;}.cls-18{fill:#d1d3d4;}</style><linearGradient id="linear-gradient" x1="46.24" y1="26.71" x2="65.14" y2="26.71" gradientUnits="userSpaceOnUse"><stop offset="0" stop-color="#333"/><stop offset="1" stop-color="#010101"/></linearGradient><linearGradient id="linear-gradient-2" x1="47.62" y1="49.83" x2="65.14" y2="49.83" gradientUnits="userSpaceOnUse"><stop offset="0" stop-color="#010101"/><stop offset="1" stop-color="#333"/></linearGradient><linearGradient id="linear-gradient-3" x1="65.14" y1="49.86" x2="83.29" y2="49.86" xlink:href="#linear-gradient-2"/><linearGradient id="linear-gradient-4" x1="65.14" y1="26.67" x2="84.68" y2="26.67" xlink:href="#linear-gradient"/><radialGradient id="radial-gradient" cx="65.46" cy="39.15" r="10.97" gradientUnits="userSpaceOnUse"><stop offset="0.06" stop-color="#f2e6d8"/><stop offset="0.08" stop-color="#f1dfc1"/><stop offset="0.11" stop-color="#efd9ab"/><stop offset="0.14" stop-color="#eed49a"/><stop offset="0.18" stop-color="#eed18f"/><stop offset="0.24" stop-color="#edcf88"/><stop offset="0.4" stop-color="#edce86"/><stop offset="0.41" stop-color="#eccd85"/><stop offset="0.59" stop-color="#d8ac5e"/><stop offset="0.75" stop-color="#ca9442"/><stop offset="0.89" stop-color="#c18631"/><stop offset="1" stop-color="#be812b"/></radialGradient><radialGradient id="radial-gradient-2" cx="34.08" cy="76.18" r="4.87" xlink:href="#radial-gradient"/><radialGradient id="radial-gradient-3" cx="43.5" cy="76.17" r="4.14" xlink:href="#radial-gradient"/><radialGradient id="radial-gradient-4" cx="56.63" cy="76.13" r="5.05" xlink:href="#radial-gradient"/><radialGradient id="radial-gradient-5" cx="65.66" cy="76.17" r="3.81" xlink:href="#radial-gradient"/><radialGradient id="radial-gradient-6" cx="84.14" cy="76.17" r="4.14" xlink:href="#radial-gradient"/><radialGradient id="radial-gradient-7" cx="92.07" cy="75.83" r="4.79" xlink:href="#radial-gradient"/><radialGradient id="radial-gradient-8" cx="99.84" cy="76.17" r="3.81" xlink:href="#radial-gradient"/><radialGradient id="radial-gradient-9" cx="74.22" cy="76.35" r="5.32" xlink:href="#radial-gradient"/></defs><title>brand-img-27</title><g id="Layer_2" data-name="Layer 2"><g id="Layer_1-2" data-name="Layer 1"><path class="cls-1" d="M.5.5v100h130V.5Z"/><path class="cls-2" d="M66.46,92.88l0,0S66.36,93,66.46,92.88Z"/><path class="cls-2" d="M66.41,92.9l0,0C66.58,92.73,66.47,92.84,66.41,92.9Z"/><path class="cls-3" d="M65.14,16l-.16.09c-1.8,1.22-3.62,2.42-5.46,3.57a53.93,53.93,0,0,1-12.59,6.11c-.58.18-.75.44-.67,1,.2,1.31.38,2.63.52,3.94.24,2.21.5,4.41.84,6.6H65.14Z"/><path class="cls-4" d="M47.62,37.38c.2,1.31.43,2.61.71,3.91,1.16,5.31,3.44,10,7.56,13.63,2.86,2.5,5.94,4.76,8.9,7.14a1.49,1.49,0,0,0,.34.21V37.38Z"/><path class="cls-5" d="M65.14,62.28a.84.84,0,0,0,.91-.19c2.61-2,5.3-4,7.83-6.08a24.63,24.63,0,0,0,8-12.12,47.43,47.43,0,0,0,1.38-6.51H65.14Z"/><path class="cls-6" d="M84.68,26.31c-.12-.11-.29-.37-.52-.43A48.11,48.11,0,0,1,73.24,20.8c-2.44-1.46-4.81-3.06-7.21-4.6a.84.84,0,0,0-.9-.16V37.38H83.29q.17-1.16.31-2.32C84,32.2,84.31,29.36,84.68,26.31Z"/><path class="cls-7" d="M41.66,23.29c.24-.19.46-.48.74-.55a44,44,0,0,0,10.29-4.45c4-2.32,7.89-4.83,11.8-7.29,1-.63,1.11-.66,2.09,0a99,99,0,0,0,18.78,10.6c1.08.44,2.21.76,3.33,1.1.43.13.62.31.56.81-.52,4.3-.95,8.62-1.54,12.92a43.41,43.41,0,0,1-4.23,14.34,29.47,29.47,0,0,1-7.69,9.32c-3.13,2.54-6.38,4.92-9.56,7.39a1.05,1.05,0,0,1-1.42,0A83.19,83.19,0,0,1,52.35,57.37a29.83,29.83,0,0,1-7.46-13.5A80.42,80.42,0,0,1,42.75,31.4c-.25-2.51-.6-5-.9-7.52,0-.14,0-.28-.07-.42ZM86.6,25.08c-.13-.12-.32-.4-.57-.48a52.73,52.73,0,0,1-12-5.57c-2.68-1.61-5.27-3.35-7.9-5A.89.89,0,0,0,65,13.91c-2,1.33-4,2.65-6,3.92a59.11,59.11,0,0,1-13.8,6.69c-.63.2-.83.49-.73,1.12.22,1.44.42,2.88.57,4.32a106.06,106.06,0,0,0,1.7,11.52c1.28,5.82,3.77,11,8.29,14.94,3.13,2.74,6.51,5.21,9.75,7.83a.94.94,0,0,0,1.37,0C69,62.06,72,59.94,74.76,57.62a27,27,0,0,0,8.81-13.28,59.82,59.82,0,0,0,1.86-9.68C85.81,31.53,86.19,28.41,86.6,25.08Z"/><path class="cls-8" d="M75.54,50.48a4.91,4.91,0,0,1-.83-.07,4.37,4.37,0,0,1-2.6-1.53c-1.23-1.32-2.68-3.21-4.42-5.44,1.91-1.77,2.57-3.34,2.57-4.92a3.72,3.72,0,0,0-1.47-2.89,6.53,6.53,0,0,0-3.89-.94c-.66,0-2.28.07-2.51.07s-1.45-.07-2.4-.07c-.23,0-.34,0-.34.17s.08.13.17.13a3.63,3.63,0,0,1,.73.07c.7.14.87.48.91,1.21s0,1.28,0,4.59v1.64a7.83,7.83,0,0,1-4.38-7.06c0-2.17.36-4.06,1.91-5.55.75-.72,2.06-1.55,4.89-1.55a7.07,7.07,0,0,1,4.25,1.21,3,3,0,0,1,.89,2.17c0,.3,0,.45.17.45s.17-.13.19-.45,0-1.49.06-2.19.11-1,.11-1.19,0-.21-.19-.23c-.79-.11-1.44-.17-2.26-.32a18.29,18.29,0,0,0-3.08-.26c-3.28,0-5.21,1-6.48,2.28a8.48,8.48,0,0,0-2.39,5.8,8.15,8.15,0,0,0,2.58,6.3,7.39,7.39,0,0,0,3.72,1.72v1c0,2,0,3.72-.11,4.61-.08.62-.19,1.09-.61,1.18a3.34,3.34,0,0,1-.64.08c-.13,0-.17.07-.17.13s.11.17.34.17c.64,0,2-.07,2-.07s1.44.07,2.61.07c.23,0,.34-.07.34-.17s0-.13-.17-.13a9.52,9.52,0,0,1-1-.08c-.64-.09-.76-.55-.83-1.18-.11-.89-.11-2.57-.11-4.61V44.1c0-.11,0-.17.15-.17L66,44a.34.34,0,0,1,.27.13c.43.55,1.43,2,2.32,3.15,1.21,1.59,2,2.64,2.87,3.13a4.33,4.33,0,0,0,2.28.41h1.51c.38,0,.51,0,.51-.17S75.64,50.48,75.54,50.48Zm-8.36-7.58L67,43a8.45,8.45,0,0,1-2.24.23c-.23,0-.45,0-.66,0a2.71,2.71,0,0,1-.78-.23.28.28,0,0,1-.15-.26v-7a.26.26,0,0,1,.17-.26,6.76,6.76,0,0,1,1.43-.13c2.27,0,3.68,1.59,3.68,4.25A3.87,3.87,0,0,1,67.17,42.91Z"/><path class="cls-9" d="M37,80.34a4.72,4.72,0,0,1-2.75.87,4.63,4.63,0,0,1-3.47-1.5,4.92,4.92,0,0,1-1.41-3.53,5.11,5.11,0,0,1,1.41-3.54,4.63,4.63,0,0,1,3.47-1.5A4.68,4.68,0,0,1,37,72a4.87,4.87,0,0,1,1.79,2.25H37.66a3.85,3.85,0,0,0-2.37-1.92,4.21,4.21,0,0,0-1.19-.15,3.3,3.3,0,0,0-1.38.32,4,4,0,0,0-1.23.87,4.07,4.07,0,0,0,0,5.6,3.78,3.78,0,0,0,4.77.62,4,4,0,0,0,1.42-1.53h1.11A4.83,4.83,0,0,1,37,80.34Z"/><path class="cls-10" d="M45.63,76.36a3,3,0,0,1-1.94.82l3,3.88H45.35l-2.87-3.87H41.31v3.87h-1V71.27h3.14a3.1,3.1,0,0,1,2.2.83,2.94,2.94,0,0,1,0,4.26Zm-2.05-.14a1.84,1.84,0,0,0,1.4-.58,2,2,0,0,0,.56-1.45A2,2,0,0,0,45,72.79a1.88,1.88,0,0,0-1.43-.55H41.31v4Z"/><path class="cls-11" d="M61.58,77.09A4.72,4.72,0,0,1,59.84,80a5,5,0,0,1-3.21,1.15,4.91,4.91,0,0,1-2-.4A5,5,0,0,1,52,78.1a5.07,5.07,0,0,1,0-3.93,5,5,0,0,1,2.69-2.69,4.67,4.67,0,0,1,1.86-.4,5.07,5.07,0,0,1,3.1,1,5,5,0,0,1,1.84,2.62H60.4a4,4,0,0,0-1.49-1.9,3.93,3.93,0,0,0-2.28-.71,4,4,0,0,0,0,8.08A4.08,4.08,0,0,0,59,79.4a4,4,0,0,0,1.52-2h-4v-.88h5.1Z"/><path class="cls-12" d="M67.91,80.06v1H63.41V71.27h1v8.79Z"/><path class="cls-13" d="M87.06,79.48a2.55,2.55,0,0,1-.73.9,3.83,3.83,0,0,1-2.39.68h-3V71.27h2.65q2.15,0,2.79,1.33a2.19,2.19,0,0,1,.23,1,3,3,0,0,1-.08.77,2.31,2.31,0,0,1-.23.54,1.85,1.85,0,0,1-.84.79,2.4,2.4,0,0,1,1.37.93,2.9,2.9,0,0,1,.5,1.74A2.53,2.53,0,0,1,87.06,79.48Zm-3.47-7.24H82v3.05h1.93a1.92,1.92,0,0,0,1.25-.39,1.44,1.44,0,0,0,.48-1.18Q85.61,72.24,83.59,72.24Zm2.57,5.14a1.88,1.88,0,0,0-.43-.57,2,2,0,0,0-1.35-.51H82v3.8h2.28a2.13,2.13,0,0,0,1.5-.53,1.85,1.85,0,0,0,.6-1.43A1.69,1.69,0,0,0,86.16,77.38Z"/><path class="cls-14" d="M95.27,81.06,94.22,78.4h-4.3l-1.06,2.66H87.77l4.31-10.47,4.29,10.47Zm-1.42-3.6L92.07,73l-1.79,4.51Z"/><path class="cls-15" d="M102.1,80.06v1H97.59V71.27h1v8.79Z"/><circle class="cls-16" cx="74.22" cy="76.35" r="5.32"/><path class="cls-17" d="M73.08,76.39a12.9,12.9,0,0,1,.18-2.16A6.29,6.29,0,0,1,73.59,73a2.52,2.52,0,0,1,.26-.5,1.14,1.14,0,0,1,.25-.27.66.66,0,0,1,.43-.14,3.84,3.84,0,0,1,2.37.86,4.45,4.45,0,0,1-.12,7,3.76,3.76,0,0,1-1.8.73l-.44,0a.67.67,0,0,1-.5-.2,1.69,1.69,0,0,1-.35-.52,4.61,4.61,0,0,1-.31-.91,9.85,9.85,0,0,1-.23-1.36C73.1,77.24,73.08,76.79,73.08,76.39Zm2.39,1a10.63,10.63,0,0,0,0-2.11,8.83,8.83,0,0,0-2,0,12.87,12.87,0,0,0,0,2.1A10.8,10.8,0,0,0,75.47,77.41Zm.36-2.08a12.7,12.7,0,0,1,0,2h0l.25,0a7.14,7.14,0,0,0,.92-.21A.09.09,0,0,0,77.1,77c0-.14,0-.28,0-.42a5.44,5.44,0,0,0,0-1,.05.05,0,0,0,0-.05l0,0a7,7,0,0,0-1-.22Zm-2.31,2.46s0,.07,0,.09c0,.21.06.43.1.64s.08.35.12.52a.1.1,0,0,0,.1.09h0a4.21,4.21,0,0,0,1.25,0,.11.11,0,0,0,.1-.09,8.64,8.64,0,0,0,.22-1.15s0-.07,0-.11A9.93,9.93,0,0,1,73.52,77.79Zm0-2.89h.09l.3,0h.75l.69,0h.08a.54.54,0,0,0,0-.06c0-.15,0-.29-.06-.44s-.11-.51-.16-.76a.08.08,0,0,0-.08-.08l-.24,0a4.22,4.22,0,0,0-1,0,.11.11,0,0,0-.11.1,9,9,0,0,0-.19,1C73.54,74.72,73.53,74.81,73.51,74.91ZM75.57,79h.07a4.45,4.45,0,0,0,.94-.36.18.18,0,0,0,.08-.09,4.89,4.89,0,0,0,.34-1s0,0,0-.08l-.61.13-.61.1A10.57,10.57,0,0,1,75.57,79ZM77,75.18a.24.24,0,0,0,0,0v0a4.76,4.76,0,0,0-.34-1,.19.19,0,0,0-.09-.09,4.25,4.25,0,0,0-.92-.35h-.07a.32.32,0,0,0,0,0,9.7,9.7,0,0,1,.2,1.17s0,.05,0,.08A9,9,0,0,1,77,75.18Zm-3.1,4.36a.15.15,0,0,0,0,0,2,2,0,0,0,.27.51.8.8,0,0,0,.13.13.23.23,0,0,0,.32,0A1,1,0,0,0,74.8,80a2,2,0,0,0,.23-.45.15.15,0,0,0,0,0l-.57,0ZM77.47,77h0a1.78,1.78,0,0,0,.49-.3.8.8,0,0,0,.13-.15.25.25,0,0,0,0-.29A.93.93,0,0,0,78,76a1.81,1.81,0,0,0-.47-.28h0c0,.2,0,.4,0,.6S77.48,76.75,77.47,77Zm-3.56-3.79.56,0,.56,0a.07.07,0,0,0,0,0,1.87,1.87,0,0,0-.3-.55.74.74,0,0,0-.16-.13.19.19,0,0,0-.21,0,.58.58,0,0,0-.13.1,1.73,1.73,0,0,0-.33.59ZM78,77.11h0a3,3,0,0,1-.55.27.08.08,0,0,0-.05.07,5.51,5.51,0,0,1-.2.76v0A2.54,2.54,0,0,0,78,77.11Zm-2.85,3a2.47,2.47,0,0,0,1.09-.89h0a4.45,4.45,0,0,1-.73.21s-.05,0-.07.07l-.2.47ZM78,75.61a2.45,2.45,0,0,0-.34-.64,2,2,0,0,0-.5-.5v0a5.54,5.54,0,0,1,.2.77.09.09,0,0,0,.06.07l.3.13Zm-2.84-3a.11.11,0,0,0,0,0,3.5,3.5,0,0,1,.25.58.08.08,0,0,0,.07.06,4.85,4.85,0,0,1,.7.2h0A2.46,2.46,0,0,0,75.19,72.59Zm2.44,5.77,0,0a4,4,0,0,1-.67.51.22.22,0,0,0-.07.08,4.18,4.18,0,0,1-.46.68l0,0A3.55,3.55,0,0,0,77.63,78.36ZM76.4,73h0l0,0a4,4,0,0,1,.46.69.21.21,0,0,0,.08.08,3.8,3.8,0,0,1,.64.49l0,0A3.74,3.74,0,0,0,76.4,73Z"/><path class="cls-17" d="M73.87,72.07l0,0a.84.84,0,0,0-.38.36.23.23,0,0,1-.13.1,2.34,2.34,0,0,0-.93.64l-.2.23a.12.12,0,0,0,0,.06l.06,0a4.66,4.66,0,0,1,.77-.22l.11,0,0,.1c0,.08,0,.16-.06.24a.09.09,0,0,1-.08.08,4.2,4.2,0,0,0-.85.28l-.25.12a.18.18,0,0,0-.09.09,5,5,0,0,0-.34,1v.06l.68-.14a6.78,6.78,0,0,1,.7-.1l0,.38-.16,0a7.36,7.36,0,0,0-1.2.25.11.11,0,0,0-.09.1,5.8,5.8,0,0,0,0,1.36.09.09,0,0,0,.08.09,7.16,7.16,0,0,0,1,.22l.34,0,0,.37a5.71,5.71,0,0,1-.7-.1l-.69-.15a.45.45,0,0,0,0,.06,4.92,4.92,0,0,0,.35,1,.17.17,0,0,0,.08.08,4.1,4.1,0,0,0,1.08.39.11.11,0,0,1,.1.1c0,.08,0,.16.06.24l0,.08a2.89,2.89,0,0,1-.48-.1l-.47-.15v0a2.59,2.59,0,0,0,1.06.86l.12,0a.14.14,0,0,1,.08.06l.15.21a.63.63,0,0,0,.28.19.89.89,0,0,1-.22,0,3.86,3.86,0,0,1-2.21-.92,4.43,4.43,0,0,1-1.53-3.58,4.33,4.33,0,0,1,1.38-3,3.86,3.86,0,0,1,2.15-1l.33,0ZM71,75.77h0a1.79,1.79,0,0,0-.49.29.81.81,0,0,0-.13.15.25.25,0,0,0,0,.3.86.86,0,0,0,.13.16,1.81,1.81,0,0,0,.48.29h0c0-.14,0-.27,0-.4s0-.27,0-.4S71,75.9,71,75.77Zm.26,2.5h0v0a5.28,5.28,0,0,1-.19-.74.1.1,0,0,0-.07-.09,2.82,2.82,0,0,1-.52-.25l0,0A2.73,2.73,0,0,0,71.24,78.26Zm0-3.8a2.5,2.5,0,0,0-.82,1.15h0a3.1,3.1,0,0,1,.55-.27.08.08,0,0,0,.05-.07c0-.08,0-.17.05-.25Zm-.42,3.92h0a3.82,3.82,0,0,0,1.25,1.32v0l0,0a4,4,0,0,1-.45-.67.28.28,0,0,0-.09-.1l-.43-.3Zm0-4,0,0a3.76,3.76,0,0,1,.62-.48.25.25,0,0,0,.09-.1,4,4,0,0,1,.43-.64l0,0h0A3.68,3.68,0,0,0,70.82,74.34Z"/><path class="cls-18" d="M33.91,88.62l-.55-1.4H31.1l-.55,1.4H30l2.26-5.49,2.25,5.49Zm-.75-1.89-.93-2.37-.94,2.37Z"/><path class="cls-18" d="M43.18,87.08a2.52,2.52,0,0,1-.56.81,2.58,2.58,0,0,1-.84.53,2.77,2.77,0,0,1-1,.19H39.4V83.48h1.35a2.78,2.78,0,0,1,1,.19,2.57,2.57,0,0,1,.84.53,2.51,2.51,0,0,1,.56.81,2.67,2.67,0,0,1,0,2.06Zm-.93-2.5a2.09,2.09,0,0,0-1.5-.57h-.83v4.08h.83a2.09,2.09,0,0,0,1.5-.57,2,2,0,0,0,0-2.93Z"/><path class="cls-18" d="M47.69,83.48h.57L50,87.62l1.75-4.14h.57L50,88.93Z"/><path class="cls-18" d="M67.36,88.24a2.48,2.48,0,0,1-1.44.46,2.43,2.43,0,0,1-1.82-.79,2.58,2.58,0,0,1-.74-1.85,2.68,2.68,0,0,1,.74-1.86,2.43,2.43,0,0,1,1.82-.79,2.46,2.46,0,0,1,1.44.45A2.56,2.56,0,0,1,68.29,85h-.58a2,2,0,0,0-1.24-1,2.21,2.21,0,0,0-.62-.08,1.73,1.73,0,0,0-.73.17,2.1,2.1,0,0,0-.65.46,2.14,2.14,0,0,0,0,2.94,2,2,0,0,0,2.5.32,2.09,2.09,0,0,0,.74-.8h.58A2.53,2.53,0,0,1,67.36,88.24Z"/><path class="cls-18" d="M76.49,88.62l-.55-1.4H73.68l-.55,1.4h-.57l2.26-5.49,2.25,5.49Zm-.75-1.89-.93-2.37-.94,2.37Z"/><path class="cls-18" d="M80.87,83.47h3V84H82.64v4.65h-.53V84H80.87Z"/><path class="cls-18" d="M88.88,88.62V83.48h3.05V84H89.41V85.8h2.45v.5H89.41v1.83h2.52v.49Z"/><path class="cls-18" d="M97.2,84.85a1.24,1.24,0,0,1,.51-1.08,2,2,0,0,1,1.19-.36q1.5,0,1.78,1.12h-.57q-.15-.67-1.21-.67a1.16,1.16,0,0,0-1,.44.71.71,0,0,0-.11.42.8.8,0,0,0,.51.73,5.7,5.7,0,0,0,1,.33,3.64,3.64,0,0,1,1.14.45,1.13,1.13,0,0,1,.49,1,1.31,1.31,0,0,1-.61,1.17,2.27,2.27,0,0,1-1.27.34q-1.71,0-2-1.3h.63q.15.82,1.35.82a1.38,1.38,0,0,0,1.2-.48.86.86,0,0,0,.13-.51.64.64,0,0,0-.25-.52,3.64,3.64,0,0,0-1.35-.53Q97.2,85.83,97.2,84.85Z"/><path class="cls-18" d="M57.09,86.15a9.4,9.4,0,0,1,.13-1.57,4.59,4.59,0,0,1,.25-.92,1.83,1.83,0,0,1,.19-.36.83.83,0,0,1,.18-.2.48.48,0,0,1,.31-.1,2.8,2.8,0,0,1,1.73.63,3.24,3.24,0,0,1-.09,5.08,2.74,2.74,0,0,1-1.31.53l-.32,0a.49.49,0,0,1-.37-.14,1.23,1.23,0,0,1-.26-.38,3.36,3.36,0,0,1-.23-.66,7.18,7.18,0,0,1-.16-1C57.11,86.77,57.1,86.45,57.09,86.15Zm1.74.75a7.75,7.75,0,0,0,0-1.54,6.44,6.44,0,0,0-1.45,0,9.38,9.38,0,0,0,0,1.53A7.86,7.86,0,0,0,58.83,86.9Zm.26-1.51a9.25,9.25,0,0,1,0,1.47h0l.18,0a5.2,5.2,0,0,0,.67-.15.06.06,0,0,0,.06-.07c0-.1,0-.2,0-.31a4,4,0,0,0,0-.71,0,0,0,0,0,0,0h0a5.07,5.07,0,0,0-.74-.16Zm-1.68,1.79s0,0,0,.07,0,.31.07.47.06.25.08.38a.07.07,0,0,0,.08.07h0a3.07,3.07,0,0,0,.91,0,.08.08,0,0,0,.08-.07,6.29,6.29,0,0,0,.16-.84s0,0,0-.08A7.23,7.23,0,0,1,57.41,87.17Zm0-2.1h.84l.5,0h.06a.39.39,0,0,0,0,0c0-.11,0-.21,0-.32s-.08-.37-.12-.55a.06.06,0,0,0-.06-.06l-.18,0a3.07,3.07,0,0,0-.75,0,.08.08,0,0,0-.08.07,6.54,6.54,0,0,0-.14.7Zm1.5,3h0a3.24,3.24,0,0,0,.69-.26.13.13,0,0,0,.06-.07A3.56,3.56,0,0,0,60,87V87l-.44.1-.45.07A7.7,7.7,0,0,1,58.91,88.09Zm1-2.82a.17.17,0,0,0,0,0v0a3.47,3.47,0,0,0-.25-.71.14.14,0,0,0-.07-.07,3.1,3.1,0,0,0-.67-.26h0v0a7.07,7.07,0,0,1,.15.85v.06A6.56,6.56,0,0,1,60,85.27ZM57.7,88.44v0a1.45,1.45,0,0,0,.2.37l.09.1a.16.16,0,0,0,.23,0,.75.75,0,0,0,.12-.13,1.46,1.46,0,0,0,.17-.33.11.11,0,0,0,0,0l-.41,0Zm2.6-1.88h0a1.3,1.3,0,0,0,.36-.22l.09-.11a.18.18,0,0,0,0-.21.68.68,0,0,0-.11-.12,1.32,1.32,0,0,0-.34-.2h0c0,.15,0,.29,0,.44S60.3,86.41,60.3,86.56ZM57.7,83.8l.41,0,.41,0a0,0,0,0,0,0,0,1.36,1.36,0,0,0-.22-.4.54.54,0,0,0-.11-.1.14.14,0,0,0-.15,0l-.09.07a1.26,1.26,0,0,0-.24.43Zm3,2.87h0a2.17,2.17,0,0,1-.4.19.06.06,0,0,0,0,.05,4,4,0,0,1-.14.56v0A1.85,1.85,0,0,0,60.69,86.67Zm-2.08,2.2a1.8,1.8,0,0,0,.8-.65h0a3.25,3.25,0,0,1-.53.15s0,0,0,.05l-.14.34Zm2.09-3.29a1.78,1.78,0,0,0-.25-.47,1.46,1.46,0,0,0-.36-.37v0a4,4,0,0,1,.14.56.06.06,0,0,0,0,.05l.22.09Zm-2.07-2.2v0a2.55,2.55,0,0,1,.18.42.06.06,0,0,0,.05,0,3.54,3.54,0,0,1,.51.15h0A1.79,1.79,0,0,0,58.63,83.38Zm1.78,4.21,0,0a2.91,2.91,0,0,1-.49.37.16.16,0,0,0-.05.06,3,3,0,0,1-.34.49l0,0A2.59,2.59,0,0,0,60.41,87.59Zm-.9-3.9h0v0a2.9,2.9,0,0,1,.34.5.15.15,0,0,0,.06.06,2.77,2.77,0,0,1,.47.35l0,0A2.72,2.72,0,0,0,59.51,83.69Z"/><path class="cls-18" d="M57.67,83v0a.61.61,0,0,0-.28.26.16.16,0,0,1-.09.07,1.7,1.7,0,0,0-.68.46l-.14.17a.09.09,0,0,0,0,0l0,0a3.4,3.4,0,0,1,.56-.16h.08l0,.07,0,.18a.07.07,0,0,1-.06.06,3.06,3.06,0,0,0-.62.2l-.18.09a.13.13,0,0,0-.07.07,3.61,3.61,0,0,0-.25.72v0h0l.5-.1.51-.07,0,.27-.11,0a5.36,5.36,0,0,0-.88.18.08.08,0,0,0-.07.08,4.22,4.22,0,0,0,0,1,.07.07,0,0,0,.06.07,5.22,5.22,0,0,0,.75.16l.25,0,0,.27a4.16,4.16,0,0,1-.51-.07l-.5-.11a.33.33,0,0,0,0,0,3.59,3.59,0,0,0,.25.73.13.13,0,0,0,.06.06,3,3,0,0,0,.79.29.08.08,0,0,1,.08.07c0,.06,0,.11,0,.17v.06a2.1,2.1,0,0,1-.35-.08l-.34-.11v0a1.89,1.89,0,0,0,.77.62l.09,0a.1.1,0,0,1,.06,0l.11.15a.46.46,0,0,0,.2.14h-.16a2.81,2.81,0,0,1-1.61-.67A3.23,3.23,0,0,1,54.8,86a3.16,3.16,0,0,1,1-2.2A2.81,2.81,0,0,1,57.37,83l.24,0ZM55.56,85.7h0a1.3,1.3,0,0,0-.35.21l-.09.11a.18.18,0,0,0,0,.22l.1.11a1.32,1.32,0,0,0,.35.21h0c0-.1,0-.2,0-.29s0-.19,0-.29S55.55,85.8,55.56,85.7Zm.19,1.82h0v0a3.84,3.84,0,0,1-.14-.54.07.07,0,0,0-.05-.06,2.05,2.05,0,0,1-.38-.18h0A2,2,0,0,0,55.75,87.52Zm0-2.77a1.82,1.82,0,0,0-.6.84h0a2.26,2.26,0,0,1,.4-.2.06.06,0,0,0,0-.05c0-.06,0-.12,0-.18Zm-.31,2.86h0a2.78,2.78,0,0,0,.91,1h0l0,0A2.88,2.88,0,0,1,56,88a.21.21,0,0,0-.07-.07l-.31-.22Zm0-2.95,0,0a2.74,2.74,0,0,1,.45-.35.18.18,0,0,0,.07-.07,2.88,2.88,0,0,1,.31-.47l0,0h0A2.68,2.68,0,0,0,55.45,84.66Z"/></g></g></svg>