<svg xmlns="http://www.w3.org/2000/svg" viewBox="0 0 131 101"><defs><style>.cls-1{fill:#d1d3d4;}.cls-2{fill:none;stroke:#a7a9ac;stroke-miterlimit:10;opacity:0.66;}</style></defs><title>brand-img-14</title><g id="Layer_2" data-name="Layer 2"><g id="Layer_1-2" data-name="Layer 1"><path class="cls-1" d="M44.44,49.83a11.05,11.05,0,0,0-2.05-6,16.9,16.9,0,0,0-7.93-6,20.51,20.51,0,0,0-7.33-1.27c-.86.06-1.73.09-2.59.17a18.53,18.53,0,0,0-5,1.19,18.15,18.15,0,0,0-5.62,3.55,12.68,12.68,0,0,0-3.28,4.58,11.92,11.92,0,0,0-.69,6.27,10.69,10.69,0,0,0,1.86,4.73,17,17,0,0,0,7.32,5.78,19.93,19.93,0,0,0,7.42,1.56A21.26,21.26,0,0,0,31.3,64a18.12,18.12,0,0,0,8.92-4.47,12.8,12.8,0,0,0,3.44-4.77A11.79,11.79,0,0,0,44.44,49.83Zm-3.19,3.63a11.19,11.19,0,0,1-4,3.61,6.42,6.42,0,0,1-1,.54c-.07,0-.08,0-.07-.07a9.53,9.53,0,0,0,2.56-3.09,6,6,0,0,0,.22-5.08,10.4,10.4,0,0,0-1.44-2.88,6.07,6.07,0,0,0-4.69-2.41,7.49,7.49,0,0,0-4.33,1.35c-.17.11-.17.25-.17.41q0,4.16,0,8.32a2.78,2.78,0,0,0,0,.51,1,1,0,0,1-.47,1.06c-.58.48-1.12,1-1.69,1.48-.08.07-.17.12-.3.21V57q0-5.21,0-10.42a.5.5,0,0,0-.17-.45,10,10,0,0,0-3.33-1.95,7.76,7.76,0,0,0-6.6.78,3.56,3.56,0,0,0-1.48,2.11,7.79,7.79,0,0,0,.44,5.2A7.27,7.27,0,0,0,16.57,55c.11.1.17.16,0,.28L14.68,57a.23.23,0,0,1-.38,0,8.74,8.74,0,0,1-2.7-5.16,7.07,7.07,0,0,1,.62-4A9.16,9.16,0,0,1,15.5,44.1a12.07,12.07,0,0,1,2.92-1.21,13,13,0,0,1,4.72-.54,9.41,9.41,0,0,1,5,1.89.38.38,0,0,0,.4.06A40.58,40.58,0,0,1,33,42.91a8.46,8.46,0,0,1,4.83.09A5.43,5.43,0,0,1,41,45.76,10.84,10.84,0,0,1,42.16,49,6.25,6.25,0,0,1,41.25,53.46Z"/><path class="cls-1" d="M102.16,47.64c0,.06,0,.12,0,.18,0,2,0,4.05,0,6.08a1.27,1.27,0,0,0,.92,1.32,7.09,7.09,0,0,0,.91.17s0,.06,0,.08l-2.09,2a1.39,1.39,0,0,1-.35.22c-.55.26-1,0-1-.59s-.05-1.33-.06-2c0-2.88,0-5.77,0-8.65A1.83,1.83,0,0,0,100,45c-.24-.24-.16-.4,0-.64.53-.64,1-1.31,1.54-2l.29-.4c.23.37.46.7.66,1.05a14.59,14.59,0,0,0,5.55,5.36c3,1.72,5.94,3.4,8.92,5.1l.25.12v-.37q0-3.59,0-7.17a3.31,3.31,0,0,0-.07-.7.74.74,0,0,0-1.13-.58l-.36.17a1.86,1.86,0,0,1,.12-.41,6.84,6.84,0,0,1,2.08-2.15,1.29,1.29,0,0,1,.42-.14.44.44,0,0,1,.57.33,2,2,0,0,1,.07.57q0,5.5,0,11a.68.68,0,0,1-.06.34c-.67,1.08-1.36,2.15-2,3.23l-.16.06a4,4,0,0,0-.34-.46,22.32,22.32,0,0,0-5.42-4.29c-.73-.39-1.52-.69-2.26-1.07a34.06,34.06,0,0,1-6-4l-.41-.31Z"/><path class="cls-1" d="M67.5,53.53c.76-.24,1.51-.46,2.24-.72a7.07,7.07,0,0,0,2.4-1.45,3.26,3.26,0,0,0,1-3.14A4.76,4.76,0,0,0,72,45.41a4.35,4.35,0,0,0-4.18-1.3,1.76,1.76,0,0,0-.71.35,1.09,1.09,0,0,0-.29.92q0,7,0,14a.68.68,0,0,1-.37.67c-.64.39-1.26.8-1.9,1.21l-.32.17c0-.19,0-.32,0-.45q0-7.06,0-14.12a5.12,5.12,0,0,0,0-.54,1.24,1.24,0,0,0-1.6-1l-.22.05a1.23,1.23,0,0,1,.14-.17,13.94,13.94,0,0,1,2.79-1.81,2.82,2.82,0,0,1,.79-.23c.43,0,.58.09.66.52,0,.09,0,.18.07.26.79-.31,1.56-.67,2.37-.93A6.19,6.19,0,0,1,73,42.83a4.1,4.1,0,0,1,2.76,3.71,5.73,5.73,0,0,1-3,5.38c-.4.25-.82.45-1.24.67,0,0,0,.05,0,.06a22.5,22.5,0,0,0,5.74,2.83A5.39,5.39,0,0,0,81.7,55s.07,0,.15,0l-1,.77a6.44,6.44,0,0,1-4.6,1.36,10.2,10.2,0,0,1-3.53-1c-1.74-.82-3.46-1.7-5.18-2.55Z"/><path class="cls-1" d="M61.77,48.48a8.5,8.5,0,0,1-3.67,7.07,11,11,0,0,1-5.4,2,5.93,5.93,0,0,1-6.55-4.18,7.73,7.73,0,0,1,2.52-8.6,10.12,10.12,0,0,1,4.67-2.3,7.94,7.94,0,0,1,5.18.49,5.37,5.37,0,0,1,3.09,4C61.68,47.54,61.72,48.08,61.77,48.48ZM48.4,50a4.67,4.67,0,0,0,.51,2.19,7,7,0,0,0,6.51,3.77A4,4,0,0,0,57.86,55a4.85,4.85,0,0,0,1.51-3.72,7.78,7.78,0,0,0-.81-3.47A7.07,7.07,0,0,0,56.46,45a6.89,6.89,0,0,0-3.39-1.16,3.74,3.74,0,0,0-3.9,2.07A8.85,8.85,0,0,0,48.4,50Z"/><path class="cls-1" d="M100,55.52a3.22,3.22,0,0,1-3.25,1.62,4.11,4.11,0,0,1-2.51-1.43c-.46-.51-.93-1-1.38-1.53a.59.59,0,0,0-.59-.25,31.74,31.74,0,0,0-5.39,1A17,17,0,0,0,82,57.05c-.28.19-.59.34-.88.51l-.07-.07a1.69,1.69,0,0,1,.13-.29c.49-.73,1-1.44,1.49-2.17a17.87,17.87,0,0,0,2.67-5.7,13.36,13.36,0,0,0,.28-1.87,14.43,14.43,0,0,0-.12-3.23.55.55,0,0,1,.12-.42c.57-.51,1.16-1,1.79-1.54l.74,1.22a67.58,67.58,0,0,0,4.9,7.27,18.18,18.18,0,0,0,3.66,3.76,13.39,13.39,0,0,0,1.79,1A1.61,1.61,0,0,0,100,55.52Zm-8.38-2.68-3.39-4.48c-.78,2.52-2.37,4.46-3.79,6.52A44.48,44.48,0,0,1,91.61,52.83Z"/><path class="cls-1" d="M122.52,58.17v-.51c0-3.42,0-6.84,0-10.26a1.48,1.48,0,0,0-1.58-1.7,1.94,1.94,0,0,1-.28-.07,12.42,12.42,0,0,1,.9-1.08c.63-.61,1.28-1.19,2-1.75a2,2,0,0,1,.75-.33A.56.56,0,0,1,125,43a4.69,4.69,0,0,1,.05.7q0,6,0,11.93a.75.75,0,0,1-.31.65c-.67.54-1.31,1.1-2,1.65Z"/><rect class="cls-2" x="0.5" y="0.5" width="130" height="100"/></g></g></svg>