<svg xmlns="http://www.w3.org/2000/svg" viewBox="0 0 131 101"><defs><style>.cls-1,.cls-5{fill:none;}.cls-1{stroke:#a7a9ac;opacity:0.66;}.cls-1,.cls-3,.cls-5{stroke-miterlimit:10;}.cls-2{fill:#a7a9ac;}.cls-3{fill:#808285;stroke:#fff;}.cls-4{fill:#fff;}.cls-5{stroke:#d1d3d4;stroke-width:2px;}.cls-6{fill:#d1d3d4;}.cls-7{fill:#939598;}</style></defs><title>brand-img-03</title><g id="Layer_2" data-name="Layer 2"><g id="Layer_1-2" data-name="Layer 1"><rect class="cls-1" x="0.5" y="0.5" width="130" height="100"/><path class="cls-2" d="M43.45,56.9a15.73,15.73,0,0,1-6.16-13.68,6.49,6.49,0,0,1,3-4.65,76.51,76.51,0,0,1,6.57-4.16c.67-.4,1.06-.67.94-1.59-.25-1.82.89-2.92,2.37-3.71a33.76,33.76,0,0,1,9.53-3.4c8.72-1.7,17.05-.7,24.73,3.93a70.56,70.56,0,0,1,6.35,4.83l-.2.43-2.25-.12c4.44,4.3,6.21,9.27,4.92,15.31l-.42-.23-.25-.15c-.3,2.72-.68,5.38-2.58,7.74L89.32,55C86,60.5,80.43,61.71,75.26,63.64L75,63.42l1.85-3.19c-5.63,2.9-11.21,4.6-17.52,3.61l.64-.57.68-.53c-3.16,0-6-.22-8.88-1.64a25.18,25.18,0,0,0,2.68-.92,22.09,22.09,0,0,0,3.17-1.79,2.47,2.47,0,0,0,1.12-2.77,2.54,2.54,0,0,0-2.29-2.09C54.22,53.3,52,53.1,49.76,53a28,28,0,0,0-4,.21c-1.75.18-2,.42-2.16,2.18C43.54,55.8,43.51,56.22,43.45,56.9ZM68,50.42a8.33,8.33,0,0,1-3.15,6c-1.7,1.42-3.53,2.69-5.19,3.94A19.74,19.74,0,0,0,72.56,53.1c-.3,3.72-2.75,5.84-5.45,7.82,1.68-.46,3.32-1,4.93-1.55,3.73-1.39,7.25-3.13,9.64-6.52A6.54,6.54,0,0,0,83,47.55a17.15,17.15,0,0,0-2.88-6c-.15-.22-.27-.45-.4-.68l.28-.16c2.4,2.32,4.23,5,4.62,8.44s-1.28,6.33-2.92,9.2c3.71-1.79,6.24-4.43,6.43-8.83l.36-.12,1.73,2A10.28,10.28,0,0,0,87,42.15c-.94-.89-1.92-1.76-2.86-2.64a4.26,4.26,0,0,1-.44-.57c2.52.43,4.36,2,6.27,3.41-1.79-4.58-5.66-7.12-9.55-9.64l.2-.33,3.12.23c-.38-.3-.46-.38-.56-.44-.44-.27-.87-.54-1.32-.79a29.41,29.41,0,0,0-11.4-3.6,30.32,30.32,0,0,0-19.19,4c-1.11.67-1.26,1.19-.3,2.1A31.76,31.76,0,0,0,54,36.26a1.74,1.74,0,0,0,2.19,0c1.27-.87,2.53-1.74,3.82-2.57a10.09,10.09,0,0,1,6.2-1.52c.31,0,.87.56.83.75a12.29,12.29,0,0,1-.81,2.31c-1.19,2.79-3.36,4.14-6.58,4.18,2.48,1.66,4.82,3.13,6,5.77,1.31,2.83.65,5.33-1.37,7.63l.29.19ZM42.27,53.34c1-4.51,4-6.2,8-6.77a48.37,48.37,0,0,1,12.6,0,7.22,7.22,0,0,0,.86,0l.23-.31a10.54,10.54,0,0,0-1.83-2c-2.74-1.77-5.58-3.38-8.33-5.11-1.42-.9-2.74-2-4.14-2.9a1.31,1.31,0,0,0-1.08-.2c-2.49,1.41-5,2.77-7.39,4.37a4.58,4.58,0,0,0-2.15,4.78c.11.62.13,1.25.25,1.87A13.28,13.28,0,0,0,42.27,53.34Zm21.25-4.77c-1.87-.2-3.74-.45-5.62-.6a26.31,26.31,0,0,0-9.48.88,6.47,6.47,0,0,0-3.67,2.65c2.68-.18,5.22-.5,7.76-.47a28.58,28.58,0,0,1,6.4.79C61.43,52.44,63.22,51.38,63.52,48.57ZM61.76,38.08a4,4,0,0,0,3.54-3.4c-1-.51-1.23-.45-1.62.25C63.06,36,62.37,37.1,61.76,38.08Z"/><path class="cls-3" d="M68,50.42,64.66,53l-.29-.19c2-2.3,2.67-4.79,1.37-7.63-1.22-2.64-3.56-4.11-6-5.77,3.22,0,5.39-1.39,6.58-4.18a12.29,12.29,0,0,0,.81-2.31c0-.2-.52-.73-.83-.75a10.09,10.09,0,0,0-6.2,1.52c-1.29.83-2.56,1.7-3.82,2.57a1.74,1.74,0,0,1-2.19,0A31.76,31.76,0,0,1,51,33.87c-1-.91-.81-1.43.3-2.1a30.32,30.32,0,0,1,19.19-4,29.41,29.41,0,0,1,11.4,3.6c.45.25.88.52,1.32.79.1.06.19.14.56.44l-3.12-.23-.2.33c3.9,2.52,7.76,5.06,9.55,9.64-1.92-1.43-3.76-3-6.27-3.41a4.26,4.26,0,0,0,.44.57c.95.89,1.92,1.75,2.86,2.64a10.28,10.28,0,0,1,3.26,9.21l-1.73-2-.36.12c-.19,4.4-2.72,7-6.43,8.83,1.64-2.87,3.32-5.69,2.92-9.2S82.44,43,80,40.69l-.28.16c.13.23.26.46.4.68a17.15,17.15,0,0,1,2.88,6,6.54,6.54,0,0,1-1.37,5.31C79.29,56.24,75.77,58,72,59.37c-1.6.6-3.24,1.09-4.93,1.55,2.7-2,5.15-4.11,5.45-7.82a19.74,19.74,0,0,1-12.89,7.21c1.66-1.25,3.49-2.52,5.19-3.94A8.33,8.33,0,0,0,68,50.42ZM53.54,35.59c.23-.06.38-.06.44-.12,2.4-2.38,5.45-3.33,8.66-3.92A8.79,8.79,0,0,0,64,31C61.35,30.09,54.16,32.71,53.54,35.59Z"/><path class="cls-4" d="M61.76,38.08c.6-1,1.3-2,1.92-3.15.39-.69.59-.76,1.62-.25A4,4,0,0,1,61.76,38.08Z"/><path d="M53.54,35.59c.61-2.88,7.81-5.5,10.49-4.58a8.79,8.79,0,0,1-1.39.54c-3.21.59-6.26,1.53-8.66,3.92C53.92,35.54,53.78,35.53,53.54,35.59Z"/><path d="M51.18,40.56c.81.08.46-1.68,1.67-.92a.82.82,0,0,1,.12.68,16.4,16.4,0,0,1-1.58.75Z"/><circle class="cls-5" cx="65.47" cy="44.56" r="29.11"/><rect class="cls-6" x="34.77" y="76" width="61.4" height="0.5"/><path class="cls-7" d="M35,79.71h3.13a2.34,2.34,0,0,1,0,.47,2.42,2.42,0,0,1,0,.48h-2v1.2h1.6a2.53,2.53,0,0,1,0,.48,2.49,2.49,0,0,1,0,.48h-1.6v1.46h2.06a2.34,2.34,0,0,1,0,.47,2.42,2.42,0,0,1,0,.48H35Z"/><path class="cls-7" d="M39.09,79.71l.28,0h.55l.28,0v2.86c0,.31,0,.58,0,.8a1.71,1.71,0,0,0,.14.55.7.7,0,0,0,.29.32,1,1,0,0,0,.49.1,1,1,0,0,0,.48-.1.7.7,0,0,0,.29-.32,1.71,1.71,0,0,0,.14-.55c0-.22,0-.49,0-.8V79.71l.29,0h.55l.29,0v3.1a5.27,5.27,0,0,1-.09,1,2,2,0,0,1-.33.79,1.56,1.56,0,0,1-.64.51,2.95,2.95,0,0,1-2,0,1.56,1.56,0,0,1-.64-.51,2,2,0,0,1-.33-.79,5.27,5.27,0,0,1-.09-1Z"/><path class="cls-7" d="M44.27,79.71a2.34,2.34,0,0,1,.45,0,2.54,2.54,0,0,1,.48,0l2.13,3.51V79.71a3.16,3.16,0,0,1,.53,0,2.23,2.23,0,0,1,.46,0v5.52a2.46,2.46,0,0,1-.44,0,2.67,2.67,0,0,1-.47,0l-2.15-3.51v3.51a2.74,2.74,0,0,1-.5,0,2.61,2.61,0,0,1-.49,0Z"/><path class="cls-7" d="M49.39,79.71a3.44,3.44,0,0,1,.56,0,3.58,3.58,0,0,1,.57,0v5.52a3.64,3.64,0,0,1-.56,0,3.6,3.6,0,0,1-.57,0Z"/><path class="cls-7" d="M53.85,85.32a2.48,2.48,0,0,1-1.08-.21,2,2,0,0,1-.74-.59,2.58,2.58,0,0,1-.43-.9,4.27,4.27,0,0,1-.14-1.13,4.36,4.36,0,0,1,.14-1.14,2.61,2.61,0,0,1,.43-.91,2,2,0,0,1,.74-.6,2.8,2.8,0,0,1,2.15,0,2,2,0,0,1,.74.6,2.61,2.61,0,0,1,.43.91,4.36,4.36,0,0,1,.14,1.14,4.27,4.27,0,0,1-.14,1.13,2.58,2.58,0,0,1-.43.9,2,2,0,0,1-.74.59A2.48,2.48,0,0,1,53.85,85.32Zm0-.94q1.19,0,1.19-1.9a2.81,2.81,0,0,0-.29-1.43,1,1,0,0,0-.89-.48q-1.21,0-1.21,1.9T53.85,84.38Zm2.53,1.27c0,.15,0,.3-.05.46a2,2,0,0,1-.12.44l-1.9-.31,0-.27a1.92,1.92,0,0,1,0-.21l.05-.19.07-.21Z"/><path class="cls-7" d="M57.14,79.71l.28,0H58l.28,0v2.86c0,.31,0,.58,0,.8a1.71,1.71,0,0,0,.14.55.7.7,0,0,0,.29.32,1,1,0,0,0,.49.1,1,1,0,0,0,.48-.1.7.7,0,0,0,.29-.32,1.71,1.71,0,0,0,.14-.55c0-.22,0-.49,0-.8V79.71l.29,0H61l.29,0v3.1a5.27,5.27,0,0,1-.09,1,2,2,0,0,1-.33.79,1.56,1.56,0,0,1-.64.51,2.95,2.95,0,0,1-2,0,1.56,1.56,0,0,1-.64-.51,2,2,0,0,1-.33-.79,5.27,5.27,0,0,1-.09-1Z"/><path class="cls-7" d="M62.32,79.71h3.13a2.34,2.34,0,0,1,0,.47,2.42,2.42,0,0,1,0,.48h-2v1.2H65a2.53,2.53,0,0,1,0,.48,2.49,2.49,0,0,1,0,.48h-1.6v1.46H65.5a2.34,2.34,0,0,1,0,.47,2.42,2.42,0,0,1,0,.48H62.32Z"/><path class="cls-7" d="M71.73,84.18a3.16,3.16,0,0,1,.17.44,3.25,3.25,0,0,1,.1.46,3.63,3.63,0,0,1-.72.19,4.72,4.72,0,0,1-.69,0,2.88,2.88,0,0,1-1.14-.21,2.28,2.28,0,0,1-.83-.59,2.52,2.52,0,0,1-.5-.9,3.65,3.65,0,0,1-.17-1.14,3.57,3.57,0,0,1,.18-1.14,2.67,2.67,0,0,1,.51-.91,2.31,2.31,0,0,1,.82-.6,2.73,2.73,0,0,1,1.11-.21,4.71,4.71,0,0,1,.68,0,3,3,0,0,1,.67.19,1.7,1.7,0,0,1-.09.45q-.08.22-.17.44a3.34,3.34,0,0,0-.48-.13,2.75,2.75,0,0,0-.49,0,1.38,1.38,0,0,0-1.13.48,2.19,2.19,0,0,0-.4,1.42q0,1.87,1.59,1.87a2.89,2.89,0,0,0,.5,0A3.28,3.28,0,0,0,71.73,84.18Z"/><path class="cls-7" d="M74.11,79.71l.31,0H75l.32,0,1.73,5.52a4.31,4.31,0,0,1-.61,0,3.51,3.51,0,0,1-.57,0l-.31-1.11H73.77l-.31,1.11a3.28,3.28,0,0,1-.53,0,3.43,3.43,0,0,1-.56,0Zm1.23,3.48-.64-2.32L74,83.19Z"/><path class="cls-7" d="M77.71,79.69l.71,0,.73,0a4.11,4.11,0,0,1,.78.08,1.94,1.94,0,0,1,.71.29,1.58,1.58,0,0,1,.52.59,2.08,2.08,0,0,1,.2,1,2.06,2.06,0,0,1-.2,1,1.62,1.62,0,0,1-.51.59,1.89,1.89,0,0,1-.7.29,4,4,0,0,1-.76.08h-.35v1.77l-.28,0H78l-.3,0Zm1.12,2.84h.37a1.4,1.4,0,0,0,.38,0,.87.87,0,0,0,.33-.17.81.81,0,0,0,.23-.3,1.14,1.14,0,0,0,.08-.46,1.23,1.23,0,0,0-.08-.48.84.84,0,0,0-.23-.31.85.85,0,0,0-.33-.17,1.44,1.44,0,0,0-.38,0H79l-.21,0Z"/><path class="cls-7" d="M82.18,79.71a3.44,3.44,0,0,1,.56,0,3.58,3.58,0,0,1,.57,0v5.52a3.64,3.64,0,0,1-.56,0,3.6,3.6,0,0,1-.57,0Z"/><path class="cls-7" d="M85.46,80.66H84.08a2.42,2.42,0,0,1,0-.48,2.34,2.34,0,0,1,0-.47H88a2.34,2.34,0,0,1,0,.47,2.42,2.42,0,0,1,0,.48H86.58v4.57l-.28,0h-.55l-.3,0Z"/><path class="cls-7" d="M89.48,79.71l.31,0h.62l.32,0,1.73,5.52a4.31,4.31,0,0,1-.61,0,3.51,3.51,0,0,1-.57,0L91,84.12H89.14l-.31,1.11a3.28,3.28,0,0,1-.53,0,3.43,3.43,0,0,1-.56,0Zm1.23,3.48-.64-2.32-.67,2.32Z"/><path class="cls-7" d="M93.08,79.71a3.35,3.35,0,0,1,.54,0,3.54,3.54,0,0,1,.56,0v4.55h1.91a2.4,2.4,0,0,1,0,.25c0,.08,0,.16,0,.23s0,.16,0,.24a2.4,2.4,0,0,1,0,.25h-3Z"/></g></g></svg>