<svg xmlns="http://www.w3.org/2000/svg" viewBox="0 0 131 101"><defs><style>.cls-1{fill:none;stroke:#a7a9ac;stroke-miterlimit:10;opacity:0.66;}.cls-2{fill:#bcbec0;}.cls-3{fill:#939598;}</style></defs><title>brand-img-06</title><g id="Layer_2" data-name="Layer 2"><g id="Layer_1-2" data-name="Layer 1"><rect class="cls-1" x="0.5" y="0.5" width="130" height="100"/><path class="cls-2" d="M87.17,61.13a.73.73,0,0,0-.23-.05q-.35,0-.45.56H87l0,.26h-.49l-.33,2a.73.73,0,0,1-.25.45,1,1,0,0,1-.5.21l0-.23a.47.47,0,0,0,.24-.16.56.56,0,0,0,.15-.27l.35-2h-.29l0-.26h.29q.17-.86.86-.86a.6.6,0,0,1,.28.06Z"/><path class="cls-2" d="M87.16,63a1.47,1.47,0,0,1,.33-1,1,1,0,0,1,.83-.4.78.78,0,0,1,.58.21.8.8,0,0,1,.2.58A1.79,1.79,0,0,1,89,63a1.2,1.2,0,0,1-.39.54,1,1,0,0,1-.65.21.76.76,0,0,1-.58-.21A.83.83,0,0,1,87.16,63Zm.39,0c0,.35.15.53.44.53a.59.59,0,0,0,.52-.32,1.39,1.39,0,0,0,.19-.74q0-.5-.44-.5a.56.56,0,0,0-.39.16.91.91,0,0,0-.25.41A1.6,1.6,0,0,0,87.55,62.94Z"/><path class="cls-2" d="M90.79,62a.42.42,0,0,0-.27-.09.53.53,0,0,0-.38.18.81.81,0,0,0-.22.44l-.21,1.2h-.37l.37-2.09h.37L90,62a.8.8,0,0,1,.67-.37l.21,0Z"/><path class="cls-2" d="M92.87,61.64,92.63,63a.87.87,0,0,0,0,.16q0,.33.34.33a.63.63,0,0,0,.4-.16.61.61,0,0,0,.23-.37l.24-1.29h.39l-.38,2.09h-.39l.05-.29a.84.84,0,0,1-.76.33.5.5,0,0,1-.38-.14.57.57,0,0,1-.14-.41,1.2,1.2,0,0,1,0-.2l.24-1.37Z"/><path class="cls-2" d="M95.21,63.49l0,.27q-.63,0-.63-.46a4.22,4.22,0,0,1,.1-.63l.38-1.9h.39L95,62.56a5.05,5.05,0,0,0-.11.69C94.93,63.42,95,63.49,95.21,63.49Z"/><path class="cls-2" d="M96.16,61.93h-.24l.06-.29h.24l.09-.44.42-.16-.14.6h.57l-.06.29h-.57l-.22,1a.94.94,0,0,0,0,.19.26.26,0,0,0,.3.3.77.77,0,0,0,.31-.07v.33a1.64,1.64,0,0,1-.52.06.44.44,0,0,1-.35-.14.54.54,0,0,1-.12-.38.65.65,0,0,1,0-.13Z"/><path class="cls-2" d="M97.48,63.73,97.8,62h-.28l.07-.31h.64l-.37,2.08Zm.6-2.91a.26.26,0,1,1-.18.08A.25.25,0,0,1,98.08,60.82Z"/><path class="cls-2" d="M101,63.73l.23-1.32a.82.82,0,0,0,0-.15.3.3,0,0,0-.34-.34.49.49,0,0,0-.26.08.55.55,0,0,0-.2.19l-.27,1.55h-.38l.26-1.49a.35.35,0,0,0,0-.06q0-.27-.37-.27a.48.48,0,0,0-.25.09.69.69,0,0,0-.21.19l-.27,1.54h-.38l.27-1.52a1.11,1.11,0,0,0,0-.18,1.32,1.32,0,0,0,0-.35l.36-.07a1.54,1.54,0,0,1,0,.27.52.52,0,0,1,.26-.2,1,1,0,0,1,.38-.07.57.57,0,0,1,.58.28.62.62,0,0,1,.27-.2.91.91,0,0,1,.36-.08q.57,0,.57.54a1.09,1.09,0,0,1,0,.19l-.25,1.4Z"/><path class="cls-2" d="M103.81,61.77,103.56,63a.87.87,0,0,0,0,.18,1.63,1.63,0,0,0,.1.56h-.38a1.11,1.11,0,0,1-.07-.21.63.63,0,0,1-.27.18,1.07,1.07,0,0,1-.38.07.63.63,0,0,1-.48-.18.73.73,0,0,1-.17-.52,1.63,1.63,0,0,1,.34-1,1,1,0,0,1,.87-.44A1.19,1.19,0,0,1,103.81,61.77Zm-.41.22c0-.06-.15-.08-.36-.08a.67.67,0,0,0-.54.33,1.37,1.37,0,0,0-.23.82c0,.28.12.42.37.42a.48.48,0,0,0,.36-.2,1.14,1.14,0,0,0,.24-.51Z"/><path class="cls-2" d="M104.49,61.93h-.24l.06-.29h.24l.09-.44.42-.16-.14.6h.57l-.06.29h-.57l-.22,1a.94.94,0,0,0,0,.19.26.26,0,0,0,.3.3.77.77,0,0,0,.31-.07v.33a1.64,1.64,0,0,1-.52.06.44.44,0,0,1-.35-.14.54.54,0,0,1-.12-.38.65.65,0,0,1,0-.13Z"/><path class="cls-2" d="M106.14,62.74a1,1,0,0,0,0,.18.52.52,0,0,0,.14.4.56.56,0,0,0,.4.14.79.79,0,0,0,.46-.17l0,.38a1.78,1.78,0,0,1-.55.1q-.81,0-.81-.91a1.27,1.27,0,0,1,.34-.9,1.12,1.12,0,0,1,.85-.37.83.83,0,0,1,.5.13.44.44,0,0,1,.19.38.62.62,0,0,1-.29.54,1.23,1.23,0,0,1-.71.2A1,1,0,0,1,106.14,62.74Zm.06-.27a.85.85,0,0,0,.35.07,1.1,1.1,0,0,0,.5-.1.31.31,0,0,0,.19-.29c0-.16-.11-.24-.33-.24A.73.73,0,0,0,106.21,62.47Z"/><path class="cls-2" d="M108.91,63.6l.19-.35a.71.71,0,0,0,.22.14.61.61,0,0,0,.24.06.43.43,0,0,0,.29-.09.31.31,0,0,0,.11-.25.21.21,0,0,0-.06-.15.9.9,0,0,0-.21-.15l-.28-.15a.5.5,0,0,1-.19-.18.46.46,0,0,1-.06-.24.56.56,0,0,1,.23-.47.87.87,0,0,1,.56-.18,1.39,1.39,0,0,1,.55.14l-.17.34a.6.6,0,0,0-.41-.18.42.42,0,0,0-.25.08.23.23,0,0,0-.11.2.22.22,0,0,0,.06.15.85.85,0,0,0,.21.14l.27.15a.45.45,0,0,1,.25.41.64.64,0,0,1-.24.53,1,1,0,0,1-.62.2A1.09,1.09,0,0,1,108.91,63.6Z"/><path class="cls-2" d="M110.65,63a1.47,1.47,0,0,1,.33-1,1,1,0,0,1,.83-.4.78.78,0,0,1,.58.21.8.8,0,0,1,.2.58,1.79,1.79,0,0,1-.12.62,1.2,1.2,0,0,1-.39.54,1,1,0,0,1-.65.21.76.76,0,0,1-.58-.21A.83.83,0,0,1,110.65,63Zm.39,0c0,.35.15.53.44.53a.59.59,0,0,0,.52-.32,1.39,1.39,0,0,0,.19-.74q0-.5-.44-.5a.56.56,0,0,0-.39.16.91.91,0,0,0-.25.41A1.6,1.6,0,0,0,111,62.94Z"/><path class="cls-2" d="M113.61,63.49l0,.27q-.63,0-.63-.46a4.22,4.22,0,0,1,.1-.63l.38-1.9h.39l-.36,1.78a5.05,5.05,0,0,0-.11.69C113.33,63.42,113.42,63.49,113.61,63.49Z"/><path class="cls-2" d="M114.77,61.64,114.53,63a.87.87,0,0,0,0,.16q0,.33.34.33a.63.63,0,0,0,.4-.16.61.61,0,0,0,.23-.37l.24-1.29h.39l-.38,2.09h-.39l.05-.29a.84.84,0,0,1-.76.33.5.5,0,0,1-.38-.14.57.57,0,0,1-.14-.41,1.2,1.2,0,0,1,0-.2l.24-1.37Z"/><path class="cls-2" d="M116.79,61.93h-.24l.06-.29h.24l.09-.44.42-.16-.14.6h.57l-.06.29h-.57l-.22,1a.94.94,0,0,0,0,.19.26.26,0,0,0,.3.3.77.77,0,0,0,.31-.07v.33a1.64,1.64,0,0,1-.52.06.44.44,0,0,1-.35-.14.54.54,0,0,1-.12-.38.65.65,0,0,1,0-.13Z"/><path class="cls-2" d="M118.11,63.73l.32-1.78h-.28l.07-.31h.64l-.37,2.08Zm.6-2.91a.26.26,0,1,1-.18.08A.25.25,0,0,1,118.71,60.82Z"/><path class="cls-2" d="M119.21,63a1.47,1.47,0,0,1,.33-1,1,1,0,0,1,.83-.4.78.78,0,0,1,.58.21.8.8,0,0,1,.2.58A1.79,1.79,0,0,1,121,63a1.2,1.2,0,0,1-.39.54,1,1,0,0,1-.65.21.76.76,0,0,1-.58-.21A.83.83,0,0,1,119.21,63Zm.39,0c0,.35.15.53.44.53a.59.59,0,0,0,.52-.32,1.39,1.39,0,0,0,.19-.74q0-.5-.44-.5a.56.56,0,0,0-.39.16.91.91,0,0,0-.25.41A1.6,1.6,0,0,0,119.6,62.94Z"/><path class="cls-2" d="M122.63,63.73l.22-1.22a1.57,1.57,0,0,0,0-.27q0-.33-.35-.33a.63.63,0,0,0-.28.08.76.76,0,0,0-.24.19l-.27,1.55h-.37l.28-1.58a.81.81,0,0,0,0-.13,1.29,1.29,0,0,0,0-.35l.36-.07c0,.19.05.29.05.31a.81.81,0,0,1,.69-.31.51.51,0,0,1,.57.58,1.53,1.53,0,0,1,0,.26L123,63.73Z"/><path class="cls-2" d="M24.76,48.93h5v1h-4V53h4v1h-4v4.9h-1Z"/><path class="cls-2" d="M35.57,48.93l4.65,10H39.15l-1.57-3.28h-4.3l-1.55,3.28H30.62l4.71-10Zm-.13,2.12-1.71,3.61h3.41Z"/><path class="cls-2" d="M40.74,57l.85-.51q.9,1.65,2.07,1.65A2,2,0,0,0,44.6,58a1.65,1.65,0,0,0,.67-.63,1.63,1.63,0,0,0,.23-.83,1.7,1.7,0,0,0-.34-1,8.17,8.17,0,0,0-1.71-1.6,8.7,8.7,0,0,1-1.55-1.36A2.49,2.49,0,0,1,41.37,51a2.32,2.32,0,0,1,.31-1.19,2.22,2.22,0,0,1,.88-.84,2.52,2.52,0,0,1,1.23-.31,2.63,2.63,0,0,1,1.32.35,4.52,4.52,0,0,1,1.3,1.29l-.81.62a3.92,3.92,0,0,0-1-1,1.65,1.65,0,0,0-.87-.24,1.37,1.37,0,0,0-1,.37,1.2,1.2,0,0,0-.38.9,1.53,1.53,0,0,0,.14.63,2.32,2.32,0,0,0,.49.66q.2.19,1.29,1A7.23,7.23,0,0,1,46.1,55a2.74,2.74,0,0,1,.48,1.5,2.54,2.54,0,0,1-.82,1.89,2.77,2.77,0,0,1-2,.8,2.94,2.94,0,0,1-1.65-.49A4.43,4.43,0,0,1,40.74,57Z"/><path class="cls-2" d="M52.76,48.93l4.65,10H56.34l-1.57-3.28h-4.3l-1.55,3.28H47.81l4.71-10Zm-.13,2.12-1.71,3.61h3.41Z"/><path class="cls-2" d="M59,58.91v-10h.22l6.64,7.65V48.93h1v10h-.22L60,51.35v7.55Z"/><path class="cls-2" d="M78.86,50.61l-.77.73a5.91,5.91,0,0,0-1.83-1.24,4.9,4.9,0,0,0-1.94-.42,4.61,4.61,0,0,0-2.23.58,4.18,4.18,0,0,0-1.64,1.56,4,4,0,0,0-.58,2.09,4.12,4.12,0,0,0,.6,2.14,4.29,4.29,0,0,0,1.67,1.59,4.8,4.8,0,0,0,2.33.58,4,4,0,0,0,2.6-.87,3.42,3.42,0,0,0,1.26-2.25H75.15v-1h4.3a5,5,0,0,1-1.37,3.67,4.92,4.92,0,0,1-3.64,1.36,5.47,5.47,0,0,1-4.38-1.88,5,5,0,0,1-1.24-3.36,5.14,5.14,0,0,1,.71-2.64,5.06,5.06,0,0,1,2-1.91,5.69,5.69,0,0,1,2.81-.69,6.23,6.23,0,0,1,2.39.46A7.11,7.11,0,0,1,78.86,50.61Z"/><path class="cls-2" d="M85.42,48.93l4.65,10H89l-1.57-3.28h-4.3l-1.55,3.28H80.47l4.71-10Zm-.13,2.12-1.71,3.61H87Z"/><path class="cls-2" d="M95,50.19v8.71H93.69V50.19H90.53V49h7.82v1.22Z"/><path class="cls-2" d="M100.84,50.19V53h3.28v1.15h-3.28v3.58h4.5v1.22H99.48V49h5.93v1.22Z"/><path class="cls-2" d="M113.26,49.34l-.45,1.16a3.51,3.51,0,0,0-2-.47,2.45,2.45,0,0,0-2.1,1.13,4.94,4.94,0,0,0-.79,2.9,4.39,4.39,0,0,0,.81,2.75,2.71,2.71,0,0,0,4.24.06l.75,1a4.13,4.13,0,0,1-3,1.17,3.71,3.71,0,0,1-3.07-1.4,5.76,5.76,0,0,1-1.12-3.7,5.67,5.67,0,0,1,1.19-3.7,3.79,3.79,0,0,1,3.08-1.47A5,5,0,0,1,113.26,49.34Z"/><path class="cls-2" d="M120.93,58.91v-4.8h-4.34v4.8h-1.36V49h1.36v4h4.34V49h1.36v9.93Z"/><path class="cls-2" d="M15.48,56C7.9,42,34.49,38.22,52.16,42.74c1.73.44,3.71.86,5.34,1.23C34.09,37,14,37.7,11,46.09,9.18,51.25,14.19,58.23,23.56,65A34.45,34.45,0,0,1,15.48,56Z"/><path class="cls-3" d="M15.17,55.77C7.6,41.71,34.17,38,51.84,42.53c1.73.44,3.9,1,5.54,1.4C34,37,13.7,37.42,10.71,45.81,8.88,51,14.11,58.16,23.47,65A36.25,36.25,0,0,1,15.17,55.77Z"/></g></g></svg>