<svg xmlns="http://www.w3.org/2000/svg" xmlns:xlink="http://www.w3.org/1999/xlink" viewBox="0 0 131 101"><defs><style>.cls-1,.cls-9{fill:none;}.cls-1{stroke:#a7a9ac;opacity:0.66;}.cls-1,.cls-3,.cls-4,.cls-6,.cls-7,.cls-8,.cls-9{stroke-miterlimit:10;}.cls-2{fill:#d1d3d4;}.cls-3{fill:#58595b;stroke-width:0.1px;}.cls-3,.cls-4,.cls-6,.cls-7,.cls-8,.cls-9{stroke:#fff;}.cls-4,.cls-8,.cls-9{stroke-width:0.25px;}.cls-4{fill:url(#radial-gradient);}.cls-5{fill:#0e0e0e;}.cls-11,.cls-6{fill:#fff;}.cls-6{stroke-width:0.75px;}.cls-7,.cls-8{fill:#3d594f;}.cls-7{stroke-width:0.5px;}.cls-10{fill:#18793d;}.cls-12{fill:#ed2424;}</style><radialGradient id="radial-gradient" cx="32.11" cy="52.51" r="13.27" gradientTransform="translate(1 -0.6) rotate(1.09)" gradientUnits="userSpaceOnUse"><stop offset="0" stop-color="#414042"/><stop offset="1" stop-color="#231f20"/></radialGradient></defs><title>brand-img-08</title><g id="Layer_2" data-name="Layer 2"><g id="Layer_1-2" data-name="Layer 1"><rect class="cls-1" x="0.5" y="0.5" width="130" height="100"/><rect class="cls-2" x="5.37" y="37.06" width="53.49" height="30.63" rx="0.9" ry="0.9" transform="translate(-5.03 3.44) rotate(-5.69)"/><path class="cls-3" d="M47.11,35.48,14.05,38.78A22.77,22.77,0,0,0,17.1,69.4L50.16,66.1a22.77,22.77,0,0,0-3.05-30.62Z"/><circle class="cls-4" cx="32.11" cy="52.51" r="13.27" transform="translate(-0.99 0.62) rotate(-1.09)"/><circle class="cls-5" cx="32.12" cy="52.62" r="7.33" transform="translate(-0.99 0.62) rotate(-1.09)"/><ellipse class="cls-6" cx="32.12" cy="52.57" rx="6.57" ry="6.58" transform="translate(-1 0.62) rotate(-1.09)"/><circle class="cls-7" cx="32.12" cy="50.92" r="2.04" transform="translate(-21.1 79.08) rotate(-85.65)"/><path class="cls-8" d="M32.67,53.4c-2.24-.43-4.45.69-4.94,2.52s.94,3.66,3.18,4.09,4.45-.69,4.94-2.52S34.91,53.83,32.67,53.4Z"/><line class="cls-9" x1="63.22" y1="28.4" x2="63.22" y2="70.38"/><path class="cls-10" d="M66,63.78c0-.09,0-.17,0-.26a2.28,2.28,0,0,1,0-.26A2.54,2.54,0,0,1,66,63c0-.09,0-.18,0-.26l.26,0h.51l.26,0c0,.09,0,.17,0,.26a2.4,2.4,0,0,1,0,.52c0,.09,0,.17,0,.26l-.26,0h-.51Z"/><path class="cls-11" d="M72.73,62.81a2.53,2.53,0,0,1,.26.77,3.69,3.69,0,0,1-.8.24,4.93,4.93,0,0,1-.88.07,3.42,3.42,0,0,1-1.3-.24A2.65,2.65,0,0,1,69,63a3,3,0,0,1-.61-1.07,4.41,4.41,0,0,1-.21-1.42A4.57,4.57,0,0,1,68.42,59a3.14,3.14,0,0,1,.61-1.1,2.68,2.68,0,0,1,1-.7A3.25,3.25,0,0,1,71.29,57a4.83,4.83,0,0,1,.91.07,5.14,5.14,0,0,1,.68.18,1.71,1.71,0,0,1-.08.39q-.06.18-.14.38l-.27-.08-.28-.06-.33,0h-.41a1.92,1.92,0,0,0-1.57.69,3.05,3.05,0,0,0-.56,2,3.68,3.68,0,0,0,.16,1.14,2.16,2.16,0,0,0,.44.8,1.82,1.82,0,0,0,.69.47,2.46,2.46,0,0,0,.9.16,3.51,3.51,0,0,0,.7-.06A3,3,0,0,0,72.73,62.81Z"/><path class="cls-11" d="M76.55,63.89a2.86,2.86,0,0,1-1.25-.26,2.38,2.38,0,0,1-.88-.71,3.16,3.16,0,0,1-.52-1.09,5.65,5.65,0,0,1,0-2.76A3.16,3.16,0,0,1,74.42,58a2.42,2.42,0,0,1,.88-.72,3.15,3.15,0,0,1,2.5,0,2.42,2.42,0,0,1,.88.72,3.1,3.1,0,0,1,.51,1.09,5.8,5.8,0,0,1,0,2.76,3.1,3.1,0,0,1-.51,1.09,2.38,2.38,0,0,1-.88.71A2.86,2.86,0,0,1,76.55,63.89Z"/><path class="cls-11" d="M80.93,57.11l.26,0h.56l.26,0,1.73,4.17,1.73-4.17.23,0h.54l.25,0,.32,6.67-.23,0h-.47l-.22,0-.21-5.19L84,62.4l-.38,0-.35,0-1.58-3.83-.21,5.21-.21,0h-.45l-.21,0Z"/><path class="cls-11" d="M66.24,47.61l.23,0H67l.23,0v6.67l-.23,0h-.49l-.22,0Zm1.22,3.28,2.14-3.28.26,0h.49l.29,0-2.11,3.2,2.38,3.47-.29,0H70.1l-.27,0Z"/><path class="cls-11" d="M71.81,42.51l.23,0,.24,0,.24,0,.23,0V54.25l-.23,0-.25,0-.25,0-.23,0Z"/><path class="cls-11" d="M75.54,48.44H73.81a1.76,1.76,0,0,1,0-.2c0-.07,0-.15,0-.21s0-.14,0-.21a1.78,1.78,0,0,1,0-.2h4.42q0,.09,0,.19t0,.2c0,.07,0,.14,0,.22a1.91,1.91,0,0,1,0,.21H76.49v5.84a3.59,3.59,0,0,1-.46,0,3.88,3.88,0,0,1-.48,0Z"/><path class="cls-11" d="M82,52.74H79.43L79,54.28l-.24,0h-.5l-.23,0,2.17-6.67.26,0H81l.27,0,2.16,6.67-.25,0h-.51l-.24,0Z"/><path class="cls-11" d="M84.58,47.61l.26,0h.56l.26,0,1.73,4.17,1.73-4.17.23,0h.54l.25,0,.32,6.67-.23,0h-.47l-.22,0-.21-5.19-1.63,3.8-.38,0-.35,0-1.58-3.83-.21,5.21-.21,0H84.5l-.21,0Z"/><path class="cls-11" d="M92,47.61a5.32,5.32,0,0,1,.65-.07l.84,0a4.65,4.65,0,0,1,1,.09,2.12,2.12,0,0,1,.75.3,1.44,1.44,0,0,1,.48.54,1.72,1.72,0,0,1,.17.8,1.56,1.56,0,0,1-.32,1,1.38,1.38,0,0,1-.34.32,1.43,1.43,0,0,1-.4.18,1.86,1.86,0,0,1,.52.14,1.53,1.53,0,0,1,.83.83,1.9,1.9,0,0,1,.13.76,1.82,1.82,0,0,1-.21.91,1.7,1.7,0,0,1-.58.61,2.56,2.56,0,0,1-.86.33,5.28,5.28,0,0,1-1.06.1l-.77,0L92,54.28Zm1.61,2.78a1.49,1.49,0,0,0,1-.27,1,1,0,0,0,.33-.82.91.91,0,0,0-.36-.79,1.62,1.62,0,0,0-1-.26h-.36l-.29,0V50.4Zm-.68,3.15.33,0h.39a3.34,3.34,0,0,0,.63-.06,1.54,1.54,0,0,0,.51-.19,1,1,0,0,0,.35-.36,1.16,1.16,0,0,0,.13-.58,1.27,1.27,0,0,0-.12-.58,1,1,0,0,0-.33-.38,1.36,1.36,0,0,0-.5-.2,3,3,0,0,0-.62-.06h-.78Z"/><path class="cls-11" d="M97.42,47.61a3.88,3.88,0,0,1,.48,0,3.58,3.58,0,0,1,.46,0V51.4a5.6,5.6,0,0,0,.07,1,1.79,1.79,0,0,0,.24.66,1,1,0,0,0,.44.38,1.67,1.67,0,0,0,.67.12,1.63,1.63,0,0,0,.67-.12,1,1,0,0,0,.44-.38,1.79,1.79,0,0,0,.24-.66,5.6,5.6,0,0,0,.07-1V47.61l.47,0a3.89,3.89,0,0,1,.48,0v4a5.2,5.2,0,0,1-.13,1.2,2.27,2.27,0,0,1-.41.89,1.8,1.8,0,0,1-.74.55,3.3,3.3,0,0,1-2.21,0,1.79,1.79,0,0,1-.74-.55,2.28,2.28,0,0,1-.41-.89,5.21,5.21,0,0,1-.13-1.2Z"/><path class="cls-11" d="M103.74,47.61l.22,0h.49l.23,0v5.83h2.62a1.59,1.59,0,0,1,0,.21q0,.11,0,.2a2.92,2.92,0,0,1,0,.42h-3.55Z"/><path class="cls-11" d="M108.33,49.84l.23,0H109l.23,0v4.45l-.23,0h-.49l-.23,0Z"/><path class="cls-11" d="M110.74,53.27a6.39,6.39,0,0,0,.64.19,3.41,3.41,0,0,0,.82.08,1.75,1.75,0,0,0,1.14-.31,1,1,0,0,0,.38-.84,1.14,1.14,0,0,0-.08-.45.86.86,0,0,0-.24-.32,1.77,1.77,0,0,0-.39-.25l-.55-.24-.53-.21a3.61,3.61,0,0,1-.49-.25,1.52,1.52,0,0,1-.38-.33,1.48,1.48,0,0,1-.26-.45,1.78,1.78,0,0,1-.09-.61,1.63,1.63,0,0,1,.57-1.32,2.46,2.46,0,0,1,1.61-.48,4.63,4.63,0,0,1,.84.07,4.5,4.5,0,0,1,.71.19,2.9,2.9,0,0,1-.2.77,4.62,4.62,0,0,0-.58-.17,3.42,3.42,0,0,0-.75-.07,1.48,1.48,0,0,0-.9.24.83.83,0,0,0-.32.71.75.75,0,0,0,.08.35.92.92,0,0,0,.21.27,1.51,1.51,0,0,0,.31.21l.37.17.52.2a5.52,5.52,0,0,1,.66.31,2.05,2.05,0,0,1,.49.38,1.47,1.47,0,0,1,.31.51,2.06,2.06,0,0,1,.11.7,1.86,1.86,0,0,1-.66,1.51,2.79,2.79,0,0,1-1.85.55l-.52,0-.43-.06-.38-.09-.38-.12a2.08,2.08,0,0,1,.08-.42Q110.67,53.48,110.74,53.27Z"/><path class="cls-11" d="M116,47.61l.23,0h.48l.23,0v2.75h2.84V47.61l.22,0h.49l.24,0v6.67l-.22,0H120l-.23,0V51.19h-2.84v3.09l-.23,0h-.49l-.23,0Z"/><path class="cls-11" d="M124.9,54.39a2.86,2.86,0,0,1-1.25-.26,2.38,2.38,0,0,1-.88-.71,3.16,3.16,0,0,1-.52-1.09,5.65,5.65,0,0,1,0-2.76,3.16,3.16,0,0,1,.52-1.09,2.42,2.42,0,0,1,.88-.72,3.15,3.15,0,0,1,2.5,0,2.42,2.42,0,0,1,.88.72,3.1,3.1,0,0,1,.51,1.09,5.8,5.8,0,0,1,0,2.76,3.1,3.1,0,0,1-.51,1.09,2.38,2.38,0,0,1-.88.71A2.86,2.86,0,0,1,124.9,54.39Z"/><circle class="cls-12" cx="72.29" cy="39.46" r="2.02"/><circle class="cls-10" cx="108.8" cy="48.25" r="1.19"/></g></g></svg>