<svg xmlns="http://www.w3.org/2000/svg" viewBox="0 0 131 101"><defs><style>.cls-1{fill:none;opacity:0.66;}.cls-1,.cls-5{stroke:#a7a9ac;stroke-miterlimit:10;}.cls-2{fill:#3e815f;}.cls-3,.cls-5{fill:#a7a9ac;}.cls-4{fill:#bcbec0;}.cls-5{stroke-width:0.25px;}</style></defs><title>brand-img-15 </title><g id="Layer_2" data-name="Layer 2"><g id="Layer_1-2" data-name="Layer 1"><rect class="cls-1" x="0.5" y="0.5" width="130" height="100"/><path class="cls-2" d="M30.11,48.23l1.94,2h0L30,47.49A.67.67,0,0,0,30.11,48.23Z"/><path class="cls-3" d="M32,51.5l-1.69,1.6a.87.87,0,0,1-1.23,0l-7.78-8.22,0,0,0,0,3.89-3.68L22,36.79a17.23,17.23,0,0,0-6.47,17.13H34.75l-2.58-3.47A.87.87,0,0,1,32,51.5Z"/><path class="cls-3" d="M39.61,60.45,36.27,64A.87.87,0,0,1,35,64l-1.69-1.6a.87.87,0,0,1,0-1.23l2-2.08A.66.66,0,0,0,34.82,58H25.26a.66.66,0,0,1-.21,0H16.91a17.21,17.21,0,0,0,25.63,6.46Z"/><path class="cls-4" d="M29.55,37a.87.87,0,0,1,1.23,0l1.6,1.69a.87.87,0,0,1,0,1.23l-2,1.9A.68.68,0,0,0,30.81,43h17.1A17.21,17.21,0,0,0,22,36.79l3.19,4.3Z"/><path class="cls-4" d="M49.62,50.5A17.28,17.28,0,0,0,49.27,47h-9a.68.68,0,0,1-.22,0H30.6a.67.67,0,0,0-.63.41L32,50.28a.87.87,0,0,1,.12.16l2.58,3.47a.66.66,0,0,0,.32-1.13l-2-1.93a.87.87,0,0,1,0-1.23l1.6-1.69a.87.87,0,0,1,1.23,0L44,55.68l0,0,0,0-4.44,4.7,2.94,4A17.18,17.18,0,0,0,49.62,50.5Z"/><path class="cls-3" d="M56.83,43.84v6.27a.7.7,0,0,0,.7.7h9.18a.7.7,0,0,1,.7.7V53a.7.7,0,0,1-.7.7H57.4a3.48,3.48,0,0,1-3.48-3.48V43.69a3.48,3.48,0,0,1,3.48-3.48h9.31a.7.7,0,0,1,.7.7v1.53a.7.7,0,0,1-.7.7H57.53A.7.7,0,0,0,56.83,43.84Z"/><path class="cls-3" d="M79.49,40.21a3.46,3.46,0,0,1,3.45,3.45V53.1a.65.65,0,0,1-.65.65H80.64A.65.65,0,0,1,80,53.1V50a.65.65,0,0,0-.65-.65H73a.65.65,0,0,0-.65.65V53.1a.65.65,0,0,1-.65.65H70.05a.65.65,0,0,1-.65-.65V43.64a3.43,3.43,0,0,1,3.43-3.43Zm.5,5.59v-2a.65.65,0,0,0-.65-.65H73a.65.65,0,0,0-.65.65v2a.65.65,0,0,0,.65.65h6.38A.65.65,0,0,0,80,45.81Z"/><path class="cls-3" d="M85.68,40.19h1.75a.58.58,0,0,1,.58.58v9.46a.58.58,0,0,0,.58.58h9.46a.58.58,0,0,1,.58.58v1.77a.58.58,0,0,1-.58.58H85.68a.58.58,0,0,1-.58-.58V40.77A.58.58,0,0,1,85.68,40.19Z"/><path class="cls-3" d="M112.34,40.21h2a.67.67,0,0,1,.67.67V53.07a.67.67,0,0,1-.67.67h-1.58a.67.67,0,0,1-.67-.67V46.52a.67.67,0,0,0-1.19-.43c-1,1.18-2,2.39-3,3.53a.67.67,0,0,1-1,0l-3-3.53a.67.67,0,0,0-1.19.43v6.54a.67.67,0,0,1-.67.67h-1.57a.67.67,0,0,1-.67-.67V40.89a.67.67,0,0,1,.67-.67h2a.67.67,0,0,1,.52.24l3.87,4.61a.67.67,0,0,0,1,0l3.85-4.61A.67.67,0,0,1,112.34,40.21Z"/><path class="cls-5" d="M54.78,59.81c0-1,1.16-1.89,2.59-1.89a2.86,2.86,0,0,1,2.09.75l-.1.07a2.69,2.69,0,0,0-2-.72c-1.35,0-2.45.81-2.45,1.8s1.1,1.8,2.45,1.8a2.88,2.88,0,0,0,2-.69l.09.06a3,3,0,0,1-2.06.72C55.94,61.7,54.78,60.86,54.78,59.81Z"/><path class="cls-5" d="M65.1,59.81c0,1-1.17,1.89-2.59,1.89s-2.59-.84-2.59-1.89,1.16-1.89,2.59-1.89S65.1,58.77,65.1,59.81Zm-.14,0c0-1-1.1-1.8-2.46-1.8s-2.45.81-2.45,1.8,1.1,1.8,2.45,1.8S65,60.8,65,59.81Z"/><path class="cls-5" d="M70.68,58v3.68h-.13V58.1l-2.2,2.27h-.11L66,58.1v3.55h-.13V58h.17l2.22,2.3L70.52,58Z"/><path class="cls-5" d="M76.52,58v3.68h-.13V58.1l-2.2,2.27h-.11l-2.2-2.27v3.55h-.13V58h.17l2.22,2.3L76.36,58Z"/><path class="cls-5" d="M77.48,60.17V58h.13v2.2c0,1,.8,1.44,1.89,1.44s1.89-.45,1.89-1.44V58h.13v2.2c0,1.08-.91,1.53-2,1.53S77.48,61.25,77.48,60.17Z"/><path class="cls-5" d="M86.14,58v3.68H86L82.61,58.1v3.55h-.13V58h.18L86,61.54V58Z"/><path class="cls-5" d="M87.21,61.65V58h.13v3.68Z"/><path class="cls-5" d="M88.24,59.81c0-1,1.16-1.89,2.59-1.89a2.86,2.86,0,0,1,2.09.75l-.1.07a2.69,2.69,0,0,0-2-.72c-1.35,0-2.45.81-2.45,1.8s1.1,1.8,2.45,1.8a2.88,2.88,0,0,0,2-.69l.09.06a3,3,0,0,1-2.06.72C89.4,61.7,88.24,60.86,88.24,59.81Z"/><path class="cls-5" d="M96.72,60.34H94.21l-.73,1.31h-.15L95.41,58h.12l2.08,3.68h-.16Zm0-.09-1.21-2.17-1.2,2.17Z"/><path class="cls-5" d="M98.89,61.65V58.08H97.16V58h3.58v.09H99v3.57Z"/><path class="cls-5" d="M101.37,61.65V58h.13v3.68Z"/><path class="cls-5" d="M107.51,59.81c0,1-1.17,1.89-2.59,1.89s-2.59-.84-2.59-1.89,1.16-1.89,2.59-1.89S107.51,58.77,107.51,59.81Zm-.14,0c0-1-1.1-1.8-2.46-1.8s-2.45.81-2.45,1.8,1.1,1.8,2.45,1.8S107.37,60.8,107.37,59.81Z"/><path class="cls-5" d="M112,58v3.68h-.18l-3.35-3.55v3.55h-.13V58h.18l3.35,3.57V58Z"/><path class="cls-5" d="M114.21,59.86c-.79-.18-1.17-.5-1.17-1s.64-.94,1.29-.94a1.38,1.38,0,0,1,1.25.57l-.12,0a1.18,1.18,0,0,0-1.13-.53c-.55,0-1.14.3-1.14.81s.3.76,1.1,1c1,.23,1.31.59,1.31,1.06s-.58.87-1.37.87a1.64,1.64,0,0,1-1.3-.55l.1,0a1.57,1.57,0,0,0,1.21.51c.72,0,1.22-.32,1.22-.77S115.14,60.07,114.21,59.86Z"/><rect class="cls-3" x="51.6" y="36.74" width="0.5" height="27.51"/></g></g></svg>