<svg xmlns="http://www.w3.org/2000/svg" viewBox="0 0 131 101"><defs><style>.cls-1{fill:none;stroke:#a7a9ac;stroke-miterlimit:10;opacity:0.66;}.cls-2{fill:#939598;}.cls-3{fill:#bcbec0;}.cls-4{fill:#369445;}</style></defs><title>brand-img-05</title><g id="Layer_2" data-name="Layer 2"><g id="Layer_1-2" data-name="Layer 1"><rect class="cls-1" x="0.5" y="0.5" width="130" height="100"/><path class="cls-2" d="M24.87,56.13a14.7,14.7,0,0,0,10.52-4.42A14.75,14.75,0,0,1,8.64,53c0-.39-.06-.78-.06-1.18a14.68,14.68,0,0,1,2.81-8.64,14.8,14.8,0,0,0-.91,1.4A14.76,14.76,0,0,0,24.87,56.13Z"/><path class="cls-2" d="M33.81,39.32A4.74,4.74,0,0,1,34,40.7c0,3.77-4.52,6.83-10.1,6.83a12.51,12.51,0,0,1-7.65-2.38c.95,3.11,5,5.45,9.89,5.45,5.58,0,10.85-3.71,10-6.87C35.45,41.28,35.34,40.52,33.81,39.32Z"/><path class="cls-3" d="M35.75,43.93q-.25-.39-.53-.77L35,42.88q-.24-.31-.5-.61L34.26,42c-.19-.21-.38-.41-.58-.6l-.21-.21q-.4-.38-.84-.74l-.21-.16c-.22-.18-.45-.35-.69-.51l-.34-.22-.63-.39-.36-.21-.69-.35-.32-.16c-.34-.15-.69-.3-1-.43l-.17-.06q-.45-.16-.92-.29l-.38-.09-.77-.17-.41-.07-.81-.11-.37,0c-.39,0-.79-.05-1.2-.05s-.9,0-1.34.07l-.35,0c-.4,0-.79.1-1.18.18l-.13,0c-.41.09-.82.19-1.22.31l-.37.12q-.48.16-.94.34l-.27.11c-.36.15-.71.33-1.05.51l-.42.23-.68.41-.4.25c-.29.2-.58.42-.85.64l-.46.39-.45.41c-.2.19-.4.39-.59.59s-.35.38-.52.57-.29.36-.44.54l-.29.39a14.68,14.68,0,0,0-2.81,8.64c0,.4,0,.79.06,1.18A14.75,14.75,0,0,1,21.7,31.45,14.32,14.32,0,0,1,36.23,44.71a6.56,6.56,0,0,0-.38-.62Z"/><path class="cls-3" d="M41.44,39.12H36.1a5.43,5.43,0,0,1-.09-.63c0-.23,0-.45,0-.66s0-.42,0-.64a5.53,5.53,0,0,1,.09-.61H49.69a5.83,5.83,0,0,1,.09.6c0,.21,0,.42,0,.63s0,.43,0,.67a5.64,5.64,0,0,1-.09.64H44.35v18a11.14,11.14,0,0,1-1.43.09,12.09,12.09,0,0,1-1.48-.09Z"/><path class="cls-3" d="M52.92,36.58q.34-.06.71-.09l.74,0,.74,0q.37,0,.71.09V45h8.73V36.58a6.86,6.86,0,0,1,.69-.09l.74,0,.76,0c.26,0,.5,0,.73.09V57.1a6.9,6.9,0,0,1-.69.09l-.77,0-.76,0a6.83,6.83,0,0,1-.7-.09V47.6H55.83v9.5q-.34.06-.7.09l-.76,0-.76,0a6.81,6.81,0,0,1-.7-.09Z"/><path class="cls-3" d="M72.49,36.58H83.77a8.56,8.56,0,0,1,.08,1.26c0,.21,0,.43,0,.66a4.09,4.09,0,0,1-.07.63H75.4V45h6.68a5.49,5.49,0,0,1,.09.61q0,.33,0,.64t0,.66a5.49,5.49,0,0,1-.09.63H75.4v7H84a8.56,8.56,0,0,1,.08,1.26q0,.31,0,.66a4.23,4.23,0,0,1-.07.63H72.49Z"/><path class="cls-3" d="M87.85,36.55,89,36.44l1-.1,1-.07q.54,0,1.2,0a14.66,14.66,0,0,1,2.88.29,7.32,7.32,0,0,1,2.54,1,5.52,5.52,0,0,1,1.81,1.93,6.08,6.08,0,0,1,.7,3.07,5.34,5.34,0,0,1-.37,2,6.51,6.51,0,0,1-.94,1.63,6.68,6.68,0,0,1-1.3,1.24,10,10,0,0,1-1.41.87l-.34.17,6,8.65a16,16,0,0,1-1.74.09,14.05,14.05,0,0,1-1.54-.09l-6.56-9.5v-.11l.23-.06a13.46,13.46,0,0,0,1.63-.54,6.64,6.64,0,0,0,1.58-.9,4.94,4.94,0,0,0,1.21-1.34,3.54,3.54,0,0,0,.49-1.9,3.73,3.73,0,0,0-1.21-3.05,5,5,0,0,0-3.27-1q-.49,0-.9,0l-.93.09V57.1l-.7.06-.73,0h-.74a5.82,5.82,0,0,1-.74-.07Z"/><path class="cls-3" d="M105.4,36.58q.34-.06.79-.09l.84,0,.87,0a6.9,6.9,0,0,1,.78.09L114,49.42l5.34-12.84a5.75,5.75,0,0,1,.71-.09l.83,0,.83,0a6.9,6.9,0,0,1,.77.09l1,20.52q-.34.06-.7.09l-.73,0-.73,0q-.36,0-.67-.09l-.66-16-5,11.7a7.82,7.82,0,0,1-1.17.09,6.87,6.87,0,0,1-1.08-.09l-4.85-11.79-.66,16q-.31.06-.66.09l-.66,0-.71,0q-.34,0-.66-.09Z"/><line class="cls-4" x1="37.95" y1="60.95" x2="112.23" y2="60.95"/><rect class="cls-3" x="37.95" y="60.65" width="74.28" height="0.6"/><path class="cls-3" d="M38.25,63.55h3.49a2.65,2.65,0,0,1,.05.52,2.74,2.74,0,0,1-.05.54H39.5v1.33h1.78a2.88,2.88,0,0,1,.05.53,2.82,2.82,0,0,1-.05.54H39.5v1.62h2.3a2.65,2.65,0,0,1,.05.52,2.74,2.74,0,0,1-.05.54H38.25Z"/><path class="cls-3" d="M42.79,63.55a2.65,2.65,0,0,1,.5-.05,2.88,2.88,0,0,1,.53.05l2.38,3.91V63.55a3.59,3.59,0,0,1,.59-.05,2.52,2.52,0,0,1,.51.05V69.7a2.71,2.71,0,0,1-.5.05,2.93,2.93,0,0,1-.52-.05l-2.39-3.9v3.9a3,3,0,0,1-.56.05,2.87,2.87,0,0,1-.55-.05Z"/><path class="cls-3" d="M48.49,63.55H52a2.65,2.65,0,0,1,.05.52,2.74,2.74,0,0,1-.05.54H49.74v1.33h1.78a2.88,2.88,0,0,1,.05.53,2.82,2.82,0,0,1-.05.54H49.74v1.62H52a2.65,2.65,0,0,1,.05.52,2.74,2.74,0,0,1-.05.54H48.49Z"/><path class="cls-3" d="M53.09,63.55l.71-.07q.33,0,.73,0a5.06,5.06,0,0,1,.93.08,2.52,2.52,0,0,1,.82.3,1.71,1.71,0,0,1,.59.59,1.79,1.79,0,0,1,.23.94A1.93,1.93,0,0,1,57,66a1.82,1.82,0,0,1-.22.46,1.92,1.92,0,0,1-.29.34,2.12,2.12,0,0,1-.29.23l-.15.09,1.5,2.6-.36,0-.38,0a4,4,0,0,1-.64-.05l-1.61-2.85.21-.1.29-.15a1.75,1.75,0,0,0,.33-.24,1.28,1.28,0,0,0,.27-.34,1.13,1.13,0,0,0-.2-1.26,1.21,1.21,0,0,0-.79-.25l-.34,0V69.7l-.31,0h-.61l-.33,0Z"/><path class="cls-3" d="M61.54,66.51a3.84,3.84,0,0,1,.62-.05,4,4,0,0,1,.62.05v3a4,4,0,0,1-.93.22,7.48,7.48,0,0,1-.84.06,3.39,3.39,0,0,1-1.32-.24,2.55,2.55,0,0,1-.94-.66,2.78,2.78,0,0,1-.56-1A4.1,4.1,0,0,1,58,66.64a4,4,0,0,1,.2-1.27,3,3,0,0,1,.57-1,2.57,2.57,0,0,1,.91-.67,3,3,0,0,1,1.23-.24,5.35,5.35,0,0,1,.76.05,3,3,0,0,1,.74.21,1.87,1.87,0,0,1-.1.5q-.09.24-.19.49a3.77,3.77,0,0,0-.53-.15,3,3,0,0,0-.55,0,1.54,1.54,0,0,0-1.26.53,2.45,2.45,0,0,0-.44,1.58,2.39,2.39,0,0,0,.44,1.57,1.58,1.58,0,0,0,1.28.52l.26,0,.21,0Z"/><path class="cls-3" d="M65.19,67.5l-1.91-3.95A5.07,5.07,0,0,1,64,63.5a4.15,4.15,0,0,1,.65.05l1.21,2.79,1.2-2.79a4,4,0,0,1,.65-.05,4.56,4.56,0,0,1,.66.05L66.44,67.5v2.2l-.32,0h-.61l-.32,0Z"/><path class="cls-3" d="M72,66.85a3.64,3.64,0,0,1-.52-.24,1.54,1.54,0,0,1-.39-.32,1.33,1.33,0,0,1-.25-.44,1.88,1.88,0,0,1-.09-.62,1.85,1.85,0,0,1,.15-.77,1.52,1.52,0,0,1,.42-.56,1.86,1.86,0,0,1,.66-.34,3,3,0,0,1,.86-.12,4.07,4.07,0,0,1,.82.08,6.12,6.12,0,0,1,.8.22,3,3,0,0,1-.27,1l-.26-.1-.28-.08-.34-.06-.43,0-.29,0a.8.8,0,0,0-.27.09.54.54,0,0,0-.2.2.69.69,0,0,0-.08.35.62.62,0,0,0,.06.29.59.59,0,0,0,.16.2,1.06,1.06,0,0,0,.23.14l.26.11.51.2a6.4,6.4,0,0,1,.59.27,1.57,1.57,0,0,1,.45.34,1.42,1.42,0,0,1,.29.49,2.1,2.1,0,0,1,.1.71,2,2,0,0,1-.16.79,1.71,1.71,0,0,1-.46.62,2.17,2.17,0,0,1-.74.4,3.24,3.24,0,0,1-1,.15l-.5,0-.42-.05-.4-.1-.41-.15a3.78,3.78,0,0,1,.09-.52c0-.18.1-.36.16-.54a4.45,4.45,0,0,0,.67.22,3,3,0,0,0,.67.07,1.54,1.54,0,0,0,.85-.2.68.68,0,0,0,.31-.61.73.73,0,0,0-.07-.34.75.75,0,0,0-.19-.23,1.16,1.16,0,0,0-.26-.16l-.3-.12Z"/><path class="cls-3" d="M78.12,69.8a2.77,2.77,0,0,1-1.2-.24,2.23,2.23,0,0,1-.83-.66,2.88,2.88,0,0,1-.48-1,4.74,4.74,0,0,1-.16-1.26,4.85,4.85,0,0,1,.16-1.27,2.93,2.93,0,0,1,.48-1,2.22,2.22,0,0,1,.83-.67,3.11,3.11,0,0,1,2.39,0,2.22,2.22,0,0,1,.83.67,2.91,2.91,0,0,1,.48,1,4.85,4.85,0,0,1,.16,1.27,4.74,4.74,0,0,1-.16,1.26,2.86,2.86,0,0,1-.48,1,2.23,2.23,0,0,1-.83.66A2.77,2.77,0,0,1,78.12,69.8Zm0-1q1.32,0,1.32-2.12A3.14,3.14,0,0,0,79.13,65a1.08,1.08,0,0,0-1-.53q-1.34,0-1.34,2.12T78.12,68.76Z"/><path class="cls-3" d="M81.82,63.55a3.8,3.8,0,0,1,.61-.05,4,4,0,0,1,.62.05v5.07h2.13a2.26,2.26,0,0,1,0,.28c0,.09,0,.17,0,.25s0,.18,0,.27a2.26,2.26,0,0,1,0,.28H81.82Z"/><path class="cls-3" d="M85.79,63.55l.32,0h.62l.32,0v3.19a8.91,8.91,0,0,0,0,.89,1.91,1.91,0,0,0,.15.62.78.78,0,0,0,.33.36,1.13,1.13,0,0,0,.54.12,1.1,1.1,0,0,0,.54-.12.78.78,0,0,0,.32-.36,1.91,1.91,0,0,0,.15-.62,8.91,8.91,0,0,0,0-.89V63.55l.33,0h.61l.32,0V67a5.87,5.87,0,0,1-.1,1.14,2.24,2.24,0,0,1-.37.88,1.73,1.73,0,0,1-.71.57,3.26,3.26,0,0,1-2.25,0,1.73,1.73,0,0,1-.71-.57,2.24,2.24,0,0,1-.37-.88,5.87,5.87,0,0,1-.1-1.14Z"/><path class="cls-3" d="M92.75,64.61H91.22a2.74,2.74,0,0,1-.05-.54,2.65,2.65,0,0,1,.05-.52h4.31a2.65,2.65,0,0,1,.05.52,2.74,2.74,0,0,1-.05.54H94V69.7l-.31,0h-.61l-.34,0Z"/><path class="cls-3" d="M96.4,63.55A3.9,3.9,0,0,1,97,63.5a4,4,0,0,1,.63.05V69.7a3.91,3.91,0,0,1-1.26,0Z"/><path class="cls-3" d="M101.35,69.8a2.77,2.77,0,0,1-1.2-.24,2.23,2.23,0,0,1-.83-.66,2.88,2.88,0,0,1-.48-1,4.74,4.74,0,0,1-.16-1.26,4.85,4.85,0,0,1,.16-1.27,2.93,2.93,0,0,1,.48-1,2.22,2.22,0,0,1,.83-.67,3.11,3.11,0,0,1,2.39,0,2.22,2.22,0,0,1,.83.67,2.91,2.91,0,0,1,.48,1,4.85,4.85,0,0,1,.16,1.27,4.74,4.74,0,0,1-.16,1.26,2.86,2.86,0,0,1-.48,1,2.23,2.23,0,0,1-.83.66A2.77,2.77,0,0,1,101.35,69.8Zm0-1q1.32,0,1.32-2.12a3.14,3.14,0,0,0-.32-1.59,1.08,1.08,0,0,0-1-.53q-1.34,0-1.34,2.12T101.35,68.76Z"/><path class="cls-3" d="M105,63.55a2.66,2.66,0,0,1,.5-.05,2.87,2.87,0,0,1,.53.05l2.38,3.91V63.55a3.59,3.59,0,0,1,.59-.05,2.54,2.54,0,0,1,.51.05V69.7a2.71,2.71,0,0,1-.5.05,2.93,2.93,0,0,1-.52-.05l-2.39-3.9v3.9a3,3,0,0,1-.56.05,2.88,2.88,0,0,1-.55-.05Z"/><path class="cls-3" d="M111.88,66.85a3.64,3.64,0,0,1-.52-.24,1.54,1.54,0,0,1-.39-.32,1.33,1.33,0,0,1-.25-.44,1.88,1.88,0,0,1-.09-.62,1.85,1.85,0,0,1,.15-.77,1.52,1.52,0,0,1,.42-.56,1.86,1.86,0,0,1,.66-.34,3,3,0,0,1,.86-.12,4.07,4.07,0,0,1,.82.08,6.12,6.12,0,0,1,.8.22,3,3,0,0,1-.27,1l-.26-.1-.28-.08-.34-.06-.43,0-.29,0a.8.8,0,0,0-.27.09.54.54,0,0,0-.2.2.69.69,0,0,0-.08.35.62.62,0,0,0,.06.29.59.59,0,0,0,.16.2,1.06,1.06,0,0,0,.23.14l.26.11.51.2a6.4,6.4,0,0,1,.59.27,1.57,1.57,0,0,1,.45.34,1.42,1.42,0,0,1,.29.49,2.1,2.1,0,0,1,.1.71,2,2,0,0,1-.16.79,1.71,1.71,0,0,1-.46.62,2.17,2.17,0,0,1-.74.4,3.24,3.24,0,0,1-1,.15l-.5,0-.42-.05-.4-.1-.41-.15a3.78,3.78,0,0,1,.09-.52c0-.18.1-.36.16-.54a4.45,4.45,0,0,0,.67.22,3,3,0,0,0,.67.07,1.54,1.54,0,0,0,.85-.2.68.68,0,0,0,.31-.61.73.73,0,0,0-.07-.34.75.75,0,0,0-.19-.23,1.16,1.16,0,0,0-.26-.16l-.3-.12Z"/></g></g></svg>