<svg xmlns="http://www.w3.org/2000/svg" viewBox="0 0 131 101"><defs><style>.cls-1{fill:none;stroke:#a7a9ac;stroke-miterlimit:10;opacity:0.66;}.cls-2{fill:#ededed;}.cls-3{fill:#ababab;}.cls-4{fill:#6e6e6e;}.cls-5{fill:#a7a9ac;}.cls-6{fill:#787878;}</style></defs><title>brand-img-13</title><g id="Layer_2" data-name="Layer 2"><g id="Layer_1-2" data-name="Layer 1"><rect class="cls-1" x="0.5" y="0.5" width="130" height="100"/><path class="cls-2" d="M22.8,73.86c-.08.45-.14.91-.25,1.36,0,.09-.24.18-.36.18-1.57,0-3.14,0-4.7,0a1.53,1.53,0,0,1-1.21-.67c-1-1.34-2-2.7-3-4.05-.14-.2-.27-.41-.47-.71,0,1.24,0,2.35,0,3.47,0,.3.05.6,0,.89,0,.46.11.8.65.83.06,0,.13.06.18.16a11,11,0,0,1-2.52,0c.86-.36.65-1.11.66-1.71,0-2.55,0-5.11,0-7.66,0-.76,0-.81-.77-1.09,0,0-.05-.06-.14-.17h2.53l.06.1c-.85.18-.75.83-.76,1.41q0,1.39,0,2.78c0,.14,0,.29,0,.56l1.51-2.06c.39-.54.77-1.1,1.17-1.64a.85.85,0,0,0,.1-1.16h2.12c0,.09,0,.14,0,.14a3.32,3.32,0,0,0-1.78,1.48c-.7.93-1.41,1.85-2.1,2.79a.55.55,0,0,0-.06.49c1.24,1.65,2.48,3.29,3.76,4.9a2.12,2.12,0,0,0,.85.55c.47.19.75,0,.76-.48,0-2.45,0-4.89,0-7.34,0-.56-.06-.56-.79-.85a2.27,2.27,0,0,1,.5-.14h3.65l-.14,1.47-.13,0c-.1-.8-.66-.85-1.3-.83-.81,0-.81,0-.81.82s0,1.46,0,2.2c0,.28.09.42.39.4l1.83-.13-.13,1.57c-.1-.07-.13-.08-.14-.1-.11-.21-.18-.58-.33-.62a6.37,6.37,0,0,0-1.41-.12c-.06,0-.19.19-.19.29,0,1,0,2.09,0,3.14a.52.52,0,0,0,.51.53,4.67,4.67,0,0,0,.72,0c.77,0,.89-.1,1.13-.81,0-.07.06-.13.09-.2Z"/><path class="cls-2" d="M30.44,75.47c-2-2.24-3.6-4.73-5.42-7.24,0,.9,0,1.68,0,2.45,0,1,.05,2.06.08,3.09,0,0,0,.06,0,.09,0,.61,0,1.27.89,1.35l-.08.12H23.81c.73-.29.63-.9.63-1.46,0-2.35,0-4.69,0-7,0-.23,0-.46,0-.69l.13-.06a3.47,3.47,0,0,1,.37.38L29.7,73a1.18,1.18,0,0,0,.39.37c0-.57,0-1.14,0-1.71,0-1.3-.05-2.6-.08-3.9,0-.19,0-.39,0-.58,0-.37-.14-.68-.6-.69-.06,0-.13-.06-.18-.17a31.19,31.19,0,0,1,4-.08,1.09,1.09,0,0,0,0,1.24c.5,1.06,1,2.13,1.52,3.27L36,67.92a2.23,2.23,0,0,0,.22-.54c.05-.34.05-.69.08-1.1h1.61c-1.23.72-1.39,2.08-2,3.12l0,0c-1,1.51-.86,3.21-.81,4.9,0,.38.08.76.6.77.07,0,.14.08.19.21H33.57c.71-.41.53-1.08.56-1.67,0-.16,0-.33,0-.49a5.71,5.71,0,0,0-.75-3.35c-.47-.86-.88-1.76-1.33-2.64a.79.79,0,0,0-.26-.36,1.43,1.43,0,0,0-.79-.24c-.15,0-.32.42-.32.64,0,1.51,0,3,0,4.53,0,1.06,0,2.12,0,3.18a3.66,3.66,0,0,1-.06.46Z"/><path class="cls-2" d="M82.43,75.34H80.07c.63-.25.58-.81.58-1.27,0-2.27,0-4.54,0-6.81,0-.26-.1-.39-.37-.38h-.4c-.69,0-1.48-.18-1.66.92l-.18-.14c.09-.48.17-1,.28-1.43,0,0,.2-.08.31-.08.45,0,.89.09,1.34.09h5.28c.17,0,.35,0,.63,0-.42.48-.16.86,0,1.24l1.47,3.16c.07-.06.13-.08.15-.13.46-1,.92-2,1.36-3.07a1,1,0,0,0-.1-1.19h1.79c-1.5,1.3-1.93,3.18-2.73,4.84a2.53,2.53,0,0,0-.09,1c0,.72,0,1.43,0,2.15,0,.44.07.82.62.84a.15.15,0,0,1,.08,0l.12.16a12,12,0,0,1-2.4,0c.73-.29.56-.9.6-1.43,0,0,0-.06,0-.09a8.39,8.39,0,0,0-1.33-5.24c-.25-.47-.49-1-.76-1.42a4.88,4.88,0,0,0-.45-.57l-.11,0L84,67.83c-.1-.05-.14-.06-.15-.08-.27-.76-.39-.86-1.23-.87-1.23,0-1.05-.19-1.06,1q0,2.69,0,5.38c0,.42.06.83.06,1.25s.15.56.52.59c.09,0,.17.09.26.13Z"/><path class="cls-2" d="M121.38,75.33a5.81,5.81,0,0,0-.1-.83c-.18-.68-.41-1.34-.6-2a.49.49,0,0,0-.57-.43c-.46,0-.93,0-1.39,0a.46.46,0,0,0-.54.4c-.15.62-.34,1.24-.5,1.86a.78.78,0,0,0,.34,1h-4.43c.68-.35.52-1,.53-1.5q0-3.11,0-6.23c0-.48.08-1-.59-1.19a3.46,3.46,0,0,1,2.17,0c-.75.21-.61.79-.61,1.31q0,3.29,0,6.59c0,.32-.06.68.38.81a1,1,0,0,0,1.29-.43,7.61,7.61,0,0,0,.45-1.22c.67-2.26,1.32-4.53,2-6.79.06-.2.16-.39.24-.59h.13a5,5,0,0,1,.22.51c.71,2.3,1.41,4.6,2.13,6.89.23.72.33,1.56,1.33,1.75l0,.11Zm-1.94-7.15h-.12l-.84,3.26c.58,0,1.08,0,1.58,0,.07,0,.22-.21.2-.29C120,70.15,119.71,69.16,119.44,68.18Z"/><path class="cls-2" d="M105.52,75.34c.55-.29.53-.79.53-1.26q0-3.25,0-6.5c0-.51.1-1.11-.77-1.12l.06-.11a.84.84,0,0,1,.28-.11c1.18,0,2.36,0,3.53.07a3.33,3.33,0,0,1,3,2.49,5.9,5.9,0,0,1-.45,4.89,3.26,3.26,0,0,1-3,1.8c-1,0-2-.06-3-.09A.91.91,0,0,1,105.52,75.34ZM107,70.72h0c0,1.13,0,2.27,0,3.4a.66.66,0,0,0,.54.72,3.22,3.22,0,0,0,2.42-.27,3.09,3.09,0,0,0,1.43-2.45,5.83,5.83,0,0,0-.66-3.84,3.4,3.4,0,0,0-3.3-1.51c-.37,0-.47.22-.46.56C107,68.45,107,69.59,107,70.72Z"/><path class="cls-2" d="M76.84,75.46c-1.92-2.24-3.55-4.69-5.34-7.15,0,.21,0,.32,0,.43q0,2.71.09,5.42c0,.69.05.74.69,1,0,0,.08.07.19.17H70.24c.89-.38.62-1.19.63-1.79.05-2.26,0-4.51,0-6.77A1.89,1.89,0,0,1,71,66.1a44.43,44.43,0,0,1,2.76,3.65c.9,1.23,1.78,2.47,2.73,3.77,0-.18,0-.28,0-.39q0-2.6-.09-5.2c0-.19,0-.39,0-.58,0-.48-.13-.86-.71-.88,0,0-.06-.05-.18-.17a7,7,0,0,1,2.19,0c-.83.3-.59,1-.6,1.53,0,2.18,0,4.36,0,6.54,0,.34,0,.67-.07,1Z"/><path class="cls-2" d="M54.48,70.57a5.2,5.2,0,0,1,1.62-3.72,3.45,3.45,0,0,1,4.95.63,5.14,5.14,0,0,1,.9,3.26,5.29,5.29,0,0,1-1.32,3.66,3.29,3.29,0,0,1-5.34-.5A6,6,0,0,1,54.48,70.57Zm3.64-4a2.21,2.21,0,0,0-1.72.8,3.82,3.82,0,0,0-.85,2.27,6,6,0,0,0,1,4.31,2.37,2.37,0,0,0,2.44.93,2.33,2.33,0,0,0,1.59-1.58,7.09,7.09,0,0,0,0-4.7A2.58,2.58,0,0,0,58.12,66.6Z"/><path class="cls-2" d="M53.84,72.87c0,.31,0,.62,0,.93-.08,1.38-.41,1.66-1.79,1.78a4.6,4.6,0,0,1-5.27-4.08,7.19,7.19,0,0,1,.93-5.37,3.57,3.57,0,0,1,3.1-1.66,19.39,19.39,0,0,1,2.78.35c.1,0,.26.16.26.24,0,.78,0,1.55-.08,2.32,0,0-.06.09-.15.21-.05-.3-.11-.51-.12-.72a2,2,0,0,0-2-1.78c-2.15-.19-3.26.69-3.66,2.84a7,7,0,0,0,.76,5.19,3.36,3.36,0,0,0,3.56,1.7,1.65,1.65,0,0,0,1.41-1.31c.05-.22.12-.44.18-.67Z"/><path class="cls-2" d="M94,75.33c.74-.33.63-1,.64-1.55,0-2.54,0-5.08,0-7.61,0-.62.12-1.31-.93-1.3l.09-.14a1.7,1.7,0,0,1,.41-.1l2.77.07A2,2,0,0,1,98.81,66c.57,1.19.12,3.62-1.21,4.26a5.83,5.83,0,0,1-1.15.33c-.11,0-.23,0-.48-.1.2-.1.27-.17.35-.17a2,2,0,0,0,1.8-1.87,3.3,3.3,0,0,0-.8-2.87,1.44,1.44,0,0,0-1.37-.35c-.12,0-.27.26-.28.42,0,.43,0,.86,0,1.3q0,3.45,0,6.9c0,.21,0,.42,0,.63,0,.4.18.69.64.7.09,0,.18.08.26.21Z"/><path class="cls-2" d="M62.53,66.29h2.21c-.73.34-.53,1-.54,1.53,0,1.48,0,3,0,4.43a4.87,4.87,0,0,0,.27,1.4A1.78,1.78,0,0,0,66.22,75a1.86,1.86,0,0,0,1.7-1.59A16.09,16.09,0,0,0,68.14,71c0-1.22,0-2.45,0-3.67,0-.45,0-.85-.6-.91,0,0-.05-.06-.13-.17h2c-.73.4-.53,1.08-.55,1.67-.06,1.57,0,3.13-.12,4.7a3,3,0,0,1-1,2.2,2.58,2.58,0,0,1-4.32-1.35,11.22,11.22,0,0,1-.25-2.21c0-1.22,0-2.45,0-3.67,0-.52.15-1.14-.78-1.17Z"/><path class="cls-2" d="M40.06,66.07a5.1,5.1,0,0,1,.22.51c.74,2.38,1.47,4.76,2.21,7.14.2.65.38,1.34,1.24,1.49l0,.11H41.83a12.35,12.35,0,0,0-.78-3,.44.44,0,0,0-.34-.22,15,15,0,0,0-1.66,0,.56.56,0,0,0-.39.33c-.2.64-.37,1.29-.53,1.94s-.08.6.42,1H36.48l-.08-.13.18,0a1.11,1.11,0,0,0,.89-.9c.36-1.2.72-2.4,1.07-3.6s.78-2.69,1.18-4a5.1,5.1,0,0,1,.23-.55Zm-1.12,5.37c.58,0,1.08,0,1.58,0,.07,0,.2-.24.18-.34-.11-.49-.26-1-.39-1.47l-.4-1.39h-.12Z"/><path class="cls-2" d="M103.83,70.13l-.12,1.49h-.1a1,1,0,0,1-.09-.22c-.06-.37-.29-.5-.64-.56-1.24-.19-1.28-.16-1.28,1.07,0,.69,0,1.37,0,2.06s.22.82.85.84H103c.64,0,.79-.14,1-.76a.61.61,0,0,1,.16-.26,2.1,2.1,0,0,1-.12,1.43.39.39,0,0,1-.3.14h-3.45c-.05,0-.1,0-.22-.1.72-.33.62-1,.62-1.51,0-2.08,0-4.15,0-6.23,0-.83,0-.84-.83-1.17a2.38,2.38,0,0,1,.5-.14H104l-.13,1.48-.12,0a.52.52,0,0,1-.07-.11c-.21-.68-.3-.75-1-.76h-.36c-.7,0-.7,0-.7.65s0,1.52,0,2.29c0,.38.13.51.5.48Z"/><polygon class="cls-3" points="43.37 51.67 56.82 56.87 56.82 17.78 43.37 35.53 43.37 51.67"/><polygon class="cls-4" points="90.89 48.62 56.82 56.87 56.82 17.78 90.89 39.94 90.89 48.62"/><polygon class="cls-5" points="73.14 57.59 64.53 60.82 64.53 25.31 73.14 30.52 73.14 57.59"/><polygon class="cls-6" points="55.92 57.59 64.53 60.82 64.53 25.31 55.92 30.52 55.92 57.59"/></g></g></svg>