<svg xmlns="http://www.w3.org/2000/svg" viewBox="0 0 131 101"><defs><style>.cls-1{fill:none;stroke:#a7a9ac;stroke-miterlimit:10;opacity:0.66;}.cls-2{fill:#6d6e71;opacity:0.61;}.cls-3{fill:#1b75bc;}.cls-4{fill:#27aae1;}</style></defs><title>brand-img-26</title><g id="Layer_2" data-name="Layer 2"><g id="Layer_1-2" data-name="Layer 1"><path class="cls-1" d="M.5.5v100h130V.5Z"/><path class="cls-2" d="M66.46,92.88l0,0S66.36,93,66.46,92.88Z"/><path class="cls-2" d="M66.41,92.9l0,0C66.58,92.73,66.47,92.84,66.41,92.9Z"/><path class="cls-3" d="M15,52.59a3.53,3.53,0,0,1-2.41-.94,3.38,3.38,0,0,1-.74-1,3.32,3.32,0,0,1-.31-1.29,3,3,0,0,1,0-.8,3.32,3.32,0,0,1,.31-1.29,3.36,3.36,0,0,1,.74-1A3.52,3.52,0,0,1,15,45.25h5v1.38H15a2.07,2.07,0,0,0-2.07,1.94,2.25,2.25,0,0,0,0,.69A2.07,2.07,0,0,0,15,51.21h2a3.48,3.48,0,0,1,1.32.25,3.37,3.37,0,0,1,1.09.7,3.55,3.55,0,0,1,.74,1,3.33,3.33,0,0,1,.31,1.29v.8a3.16,3.16,0,0,1-.28,1.33,3.52,3.52,0,0,1-.76,1.08,3.57,3.57,0,0,1-1.1.73,3.4,3.4,0,0,1-1.34.27H11.81V57.32h5.13A2.09,2.09,0,0,0,19,55.56a1.24,1.24,0,0,1,0-.17,1.25,1.25,0,0,0,0-.17v-.56a2.09,2.09,0,0,0-.64-1.46,2,2,0,0,0-1.46-.61Z"/><path class="cls-3" d="M22.89,42h1.38v3.48h5v1.38h-5v8.58a2,2,0,0,0,.61,1.46,2,2,0,0,0,1.49.61,2.09,2.09,0,0,0,2.07-2.07h1.38a3.5,3.5,0,0,1-.27,1.36,3.28,3.28,0,0,1-.74,1.1,3.78,3.78,0,0,1-1.1.74,3.26,3.26,0,0,1-1.34.28A3.35,3.35,0,0,1,25,58.63a3.49,3.49,0,0,1-1.85-1.85,3.35,3.35,0,0,1-.28-1.36Z"/><path class="cls-3" d="M37.93,45.07a6.83,6.83,0,0,1,2.71.54,6.91,6.91,0,0,1,3.71,3.71A6.84,6.84,0,0,1,44.9,52v6.64H43.49V56.2a6.67,6.67,0,0,1-2.38,2,6.85,6.85,0,0,1-3.18.74,6.73,6.73,0,0,1-2.7-.54,7,7,0,0,1-3.69-3.69A6.73,6.73,0,0,1,31,52a6.83,6.83,0,0,1,.54-2.71,6.94,6.94,0,0,1,3.69-3.71A6.73,6.73,0,0,1,37.93,45.07Zm0,1.41a5.35,5.35,0,0,0-2.15.44A5.8,5.8,0,0,0,34,48.09,5.53,5.53,0,0,0,32.38,52a5.35,5.35,0,0,0,.44,2.15,5.64,5.64,0,0,0,3,3,5.35,5.35,0,0,0,2.15.44,5.53,5.53,0,0,0,3.93-1.63A5.79,5.79,0,0,0,43,54.18,5.35,5.35,0,0,0,43.49,52,5.44,5.44,0,0,0,43,49.86a5.47,5.47,0,0,0-3-3A5.45,5.45,0,0,0,37.93,46.47Z"/><path class="cls-3" d="M54.09,45.2a6.83,6.83,0,0,1,2.71.54,6.91,6.91,0,0,1,3.71,3.71,6.84,6.84,0,0,1,.54,2.71V65.45H59.67V56.33a6.9,6.9,0,0,1-5.58,2.76,6.73,6.73,0,0,1-2.7-.54,7,7,0,0,1-3.69-3.69,6.74,6.74,0,0,1-.54-2.7,6.83,6.83,0,0,1,.54-2.71,6.94,6.94,0,0,1,3.69-3.71A6.73,6.73,0,0,1,54.09,45.2Zm0,1.41a5.35,5.35,0,0,0-2.15.44,5.79,5.79,0,0,0-1.77,1.18,5.53,5.53,0,0,0-1.63,3.93A5.35,5.35,0,0,0,49,54.31a5.64,5.64,0,0,0,3,3,5.35,5.35,0,0,0,2.15.44,5.45,5.45,0,0,0,2.17-.44,5.6,5.6,0,0,0,3-3,5.35,5.35,0,0,0,.44-2.15A5.53,5.53,0,0,0,58,48.23,5.75,5.75,0,0,0,56.26,47,5.45,5.45,0,0,0,54.09,46.61Z"/><path class="cls-4" d="M70.76,45.17a6.73,6.73,0,0,1,2.7.54,7.13,7.13,0,0,1,2.21,1.47,6.91,6.91,0,0,1,2,4.92,6.63,6.63,0,0,1-.54,2.68,7,7,0,0,1-3.69,3.68,6.75,6.75,0,0,1-2.7.54,6.87,6.87,0,0,1-2.54-.47,6.78,6.78,0,0,1-2.11-1.32v7.65H63.82V52.11a6.91,6.91,0,0,1,2-4.92,7.14,7.14,0,0,1,2.21-1.47A6.72,6.72,0,0,1,70.76,45.17Zm0,2.29a4.66,4.66,0,0,0-4.29,6.46,4.46,4.46,0,0,0,1,1.48,4.9,4.9,0,0,0,1.49,1,4.57,4.57,0,0,0,3.61,0,5,5,0,0,0,1.49-1,4.45,4.45,0,0,0,1-1.48,4.67,4.67,0,0,0-1-5.1,4.65,4.65,0,0,0-3.29-1.36Z"/><path class="cls-4" d="M86.62,59a6.74,6.74,0,0,1-2.7-.54,7,7,0,0,1-3.69-3.68,6.63,6.63,0,0,1-.54-2.68,6.91,6.91,0,0,1,2-4.92,7.13,7.13,0,0,1,2.21-1.47,6.95,6.95,0,0,1,5.39,0A6.84,6.84,0,0,1,93,49.4a6.83,6.83,0,0,1,.54,2.71v.4q0,.21-.05.72H82.13a4.34,4.34,0,0,0,.61,1.41,5,5,0,0,0,1,1.12,4.45,4.45,0,0,0,1.32.74,4.5,4.5,0,0,0,1.55.27,2.73,2.73,0,0,0,1.28-.33,5.33,5.33,0,0,0,1.22-.89l1.59,1.59a7.57,7.57,0,0,1-1.93,1.37A4.84,4.84,0,0,1,86.62,59ZM91.11,51a5.35,5.35,0,0,0-.62-1.4,4.46,4.46,0,0,0-1-1.12,4.67,4.67,0,0,0-1.32-.73,4.68,4.68,0,0,0-3.11,0,4.61,4.61,0,0,0-2.33,1.85,4.55,4.55,0,0,0-.61,1.4Z"/><path class="cls-4" d="M99.83,53a3.65,3.65,0,0,1-1.4-.27A3.82,3.82,0,0,1,97.28,52a3.57,3.57,0,0,1-.81-1.1,3.44,3.44,0,0,1-.33-1.38,3.23,3.23,0,0,1,0-.82,3.38,3.38,0,0,1,.33-1.36,3.73,3.73,0,0,1,.81-1.12,3.66,3.66,0,0,1,2.55-1h5.1v2.29h-5.1a1.37,1.37,0,0,0-1,.39,1.85,1.85,0,0,0-.46,1.53,1.44,1.44,0,0,0,.46.94,1.37,1.37,0,0,0,1,.38h1.83a3.59,3.59,0,0,1,1.41.28,3.69,3.69,0,0,1,1.16.76,3.9,3.9,0,0,1,.8,1.12,3.46,3.46,0,0,1,.33,1.38v.74a3.32,3.32,0,0,1-.31,1.42,4.2,4.2,0,0,1-.8,1.16,3.43,3.43,0,0,1-1.17.78,3.76,3.76,0,0,1-1.45.28H96.4V56.44h5.24a1.33,1.33,0,0,0,.92-.35,1.71,1.71,0,0,0,.52-.82v-.11a.29.29,0,0,1,0-.09.29.29,0,0,0,0-.09v-.5a1.49,1.49,0,0,0-.44-1,1.39,1.39,0,0,0-1-.41Z"/><path class="cls-4" d="M114,45.09a6.83,6.83,0,0,1,2.71.54,6.94,6.94,0,0,1,3.71,3.69A6.73,6.73,0,0,1,121,52v6.64h-2.31V57.18a7.07,7.07,0,0,1-2.11,1.29,6.89,6.89,0,0,1-2.54.46,6.64,6.64,0,0,1-2.68-.54,7.18,7.18,0,0,1-2.19-1.47,6.87,6.87,0,0,1-1.49-2.19,6.95,6.95,0,0,1,0-5.39,7,7,0,0,1,3.68-3.69A6.64,6.64,0,0,1,114,45.09Zm0,2.29a4.6,4.6,0,0,0-1.81.36,4.46,4.46,0,0,0-1.47,1,4.91,4.91,0,0,0-1,1.49,4.57,4.57,0,0,0,0,3.61,4.69,4.69,0,0,0,2.47,2.47,4.46,4.46,0,0,0,1.81.37,4.53,4.53,0,0,0,1.83-.37,4.75,4.75,0,0,0,1.47-1,4.7,4.7,0,0,0,1-5.09,4.73,4.73,0,0,0-1-1.49,4.47,4.47,0,0,0-1.47-1A4.67,4.67,0,0,0,114,47.38Z"/></g></g></svg>