<svg xmlns="http://www.w3.org/2000/svg" viewBox="0 0 131 101"><defs><style>.cls-1,.cls-7{fill:none;}.cls-1{stroke:#a7a9ac;}.cls-1,.cls-9{stroke-miterlimit:10;}.cls-2{fill:#6d6e71;}.cls-3{fill:#a7a9ac;}.cls-4,.cls-9{fill:#00aeef;}.cls-5{fill:#f1f2f2;}.cls-10,.cls-6{fill:#fff;}.cls-6,.cls-7{stroke:#231f20;stroke-linecap:round;stroke-linejoin:round;}.cls-6,.cls-7,.cls-9{stroke-width:0.5px;}.cls-8{fill:#12123c;}.cls-9{stroke:#fff;}</style></defs><title>brand-img-25</title><g id="Layer_2" data-name="Layer 2"><g id="Layer_1-2" data-name="Layer 1"><path class="cls-1" d="M.5.5v100h130V.5Z"/><path class="cls-2" d="M66.41,92.55l0,0S66.32,92.62,66.41,92.55Z"/><path class="cls-2" d="M66.37,92.57l0,0C66.54,92.4,66.42,92.51,66.37,92.57Z"/><path class="cls-3" d="M68.17,20.27a92.78,92.78,0,0,0-15,1c-4.8.78-9.57,1.81-14.35,2.76-1.31.26-1.31.3-1.41,1.65A65.37,65.37,0,0,0,38,40.32a56.17,56.17,0,0,0,4.36,15.24A64.06,64.06,0,0,0,49.17,67.3,55.82,55.82,0,0,0,61,79.17c1.78,1.29,3.6,2.52,5.4,3.78a.8.8,0,0,0,1,.08,67,67,0,0,0,12.1-9.62A57.39,57.39,0,0,0,94.45,47.06a63.31,63.31,0,0,0,2-15.43c0-2.26-.13-4.52-.18-6.78,0-.36-.14-.52-.51-.6-2.63-.6-5.24-1.27-7.88-1.83A99.78,99.78,0,0,0,68.17,20.27Z"/><path class="cls-4" d="M78.4,83c.27,3.94-1.75,6.78-5.42,7.63A6.83,6.83,0,0,1,78.4,83Z"/><path class="cls-4" d="M60.33,91.72c-2.79,3.21-5.58,3.92-9,2.4A6.58,6.58,0,0,1,60.33,91.72Z"/><path class="cls-4" d="M55.28,83.09c3.49.49,5.65,3.45,5.54,7.43C57.55,90.16,55.83,87.89,55.28,83.09Z"/><path class="cls-4" d="M73.63,91.65c3.58-1.55,6.48-.78,9,2.38C79.56,95.81,75,94.55,73.63,91.65Z"/><path class="cls-4" d="M45.22,89.9c2.69-2.24,5.63-2.36,8.64-.43C51.85,91.91,48.24,92.12,45.22,89.9Z"/><path class="cls-4" d="M54.59,88.77c-3.08-1.62-3.9-3.49-3.43-7.83C54.2,81.76,55.66,85.09,54.59,88.77Z"/><path class="cls-4" d="M88.57,89.87c-2.35,2.29-6.65,1.8-8.62-.12C82.13,87.51,85.35,87.52,88.57,89.87Z"/><path class="cls-4" d="M82.55,80.86c.62,4-.43,6.5-3.27,7.86A6,6,0,0,1,82.55,80.86Z"/><path class="cls-4" d="M47.64,78.42c2.49,2.58,2.84,5.46,1.06,8C46.28,84,45.93,81.51,47.64,78.42Z"/><path class="cls-4" d="M85.86,87a5.59,5.59,0,0,1,7.78-1.57A5.85,5.85,0,0,1,85.86,87Z"/><path class="cls-4" d="M40.12,85.38c2.86-1.57,5.59-1,7.79,1.53C45.33,88.6,42.25,88,40.12,85.38Z"/><path class="cls-4" d="M86.22,78.4a6.1,6.1,0,0,1-1.14,8C83.32,83.61,83.64,81.14,86.22,78.4Z"/><path class="cls-4" d="M44.53,83.22c-2-2.9-1.87-5.15.24-7.73C46.75,77.35,46.68,80.49,44.53,83.22Z"/><path class="cls-4" d="M36.49,80.59a5.29,5.29,0,0,1,7,2.92C40.26,84.36,38.21,83.51,36.49,80.59Z"/><path class="cls-4" d="M90.22,83.64c1.28-2.89,3.85-4,7-3.17C96.2,83.14,94,84.18,90.22,83.64Z"/><path class="cls-4" d="M88.87,75.35c2.31,2.72,2.42,5.17.46,7.64C87.2,81,87,78.23,88.87,75.35Z"/><path class="cls-4" d="M99.6,75.4a5.09,5.09,0,0,1-6.1,3.75C94.35,76.34,96.39,75.05,99.6,75.4Z"/><path class="cls-4" d="M39,74.09c-1-2.72-.18-4.87,2.47-6.62A5,5,0,0,1,39,74.09Z"/><path class="cls-4" d="M41.22,78.89c-1.3-3.15-.89-5.06,1.43-7.09C44.17,74.44,43.7,76.92,41.22,78.89Z"/><path class="cls-4" d="M92.09,67.37c2.63,1.32,3.43,3.17,3,6.6C92.63,73.36,91.61,71.17,92.09,67.37Z"/><path class="cls-4" d="M38,74.37C34.64,74,33.44,73,32.42,69.66,35.23,69.45,37.21,71.08,38,74.37Z"/><path class="cls-4" d="M92.58,78.8c-2.27-1.56-2.81-4.09-1.51-7C93.35,73.43,93.91,76,92.58,78.8Z"/><path class="cls-4" d="M34.25,75.47c3.05-.4,4.83.66,6.09,3.63A5,5,0,0,1,34.25,75.47Z"/><path class="cls-4" d="M101.4,69.54c-.93,3.33-2.18,4.41-5.46,4.82C96.23,71.44,98,69.81,101.4,69.54Z"/><path class="cls-4" d="M72.1,90l-3.9,1.2,4.15,2.53-.11.72c-3.43-2.9-6.81-3.45-10.14.15l-.23-.77c.58-.4,1.14-.81,1.74-1.18s1.34-.79,2.32-1.37L62,90.09l.07-.58a11.89,11.89,0,0,0,10-.09Z"/><path class="cls-4" d="M93.2,63.56c2.63,1,3.84,3.31,3,5.65C93.59,67.94,92.68,66.21,93.2,63.56Z"/><path class="cls-4" d="M101.67,64.32c-.58,3.24-1.49,4.25-4.33,5C97.52,66.28,98.58,65,101.67,64.32Z"/><path class="cls-4" d="M36.46,69.19c-2.66-.42-3.81-1.69-4.26-4.71C34.79,64.63,36.32,66.31,36.46,69.19Z"/><path class="cls-4" d="M37.53,69.13c-.29-3,.36-4.23,2.83-5.58C41.5,65.49,39.94,68.54,37.53,69.13Z"/><path class="cls-4" d="M97.23,64.73c-2.63-.75-3.75-2.29-3.67-5.05C96,60,97.46,62,97.23,64.73Z"/><path class="cls-4" d="M35.63,64.76c-2.75-1-3.76-2.46-3.61-5.1C34.44,60.1,35.5,61.56,35.63,64.76Z"/><path class="cls-4" d="M97.92,61.34c-1.87-2-2-3.87-.58-6.2C99.27,56.73,99.47,58.94,97.92,61.34Z"/><path class="cls-4" d="M101.74,59.59c.25,2.71-.83,4.3-3.47,5.1C98,62,99,60.45,101.74,59.59Z"/><path class="cls-4" d="M40.21,59.46c0,3.1-1,4.55-3.7,5.28C36.4,62.12,37.41,60.65,40.21,59.46Z"/><path class="cls-4" d="M35.83,61.4a5,5,0,0,1,.36-6.32C37.92,56.78,37.81,59.35,35.83,61.4Z"/><path class="cls-3" d="M99.86,29.71c0,.35-.09.69-.1,1a66.81,66.81,0,0,1-3.9,21.47A65.14,65.14,0,0,1,78.34,78.55a76.64,76.64,0,0,1-10.82,8.21,1,1,0,0,1-1.28,0c-1.82-1.28-3.68-2.51-5.48-3.82A66.15,66.15,0,0,1,43,63.12a64,64,0,0,1-7.85-21.37A66.36,66.36,0,0,1,34,30.69a8.6,8.6,0,0,0-.1-.86V26.9c0-.27.09-.53.1-.8.06-1.25.13-2.5.15-3.75a.69.69,0,0,1,.63-.79c3-.68,6-1.46,9.07-2.09a104.09,104.09,0,0,1,20.22-2.32c.39,0,.77-.06,1.16-.1h1.64c.47,0,.93.09,1.4.1a107.1,107.1,0,0,1,13.78,1.11c5.65.79,11.22,2,16.78,3.28.61.14.76.42.77,1,.06,1.7.16,3.39.24,5.09ZM68,19.3a95.61,95.61,0,0,0-15.41,1.06c-5,.8-9.86,1.86-14.78,2.84-1.35.27-1.35.31-1.45,1.7A67.37,67.37,0,0,0,37,40a57.88,57.88,0,0,0,4.5,15.71,66,66,0,0,0,7,12.1A57.52,57.52,0,0,0,60.68,80c1.84,1.33,3.71,2.6,5.57,3.9a.83.83,0,0,0,1,.08,69,69,0,0,0,12.47-9.91A59.14,59.14,0,0,0,95.13,46.9,65.24,65.24,0,0,0,97.24,31c0-2.33-.13-4.66-.19-7,0-.37-.15-.53-.52-.62-2.71-.62-5.4-1.31-8.12-1.89A102.82,102.82,0,0,0,68,19.3Z"/><path class="cls-5" d="M61.77,36.77c.32.32.61.58.85.87a15.6,15.6,0,0,1,3.59,8.45c.08.75.13,1.5.18,2.25a1.73,1.73,0,0,1-.83,1.73,2.15,2.15,0,0,1-2.24,0c-.09-.05-.18-.12-.37-.24l1,9h-2c0,.22,0,.38,0,.55,0,1.82,0,3.63,0,5.45a1.75,1.75,0,0,1-1.44,1.87A1.79,1.79,0,0,1,58.27,65c0-1.86,0-3.73,0-5.59,0-.16,0-.33,0-.52H56.93c0,.21,0,.39,0,.57,0,1.74,0,3.48,0,5.22a1.86,1.86,0,1,1-3.72.05c0-1.77,0-3.54,0-5.31,0-.17,0-.33,0-.54H50.93c.09-.76.17-1.47.26-2.18q.54-4.21,1.09-8.42c.26-2,.52-4.06.8-6.08a1,1,0,0,0-.36-1,22.65,22.65,0,0,1-6.9-10.87,2.14,2.14,0,0,1,.44-2.21l-3.45-.4L43,26.3l9.1,1-.15,1.4-2.46-.25a18.55,18.55,0,0,0,4,7.85,6.45,6.45,0,0,1,1.15,1.95c1,2.21,1.88,4.44,2.86,6.74Z"/><path class="cls-5" d="M64.25,32.55c0,.1-.06.28-.13.3a15.44,15.44,0,0,1-1.65.56c-.55.14-.78-.17-.6-.7a4.52,4.52,0,0,0,.25-.83,1.47,1.47,0,0,0-.16-.53c-.42.17-.82.27-.74.84H54.06c.19-.71-.48-.74-.9-1l.42-.3c1.17-.8,2.35-1.58,3.51-2.39a.6.6,0,0,1,.77,0c1.28.79,2.58,1.56,3.87,2.34a1.35,1.35,0,0,1,.56,1.58.69.69,0,0,0,0,.08l-.14.68A3.68,3.68,0,0,0,62.9,33c.41-.15.8-.37,1.19-.56Z"/><path class="cls-5" d="M60.65,32.73a3.09,3.09,0,1,1-6.18,0Z"/><path class="cls-5" d="M55.47,36.42h4.8l-2.64,5.1Z"/><path class="cls-5" d="M78,60.9H77.2c-.31,1.3-.67,7.11-1.7,7-.84-.06-1.65-6-1.78-7.06H72.65c-.56,0-.28-.47-.23-1,.17-1.82.24-2.72.35-4.27.22-2.67.32-4.18.41-6.86,0-.09,0-.18,0-.32-.8.18-1.24-.28-1.65-.84-.92-1.23-1.86-2.44-2.79-3.66a1.3,1.3,0,0,1,.49-2.15l6.13-3.22a4.17,4.17,0,0,1,3.39-.45,4,4,0,0,1,1.54.89c1.18,1.14,2.37,2.27,3.55,3.4l.25.22,1.76-1a7.87,7.87,0,0,1,.92,2.28c0,.05-.07.17-.14.21-.7.42-1.39.84-2.11,1.23A1.24,1.24,0,0,1,83,45.08l-1.6-1.52c0,.16,0,.25,0,.35a31.22,31.22,0,0,0,.12,4.92c.32,4.4.17,7.5,1,11.27.12.57.1.78-.49.78h-.53l-.06,0c-.2,1.15-.71,7-1.64,7S78.18,62.1,78,60.9ZM73.73,42.3,71.6,43.42l2.13,2.65Z"/><path class="cls-5" d="M75.38,36l.67,1a3.42,3.42,0,0,1-2.09.42,1.5,1.5,0,0,1-.78-.48c-.31-.35-.26-.49.12-.76a2,2,0,0,0,.81-1.68c0-.84.12-1.68.19-2.53a.6.6,0,0,1,0-.13,11.64,11.64,0,0,0,6.51,0c.06.53.14,1.08.18,1.63,0,.37,0,.75,0,1.13A1.84,1.84,0,0,0,82,36.32a.26.26,0,0,1,.13.39A1.19,1.19,0,0,1,81,37.5a4.13,4.13,0,0,1-1.92-.44l.67-1L79.67,36a2.62,2.62,0,0,1-4.19,0Z"/><path class="cls-5" d="M86.68,36.29a1.94,1.94,0,0,1,.29.43c.35,1,.71,2,1,3a31.27,31.27,0,0,0,2.09,4.85l.81,1.68c.17.37.12.51-.24.66l-1.44.58c-.34.14-.49.07-.6-.3-.49-1.53-1-3.07-1.46-4.6a4.55,4.55,0,0,0-.26-.65L84.7,37.67c-.21-.42-.17-.53.27-.72l1.34-.55Z"/><path class="cls-5" d="M72.61,29.27l-.28-.09c-.19-.05-.42-.06-.43-.33s.22-.3.41-.35l3.29-.8a1.44,1.44,0,0,0,.24-.06,5.87,5.87,0,0,1,4.06.15c1,.26,1.92.48,2.88.71l.07,0,.38.34c-.12.11-.23.27-.38.31-.87.23-1.76.44-2.64.65s-1.46.38-2.19.53a2.2,2.2,0,0,1-.89,0c-1.17-.26-2.33-.56-3.5-.85l-.31,0c0,.67,0,1.32,0,2a.57.57,0,0,0,.14.27.65.65,0,0,1-.08.89.66.66,0,0,1-.87,0,.68.68,0,0,1-.06-.9.88.88,0,0,0,.16-.44C72.62,30.58,72.61,29.93,72.61,29.27Z"/><path class="cls-5" d="M74.5,30.3c.87.21,1.69.43,2.52.59a3,3,0,0,0,1.1,0c.77-.15,1.53-.36,2.3-.54l.24,0a4.54,4.54,0,0,1,0,.89.57.57,0,0,1-.37.36,9.79,9.79,0,0,1-1.94.31,23.36,23.36,0,0,1-3-.18c-.76-.09-.82-.23-.81-1C74.5,30.59,74.5,30.46,74.5,30.3Z"/><path class="cls-6" d="M101.3,23q5.5,1.5,10.88,3.5,0-2-.13-4.09c-.29-.34-.19-.68.23-.78q1.79-1.66,3.64-3.28-6.06-2.28-12.27-4Z"/><path class="cls-7" d="M108.57,20.87q-3.72,1-7.27,2.14"/><path class="cls-6" d="M32.48,22.9q-5.2,1.4-10.3,3.24-.24-1.93-.46-3.87c.29-.34.19-.68-.23-.78q-2-1.59-4.07-3.12,6.28-2.36,12.72-4.1Z"/><path class="cls-6" d="M108.43,20.82a135.27,135.27,0,0,0-83.22-.09l-2.74-8.51a144.21,144.21,0,0,1,88.72.1Z"/><path class="cls-7" d="M25.21,20.73q3.71,1,7.27,2.17"/><path class="cls-8" d="M30.42,13.15l-.65.17-.08-.3a0,0,0,0,0,0,0l-2.17.61a0,0,0,0,0,0,0l.23.81a0,0,0,0,0,0,0l2.15-.6a.75.75,0,0,1,.88.59l.22.82a.75.75,0,0,1-.46.95l-2.12.59a.75.75,0,0,1-.89-.57l-.09-.3.64-.19.09.3a0,0,0,0,0,0,0l2.13-.6a0,0,0,0,0,0,0l-.22-.82a0,0,0,0,0,0,0l-2.14.6a.75.75,0,0,1-.9-.57l-.24-.81a.75.75,0,0,1,.46-1l2.18-.61a.76.76,0,0,1,.89.58Z"/><path class="cls-8" d="M34.06,11.09l.17.74-1.45.35.81,3.27L33,15.6l-.82-3.26-1.45.37L30.49,12Q32.27,11.51,34.06,11.09Z"/><path class="cls-8" d="M36,14.87l-.63.15-.17-.73.64-.15Z"/><path class="cls-8" d="M39.71,9.88l.67-.13L41,13a.75.75,0,0,1-.53.91l-2.14.43a.75.75,0,0,1-.84-.63l-.1-.46.65-.14.1.46a0,0,0,0,0,0,0l2.16-.43a0,0,0,0,0,0,0Z"/><path class="cls-8" d="M43.86,9.14a.75.75,0,0,1,.83.67l.52,3.28-.65.1-.22-1.37-2.24.38.24,1.36-.64.12-.6-3.27a.75.75,0,0,1,.55-.91Zm.35,1.95L44,9.92a0,0,0,0,0,0,0l-2.2.38a0,0,0,0,0,0,0L42,11.48Z"/><path class="cls-8" d="M45.95,9.58a0,0,0,0,0,0,0l.37,2.5a0,0,0,0,0,0,0q1.42-.21,2.85-.39l.1.75-2.83.39a.75.75,0,0,1-.8-.68l-.38-2.5a.75.75,0,0,1,.58-.89q1.46-.22,2.92-.4l.1.75Q47.4,9.37,45.95,9.58Z"/><path class="cls-8" d="M49.29,8.37,50,8.29l.48,4.09-.65.08Z"/><path class="cls-8" d="M53.36,7.93,54,7.86,54.4,12l-.71.07q-1.23-1.4-2.51-2.78l.33,3-.65.07-.47-4.09.73-.08q1.28,1.38,2.52,2.78Z"/><path class="cls-8" d="M58.07,7.56l0,.75-1.48.1.24,3.36-.65,0L56,8.46l-1.48.12-.07-.75Q56.24,7.67,58.07,7.56Z"/><path class="cls-8" d="M61.4,7.4a.75.75,0,0,1,.74.77l.11,3.32-.65,0-.05-1.38-2.26.1.07,1.38-.65,0-.19-3.32a.75.75,0,0,1,.66-.83Zm.11,2,0-1.18a0,0,0,0,0,0,0l-2.22.1a0,0,0,0,0,0,0l.06,1.18Z"/><path class="cls-8" d="M67.2,7.31a.76.76,0,0,1,.7.8V9.22a.76.76,0,0,1-.7.79L65,10h0l0,1.41h-.65l-.07-4.11Q65.72,7.3,67.2,7.31Zm0,.8a0,0,0,0,0,0,0H65a0,0,0,0,0,0,0V9.22a0,0,0,0,0,0,0h2.21a0,0,0,0,0,0,0Z"/><path class="cls-8" d="M71.85,9.31a.76.76,0,0,1-.73.77h-.19l.85,1.25v.19l-.71,0-1-1.44-1.16,0h0l0,1.41h-.65l0-4.11q1.47,0,2.94.06a.76.76,0,0,1,.68.82Zm-.7,0a0,0,0,0,0,0,0l0-1.11a0,0,0,0,0,0,0L69,8.08a0,0,0,0,0,0,0l0,1.11a0,0,0,0,0,0,0Z"/><path class="cls-8" d="M75.77,8.35,73.11,8.2l0,.93,2.13.11,0,.75L73,9.88l0,.93,2.62.14,0,.75q-1.63-.1-3.26-.17l.17-4.12q1.68.07,3.35.18Z"/><path class="cls-8" d="M79.28,7.86a.76.76,0,0,1,.63.86l-.1,1.1a.76.76,0,0,1-.77.73l-2.21-.17h0l-.1,1.41-.65,0,.28-4.1Q77.81,7.73,79.28,7.86Zm0,.8a0,0,0,0,0,0,0L77,8.44a0,0,0,0,0,0,0l-.08,1.11a0,0,0,0,0,0,0l2.2.18a0,0,0,0,0,0,0Z"/><path class="cls-8" d="M83.29,8.27a.75.75,0,0,1,.61.87l-.4,3.3-.65-.08L83,11l-2.25-.25-.14,1.38L80,12.06l.32-3.31A.75.75,0,0,1,81.06,8Zm-.2,2,.14-1.18a0,0,0,0,0,0,0L81,8.78a0,0,0,0,0,0,0L80.83,10Z"/><path class="cls-8" d="M87.9,10.83a.76.76,0,0,1-.81.68l-.19,0,.7,1.34,0,.19-.7-.11L86,11.36l-1.15-.16h0l-.18,1.4L84,12.52l.52-4.08q1.46.19,2.92.4a.76.76,0,0,1,.58.89Zm-.7-.07a0,0,0,0,0,0,0l.16-1.1a0,0,0,0,0,0,0l-2.21-.31a0,0,0,0,0,0,0L85,10.41a0,0,0,0,0,0,0Z"/><path class="cls-8" d="M91.65,9.51a.76.76,0,0,1,.56.91l-.6,3.27L91,13.57l.24-1.36L89,11.83l-.22,1.37-.64-.1.52-3.28a.75.75,0,0,1,.82-.67Zm-.31,2,.21-1.17a0,0,0,0,0,0,0l-2.2-.37a0,0,0,0,0,0,0l-.19,1.17Z"/><path class="cls-8" d="M96.34,10.43l-.16.74-1.45-.3-.67,3.3L93.42,14l.65-3.3-1.46-.28.14-.74Q94.55,10,96.34,10.43Z"/><path class="cls-8" d="M99.6,11.16a.75.75,0,0,1,.5.94l-.6,2.46a.75.75,0,0,1-.86.61l-2.13-.49a.75.75,0,0,1-.51-.92l.53-2.47a.75.75,0,0,1,.86-.63Zm-.78,3.27s0,0,0,0l.59-2.46a0,0,0,0,0,0,0l-2.19-.5a0,0,0,0,0,0,0l-.55,2.47a0,0,0,0,0,0,0Z"/><path class="cls-8" d="M103.89,14.24a.76.76,0,0,1-.89.58l-.19-.05.54,1.41-.05.19-.69-.19q-.32-.82-.64-1.63l-1.13-.29h0l-.35,1.37-.63-.16,1-4q1.44.36,2.87.74a.76.76,0,0,1,.48,1Zm-.69-.15a0,0,0,0,0,0,0l.29-1.07a0,0,0,0,0,0,0l-2.17-.57a0,0,0,0,0,0,0L101,13.48a0,0,0,0,0,0,0Z"/><path class="cls-8" d="M108.66,13.64q-1.2,1-2.37,2l-.44,1.48-.63-.18.43-1.48c-.28-.93-.63-2-.92-2.94l.77.22q.36,1,.7,2l1.68-1.33Z"/><path class="cls-9" d="M94,81.51c4.39-.25,8.92-.58,13.64-1l-5.29-2c-.31-.12-.31-.35,0-.53q2.79-1.64,5.66-3.36c-4.82.49-9.41.87-13.85,1.16Q94.17,78.61,94,81.51Z"/><path class="cls-9" d="M99.28,78.48l-5.26,3"/><path class="cls-9" d="M39.77,81.51c-4.39-.25-8.92-.58-13.64-1l5.29-2c.31-.12.31-.35,0-.53q-2.79-1.64-5.66-3.36c4.82.49,9.41.87,13.85,1.16Q39.61,78.61,39.77,81.51Z"/><path class="cls-9" d="M99.16,78.49a451.28,451.28,0,0,1-64.65,0q-.11-2.91,0-5.81a412,412,0,0,0,64.72,0Q99.27,75.58,99.16,78.49Z"/><path class="cls-9" d="M34.5,78.48l5.26,3"/><path class="cls-10" d="M38.9,74.74l.41,0q0,1.06,0,2.12l-.44,0-1.38-1.65q0,.78,0,1.56l-.41,0q0-1.07,0-2.13l.45,0,1.37,1.65Q38.89,75.52,38.9,74.74Z"/><path class="cls-10" d="M41.46,74.9l.41,0q0,.85,0,1.71a.39.39,0,0,1-.42.38l-1.35-.08a.45.45,0,0,1-.43-.44q0-.86,0-1.71l.41,0q0,.86,0,1.71a0,0,0,0,0,0,0l1.35.08a0,0,0,0,0,0,0Q41.45,75.76,41.46,74.9Z"/><path class="cls-10" d="M44.37,76a.39.39,0,0,1-.42.39h-.12l.54.65v.1l-.43,0-.63-.76-.71,0h0c0,.24,0,.48,0,.73l-.4,0q0-1.06,0-2.11L44,75a.44.44,0,0,1,.42.43C44.38,75.67,44.37,75.86,44.37,76ZM44,76a0,0,0,0,0,0,0c0-.19,0-.38,0-.57a0,0,0,0,0,0,0l-1.34-.07a0,0,0,0,0,0,0c0,.19,0,.38,0,.57a0,0,0,0,0,0,0Z"/><path class="cls-10" d="M46.76,75.19c0,.13,0,.26,0,.39l-.87,0q0,.86,0,1.72l-.4,0q0-.86,0-1.72l-.88,0c0-.13,0-.26,0-.39Z"/><path class="cls-10" d="M48.72,75.27l.39,0q0,.85,0,1.7a.39.39,0,0,1-.41.39l-1.31-.06A.43.43,0,0,1,47,76.9q0-.85,0-1.7l.39,0q0,.85,0,1.7a0,0,0,0,0,0,0l1.31.06a0,0,0,0,0,0,0Q48.71,76.12,48.72,75.27Z"/><path class="cls-10" d="M51.55,76.36a.4.4,0,0,1-.41.39H51l.52.64s0,.07,0,.1h-.42l-.61-.74-.69,0h0c0,.24,0,.48,0,.72l-.39,0q0-1.05,0-2.1l1.71.06a.42.42,0,0,1,.41.42C51.55,76,51.55,76.17,51.55,76.36Zm-.41,0a0,0,0,0,0,0,0c0-.19,0-.38,0-.57a0,0,0,0,0,0,0l-1.3,0a0,0,0,0,0,0,0q0,.28,0,.57a0,0,0,0,0,0,0Z"/><path class="cls-10" d="M51.88,75.39h.39q0,1.05,0,2.1h-.39Q51.87,76.44,51.88,75.39Z"/><path class="cls-10" d="M54.23,75.47h.39q0,1.05,0,2.1h-.42L52.9,76q0,.77,0,1.54h-.38q0-1.05,0-2.1h.42L54.22,77Q54.22,76.24,54.23,75.47Z"/><path class="cls-10" d="M57,76.1h-.38c0-.05,0-.11,0-.16a0,0,0,0,0,0,0l-1.28,0a0,0,0,0,0,0,0c0,.43,0,.86,0,1.29a0,0,0,0,0,0,0l1.28,0a0,0,0,0,0,0,0q0-.2,0-.4h-.47c0-.13,0-.26,0-.39l.85,0c0,.26,0,.52,0,.78a.4.4,0,0,1-.41.4l-1.28,0a.42.42,0,0,1-.4-.42q0-.64,0-1.29a.4.4,0,0,1,.41-.4l1.28,0a.41.41,0,0,1,.4.41C57,76,57,76.05,57,76.1Z"/><path class="cls-10" d="M59.92,75.59a.41.41,0,0,1,.4.41q0,.85,0,1.69h-.38c0-.23,0-.47,0-.71l-1.31,0c0,.23,0,.47,0,.71h-.38q0-.85,0-1.69a.4.4,0,0,1,.4-.4Zm0,1q0-.3,0-.6a0,0,0,0,0,0,0l-1.27,0a0,0,0,0,0,0,0c0,.2,0,.4,0,.6Z"/><path class="cls-10" d="M63.64,75.63q0,1.05,0,2.1h-.38c0-.29,0-.57,0-.86H61.91q0,.43,0,.86h-.38q0-1,0-2.1h.38q0,.43,0,.86h1.35c0-.29,0-.57,0-.86Z"/><path class="cls-10" d="M65.63,75.64A.4.4,0,0,1,66,76q0,.64,0,1.29a.4.4,0,0,1-.4.4H64.36a.4.4,0,0,1-.4-.41q0-.64,0-1.29a.4.4,0,0,1,.4-.4Zm0,1.71a0,0,0,0,0,0,0q0-.64,0-1.29a0,0,0,0,0,0,0H64.37a0,0,0,0,0,0,0q0,.64,0,1.29a0,0,0,0,0,0,0Z"/><path class="cls-10" d="M66.35,75.64h.38q0,.86,0,1.72H68.4c0,.13,0,.26,0,.38H66.35Q66.35,76.69,66.35,75.64Z"/><path class="cls-10" d="M68.6,75.64H69q0,1,0,2.1h-.38Q68.61,76.69,68.6,75.64Z"/><path class="cls-10" d="M71.28,76.19H70.9V76a0,0,0,0,0,0,0H69.61a0,0,0,0,0,0,0c0,.14,0,.29,0,.43a0,0,0,0,0,0,0h1.26a.4.4,0,0,1,.4.4c0,.14,0,.29,0,.43a.41.41,0,0,1-.4.41H69.62a.4.4,0,0,1-.4-.4c0-.05,0-.11,0-.16h.38c0,.05,0,.11,0,.16a0,0,0,0,0,0,0h1.26a0,0,0,0,0,0,0c0-.14,0-.29,0-.43a0,0,0,0,0,0,0H69.62a.4.4,0,0,1-.4-.4c0-.14,0-.29,0-.43a.4.4,0,0,1,.4-.41h1.26a.4.4,0,0,1,.4.4C71.28,76.08,71.28,76.13,71.28,76.19Z"/><path class="cls-10" d="M73.55,75.59c0,.13,0,.26,0,.38h-.84q0,.86,0,1.71h-.38q0-.86,0-1.71h-.84c0-.13,0-.26,0-.38Z"/><path class="cls-10" d="M73.77,75.59h.38q0,1.05,0,2.1h-.38Q73.78,76.64,73.77,75.59Z"/><path class="cls-10" d="M74.8,76a0,0,0,0,0,0,0q0,.64,0,1.29a0,0,0,0,0,0,0l1.67,0c0,.13,0,.26,0,.39l-1.67,0a.39.39,0,0,1-.4-.4q0-.64,0-1.29a.41.41,0,0,1,.4-.41l1.67,0c0,.13,0,.26,0,.39Z"/><path class="cls-10" d="M77.67,75.51H78q0,1.05,0,2.1h-.38Q77.68,76.57,77.67,75.51Z"/><path class="cls-10" d="M80,75.45h.39q0,1.05,0,2.1H80L78.69,76q0,.77,0,1.54h-.38q0-1.05,0-2.1h.42L80,77Q80,76.22,80,75.45Z"/><path class="cls-10" d="M82.42,75.37a.4.4,0,0,1,.42.39q0,.65,0,1.29a.43.43,0,0,1-.41.42l-1.7.05q0-1.05,0-2.1Zm0,.41a0,0,0,0,0,0,0l-1.29,0a0,0,0,0,0,0,0q0,.64,0,1.29a0,0,0,0,0,0,0l1.29,0a0,0,0,0,0,0,0C82.46,76.64,82.45,76.21,82.45,75.78Z"/><path class="cls-10" d="M83.17,75.35h.39q0,1.05,0,2.11h-.39Q83.19,76.4,83.17,75.35Z"/><path class="cls-10" d="M86.12,75.23l.46,0-1.22,2.16H85l-1.24-2.06.45,0,1,1.6Z"/><path class="cls-10" d="M86.8,75.2l.39,0q0,1.05,0,2.11l-.39,0Q86.82,76.25,86.8,75.2Z"/><path class="cls-10" d="M89.2,75.08a.4.4,0,0,1,.43.39q0,.65,0,1.3a.44.44,0,0,1-.42.43l-1.74.08q0-1.05,0-2.11Zm0,.41a0,0,0,0,0,0,0l-1.32.07a0,0,0,0,0,0,0c0,.43,0,.86,0,1.3a0,0,0,0,0,0,0l1.32-.07a0,0,0,0,0,0,0C89.23,76.35,89.23,75.92,89.23,75.49Z"/><path class="cls-10" d="M91.74,74.94l.41,0c0,.57,0,1.14,0,1.71a.45.45,0,0,1-.42.43l-1.34.07a.39.39,0,0,1-.42-.39q0-.85,0-1.71l.4,0q0,.85,0,1.71a0,0,0,0,0,0,0l1.34-.07a0,0,0,0,0,0,0Q91.75,75.79,91.74,74.94Z"/><path class="cls-10" d="M94.28,74.78a.4.4,0,0,1,.44.38q0,.86,0,1.71l-.41,0q0-.36,0-.71l-1.4.09q0,.36,0,.71l-.4,0c0-.57,0-1.14,0-1.71a.44.44,0,0,1,.42-.44Zm0,1c0-.2,0-.41,0-.61a0,0,0,0,0,0,0l-1.36.09a0,0,0,0,0,0,0c0,.2,0,.41,0,.61Z"/><path class="cls-10" d="M95.07,74.72l.41,0q0,.87,0,1.74l1.83-.13c0,.13,0,.26,0,.39l-2.24.15Q95.09,75.79,95.07,74.72Z"/></g></g></svg>