<svg xmlns="http://www.w3.org/2000/svg" viewBox="0 0 131 101"><defs><style>.cls-1{fill:none;stroke:#a7a9ac;opacity:0.66;}.cls-1,.cls-5{stroke-miterlimit:10;}.cls-2{fill:#808285;}.cls-3{fill:#a7a9ac;}.cls-4{fill:#bcbec0;}.cls-5{fill:#d1d3d4;stroke:#e6e7e8;stroke-width:0.5px;}</style></defs><title>brand-img-16 </title><g id="Layer_2" data-name="Layer 2"><g id="Layer_1-2" data-name="Layer 1"><rect class="cls-1" x="0.5" y="0.5" width="130" height="100"/><path class="cls-2" d="M58.67,27.43a54.59,54.59,0,0,1,7.45,1.9c4,1.61,7.85,3.55,11.69,5.51A4.09,4.09,0,0,1,79.29,37c.44,1.22,0,2-1.46,2.18-10.81,1-21.6,2.06-32.41,3A74.18,74.18,0,0,1,18.9,39.32a12.77,12.77,0,0,1-3.55-1.59c17.11,5.24,33.94,3,50.77-1.28-2.32-2.61-7-.2-8.41-5.12-6,6.23-12.77,9.74-21.62,7.55,4.1-1.26,8.51-.9,12.16-4H33.42l16.4-1.81-.11-.89L35.42,33.33l0-.35c3.83-.51,7.65-1.26,11.49-1.46a10.14,10.14,0,0,0,7.65-4.1Z"/><path class="cls-3" d="M85,37.24c-.3.26-.49.55-.76.63-.91.26-1.85.45-2.78.66.33-1.05.34-2.46,1-3.1,2.08-1.87,7.67-1.94,10-.22a4.56,4.56,0,0,1,1.25,2.44c.07.28-.62,1-1.09,1.15-1.32.45-1.63-.65-2-1.55,0-.09-.27-.09-.61-.2l-.32,1.73C88.14,38.26,86.07,39.86,85,37.24Z"/><path class="cls-4" d="M107.12,44.77c-.18.6-6.37-2.06-15.86-2.44-4.32-.17-9.79.63-20.74,2.24-7.44,1.09-9.1,1.53-14.43,2-6.69.63-11.44.62-12.81.61C36,47.16,32,47.14,27,45.59c-5.79-1.82-10.57-4.79-10.37-5.29s3.49.91,8.33,2A79.48,79.48,0,0,0,43.9,44.16c3.81,0,6.38-.16,20.13-1.63,6-.64,11.39-1.52,20.33-2.24a41.78,41.78,0,0,1,11.59.2C102.14,41.61,107.29,44.22,107.12,44.77Z"/><path class="cls-4" d="M111.19,47.62c-.07.29-7.25-2.64-18.5-2.44-4.37.08-9.08.86-18.5,2.44s-9.41,1.9-15,2.64a111.37,111.37,0,0,1-18.91,1c-5.47-.19-9.53-.77-13.82-2.64-2.55-1.11-5.47-2.81-5.29-3.25s5.26,1.48,11,2.64c7.86,1.6,13.92.86,26-.61,3.54-.43,2.62-.43,19.31-2.85,4.57-.66,6.86-1,7.12-1C99,42.14,111.28,47.24,111.19,47.62Z"/><path class="cls-5" d="M10.31,46.83Q11.86,44,14.41,44A4.18,4.18,0,0,1,18,46.15a9.79,9.79,0,0,1,1.41,5.47,15.78,15.78,0,0,1-3,9.4q-3,4.24-6.73,4.24a5.21,5.21,0,0,1-4.39-2.4,10.15,10.15,0,0,1-1.73-6.08,11.9,11.9,0,0,1,2-6.88A6.24,6.24,0,0,1,10.31,46.83Zm-.77,1.49a4.9,4.9,0,0,0-2.82,2.61,10.9,10.9,0,0,0-1,5,9.75,9.75,0,0,0,1.4,5.44,4.17,4.17,0,0,0,3.58,2.14q2.61,0,4.6-3.37a15,15,0,0,0,2-7.79,8.68,8.68,0,0,0-1-4.32,2.86,2.86,0,0,0-2.44-1.75,3.08,3.08,0,0,0-2.55,1.64,6.86,6.86,0,0,0-1.08,3.88,7.63,7.63,0,0,0,.55,2.93,2.44,2.44,0,0,1-1.47-.81A3.51,3.51,0,0,1,8.92,52,12,12,0,0,1,9.54,48.32Z"/><path class="cls-5" d="M80.13,59.9a69.57,69.57,0,0,1-1-11.4,39.48,39.48,0,0,1,.29-4.59,5.53,5.53,0,0,0-2.1.82A10.32,10.32,0,0,0,75.74,47q-3.24,5.47-4.81,8.69l-.27.55-.53,0-.68,0h0a2.46,2.46,0,0,0-2.54,2.31,3.47,3.47,0,0,1,1.69-.64,21.49,21.49,0,0,1-1.68,2.61q-1.41,1.85-2.22,1.85t-.76-2.24a23.68,23.68,0,0,1,.22-3.4l.13-.87a8.7,8.7,0,0,1,.65-2.44h-.29c-.93,0-1.46.32-1.59,1a4.26,4.26,0,0,0-2.45-1c-1.25,0-2.34.81-3.29,2.44a10.16,10.16,0,0,0-1,2.25h0a17.59,17.59,0,0,1-2.38,3.31q-1.94,2.1-3.56,2.1-1.86,0-1.86-3a5.49,5.49,0,0,0,3.72-1.42,4.22,4.22,0,0,0,1.62-3.24,2.61,2.61,0,0,0-.58-1.78,2,2,0,0,0-1.55-.67,4.09,4.09,0,0,0-3.42,2.11A8.32,8.32,0,0,0,47,59a28.46,28.46,0,0,1-1.49,2.75q-.91,1.39-1.81,1.39c-.62,0-.93-.58-.93-1.73A20.33,20.33,0,0,1,43,59.14l1.74-12.31a2.87,2.87,0,0,1-2,.77,3.23,3.23,0,0,1-2-.7v.24q0,2,1.72,2a2.45,2.45,0,0,0,.51-.06l-1.11,7.65a19.67,19.67,0,0,1-3.12,4.71q-1.94,2.1-3.56,2.1-1.86,0-1.86-3A5.49,5.49,0,0,0,37,59.08a4.2,4.2,0,0,0,1.62-3.24A2.59,2.59,0,0,0,38,54.06a1.94,1.94,0,0,0-1.55-.67,4.09,4.09,0,0,0-3.42,2.11,7.69,7.69,0,0,0-.87,1.74,25.5,25.5,0,0,1-3.94,3.95l.1-1a39.69,39.69,0,0,1,1.12-7.66A3.22,3.22,0,0,0,28,52.9a2.27,2.27,0,0,0-.44,1.24,3.75,3.75,0,0,0-2.07-.75q-1.86,0-3.44,2.4A9.35,9.35,0,0,0,20.51,61,3.43,3.43,0,0,0,21,63a1.56,1.56,0,0,0,1.34.76,3.69,3.69,0,0,0,2.47-1.55,10.69,10.69,0,0,0,2.11-3.59l-.26,4q-2,1.56-3.11,2.35a10.45,10.45,0,0,0-2.27,2,3.26,3.26,0,0,0-.61,2,2.57,2.57,0,0,0,.7,1.87,2.41,2.41,0,0,0,1.81.72,4.23,4.23,0,0,0,3.54-2.14,6.93,6.93,0,0,0,1-2.32,22.48,22.48,0,0,0,.4-3.79c0-.13,0-.33,0-.59a35.62,35.62,0,0,0,3.52-3.46,10.82,10.82,0,0,0-.07,1.3,5.88,5.88,0,0,0,.78,3.25A2.44,2.44,0,0,0,34.57,65q2.1,0,4.46-2.45a16.5,16.5,0,0,0,2.43-3.28h0a18,18,0,0,0-.23,2.38,4.76,4.76,0,0,0,.54,2.42,1.6,1.6,0,0,0,1.42.92q1.21,0,2.78-2.29c.31-.45.62-1,.94-1.53a5.29,5.29,0,0,0,.76,2.63A2.44,2.44,0,0,0,49.79,65q2.11,0,4.46-2.45a16.56,16.56,0,0,0,1.64-2c0,.3,0,.61,0,.93A5.91,5.91,0,0,0,56.32,64a1.44,1.44,0,0,0,1.27,1q1,0,2.45-1.9a17.66,17.66,0,0,0,2.37-4.61c0,.87,0,1.56,0,2.07q0,3.69,1.62,3.68c.85,0,1.88-.75,3.07-2.26a21.59,21.59,0,0,0,2.52-4.15h.35l-.31.7a16.3,16.3,0,0,0-1.74,5.8c0,.61.23.92.7.92a1.66,1.66,0,0,0,.74-.19l1.08-.53a2,2,0,0,1-.29-1,14.84,14.84,0,0,1,1.26-5l.2-.52,2.74.07a22.52,22.52,0,0,0,3.34-.25q.86,7.42,2.44,7.42c.45,0,1-.43,1.61-1.27Q80.65,63.08,80.13,59.9Zm-30.49-4c.58-1,1.2-1.49,1.88-1.49s.85.44.85,1.3a3.51,3.51,0,0,1-1.12,2.57,4.09,4.09,0,0,1-2.69,1.23A8.9,8.9,0,0,1,49.64,55.9Zm-15.22,0q.86-1.49,1.88-1.49c.57,0,.85.44.85,1.3A3.51,3.51,0,0,1,36,58.29a4.09,4.09,0,0,1-2.69,1.23A8.9,8.9,0,0,1,34.42,55.9ZM23.74,70.44A1.41,1.41,0,0,1,22.67,70a1.55,1.55,0,0,1-.42-1.12q0-1.52,2.6-3.52c.89-.68,1.47-1.13,1.76-1.37Q26.61,70.44,23.74,70.44ZM25,60.17C24.16,61.38,23.45,62,22.92,62s-.82-.51-.82-1.52a8.63,8.63,0,0,1,1-4c.66-1.27,1.35-1.9,2.09-1.9a2.69,2.69,0,0,1,2.15,1.42A19.39,19.39,0,0,1,25,60.17Zm37.43-3.55q-3,6.43-4.11,6.43t-1-2.07a11,11,0,0,1,.83-4.46c.55-1.25,1.2-1.88,2-1.88a4.45,4.45,0,0,1,2.62,1.41Zm11.87-.15-2-.07.21-.54a38.52,38.52,0,0,1,3.06-6.09q1.15-1.92,1.48-2.49v1q0,3.16.46,8A19.75,19.75,0,0,1,74.33,56.48Z"/><path class="cls-5" d="M69.65,55.81l-.21.42.68,0Z"/><path class="cls-5" d="M97.79,54.5a3.28,3.28,0,0,1-1.14,1.9c-.19-.54-.46-.81-.81-.81q-1,0-2.43,2.77a28.49,28.49,0,0,0-1.59,3.55,8.87,8.87,0,0,0-.68,2.61v.17a1.72,1.72,0,0,1-.82.33c-.51,0-.77-.31-.77-.92,0-.32.09-1.1.27-2.35l.38-2.55c.17-1.11.28-2,.32-2.69a13,13,0,0,1-1.92.1H86.37l-1.27,8.78a15.57,15.57,0,0,0-.19,2.22,2.9,2.9,0,0,0,.2,1.1,3.11,3.11,0,0,1-1.16.34q-.62,0-.62-1a19.48,19.48,0,0,1,.25-2.46l1.32-9h-.15a2.8,2.8,0,0,0-1.95.76,3.21,3.21,0,0,1,.53-1.66,2.12,2.12,0,0,1,1.47-.35h.28l.25-1.69a11.52,11.52,0,0,1,1.6-5,3.8,3.8,0,0,1,3-1.88,1.62,1.62,0,0,1,1.11.41,1.28,1.28,0,0,1,.46,1c0,.4-.32.85-1,1.36Q90.28,48,89.33,48q-1.7,0-2.44,5.06l-.33,2.27h2.62c.5,0,.94,0,1.33,0a1.41,1.41,0,0,0-.19-.47,3.25,3.25,0,0,1,1.28-.37q.52,0,.52.91a27.86,27.86,0,0,1-.37,3l-.43,3a28,28,0,0,1,2.85-5.84q1.43-2.09,2.6-2.09a1,1,0,0,1,.71.32A1.11,1.11,0,0,1,97.79,54.5Z"/><path class="cls-5" d="M101.41,50.54a3.23,3.23,0,0,1-1.44.69h-.11a4.48,4.48,0,0,0-.17,1.29c0,.33.1.5.3.5s.87-.49,1.72-1.46a5.32,5.32,0,0,0,1.17-2.36A6.78,6.78,0,0,1,101.41,50.54Z"/><path class="cls-5" d="M126.89,55.81a26.91,26.91,0,0,1-2.77,4.7q-1.41,1.85-2.21,1.85t-.77-2.24a23.68,23.68,0,0,1,.22-3.4l.13-.87a8.7,8.7,0,0,1,.65-2.44h-.29c-.93,0-1.46.32-1.59,1a4.24,4.24,0,0,0-2.45-1q-1.87,0-3.29,2.44a10,10,0,0,0-1,2.32q-3,5.55-5.32,5.55a1.87,1.87,0,0,1-1.63-1A5.15,5.15,0,0,1,106,60a7.6,7.6,0,0,1,.94-3.74c.62-1.13,1.31-1.7,2.06-1.7s1.29.56,1.29,1.66a1.62,1.62,0,0,1-.08.47c.94-.38,1.4-.94,1.4-1.69a1.4,1.4,0,0,0-.54-1.13,2.12,2.12,0,0,0-1.39-.45A4.48,4.48,0,0,0,106,55.51a7.83,7.83,0,0,0-1.35,3,23.9,23.9,0,0,1-1.75,2.85q-1.56,2.15-2.5,2.15t-.79-1.27a16,16,0,0,1,.22-1.87l.29-2a17.12,17.12,0,0,0,.22-2.26c0-.71-.18-1.07-.56-1.07a6.22,6.22,0,0,0-1.22.31,1.65,1.65,0,0,1,.26,1,27.2,27.2,0,0,1-.37,3.42l-.17,1.13a11,11,0,0,0-.15,1.47,3.38,3.38,0,0,0,.51,2A1.57,1.57,0,0,0,100,65q1.38,0,3.11-2.29a19.32,19.32,0,0,0,1.33-2,6.06,6.06,0,0,0,.9,3.29,2.72,2.72,0,0,0,2.35,1.35q1.74,0,3.77-2.39a18.53,18.53,0,0,0,1.66-2.31q0,.41,0,.84a5.84,5.84,0,0,0,.48,2.58,1.43,1.43,0,0,0,1.27,1q1,0,2.45-1.9a17.66,17.66,0,0,0,2.37-4.61c0,.87,0,1.56,0,2.07q0,3.69,1.62,3.68c.85,0,1.87-.75,3.06-2.26a23.3,23.3,0,0,0,3.17-5.64Zm-7.19.82q-3,6.43-4.11,6.43c-.66,0-1-.69-1-2.07a11,11,0,0,1,.82-4.46c.55-1.25,1.21-1.88,2-1.88A4.45,4.45,0,0,1,120,56.06C119.83,56.38,119.73,56.57,119.71,56.63Z"/></g></g></svg>