<svg xmlns="http://www.w3.org/2000/svg" viewBox="0 0 131 101"><defs><style>.cls-1{fill:none;stroke:#a7a9ac;stroke-miterlimit:10;opacity:0.66;}.cls-2{fill:#58595b;}.cls-3{fill:#a7a9ac;}.cls-4{fill:#f1f2f2;}.cls-5{fill:#5a9040;}.cls-6{fill:#f4f8ed;}.cls-7{fill:#eef1e5;}.cls-8{fill:#5d8f40;}.cls-9{fill:#719d4c;}.cls-10{fill:#e8eedc;}.cls-11{fill:#7ca64a;}.cls-12{fill:#d2ddbd;}.cls-13{fill:#88ae52;}.cls-14{fill:#e5ebda;}.cls-15{fill:#8db252;}.cls-16{fill:#c9d6b4;}.cls-17{fill:#a7c478;}.cls-18{fill:#dfe6d2;}.cls-19{fill:#a7c27c;}.cls-20{fill:#bbcf9a;}.cls-21{fill:#d6dfc7;}.cls-22{fill:#7da64c;}.cls-23{fill:#bcbec0;}.cls-24{fill:#f9f9f9;}.cls-25{fill:#719d49;}.cls-26{fill:#589040;}.cls-27{fill:#628f40;}.cls-28{fill:#6f9d43;}.cls-29{fill:#6b9b44;}.cls-30{fill:#b0c88a;}.cls-31{fill:#b7cb97;}.cls-32{fill:#d2dcc1;}.cls-33{fill:#a7c37b;}.cls-34{fill:#c1cfac;}</style></defs><title>brand-img-11 </title><g id="Layer_2" data-name="Layer 2"><g id="Layer_1-2" data-name="Layer 1"><rect class="cls-1" x="0.5" y="0.5" width="130" height="100"/><path class="cls-2" d="M25.94,37.8c.4.27.81.54,1.21.82A7.6,7.6,0,0,1,30.2,43l0,.06a10.74,10.74,0,0,1,.19,1.57,4.87,4.87,0,0,1-.33,1.64,7.87,7.87,0,0,1-3.37,4.15,12.63,12.63,0,0,1-5.85,1.93,14,14,0,0,1-5.81-.76,12.21,12.21,0,0,1-2.34-1.17,1.27,1.27,0,0,1-.42-.38,1.25,1.25,0,0,1-.26-.41c0-.32-.23-.59-.21-.92,0-.13,0-.26.06-.37a.29.29,0,0,0,0-.27.91.91,0,0,1,0-.54.34.34,0,0,0-.19-.46c-.66-.19-.91-.79-1.32-1.24,0,0-.06-.09-.1-.12s-.29-.26-.44-.21,0,.25,0,.37a2.15,2.15,0,0,0,.55,1.52,2.82,2.82,0,0,1,.52.84,3.6,3.6,0,0,0,.52.73.33.33,0,0,1,.08.24.12.12,0,0,1-.11.08,2.28,2.28,0,0,1-.86-.83,7.1,7.1,0,0,1-1.23-2.33,6.26,6.26,0,0,1,.27-4.33,8.35,8.35,0,0,1,3.59-3.81,11.82,11.82,0,0,1,4.4-1.51,13.65,13.65,0,0,1,6.77.64A10,10,0,0,1,25.94,37.8Z"/><path class="cls-3" d="M64.16,58c0,1.06-.09,2-.13,3s-.07,2.1-.1,3.16c0,.21-.09.24-.27.24H61.3c-.21,0-.28-.06-.25-.28.18-1.52.2-3.05.3-4.58.08-1.2.1-2.4.17-3.6,0-.46,0-.91,0-1.37,0-.22.08-.26.28-.26,1.08,0,2.15,0,3.23,0a.4.4,0,0,1,.39.24l2.14,3.88,1.32,2.41c0-.77.06-1.47.09-2.16.07-1.31.11-2.61.13-3.92,0-.45,0-.45.47-.45h2.17c.21,0,.3,0,.28.28q-.17,2.23-.31,4.45c-.06.91-.1,1.83-.14,2.74s-.05,1.57-.07,2.36c0,.19-.07.26-.26.26H68c-.18,0-.24-.09-.31-.22-1.09-2-2.38-4-3.4-6Z"/><path class="cls-3" d="M56.63,54.6a7.77,7.77,0,0,0-4.08-.33,6,6,0,0,0-3.68,1.92,4.92,4.92,0,0,0-1.13,3.38c0,.22,0,.51.05.81a4.62,4.62,0,0,0,3.51,3.9,8.81,8.81,0,0,0,4.07.15,5.57,5.57,0,0,0,2.86-1.38,5,5,0,0,0,1.55-3.2A4.69,4.69,0,0,0,56.63,54.6Zm-2.85,7.26a2.36,2.36,0,1,1,2.36-2.36A2.36,2.36,0,0,1,53.78,61.86Z"/><path class="cls-3" d="M38.23,54.34c.45,0,.89,0,1.34,0,.2,0,.26.05.25.25-.08,1.09-.16,2.18-.23,3.28a18.88,18.88,0,0,0-.06,3.06c.09,1,.72,1.26,1.43,1.34,1.34.15,2-.49,2.12-1.91.19-1.81.29-3.62.34-5.44,0,0,0-.09,0-.13,0-.45,0-.45.48-.45.84,0,1.68,0,2.52,0,.26,0,.32.08.3.33q-.16,2.08-.31,4.17c0,.65-.05,1.3-.09,1.94a5.85,5.85,0,0,1-.26,1.53A2.84,2.84,0,0,1,44.46,64a7.31,7.31,0,0,1-2.81.62,8,8,0,0,1-3.23-.4,2.91,2.91,0,0,1-1.88-1.47,4,4,0,0,1-.26-1.93q.1-1.21.16-2.41.11-1.91.19-3.82c0-.17.08-.21.24-.21Z"/><path class="cls-3" d="M91.56,64H89.77c-.22,0-.44,0-.52-.27s.07-.43.29-.53.3-.47.26-.77-.12-.43-.14-.65-.17-.32-.41-.32c-.51,0-1,0-1.53,0-.17,0-.22,0-.18-.21.15-.7.14-.7.84-.7.26,0,.51,0,.77,0s.24-.06.19-.26c-.41-1.89-.8-3.77-1.22-5.66-.07-.32.1-.57.15-.86,0-.12.13-.1.2-.1.88,0,1.77,0,2.65,0,.24,0,.24.15.28.3l.69,3.07,1.18,5.33c.09.39.19.76.63.91a.25.25,0,0,1,.18.3.37.37,0,0,1-.26.33,2,2,0,0,1-.53.08Z"/><path class="cls-3" d="M109.35,64H107.5c-.23,0-.41-.06-.47-.29a.41.41,0,0,1,.26-.49.5.5,0,0,0,.3-.62c-.08-.33-.14-.66-.19-1s-.16-.14-.27-.14H105.5c-.18,0-.24,0-.19-.23.17-.68.16-.68.87-.68.23,0,.47,0,.7,0s.29-.05.24-.28c-.21-.91-.4-1.82-.6-2.73s-.4-1.93-.61-2.89a2,2,0,0,1,.14-.89c0-.11.14-.08.21-.08.87,0,1.75,0,2.62,0,.24,0,.25.14.28.29.41,1.82.81,3.64,1.22,5.46.25,1.1.51,2.2.76,3.31a.65.65,0,0,0,.4.49c.18.07.34.18.3.4a.45.45,0,0,1-.46.37c-.32,0-.64,0-1,0Z"/><path class="cls-3" d="M80.09,54.07c0,.22,0,.37-.33.5a1.07,1.07,0,0,0-.14,1.89,12.14,12.14,0,0,0,2,1,3.82,3.82,0,0,1,2,1.86,3.39,3.39,0,0,1-.92,3.95,4.4,4.4,0,0,1-2.43,1c-.17,0-.24,0-.23-.18a.52.52,0,0,0,0-.06c0-.57,0-.56.5-.78a1.06,1.06,0,0,0,.74-.87,1.1,1.1,0,0,0-.55-1.13c-.67-.43-1.44-.67-2.14-1a3.49,3.49,0,0,1-2.13-2.53A3.39,3.39,0,0,1,79,53.75c.26-.07.52-.1.78-.16s.39,0,.32.3A1,1,0,0,0,80.09,54.07Z"/><path class="cls-3" d="M115.05,64H113c-.4,0-.59-.24-.48-.56a.36.36,0,0,1,.3-.25c.36,0,.44-.3.45-.59,0-.62,0-1.23,0-1.85,0-1.83,0-3.66.07-5.49,0-.38-.06-.66-.48-.77a.34.34,0,0,1-.27-.41.41.41,0,0,1,.4-.38c.54-.06,1.08,0,1.63,0s1.21,0,1.82,0c.22,0,.29.05.28.28,0,1.59,0,3.17-.07,4.76,0,1.26,0,2.51-.06,3.77,0,.46.07.56.5.67.23.06.44.17.42.44s-.24.37-.49.4C116.33,64,115.63,64,115.05,64Z"/><path class="cls-3" d="M97.38,53.7h1.69a1,1,0,0,1,.58.12.36.36,0,0,1,0,.65,1.1,1.1,0,0,1-.23.11c-.49.17-.5.18-.51.68,0,2.84-.09,5.68-.12,8.52,0,.22-.08.26-.28.26H95.31L95,64a.38.38,0,0,1-.35-.39.35.35,0,0,1,.31-.39c.37-.06.47-.29.47-.63q0-3.65.12-7.31c0-.36,0-.65-.46-.75a.38.38,0,0,1-.3-.46.39.39,0,0,1,.43-.34h2.14Z"/><path class="cls-3" d="M119,58.91a8.29,8.29,0,0,1,1.18.3,1.73,1.73,0,0,1,1.17,1.68q0,.61,0,1.21c0,.14-.06.34.11.4s.23-.12.33-.21.28-.25.47-.12.32.29.19.54a2.47,2.47,0,0,1-.19.4,2.52,2.52,0,0,1-3.29.76,1.69,1.69,0,0,1-.88-1.52c-.06-.63,0-1.25,0-1.88a1,1,0,0,0-.71-1c-.1,0-.12-.07-.12-.15a2.37,2.37,0,0,0,0-.35c0-.24.05-.35.3-.41a.7.7,0,0,0,.55-.69c0-.78.05-1.55,0-2.33a.86.86,0,0,0-.66-.93c-.17,0-.2-.14-.18-.3.05-.65,0-.64.7-.61a6,6,0,0,1,1.7.2A2.5,2.5,0,0,1,120.82,58a2.34,2.34,0,0,1-1.18.72C119.44,58.75,119.25,58.83,119,58.91Z"/><path class="cls-2" d="M9,45.71l-.13,0c-.28,0-.39.1-.33.39a.41.41,0,0,1-.23.45,3.33,3.33,0,0,0-.59.44.59.59,0,0,0-.13.8l1.3,2.34a9.42,9.42,0,0,1,.61,1.74,14.11,14.11,0,0,1-1.7-2.49q-.38-.57-.73-1.15c-.09-.15-.18-.17-.33-.06a.75.75,0,0,0-.13,1.18c.43.52.88,1,1.32,1.52,1.09,1.26,2.23,2.48,3.22,3.83a3.16,3.16,0,0,1,.67,1.76,1,1,0,0,1-.19.62,8.74,8.74,0,0,1-1.2,1.32.49.49,0,0,1-.57-.07c-.07-.1,0-.13.07-.18A3.21,3.21,0,0,0,10.55,57a2.3,2.3,0,0,0,0-.82,5.48,5.48,0,0,0-1.26-2.56c-1-1.29-2.14-2.45-3.23-3.66-.24-.27-.48-.54-.71-.82a.46.46,0,0,1,0-.69,3,3,0,0,1,1.16-.91s.12-.06.13-.09c0-.42.38-.53.64-.71a1.72,1.72,0,0,0,.84-1.16,1.91,1.91,0,0,1,.68-1c.24,0,.18.12.14.25-.22.34-.2.51.08.78A.12.12,0,0,1,9,45.71Z"/><path class="cls-2" d="M30.54,44.42a1.91,1.91,0,0,1,.9,1.28,1.5,1.5,0,0,0,.67,1c.2.14.4.28.59.43s.23.15.2.33.07.12.14.15a2.87,2.87,0,0,1,1.13.9c.23.3.24.43,0,.74-.7.86-1.48,1.65-2.22,2.46a16.18,16.18,0,0,0-2.5,3.2A3,3,0,0,0,29,57.21a2.25,2.25,0,0,0,.35.64c.09.12.07.15-.07.22a.49.49,0,0,1-.7-.12c-.23-.27-.48-.54-.7-.83A1.3,1.3,0,0,1,27.77,56a4.31,4.31,0,0,1,.93-1.69c1.16-1.44,2.39-2.82,3.63-4.2a5.79,5.79,0,0,0,.75-1,.65.65,0,0,0,0-.72c-.23-.37-.42-.37-.67,0-.65.92-1.17,1.92-1.79,2.86a3.41,3.41,0,0,1-.56.66,11.78,11.78,0,0,1,1.58-3.46l.32-.59A.63.63,0,0,0,31.8,47a2.57,2.57,0,0,0-.42-.34.64.64,0,0,1-.38-.73c0-.14,0-.18-.16-.19s-.36,0-.54-.06a.13.13,0,0,1,.07-.16c.14-.06.35,0,.38-.25a.46.46,0,0,0-.23-.5.28.28,0,0,1-.11-.11C30.43,44.58,30.38,44.44,30.54,44.42Z"/><path class="cls-2" d="M22.67,52.41A4.2,4.2,0,0,0,21,55.18a3.29,3.29,0,0,0,.39,2.12c.35.72.72,1.44,1.14,2.14-.16,0-.29.07-.39-.08a35.65,35.65,0,0,1-2.08-3,3.13,3.13,0,0,1-.31-.85,4.8,4.8,0,0,1-.91,1.82l-1.35,1.82-.13.18a.18.18,0,0,1-.28.06c-.09-.07,0-.15.05-.22a21,21,0,0,0,1.09-2.12A3.73,3.73,0,0,0,17.51,53a7.77,7.77,0,0,0-.57-.58c.09-.1.21-.08.33-.06l.88.12a3.69,3.69,0,0,1,1.63,2.07c.12-.83.87-1.42,1.58-2a5.79,5.79,0,0,1,1.06-.22C22.5,52.28,22.64,52.24,22.67,52.41Z"/><path class="cls-3" d="M102.41,63.35c1.07-.38,1.28-1.34,1.54-2.27q.76-2.68,1.58-5.36c.09.65.44,1.24.23,2-.46,1.5-.85,3-1.27,4.55a.67.67,0,0,0,.39.89l.31.16a.33.33,0,0,1,.19.36.35.35,0,0,1-.27.32,1,1,0,0,1-.28,0h-1.95a.62.62,0,0,1-.54-.21A.27.27,0,0,1,102.41,63.35Z"/><path class="cls-3" d="M87.73,55.74a3.58,3.58,0,0,1,.1,2.55c-.41,1.2-.72,2.43-1.07,3.66a2.6,2.6,0,0,0-.08.44.71.71,0,0,0,.48.83l.09,0c.2.09.35.21.33.45a.39.39,0,0,1-.42.35c-.76,0-1.51,0-2.27,0a.37.37,0,0,1-.36-.31c0-.16,0-.3.13-.35,1.06-.39,1.25-1.34,1.52-2.26C86.69,59.33,87.21,57.55,87.73,55.74Z"/><path class="cls-3" d="M76.47,62.22c0-.43,0-.85,0-1.28a.82.82,0,0,1,.08-.43.39.39,0,0,1,.36-.22.34.34,0,0,1,.34.24c.18.38.25.81.45,1.18a3,3,0,0,0,1.77,1.68c.1,0,.12.09.13.19.06.74,0,.82-.72.61-.31-.09-.62-.22-.92-.34a.57.57,0,0,0-.74.15.42.42,0,0,1-.5.18.47.47,0,0,1-.25-.45,5.21,5.21,0,0,1,0-.76c0-.24,0-.49,0-.73Z"/><path class="cls-2" d="M14.88,63.12c0-.76,0-1.47,0-2.18a1.53,1.53,0,0,1,0-.38c.05-.2.14-.34.4-.25s.73.08.87.28,0,.61,0,.93c0,.86,0,1.72-.06,2.58,0,.18,0,.36.13.5s.11.12,0,.19a.2.2,0,0,1-.2.07l-1.54-.38c-.07,0-.14-.06-.14-.15a.17.17,0,0,1,.13-.16c.32-.11.2-.39.21-.6s-.21-.12-.33-.16l-.24-.07c-.09,0-.24,0-.19-.16s.1-.26.29-.21Z"/><path class="cls-2" d="M24.16,63.33l-.9-2.11c-.19-.44-.14-.54.33-.62.27,0,.58-.23.8-.1s.25.47.36.72l1.12,2.52c.06.13.1.26.25.31s.15,0,.14.14a.2.2,0,0,1-.16.18,3.6,3.6,0,0,1-.43.1l-1.06.2a.23.23,0,0,1-.24-.05c-.06-.08,0-.16.05-.22.21-.24,0-.44-.09-.63s-.22,0-.33,0-.21.06-.31.05-.21.12-.23-.05,0-.29.17-.32Z"/><path class="cls-2" d="M10,62.42a.44.44,0,0,0,.45-.64A4.08,4.08,0,0,0,9.82,61a1.41,1.41,0,0,1,.69-2.3,1.27,1.27,0,0,1,.81,0c.08,0,.23,0,.2.14s-.06.28-.26.26a.34.34,0,0,0-.3.09.43.43,0,0,0-.12.54,8.3,8.3,0,0,0,.62.88A1.42,1.42,0,0,1,9.9,62.82c-.09,0-.3,0-.25-.2S9.78,62.35,10,62.42Z"/><path class="cls-2" d="M29.86,62.68a.24.24,0,0,1-.16.18l-1.39.69c-.09,0-.2.1-.29,0s0-.17.05-.25,0-.23,0-.35l-1.22-2.58c-.07-.14-.13-.26-.32-.24a.16.16,0,0,1-.19-.13c0-.11.08-.14.15-.18l1.17-.59c.2-.11.21.07.26.17.42.87.83,1.74,1.24,2.61.05.11.12.23.17.34a.26.26,0,0,0,.32.19C29.76,62.5,29.85,62.53,29.86,62.68Z"/><path class="cls-3" d="M83.7,55.17q0,.73,0,1.47a1.05,1.05,0,0,1,0,.16.46.46,0,0,1-.43.44.42.42,0,0,1-.46-.39,3.75,3.75,0,0,0-.56-1.3,2.4,2.4,0,0,0-1.32-1c-.21-.06-.25-.16-.25-.36,0-.64,0-.63.65-.49a6.27,6.27,0,0,1,1,.33c.27.11.51.12.69-.17a.36.36,0,0,1,.4-.2.39.39,0,0,1,.3.37A5,5,0,0,1,83.7,55.17Z"/><path class="cls-2" d="M19.11,61h.74c.11,0,.23,0,.26.13s-.07.19-.17.22-.2.18-.2.34c0,1-.07,2.08-.09,3.13,0,.29-.07.43-.4.39s-.7,0-1.05,0c-.1,0-.2,0-.23-.12s0-.18.15-.21.16-.18.16-.31q.06-1.45.12-2.9c0-.13,0-.25-.15-.32s-.19-.09-.15-.21.17-.14.29-.14h.73Z"/><path class="cls-3" d="M102.28,64a9.33,9.33,0,0,1-1.39,0H99.64c-.18,0-.26-.05-.23-.24a.35.35,0,0,0,0-.1c0-.36.07-.55.47-.64A1.84,1.84,0,0,0,101.07,62a5.26,5.26,0,0,0,.46-1.11.88.88,0,0,1,.15-.28.33.33,0,0,1,.39-.14.32.32,0,0,1,.26.31c0,.24,0,.49,0,.73-.05.72,0,1.45,0,2.17C102.31,63.77,102.34,63.88,102.28,64Z"/><path class="cls-2" d="M29.67,60.64c.88-.34,1.16.25,1.4.85.14,0,.11-.08.13-.13s.09-.13.17-.11.13.09.14.19a.94.94,0,0,1-.59.93.77.77,0,0,1-1-.24,3.31,3.31,0,0,1-.35-.67.48.48,0,0,0-.42-.33c-.2,0-.26-.2-.15-.37a.64.64,0,0,0,.08-.13,1.75,1.75,0,0,0-.8-1.28c-.17,0-.18-.13-.21-.23s.09-.12.16-.15a2.69,2.69,0,0,1,.65-.25,1,1,0,0,1,1.11.47,1,1,0,0,1-.16,1.22.84.84,0,0,1-.19.11Z"/><path class="cls-2" d="M14.6,61a1.33,1.33,0,0,1-.21,1c-.27.4-.48.84-.73,1.26-.13.23-.22.44,0,.64a.17.17,0,0,1,.07.2.18.18,0,0,1-.19.09,4.54,4.54,0,0,1-.92-.23.13.13,0,0,1-.1-.14.15.15,0,0,1,.14-.15c.43,0,.57-.4.75-.71C13.84,62.37,14.2,61.71,14.6,61Z"/><path class="cls-2" d="M23.12,61.57c.4.46.2,1,.18,1.45s-.07.7-.11,1a.39.39,0,0,0,.27.47c.09,0,.19.07.19.19s-.13.15-.23.17a4.12,4.12,0,0,1-.75.13c-.08,0-.18,0-.22-.08s0-.16.1-.21a.88.88,0,0,0,.32-.7q.1-1.08.2-2.16C23.08,61.78,23.1,61.68,23.12,61.57Z"/><path class="cls-2" d="M8.64,62c-.33,0-.36,0-.23-.31s.29-.59.43-.88c.06-.12.15-.23.3-.19s.08.19.07.3a1.45,1.45,0,0,0,.25,1.26c.12.12,0,.23,0,.31s-.14,0-.2,0a1,1,0,0,1-.31-.31A.29.29,0,0,0,8.64,62Z"/><path class="cls-2" d="M12,60.26a1.1,1.1,0,0,0-.25-.94c-.13-.14,0-.24,0-.33s.17,0,.25.06.17.16.24.24.17.2.35.13.25.1.19.24c-.13.31-.29.61-.45.9a.23.23,0,0,1-.26.14c-.13,0-.13-.15-.11-.26A1.24,1.24,0,0,0,12,60.26Z"/><path class="cls-3" d="M102.28,64v-2.3a.22.22,0,0,1,.05-.18c0,.53,0,1.05,0,1.58,0,.09-.07.21.07.28-.09.13-.05.28-.07.43Z"/><path class="cls-4" d="M16.49,43.86c.25-.55.5-1.09.73-1.64a.31.31,0,0,1,.32-.23c.37,0,.74,0,1.11-.07a.26.26,0,0,1,.3.19c.45,1,.91,2,1.36,3,.08.18.17.36.24.55s.09.23-.13.23c-.38,0-.76.06-1.13.09-.24-.14-.25-.4-.34-.62-.19-.44-.24-.5-.71-.41-.29.05-.59,0-.86.12a6.8,6.8,0,0,0-.36.84c-.07.15-.15.28-.33.3a5.82,5.82,0,0,0-1.67.33.32.32,0,0,1-.22,0l-2.08.7c-.14,0-.23.08-.28-.11-.25-1.18-.57-2.34-.91-3.5-.07-.24,0-.34.22-.39a3.56,3.56,0,0,0,.72-.23c.2-.08.27,0,.32.17A13.54,13.54,0,0,0,13.29,45a2.42,2.42,0,0,1,.24.72c.06.19.15.25.35.19s.65-.19,1-.32c.48-.19.51-.18.69.32.21-.42.38-.85.56-1.26A2.74,2.74,0,0,1,16.49,43.86Z"/><path class="cls-4" d="M22.2,46.17c-.32,0-.45-.13-.43-.5.05-1.15,0-2.3.06-3.45,0-.36,0-.37.36-.26s.69,0,.79.23a2.51,2.51,0,0,1,0,1c0,.58,0,1.16,0,1.75.37-.73.76-1.46,1.11-2.19.11-.23.23-.3.47-.22a7.1,7.1,0,0,0,.83.2c.15,0,.22.08.19.25a3.66,3.66,0,0,0,0,.51v.19a7.14,7.14,0,0,1,0,1.34,1.31,1.31,0,0,1,0,.44,1.68,1.68,0,0,1,.45-.76,11,11,0,0,0,.81-1.36.32.32,0,0,1,.45-.2c.13,0,.27.07.4.1.49.12.49.12.22.56l-1.5,2.44a.43.43,0,0,1-.12.25,1.54,1.54,0,0,0-.28.42c0,.12-.07.16-.16.19a.42.42,0,0,1-.18,0c-.15-.07-.34,0-.45-.18l-.7-.14a.17.17,0,0,1-.19-.14c0-.17,0-.33,0-.5a8.45,8.45,0,0,1,.08-1.53,8.17,8.17,0,0,1-.76,1.27c-.17.17-.17.51-.41.55a1.8,1.8,0,0,1-.66-.15Z"/><path class="cls-5" d="M16.16,44.63l-.51-.25c-.08,0-.2-.08-.18-.2.06-.32-.17-.3-.35-.28a4.5,4.5,0,0,0-1,.08l-.06-.13c.29,0,.59,0,.7-.36,0,0,.06-.06.08-.1a.36.36,0,0,1,.49-.16c.16.08,0,.26,0,.4.21,0,.42,0,.62.05s.15-.09.08-.17-.06-.17,0-.21.14.05.18.11.17.29.26.43A4.81,4.81,0,0,1,16.16,44.63Z"/><path class="cls-6" d="M17.57,45h-.25a8.61,8.61,0,0,1,1.42-.13c.11,0,.1.09.13.15l.42,1c-.28.06-.52.25-.83.22a.23.23,0,0,0-.13-.14A3.18,3.18,0,0,0,17.57,45Z"/><path class="cls-7" d="M25.44,45.05a9.49,9.49,0,0,1,.12-1.4c.16.3.41.57.32.95C25.79,44.81,25.76,45.08,25.44,45.05Z"/><path class="cls-8" d="M25.44,45.05c.24-.05.3-.29.43-.45l.05.07-.49.91Z"/><path class="cls-9" d="M18.65,40.33c-.11.12-.16.29-.4.21a.19.19,0,0,1-.13-.21c0-.1.11-.05.16,0s.2.06.31,0Z"/><path class="cls-10" d="M11.35,41.8c0,.17.14.4-.25.31l.26-.3Z"/><path class="cls-11" d="M11.5,49.15l.25.27a.09.09,0,0,1-.06.05.72.72,0,0,1-.27-.24Z"/><path class="cls-12" d="M21.4,37.67a.26.26,0,0,1,.29.13s0,.08-.06.08S21.49,37.75,21.4,37.67Z"/><path class="cls-13" d="M12.33,49.94c-.14,0-.18-.1-.27-.17a.15.15,0,0,1,0-.17h0Z"/><path class="cls-14" d="M21.05,37.53c-.14,0-.2-.06-.16-.24l.27.22A.08.08,0,0,1,21.05,37.53Z"/><path class="cls-15" d="M19.68,37.25c.13.08.18.14.13.22s-.05,0-.08,0Z"/><path class="cls-16" d="M18,36.82l-.07.06s0,0,0,0l0,0-.13-.06c.12-.1.25-.06.38-.05C18.22,36.86,18,36.73,18,36.82Z"/><path class="cls-17" d="M21.08,39.25a.35.35,0,0,1-.07.26C20.94,39.4,20.9,39.29,21.08,39.25Z"/><path class="cls-18" d="M19,40.14h-.1c0-.06-.06-.14,0-.19A.12.12,0,0,1,19,40C19.06,40.05,19,40.09,19,40.14Z"/><path class="cls-19" d="M18,36.82c0-.09.15,0,.19-.13s.05,0,.07.05S18.11,36.82,18,36.82Z"/><path class="cls-20" d="M18.64,36.8l-.12-.06a.32.32,0,0,1,.28-.05C18.77,36.78,18.7,36.79,18.64,36.8Z"/><path class="cls-21" d="M26.19,46.46a.35.35,0,0,1,.12-.25C26.36,46.34,26.34,46.43,26.19,46.46Z"/><path class="cls-22" d="M10.79,41a.17.17,0,0,1-.11.18c0-.12,0-.18.11-.25Z"/><path class="cls-23" d="M18.19,52.55l-1.25-.13a5.42,5.42,0,0,0-1-.31,11.59,11.59,0,0,1-4.22-2.22,8.22,8.22,0,0,1-2.14-2.66c-.25-.49-.32-1-.53-1.53l0-.13a2.54,2.54,0,0,1-.13-.77c0-.1.21-.23-.06-.26.12-.08.13-.2.13-.34a6.57,6.57,0,0,1,1.57-4.14A10.53,10.53,0,0,1,14.95,37a11.46,11.46,0,0,1,3.21-.72,15.5,15.5,0,0,1,4.81.27,10.71,10.71,0,0,1,2.84,1.1c.05,0,.12.05.13.13a18.52,18.52,0,0,0-2.63-1,14.59,14.59,0,0,0-4.22-.45A13.5,13.5,0,0,0,14,37.62a9.07,9.07,0,0,0-3.37,2.66,6.33,6.33,0,0,0-1.45,4.08,6.44,6.44,0,0,0,1.64,4.2,5.43,5.43,0,0,0,.63.67c.13,0,.21.13.31.19s.23.2.35.29a1,1,0,0,0,.25.23,3.44,3.44,0,0,0,1,.7,11.94,11.94,0,0,0,4.43,1.5,13.64,13.64,0,0,0,6.47-.62A9.9,9.9,0,0,0,29,48.16a6.2,6.2,0,0,0,1.33-3.65c0-.5-.06-1-.1-1.49a3.68,3.68,0,0,1,.19,1.07c0,.13,0,.25.13.33-.16,0-.05.18-.12.25a1.46,1.46,0,0,1-.06.92l-.07.11a7.45,7.45,0,0,1-2.58,4.14,11.56,11.56,0,0,1-3.45,2,7.47,7.47,0,0,1-1.09.34,1.21,1.21,0,0,0-.51.24c0-.05,0-.08-.07-.07a10.09,10.09,0,0,0-1.26.25,12.09,12.09,0,0,1-2.63.1A1.4,1.4,0,0,1,18.19,52.55Z"/><path class="cls-23" d="M21.08,39.25c.08-.06.32,0,.16-.23a.05.05,0,0,1,0,0c.37,0,.14-.63.58-.64.22,0,0-.2.06-.32.17.07.29.2.5.15s.17.17.23.27c.24.41.47.49.94.31.15-.06.23.08.32.16s.3.35.55.15c0,0,.08,0,.09,0,.16-.22.18-.2.47-.1s.75.37,1.17.13c.09-.05.19,0,.27,0a1.67,1.67,0,0,1,.75.71c.08.17.42.24.25.49-.3.42,0,.76.1,1.13a.33.33,0,0,1,0,.24,3.67,3.67,0,0,1-.41-1.09c0-.11,0-.14-.2-.13s-.2.06-.14.21.17.27-.14.18a.32.32,0,0,0-.42.33,1.16,1.16,0,0,1,0,.29c0,.16,0,.22.17.21s.42,0,.34.35a2.41,2.41,0,0,0,0,.54c0,.19,0,.38-.25.45-.1,0-.1.12-.11.21-.08.4-.29.48-.65.24-.07,0-.09,0-.14,0a.42.42,0,0,1-.08-.42c0-.18,0-.22-.18-.25a4.72,4.72,0,0,1-.65-.15c-.27-.1-.41,0-.52.24-.25.52-.51,1-.77,1.54l-.1.2c-.07.13-.13.33-.29.3s-.11-.25-.12-.39c0-.63,0-1.25.06-1.88,0-.41,0-.43-.4-.51-.57-.13-.57-.13-.56.45,0,.95-.1,1.89-.07,2.84,0,.31,0,.59.33.75,0,.16-.06.38-.2.39s-.2-.21-.27-.35-.08-.24-.14-.35-.06-.4-.35-.35c0,0-.08,0-.1-.07-.18-.35-.49-.34-.81-.31-.16-.06-.2-.21-.26-.35q-.55-1.17-1.06-2.35c-.19-.43-.22-.46-.69-.43a4.29,4.29,0,0,1-.63.06.37.37,0,0,0-.41.28c-.15.39-.33.76-.49,1.14-.06.14-.1.31-.27.38s-.23-.23-.34-.38c-.06.39-.36.23-.57.24s-.31-.06-.31-.29-.14-.15-.26-.11-.17.18-.24.28a.54.54,0,0,1-.73.23c-.23-.14-.12-.36-.11-.54s.21-.1.32-.11c.28,0,.47-.07.29-.41-.06-.11-.05-.22.14-.22a.57.57,0,0,0,.24-.08.08.08,0,0,0,0-.11.07.07,0,0,0-.1-.05c-.1,0-.24.1-.29,0s0-.25.15-.35a.34.34,0,0,0,0-.1c-.25-.1-.23.35-.48.22,0-.67.26-.82.94-.65,0,.15-.27.16-.21.36s0,.4.21.39A.68.68,0,0,0,15.7,42c.12-.15.22-.33.32-.49s0,0,0,0-.4,0-.45-.14.17-.26.27-.39c.34-.45.89-.67,1.22-1.14.19-.27.59-.13.85-.3a.09.09,0,0,1,.08,0c.09.28.39.29.57.46s.16.19.06.32-.22.07-.36.1c.18.15.29,0,.42,0s.21,0,.21-.19.07,0,.1,0l0,0a2.64,2.64,0,0,1,1-.27c.22-.06,0-.17,0-.28.25,0,.44.23.73.29-.13-.24-.35-.44-.14-.7,0,0,0-.13.12-.12s.09.08.13.13,0,.28.19.33l0,0v0A.35.35,0,0,1,21.08,39.25Z"/><path class="cls-23" d="M14.8,46.55a5.66,5.66,0,0,1,1.9-.39c.14,0,.18-.07.22-.18.13-.33.27-.66.4-1,.07-.06.15,0,.23,0,.29.2.41.53.63.78a3.38,3.38,0,0,0,.21.27c0,.06.12.11.08.2s.14.27.34.2a3.6,3.6,0,0,1,.44-.08.93.93,0,0,1-.4.64,2.87,2.87,0,0,0-.56.44c-.06.05-.12.1-.1.18s.11,0,.17.06.22-.06.23.09-.13.11-.21.1-.21.09-.16.23a.38.38,0,0,1-.18.53c-.08,0-.17.11-.15.23s0,.2-.16.21-.11.12-.14.19a.7.7,0,0,1-.86.4.4.4,0,0,1-.22-.17,9.46,9.46,0,0,1-.6-.94c-.08-.16-.19-.31-.08-.5s0-.1,0-.15,0-.06,0-.09C15.51,47.34,15.39,46.77,14.8,46.55Z"/><path class="cls-23" d="M18.64,36.8A13.52,13.52,0,0,0,16.57,38c-.49.41-1,.81-1.44,1.24a7.78,7.78,0,0,1-1.48.75,2.1,2.1,0,0,0-.39.26l-.52.51a.23.23,0,0,1-.08-.34,2.93,2.93,0,0,1,.81-1,1.43,1.43,0,0,0,.47-.5,1.26,1.26,0,0,1,.45-.39,1.37,1.37,0,0,0,.61-.72.65.65,0,0,1,.37-.22h.06s0,0,0,0a0,0,0,0,1,0-.07A2.23,2.23,0,0,1,16.46,37c.24,0,.44-.15.67-.2a3.15,3.15,0,0,1,.68-.1c.06,0,.11,0,.15,0s-.18,0-.24.1,0,0,0,0,.11,0,.17,0a.19.19,0,0,0,.11-.06.69.69,0,0,1,.25,0h.25C18.58,36.72,18.64,36.69,18.64,36.8Z"/><path class="cls-23" d="M11.5,49.15c-.61-.63-.9-1.48-1.47-2.14a1.94,1.94,0,0,1-.27-1.25c0-.12-.17-.25,0-.37s.13-.09.19,0a2.38,2.38,0,0,1,.91.92,1.25,1.25,0,0,0,.73.62c.37.15.48.34.36.73A.59.59,0,0,0,12,48a.45.45,0,0,1,0,.46.84.84,0,0,0,.08.75c.09.16.16.27.07.44l0,0c-.16,0-.2-.14-.31-.19A.53.53,0,0,1,11.5,49.15Z"/><path class="cls-23" d="M16.16,44.63,15.56,46l-.08,0c-.15-.57-.15-.57-.7-.37L13.72,46c-.11,0-.17.06-.21-.08a6.22,6.22,0,0,1-.23-1c.06-.28.33-.37.5-.56s.22-.28.33-.42a2.09,2.09,0,0,1,1.26-.12s.05,0,.06,0C15.53,44.28,15.95,44.35,16.16,44.63Z"/><path class="cls-23" d="M26.07,49.35c-.15-.23-.36-.17-.56-.1s-.11.09-.16.1c-.21,0-.43.28-.61.07s.16-.77.38-.87a1.36,1.36,0,0,0,.56-.34c.22-.27.63-.22.85-.5,0,0,.13,0,.18,0s0,.1,0,.15,0,.14.11.18.11,0,.14-.06l.2-.33a1.27,1.27,0,0,1-1,1.9C26.15,49.49,26.18,49.37,26.07,49.35Z"/><path class="cls-23" d="M10.79,41l.78-.87c0-.05.08-.17.19-.11s0,.12,0,.19-.2.22-.24.37c.12.13.18-.09.32,0-.29.28-.2.7-.35,1,0,.06,0,.12-.12.13h0a.4.4,0,0,0-.41,0c-.13.06,0,.25,0,.38s-.07.28-.27.21a.14.14,0,0,0-.18.06c-.25.32-.5.64-.74,1,0,.07,0,.17-.16.09s-.19-.05-.15-.2a6.88,6.88,0,0,1,1.38-2.77V41s0,.06,0,.09S10.75,41.06,10.79,41Z"/><path class="cls-23" d="M23.58,45.84l.75-1.46v1.73c-.18.14-.14.31,0,.48s.1.09.15.13-.15.45.16.57a.43.43,0,0,1-.06.17c-.06.07-.11,0-.15,0l-.63-.62h.15c.09,0,.18.14.25,0s-.09-.2-.08-.28c0-.36-.25-.5-.47-.68Z"/><path class="cls-23" d="M12,40.18c0-.19.18-.31.08-.49a.26.26,0,0,1,.1-.06.94.94,0,0,0,.75-.68c.07-.4.35-.47.58-.64a.25.25,0,0,1,.38,0c-.38.22-.56.65-.9.92-.12.1,0,.31-.17.35C12.43,39.71,12.26,40,12,40.18Z"/><path class="cls-23" d="M25.13,46.86l.5.13c0,.09.06.1.13,0l.16-.15.23,0c-.09.14-.3.22-.14.41s0,.12-.13.13l-.91.12c-.06,0-.18,0-.14-.07S24.79,46.92,25.13,46.86Z"/><path class="cls-23" d="M26.61,46.88h0c.34.18.72,0,1.06.13.08,0,.27,0,.24.17s-.17.29-.28.25-.53.16-.66-.23C27,47.07,26.62,47.14,26.61,46.88Z"/><path class="cls-23" d="M18.65,48.8c-.15-.4.27-.37.41-.54s.14.08.12.14a5.5,5.5,0,0,1-.26.64.18.18,0,0,1-.22.06C18.57,49,18.66,48.9,18.65,48.8Z"/><path class="cls-23" d="M20.3,38.24c0,.18-.08.2-.15.27-.23.26-.53.5-.39.91,0,0,0,.08,0,.09a.25.25,0,0,1-.15,0c-.06,0-.14-.12-.1-.18.17-.31.18-.73.55-.92C20.12,38.36,20.2,38.29,20.3,38.24Z"/><path class="cls-23" d="M14.87,40.09c-.08.37-.29.47-.81.42A.65.65,0,0,1,14.87,40.09Z"/><path class="cls-23" d="M18.4,37.65c0,.36-.31.33-.49.47.18-.17,0-.56.42-.59C18.39,37.56,18.44,37.58,18.4,37.65Z"/><path class="cls-23" d="M15.38,37.52a.67.67,0,0,1-.37.19c-.16,0-.33.11-.49,0l.88-.28a.21.21,0,0,1,0,.05S15.42,37.5,15.38,37.52Z"/><path class="cls-23" d="M9.42,44.2c0,.33,0,.59.06.83C9.35,44.79,9.18,44.56,9.42,44.2Z"/><path class="cls-23" d="M11.73,39.57a1.5,1.5,0,0,1,.52-.47c.07,0,.07.1.1.16s-.4.08-.48.3A.09.09,0,0,1,11.73,39.57Z"/><path class="cls-23" d="M24.59,47.56a1.16,1.16,0,0,1,.6.08A.63.63,0,0,1,24.59,47.56Z"/><path class="cls-23" d="M14.33,37.88c0,.13-.13.16-.24.2s-.1,0-.08-.06a.33.33,0,0,1,.25-.2C14.32,37.8,14.33,37.83,14.33,37.88Z"/><path class="cls-23" d="M18.4,37.65l-.07-.12.06,0c.11,0,.19-.14.31-.07s0,.06,0,.09S18.52,37.64,18.4,37.65Z"/><path class="cls-23" d="M24,38.33c0,.08,0,.09-.1.09a.27.27,0,0,1-.27-.16s.06-.07.08-.07S23.9,38.21,24,38.33Z"/><path class="cls-23" d="M27,42.81c0-.06-.08-.13,0-.11s.18.06.18.15-.06.11-.15.12S27,42.88,27,42.81Z"/><path class="cls-23" d="M12.36,39.26a.16.16,0,0,1-.1-.16c.07-.08.12-.18.25-.15s-.05.17-.11.25Z"/><path class="cls-23" d="M22.26,46.49a1.05,1.05,0,0,1,.11.18.08.08,0,0,1-.08.1c-.07,0-.09-.09-.09-.15S22.22,46.55,22.26,46.49Z"/><path class="cls-23" d="M11.73,39.57h.14c0,.1,0,.19-.15.18s-.08-.06-.09-.1S11.68,39.57,11.73,39.57Z"/><path class="cls-23" d="M12.39,39.19l.11-.25c.05,0,.12,0,.11.08A.24.24,0,0,1,12.39,39.19Z"/><path class="cls-23" d="M21.05,37.53l.11,0c.07,0,.15.07.11.11S21.11,37.6,21.05,37.53Z"/><path class="cls-17" d="M26.07,49.35c.16,0,.12.1.14.18S26.11,49.42,26.07,49.35Z"/><path class="cls-24" d="M8.87,44.81a1.19,1.19,0,0,1,.13.77C8.69,45.52,8.62,45.1,8.87,44.81Z"/><path class="cls-25" d="M12.06,49.6v.17a1.5,1.5,0,0,1-.38-.3l.06-.05C11.87,49.45,11.93,49.59,12.06,49.6Z"/><path class="cls-26" d="M20.9,40.31a1.37,1.37,0,0,1,.06-.66C21.18,39.87,21,40.06,20.9,40.31Z"/><path class="cls-23" d="M17.62,44.06l.46-1.2c.15.38.28.7.41,1,.06.13,0,.14-.11.15Z"/><path class="cls-27" d="M24.28,46.59c-.12-.1-.22-.2-.17-.37s.1-.17.22-.11A1.36,1.36,0,0,1,24.28,46.59Z"/><path class="cls-28" d="M25.75,47c0,.1-.09.2-.23.2s.09-.16.1-.25Z"/><path class="cls-29" d="M17.57,45a1.51,1.51,0,0,1,.77,1.09Z"/><path class="cls-30" d="M18,36.81v.07l-.35.06C17.69,36.79,17.83,36.84,18,36.81Z"/><path class="cls-31" d="M15.38,37.52v-.08l.24,0C15.53,37.54,15.48,37.62,15.38,37.52Z"/><path class="cls-32" d="M17.25,37c0,.07-.12.07-.24,0l.24-.1s0,0,0,0Z"/><path class="cls-33" d="M17.25,37a.14.14,0,0,1,0-.06l.18,0s0,0,0,.05S17.32,37,17.25,37Z"/><path class="cls-34" d="M16.13,37.28c0-.1.09-.07.16-.07S16.17,37.23,16.13,37.28Z"/></g></g></svg>