<svg xmlns="http://www.w3.org/2000/svg" viewBox="0 0 131 101"><defs><style>.cls-1{fill:none;stroke:#a7a9ac;stroke-miterlimit:10;opacity:0.66;}.cls-2{fill:#be1e2d;}.cls-3{fill:#a7a9ac;}</style></defs><title>brand-img-02</title><g id="Layer_2" data-name="Layer 2"><g id="Layer_1-2" data-name="Layer 1"><rect class="cls-1" x="0.5" y="0.5" width="130" height="100"/><polygon class="cls-2" points="62.65 87.6 62.65 87.59 62.63 87.59 62.65 87.6"/><path class="cls-3" d="M20.13,37.72A13,13,0,1,0,33,50.75,13,13,0,0,0,20.13,37.72Zm6.07,19.12a6.1,6.1,0,0,1-2.4,1.26,13.4,13.4,0,0,1-3.5.38H11.74v-.36a1.15,1.15,0,0,0,.56-.29.79.79,0,0,0,.16-.53v-10L15.81,51v4.93H20a6.47,6.47,0,0,0,3-.56q2.17-1.19,2.17-4.64A5.6,5.6,0,0,0,24,46.92a3.62,3.62,0,0,0-1.58-1A7.87,7.87,0,0,0,20,45.56H16L13.77,43H20.3a11.35,11.35,0,0,1,4.32.65,6.18,6.18,0,0,1,3.19,3.11,9.07,9.07,0,0,1,.82,4A7.61,7.61,0,0,1,26.19,56.84Z"/><polygon class="cls-3" points="26.5 60.39 26.5 60.39 26.5 60.39 26.5 60.39"/><path class="cls-3" d="M45.9,56.41a.06.06,0,0,0-.07.07v4.14a.06.06,0,0,0,.07.07h5.5v1.24H45.9a1.31,1.31,0,0,1-1.32-1.3V56.47a1.31,1.31,0,0,1,1.32-1.3h5.5v1.24Z"/><path class="cls-3" d="M57.87,55.17a1.31,1.31,0,0,1,1.32,1.3v4.14a1.31,1.31,0,0,1-1.32,1.3H53.68a1.31,1.31,0,0,1-1.32-1.3V56.47a1.31,1.31,0,0,1,1.32-1.3Zm0,5.51a.06.06,0,0,0,.06-.07V56.47a.06.06,0,0,0-.06-.07H53.68a.06.06,0,0,0-.07.07v4.14a.06.06,0,0,0,.07.07Z"/><path class="cls-3" d="M66.57,55.17h1.38v6.75H66.68V57l-2.59,3-2.6-3v4.95H60.23V55.17H61.6l2.49,2.92Z"/><path class="cls-3" d="M74.55,55.18a1.32,1.32,0,0,1,1.33,1.3V58.3a1.32,1.32,0,0,1-1.33,1.3H70.29v2.31H69V55.18Zm.07,1.3a.06.06,0,0,0-.07-.07H70.36a.06.06,0,0,0-.07.07V58.3a.06.06,0,0,0,.07.07h4.19a.06.06,0,0,0,.07-.07Z"/><path class="cls-3" d="M82.07,55.17a1.32,1.32,0,0,1,1.33,1.3v5.44H82.14V59.65H77.82v2.27H76.57V56.47a1.31,1.31,0,0,1,1.32-1.3Zm.07,3.24V56.47a.07.07,0,0,0-.07-.07H77.89a.06.06,0,0,0-.07.07v1.94Z"/><path class="cls-3" d="M90.05,55.17h1.26v6.75H89.95L85.73,57v4.95H84.48V55.17h1.37l4.2,4.95Z"/><path class="cls-3" d="M99.58,55.17,96.42,59.4v2.52H95.17V59.4c-1-1.34-2.17-2.89-3.16-4.23H93.5L95.79,58l2.29-2.87Z"/><path class="cls-3" d="M103,55.16h1.25v5.52h5.58v1.24H103Z"/><path class="cls-3" d="M115.41,55.17v1.24h-2.78v5.51h-1.26V56.41h-2.79V55.17Z"/><path class="cls-3" d="M121.65,55.17a1.32,1.32,0,0,1,1.33,1.3v4.14a1.32,1.32,0,0,1-1.33,1.3h-5.5V55.17Zm.07,1.3a.07.07,0,0,0-.07-.07h-4.19a.06.06,0,0,0-.07.07v4.14a.06.06,0,0,0,.07.07h4.19a.07.07,0,0,0,.07-.07Z"/><path class="cls-3" d="M54.22,39.16a2.21,2.21,0,0,1,2.23,2.19v7a2.21,2.21,0,0,1-2.23,2.19H45V39.16Zm.11,2.19a.11.11,0,0,0-.11-.11h-7a.11.11,0,0,0-.11.11v7a.11.11,0,0,0,.11.11h7a.11.11,0,0,0,.11-.11Z"/><path class="cls-3" d="M67.52,39.16a2.21,2.21,0,0,1,2.23,2.19V50.5H67.63V46.69H60.38V50.5h-2.1V41.35a2.2,2.2,0,0,1,2.22-2.19Zm.11,5.45V41.35a.11.11,0,0,0-.11-.11h-7a.11.11,0,0,0-.11.11v3.26Z"/><path class="cls-3" d="M80.94,39.16h2.12V50.5h-2.3l-7.08-8.31V50.5H71.58V39.16h2.3l7.06,8.31Z"/><path class="cls-3" d="M96.25,42.22H94.13v-.87a.11.11,0,0,0-.1-.11H87a.11.11,0,0,0-.11.11v2.33a.11.11,0,0,0,.11.11h7A2.21,2.21,0,0,1,96.25,46v2.33A2.21,2.21,0,0,1,94,50.5H87a2.2,2.2,0,0,1-2.22-2.19v-.87h2.1v.87a.11.11,0,0,0,.11.11h7a.11.11,0,0,0,.1-.11V46a.11.11,0,0,0-.1-.11H87a2.2,2.2,0,0,1-2.22-2.19V41.35A2.2,2.2,0,0,1,87,39.16h7a2.21,2.21,0,0,1,2.22,2.19Z"/><path class="cls-3" d="M109.72,39.16V50.5h-2.1V45.87h-7.53V50.5H98V39.16h2.1v4.63h7.53V39.16Z"/><path class="cls-3" d="M120.87,39.16H123v9.15a2.21,2.21,0,0,1-2.22,2.19h-7a2.2,2.2,0,0,1-2.22-2.19V39.16h2.1v9.15a.11.11,0,0,0,.11.11h7a.11.11,0,0,0,.1-.11Z"/><rect class="cls-3" x="38.08" y="38.94" width="1" height="22.55"/></g></g></svg>