<svg xmlns="http://www.w3.org/2000/svg" viewBox="0 0 131 101"><defs><style>.cls-1{fill:none;stroke:#a7a9ac;stroke-miterlimit:10;opacity:0.66;}.cls-2{fill:#6d6e71;}.cls-3{fill:#808285;}.cls-4{fill:#f59323;}.cls-5{fill:#bcbec0;}</style></defs><title>brand-img-24</title><g id="Layer_2" data-name="Layer 2"><g id="Layer_1-2" data-name="Layer 1"><path class="cls-1" d="M.5.5v100h130V.5Z"/><path class="cls-2" d="M66.41,93.2l0,0S66.32,93.28,66.41,93.2Z"/><path class="cls-2" d="M66.37,93.22l0,0C66.54,93.05,66.42,93.16,66.37,93.22Z"/><path class="cls-3" d="M65.39,42a9.42,9.42,0,0,1,3.78.61A4.45,4.45,0,0,1,72,46.9a4.28,4.28,0,0,1-2.75,4.35,9.32,9.32,0,0,1-7.29,0,4.49,4.49,0,0,1-2.61-5.33c.45-2.33,2.12-3.34,4.28-3.78A17,17,0,0,1,65.39,42Zm3.42,5h0a6.65,6.65,0,0,0,0-.73A2.53,2.53,0,0,0,67,43.82a4.49,4.49,0,0,0-2.77.06,2.37,2.37,0,0,0-1.46,1.46,4.42,4.42,0,0,0-.27,1.71c0,2,.85,3,2.67,3.19,1.66.2,3.22-.34,3.58-2.28C68.78,47.65,68.78,47.32,68.81,47Z"/><path class="cls-4" d="M50.15,51.67c-3,0-5.9-.07-8.85-.15q-3.84-.11-7.69-.19c-2,0-4.09,0-6.13-.12-2.67-.12-5.35-.07-8-.19-3.32-.16-6.65-.1-10-.22L5,50.64c.12-.2.31-.12.46-.13,2.84-.09,5.68-.15,8.51-.27,3.63-.15,7.26-.23,10.89-.38,4.5-.2,9-.27,13.51-.5,2.45-.13,4.9-.16,7.34-.24l4.42-.18A25.89,25.89,0,0,1,50.15,51.67Z"/><path class="cls-4" d="M50.17,45l-4.62-.11-13.67-.31c-4.41-.1-8.82-.18-13.23-.32-3-.09-5.93-.17-8.9-.19-1.53,0-3.05-.23-4.59-.27l1.74-.08c4.57-.14,9.14-.24,13.71-.44,4.07-.17,8.14-.28,12.2-.44,3.61-.14,7.23-.28,10.84-.37,2.17-.06,4.34-.15,6.51-.23Z"/><path class="cls-4" d="M50.17,48.34l-11.53-.27L29,47.85c-4.74-.1-9.47-.22-14.21-.33-3.11-.07-6.23-.12-9.34-.22-.11,0-.22,0-.35-.09C7,47.14,8.85,47,10.73,47c4.78-.15,9.56-.39,14.34-.51,2.74-.07,5.48-.21,8.22-.28,3.87-.1,7.75-.24,11.62-.4,1.75-.07,3.5-.16,5.25-.16Z"/><path class="cls-3" d="M85.54,49.13c0,.68,0,1.36,0,2,0,.19,0,.35-.25.39a15.53,15.53,0,0,1-8-.3,4.47,4.47,0,0,1-2.92-5.75,5,5,0,0,1,3.51-3.09,13.39,13.39,0,0,1,6.34-.18c.41.07.54.24.36.66-.39.94-.45,1-1.43.88a8.86,8.86,0,0,0-3.52.11,3,3,0,0,0-2.27,3.34A3,3,0,0,0,80,50.09a11.56,11.56,0,0,0,2.08.1c.38,0,.5-.15.48-.53,0-.84,0-1.69,0-2.53,0-.31.09-.45.4-.45H85.2c.28,0,.35.12.35.39C85.53,47.76,85.54,48.45,85.54,49.13Z"/><path class="cls-3" d="M118,51.75a13,13,0,0,1-2.87,0,.42.42,0,0,1-.42-.3c-.18-.47-.4-.92-.58-1.39a.39.39,0,0,0-.43-.28q-2.12,0-4.24,0a.37.37,0,0,0-.4.26c-.15.37-.35.73-.47,1.12a.8.8,0,0,1-.86.65,13.18,13.18,0,0,1-2.3-.09l.85-1.78c1.19-2.48,2.39-5,3.58-7.44a.69.69,0,0,1,.65-.44,14,14,0,0,1,2.67,0,.39.39,0,0,1,.35.26Zm-6.36-7.57c-.57,1.31-1.11,2.54-1.65,3.76-.1.24,0,.24.19.24H113c.25,0,.23-.11.16-.27Z"/><path class="cls-3" d="M101.25,51.91a10.51,10.51,0,0,1-4.93-.83A4.34,4.34,0,0,1,93.6,46.9a4.46,4.46,0,0,1,2.81-4.13,9.51,9.51,0,0,1,4.49-.82,13.59,13.59,0,0,1,2.7.26c.56.13.62.21.41.73-.36.89-.44.92-1.39.81a8.74,8.74,0,0,0-3.52.1,3,3,0,0,0-2.28,3.42,2.94,2.94,0,0,0,2.73,2.8,10.28,10.28,0,0,0,3.72-.1.44.44,0,0,1,.58.24c.69,1.18.66,1.27-.64,1.52C102.58,51.87,101.91,51.85,101.25,51.91Z"/><path class="cls-3" d="M50.17,48.34V45q0-1.38,0-2.75A6.43,6.43,0,0,1,53,42.12c.23,0,.12.27.12.41,0,2.32,0,4.63,0,7,0,.45.09.61.57.6,1.39,0,2.79,0,4.18,0,.3,0,.42.09.41.37a.35.35,0,0,0,0,0c.15,1.17.06,1.28-1.1,1.28H50.65c-.17,0-.36.07-.51-.08a25.9,25.9,0,0,0,0-2.73Z"/><path class="cls-3" d="M119.58,46.9c0-1.46,0-2.92,0-4.38,0-.29,0-.42.38-.44a12.23,12.23,0,0,1,2.23,0c.31,0,.35.15.35.42,0,2.35,0,4.7,0,7.05,0,.45.13.53.54.52,1.38,0,2.76,0,4.13,0,.4,0,.5.15.52.5.07,1.2.07,1.2-1.11,1.2-2.17,0-4.35,0-6.52,0-.4,0-.52-.08-.51-.49,0-1.46,0-2.92,0-4.38Z"/><path class="cls-3" d="M88.15,46.94c0-1.48,0-3,0-4.43,0-.29.06-.42.38-.44a11.86,11.86,0,0,1,2.28,0c.25,0,.35.09.35.37q0,4.45,0,8.9c0,.29-.06.42-.39.44a15.88,15.88,0,0,1-2.28,0c-.27,0-.34-.12-.34-.38C88.15,49.92,88.15,48.43,88.15,46.94Z"/><path class="cls-5" d="M121.18,59.06c0-.18-.21-.19-.31-.28a.84.84,0,0,1,0-1.25c.13-.15.18-.23.06-.43a.67.67,0,0,1,.13-.85c.11-.11.17-.18,0-.35a1.24,1.24,0,0,1-.14-1.52,1.36,1.36,0,0,1,1.53-.46,2,2,0,0,0,1,.06c.15,0,.37-.14.38.19s-.22.19-.37.22h-.2c0,.12,0,.21.06.31a1.17,1.17,0,0,1-1.13,1.54,2.71,2.71,0,0,1-.44,0c-.31,0-.52.09-.53.41s.27.36.52.36h.87c.67,0,1.05.25,1.13.7s-.18.89-.76,1.16c-.11,0-.27,0-.31.18Zm1-1.62a1.75,1.75,0,0,0-.76.06.59.59,0,0,0-.37.52.47.47,0,0,0,.24.49,2.07,2.07,0,0,0,1.8-.18.52.52,0,0,0,.19-.52.41.41,0,0,0-.42-.33Zm.73-2.4a.73.73,0,0,0-.83-.79.81.81,0,1,0,.83.79Z"/><path class="cls-5" d="M124.39,59.06c-.07-.33,0-.53.39-.45s1-.91.78-1.13c-.93-.89-.88-2.19-1.44-3.22a1.5,1.5,0,0,1-.09-.31c.36-.12.53,0,.64.35.23.76.51,1.5.76,2.24,0,.12,0,.28.21.28s.18-.2.22-.31c.3-.79.58-1.58.83-2.38a.28.28,0,0,1,.4-.22c.23.07.06.24,0,.35l-1.38,4.13a1.4,1.4,0,0,1-.58.67Z"/><path class="cls-5" d="M104.16,57.47a7.06,7.06,0,0,1-.76-.1c-.14,0-.37,0-.27-.34s.24-.16.37-.12a2.24,2.24,0,0,0,1.38,0,.86.86,0,0,0,.61-.79.79.79,0,0,0-.49-.86c-.36-.17-.74-.32-1.1-.5a1.1,1.1,0,0,1-.66-1.31,1.08,1.08,0,0,1,.87-.92,2.53,2.53,0,0,1,1.39,0c.14,0,.31,0,.24.26s-.14.2-.32.17a2.46,2.46,0,0,0-1.05,0,.75.75,0,0,0-.64.63.7.7,0,0,0,.44.78c.35.17.71.3,1.06.48a1.27,1.27,0,0,1,.76,1.56,1.38,1.38,0,0,1-1.24,1.05Z"/><path class="cls-5" d="M118.78,55.74a8.09,8.09,0,0,1-.87,0c-.35,0-.36.14-.32.4a1,1,0,0,0,.93.89,2.46,2.46,0,0,0,1-.06c.1,0,.22-.11.27.06s.05.23-.11.32A1.77,1.77,0,0,1,117.08,56a2.6,2.6,0,0,1,.11-1.15,1.44,1.44,0,0,1,1.78-1A1.42,1.42,0,0,1,120,55.44c0,.23-.08.31-.31.3S119.08,55.74,118.78,55.74Zm-.22-.39a5.81,5.81,0,0,1,.63,0c.39,0,.4-.16.29-.43a.85.85,0,0,0-.82-.64.93.93,0,0,0-1,.55c-.2.43-.14.51.34.52Z"/><path class="cls-5" d="M113.88,55.95q0,.22,0,.44c0,1,0,1-1,1.06a3.69,3.69,0,0,1-.58,0,.91.91,0,0,1-.93-.87,1,1,0,0,1,.76-1.19,2.24,2.24,0,0,1,1-.08c.28,0,.38,0,.35-.33s-.25-.66-.69-.65c-.26,0-.52,0-.77,0s-.26.07-.3-.13a.2.2,0,0,1,.19-.27,2.83,2.83,0,0,1,1.44,0,.9.9,0,0,1,.6.9c0,.36,0,.71,0,1.07Zm-.47.4c0-.69,0-.69-.59-.68s-1,.27-1,.75.27.62,1,.62S113.41,57,113.41,56.35Z"/><path class="cls-5" d="M107.54,52.92a3,3,0,0,1,0,.39c-.08.49.09.72.61.63.15,0,.35-.05.34.21s-.23.2-.36.18c-.51-.09-.65.11-.6.6a12.11,12.11,0,0,1,0,1.51c0,.43.16.63.6.61.14,0,.34-.12.37.16s-.22.23-.37.24c-.71.08-1-.2-1.05-.91s0-1.23,0-1.85c0-.24,0-.37-.32-.34s-.3,0-.3-.21.18-.2.31-.19.33-.09.3-.31S107.22,53.11,107.54,52.92Z"/><path class="cls-5" d="M115.56,52.93a1.79,1.79,0,0,1,0,.23c0,.52,0,.94.71.78.12,0,.22,0,.22.18s-.07.21-.23.22c-.7.08-.69.08-.69.79,0,.44,0,.87,0,1.31s.14.65.6.6c.16,0,.32-.06.36.18s-.21.2-.32.21c-.76.1-1.08-.19-1.09-1,0-.58,0-1.17,0-1.75,0-.27,0-.45-.36-.4-.15,0-.25,0-.24-.21s.14-.2.27-.18.36-.09.32-.33S115.26,53.13,115.56,52.93Z"/><path class="cls-5" d="M109.72,54.3a1.41,1.41,0,0,1,.82-.39c.15,0,.29,0,.31.2s-.09.2-.23.24c-.77.19-.93.4-.93,1.21,0,.5,0,1,0,1.5,0,.18,0,.31-.25.32s-.23-.15-.23-.32c0-.91,0-1.81,0-2.72,0-.15-.13-.37.14-.44S109.61,54.14,109.72,54.3Z"/></g></g></svg>