<svg xmlns="http://www.w3.org/2000/svg" viewBox="0 0 131 101"><defs><style>.cls-1{fill:none;stroke:#a7a9ac;opacity:0.66;}.cls-1,.cls-3,.cls-4{stroke-miterlimit:10;}.cls-2{fill:#bd2026;}.cls-3{fill:#808285;stroke-width:0.5px;}.cls-3,.cls-4{stroke:#fff;}.cls-4{fill:#939598;}.cls-5{fill:#fff;}.cls-6{fill:#ceccc1;}.cls-7{fill:#a7a9ac;}</style></defs><title>brand-img-01</title><g id="Layer_2" data-name="Layer 2"><g id="Layer_1-2" data-name="Layer 1"><rect class="cls-1" x="0.5" y="0.5" width="130" height="100"/><path class="cls-2" d="M113.87,38.3H30.07L29.78,38V64.49l.29-.29h83.8a12.43,12.43,0,0,0,8.93-3.79,13.08,13.08,0,0,0,3.7-9.16A12.79,12.79,0,0,0,113.87,38.3Z"/><path class="cls-3" d="M125.23,51.26a12,12,0,0,1-12,12H33.28a16.91,16.91,0,1,1,0-24.08h79.91A12,12,0,0,1,125.23,51.26Z"/><circle class="cls-4" cx="21.41" cy="51.26" r="13.35"/><path class="cls-5" d="M27.85,51a4.23,4.23,0,0,1,2.86,4.25A4.78,4.78,0,0,1,29,59.1a5.24,5.24,0,0,1-2,1,10.44,10.44,0,0,1-2.76.31L12,60.38l-.23-.18a7.89,7.89,0,0,0,1.53-.55A1,1,0,0,0,13.5,59V43.77a1,1,0,0,0-.17-.62,11,11,0,0,0-1.72-.43l.35-.27,12.26-.06a10.87,10.87,0,0,1,2.66.26,4.5,4.5,0,0,1,1.77.9,4.45,4.45,0,0,1,1.51,3.62A4,4,0,0,1,27.85,51ZM18.23,49.1h5.07a2.68,2.68,0,0,0,1.61-.36,1.54,1.54,0,0,0,.51-1.28,1.5,1.5,0,0,0-.49-1.26,2.73,2.73,0,0,0-1.64-.38H18.23Zm0,7.84h5a3.72,3.72,0,0,0,2-.41,2,2,0,0,0,0-3.07,3.69,3.69,0,0,0-2-.41h-5Z"/><path class="cls-5" d="M37,43q.45-.07.87-.09l.87,0,.82,0q.42,0,.87.09v8.77a24.27,24.27,0,0,0,.11,2.46,5.23,5.23,0,0,0,.42,1.69,2.12,2.12,0,0,0,.89,1,3.07,3.07,0,0,0,1.49.32,3,3,0,0,0,1.48-.32,2.14,2.14,0,0,0,.88-1,5.24,5.24,0,0,0,.42-1.69,24.43,24.43,0,0,0,.11-2.46V43q.47-.07.89-.09l.82,0,.86,0a8.82,8.82,0,0,1,.88.09v9.5a16.13,16.13,0,0,1-.28,3.14,6.14,6.14,0,0,1-1,2.43,4.76,4.76,0,0,1-2,1.56,7.56,7.56,0,0,1-3.1.55,7.56,7.56,0,0,1-3.1-.55,4.76,4.76,0,0,1-2-1.56,6.14,6.14,0,0,1-1-2.43A16.17,16.17,0,0,1,37,52.52Z"/><path class="cls-5" d="M52.83,43a7.28,7.28,0,0,1,1.39-.14,7.89,7.89,0,0,1,1.46.14l6.54,10.77V43a9.84,9.84,0,0,1,1.62-.14,6.93,6.93,0,0,1,1.41.14v16.9a7.49,7.49,0,0,1-1.36.14,8.08,8.08,0,0,1-1.43-.14L55.86,49.18V59.92a8.3,8.3,0,0,1-1.53.14,7.92,7.92,0,0,1-1.5-.14Z"/><path class="cls-6" d="M68.53,42.95q1.08-.09,2.19-.15T73,42.74a12.5,12.5,0,0,1,2.39.24,6,6,0,0,1,2.19.88,4.82,4.82,0,0,1,1.59,1.8,6.36,6.36,0,0,1,.61,3,6.29,6.29,0,0,1-.61,3,5,5,0,0,1-1.58,1.8,5.73,5.73,0,0,1-2.15.89,12,12,0,0,1-2.34.24h-.58l-.51,0v5.43a8.67,8.67,0,0,1-.87.09l-.82,0-.82,0q-.45,0-.92-.09ZM72,51.65a3.24,3.24,0,0,0,.53,0h.6a4.4,4.4,0,0,0,1.15-.15,2.68,2.68,0,0,0,1-.51,2.46,2.46,0,0,0,.69-.93,3.46,3.46,0,0,0,.26-1.42,3.7,3.7,0,0,0-.26-1.47,2.54,2.54,0,0,0-.69-1,2.6,2.6,0,0,0-1-.52,4.4,4.4,0,0,0-1.15-.15h-.48l-.65.06Z"/><path class="cls-6" d="M84.75,43q.49-.07.94-.11t1,0q.47,0,.92,0l1,.11,5.29,16.9a13,13,0,0,1-1.88.14,10.61,10.61,0,0,1-1.74-.14l-.94-3.38H83.72l-1,3.38a9.91,9.91,0,0,1-1.62.14,10.44,10.44,0,0,1-1.72-.14Zm3.76,10.67-2-7.1-2,7.1Z"/><path class="cls-6" d="M98.86,52.09a10.16,10.16,0,0,1-1.43-.67,4.24,4.24,0,0,1-1.08-.87,3.58,3.58,0,0,1-.69-1.21,5.77,5.77,0,0,1,.16-3.81A4.2,4.2,0,0,1,97,44a5.09,5.09,0,0,1,1.81-.94,8.25,8.25,0,0,1,2.37-.32,11.35,11.35,0,0,1,2.25.21,17.13,17.13,0,0,1,2.2.61,8.38,8.38,0,0,1-.75,2.68l-.72-.28a5.66,5.66,0,0,0-.78-.24,8.65,8.65,0,0,0-.93-.15,10.65,10.65,0,0,0-1.17-.06,4.8,4.8,0,0,0-.81.07,2.24,2.24,0,0,0-.74.26,1.47,1.47,0,0,0-.54.55,1.89,1.89,0,0,0-.21,1,1.7,1.7,0,0,0,.16.79,1.66,1.66,0,0,0,.45.54,2.84,2.84,0,0,0,.63.38l.71.29,1.41.54q.89.35,1.62.73a4.37,4.37,0,0,1,1.23.93,3.91,3.91,0,0,1,.79,1.34,5.81,5.81,0,0,1,.28,1.94A5.36,5.36,0,0,1,105.8,57a4.69,4.69,0,0,1-1.26,1.69,5.93,5.93,0,0,1-2,1.11,8.9,8.9,0,0,1-2.79.4q-.78,0-1.39,0A10.69,10.69,0,0,1,97.17,60a10.38,10.38,0,0,1-1.09-.27q-.54-.16-1.13-.4a10.11,10.11,0,0,1,.26-1.42q.19-.74.45-1.49a12.28,12.28,0,0,0,1.86.6,8.25,8.25,0,0,0,1.86.2,4.23,4.23,0,0,0,2.33-.55,1.87,1.87,0,0,0,.85-1.68,2,2,0,0,0-.2-.94,2.07,2.07,0,0,0-.52-.63,3.11,3.11,0,0,0-.72-.43l-.82-.34Z"/><path class="cls-6" d="M112,45.93h-4.21a7.55,7.55,0,0,1-.14-1.48,7.32,7.32,0,0,1,.14-1.43h11.87a7.32,7.32,0,0,1,.14,1.43,7.55,7.55,0,0,1-.14,1.48h-4.21v14l-.85.08q-.42,0-.82,0l-.86,0q-.46,0-.93-.09Z"/><path class="cls-7" d="M92.75,67.24a1.54,1.54,0,0,1,.13.44,1.74,1.74,0,0,1-.35.09l-.33,0a1.4,1.4,0,0,1-.56-.1,1.1,1.1,0,0,1-.4-.29A1.22,1.22,0,0,1,91,67a1.78,1.78,0,0,1-.08-.55,1.72,1.72,0,0,1,.09-.55,1.29,1.29,0,0,1,.25-.44,1.12,1.12,0,0,1,.4-.29,1.33,1.33,0,0,1,.54-.1l.33,0a1.4,1.4,0,0,1,.33.09.83.83,0,0,1,0,.22l-.08.21-.23-.06-.24,0a.68.68,0,0,0-.55.23,1.07,1.07,0,0,0-.19.69q0,.91.77.91l.24,0Z"/><path class="cls-7" d="M94.26,67.79a1.22,1.22,0,0,1-.52-.1,1,1,0,0,1-.36-.29,1.25,1.25,0,0,1-.21-.44,2,2,0,0,1-.07-.55,2.09,2.09,0,0,1,.07-.55,1.27,1.27,0,0,1,.21-.44,1,1,0,0,1,.36-.29,1.36,1.36,0,0,1,1,0,1,1,0,0,1,.36.29,1.27,1.27,0,0,1,.21.44,2.13,2.13,0,0,1,.07.55,2.08,2.08,0,0,1-.07.55,1.25,1.25,0,0,1-.21.44,1,1,0,0,1-.36.29A1.21,1.21,0,0,1,94.26,67.79Zm0-.46q.58,0,.58-.93a1.36,1.36,0,0,0-.14-.69.47.47,0,0,0-.43-.23q-.59,0-.59.93T94.26,67.34Z"/><path class="cls-7" d="M96,65.06l.29,0,.29,0,.62,1.54.63-1.54L98,65l.27,0,.13,2.68-.27,0-.25,0-.07-1.82-.54,1.26h-.42l-.51-1.29-.05,1.85-.23,0-.25,0Z"/><path class="cls-7" d="M98.93,65.05l.35,0h.35a2,2,0,0,1,.38,0,1,1,0,0,1,.35.14.76.76,0,0,1,.25.29,1.2,1.2,0,0,1,0,.95.78.78,0,0,1-.25.29.91.91,0,0,1-.34.14,2,2,0,0,1-.37,0h-.17v.86h-.54Zm.54,1.38h.18l.18,0a.42.42,0,0,0,.16-.08.39.39,0,0,0,.11-.15.55.55,0,0,0,0-.23.59.59,0,0,0,0-.23.41.41,0,0,0-.11-.15.43.43,0,0,0-.16-.08l-.18,0h-.18Z"/><path class="cls-7" d="M101.5,65.06l.15,0h.3l.16,0,.84,2.68-.3,0-.28,0-.15-.54h-.89l-.15.54-.26,0-.27,0Zm.6,1.69-.31-1.13-.32,1.13Z"/><path class="cls-7" d="M103.25,65.06l.22,0,.23,0,1,1.71V65.06l.26,0,.22,0v2.68l-.22,0-.23,0-1-1.71v1.71l-.24,0-.24,0Z"/><path class="cls-7" d="M106.36,66.79l-.84-1.72.31,0,.28,0,.53,1.22.52-1.22.28,0,.29,0-.84,1.72v1h-.55Z"/><path class="cls-7" d="M108.86,65.06l.26,0,.27,0v2.21h.93s0,.08,0,.12,0,.08,0,.11,0,.08,0,.12,0,.08,0,.12h-1.47Z"/><path class="cls-7" d="M110.87,65.53h-.67a1.23,1.23,0,0,1,0-.24,1.17,1.17,0,0,1,0-.23h1.89a1.18,1.18,0,0,1,0,.23,1.23,1.23,0,0,1,0,.24h-.67v2.22h-.55Z"/><path class="cls-7" d="M112.48,65.06l.33,0h.38a1.5,1.5,0,0,1,1.07.35,1.39,1.39,0,0,1,.37,1.05,1.32,1.32,0,0,1-.37,1,1.62,1.62,0,0,1-1.11.33h-.35l-.32,0Zm.55,2.25h.21a1.22,1.22,0,0,0,.32,0,.58.58,0,0,0,.26-.14.72.72,0,0,0,.17-.28,1.62,1.62,0,0,0,0-.9.71.71,0,0,0-.17-.28.6.6,0,0,0-.25-.15,1,1,0,0,0-.3,0H113Z"/></g></g></svg>