<svg xmlns="http://www.w3.org/2000/svg" viewBox="0 0 131 101"><defs><style>.cls-1{fill:none;stroke:#a7a9ac;stroke-miterlimit:10;opacity:0.66;}.cls-2{fill:#6d6e71;}.cls-3{fill:#bcbec0;}.cls-4{fill:#0393a4;}.cls-5{fill:#a7a9ac;}</style></defs><title>brand-img-22 </title><g id="Layer_2" data-name="Layer 2"><g id="Layer_1-2" data-name="Layer 1"><path class="cls-1" d="M.5.5v100h130V.5Z"/><path class="cls-2" d="M66.41,92.55l0,0S66.32,92.62,66.41,92.55Z"/><path class="cls-2" d="M66.37,92.57l0,0C66.54,92.4,66.42,92.51,66.37,92.57Z"/><path class="cls-3" d="M28.33,55a.84.84,0,0,0-1.14-.3c-.63.4-1.26.78-1.93,1.11-.3.15-.6.31-.9.45l-1,.45a17,17,0,0,1-3.85,1.07,10.16,10.16,0,0,1-2.34,0,6.68,6.68,0,0,1-1.33-.36,6.58,6.58,0,0,1-1.15-.67,7.08,7.08,0,0,1-1.07-1.08,9.23,9.23,0,0,1-1-1.75,7.65,7.65,0,0,1-.42-1.57,8.52,8.52,0,0,1,0-1.92A12.74,12.74,0,0,1,13,47.61a16.56,16.56,0,0,1,.74-1.51,13.29,13.29,0,0,1,1-1.56A13.79,13.79,0,0,1,17,42.33a8.36,8.36,0,0,1,1.83-1.05,11.62,11.62,0,0,1,2.65-.69c.42,0,.83-.09,1.25-.1l1,0c.26,0,.53,0,.79,0l.43,0a1,1,0,0,0,1-.52.83.83,0,0,0,.11-.42.8.8,0,0,0-.24-.59l-.31-.24a1.7,1.7,0,0,0-.28-.15l-.62-.26A6.6,6.6,0,0,0,23,38a9.32,9.32,0,0,0-4.13.39,11.64,11.64,0,0,0-3.08,1.69c-.52.37-1,.75-1.51,1.16a.81.81,0,0,0-.24.59.84.84,0,0,0,.24.59l.08.07a14.27,14.27,0,0,0-2.77,4.27,16.76,16.76,0,0,0-.72,1.93,9.41,9.41,0,0,0-.34,3.86,8.11,8.11,0,0,0,.43,1.78,9.3,9.3,0,0,0,1.84,3,7.31,7.31,0,0,0,1.1,1,6.05,6.05,0,0,0,1.23.68,6.77,6.77,0,0,0,1.7.48,9.59,9.59,0,0,0,1.58.1,13.58,13.58,0,0,0,1.73-.17,15.53,15.53,0,0,0,3.07-.81,25,25,0,0,0,2.64-1.17Q27,56.81,28,56.14a.87.87,0,0,0,.41-.73.81.81,0,0,0-.11-.41ZM21.62,40.56h0Z"/><path class="cls-3" d="M42.79,55.66q-.57-2-1.14-4c-.14-.49-.28-1-.44-1.48l-.34-1c-.06-.17-.12-.35-.18-.52s-.15-.38-.24-.57a2.27,2.27,0,0,0-.28-.43.91.91,0,0,0-.5-.38.83.83,0,0,0-.81.22c-.08.1-.16.2-.24.31a1.54,1.54,0,0,0-.16.47,3.26,3.26,0,0,1-.11.31l-.1.21-.24.45c-.09.16-.2.32-.3.48s-.31.46-.47.68a8.84,8.84,0,0,1-1.33,1.37,5.47,5.47,0,0,1-.92.53,6,6,0,0,1-1.23.31l-.72.06a4.62,4.62,0,0,1-.76,0,4.68,4.68,0,0,1-.81-.2,2.3,2.3,0,0,1-.88-.69,4,4,0,0,1-.32-.56,3.61,3.61,0,0,1-.15-.54,3.89,3.89,0,0,1,0-.59,4.18,4.18,0,0,1,.23-.75,5.73,5.73,0,0,1,.57-1,5.85,5.85,0,0,1,.8-.8,6.55,6.55,0,0,1,1.15-.67,9,9,0,0,1,2-.51,14.26,14.26,0,0,1,3.36,0,10.63,10.63,0,0,1,2.44.65l.57.26a.89.89,0,0,0,.64.08.84.84,0,0,0,.58-1,.81.81,0,0,0-.38-.5,15.17,15.17,0,0,0-1.71-.69,11.28,11.28,0,0,0-2.06-.43,14.78,14.78,0,0,0-3.94,0A7.8,7.8,0,0,0,30.88,46a6.15,6.15,0,0,0-1.35,1.33,6.57,6.57,0,0,0-.91,1.77A3.69,3.69,0,0,0,28.5,51a4,4,0,0,0,.83,1.81,3.83,3.83,0,0,0,1.4,1.1,5.37,5.37,0,0,0,2,.42,6.37,6.37,0,0,0,1-.05c.33,0,.66-.08,1-.15a5.69,5.69,0,0,0,1.79-.72,7,7,0,0,0,1.37-1.14,8.12,8.12,0,0,0,.55-.64q.34-.42.64-.86c.14-.21.28-.42.4-.64.07.2.13.4.19.61.15.5.3,1,.44,1.49q.55,2,1.11,3.93a.84.84,0,0,0,1.64-.23.79.79,0,0,0,0-.22Z"/><path class="cls-3" d="M51,46.62a.84.84,0,0,0-1.14.3q-.45.87-.89,1.74c-.21.41-.38.83-.58,1.25l-.08.17q-.43-.81-.89-1.6c-.27-.47-.55-.93-.84-1.39-.13-.21-.26-.42-.41-.62l-.3-.42a3.54,3.54,0,0,0-.35-.47.84.84,0,0,0-1.18,1.18,32.52,32.52,0,0,1,2.34,3.82c.3.55.58,1.11.87,1.67-.06.25-.12.5-.16.76a8.67,8.67,0,0,0-.1,1,4.88,4.88,0,0,0,.08,1,3.63,3.63,0,0,0,.27.86,3.41,3.41,0,0,0,.56.89,2,2,0,0,0,.36.3,1.62,1.62,0,0,0,.41.22,1.3,1.3,0,0,0,.43.08,2.59,2.59,0,0,0,.42,0l.08,0a.84.84,0,0,0,.37-.22,1.61,1.61,0,0,0,.27-.32,1.37,1.37,0,0,0,.16-.41c0-.11,0-.23,0-.34a1.29,1.29,0,0,0,0-.26,4.1,4.1,0,0,0-.36-1.22c-.1-.25-.2-.5-.31-.74q-.36-.81-.75-1.62c.14-.45.31-.89.48-1.32s.36-.83.57-1.24q.45-.9.91-1.79a.93.93,0,0,0,.11-.43.82.82,0,0,0-.41-.72Zm-1.36,9.05h0Zm-.55.22,0,0,0,0Zm-4.67-9-.06-.07.06.07Z"/><path class="cls-3" d="M66.3,57c-.43-1.08-.85-2.16-1.25-3.25-.33-.91-.63-1.84-.94-2.77-.12-.35-.21-.71-.31-1.07s-.27-.89-.38-1.34c-.2-.84-.42-1.68-.61-2.53l-.53-2.4L62,42.15l-.11-.49a5.46,5.46,0,0,0-.4-1.36.83.83,0,0,0-1.31-.17.8.8,0,0,0-.24.59c.11.88.28,1.75.42,2.63.11.69.21,1.38.3,2.07L60.79,47c0,.4.07.81.08,1.22a.91.91,0,0,0-.23-.11l-.33,0a3.45,3.45,0,0,0-.43,0,5.5,5.5,0,0,0-1,.11,4.29,4.29,0,0,0-.82.25,6.87,6.87,0,0,0-1,.46A8.67,8.67,0,0,0,55.65,50a9.31,9.31,0,0,0-1.27,1.48A6.06,6.06,0,0,0,53.59,53a4,4,0,0,0-.14,2,3.59,3.59,0,0,0,.77,1.65,4,4,0,0,0,.61.6c.13.11.27.2.41.3a3.64,3.64,0,0,0,.58.27,3.16,3.16,0,0,0,.87.19,3.54,3.54,0,0,0,.89,0,4.34,4.34,0,0,0,1.7-.64,5.26,5.26,0,0,0,1.29-1.21,8.79,8.79,0,0,0,.54-.76,7,7,0,0,0,.47-.93,10.76,10.76,0,0,0,.6-1.76,12.62,12.62,0,0,0,.26-1.49h0c.12.41.27.82.4,1.23s.21.66.32,1l.48,1.32c.32.89.68,1.77,1,2.65a.91.91,0,0,0,.38.5.84.84,0,0,0,1.14-.3.91.91,0,0,0,.12-.44.55.55,0,0,0,0-.21Zm-5.42-7.38a15.15,15.15,0,0,1-.1,1.6c-.06.41-.14.82-.23,1.23a9.05,9.05,0,0,1-.43,1.28A7.36,7.36,0,0,1,59.33,55a5.74,5.74,0,0,1-.76.78,4.11,4.11,0,0,1-.62.36,3.87,3.87,0,0,1-.65.18,3.28,3.28,0,0,1-.49,0,3.32,3.32,0,0,1-.52-.14,3.43,3.43,0,0,1-.37-.22,4,4,0,0,1-.45-.44,1.85,1.85,0,0,1-.4-.93,3.42,3.42,0,0,1,0-.58,4.44,4.44,0,0,1,.22-.81,6.85,6.85,0,0,1,.7-1.15,9.35,9.35,0,0,1,1.42-1.41A6.48,6.48,0,0,1,58.58,50a5,5,0,0,1,.94-.25,4.14,4.14,0,0,1,.71,0,.8.8,0,0,0,.65-.12Zm-.24-4,0-.13,0,.13Z"/><path class="cls-3" d="M71.49,57.19c-.3-1.41-.6-2.81-.89-4.22-.23-1.14-.47-2.27-.65-3.42a.84.84,0,0,0-1.67,0,3,3,0,0,0,.05.39l0,.25c0,.14,0,.27.07.41.06.3.11.61.17.91q.18.93.37,1.86c.29,1.43.6,2.85.9,4.27a.84.84,0,0,0,1.53.2.8.8,0,0,0,.11-.41,1.12,1.12,0,0,0,0-.23ZM70,49.7a.61.61,0,0,1,0-.14l0,.14Z"/><path class="cls-4" d="M67.76,38.87a4,4,0,1,0,4,4,4,4,0,0,0-4-4Z"/><path class="cls-3" d="M87,55.55a.67.67,0,0,1-1.32.19c-.13-.5-.27-1-.39-1.48l-.25-1c-.12-.52-.21-1.05-.31-1.58s-.2-1-.31-1.54a16.87,16.87,0,0,0-.85-3,6.37,6.37,0,0,0-.63-1.15,2.65,2.65,0,0,0-.28-.28l0,0c-.07.13-.14.26-.2.39A9.74,9.74,0,0,0,82,47l-.23.78a11.43,11.43,0,0,0-.33,1.58,15.67,15.67,0,0,0-.1,2.38c0,.4,0,.81,0,1.21s.06.88.08,1.31.05.83.07,1.25c0,.14,0,.29,0,.43a2.7,2.7,0,0,1,0,.39,1.08,1.08,0,0,1-.11.36,1.77,1.77,0,0,1-.17.25.69.69,0,0,1-.24.24l-.16.07a.65.65,0,0,1-.52-.07,3,3,0,0,1-.38-.28l-.21-.22-.21-.22-.38-.41c-1-1.07-2-2.17-2.95-3.26-.47-.53-.94-1.07-1.42-1.58l-.56-.6c.1.69.21,1.37.32,2.06q.41,2.53.81,5.07a1.19,1.19,0,0,1,0,.19.63.63,0,0,1-.09.32.68.68,0,0,1-.92.24.64.64,0,0,1-.31-.4l-.29-1.86c-.22-1.38-.46-2.76-.67-4.14-.12-.78-.24-1.57-.36-2.35l-.1-.71-.36-.3a2.51,2.51,0,0,0-.36-.24h0a.67.67,0,0,1,.33-1.26l.17,0a.67.67,0,0,1,1.34.06h0c.05.35.11.7.16,1.05.25.24.5.48.74.73.51.54,1,1.08,1.54,1.64l1.6,1.79c.47.52.93,1,1.41,1.57l.8.87.21.23c0-.05,0-.11,0-.16,0-.25,0-.51,0-.76l-.06-1c0-.56,0-1.11-.06-1.67A13.79,13.79,0,0,1,80,49.81a13,13,0,0,1,.42-2.34l.25-.85c0-.12.08-.24.12-.35s.07-.22.12-.32c.11-.26.21-.54.34-.8l.14-.26a1.38,1.38,0,0,1,.21-.29,1.55,1.55,0,0,1,.28-.2,1.48,1.48,0,0,1,.34-.13,1.15,1.15,0,0,1,.54,0,1.53,1.53,0,0,1,.36.14,2.58,2.58,0,0,1,.58.46A4.81,4.81,0,0,1,84.51,46a13.53,13.53,0,0,1,1,3c.1.43.18.86.27,1.29.15.76.29,1.51.44,2.27.06.33.15.66.23,1,.14.61.31,1.22.47,1.83A.7.7,0,0,1,87,55.55Z"/><path class="cls-3" d="M97.59,51.08a6,6,0,0,0-.36-.81,4.61,4.61,0,0,0-.5-.73,7.78,7.78,0,0,0-1.21-1.16l-.13-.1a.82.82,0,0,0,.36-.48.84.84,0,0,0-.58-1,5.62,5.62,0,0,0-1.78-.19,3.84,3.84,0,0,0-1.7.55,4.66,4.66,0,0,0-.71.55,5,5,0,0,0-.6.7,5.05,5.05,0,0,0-.78,1.68,6.46,6.46,0,0,0-.17,1,5.29,5.29,0,0,0,0,.91,7.83,7.83,0,0,0,.32,1.8,5.22,5.22,0,0,0,.75,1.57,5.14,5.14,0,0,0,.57.66,5,5,0,0,0,.78.59,5.18,5.18,0,0,0,.84.4,4.49,4.49,0,0,0,.87.24,3.72,3.72,0,0,0,1.87-.06,3.09,3.09,0,0,0,1.43-1,4.77,4.77,0,0,0,.81-1.54A5.12,5.12,0,0,0,97.91,53a6,6,0,0,0-.32-1.91Zm-1.37,2.38a5.51,5.51,0,0,1-.28,1,4,4,0,0,1-.34.6,3.15,3.15,0,0,1-.3.31l-.31.18-.34.09a3.41,3.41,0,0,1-.55,0,5,5,0,0,1-1-.26,4.49,4.49,0,0,1-.71-.41,4.37,4.37,0,0,1-.49-.49,4.61,4.61,0,0,1-.43-.74,6.82,6.82,0,0,1-.37-1.4,6.3,6.3,0,0,1,0-1.32,5.45,5.45,0,0,1,.27-1,4.65,4.65,0,0,1,.45-.77,4.31,4.31,0,0,1,.53-.53,3.72,3.72,0,0,1,.52-.3,3.38,3.38,0,0,1,.51-.13,4.4,4.4,0,0,1,.79,0l.23,0-.07.06a.84.84,0,0,0-.24.59.81.81,0,0,0,.24.59,8.92,8.92,0,0,1,1.2,1.15,4.46,4.46,0,0,1,.38.67,5.4,5.4,0,0,1,.29,1.07,5.2,5.2,0,0,1,0,1Z"/><path class="cls-3" d="M105.2,44.57a.84.84,0,0,0-1.14-.3.8.8,0,0,0-.38.5q-.25,1.77-.52,3.53c-.13.83-.27,1.66-.41,2.49l0,.26-.24-.38c-.08-.12-.17-.24-.25-.36l-.5-.7c-.18-.26-.36-.52-.55-.77l-.83-1.1c-.16-.22-.34-.43-.51-.64a5,5,0,0,0-.34-.4.84.84,0,0,0-1.18,1.18,9.48,9.48,0,0,1,.68.82c.35.47.72.93,1.05,1.41s.83,1.15,1.21,1.75l.68,1.08c.15.24.28.49.42.74,0,.36-.05.72-.06,1.08a6.87,6.87,0,0,0,.2,1.82,2.83,2.83,0,0,0,.36.8,1.61,1.61,0,0,0,.3.34,1.44,1.44,0,0,0,.6.3,1.15,1.15,0,0,0,1-.27,1.48,1.48,0,0,0,.44-.83,3.27,3.27,0,0,0-.37-1.88c-.25-.59-.53-1.16-.83-1.72v-.11c.08-.57.16-1.14.25-1.71s.19-1.13.28-1.7c.25-1.53.47-3.06.69-4.59l0-.22a.84.84,0,0,0-.11-.42Zm-.85,12,0,0,0,0Z"/><path class="cls-3" d="M118.69,50.5a.84.84,0,0,0-1.18,0c-.64.64-1.28,1.29-1.93,1.93s-1.35,1.33-2.09,1.92a9.4,9.4,0,0,1-1.78,1.1,4.73,4.73,0,0,1-.75.23,3.22,3.22,0,0,1-.48,0l-.33-.09-.28-.16-.14-.13.39-.3a9.61,9.61,0,0,0,1.09-1,7.56,7.56,0,0,0,1.16-1.58,5,5,0,0,0,.59-1.7,3.53,3.53,0,0,0,0-.95,4.54,4.54,0,0,0-.29-1.11c-.43-1.11-1.35-2.26-2.66-2.18a2.5,2.5,0,0,0-.91.25,3.48,3.48,0,0,0-.78.53,3.63,3.63,0,0,0-.59.73,5,5,0,0,0-.45.92,5.55,5.55,0,0,0-.36,1.86,10.33,10.33,0,0,0,.18,2.12,9.22,9.22,0,0,0,.34,1.38l.19.58a.88.88,0,0,0,.07.68.85.85,0,0,0,.39.35,2.94,2.94,0,0,0,2.69,1.44,3.84,3.84,0,0,0,1-.17,6.66,6.66,0,0,0,.91-.37,9.16,9.16,0,0,0,1.62-1,13.27,13.27,0,0,0,1.26-1l.58-.57c.85-.83,1.69-1.67,2.53-2.51a.84.84,0,0,0,0-1.18Zm-7.36,0a4.5,4.5,0,0,1-.21.77,6.78,6.78,0,0,1-.73,1.22,8.53,8.53,0,0,1-1.14,1.13l-.21.16a11.53,11.53,0,0,1-.34-1.49,8.5,8.5,0,0,1-.05-1.84,5.29,5.29,0,0,1,.28-1,4.41,4.41,0,0,1,.38-.66,3.18,3.18,0,0,1,.28-.29l.3-.18.25-.07h0l.16,0,.14.08a2.8,2.8,0,0,1,.28.28,3.93,3.93,0,0,1,.35.62,4.57,4.57,0,0,1,.22.74,3.25,3.25,0,0,1,0,.51Z"/><path class="cls-5" d="M91.46,68.22a3.64,3.64,0,0,1,0-.5,3.73,3.73,0,0,1,0-.52,3.5,3.5,0,0,1,.5,0,3.59,3.59,0,0,1,.52,0,3.64,3.64,0,0,1,0,.5,3.73,3.73,0,0,1,0,.52,3.5,3.5,0,0,1-.5,0A3.58,3.58,0,0,1,91.46,68.22Z"/><path class="cls-5" d="M98.31,67.46a1.68,1.68,0,0,1,.11.32c0,.14.06.25.08.34a4.4,4.4,0,0,1-.68.18,4.66,4.66,0,0,1-.85.07,3,3,0,0,1-2.28-.82,3.33,3.33,0,0,1-.78-2.38,4,4,0,0,1,.19-1.27,3,3,0,0,1,.56-1,2.59,2.59,0,0,1,.93-.68A3.17,3.17,0,0,1,96.88,62a5.52,5.52,0,0,1,.87.07,4,4,0,0,1,.65.15,1.78,1.78,0,0,1,0,.36,2.08,2.08,0,0,1-.09.32,3.72,3.72,0,0,0-.61-.14,4.86,4.86,0,0,0-.79-.06,2.22,2.22,0,0,0-.94.19,1.84,1.84,0,0,0-.67.52,2.24,2.24,0,0,0-.4.79,3.63,3.63,0,0,0-.13,1,2.56,2.56,0,0,0,.62,1.9,2.29,2.29,0,0,0,1.67.61,3.84,3.84,0,0,0,.69-.06A3.73,3.73,0,0,0,98.31,67.46Z"/><path class="cls-5" d="M102.22,68.37a2.77,2.77,0,0,1-1.2-.25,2.4,2.4,0,0,1-.86-.68,2.93,2.93,0,0,1-.51-1,4.81,4.81,0,0,1,0-2.52,2.93,2.93,0,0,1,.51-1,2.39,2.39,0,0,1,.86-.68,2.76,2.76,0,0,1,1.2-.25,2.72,2.72,0,0,1,1.19.25,2.41,2.41,0,0,1,.85.68,3,3,0,0,1,.52,1,4.66,4.66,0,0,1,0,2.52,3,3,0,0,1-.52,1,2.41,2.41,0,0,1-.85.68A2.73,2.73,0,0,1,102.22,68.37Zm0-.7a1.64,1.64,0,0,0,1.43-.67,3.8,3.8,0,0,0,0-3.67,1.87,1.87,0,0,0-2.87,0,3.8,3.8,0,0,0,0,3.67A1.64,1.64,0,0,0,102.22,67.67Z"/><path class="cls-5" d="M106.26,68.22a3.64,3.64,0,0,1,0-.5,3.73,3.73,0,0,1,0-.52,3.5,3.5,0,0,1,.5,0,3.59,3.59,0,0,1,.52,0,3.64,3.64,0,0,1,0,.5,3.73,3.73,0,0,1,0,.52,3.5,3.5,0,0,1-.5,0A3.58,3.58,0,0,1,106.26,68.22Z"/><path class="cls-5" d="M109.06,59.4l.2,0h.39l.2,0v8.82l-.2,0h-.39l-.2,0Zm1.3,5.66,2.2-3a2.34,2.34,0,0,1,.42,0,3.48,3.48,0,0,1,.5,0L111.29,65l2.58,3.24a2.59,2.59,0,0,1-.43,0,3.58,3.58,0,0,1-.52,0Z"/><path class="cls-5" d="M115.35,65.28a2.49,2.49,0,0,0,.56,1.8,2.27,2.27,0,0,0,1.69.58,4.33,4.33,0,0,0,.85-.08,5.63,5.63,0,0,0,.76-.21,1.39,1.39,0,0,1,.1.32,3.37,3.37,0,0,1,0,.35,3.53,3.53,0,0,1-.82.24,5.72,5.72,0,0,1-1,.08,3.57,3.57,0,0,1-1.36-.23,2.46,2.46,0,0,1-.94-.65,2.66,2.66,0,0,1-.54-1,4.47,4.47,0,0,1-.17-1.28,4.76,4.76,0,0,1,.16-1.26,3.11,3.11,0,0,1,.49-1,2.28,2.28,0,0,1,.85-.7,2.79,2.79,0,0,1,1.24-.25,2.64,2.64,0,0,1,1.07.2,2.17,2.17,0,0,1,.79.57,2.46,2.46,0,0,1,.48.88,3.64,3.64,0,0,1,.16,1.11c0,.07,0,.16,0,.28s0,.21,0,.29Zm3.6-.66a2.86,2.86,0,0,0-.1-.73,1.79,1.79,0,0,0-.3-.63,1.54,1.54,0,0,0-.53-.44,1.91,1.91,0,0,0-2.09.35,2.47,2.47,0,0,0-.56,1.45Z"/></g></g></svg>