<svg xmlns="http://www.w3.org/2000/svg" viewBox="0 0 131 101"><defs><style>.cls-1{fill:none;stroke:#a7a9ac;opacity:0.66;}.cls-1,.cls-6{stroke-miterlimit:10;}.cls-2{fill:#6d6e71;}.cls-3{fill:#a7a9ac;}.cls-4{fill:#d1d3d4;}.cls-5{fill:#bcbec0;}.cls-6{fill:#009444;stroke:#fff200;}.cls-7{fill:#fff;}</style></defs><title>brand-img-17</title><g id="Layer_2" data-name="Layer 2"><g id="Layer_1-2" data-name="Layer 1"><path class="cls-1" d="M.5.5v100h130V.5Zm93,60.6a16.9,16.9,0,0,1-1.45,3.67,18.63,18.63,0,0,1-2.43,3.47,27.92,27.92,0,0,1-6.14,5.14,42.58,42.58,0,0,1-5.1,2.76c-1.09.5-2.2,1-3.28,1.48a55.88,55.88,0,0,0-6.88,3.89c-.82.55-1.58,1.18-2.36,1.78-.13.1-.22.13-.35,0a26.19,26.19,0,0,0-4.62-3.19c-1.67-.94-3.38-1.84-5.09-2.72-.8-.41-1.64-.72-2.46-1.1s-1.87-.86-2.76-1.36c-1.26-.71-2.5-1.45-3.71-2.24a25.74,25.74,0,0,1-4.67-3.94,18.8,18.8,0,0,1-3.19-4.57A17,17,0,0,1,37.49,59c-.14-1-.17-1.94-.24-2.91a28.06,28.06,0,0,1,1-6.76c.26-1,.5-1.91.84-2.84.52-1.45,1.07-2.89,1.68-4.3s1.43-3,2.11-4.5a12.21,12.21,0,0,0,1-3.39,18.17,18.17,0,0,0,.22-2.56,15.13,15.13,0,0,0-2.33-8.1,18.15,18.15,0,0,0-2.42-3c-.27-.27-.26-.26,0-.56l2.37-2.75,2.39-2.73c.3-.35.61-.69.89-1a.37.37,0,0,1,.58-.12,14.5,14.5,0,0,0,5.13,1.73,18.2,18.2,0,0,0,3.94.15,23.12,23.12,0,0,0,3.72-.57A34.88,34.88,0,0,0,62,13.58a17.32,17.32,0,0,0,3.37-1.68.56.56,0,0,1,.7,0A21.62,21.62,0,0,0,72,14.43c1.12.3,2.26.49,3.4.71a15.88,15.88,0,0,0,4.06.17,15,15,0,0,0,6.26-1.74c.59-.32.58-.31,1,.2.8.94,1.62,1.87,2.43,2.81,1,1.21,2.09,2.43,3.14,3.63.16.18.06.27-.06.38a15.4,15.4,0,0,0-2.3,2.76,13.3,13.3,0,0,0-1.78,3.77,19.85,19.85,0,0,0-.65,3,14.47,14.47,0,0,0,0,3.48,13.18,13.18,0,0,0,.62,2.85c.33.91.76,1.77,1.15,2.66.79,1.8,1.61,3.6,2.37,5.41a34.33,34.33,0,0,1,2.32,9,27.93,27.93,0,0,1,.18,3.42A17,17,0,0,1,93.55,61.1Z"/><path class="cls-2" d="M66.41,92.55l0,0S66.32,92.62,66.41,92.55Z"/><path class="cls-2" d="M66.37,92.57l0,0C66.54,92.4,66.42,92.51,66.37,92.57Z"/><path class="cls-1" d="M93.39,52.1a32.73,32.73,0,0,0-1.74-5.55c-.76-1.82-1.58-3.61-2.37-5.41-.39-.88-.82-1.75-1.15-2.66a13.18,13.18,0,0,1-.62-2.85,14.47,14.47,0,0,1,0-3.48,19.85,19.85,0,0,1,.65-3,13.3,13.3,0,0,1,1.78-3.77,15.4,15.4,0,0,1,2.3-2.76c.12-.11.22-.2.06-.38-1.05-1.2-2.09-2.42-3.14-3.63-.81-.94-1.62-1.87-2.43-2.81-.43-.51-.43-.52-1-.2a15,15,0,0,1-6.26,1.74,15.88,15.88,0,0,1-4.06-.17c-1.14-.22-2.28-.41-3.4-.71a21.62,21.62,0,0,1-5.89-2.55.56.56,0,0,0-.7,0A17.32,17.32,0,0,1,62,15.58a34.88,34.88,0,0,1-3.65,1.15,23.12,23.12,0,0,1-3.72.57,18.2,18.2,0,0,1-3.94-.15,14.5,14.5,0,0,1-5.13-1.73.37.37,0,0,0-.58.12c-.28.36-.59.7-.89,1l-2.39,2.73-2.37,2.75c-.26.3-.27.29,0,.56a18.15,18.15,0,0,1,2.42,3,15.13,15.13,0,0,1,2.33,8.1,18.17,18.17,0,0,1-.22,2.56,12.21,12.21,0,0,1-1,3.39c-.69,1.51-1.45,3-2.11,4.5s-1.16,2.85-1.68,4.3c-.33.93-.58,1.88-.84,2.84a28.06,28.06,0,0,0-1,6.76c.08,1,.11,1.95.24,2.91a17,17,0,0,0,1.58,5.16,18.8,18.8,0,0,0,3.19,4.57,25.74,25.74,0,0,0,4.67,3.94c1.21.79,2.45,1.53,3.71,2.24.89.5,1.83.92,2.76,1.36s1.66.69,2.46,1.1c1.71.88,3.41,1.77,5.09,2.72a26.19,26.19,0,0,1,4.62,3.19c.13.12.22.09.35,0,.78-.6,1.54-1.23,2.36-1.78a55.88,55.88,0,0,1,6.88-3.89c1.08-.52,2.19-1,3.28-1.48a42.58,42.58,0,0,0,5.1-2.76,27.92,27.92,0,0,0,6.14-5.14,18.63,18.63,0,0,0,2.43-3.47,17.4,17.4,0,0,0,2.05-7.86A27.93,27.93,0,0,0,94,55.5,32.64,32.64,0,0,0,93.39,52.1Z"/><path class="cls-2" d="M99.31,55.89c-.29-1.39-.47-3.21-.9-4.57-.61-2-1.21-3.26-1.95-5.18-.59-1.52-1.41-3.13-2.08-4.62-.44-1-1.14-2.26-1.49-3.28a15.1,15.1,0,0,1-1.11-5.66,16.59,16.59,0,0,1,.46-3.35c.72-2.88,3.17-4.06,5.19-6.2.45-.47,1.16-.81,1.64-1.24.2-.18-.94-1.72-1.18-2-.44-.47-.84-1-1.25-1.45L94,15.18l-2.75-3.23c-.59-.7-.83-1.34-1.42-2-.16-.19-1-1.32-1.21-1.15-.46.33-1.44,1.17-1.94,1.44-2.27,1.25-3.91,2.29-6.47,2.34a26.71,26.71,0,0,1-3.87-.28,22.58,22.58,0,0,1-4.48-1.13,24.91,24.91,0,0,1-5.89-3,.49.49,0,0,0-.62,0c-1,.61-2,1.23-3.09,1.78a23.12,23.12,0,0,1-5,1.87,23.7,23.7,0,0,1-5.32.74,13.36,13.36,0,0,1-2.29-.14c-1.05-.15-1.57-.77-3-1.22a17.38,17.38,0,0,1-3.38-2.34c-.19-.13-1.2.76-1.34.94-.63.76-1.27,1.51-1.91,2.26l-2.2,2.59-2.65,3.13-1.79,2.1c-.15.17-.94,1.17-.74,1.31s.72.49.94.7a32.22,32.22,0,0,1,3.63,3.44C39,28.8,39.46,30.4,39.51,33.4c0,.37-.09,1-.14,1.59a14.08,14.08,0,0,1-1.19,4.51c-.76,1.71-2,3.6-2.79,5.31a47.64,47.64,0,0,0-2.69,7.86c-.31,1.24-.3,2.5-.49,3.76s-.36,2.77-.45,4.17c-.06.83,0,1.67.06,2.51a18.76,18.76,0,0,0,.57,4c.44,1.83,1.64,3.43,2.53,5.09A27.39,27.39,0,0,0,39,77.32c1.15,1.26,3,2.15,4.33,3.18a46.89,46.89,0,0,0,9.5,5.77c2,.92,3.58,1.87,5.5,2.93,1.51.83,2.58,1.73,4,2.69a9.63,9.63,0,0,1,2.41,2.51,3.28,3.28,0,0,0,1.59.17c.06-.06.17-.16,0,0,.91-.76,2.19-2.55,3.16-3.2,1.59-1.07,2.87-1.62,4.52-2.59,1.08-.63,2-1.2,3.13-1.74,1.33-.64,2.67-1.4,4-2.09C83,84,84.39,83.12,86.14,82c2-1.23,4.1-2.06,5.77-3.73a25.67,25.67,0,0,0,2.32-2.09,40.47,40.47,0,0,0,2.38-3.44,19.18,19.18,0,0,0,2-4.79,22.88,22.88,0,0,0,1.09-5.2A27.23,27.23,0,0,0,99.31,55.89ZM93.55,63.1a16.9,16.9,0,0,1-1.45,3.67,18.63,18.63,0,0,1-2.43,3.47,27.92,27.92,0,0,1-6.14,5.14,42.58,42.58,0,0,1-5.1,2.76c-1.09.5-2.2,1-3.28,1.48a55.88,55.88,0,0,0-6.88,3.89c-.82.55-1.58,1.18-2.36,1.78-.13.1-.22.13-.35,0a26.19,26.19,0,0,0-4.62-3.19c-1.67-.94-3.38-1.84-5.09-2.72-.8-.41-1.64-.72-2.46-1.1s-1.87-.86-2.76-1.36c-1.26-.71-2.5-1.45-3.71-2.24a25.74,25.74,0,0,1-4.67-3.94,18.8,18.8,0,0,1-3.19-4.57A17,17,0,0,1,37.49,61c-.14-1-.17-1.94-.24-2.91a28.06,28.06,0,0,1,1-6.76c.26-1,.5-1.91.84-2.84.52-1.45,1.07-2.89,1.68-4.3s1.43-3,2.11-4.5a12.21,12.21,0,0,0,1-3.39,18.17,18.17,0,0,0,.22-2.56,15.13,15.13,0,0,0-2.33-8.1,18.15,18.15,0,0,0-2.42-3c-.27-.27-.26-.26,0-.56l2.37-2.75,2.39-2.73c.3-.35.61-.69.89-1a.37.37,0,0,1,.58-.12,14.5,14.5,0,0,0,5.13,1.73,18.2,18.2,0,0,0,3.94.15,23.12,23.12,0,0,0,3.72-.57A34.88,34.88,0,0,0,62,15.58a17.32,17.32,0,0,0,3.37-1.68.56.56,0,0,1,.7,0A21.62,21.62,0,0,0,72,16.43c1.12.3,2.26.49,3.4.71a15.88,15.88,0,0,0,4.06.17,15,15,0,0,0,6.26-1.74c.59-.32.58-.31,1,.2.8.94,1.62,1.87,2.43,2.81,1,1.21,2.09,2.43,3.14,3.63.16.18.06.27-.06.38a15.4,15.4,0,0,0-2.3,2.76,13.3,13.3,0,0,0-1.78,3.77,19.85,19.85,0,0,0-.65,3,14.47,14.47,0,0,0,0,3.48,13.18,13.18,0,0,0,.62,2.85c.33.91.76,1.77,1.15,2.66.79,1.8,1.61,3.6,2.37,5.41a34.33,34.33,0,0,1,2.32,9,27.93,27.93,0,0,1,.18,3.42A17,17,0,0,1,93.55,63.1Z"/><path class="cls-3" d="M97.5,54.13c-.28-1.3-.55-2.61-.95-3.88-.58-1.83-1.24-3.65-1.94-5.44-.56-1.42-1.26-2.8-1.89-4.2-.42-.92-.92-1.82-1.26-2.78a14.12,14.12,0,0,1-.79-5.39,15.22,15.22,0,0,1,.44-3.13c.69-2.7,2.65-4.34,4.57-6.34.42-.44,1.33-.79,1.79-1.2.19-.17-.74-1-1-1.27-.42-.44-.8-.9-1.19-1.36l-2.57-3-2.62-3c-.57-.65-.79-1.26-1.35-1.91-.15-.18-.42-1.15-.65-1-.44.31-1.51,1.14-2,1.39A13.75,13.75,0,0,1,79.6,13.7a26,26,0,0,1-3.7-.26,21.91,21.91,0,0,1-4.28-1.06A24,24,0,0,1,66,9.61a.47.47,0,0,0-.6,0c-1,.57-1.95,1.15-3,1.67A22.35,22.35,0,0,1,57.67,13a23,23,0,0,1-5.08.69,13,13,0,0,1-2.18-.13,18.84,18.84,0,0,1-3-.8,20.48,20.48,0,0,1-3.63-2.24c-.18-.12-.66.43-.81.6-.6.71-1.21,1.41-1.82,2.11l-2.1,2.42-2.53,2.93-1.71,2c-.14.16-.76.68-.58.82s.79.6,1,.8a15,15,0,0,1,3.23,3.48c1.8,3.25,2.24,4.75,2.28,7.55l-.13,1.49a13,13,0,0,1-1.13,4.22c-.72,1.6-1.52,3.17-2.25,4.76a46.71,46.71,0,0,0-2.71,7.55c-.3,1.16-.56,2.33-.74,3.51s-.34,2.59-.43,3.9c-.05.78,0,1.56.06,2.35A17.22,17.22,0,0,0,34,64.74a20.42,20.42,0,0,0,1.9,4.9,23.29,23.29,0,0,0,3.49,4.74A27.45,27.45,0,0,0,43,77.57a51.13,51.13,0,0,0,9.78,5.57c1.9.86,3.78,1.78,5.61,2.77,1.44.78,2.81,1.7,4.19,2.59a12.68,12.68,0,0,1,3,2.53c.11.14.21.16.33,0a5.44,5.44,0,0,1,.6-.65,33.37,33.37,0,0,1,2.65-2.07c1.52-1,3.09-1.93,4.67-2.83,1-.59,2.1-1.11,3.17-1.61,1.27-.6,2.59-1.1,3.84-1.74,1.73-.89,3.44-1.82,5.11-2.83a28.94,28.94,0,0,0,5.27-4.07,20.05,20.05,0,0,0,1.84-2A37.82,37.82,0,0,0,95.27,70a17.74,17.74,0,0,0,1.93-4.48,20.19,20.19,0,0,0,.8-4.81A26.33,26.33,0,0,0,97.5,54.13Zm-4,9a16.9,16.9,0,0,1-1.45,3.67,18.63,18.63,0,0,1-2.43,3.47,27.92,27.92,0,0,1-6.14,5.14,42.58,42.58,0,0,1-5.1,2.76c-1.09.5-2.2,1-3.28,1.48a55.88,55.88,0,0,0-6.88,3.89c-.82.55-1.58,1.18-2.36,1.78-.13.1-.22.13-.35,0a26.19,26.19,0,0,0-4.62-3.19c-1.67-.94-3.38-1.84-5.09-2.72-.8-.41-1.64-.72-2.46-1.1s-1.87-.86-2.76-1.36c-1.26-.71-2.5-1.45-3.71-2.24a25.74,25.74,0,0,1-4.67-3.94,18.8,18.8,0,0,1-3.19-4.57A17,17,0,0,1,37.49,61c-.14-1-.17-1.94-.24-2.91a28.06,28.06,0,0,1,1-6.76c.26-1,.5-1.91.84-2.84.52-1.45,1.07-2.89,1.68-4.3s1.43-3,2.11-4.5a12.21,12.21,0,0,0,1-3.39,18.17,18.17,0,0,0,.22-2.56,15.13,15.13,0,0,0-2.33-8.1,18.15,18.15,0,0,0-2.42-3c-.27-.27-.26-.26,0-.56l2.37-2.75,2.39-2.73c.3-.35.61-.69.89-1a.37.37,0,0,1,.58-.12,14.5,14.5,0,0,0,5.13,1.73,18.2,18.2,0,0,0,3.94.15,23.12,23.12,0,0,0,3.72-.57A34.88,34.88,0,0,0,62,15.58a17.32,17.32,0,0,0,3.37-1.68.56.56,0,0,1,.7,0A21.62,21.62,0,0,0,72,16.43c1.12.3,2.26.49,3.4.71a15.88,15.88,0,0,0,4.06.17,15,15,0,0,0,6.26-1.74c.59-.32.58-.31,1,.2.8.94,1.62,1.87,2.43,2.81,1,1.21,2.09,2.43,3.14,3.63.16.18.06.27-.06.38a15.4,15.4,0,0,0-2.3,2.76,13.3,13.3,0,0,0-1.78,3.77,19.85,19.85,0,0,0-.65,3,14.47,14.47,0,0,0,0,3.48,13.18,13.18,0,0,0,.62,2.85c.33.91.76,1.77,1.15,2.66.79,1.8,1.61,3.6,2.37,5.41a34.33,34.33,0,0,1,2.32,9,27.93,27.93,0,0,1,.18,3.42A17,17,0,0,1,93.55,63.1Z"/><path class="cls-4" d="M96,53.36c-.33-1.48-.67-3-1.12-4.41s-1-3-1.63-4.45-1.2-2.66-1.8-4c-.4-.88-.87-1.73-1.19-2.64a13.42,13.42,0,0,1-.75-5.13,14.41,14.41,0,0,1,.42-3,14.82,14.82,0,0,1,3.79-6.67c.41-.43.87-.81,1.31-1.2.17-.15.23-.26,0-.47-.4-.42-.77-.88-1.15-1.32l-2.44-2.83L89,14.4l-1.64-1.89c-.14-.16-.25-.17-.43,0a13.9,13.9,0,0,1-7,2.42,17.09,17.09,0,0,1-3.52-.07,24.24,24.24,0,0,1-5-1.14A23.13,23.13,0,0,1,66,11a.41.41,0,0,0-.51,0c-.85.52-1.69,1.06-2.58,1.5a23.7,23.7,0,0,1-4.78,1.75,22.52,22.52,0,0,1-4.92.67,15.94,15.94,0,0,1-3.86-.4A12,12,0,0,1,46,13.33c-.51-.29-1-.59-1.5-.9-.14-.09-.23-.09-.33,0l-1.85,2.15-3.13,3.63q-1.39,1.61-2.8,3.2c-.14.16-.15.27,0,.42a16.31,16.31,0,0,1,2.44,2.5,14.74,14.74,0,0,1,2.39,4.41A13.24,13.24,0,0,1,42,33a21.77,21.77,0,0,1-.23,2.76,11,11,0,0,1-1,3.23c-.71,1.54-1.5,3.05-2.18,4.61a46.28,46.28,0,0,0-2.89,8.6A29.66,29.66,0,0,0,35,58.24c0,.61,0,1.22,0,1.72.15,1,.27,1.86.42,2.71A18.18,18.18,0,0,0,37,67.38a21.13,21.13,0,0,0,3.69,5.24A27.3,27.3,0,0,0,44.2,75.7a40.29,40.29,0,0,0,6.41,3.92c1.65.82,3.35,1.53,5,2.33a51.44,51.44,0,0,1,6,3.32,17.28,17.28,0,0,1,4,3.22s.19,0,.27,0a.94.94,0,0,0,.26-.25,9.69,9.69,0,0,1,2.23-1.93c1.33-.89,2.68-1.75,4.07-2.55s2.62-1.42,4-2.08,2.5-1.06,3.71-1.68c1.62-.83,3.22-1.71,4.78-2.64a27.55,27.55,0,0,0,5-3.86,19.2,19.2,0,0,0,1.81-1.94,35.26,35.26,0,0,0,2.15-3.06,16.84,16.84,0,0,0,1.82-4.23,19.24,19.24,0,0,0,.76-4.6A24.48,24.48,0,0,0,96,53.36ZM93.55,63.1a16.9,16.9,0,0,1-1.45,3.67,18.63,18.63,0,0,1-2.43,3.47,27.92,27.92,0,0,1-6.14,5.14,42.58,42.58,0,0,1-5.1,2.76c-1.09.5-2.2,1-3.28,1.48a55.88,55.88,0,0,0-6.88,3.89c-.82.55-1.58,1.18-2.36,1.78-.13.1-.22.13-.35,0a26.19,26.19,0,0,0-4.62-3.19c-1.67-.94-3.38-1.84-5.09-2.72-.8-.41-1.64-.72-2.46-1.1s-1.87-.86-2.76-1.36c-1.26-.71-2.5-1.45-3.71-2.24a25.74,25.74,0,0,1-4.67-3.94,18.8,18.8,0,0,1-3.19-4.57A17,17,0,0,1,37.49,61c-.14-1-.17-1.94-.24-2.91a28.06,28.06,0,0,1,1-6.76c.26-1,.5-1.91.84-2.84.52-1.45,1.07-2.89,1.68-4.3s1.43-3,2.11-4.5a12.21,12.21,0,0,0,1-3.39,18.17,18.17,0,0,0,.22-2.56,15.13,15.13,0,0,0-2.33-8.1,18.15,18.15,0,0,0-2.42-3c-.27-.27-.26-.26,0-.56l2.37-2.75,2.39-2.73c.3-.35.61-.69.89-1a.37.37,0,0,1,.58-.12,14.5,14.5,0,0,0,5.13,1.73,18.2,18.2,0,0,0,3.94.15,23.12,23.12,0,0,0,3.72-.57A34.88,34.88,0,0,0,62,15.58a17.32,17.32,0,0,0,3.37-1.68.56.56,0,0,1,.7,0A21.62,21.62,0,0,0,72,16.43c1.12.3,2.26.49,3.4.71a15.88,15.88,0,0,0,4.06.17,15,15,0,0,0,6.26-1.74c.59-.32.58-.31,1,.2.8.94,1.62,1.87,2.43,2.81,1,1.21,2.09,2.43,3.14,3.63.16.18.06.27-.06.38a15.4,15.4,0,0,0-2.3,2.76,13.3,13.3,0,0,0-1.78,3.77,19.85,19.85,0,0,0-.65,3,14.47,14.47,0,0,0,0,3.48,13.18,13.18,0,0,0,.62,2.85c.33.91.76,1.77,1.15,2.66.79,1.8,1.61,3.6,2.37,5.41a34.33,34.33,0,0,1,2.32,9,27.93,27.93,0,0,1,.18,3.42A17,17,0,0,1,93.55,63.1Z"/><path class="cls-5" d="M45.73,23.31h-.8l-.12.25a.21.21,0,0,0,0,.08s0,.06.09.08v0h-.58v0l.08,0a.37.37,0,0,0,.06-.1l.65-1.35a.26.26,0,0,0,0-.1s0-.07-.07-.08v0h.62v0c-.05,0-.08,0-.08.08a.19.19,0,0,0,0,.08l.67,1.35a.46.46,0,0,0,.07.12.16.16,0,0,0,.09,0v0h-.65v0c.06,0,.08,0,.08-.08a.21.21,0,0,0,0-.08Zm-.11-.24-.28-.63-.29.63Z"/><path class="cls-5" d="M48.22,22.15l-.21.41,0,0v0s0-.06-.07-.09a.92.92,0,0,0-.54-.16.78.78,0,0,0-.24,0,.28.28,0,0,0-.12.08.16.16,0,0,0,0,.11c0,.07,0,.11.12.13l.27,0,.2,0,.29.05a.64.64,0,0,1,.2.09.44.44,0,0,1,.14.17.49.49,0,0,1,.05.22.5.5,0,0,1-.12.33.64.64,0,0,1-.34.19,1.36,1.36,0,0,1-.36,0,1.53,1.53,0,0,1-.69-.17l-.09,0-.05,0,0,0,.19-.43,0,0v0a.14.14,0,0,0,.06.11.7.7,0,0,0,.26.13,1.12,1.12,0,0,0,.33.05.68.68,0,0,0,.29-.06.29.29,0,0,0,.11-.08.19.19,0,0,0,0-.11.13.13,0,0,0-.09-.12l-.27,0-.2,0L47,23l-.16-.06a.43.43,0,0,1-.18-.17.47.47,0,0,1-.06-.24.49.49,0,0,1,.15-.37.84.84,0,0,1,.6-.19,1.38,1.38,0,0,1,.31,0,2.29,2.29,0,0,1,.36.13l.09,0,.06,0Z"/><path class="cls-5" d="M50.12,22.15l-.21.41,0,0v0s0-.06-.07-.09a.92.92,0,0,0-.54-.16.78.78,0,0,0-.24,0,.28.28,0,0,0-.12.08.16.16,0,0,0,0,.11c0,.07,0,.11.12.13l.27,0,.2,0,.29.05a.64.64,0,0,1,.2.09.44.44,0,0,1,.14.17.49.49,0,0,1,.05.22.5.5,0,0,1-.12.33.64.64,0,0,1-.34.19,1.36,1.36,0,0,1-.36,0,1.53,1.53,0,0,1-.69-.17l-.09,0-.05,0,0,0,.19-.43,0,0v0a.14.14,0,0,0,.06.11.7.7,0,0,0,.26.13,1.12,1.12,0,0,0,.33.05.68.68,0,0,0,.29-.06.29.29,0,0,0,.11-.08.19.19,0,0,0,0-.11.13.13,0,0,0-.09-.12l-.27,0-.2,0-.28,0-.16-.06a.43.43,0,0,1-.18-.17.47.47,0,0,1-.06-.24.49.49,0,0,1,.15-.37.84.84,0,0,1,.6-.19,1.38,1.38,0,0,1,.31,0,2.29,2.29,0,0,1,.36.13l.09,0,.06,0Z"/><path class="cls-5" d="M51.35,22a1,1,0,0,1,.73.25.91.91,0,0,1,.15,1.14,1,1,0,0,1-.87.43,1,1,0,0,1-.72-.25.85.85,0,0,1-.22-.32.93.93,0,0,1,.07-.83A1,1,0,0,1,51.35,22Zm0,.3a.61.61,0,0,0-.42.15.64.64,0,0,0,0,.92.67.67,0,0,0,.84,0,.59.59,0,0,0,.15-.22.63.63,0,0,0,0-.24.59.59,0,0,0-.2-.47A.63.63,0,0,0,51.35,22.27Z"/><path class="cls-5" d="M54.34,23.15l.24.37,0,0-.06,0-.13.06a1.79,1.79,0,0,1-.37.17,1.3,1.3,0,0,1-.36,0,1.12,1.12,0,0,1-.68-.2.82.82,0,0,1-.25-.28.89.89,0,0,1-.1-.43.87.87,0,0,1,.19-.55,1,1,0,0,1,.85-.35A1.27,1.27,0,0,1,54,22a1.8,1.8,0,0,1,.37.17l.13.06.06,0,0,0-.24.37,0,0a.24.24,0,0,0,0,0,.1.1,0,0,0,0-.07l-.11-.08a1,1,0,0,0-.48-.13.73.73,0,0,0-.48.15.61.61,0,0,0,0,.92.72.72,0,0,0,.48.15,1,1,0,0,0,.48-.13l.11-.08a.1.1,0,0,0,0-.07.23.23,0,0,0,0,0Z"/><path class="cls-5" d="M54.93,23.62V22.13a.09.09,0,0,0,0-.06l-.06,0v0h.55v0l-.06,0a.09.09,0,0,0,0,.06v1.49a.09.09,0,0,0,0,.06l.06,0v0h-.55v0l.06,0A.09.09,0,0,0,54.93,23.62Z"/><path class="cls-5" d="M57,23.31h-.8l-.12.25a.21.21,0,0,0,0,.08s0,.06.09.08v0h-.58v0l.08,0a.37.37,0,0,0,.06-.1l.65-1.35a.26.26,0,0,0,0-.1s0-.07-.07-.08v0h.62v0c-.05,0-.08,0-.08.08a.19.19,0,0,0,0,.08l.67,1.35a.46.46,0,0,0,.07.12.16.16,0,0,0,.09,0v0h-.65v0c.06,0,.08,0,.08-.08a.21.21,0,0,0,0-.08Zm-.11-.24-.28-.63-.29.63Z"/><path class="cls-5" d="M58.58,22.29v1.33a.09.09,0,0,0,0,.06l.06,0v0h-.55v0l.06,0a.09.09,0,0,0,0-.06V22.29h-.54l-.06,0a.13.13,0,0,0,0,.06h0v-.45h0a.14.14,0,0,0,0,.06l.06,0h1.47l.06,0a.13.13,0,0,0,0-.06h0v.45h0a.13.13,0,0,0,0-.06l-.06,0Z"/><path class="cls-5" d="M59.52,23.62V22.13a.09.09,0,0,0,0-.06l-.06,0v0H60v0l-.06,0a.09.09,0,0,0,0,.06v1.49a.09.09,0,0,0,0,.06l.06,0v0h-.55v0l.06,0A.09.09,0,0,0,59.52,23.62Z"/><path class="cls-5" d="M61.26,22a1,1,0,0,1,.73.25.91.91,0,0,1,.15,1.14,1,1,0,0,1-.87.43,1,1,0,0,1-.72-.25.85.85,0,0,1-.22-.32.93.93,0,0,1,.07-.83A1,1,0,0,1,61.26,22Zm0,.3a.61.61,0,0,0-.42.15.64.64,0,0,0,0,.92.67.67,0,0,0,.84,0,.59.59,0,0,0,.15-.22.63.63,0,0,0,0-.24.59.59,0,0,0-.2-.47A.63.63,0,0,0,61.26,22.27Z"/><path class="cls-5" d="M63,22.55v1.07a.09.09,0,0,0,0,.06l.06,0v0h-.52v0l.06,0a.09.09,0,0,0,0-.06V22.13a.09.09,0,0,0,0-.06l-.06,0v0h.6v0s-.06,0-.06.06a.1.1,0,0,0,0,.07l1,1v-1a.09.09,0,0,0,0-.06L64,22v0h.52v0l-.06,0a.09.09,0,0,0,0,.06v1.49a.09.09,0,0,0,0,.06l.06,0v0H64v0s.05,0,.05-.06,0,0-.06-.09Z"/><path class="cls-5" d="M66.47,22a1,1,0,0,1,.73.25.91.91,0,0,1,.15,1.14,1,1,0,0,1-.87.43,1,1,0,0,1-.72-.25.85.85,0,0,1-.22-.32.93.93,0,0,1,.07-.83A1,1,0,0,1,66.47,22Zm0,.3a.61.61,0,0,0-.42.15.64.64,0,0,0,0,.92.61.61,0,0,0,.42.15.61.61,0,0,0,.42-.15.59.59,0,0,0,.15-.22.62.62,0,0,0,0-.24.59.59,0,0,0-.2-.47A.63.63,0,0,0,66.47,22.27Z"/><path class="cls-5" d="M68.22,23v.63a.09.09,0,0,0,0,.06l.06,0v0h-.55v0l.06,0a.09.09,0,0,0,0-.06V22.14a.09.09,0,0,0,0-.06l-.06,0v0h1.55l.06,0a.12.12,0,0,0,0-.06h0v.45h0a.12.12,0,0,0,0-.06l-.06,0H68.22v.42h.71l.06,0a.13.13,0,0,0,0-.06h0v.44h0A.13.13,0,0,0,69,23l-.06,0Z"/><path class="cls-5" d="M71.06,22.94l-.26.21v.47a.09.09,0,0,0,0,.06l.06,0v0h-.55v0l.06,0a.09.09,0,0,0,0-.06V22.13a.09.09,0,0,0,0-.06l-.06,0v0h.55v0l-.06,0a.09.09,0,0,0,0,.06v.62l.72-.59s0,0,0-.07,0,0-.07-.05v0h.72v0l-.06,0-.11.09-.1.08-.6.48.68.81.14.15a.23.23,0,0,0,.11,0v0h-.69v0s.07,0,.07,0a.29.29,0,0,0-.06-.1Z"/><path class="cls-5" d="M73.73,23.31h-.8l-.12.25a.2.2,0,0,0,0,.08s0,.06.09.08v0h-.58v0l.08,0a.38.38,0,0,0,.06-.1l.65-1.35a.26.26,0,0,0,0-.1s0-.07-.07-.08v0h.62v0s-.08,0-.08.08a.18.18,0,0,0,0,.08l.67,1.35a.46.46,0,0,0,.08.12.16.16,0,0,0,.09,0v0h-.65v0c.06,0,.09,0,.09-.08a.2.2,0,0,0,0-.08Zm-.11-.24-.29-.63-.29.63Z"/><path class="cls-5" d="M75.31,22.94l-.26.21v.47a.09.09,0,0,0,0,.06l.06,0v0h-.55v0l.06,0a.09.09,0,0,0,0-.06V22.13a.09.09,0,0,0,0-.06l-.06,0v0h.55v0l-.06,0a.09.09,0,0,0,0,.06v.62l.72-.59s0,0,0-.07,0,0-.07-.05v0h.72v0l-.06,0-.11.09-.1.08-.6.48.68.81.14.15a.23.23,0,0,0,.11,0v0h-.69v0s.07,0,.07,0a.29.29,0,0,0-.06-.1Z"/><path class="cls-5" d="M78,23.31h-.8l-.12.25a.2.2,0,0,0,0,.08s0,.06.09.08v0h-.58v0l.08,0a.38.38,0,0,0,.06-.1l.65-1.35a.26.26,0,0,0,0-.1s0-.07-.07-.08v0h.62v0s-.08,0-.08.08a.18.18,0,0,0,0,.08l.67,1.35a.46.46,0,0,0,.08.12.16.16,0,0,0,.09,0v0H78v0c.06,0,.09,0,.09-.08a.2.2,0,0,0,0-.08Zm-.11-.24-.29-.63-.29.63Z"/><path class="cls-5" d="M79.92,23.76l-.65-1.21v1.08a.09.09,0,0,0,0,.06l.06,0v0h-.52v0l.06,0a.09.09,0,0,0,0-.06V22.13a.09.09,0,0,0,0-.06l-.06,0v0h.68v0a.07.07,0,0,0-.06.07.13.13,0,0,0,0,.06l.48.91.49-.89a.21.21,0,0,0,0-.09s0-.05-.06-.06v0h.66v0l-.06,0a.09.09,0,0,0,0,.06v1.49a.09.09,0,0,0,0,.06l.06,0v0h-.55v0l.06,0a.09.09,0,0,0,0-.06V22.54Z"/><path class="cls-5" d="M81.85,23v.48H83l.06,0a.13.13,0,0,0,0-.06h0v.45h0a.14.14,0,0,0,0-.06l-.06,0H81.38v0l.06,0a.09.09,0,0,0,0-.06V22.14a.09.09,0,0,0,0-.06l-.06,0v0h1.56L83,22a.14.14,0,0,0,0-.06h0v.45h0a.13.13,0,0,0,0-.06l-.06,0h-1.1v.42h.71l.06,0a.13.13,0,0,0,0-.06h0v.44h0a.14.14,0,0,0,0-.06l-.06,0Z"/><path class="cls-5" d="M84.95,23.12h-.43l-.06,0a.13.13,0,0,0,0,.06h0V22.8h0a.13.13,0,0,0,0,.06l.06,0h.83v0l-.06,0a.09.09,0,0,0,0,.06v.36a.09.09,0,0,0,0,.06l.06,0v0a2,2,0,0,1-1,.29,1.12,1.12,0,0,1-.69-.2.9.9,0,0,1,0-1.38A1.15,1.15,0,0,1,84.4,22l.28,0,.3.09.13,0,.06,0,0,0-.21.42,0,0a.15.15,0,0,0,0-.06l0,0a.69.69,0,0,0-.23-.1,1.1,1.1,0,0,0-.29,0,.68.68,0,0,0-.46.15.58.58,0,0,0-.2.46.56.56,0,0,0,.2.45.71.71,0,0,0,.48.16,1.23,1.23,0,0,0,.29,0,.94.94,0,0,0,.25-.09Z"/><path class="cls-5" d="M86.88,23.31h-.8l-.12.25a.2.2,0,0,0,0,.08s0,.06.09.08v0h-.58v0l.08,0a.38.38,0,0,0,.06-.1l.65-1.35a.26.26,0,0,0,0-.1s0-.07-.07-.08v0h.62v0s-.08,0-.08.08a.18.18,0,0,0,0,.08l.67,1.35a.46.46,0,0,0,.08.12.16.16,0,0,0,.09,0v0h-.65v0c.06,0,.09,0,.09-.08a.2.2,0,0,0,0-.08Zm-.11-.24-.29-.63-.29.63Z"/><path class="cls-5" d="M49.1,26.31l.24.37,0,0-.06,0-.13.06a1.79,1.79,0,0,1-.37.17,1.3,1.3,0,0,1-.36,0,1.12,1.12,0,0,1-.68-.2.82.82,0,0,1-.25-.28.89.89,0,0,1-.1-.43.87.87,0,0,1,.19-.55,1,1,0,0,1,.85-.35,1.27,1.27,0,0,1,.36,0,1.8,1.8,0,0,1,.37.17l.13.06.06,0,0,0-.24.37,0,0a.24.24,0,0,0,0,0,.1.1,0,0,0,0-.07l-.11-.08a1,1,0,0,0-.48-.13.73.73,0,0,0-.48.15.61.61,0,0,0,0,.92.72.72,0,0,0,.48.15,1,1,0,0,0,.48-.13l.11-.08a.1.1,0,0,0,0-.07.23.23,0,0,0,0,0Z"/><path class="cls-5" d="M50.86,26.47h-.8l-.12.25a.21.21,0,0,0,0,.08s0,.06.09.08v0h-.58v0l.08,0a.37.37,0,0,0,.06-.1l.65-1.35a.26.26,0,0,0,0-.1s0-.07-.07-.08v0h.62v0c-.05,0-.08,0-.08.08a.19.19,0,0,0,0,.08l.67,1.35a.46.46,0,0,0,.07.12.16.16,0,0,0,.09,0v0h-.65v0c.06,0,.08,0,.08-.08a.21.21,0,0,0,0-.08Zm-.11-.24-.28-.63-.29.63Z"/><path class="cls-5" d="M52.45,25.45v1.33a.09.09,0,0,0,0,.06l.06,0v0H52v0l.06,0a.09.09,0,0,0,0-.06V25.45h-.54l-.06,0a.13.13,0,0,0,0,.06h0v-.45h0a.14.14,0,0,0,0,.06l.06,0H53l.06,0a.13.13,0,0,0,0-.06h0v.45h0a.13.13,0,0,0,0-.06l-.06,0Z"/><path class="cls-5" d="M54.78,26.15h-1v.63a.09.09,0,0,0,0,.06l.06,0v0h-.55v0l.06,0a.09.09,0,0,0,0-.06V25.29a.09.09,0,0,0,0-.06l-.06,0v0h.55v0l-.06,0a.09.09,0,0,0,0,.06v.57h1v-.57a.09.09,0,0,0,0-.06l-.06,0v0h.55v0l-.06,0a.09.09,0,0,0,0,.06v1.49a.09.09,0,0,0,0,.06l.06,0v0H54.7v0l.06,0a.09.09,0,0,0,0-.06Z"/><path class="cls-5" d="M56.53,25.13a1,1,0,0,1,.73.25.91.91,0,0,1,.15,1.14,1,1,0,0,1-.87.43,1,1,0,0,1-.72-.25.85.85,0,0,1-.22-.32.93.93,0,0,1,.07-.83A1,1,0,0,1,56.53,25.13Zm0,.3a.61.61,0,0,0-.42.15.64.64,0,0,0,0,.92.67.67,0,0,0,.84,0,.59.59,0,0,0,.15-.22.63.63,0,0,0,0-.24.59.59,0,0,0-.2-.47A.63.63,0,0,0,56.53,25.43Z"/><path class="cls-5" d="M58.28,26.63h1.08l.06,0a.13.13,0,0,0,0-.06h0V27h0a.14.14,0,0,0,0-.06l-.06,0H57.82v0l.06,0a.09.09,0,0,0,0-.06V25.3a.09.09,0,0,0,0-.06l-.06,0v0h.55v0l-.06,0a.1.1,0,0,0,0,.06Z"/><path class="cls-5" d="M59.76,26.78V25.29a.09.09,0,0,0,0-.06l-.06,0v0h.55v0l-.06,0a.09.09,0,0,0,0,.06v1.49a.09.09,0,0,0,0,.06l.06,0v0h-.55v0l.06,0A.09.09,0,0,0,59.76,26.78Z"/><path class="cls-5" d="M62.24,26.31l.24.37,0,0-.06,0-.13.06a1.79,1.79,0,0,1-.37.17,1.3,1.3,0,0,1-.36,0,1.12,1.12,0,0,1-.68-.2.82.82,0,0,1-.25-.28.89.89,0,0,1-.1-.43.87.87,0,0,1,.19-.55,1,1,0,0,1,.85-.35,1.27,1.27,0,0,1,.36,0,1.8,1.8,0,0,1,.37.17l.13.06.06,0,0,0-.24.37,0,0a.24.24,0,0,0,0,0,.1.1,0,0,0,0-.07l-.11-.08a1,1,0,0,0-.48-.13.73.73,0,0,0-.48.15.61.61,0,0,0,0,.92.72.72,0,0,0,.48.15,1,1,0,0,0,.48-.13l.11-.08a.1.1,0,0,0,0-.07.23.23,0,0,0,0,0Z"/><path class="cls-5" d="M64.39,25.31l-.21.41,0,0v0s0-.06-.07-.09a.92.92,0,0,0-.54-.16.78.78,0,0,0-.24,0,.28.28,0,0,0-.12.08.16.16,0,0,0,0,.11c0,.07,0,.11.12.13l.27,0,.2,0,.29.05a.64.64,0,0,1,.2.09.44.44,0,0,1,.14.17.49.49,0,0,1,.05.22.5.5,0,0,1-.12.33.64.64,0,0,1-.34.19,1.36,1.36,0,0,1-.36,0,1.53,1.53,0,0,1-.69-.17l-.09,0-.05,0,0,0,.19-.43,0,0v0a.14.14,0,0,0,.06.11.7.7,0,0,0,.26.13,1.12,1.12,0,0,0,.33.05.68.68,0,0,0,.29-.06.29.29,0,0,0,.11-.08.19.19,0,0,0,0-.11.13.13,0,0,0-.09-.12l-.27,0-.2,0-.28,0L63,26.1a.43.43,0,0,1-.18-.17.47.47,0,0,1-.06-.24.49.49,0,0,1,.15-.37.84.84,0,0,1,.6-.19,1.38,1.38,0,0,1,.31,0,2.29,2.29,0,0,1,.36.13l.09,0,.06,0Z"/><path class="cls-5" d="M65.39,26.78V25.29a.09.09,0,0,0,0-.06l-.06,0v0h.55v0l-.06,0a.09.09,0,0,0,0,.06v1.49a.09.09,0,0,0,0,.06l.06,0v0h-.55v0l.06,0A.09.09,0,0,0,65.39,26.78Z"/><path class="cls-5" d="M66.6,25.71v1.07a.09.09,0,0,0,0,.06l.06,0v0h-.52v0l.06,0a.09.09,0,0,0,0-.06V25.29a.09.09,0,0,0,0-.06l-.06,0v0h.6v0s-.06,0-.06.06a.1.1,0,0,0,0,.07l1,1v-1a.08.08,0,0,0,0-.06l-.06,0v0h.52v0l-.06,0a.08.08,0,0,0,0,.06v1.49a.09.09,0,0,0,0,.06l.06,0v0H67.6v0s.05,0,.05-.06,0,0-.06-.09Z"/><path class="cls-5" d="M69.21,26.78V25.3a.09.09,0,0,0,0-.06l-.06,0v0h1a1.31,1.31,0,0,1,.49.07.7.7,0,0,1,.37.35,1,1,0,0,1,.09.45.86.86,0,0,1-.28.69.7.7,0,0,1-.27.14,1.57,1.57,0,0,1-.4,0h-1v0l.06,0A.09.09,0,0,0,69.21,26.78Zm.38-.15h.48a.74.74,0,0,0,.35-.06.54.54,0,0,0,.25-.53.63.63,0,0,0-.13-.43.42.42,0,0,0-.18-.12.91.91,0,0,0-.28,0h-.48Z"/><path class="cls-5" d="M71.42,26.78V25.29a.09.09,0,0,0,0-.06l-.06,0v0h.55v0l-.06,0a.09.09,0,0,0,0,.06v1.49a.09.09,0,0,0,0,.06l.06,0v0h-.55v0l.06,0A.09.09,0,0,0,71.42,26.78Z"/><path class="cls-5" d="M73.48,26.47h-.8l-.12.25a.2.2,0,0,0,0,.08s0,.06.09.08v0H72v0l.08,0a.38.38,0,0,0,.06-.1l.65-1.35a.26.26,0,0,0,0-.1s0-.07-.07-.08v0h.62v0s-.08,0-.08.08a.18.18,0,0,0,0,.08L74,26.72a.46.46,0,0,0,.08.12.16.16,0,0,0,.09,0v0h-.65v0c.06,0,.09,0,.09-.08a.2.2,0,0,0,0-.08Zm-.11-.24-.29-.63-.29.63Z"/><path class="cls-5" d="M76,25.31l-.21.41,0,0v0s0-.06-.07-.09a.92.92,0,0,0-.54-.16.78.78,0,0,0-.24,0,.28.28,0,0,0-.12.08.16.16,0,0,0,0,.11q0,.1.12.13l.26,0,.2,0,.29.05a.65.65,0,0,1,.2.09.44.44,0,0,1,.14.17.5.5,0,0,1,.05.22.5.5,0,0,1-.12.33.64.64,0,0,1-.33.19,1.37,1.37,0,0,1-.36,0,1.54,1.54,0,0,1-.69-.17l-.09,0-.05,0,0,0,.19-.43,0,0v0a.14.14,0,0,0,.06.11.7.7,0,0,0,.26.13,1.13,1.13,0,0,0,.33.05.68.68,0,0,0,.29-.06.28.28,0,0,0,.11-.08.18.18,0,0,0,0-.11.13.13,0,0,0-.09-.12l-.26,0-.2,0-.28,0-.17-.06a.42.42,0,0,1-.18-.17.46.46,0,0,1-.06-.24.49.49,0,0,1,.15-.37.84.84,0,0,1,.6-.19,1.38,1.38,0,0,1,.31,0,2.29,2.29,0,0,1,.36.13l.09,0,.06,0Z"/><path class="cls-5" d="M76.7,26.2v.58a.09.09,0,0,0,0,.06l.06,0v0h-.55v0l.06,0a.09.09,0,0,0,0-.06V25.3a.09.09,0,0,0,0-.06l-.06,0v0h1.1a1.4,1.4,0,0,1,.3,0,.53.53,0,0,1,.2.09.45.45,0,0,1,.14.17.57.57,0,0,1,0,.23.53.53,0,0,1-.09.31.45.45,0,0,1-.22.16,1.18,1.18,0,0,1-.38,0Zm0-.29h.58a.58.58,0,0,0,.25,0,.18.18,0,0,0,.07-.08.26.26,0,0,0,0-.23.18.18,0,0,0-.07-.08.57.57,0,0,0-.25,0H76.7Z"/><path class="cls-5" d="M79.21,25.13a1,1,0,0,1,.73.25.91.91,0,0,1,.15,1.14,1,1,0,0,1-.87.43,1,1,0,0,1-.72-.25.86.86,0,0,1-.22-.32.93.93,0,0,1,.07-.83A1,1,0,0,1,79.21,25.13Zm0,.3a.6.6,0,0,0-.42.15.64.64,0,0,0,0,.92.67.67,0,0,0,.84,0,.58.58,0,0,0,.15-.22.62.62,0,0,0,0-.24.59.59,0,0,0-.2-.47A.63.63,0,0,0,79.22,25.43Z"/><path class="cls-5" d="M81,26.2v.58a.09.09,0,0,0,0,.06l.06,0v0H80.5v0l.06,0a.09.09,0,0,0,0-.06V25.3a.09.09,0,0,0,0-.06l-.06,0v0h1.1a1.71,1.71,0,0,1,.32,0,.57.57,0,0,1,.21.08.41.41,0,0,1,.15.18.6.6,0,0,1,0,.24q0,.43-.48.5l.34.48a1,1,0,0,0,.13.16.17.17,0,0,0,.1,0v0h-.63v0s.07,0,.07,0a.33.33,0,0,0-.06-.11l-.36-.52Zm0-.29h.78l.1,0a.23.23,0,0,0,0-.38l-.1,0H81Z"/><path class="cls-5" d="M83.92,26.47h-.8l-.12.25a.2.2,0,0,0,0,.08s0,.06.09.08v0h-.58v0l.08,0a.38.38,0,0,0,.06-.1l.65-1.35a.26.26,0,0,0,0-.1s0-.07-.07-.08v0h.62v0s-.08,0-.08.08a.18.18,0,0,0,0,.08l.67,1.35a.46.46,0,0,0,.08.12.16.16,0,0,0,.09,0v0H84v0c.06,0,.09,0,.09-.08a.2.2,0,0,0,0-.08Zm-.11-.24-.29-.63-.29.63Z"/><path class="cls-5" d="M57.55,31.17H56.19l-.2.42a.35.35,0,0,0,0,.14c0,.06,0,.11.15.13v.07h-1v-.07a.26.26,0,0,0,.13-.06.58.58,0,0,0,.1-.17l1.1-2.3a.44.44,0,0,0,.05-.17c0-.07,0-.12-.13-.14v-.07h1.06V29q-.13,0-.13.13a.32.32,0,0,0,0,.14l1.14,2.3a.78.78,0,0,0,.13.2.28.28,0,0,0,.15.07v.07h-1.1v-.07c.1,0,.15-.06.15-.14a.35.35,0,0,0,0-.14Zm-.19-.41-.48-1.06-.49,1.06Z"/><path class="cls-5" d="M61.79,29.19l-.36.7-.06,0v0s0-.1-.13-.16a1.57,1.57,0,0,0-.92-.27,1.37,1.37,0,0,0-.41.06.49.49,0,0,0-.21.13.28.28,0,0,0-.08.19c0,.11.07.19.2.23a3.22,3.22,0,0,0,.45.07l.34,0a2.85,2.85,0,0,1,.5.09,1.15,1.15,0,0,1,.34.16.75.75,0,0,1,.24.28.83.83,0,0,1,.09.37.85.85,0,0,1-.2.56,1.09,1.09,0,0,1-.57.33,2.3,2.3,0,0,1-.62.08,2.62,2.62,0,0,1-1.17-.29l-.15-.06a.18.18,0,0,0-.09,0l-.06,0,.32-.73.06,0v0a.24.24,0,0,0,.09.18,1.18,1.18,0,0,0,.44.22,1.91,1.91,0,0,0,.56.09,1.15,1.15,0,0,0,.5-.1.48.48,0,0,0,.18-.15.32.32,0,0,0,.07-.19.22.22,0,0,0-.16-.21,2.15,2.15,0,0,0-.45-.08l-.34,0-.48-.07a1.25,1.25,0,0,1-.28-.1.73.73,0,0,1-.31-.3.8.8,0,0,1-.1-.41.83.83,0,0,1,.26-.63,1.43,1.43,0,0,1,1-.33,2.31,2.31,0,0,1,.53.06,4,4,0,0,1,.62.21l.16.05a.18.18,0,0,0,.11-.05Z"/><path class="cls-5" d="M63.49,30.53,63,30.9v.8a.15.15,0,0,0,0,.1.21.21,0,0,0,.11.06v.07h-.93v-.07a.23.23,0,0,0,.11-.06.15.15,0,0,0,0-.1V29.17a.15.15,0,0,0,0-.1.22.22,0,0,0-.11-.06v-.07h.93V29a.2.2,0,0,0-.11.06.15.15,0,0,0,0,.1v1l1.23-1c.06,0,.09-.08.09-.11s0-.07-.13-.09v-.07h1.22V29l-.11,0-.19.15-.17.14-1,.82,1.15,1.39a1.94,1.94,0,0,0,.23.25.38.38,0,0,0,.18.07v.07H64.36v-.07c.08,0,.12,0,.12-.08a.49.49,0,0,0-.11-.16Z"/><path class="cls-5" d="M68.5,30.9l.42.62-.06,0a.17.17,0,0,0-.1-.06.78.78,0,0,0-.22.11,3,3,0,0,1-.63.29,2.18,2.18,0,0,1-.61.08,1.91,1.91,0,0,1-1.16-.33,1.42,1.42,0,0,1-.42-.48,1.52,1.52,0,0,1-.18-.73,1.47,1.47,0,0,1,.32-.94,1.73,1.73,0,0,1,1.44-.6,2.19,2.19,0,0,1,.61.07,3.1,3.1,0,0,1,.63.29.79.79,0,0,0,.22.1.17.17,0,0,0,.1-.06l.06,0L68.5,30l-.06,0a.5.5,0,0,0,0-.06.17.17,0,0,0-.05-.12.91.91,0,0,0-.2-.13,1.65,1.65,0,0,0-.82-.22,1.23,1.23,0,0,0-.82.26,1,1,0,0,0,0,1.57,1.23,1.23,0,0,0,.82.26,1.64,1.64,0,0,0,.82-.22,1,1,0,0,0,.2-.13.17.17,0,0,0,.05-.12.44.44,0,0,0,0-.06Z"/><path class="cls-5" d="M71.49,31.17H70.13l-.2.42a.36.36,0,0,0,0,.14c0,.06,0,.11.15.13v.07H69v-.07a.27.27,0,0,0,.13-.06.59.59,0,0,0,.1-.17l1.1-2.3a.44.44,0,0,0,.05-.17c0-.07,0-.12-.13-.14v-.07h1.06V29q-.13,0-.13.13a.33.33,0,0,0,0,.14l1.14,2.3a.75.75,0,0,0,.13.2.27.27,0,0,0,.15.07v.07H71.6v-.07c.1,0,.15-.06.15-.14a.35.35,0,0,0,0-.14Zm-.19-.41-.48-1.06-.49,1.06Z"/><path class="cls-5" d="M73.09,31.7V29.17a.15.15,0,0,0,0-.1A.22.22,0,0,0,73,29v-.07h1.67a2.21,2.21,0,0,1,.84.13,1.2,1.2,0,0,1,.62.6,1.74,1.74,0,0,1,.16.77,1.47,1.47,0,0,1-.48,1.18,1.21,1.21,0,0,1-.47.24,2.65,2.65,0,0,1-.68.07H73v-.07a.22.22,0,0,0,.11-.06A.15.15,0,0,0,73.09,31.7Zm.65-.26h.82a1.27,1.27,0,0,0,.59-.11.93.93,0,0,0,.42-.9,1.07,1.07,0,0,0-.23-.74.7.7,0,0,0-.31-.2,1.55,1.55,0,0,0-.48-.06h-.82Z"/><path class="cls-5" d="M75.36,44.58c-.82.24-1.63.49-2.44.77a11.15,11.15,0,0,1-4.37.38A19.86,19.86,0,0,1,70,38.56l-4.55-3.45c-.64.55-1.34,1.2-2.09,1.77S61.78,38,61,38.51c1.46,4,1.61,6.43,1.46,7.22-2.49.41-4.77-.39-6.95-1.17L52.16,49l3.44,4.54.34-.13a14.06,14.06,0,0,1,5.93-1.14c.44,0,.56.17.51.58s-.06.87-.07,1.31A40.33,40.33,0,0,1,60.54,66a.82.82,0,0,0,.26,1C61.88,68.07,63,69.21,64,70.4a24.68,24.68,0,0,1,1.53,2.25,18,18,0,0,1,1.28-2c1.15-1.35,2.37-2.64,3.57-3.94a.55.55,0,0,0,.17-.62,30.77,30.77,0,0,1-1.49-7c-.16-2.17-.26-4.35-.37-6.52a.44.44,0,0,1,.27-.33,7.64,7.64,0,0,1,3.12.18c1.17.35,2.34.67,3.41,1l3.48-4.58a18.08,18.08,0,0,1-3.13-4.12A.5.5,0,0,0,75.36,44.58Z"/><path class="cls-5" d="M55.57,53.53h0Z"/><path class="cls-5" d="M68.89,45.38c0-.18,0-.34,0-.5a19.4,19.4,0,0,1,1.45-6.13c.14-.35.13-.53-.23-.72a15.39,15.39,0,0,1-3.58-2.54c-.34-.31-.64-.67-1-1a17.54,17.54,0,0,1-4.82,3.74c-.09,0-.13.3-.09.42.36,1.22.77,2.42,1.11,3.64a9.16,9.16,0,0,1,.35,3.16c-2.46.31-4.67-.54-6.92-1.35A17.39,17.39,0,0,1,51.48,49a17.45,17.45,0,0,1,3.81,5c2.2-.76,4.33-1.64,6.69-1.37a.78.78,0,0,1,0,.18c-.14,2.35-.24,4.71-.45,7.05a31,31,0,0,1-1.43,6.35.64.64,0,0,0,.19.76,24.85,24.85,0,0,1,4.82,5.84c.25.46.41.44.71,0a19.14,19.14,0,0,1,1.38-2.1c1.09-1.27,2.25-2.49,3.41-3.7a.75.75,0,0,0,.22-.84,34.08,34.08,0,0,1-1-3.73c-.33-1.92-.55-3.86-.73-5.8C69,55.27,69,53.95,69,52.49a16.84,16.84,0,0,1,2.59.19c1.27.29,2.5.72,3.74,1.13a.45.45,0,0,0,.64-.23c.72-1.1,1.47-2.19,2.25-3.25a17.16,17.16,0,0,1,1.32-1.42A17.23,17.23,0,0,1,75.84,44C73.58,44.84,71.38,45.75,68.89,45.38Zm6.57,8c-1.06-.31-2.24-.63-3.41-1a7.64,7.64,0,0,0-3.12-.18.44.44,0,0,0-.27.33c.11,2.17.21,4.35.37,6.52a30.77,30.77,0,0,0,1.49,7,.55.55,0,0,1-.17.62c-1.2,1.3-2.42,2.59-3.57,3.94a18,18,0,0,0-1.28,2A24.68,24.68,0,0,0,64,70.4c-1-1.19-2.09-2.32-3.17-3.45a.82.82,0,0,1-.26-1,40.33,40.33,0,0,0,1.77-11.85c0-.44,0-.87.07-1.31s-.07-.54-.51-.58a14.06,14.06,0,0,0-5.93,1.14l-.34.13h0L52.16,49l3.32-4.43c2.17.79,4.46,1.58,6.95,1.17.15-.79,0-3.26-1.46-7.22.8-.54,1.63-1,2.4-1.62s1.45-1.22,2.09-1.77L70,38.56a19.86,19.86,0,0,0-1.46,7.18,11.15,11.15,0,0,0,4.37-.38c.8-.28,1.62-.54,2.44-.77a.5.5,0,0,1,.45.13,18.08,18.08,0,0,0,3.13,4.12Z"/><path class="cls-6" d="M55.58,53.52h0Z"/><path class="cls-6" d="M55.58,53.52h0Z"/><path class="cls-7" d="M75.36,44.58c-.82.24-1.63.49-2.44.77a11.15,11.15,0,0,1-4.37.38A19.86,19.86,0,0,1,70,38.56l-4.55-3.45c-.64.55-1.34,1.2-2.09,1.77S61.78,38,61,38.51c1.46,4,1.61,6.43,1.46,7.22-2.49.41-4.77-.39-6.95-1.17L52.16,49l3.44,4.54.34-.13a14.06,14.06,0,0,1,5.93-1.14c.44,0,.56.17.51.58s-.06.87-.07,1.31A40.33,40.33,0,0,1,60.54,66a.82.82,0,0,0,.26,1C61.88,68.07,63,69.21,64,70.4a24.68,24.68,0,0,1,1.53,2.25,18,18,0,0,1,1.28-2c1.15-1.35,2.37-2.64,3.57-3.94a.55.55,0,0,0,.17-.62,30.77,30.77,0,0,1-1.49-7c-.16-2.17-.26-4.35-.37-6.52a.44.44,0,0,1,.27-.33,7.64,7.64,0,0,1,3.12.18c1.17.35,2.34.67,3.41,1l3.48-4.58a18.08,18.08,0,0,1-3.13-4.12A.5.5,0,0,0,75.36,44.58Z"/><path class="cls-5" d="M41.92,64.32A.9.9,0,1,1,40.71,63a.87.87,0,0,1,1.28.12A.81.81,0,0,1,41.92,64.32Zm-.84-.9c-.31.26-.38.49-.23.66s.41.07.68-.17.39-.45.23-.63S41.36,63.17,41.08,63.42Z"/><path class="cls-5" d="M41.49,65.2,42.77,64l.33.35c-.08.31-.12.47-.2.79,0,.16-.1.41-.15.58h0c.12-.15.31-.39.54-.62l.27-.28.33.32-1.22,1.28-.36-.35c.07-.31.1-.47.17-.78a3.51,3.51,0,0,1,.18-.57h0c-.12.13-.3.34-.56.59l-.29.28Z"/><path class="cls-5" d="M44.43,67,44,66.54l-.32.36.54.48-.2.23c-.39-.33-.58-.5-1-.86l1.21-1.3c.34.32.51.47.86.78l-.2.23L44.42,66l-.27.3.47.41Z"/><path class="cls-5" d="M45.89,66.88c.36.29.54.43.9.71l-.18.24-.51-.39-.28.36.48.37-.17.23L45.65,68l-.45.57-.42-.34Z"/><path class="cls-5" d="M46.53,69.1l-.34.26L45.77,69c.62-.42.92-.64,1.52-1.08l.5.35c-.24.7-.35,1-.57,1.76l-.43-.29.13-.4Zm.51,0,.14-.35c0-.1.11-.27.16-.38h0l-.31.27-.3.24Z"/><path class="cls-5" d="M49.21,70.6a5.71,5.71,0,0,1,.28-.52h0a5,5,0,0,1-.42.38l-.52.42-.32-.2.14-.65a4.14,4.14,0,0,1,.16-.56h0l-.35.48-.37.49-.39-.25,1.13-1.37.45.29-.16.65c-.05.23-.1.43-.16.63h0c.14-.15.29-.29.47-.44l.51-.44.46.27-.74,1.62-.41-.24Z"/><path class="cls-5" d="M51,70.27l-.83,1.56-.47-.25L50.54,70Z"/><path class="cls-5" d="M51.38,70.48l.45.23L51.17,72l.62.3-.12.26c-.44-.21-.66-.32-1.1-.54Z"/><path class="cls-5" d="M52,72.76l.28-.62c0-.49,0-.74-.06-1.23l.48.23c0,.18,0,.27,0,.46s0,.26,0,.4h0a3.58,3.58,0,0,1,.26-.3l.31-.32.47.2c-.38.31-.57.46-1,.76l-.28.63Z"/><path class="cls-5" d="M52.68,73.4a2.83,2.83,0,0,0,.52-.54l.5.17a3,3,0,0,1-.69.48Z"/><path class="cls-5" d="M56.21,73.38a.84.84,0,1,1-1.59-.51.84.84,0,0,1,1.1-.57A.78.78,0,0,1,56.21,73.38ZM55.12,73c-.13.38-.09.61.1.68s.37-.15.48-.5.12-.58-.09-.65S55.25,72.69,55.12,73Z"/><path class="cls-5" d="M56.25,74.35l.51-1.69.43.13c.07.31.11.46.19.77,0,.15.1.41.13.57h0c0-.18.08-.49.16-.81l.1-.38.42.11-.43,1.72-.46-.12c-.09-.3-.13-.45-.21-.75a3.58,3.58,0,0,1-.11-.58h0c0,.17-.1.44-.19.78l-.11.38Z"/><path class="cls-5" d="M59.49,74.36l-.58-.12-.1.47.67.14-.06.29-1.18-.26.41-1.72,1.07.23-.06.29-.6-.13L59,74l.58.12Z"/><path class="cls-5" d="M61.64,75.48a1.48,1.48,0,0,1-.4,0c-.67-.1-.93-.52-.84-1a1.09,1.09,0,0,1,1.5-.66l-.12.27a.73.73,0,0,0-.22-.06c-.28,0-.55.09-.62.52a.51.51,0,0,0,.46.66h.25Z"/><path class="cls-5" d="M63.51,74.77c-.05.67-.43.91-.93.86a.79.79,0,0,1-.72-1,.83.83,0,0,1,.94-.8A.78.78,0,0,1,63.51,74.77Zm-1.13-.08c0,.4,0,.62.25.64s.32-.23.35-.59,0-.59-.23-.62S62.42,74.32,62.37,74.7Z"/><path class="cls-5" d="M65.4,75.16a5.86,5.86,0,0,1,0-.59h0a5.1,5.1,0,0,1-.18.54l-.24.63h-.37l-.19-.63a4.23,4.23,0,0,1-.13-.56h0c0,.19,0,.41-.07.59l-.08.61-.44,0c.13-.7.19-1.05.31-1.75l.52,0,.17.65c.06.23.12.43.16.63h0c0-.2.11-.39.19-.61l.22-.63h.52c.05.71.08,1.06.14,1.77h-.46Z"/><path class="cls-5" d="M67.86,75.12a5.86,5.86,0,0,1-.05-.58h0a5.1,5.1,0,0,1-.14.55l-.2.64h-.37l-.24-.62a4.24,4.24,0,0,1-.17-.55h0c0,.19,0,.42,0,.59l0,.62h-.44c.07-.71.11-1.06.18-1.77h.52l.22.63c.08.22.15.42.21.61h0c0-.2.08-.4.14-.63l.17-.65.52,0c.11.7.16,1.05.28,1.75l-.46,0Z"/><path class="cls-5" d="M69.11,73.88,69.22,75c0,.26.15.33.28.31s.25-.1.22-.36l-.13-1.14.49-.06.14,1.08c.06.45-.17.73-.68.78s-.79-.18-.83-.63l-.09-1.09Z"/><path class="cls-5" d="M70.74,75.47l-.25-1.75.44-.06.5.62.36.46h0c0-.18-.13-.48-.19-.8l-.07-.38.42-.08.33,1.74-.47.08-.51-.6a3.59,3.59,0,0,1-.34-.49h0c0,.18.1.44.15.79l.06.39Z"/><path class="cls-5" d="M72.88,73.29,73.26,75l-.51.11-.35-1.73Z"/><path class="cls-5" d="M73.65,73.44l-.44.1-.07-.31c.54-.12.81-.19,1.35-.34l.08.31-.44.12.36,1.41-.5.13Z"/><path class="cls-5" d="M75.63,74.41l-.19-.65c-.34-.35-.51-.53-.84-.9l.51-.14.29.35c.08.1.16.21.24.32h0a3.59,3.59,0,0,1,0-.4c0-.18,0-.26,0-.44l.49-.16c-.08.48-.12.72-.22,1.2l.21.66Z"/><path class="cls-5" d="M76.53,74.48a2.83,2.83,0,0,0,0-.75l.49-.19a3,3,0,0,1-.21.81Z"/><path class="cls-5" d="M79.19,72.15a.84.84,0,1,1-1.54.65.84.84,0,0,1,.47-1.15A.79.79,0,0,1,79.19,72.15Zm-1,.47c.15.37.33.52.52.44s.18-.36,0-.69-.29-.52-.5-.43S78,72.26,78.15,72.62Z"/><path class="cls-5" d="M79.86,72.85l-.72-1.62.41-.19.66.46.48.34h0c-.1-.16-.26-.42-.41-.71l-.17-.35.39-.2.8,1.58-.43.22-.66-.43a3.57,3.57,0,0,1-.47-.37h0c.09.16.22.4.37.72l.17.36Z"/><path class="cls-5" d="M82.36,70.72l-.53.3.23.42.61-.34.15.26c-.43.25-.65.36-1.08.59l-.82-1.57,1-.54.15.26-.55.3.19.36.53-.29Z"/><path class="cls-5" d="M84.77,70.11a1.57,1.57,0,0,1-.32.26.86.86,0,0,1-1.33-.2,1,1,0,0,1,.41-1.35,1,1,0,0,1,.32-.15l.09.29a.78.78,0,0,0-.22.1.54.54,0,0,0-.14.81.52.52,0,0,0,.79.19,1.39,1.39,0,0,0,.2-.16Z"/><path class="cls-5" d="M84.45,68.22l.41.58.44-.32-.42-.57.41-.3L86.36,69l-.43.32-.44-.6-.45.32.43.61L85,70l-1-1.46Z"/><path class="cls-5" d="M86,67l.72.9c.16.2.31.19.42.1s.16-.22,0-.43l-.73-.89.4-.33.71.83c.29.35.25.71-.17,1.05s-.79.3-1.06,0l-.67-.86Z"/><path class="cls-5" d="M87.19,66.09a5.27,5.27,0,0,1,.4-.4,1.52,1.52,0,0,1,.61-.4.39.39,0,0,1,.41.12.49.49,0,0,1,0,.61h0a.44.44,0,0,1,.49,0,2,2,0,0,0,.46.22l-.42.4a1.67,1.67,0,0,1-.39-.21c-.18-.13-.29-.11-.43,0l-.06.05.47.52-.41.37Zm.91.22.07-.06c.17-.16.19-.34.08-.45s-.24-.12-.42,0l-.08.09Z"/><path class="cls-5" d="M90.72,65a1.71,1.71,0,0,1-.27.35c-.51.53-1,.5-1.37.14a1,1,0,0,1,.12-1.44,1.11,1.11,0,0,1,.29-.24l.15.26a.85.85,0,0,0-.19.16.55.55,0,0,0,0,.84.53.53,0,0,0,.83,0,1.52,1.52,0,0,0,.16-.21Z"/><path class="cls-5" d="M90,63.25l.53.47.38-.43-.54-.46.35-.41,1.36,1.13-.36.43-.56-.48-.38.44.55.49-.38.42-1.3-1.2Z"/></g></g></svg>