<svg xmlns="http://www.w3.org/2000/svg" viewBox="0 0 131 101"><defs><style>.cls-1{fill:none;stroke:#a7a9ac;stroke-miterlimit:10;opacity:0.66;}.cls-2{fill:#bcbec0;}</style></defs><title>brand-img-04</title><g id="Layer_2" data-name="Layer 2"><g id="Layer_1-2" data-name="Layer 1"><rect class="cls-1" x="0.5" y="0.5" width="130" height="100"/><path class="cls-2" d="M48.93,51.56c.78-.07,1.55-.19,2.33-.2,4.33,0,8.67,0,13,0,2.15,0,3.26-1.2,2.61-2.9A2.52,2.52,0,0,0,65,47.18c-4.51-.2-9-.28-13.54-.33-1.26,0-2.58.46-3.77.22-2.42-.48-4.77-1.29-7.2-2a19.88,19.88,0,0,1,1.5-3,2.93,2.93,0,0,1,1.72-.89,6.94,6.94,0,0,1,1.9.13,13.6,13.6,0,0,0-.42-2.54c-.15-.42-.76-.67-1.34-1.14l3.89-6.5L47,30.46l-1.1,2.64-.66-.46.45-5.23c.36-.16,1-.38,1.57-.69,1.45-.76,2.85-1.47,2.78-3.57,0-.61,1.07-1.26,1.67-1.87a7.2,7.2,0,0,1,1.19-1.12,12.37,12.37,0,0,1,3.37-1.9,15.12,15.12,0,0,1,3.82-.08c.65-.59,1-1.25,1.55-1.35a12.09,12.09,0,0,1,2.91.23c1.57-1.7,3.43-1.26,7.42,2.51,1.4-2.58,3.3-1.49,5.16-.67s3.9,1.67,5.77,2.66c.54.29.71,1.2,1.16,1.72a32.35,32.35,0,0,0,2.47,2.54c.74.69,2.12,1.19,2.27,2,.6,3.08,3.22,4.45,5,6.55,1.12,1.35,3.22,2.19,2.49,4.75l-.79-.71-4.69,5.93,3.41,2.79C89.33,48,85.32,49,81,48c-2-.47-3.83-.56-4-3.3l-.57.16-.37,2.66-.44,0-.49-4.33c-.86,1.15-1.48,2-2.12,2.82-.39.5-.72,1.18-1.23,1.41-1.6.73-2,1.78-.62,2.83a4.9,4.9,0,0,0,2.66,1c3.8.15,7.6.12,11.4.19a8,8,0,0,1,3.32.69H49Z"/><path class="cls-2" d="M27,56.7v4.36h.21a1.69,1.69,0,0,0,1.48-.64,3.93,3.93,0,0,0,.58-1.89h.3v5.61h-.3a4.22,4.22,0,0,0-.4-1.5,1.72,1.72,0,0,0-.71-.79,2.68,2.68,0,0,0-1.17-.2v3a4.38,4.38,0,0,0,.07,1.08.65.65,0,0,0,.28.32,1.31,1.31,0,0,0,.66.13h.64a3.45,3.45,0,0,0,3.7-2.81h.29l-.48,3.4H22.92V66.5h.36a1.48,1.48,0,0,0,.75-.17.72.72,0,0,0,.32-.38,3.26,3.26,0,0,0,.09-1v-7a5.56,5.56,0,0,0,0-.89.75.75,0,0,0-.29-.43,1.36,1.36,0,0,0-.82-.22h-.36v-.29h9v3.17h-.3a3.85,3.85,0,0,0-.64-1.67,2.38,2.38,0,0,0-1.17-.74,6.34,6.34,0,0,0-1.66-.14Z"/><path class="cls-2" d="M36.94,59.41v1a4.33,4.33,0,0,1,1.09-.9,2.34,2.34,0,0,1,1.12-.28,1.79,1.79,0,0,1,1.19.4,1.91,1.91,0,0,1,.63,1,7.66,7.66,0,0,1,.13,1.73v2.87a2.19,2.19,0,0,0,.15,1.06.9.9,0,0,0,.64.26v.28H38.17v-.28a.78.78,0,0,0,.6-.35,2.26,2.26,0,0,0,.13-1V61.9a5.39,5.39,0,0,0-.07-1.14.7.7,0,0,0-.24-.37.6.6,0,0,0-.37-.13q-.68,0-1.26,1v4a2.2,2.2,0,0,0,.15,1,.79.79,0,0,0,.57.28v.28H33.94v-.28a.92.92,0,0,0,.66-.3,2.21,2.21,0,0,0,.13-1V61a2.12,2.12,0,0,0-.15-1,.94.94,0,0,0-.64-.27v-.29Z"/><path class="cls-2" d="M46.25,67l-2.49-5.72a5.6,5.6,0,0,0-.7-1.31.94.94,0,0,0-.54-.28v-.29h3.92v.29a.71.71,0,0,0-.5.13.54.54,0,0,0-.19.41,3.54,3.54,0,0,0,.35,1.1l1.22,2.77,1-2.39a4.6,4.6,0,0,0,.42-1.45.5.5,0,0,0-.18-.4,1,1,0,0,0-.63-.17v-.29h2.42v.29a1,1,0,0,0-.57.26,4.83,4.83,0,0,0-.66,1.26L46.62,67Z"/><path class="cls-2" d="M53.89,59.41v5.85a1.76,1.76,0,0,0,.18,1,1,1,0,0,0,.71.25v.28h-4v-.28a1,1,0,0,0,.73-.28,1.76,1.76,0,0,0,.16-1V61a1.76,1.76,0,0,0-.18-1,1,1,0,0,0-.7-.25v-.29Zm-1.11-3.58a1.22,1.22,0,1,1-.86.36A1.17,1.17,0,0,1,52.78,55.84Z"/><path class="cls-2" d="M58.56,59.41v1.67a5.41,5.41,0,0,1,1.29-1.52,1.91,1.91,0,0,1,1.07-.37.94.94,0,0,1,.71.27,1.06,1.06,0,0,1,.26.77,1.2,1.2,0,0,1-.26.82.8.8,0,0,1-.62.29,1.07,1.07,0,0,1-.73-.27l-.36-.3a.35.35,0,0,0-.18,0,.66.66,0,0,0-.43.17,1.64,1.64,0,0,0-.49.77,5.35,5.35,0,0,0-.25,1.69V65.5a1.8,1.8,0,0,0,.06.58.63.63,0,0,0,.28.31,1.63,1.63,0,0,0,.63.12v.28h-4v-.28a.87.87,0,0,0,.65-.26,2.45,2.45,0,0,0,.17-1.19V61a3.08,3.08,0,0,0-.06-.81.64.64,0,0,0-.23-.32,1.22,1.22,0,0,0-.53-.14v-.29Z"/><path class="cls-2" d="M65.87,59.19a3.43,3.43,0,0,1,1.79.5,3.18,3.18,0,0,1,1.26,1.41,4.65,4.65,0,0,1,.43,2,4.24,4.24,0,0,1-.8,2.63A3.14,3.14,0,0,1,65.89,67a3,3,0,0,1-2.57-1.17,4.32,4.32,0,0,1-.9-2.71,4.37,4.37,0,0,1,.92-2.77A3,3,0,0,1,65.87,59.19Zm0,.56a.92.92,0,0,0-.69.3,2.13,2.13,0,0,0-.38,1.2q-.09.9-.09,2.49a10.68,10.68,0,0,0,.11,1.58,1.53,1.53,0,0,0,.37.85.88.88,0,0,0,.65.29.89.89,0,0,0,.59-.2,1.33,1.33,0,0,0,.41-.75,18.19,18.19,0,0,0,.16-3,7.46,7.46,0,0,0-.15-1.84,1.4,1.4,0,0,0-.44-.73A.83.83,0,0,0,65.9,59.75Z"/><path class="cls-2" d="M73.48,59.41v1a4.33,4.33,0,0,1,1.09-.9,2.34,2.34,0,0,1,1.12-.28,1.79,1.79,0,0,1,1.19.4,1.91,1.91,0,0,1,.63,1,7.66,7.66,0,0,1,.13,1.73v2.87a2.19,2.19,0,0,0,.15,1.06.9.9,0,0,0,.64.26v.28H74.71v-.28a.78.78,0,0,0,.6-.35,2.26,2.26,0,0,0,.13-1V61.9a5.39,5.39,0,0,0-.07-1.14.7.7,0,0,0-.24-.37.6.6,0,0,0-.37-.13q-.68,0-1.26,1v4a2.2,2.2,0,0,0,.15,1,.79.79,0,0,0,.57.28v.28H70.48v-.28a.92.92,0,0,0,.66-.3,2.21,2.21,0,0,0,.13-1V61a2.12,2.12,0,0,0-.15-1,.94.94,0,0,0-.64-.27v-.29Z"/><path class="cls-2" d="M89.12,56.09V59h-.28a4.57,4.57,0,0,0-.56-1.44,2.15,2.15,0,0,0-.84-.7,2.7,2.7,0,0,0-1-.14h-.8V65a3.37,3.37,0,0,0,.09,1,.81.81,0,0,0,.36.36,1.44,1.44,0,0,0,.72.15h.35v.29H81.5V66.5h.36a1.48,1.48,0,0,0,.75-.17.75.75,0,0,0,.32-.38A3.23,3.23,0,0,0,83,65V56.7h-.77a2.25,2.25,0,0,0-1.57.46A3,3,0,0,0,79.8,59h-.3v-2.9Z"/><path class="cls-2" d="M95,62.84H91a3.81,3.81,0,0,0,.78,2.32,1.65,1.65,0,0,0,1.31.66,1.5,1.5,0,0,0,.86-.26,3.35,3.35,0,0,0,.83-1l.27.17a4.46,4.46,0,0,1-1.33,1.73A2.85,2.85,0,0,1,92,67a2.8,2.8,0,0,1-2.49-1.26,4.46,4.46,0,0,1-.68-2.53,4.19,4.19,0,0,1,1-2.94,3.07,3.07,0,0,1,2.34-1.09,2.54,2.54,0,0,1,1.95.92A4.2,4.2,0,0,1,95,62.84Zm-1.94-.53a7.3,7.3,0,0,0-.14-1.75,1.42,1.42,0,0,0-.43-.72.66.66,0,0,0-.44-.14.78.78,0,0,0-.67.4A3.45,3.45,0,0,0,90.93,62v.28Z"/><path class="cls-2" d="M102,64.89l.25.19a3.69,3.69,0,0,1-1.3,1.46,3.11,3.11,0,0,1-1.65.48A2.86,2.86,0,0,1,96.9,65.9,4.17,4.17,0,0,1,96,63.23a4.5,4.5,0,0,1,.8-2.65,3.1,3.1,0,0,1,2.68-1.38,2.71,2.71,0,0,1,1.82.58,1.68,1.68,0,0,1,.67,1.29,1,1,0,0,1-.27.72A1,1,0,0,1,101,62a1,1,0,0,1-.77-.31,1.79,1.79,0,0,1-.38-1.1,1.2,1.2,0,0,0-.23-.69.56.56,0,0,0-.43-.2.77.77,0,0,0-.65.4A3.37,3.37,0,0,0,98.14,62a6,6,0,0,0,.33,2,3.08,3.08,0,0,0,.91,1.42,1.62,1.62,0,0,0,1,.34,1.56,1.56,0,0,0,.73-.18A3.38,3.38,0,0,0,102,64.89Z"/><path class="cls-2" d="M106.13,56.09v4.27a4.49,4.49,0,0,1,1.11-.9,2.23,2.23,0,0,1,1.05-.26,1.85,1.85,0,0,1,1.19.39,1.89,1.89,0,0,1,.66.93,7,7,0,0,1,.16,1.8v2.88a2.12,2.12,0,0,0,.16,1.05.91.91,0,0,0,.64.26v.28h-3.74v-.28a.86.86,0,0,0,.59-.32,2.15,2.15,0,0,0,.14-1V61.9a5.39,5.39,0,0,0-.07-1.15.7.7,0,0,0-.24-.36.61.61,0,0,0-.38-.13,1,1,0,0,0-.62.22,2.83,2.83,0,0,0-.65.76v4a2.42,2.42,0,0,0,.12,1,.77.77,0,0,0,.62.33v.28h-3.74v-.28a.92.92,0,0,0,.66-.3,2.18,2.18,0,0,0,.13-1v-7.5a2.12,2.12,0,0,0-.15-1,.94.94,0,0,0-.64-.27v-.29Z"/><path class="cls-2" d="M31.79,78.09h-3l-.52,1.21a1.9,1.9,0,0,0-.19.67.38.38,0,0,0,.17.31,1.45,1.45,0,0,0,.72.17v.21H26.59v-.21a1.3,1.3,0,0,0,.62-.22,3.45,3.45,0,0,0,.64-1.1l2.69-6.29h.2l2.66,6.36a2.91,2.91,0,0,0,.58,1,1.19,1.19,0,0,0,.73.26v.21h-3v-.21a1.12,1.12,0,0,0,.62-.15.39.39,0,0,0,.16-.32,2.34,2.34,0,0,0-.23-.78Zm-.16-.42-1.3-3.09L29,77.68Z"/><path class="cls-2" d="M36.59,78.77a1.7,1.7,0,0,1-1-1.56,1.76,1.76,0,0,1,.58-1.32,2.06,2.06,0,0,1,1.48-.55,2.25,2.25,0,0,1,1.28.36h1.38a.09.09,0,0,1,.06,0,.34.34,0,0,1,0,.18.51.51,0,0,1,0,.2.12.12,0,0,1-.06,0,1.24,1.24,0,0,1-.29,0h-.67a1.65,1.65,0,0,1,.32,1,1.63,1.63,0,0,1-.55,1.24,2.09,2.09,0,0,1-1.48.51,2.87,2.87,0,0,1-.78-.11,1.47,1.47,0,0,0-.34.38.6.6,0,0,0-.09.27.26.26,0,0,0,.09.19.68.68,0,0,0,.36.13c.11,0,.37,0,.79,0q1.16,0,1.51.08a1.41,1.41,0,0,1,.84.39,1.06,1.06,0,0,1,.31.78,1.63,1.63,0,0,1-.6,1.2,3.22,3.22,0,0,1-2.3.82,3.29,3.29,0,0,1-1.84-.49c-.28-.19-.42-.38-.42-.59a.64.64,0,0,1,.06-.27,3.14,3.14,0,0,1,.39-.58l.58-.61a1.74,1.74,0,0,1-.41-.31.46.46,0,0,1-.12-.31.92.92,0,0,1,.16-.46A3.7,3.7,0,0,1,36.59,78.77Zm-.06,1.88a2.73,2.73,0,0,0-.4.54,1,1,0,0,0-.14.46.57.57,0,0,0,.33.47,3.12,3.12,0,0,0,1.63.35,2.52,2.52,0,0,0,1.5-.36,1,1,0,0,0,.48-.76.43.43,0,0,0-.29-.42,3.75,3.75,0,0,0-1.16-.15A18.65,18.65,0,0,1,36.53,80.66Zm1-5a.88.88,0,0,0-.7.33,1.56,1.56,0,0,0-.28,1A2.19,2.19,0,0,0,37,78.34a.91.91,0,0,0,.75.37.88.88,0,0,0,.7-.32,1.53,1.53,0,0,0,.28-1,2.26,2.26,0,0,0-.39-1.4A.89.89,0,0,0,37.57,75.61Z"/><path class="cls-2" d="M41.85,77.43a2.65,2.65,0,0,0,.56,1.8,1.7,1.7,0,0,0,1.33.65,1.44,1.44,0,0,0,.88-.28,2.06,2.06,0,0,0,.63-1l.17.11a2.69,2.69,0,0,1-.69,1.41,1.84,1.84,0,0,1-1.43.63,2.08,2.08,0,0,1-1.59-.72,2.77,2.77,0,0,1-.66-1.95,3,3,0,0,1,.68-2.07,2.21,2.21,0,0,1,1.71-.74,1.91,1.91,0,0,1,1.43.57,2.1,2.1,0,0,1,.56,1.53Zm0-.33h2.39a2.22,2.22,0,0,0-.12-.7,1.12,1.12,0,0,0-.42-.5,1.06,1.06,0,0,0-.58-.18,1.16,1.16,0,0,0-.84.36A1.58,1.58,0,0,0,41.85,77.11Z"/><path class="cls-2" d="M47.62,76.43a2.43,2.43,0,0,1,1.73-1.09,1.24,1.24,0,0,1,.73.21,1.42,1.42,0,0,1,.48.7,3.21,3.21,0,0,1,.12,1v2.21a1.85,1.85,0,0,0,.08.67.46.46,0,0,0,.2.22,1.13,1.13,0,0,0,.51.08v.2H48.92v-.2H49a.85.85,0,0,0,.5-.11.57.57,0,0,0,.2-.32,3.21,3.21,0,0,0,0-.53V77.37a2.15,2.15,0,0,0-.18-1A.65.65,0,0,0,49,76a1.86,1.86,0,0,0-1.34.73v2.72a2,2,0,0,0,.06.65.53.53,0,0,0,.22.24,1.35,1.35,0,0,0,.56.08v.2H45.9v-.2H46a.61.61,0,0,0,.53-.2,1.46,1.46,0,0,0,.14-.76V77.57a8.27,8.27,0,0,0,0-1.13.49.49,0,0,0-.13-.28.35.35,0,0,0-.23-.07,1.08,1.08,0,0,0-.38.08l-.08-.2,1.56-.63h.24Z"/><path class="cls-2" d="M56.27,78.69a2.8,2.8,0,0,1-.82,1.57,2,2,0,0,1-1.35.55,2,2,0,0,1-1.53-.74,2.91,2.91,0,0,1-.65-2,2.75,2.75,0,0,1,.72-2,2.32,2.32,0,0,1,1.74-.76,1.91,1.91,0,0,1,1.25.4,1.12,1.12,0,0,1,.49.84.46.46,0,0,1-.14.35.54.54,0,0,1-.39.13.6.6,0,0,1-.5-.21.9.9,0,0,1-.13-.45.75.75,0,0,0-.23-.51.82.82,0,0,0-.55-.17,1.12,1.12,0,0,0-.91.42,2.22,2.22,0,0,0-.46,1.46,3,3,0,0,0,.45,1.63,1.39,1.39,0,0,0,1.23.71,1.48,1.48,0,0,0,1-.38,2.55,2.55,0,0,0,.6-.94Z"/><path class="cls-2" d="M58.79,75.34v4.15a1.91,1.91,0,0,0,.07.65.49.49,0,0,0,.21.24,1.12,1.12,0,0,0,.5.08v.2H57.07v-.2a1.17,1.17,0,0,0,.51-.07.5.5,0,0,0,.21-.24,1.82,1.82,0,0,0,.08-.65v-2a7,7,0,0,0-.05-1.09.44.44,0,0,0-.12-.25.35.35,0,0,0-.23-.07,1.13,1.13,0,0,0-.38.08L57,76l1.56-.63Zm-.47-2.7a.57.57,0,0,1,.57.57.56.56,0,0,1-.17.41.55.55,0,0,1-.4.17.58.58,0,0,1-.58-.58.55.55,0,0,1,.17-.4A.56.56,0,0,1,58.33,72.64Z"/><path class="cls-2" d="M61.09,77.43a2.65,2.65,0,0,0,.56,1.8,1.7,1.7,0,0,0,1.33.65,1.44,1.44,0,0,0,.88-.28,2.06,2.06,0,0,0,.63-1l.17.11A2.69,2.69,0,0,1,64,80.18a1.84,1.84,0,0,1-1.43.63A2.08,2.08,0,0,1,61,80.09a2.77,2.77,0,0,1-.66-1.95A3,3,0,0,1,61,76.07a2.21,2.21,0,0,1,1.71-.74,1.91,1.91,0,0,1,1.43.57,2.1,2.1,0,0,1,.56,1.53Zm0-.33h2.39a2.22,2.22,0,0,0-.12-.7,1.12,1.12,0,0,0-.42-.5,1.06,1.06,0,0,0-.58-.18,1.16,1.16,0,0,0-.84.36A1.58,1.58,0,0,0,61.09,77.11Z"/><path class="cls-2" d="M68.69,75.34V77.1H68.5A2.28,2.28,0,0,0,68,76a1.24,1.24,0,0,0-.85-.3,1,1,0,0,0-.64.21.61.61,0,0,0-.24.46.84.84,0,0,0,.18.54,2,2,0,0,0,.71.49l.82.4a1.67,1.67,0,0,1,1.14,1.47,1.39,1.39,0,0,1-.53,1.14,1.85,1.85,0,0,1-1.19.43,4.09,4.09,0,0,1-1.08-.17,1.11,1.11,0,0,0-.3-.06.22.22,0,0,0-.2.15h-.19V78.89h.19a2.1,2.1,0,0,0,.6,1.19,1.46,1.46,0,0,0,1,.4.89.89,0,0,0,.63-.23.72.72,0,0,0,.25-.55A.87.87,0,0,0,68,79a4.78,4.78,0,0,0-1.09-.67,3.24,3.24,0,0,1-1.07-.73,1.27,1.27,0,0,1-.25-.81A1.43,1.43,0,0,1,66,75.77a1.54,1.54,0,0,1,1.13-.43,2.65,2.65,0,0,1,.74.13,1.71,1.71,0,0,0,.38.08.23.23,0,0,0,.14,0,.55.55,0,0,0,.12-.17Z"/><path class="cls-2" d="M79.32,72.83l.17,2.6h-.17a3.28,3.28,0,0,0-1-1.68,2.44,2.44,0,0,0-1.56-.51,2.41,2.41,0,0,0-2.34,1.62,5.48,5.48,0,0,0-.35,2.1,4.47,4.47,0,0,0,.33,1.8,2.49,2.49,0,0,0,1,1.17,2.88,2.88,0,0,0,1.53.41A2.65,2.65,0,0,0,78.25,80a4.34,4.34,0,0,0,1.25-1.27l.17.11a4,4,0,0,1-1.34,1.5,3.4,3.4,0,0,1-1.82.47,3.45,3.45,0,0,1-2.94-1.41A4,4,0,0,1,72.79,77a4.39,4.39,0,0,1,.51-2.1,3.7,3.7,0,0,1,1.41-1.49,3.82,3.82,0,0,1,2-.53,3.59,3.59,0,0,1,1.64.41.9.9,0,0,0,.34.12.37.37,0,0,0,.26-.11.88.88,0,0,0,.21-.42Z"/><path class="cls-2" d="M83,75.34a2.29,2.29,0,0,1,1.88.89,2.74,2.74,0,0,1,.6,1.75,3.3,3.3,0,0,1-.33,1.4,2.36,2.36,0,0,1-2.22,1.43A2.19,2.19,0,0,1,81,79.88a2.89,2.89,0,0,1-.58-1.76,3.13,3.13,0,0,1,.35-1.41,2.41,2.41,0,0,1,.93-1A2.38,2.38,0,0,1,83,75.34Zm-.17.37a1.18,1.18,0,0,0-.6.18,1.25,1.25,0,0,0-.49.62,3,3,0,0,0-.19,1.15A4,4,0,0,0,82,79.59a1.33,1.33,0,0,0,1.18.82A1.1,1.1,0,0,0,84,80a2.57,2.57,0,0,0,.36-1.55,3.54,3.54,0,0,0-.59-2.17A1.22,1.22,0,0,0,82.79,75.7Z"/><path class="cls-2" d="M87.29,79.56a.6.6,0,0,1,.45.18.61.61,0,0,1,.18.44.63.63,0,1,1-.63-.63Z"/><path class="cls-2" d="M98.25,78.54l.19,0-.65,2.08H91.86v-.21h.29a.77.77,0,0,0,.69-.32A1.82,1.82,0,0,0,93,79.3V74.36a1.57,1.57,0,0,0-.16-.9.83.83,0,0,0-.65-.25h-.29V73h3.46v.21a2.11,2.11,0,0,0-.85.11.69.69,0,0,0-.34.3,2.48,2.48,0,0,0-.09.86v4.8a1.58,1.58,0,0,0,.09.64.41.41,0,0,0,.21.17,3.7,3.7,0,0,0,.88.06h.56A4.06,4.06,0,0,0,97,80a1.61,1.61,0,0,0,.65-.46A3.74,3.74,0,0,0,98.25,78.54Z"/><path class="cls-2" d="M100.54,73.79v1.7h1.21v.39h-1.21v3.35a1.13,1.13,0,0,0,.14.68.46.46,0,0,0,.37.17.65.65,0,0,0,.36-.12.74.74,0,0,0,.27-.34h.22a1.77,1.77,0,0,1-.56.83,1.21,1.21,0,0,1-.75.28,1,1,0,0,1-.51-.14.87.87,0,0,1-.37-.41,2.16,2.16,0,0,1-.12-.83V75.88h-.82V75.7a2.16,2.16,0,0,0,.63-.42,3.29,3.29,0,0,0,.58-.7,6.2,6.2,0,0,0,.36-.78Z"/><path class="cls-2" d="M105.9,80.07a2.62,2.62,0,0,1-.74.57,1.79,1.79,0,0,1-.78.17,1.93,1.93,0,0,1-1.48-.71,2.63,2.63,0,0,1-.63-1.82,3.29,3.29,0,0,1,.7-2,2.16,2.16,0,0,1,1.8-.92,1.55,1.55,0,0,1,1.13.43v-1a7.8,7.8,0,0,0,0-1.09.47.47,0,0,0-.13-.28.34.34,0,0,0-.23-.07,1.18,1.18,0,0,0-.39.09l-.07-.2,1.54-.63h.25v6a8.14,8.14,0,0,0,0,1.11A.49.49,0,0,0,107,80a.33.33,0,0,0,.22.08,1.24,1.24,0,0,0,.41-.1l.06.2-1.53.64h-.26Zm0-.39V77a1.79,1.79,0,0,0-.2-.7,1.16,1.16,0,0,0-.45-.48,1.08,1.08,0,0,0-.54-.16,1.15,1.15,0,0,0-.89.45,2.53,2.53,0,0,0-.51,1.71,2.69,2.69,0,0,0,.5,1.75,1.42,1.42,0,0,0,1.11.61A1.37,1.37,0,0,0,105.9,79.68Z"/></g></g></svg>