<svg xmlns="http://www.w3.org/2000/svg" viewBox="0 0 131 101"><defs><style>.cls-1{fill:none;stroke:#a7a9ac;opacity:0.66;}.cls-1,.cls-2{stroke-miterlimit:10;}.cls-2,.cls-3{fill:#a7a9ac;}.cls-2{stroke:#d1d3d4;stroke-width:0.5px;}</style></defs><title>brand-img-12</title><g id="Layer_2" data-name="Layer 2"><g id="Layer_1-2" data-name="Layer 1"><rect class="cls-1" x="0.5" y="0.5" width="130" height="100"/><path class="cls-2" d="M53.07,54.14H47.76a9.53,9.53,0,0,1-3.77-.7,3.71,3.71,0,0,1-2.15-1.84,1.73,1.73,0,0,1-.13-.6.43.43,0,0,1,.45-.5,1.69,1.69,0,0,1,.42,0,.46.46,0,0,1,.42.42,1.85,1.85,0,0,0,.83,1.33,6.11,6.11,0,0,0,3.69,1.12c3.6,0,7.2,0,10.8,0a7.86,7.86,0,0,0,3.47-.73,2.39,2.39,0,0,0,1.45-1.6,1.08,1.08,0,0,0,0-.45,2.35,2.35,0,0,0-1.73-1.78A14.19,14.19,0,0,0,58,48.11c-1.28-.1-2.56-.22-3.84-.33-1-.08-2.06-.15-3.08-.24a39.8,39.8,0,0,1-5.52-.86,6.66,6.66,0,0,1-2.6-1.15,2.21,2.21,0,0,1,0-3.53,7,7,0,0,1,3.77-1.44,24.75,24.75,0,0,1,2.55-.12c2.59,0,5.17,0,7.76,0a14.87,14.87,0,0,1,4,.36,5,5,0,0,1,3,1.75,3.73,3.73,0,0,1,.42,1.07.37.37,0,0,1-.28.46A.72.72,0,0,1,63,43.55a2.36,2.36,0,0,0-1.41-1.61,8,8,0,0,0-3.53-.71c-3.51,0-7,0-10.54,0a5.83,5.83,0,0,0-3.41,1.09,1.7,1.7,0,0,0,0,2.89,4.72,4.72,0,0,0,1.64.76,23.6,23.6,0,0,0,4.38.77l4.29.39c1.17.1,2.34.17,3.5.3a14.91,14.91,0,0,1,5.24,1.3,2.42,2.42,0,0,1,1.36,1.76A2.08,2.08,0,0,1,64,52.29a5,5,0,0,1-2.49,1.45,11,11,0,0,1-3.11.4Z"/><path class="cls-2" d="M78.69,49.31H72.58c-.39,0-.4,0-.4.4q0,1.95,0,3.89c0,.43-.1.53-.54.54h-.26c-.36,0-.46-.13-.46-.5q0-1.41,0-2.81c0-2.47,0-4.94,0-7.42a2.07,2.07,0,0,1,1-1.8,5.66,5.66,0,0,1,2.6-1,17.28,17.28,0,0,1,2.23-.18c2.57,0,5.13,0,7.7,0a15.75,15.75,0,0,1,4.1.49,9.3,9.3,0,0,1,2.83,1.29,4.17,4.17,0,0,1,1.35,1.47A2.77,2.77,0,0,1,91.92,47a9.2,9.2,0,0,1-5.15,2.1,26.37,26.37,0,0,1-2.88.17C82.15,49.33,80.42,49.31,78.69,49.31Zm0-.74v-.06c2.23,0,4.47,0,6.7,0a9.35,9.35,0,0,0,4-.91,4.92,4.92,0,0,0,1.73-1.26,2.06,2.06,0,0,0,.55-1.86,2.89,2.89,0,0,0-1.23-1.68,8.77,8.77,0,0,0-5-1.54c-3.16,0-6.33,0-9.49,0a5.53,5.53,0,0,0-2.37.49,2,2,0,0,0-1.38,2.06c.06,1.46,0,2.92,0,4.38,0,.41,0,.41.41.41Z"/><path class="cls-2" d="M112,54.14c-1.51,0-3,0-4.52,0A16.07,16.07,0,0,1,101.57,53a9.12,9.12,0,0,1-2.78-1.69,3.92,3.92,0,0,1-1.39-3q0-.94,0-1.88a3.91,3.91,0,0,1,1.44-3.08A10.45,10.45,0,0,1,103,41.18a16.25,16.25,0,0,1,4.7-.68l8.86,0a2.57,2.57,0,0,1,.75.12.37.37,0,0,1,.2.29.38.38,0,0,1-.23.27,2.45,2.45,0,0,1-.7.11c-3.09,0-6.18,0-9.26,0a12.39,12.39,0,0,0-6.49,1.81,4.16,4.16,0,0,0-2,2.41,3.12,3.12,0,0,0-.11.72c0,.64,0,1.29,0,1.93a3.4,3.4,0,0,0,1.19,2.69,8.79,8.79,0,0,0,3.71,2,17.48,17.48,0,0,0,4.88.63h8.24a1.47,1.47,0,0,1,.58.11.41.41,0,0,1,.2.32c0,.09-.14.21-.24.26a1.11,1.11,0,0,1-.42,0Z"/><path class="cls-3" d="M25.39,45.1c0,.38,0,.76,0,1.14,0,.21-.08.29-.29.29H23.38c-.23,0-.32-.11-.32-.33q0-1.09,0-2.19c0-.22.08-.33.31-.33h1.73c.2,0,.29.08.29.29C25.39,44.35,25.39,44.72,25.39,45.1Z"/><path class="cls-3" d="M20.22,58.57c0-.38,0-.76,0-1.14,0-.21.08-.29.29-.29h1.73c.23,0,.32.11.31.33,0,.73,0,1.46,0,2.19,0,.25-.11.33-.34.33H20.53c-.23,0-.32-.08-.32-.32S20.22,58.94,20.22,58.57Z"/><path class="cls-3" d="M25.51,58.59c0,.38,0,.76,0,1.14,0,.19-.08.28-.27.27H23.48c-.22,0-.3-.1-.3-.31,0-.74,0-1.48,0-2.21,0-.23.1-.32.33-.32h1.7c.22,0,.31.08.31.3C25.5,57.83,25.51,58.21,25.51,58.59Z"/><path class="cls-3" d="M16.47,45.12c0,.38,0,.76,0,1.14,0,.19-.08.28-.27.27H14.44c-.22,0-.3-.1-.3-.31,0-.74,0-1.48,0-2.22,0-.23.1-.32.33-.32h1.7c.22,0,.31.08.31.3C16.46,44.36,16.47,44.74,16.47,45.12Z"/><path class="cls-3" d="M19.42,45.11c0,.37,0,.74,0,1.11,0,.21-.07.31-.3.31H17.4c-.22,0-.31-.09-.31-.31q0-1.12,0-2.24c0-.2.09-.29.29-.29h1.76c.21,0,.28.1.28.3C19.42,44.35,19.42,44.73,19.42,45.11Z"/><path class="cls-3" d="M25.9,45.07c0-.35,0-.7,0-1.05s.08-.35.33-.34h1.68c.25,0,.33.11.33.34q0,1.08,0,2.16c0,.24-.08.35-.33.34H26.23c-.25,0-.34-.11-.33-.34S25.9,45.44,25.9,45.07Z"/><path class="cls-3" d="M28.35,58.57c0,.37,0,.74,0,1.11s-.1.32-.33.32h-1.7c-.22,0-.31-.1-.3-.31q0-1.11,0-2.22c0-.23.1-.32.33-.32H28c.22,0,.31.1.3.31C28.34,57.83,28.35,58.2,28.35,58.57Z"/><path class="cls-3" d="M36.7,45.13c0,.35,0,.7,0,1.05s-.08.35-.33.34H34.7c-.25,0-.33-.11-.33-.34q0-1.08,0-2.16c0-.24.08-.35.33-.34h1.68c.25,0,.34.11.33.34S36.7,44.76,36.7,45.13Z"/><path class="cls-3" d="M37.22,45.08c0-.36,0-.72,0-1.08,0-.21.07-.32.3-.32h1.73c.22,0,.31.1.3.31q0,1.11,0,2.22c0,.21-.07.32-.3.32H37.52c-.22,0-.31-.1-.3-.31C37.22,45.84,37.22,45.46,37.22,45.08Z"/><path class="cls-3" d="M37.33,58.56c0-.36,0-.72,0-1.08s.08-.33.31-.33h1.7c.23,0,.32.1.32.33q0,1.09,0,2.19c0,.22-.08.33-.31.33h-1.7c-.23,0-.32-.1-.32-.33S37.33,58.93,37.33,58.56Z"/><path class="cls-3" d="M34.49,58.58c0-.36,0-.72,0-1.08s.08-.35.33-.35h1.68c.22,0,.33.08.33.31q0,1.11,0,2.22c0,.23-.1.32-.33.32H34.82c-.25,0-.34-.1-.33-.34S34.49,58.94,34.49,58.58Z"/><path class="cls-3" d="M31.19,58.58c0,.36,0,.72,0,1.08s-.08.35-.33.34H29.19c-.25,0-.33-.11-.33-.34q0-1.08,0-2.16c0-.24.08-.35.33-.34h1.68c.25,0,.34.11.33.34S31.19,58.22,31.19,58.58Z"/><path class="cls-3" d="M17.09,58.43c0-.37,0-.74,0-1.11,0-.2.08-.29.29-.29h1.76c.21,0,.29.08.29.29q0,1.11,0,2.21c0,.2-.08.29-.29.29H17.38c-.21,0-.29-.08-.29-.29C17.1,59.17,17.09,58.8,17.09,58.43Z"/><path class="cls-3" d="M14.14,41.64c0-.36,0-.72,0-1.08,0-.2.08-.29.29-.29h1.76c.21,0,.29.08.29.29q0,1.11,0,2.21c0,.2-.08.29-.29.29H14.42c-.21,0-.29-.08-.29-.29C14.14,42.39,14.14,42,14.14,41.64Z"/><path class="cls-3" d="M17.09,41.66c0-.37,0-.74,0-1.11,0-.2.08-.29.29-.29h1.76c.21,0,.29.08.29.29q0,1.11,0,2.21c0,.2-.08.29-.29.29H17.38c-.21,0-.29-.08-.29-.29C17.1,42.4,17.09,42,17.09,41.66Z"/><path class="cls-3" d="M16.47,58.43c0,.37,0,.74,0,1.11,0,.2-.07.29-.28.29H14.43c-.2,0-.29-.07-.29-.28q0-1.11,0-2.21c0-.2.07-.29.28-.29h1.76c.23,0,.3.1.29.31S16.47,58.07,16.47,58.43Z"/><path class="cls-3" d="M25.39,41.68c0,.37,0,.74,0,1.11,0,.19-.08.28-.27.28H23.34c-.19,0-.28-.08-.27-.27q0-1.12,0-2.24c0-.19.07-.28.27-.28h1.79c.22,0,.28.1.28.3C25.39,40.94,25.39,41.31,25.39,41.68Z"/><path class="cls-3" d="M28.23,41.66c0,.37,0,.74,0,1.11,0,.2-.08.29-.29.29H26.19c-.21,0-.29-.08-.29-.29q0-1.11,0-2.22c0-.2.08-.29.29-.29h1.76c.21,0,.29.08.29.29C28.23,40.93,28.23,41.3,28.23,41.66Z"/><path class="cls-3" d="M36.7,41.69c0,.36,0,.72,0,1.08,0,.2-.08.29-.29.29H34.66c-.21,0-.29-.08-.29-.29q0-1.11,0-2.22c0-.2.08-.29.29-.29h1.76c.21,0,.29.08.29.29C36.7,40.94,36.7,41.31,36.7,41.69Z"/><path class="cls-3" d="M39.55,41.68c0,.37,0,.74,0,1.11,0,.19-.08.28-.27.27H37.49c-.19,0-.27-.08-.27-.27q0-1.12,0-2.24c0-.19.08-.28.27-.27h1.79c.19,0,.28.08.27.27C39.54,40.92,39.55,41.3,39.55,41.68Z"/><path class="cls-3" d="M16.47,48.42c0,.37,0,.74,0,1.11,0,.2-.07.3-.28.29H14.43c-.2,0-.29-.07-.29-.28q0-1.11,0-2.21c0-.2.07-.3.28-.29h1.76c.23,0,.3.1.29.31S16.47,48.06,16.47,48.42Z"/><path class="cls-3" d="M19.42,48.46c0,.36,0,.72,0,1.08,0,.2-.08.29-.29.29H17.38c-.21,0-.29-.08-.29-.29q0-1.11,0-2.21c0-.2.08-.29.29-.29h1.76c.21,0,.29.08.29.29C19.42,47.7,19.42,48.08,19.42,48.46Z"/><path class="cls-3" d="M36.7,48.43c0,.37,0,.74,0,1.11,0,.2-.08.29-.29.29H34.66c-.2,0-.29-.08-.29-.29q0-1.11,0-2.22c0-.2.08-.29.29-.29h1.76c.21,0,.29.08.29.29C36.7,47.69,36.7,48.06,36.7,48.43Z"/><path class="cls-3" d="M37.22,48.4c0-.36,0-.72,0-1.08,0-.2.08-.29.28-.29h1.76c.2,0,.29.08.29.29q0,1.11,0,2.22c0,.2-.08.29-.28.29H37.5c-.2,0-.29-.08-.29-.29C37.22,49.16,37.22,48.78,37.22,48.4Z"/><path class="cls-3" d="M16.47,51.81c0,.36,0,.72,0,1.08,0,.21-.08.29-.29.29H14.42c-.21,0-.29-.08-.29-.29q0-1.11,0-2.21c0-.2.08-.29.29-.29h1.76c.21,0,.29.08.29.29C16.46,51.05,16.47,51.43,16.47,51.81Z"/><path class="cls-3" d="M17.09,51.78c0-.37,0-.74,0-1.11,0-.2.08-.29.29-.29h1.76c.21,0,.29.08.29.29q0,1.11,0,2.21c0,.2-.08.29-.29.29H17.38c-.21,0-.29-.08-.29-.29C17.1,52.52,17.09,52.15,17.09,51.78Z"/><path class="cls-3" d="M16.47,55.08c0,.37,0,.74,0,1.11,0,.2-.08.29-.29.29H14.42c-.21,0-.29-.08-.29-.29q0-1.11,0-2.21c0-.2.08-.29.29-.29h1.76c.21,0,.29.08.29.29C16.46,54.34,16.47,54.71,16.47,55.08Z"/><path class="cls-3" d="M19.42,55.08c0,.37,0,.74,0,1.11,0,.2-.08.29-.29.29H17.38c-.21,0-.29-.08-.29-.29q0-1.11,0-2.21c0-.2.08-.29.29-.29h1.76c.21,0,.29.08.29.29C19.42,54.34,19.42,54.71,19.42,55.08Z"/><path class="cls-3" d="M22.55,55.09c0,.37,0,.74,0,1.11,0,.19-.08.28-.27.27H20.49c-.19,0-.27-.08-.27-.27q0-1.12,0-2.24c0-.19.08-.28.27-.27h1.79c.19,0,.28.08.27.27C22.55,54.34,22.55,54.71,22.55,55.09Z"/><path class="cls-3" d="M25.51,55.11c0,.36,0,.72,0,1.08,0,.2-.08.29-.29.29H23.46c-.21,0-.29-.08-.29-.29q0-1.11,0-2.21c0-.2.08-.29.29-.29h1.76c.21,0,.29.08.29.29C25.5,54.35,25.51,54.73,25.51,55.11Z"/><path class="cls-3" d="M34.37,51.89c0-.37,0-.74,0-1.11,0-.21.09-.29.29-.29h1.76c.21,0,.29.08.29.29q0,1.09,0,2.18c0,.23-.1.32-.32.32h-1.7c-.24,0-.32-.1-.31-.32S34.37,52.25,34.37,51.89Z"/><path class="cls-3" d="M39.55,51.87c0,.36,0,.72,0,1.08s-.08.35-.33.34h-1.7c-.22,0-.31-.08-.3-.3q0-1.09,0-2.18c0-.21.07-.31.3-.31h1.76c.21,0,.29.09.28.29C39.54,51.15,39.55,51.51,39.55,51.87Z"/><path class="cls-3" d="M28.35,55.07c0,.37,0,.74,0,1.11,0,.2-.06.3-.28.3H26.29c-.19,0-.27-.08-.27-.27q0-1.11,0-2.21c0-.22.1-.3.31-.3h1.73c.23,0,.3.1.29.31S28.35,54.71,28.35,55.07Z"/><path class="cls-3" d="M31.19,55.09c0,.36,0,.72,0,1.08s-.07.31-.3.31H29.17c-.21,0-.31-.07-.31-.3,0-.73,0-1.46,0-2.18,0-.21.08-.31.3-.31h1.76c.19,0,.28.08.27.27C31.19,54.34,31.19,54.71,31.19,55.09Z"/><path class="cls-3" d="M34.49,55.08c0-.37,0-.74,0-1.11,0-.2.07-.3.28-.29h1.76c.2,0,.29.09.29.29q0,1.12,0,2.24c0,.18-.08.26-.26.26H34.75c-.2,0-.26-.1-.26-.28C34.49,55.82,34.49,55.45,34.49,55.08Z"/><path class="cls-3" d="M37.33,55.08c0-.37,0-.74,0-1.11,0-.21.08-.29.29-.29h1.73c.23,0,.32.1.32.33,0,.72,0,1.44,0,2.16,0,.24-.1.31-.32.31h-1.7c-.24,0-.32-.1-.31-.32S37.33,55.44,37.33,55.08Z"/><path class="cls-3" d="M31.64,45.1c0-.38,0-.76,0-1.14,0-.21.08-.29.29-.29h1.7c.2,0,.29.08.29.29q0,1.14,0,2.27c0,.21-.08.29-.29.29h-1.7c-.2,0-.29-.08-.29-.29C31.65,45.86,31.64,45.48,31.64,45.1Z"/><path class="cls-3" d="M28.8,45.1c0-.37,0-.74,0-1.11,0-.21.06-.32.29-.31h1.7c.21,0,.29.08.29.29q0,1.14,0,2.27c0,.21-.09.29-.29.28h-1.7c-.21,0-.29-.08-.29-.29C28.81,45.86,28.8,45.48,28.8,45.1Z"/><path class="cls-3" d="M22.38,45.12c0,.37,0,.74,0,1.11,0,.2-.06.3-.28.3H20.37c-.19,0-.27-.08-.27-.27q0-1.15,0-2.3c0-.19.09-.27.28-.27h1.73c.19,0,.27.08.27.27C22.38,44.34,22.38,44.73,22.38,45.12Z"/><path class="cls-3" d="M13.63,45.1c0,.38,0,.76,0,1.14,0,.2-.08.29-.28.29h-1.7c-.2,0-.29-.07-.29-.28q0-1.14,0-2.27c0-.2.08-.29.28-.29h1.7c.23,0,.3.1.29.31C13.62,44.36,13.63,44.73,13.63,45.1Z"/><path class="cls-3" d="M34,58.58c0,.37,0,.74,0,1.11,0,.21-.06.32-.29.31H32c-.21,0-.29-.09-.29-.29q0-1.14,0-2.27c0-.21.09-.29.29-.28h1.7c.21,0,.29.09.29.29C34,57.82,34,58.2,34,58.58Z"/><path class="cls-3" d="M13.63,41.69c0,.36,0,.72,0,1.08,0,.2-.07.29-.28.29h-1.7c-.2,0-.29-.07-.29-.28q0-1.11,0-2.22c0-.2.07-.29.28-.29h1.7c.23,0,.3.1.29.31C13.62,40.95,13.63,41.32,13.63,41.69Z"/><path class="cls-3" d="M22.38,41.67c0,.36,0,.72,0,1.08s-.07.31-.3.31H20.41c-.21,0-.31-.07-.31-.3q0-1.09,0-2.19c0-.21.07-.31.3-.31h1.68c.24,0,.31.1.31.33S22.38,41.31,22.38,41.67Z"/><path class="cls-3" d="M31.64,51.87c0-.36,0-.72,0-1.08,0-.21.08-.29.29-.29h1.7c.2,0,.29.08.29.29q0,1.11,0,2.22c0,.21-.08.29-.29.29h-1.7c-.2,0-.29-.08-.29-.29C31.65,52.63,31.64,52.25,31.64,51.87Z"/><path class="cls-3" d="M31.76,55.05c0-.36,0-.72,0-1.08,0-.21.08-.29.29-.29h1.7c.21,0,.29.08.29.29q0,1.11,0,2.22c0,.21-.08.29-.29.29H32c-.21,0-.29-.08-.29-.29C31.76,55.81,31.76,55.43,31.76,55.05Z"/><path class="cls-3" d="M33.92,48.46c0,.37,0,.74,0,1.11,0,.18-.07.26-.25.26H31.88c-.17,0-.24-.08-.24-.25q0-1.15,0-2.3c0-.16.07-.25.24-.24h1.79c.18,0,.25.09.25.26C33.92,47.68,33.92,48.07,33.92,48.46Z"/><path class="cls-3" d="M11.35,48.43c0-.37,0-.74,0-1.11,0-.2.08-.29.28-.29h1.7c.2,0,.29.08.29.28q0,1.11,0,2.22c0,.2-.08.29-.28.29h-1.7c-.23,0-.3-.1-.29-.31S11.35,48.79,11.35,48.43Z"/><path class="cls-3" d="M11.35,55.05c0-.36,0-.72,0-1.08,0-.21.08-.29.29-.29h1.7c.21,0,.29.08.29.29q0,1.11,0,2.22c0,.21-.08.29-.29.29h-1.7c-.21,0-.29-.08-.29-.29C11.36,55.81,11.35,55.43,11.35,55.05Z"/><path class="cls-3" d="M13.63,51.78c0,.37,0,.74,0,1.11,0,.21-.08.29-.29.29h-1.7c-.2,0-.29-.08-.29-.29q0-1.11,0-2.22c0-.2.08-.29.29-.29h1.7c.2,0,.29.08.29.29C13.62,51,13.63,51.41,13.63,51.78Z"/><path class="cls-3" d="M11.35,58.42c0-.36,0-.72,0-1.08s.07-.31.3-.31h1.68c.21,0,.31.07.31.3q0,1.09,0,2.19c0,.21-.07.31-.3.31H11.66c-.24,0-.31-.1-.31-.33S11.35,58.78,11.35,58.42Z"/><path class="cls-3" d="M28.8,41.66c0-.37,0-.74,0-1.11,0-.2.07-.29.28-.29h1.73c.19,0,.27.09.27.28q0,1.12,0,2.24c0,.19-.07.28-.27.28H29.05c-.18,0-.26-.08-.25-.26C28.8,42.42,28.8,42,28.8,41.66Z"/><path class="cls-3" d="M33.92,41.69c0,.37,0,.74,0,1.11,0,.18-.07.26-.25.26H31.88c-.17,0-.24-.08-.24-.25q0-1.15,0-2.3c0-.16.07-.25.24-.24h1.79c.18,0,.25.09.25.26C33.92,40.92,33.92,41.31,33.92,41.69Z"/><path class="cls-3" d="M75.18,57.74c.35.34.64.63.93.93a.87.87,0,0,1,.12.25c-.1,0-.22,0-.29-.08-.33-.31-.64-.65-1-1a1,1,0,0,0-.5-.2c-.28,0-.57,0-.85,0s-.31.07-.3.3a5.5,5.5,0,0,1,0,.71.85.85,0,0,1-.14.27c0-.09-.14-.17-.14-.26,0-.89,0-1.78,0-2.67a.72.72,0,0,1,.74-.74c.44,0,.89,0,1.34,0a1.16,1.16,0,0,1,1.17,1,1.21,1.21,0,0,1-.74,1.33Zm-.93-.3v.05a9,9,0,0,0,1.17-.18.89.89,0,0,0,.6-.85.94.94,0,0,0-.69-.85,10.2,10.2,0,0,0-1.61,0c-.27,0-.41.23-.41.5s0,.74,0,1.11c0,.2.1.27.28.26Z"/><path class="cls-3" d="M43.65,59.26c-.27,0-.53,0-.8,0a.9.9,0,0,1-.85-.77c0-.08.07-.17.11-.25.06.07.14.12.16.2.13.41.29.54.71.54h1.36a.65.65,0,1,0,.13-1.29c-.45-.09-.9-.15-1.34-.24a2.32,2.32,0,0,1-.62-.2.88.88,0,0,1-.46-1,.94.94,0,0,1,.85-.69c.51,0,1,0,1.53,0a.92.92,0,0,1,.88.78c0,.08-.06.17-.09.26-.06-.06-.14-.12-.17-.19-.16-.43-.32-.56-.77-.56s-.87,0-1.31,0a.67.67,0,0,0-.67.58.65.65,0,0,0,.49.68,1.54,1.54,0,0,0,.27.08l1.2.23a3.12,3.12,0,0,1,.49.14.84.84,0,0,1,.59,1,.87.87,0,0,1-.85.77c-.28,0-.57,0-.85,0Zm1.47-1.33a2.23,2.23,0,0,1,.06.51c0,.4-.37.64-.86.65H42.61s0,0,.1,0c.63,0,1.27,0,1.89,0A.75.75,0,0,0,45.13,57.93Zm-.26-2.14a3.77,3.77,0,0,0-2.3,0A5.51,5.51,0,0,1,44.86,55.79Z"/><path class="cls-3" d="M92.27,58.86c-.28,0-.57,0-.85,0a.87.87,0,0,1-.81-.77c0-.07.06-.15.1-.23s.14.09.16.16c.19.49.27.56.78.56H93a.61.61,0,0,0,.67-.48.59.59,0,0,0-.45-.74c-.39-.12-.8-.16-1.19-.24a5.36,5.36,0,0,1-.9-.25.83.83,0,0,1-.47-1,.81.81,0,0,1,.73-.69,15.28,15.28,0,0,1,1.81,0,.84.84,0,0,1,.73.73c0,.08-.06.17-.1.26s-.14-.12-.16-.19a.71.71,0,0,0-.7-.56c-.45,0-.91,0-1.36,0a.65.65,0,0,0-.68.59.59.59,0,0,0,.52.7c.45.12.91.18,1.36.29a3.61,3.61,0,0,1,.68.2.8.8,0,0,1,.48.9.85.85,0,0,1-.81.78c-.29,0-.59,0-.88,0ZM90.72,58a.69.69,0,0,0,.63.7c.6,0,1.19,0,1.79,0a.73.73,0,0,0,.62-1.08c0,.8-.18,1-1,1h-1C91.12,58.69,90.95,58.58,90.72,58Zm2.48-2.69a4,4,0,0,0-2,0Z"/><path class="cls-3" d="M117.38,58.86c-.28,0-.57,0-.85,0a.86.86,0,0,1-.81-.76c0-.08.07-.15.1-.23s.13.1.16.17c.22.5.28.54.8.54h1.34a.61.61,0,0,0,.65-.48.55.55,0,0,0-.4-.74c-.39-.12-.81-.17-1.22-.26a5.85,5.85,0,0,1-.87-.24.89.89,0,0,1,.18-1.69,13.45,13.45,0,0,1,1.86,0,.84.84,0,0,1,.73.74c0,.08-.06.16-.09.24s-.15-.1-.18-.17a.75.75,0,0,0-.74-.58c-.44,0-.87,0-1.31,0s-.82.41-.66.85a.75.75,0,0,0,.42.41c.46.14.94.21,1.41.31a3.93,3.93,0,0,1,.63.17.89.89,0,0,1-.32,1.71h-.82Zm-1.31-.26a1.44,1.44,0,0,0,.38.14c.61,0,1.23,0,1.84,0,.44,0,.81-.57.61-.88-.05.6-.31.84-.91.84-.41,0-.81,0-1.22,0C116.57,58.68,116.36,58.64,116.07,58.6Zm2.26-3.26v-.09a6.92,6.92,0,0,0-2.08.09ZM116,56.59l-.16-.78A.76.76,0,0,0,116,56.59Z"/><path class="cls-3" d="M59.72,57.67h-.8c-.19,0-.28.07-.27.27s0,.51,0,.77c0,.08-.09.16-.14.25,0-.08-.14-.16-.14-.23,0-.91,0-1.82,0-2.73a.7.7,0,0,1,.76-.71h1.36a1.2,1.2,0,0,1,0,2.39h-.77Zm-.13-.24v0a10.32,10.32,0,0,0,1.14-.16.83.83,0,0,0,.6-.84.92.92,0,0,0-.63-.86,3.51,3.51,0,0,0-1.71,0,.41.41,0,0,0-.34.43c0,.4,0,.8,0,1.19a.32.32,0,0,0,.22.22A5.61,5.61,0,0,0,59.58,57.43Z"/><path class="cls-3" d="M65.15,55.46l-.31,0c-.44,0-.89,0-1.33.07a1.22,1.22,0,0,0-1,1.12c0,.2.06.29.27.29h1.76a.51.51,0,0,1,.2,0,1.39,1.39,0,0,1,.23.16c-.08,0-.15.11-.23.12H62.81c-.35,0-.41.09-.31.43a1.39,1.39,0,0,0,1.4,1h1c.08,0,.15.07.23.11S65,59,64.93,59c-.45,0-.91,0-1.36,0a1.53,1.53,0,0,1-1.38-1.48,5.69,5.69,0,0,1,0-.85,1.57,1.57,0,0,1,1.63-1.37c.35,0,.7,0,1.05,0a1.11,1.11,0,0,1,.28.08Z"/><path class="cls-3" d="M70.8,57.27h-1c-.22,0-.28.09-.24.3a1.39,1.39,0,0,0,1.46,1.17c.33,0,.66,0,1,0,.07,0,.14.08.21.12s-.14.1-.21.1a11.75,11.75,0,0,1-1.42,0,1.34,1.34,0,0,1-1.19-1,2.53,2.53,0,0,1,.08-1.93,1.4,1.4,0,0,1,1.26-.79q.6,0,1.19,0a1,1,0,0,1,.29.11,1.08,1.08,0,0,1-.3.12c-.42,0-.85,0-1.27.07a1.28,1.28,0,0,0-1.1,1.17c0,.21.09.24.25.24.62,0,1.23,0,1.85,0a1.13,1.13,0,0,1,.36.14,1.29,1.29,0,0,1-.36.14c-.29,0-.59,0-.88,0Z"/><path class="cls-3" d="M105.5,55.16a.62.62,0,0,1,.63.41q.63,1.47,1.25,3c0,.08,0,.2,0,.3l-.24-.2a.09.09,0,0,1,0-.05c-.1-.62-.5-.75-1.06-.69a14.25,14.25,0,0,1-1.53,0,.36.36,0,0,0-.4.28,2.92,2.92,0,0,1-.21.5c0,.07-.13.12-.2.17s-.07-.2,0-.27c.24-.62.5-1.23.75-1.84.17-.4.34-.8.52-1.2A.56.56,0,0,1,105.5,55.16Zm-1.13,2.41h2.31c-.27-.65-.51-1.25-.79-1.84-.06-.14-.26-.32-.38-.3a.66.66,0,0,0-.4.34c-.17.32-.29.68-.43,1Zm-.2.12v0h2.74v0Z"/><path class="cls-3" d="M89.44,58.58a2.26,2.26,0,0,0,.06-.36c0-.89,0-1.78,0-2.67a3.3,3.3,0,0,1,0-.35l.1,0a.9.9,0,0,1,.09.27c0,1,0,2,0,3a.45.45,0,0,1-.21.35.48.48,0,0,1-.42-.11c-.34-.39-.65-.81-1-1.22l-1.46-1.88c0-.06-.11-.12-.22-.24a3.56,3.56,0,0,0-.06.42c0,.91,0,1.82,0,2.73a1.71,1.71,0,0,1-.07.34H86.2a2.06,2.06,0,0,1,0-.31c0-1,0-2,0-2.93,0-.14.09-.37.18-.39a.58.58,0,0,1,.47.14c.4.46.75.95,1.13,1.42l1.29,1.66.12.18Zm.14-.08h0V55.41h0Zm-3.32-2.91h0v3h0Z"/><path class="cls-3" d="M111.37,58.55c0-.11,0-.22,0-.33,0-.9,0-1.8,0-2.7a1.85,1.85,0,0,1,.07-.34h.12a2.41,2.41,0,0,1,0,.33q0,1.41,0,2.81c0,.2,0,.42-.22.5s-.39-.08-.52-.25l-2.31-3a.52.52,0,0,0-.25-.18,2.44,2.44,0,0,0-.05.35c0,.9,0,1.8,0,2.7a3.25,3.25,0,0,1,0,.35l-.11,0a1.37,1.37,0,0,1-.08-.32c0-1,0-1.95,0-2.92,0-.18,0-.35.22-.41a.44.44,0,0,1,.49.19L110,57l1,1.35.21.29Zm-3.16.06q0-.13,0-.27c0-.85,0-1.7,0-2.55a4.12,4.12,0,0,1,.05-.48A12.25,12.25,0,0,0,108.21,58.61Zm3.34-3.2h0v3h0Z"/><path class="cls-3" d="M54.85,59.26a.7.7,0,0,1-.66-.49l-1.05-2.57A3.15,3.15,0,0,1,53,55.8c0-.07,0-.16,0-.24s.15.08.18.14c.25.56.49,1.13.73,1.7.17.4.33.8.51,1.2.08.19.19.4.43.39s.33-.22.41-.41c.4-.94.79-1.88,1.2-2.82,0-.08.14-.14.21-.21,0,.1.05.22,0,.3-.41,1-.83,2-1.25,3A.6.6,0,0,1,54.85,59.26Z"/><path class="cls-3" d="M98.32,56.41a9.92,9.92,0,0,1-.17,1.43,1.47,1.47,0,0,1-1.39,1,1.91,1.91,0,0,1-1.35-.32,1.5,1.5,0,0,1-.61-1.17c0-.64,0-1.29,0-1.93,0-.09.08-.19.12-.28.05.1.15.19.15.29,0,.6,0,1.19,0,1.79a1.27,1.27,0,0,0,1.34,1.33c.79,0,1.21-.23,1.45-.84a1.55,1.55,0,0,0,.1-.52c0-.52,0-1,0-1.56a.68.68,0,0,1,0-.23,1.57,1.57,0,0,1,.15-.26.77.77,0,0,1,.12.25c0,.24,0,.49,0,.74q0,.13,0,.26Zm-.18-1h0c0,.58,0,1.15,0,1.73a1.72,1.72,0,0,1-.35,1.06l-.09.14a1.08,1.08,0,0,0,.48-.84C98.16,56.81,98.14,56.11,98.14,55.41Zm-3.22-.06c0,.72,0,1.45,0,2.17a1.86,1.86,0,0,0,.17.51A14.41,14.41,0,0,1,94.92,55.36Zm.65,3.16a2.24,2.24,0,0,0,1.51.19c-.24,0-.48,0-.72,0A8,8,0,0,1,95.57,58.52Z"/><path class="cls-3" d="M50.73,57.5c-.31,0-.63,0-.94,0s-.31.11-.28.33A1.31,1.31,0,0,0,50.77,59c.38,0,.76,0,1.14,0,.1,0,.19.1.29.15-.09,0-.19.13-.28.13a8.89,8.89,0,0,1-1.5-.06A1.37,1.37,0,0,1,49.26,58a2.3,2.3,0,0,1,.25-1.78,1.56,1.56,0,0,1,1.3-.69c.38,0,.76,0,1.14,0,.09,0,.17.08.25.13-.08.05-.17.15-.26.15-.38,0-.76,0-1.14,0a1.3,1.3,0,0,0-1.28,1c-.07.33,0,.41.32.42h1.7a.84.84,0,0,1,.23,0,.68.68,0,0,1,.17.11c-.06,0-.11.11-.17.11H50.73Zm1.05-.07v-.08l-.24,0H49.75c-.36,0-.42-.07-.34-.43,0-.17.1-.34.18-.58a2.08,2.08,0,0,0,.21,2.39c-.09-.15-.16-.25-.22-.37a2.17,2.17,0,0,1-.15-.4c-.11-.44-.05-.52.4-.52ZM52,59.12a5,5,0,0,1-2-.25C50.59,59.3,51.3,59.07,52,59.12Zm0-3.48a4.8,4.8,0,0,0-1.8.12Z"/><path class="cls-3" d="M79.82,58.86h-.57a1.5,1.5,0,0,1-1.46-1.48,3.88,3.88,0,0,1,.06-1.15,1.43,1.43,0,0,1,1.35-1.07c.42,0,.85,0,1.27,0,.08,0,.16.09.24.14-.08,0-.16.12-.24.13-.26,0-.53,0-.79,0-1.32,0-1.78.8-1.64,2a1.27,1.27,0,0,0,1.42,1.23c.33,0,.66,0,1,0,.09,0,.17.11.26.16a.86.86,0,0,1-.26.11C80.26,58.87,80,58.86,79.82,58.86ZM78,57.76c0-.75-.19-1.48.42-2.11C77.92,55.84,77.72,57.08,78,57.76Zm.66-2.31c.21,0,.41-.11.62-.14a5.56,5.56,0,0,1,.62,0h.61A3.35,3.35,0,0,0,78.64,55.46Zm.29,3.22v0H80.5v0Z"/><path class="cls-3" d="M67.63,57.24c0,.48,0,1,0,1.45a.77.77,0,0,1-.11.26c0-.08-.11-.17-.12-.25,0-.94,0-1.87,0-2.81,0-.36,0-.37-.37-.37s-.59,0-.88,0a.71.71,0,0,1-.23-.11c.07,0,.15-.12.22-.12h2.75c.07,0,.15.07.22.11-.08,0-.15.11-.23.11-.31,0-.62,0-.94,0s-.32.08-.32.31c0,.47,0,.95,0,1.42Z"/><path class="cls-3" d="M113.78,57.12c0-.46,0-.93,0-1.39,0-.24-.07-.35-.33-.34s-.63,0-.94,0c-.08,0-.15-.07-.23-.12.08-.05.15-.15.23-.16.35,0,.7,0,1.05,0h1.48a.8.8,0,0,1,.25,0,.93.93,0,0,1,.21.15c-.07,0-.14.12-.22.12a8,8,0,0,1-.88,0c-.28,0-.36.1-.36.37,0,.87,0,1.74,0,2.61a.85.85,0,0,1,0,.25.92.92,0,0,1-.14.21c0-.07-.13-.14-.13-.21,0-.5,0-1,0-1.51Zm-1.23-1.88v0h1c.36,0,.39,0,.4.39,0,.9,0,1.8,0,2.7q0,.12,0,.24c.05-1,0-2,.05-2.93,0-.37,0-.4.41-.4h.94v0Z"/><path class="cls-3" d="M102.7,57.1c0,.45,0,.91,0,1.36a.8.8,0,0,1,0,.25.19.19,0,0,1-.13.12s-.1-.07-.12-.12a1,1,0,0,1,0-.25c0-.9,0-1.8,0-2.7,0-.27-.09-.37-.36-.36s-.62,0-.94,0c-.07,0-.13-.08-.19-.12s.11-.13.18-.15a1.41,1.41,0,0,1,.34,0h2.19a.69.69,0,0,1,.23,0,2.06,2.06,0,0,1,.29.16.92.92,0,0,1-.28.12,7.22,7.22,0,0,1-.82,0c-.26,0-.36.08-.35.34C102.71,56.19,102.7,56.64,102.7,57.1Zm1.23-1.82v0h-2.75a6.46,6.46,0,0,0,1,0c.27,0,.37.11.36.37s0,.62,0,.94q0,1,0,2h.05q0-.14,0-.28c0-.9,0-1.8,0-2.7,0-.27.1-.38.37-.37S103.6,55.28,103.93,55.28Z"/><path class="cls-3" d="M47.43,55.5c.44,0,.87,0,1.31,0,.1,0,.19.1.29.15a.87.87,0,0,1-.28.12,7.74,7.74,0,0,1-.85,0c-.25,0-.33.09-.33.33q0,1.36,0,2.73a1.18,1.18,0,0,1-.14.37,1.22,1.22,0,0,1-.13-.37c0-.86,0-1.72,0-2.58,0-.48,0-.48-.46-.48a5.88,5.88,0,0,1-.62,0,1.53,1.53,0,0,1-.36-.13,1.11,1.11,0,0,1,.35-.15C46.59,55.49,47,55.5,47.43,55.5Zm0,3.51h.05q0-.14,0-.28c0-.9,0-1.8,0-2.7,0-.27.1-.38.37-.37s.7,0,1,0v0H46a6.6,6.6,0,0,0,1,0c.27,0,.37.1.36.37s0,.62,0,.94Q47.4,58,47.39,59Z"/><path class="cls-3" d="M83.42,58.86a1.66,1.66,0,0,1-1.61-.62l0,0a2.07,2.07,0,0,1,.77-3,2.5,2.5,0,0,1,2,.09c.87.45,1,1.18.83,2.13a1.52,1.52,0,0,1-1.66,1.41Zm.84-.22a1.46,1.46,0,0,0,.93-1.11,2.31,2.31,0,0,0-.06-1.28,1.44,1.44,0,0,0-.7-.82,2.54,2.54,0,0,0-2.09,0,.18.18,0,0,0,0,0l-.55.59a.9.9,0,0,0-.14.3,7,7,0,0,0,0,1.21,1,1,0,0,0,.58.85l.2.13a1.05,1.05,0,0,0,.33.14c.43,0,.87,0,1.3,0A.62.62,0,0,0,84.26,58.65Z"/><path class="cls-3" d="M99.24,56.55c0,.37,0,.74,0,1.11a.86.86,0,0,0,.91.91c.3,0,.61,0,.91,0,.09,0,.17.11.25.16a.84.84,0,0,1-.26.11c-.27,0-.55,0-.82,0A1.17,1.17,0,0,1,99,57.66c0-.75,0-1.5,0-2.24,0-.09.1-.17.15-.26,0,.08.12.17.12.25,0,.38,0,.76,0,1.14Zm0,1.67c-.19-.93,0-1.87-.11-2.8,0,.79,0,1.57,0,2.36A1.89,1.89,0,0,0,99.19,58.22Zm1.89.52v-.05H99.78a.75.75,0,0,0,.17,0Z"/><path class="cls-3" d="M45.13,57.93a.75.75,0,0,1-.53,1.18c-.63,0-1.26,0-1.89,0-.06,0-.12,0-.1,0h1.71c.49,0,.82-.25.86-.65A2.23,2.23,0,0,0,45.13,57.93Z"/><path class="cls-3" d="M44.86,55.79a5.52,5.52,0,0,0-2.3,0A3.77,3.77,0,0,1,44.86,55.79Z"/><path class="cls-3" d="M90.72,58c.23.55.39.66,1,.66h1c.82,0,1-.23,1-1a.73.73,0,0,1-.62,1.08c-.59,0-1.19,0-1.79,0A.69.69,0,0,1,90.72,58Z"/><path class="cls-3" d="M93.21,55.34h-2A4,4,0,0,1,93.21,55.34Z"/><path class="cls-3" d="M116.07,58.6c.29,0,.5.09.71.09.41,0,.81,0,1.22,0,.6,0,.86-.24.91-.84.2.31-.18.87-.61.88-.61,0-1.23,0-1.84,0A1.44,1.44,0,0,1,116.07,58.6Z"/><path class="cls-3" d="M118.33,55.34h-2.08a6.92,6.92,0,0,1,2.08-.09Z"/><path class="cls-3" d="M116,56.59a.76.76,0,0,1-.16-.78Z"/><path class="cls-3" d="M104.17,57.69h2.74v0h-2.74Z"/><path class="cls-3" d="M89.58,58.5V55.41h0v3.08Z"/><path class="cls-3" d="M86.26,55.59v3h0v-3Z"/><path class="cls-3" d="M108.21,58.61a12.25,12.25,0,0,1,.06-3.3,4.12,4.12,0,0,0-.05.48c0,.85,0,1.7,0,2.55Q108.21,58.48,108.21,58.61Z"/><path class="cls-3" d="M111.55,55.41v3h0v-3Z"/><path class="cls-3" d="M98.14,55.41c0,.7,0,1.4,0,2.09a1.08,1.08,0,0,1-.48.84l.09-.14a1.72,1.72,0,0,0,.35-1.06c0-.58,0-1.15,0-1.73Z"/><path class="cls-3" d="M94.92,55.36A14.41,14.41,0,0,0,95.09,58a1.86,1.86,0,0,1-.17-.51C94.91,56.81,94.92,56.08,94.92,55.36Z"/><path class="cls-3" d="M95.57,58.52a8,8,0,0,0,.78.17c.24,0,.48,0,.72,0A2.24,2.24,0,0,1,95.57,58.52Z"/><path class="cls-3" d="M51.78,57.43h-2c-.46,0-.52.07-.4.52a2.17,2.17,0,0,0,.15.4c.06.12.13.22.22.37a2.08,2.08,0,0,1-.21-2.39c-.07.24-.14.41-.18.58-.07.35,0,.42.34.43h1.79l.24,0Z"/><path class="cls-3" d="M52,59.12c-.67-.05-1.38.18-2-.25A5,5,0,0,0,52,59.12Z"/><path class="cls-3" d="M52,55.64l-1.8.12A4.8,4.8,0,0,1,52,55.64Z"/><path class="cls-3" d="M78,57.76c-.27-.68-.06-1.93.42-2.11C77.8,56.28,78,57,78,57.76Z"/><path class="cls-3" d="M78.64,55.46a3.35,3.35,0,0,1,1.86-.18h-.61a5.56,5.56,0,0,0-.62,0C79.06,55.35,78.85,55.41,78.64,55.46Z"/><path class="cls-3" d="M78.93,58.68H80.5v0H78.93Z"/><path class="cls-3" d="M112.55,55.24h2.74v0h-.94c-.38,0-.41,0-.41.4,0,1,0,1.95-.05,2.93q0-.12,0-.24c0-.9,0-1.8,0-2.7,0-.35,0-.38-.4-.39h-1Z"/><path class="cls-3" d="M103.93,55.28c-.33,0-.66,0-1,0s-.37.1-.37.37c0,.9,0,1.8,0,2.7q0,.14,0,.28h-.05q0-1,0-2c0-.31,0-.63,0-.94s-.09-.38-.36-.37a6.46,6.46,0,0,1-1,0h2.75Z"/><path class="cls-3" d="M47.39,59q0-1,0-2c0-.31,0-.63,0-.94s-.09-.38-.36-.37a6.6,6.6,0,0,1-1,0h2.8v0c-.35,0-.7,0-1,0s-.37.1-.37.37c0,.9,0,1.8,0,2.7q0,.14,0,.28Z"/><path class="cls-3" d="M81.77,56.09l.55-.59a3.11,3.11,0,0,1,2.12-.06,1.43,1.43,0,0,1,.7.82l.06,1.28a1.46,1.46,0,0,1-.93,1.11,4.81,4.81,0,0,1-1.84-.07l-.2-.13A1.64,1.64,0,0,1,81.66,57C81.7,56.72,81.73,56.4,81.77,56.09Zm1.64,2.49h.34A1.28,1.28,0,0,0,85,57.5a2.51,2.51,0,0,0,0-.82,1.81,1.81,0,0,0-.29-.75,1.62,1.62,0,0,0-1.45-.54,1.43,1.43,0,0,0-1.56,1.55C81.75,58.07,82.31,58.67,83.41,58.57Z"/><path class="cls-3" d="M81.77,56.09c0,.32-.07.63-.11.95a1.64,1.64,0,0,0,.56,1.42,1,1,0,0,1-.58-.85,7,7,0,0,1,0-1.21A.9.9,0,0,1,81.77,56.09Z"/><path class="cls-3" d="M84.44,55.44a3.11,3.11,0,0,0-2.12.06.18.18,0,0,1,0,0A2.54,2.54,0,0,1,84.44,55.44Z"/><path class="cls-3" d="M82.42,58.58a4.81,4.81,0,0,0,1.84.07.62.62,0,0,1-.21.08c-.43,0-.87,0-1.3,0A1.05,1.05,0,0,1,82.42,58.58Z"/><path class="cls-3" d="M85.2,57.54l-.06-1.28A2.31,2.31,0,0,1,85.2,57.54Z"/><path class="cls-3" d="M99.19,58.22a1.89,1.89,0,0,1-.12-.44c0-.79,0-1.57,0-2.36C99.19,56.34,99,57.28,99.19,58.22Z"/><path class="cls-3" d="M101.08,58.73H100a.75.75,0,0,1-.17,0h1.31Z"/></g></g></svg>