<svg xmlns="http://www.w3.org/2000/svg" viewBox="0 0 131 101"><defs><style>.cls-1{fill:none;stroke:#a7a9ac;stroke-miterlimit:10;opacity:0.66;}.cls-2{fill:#6d6e71;}.cls-3{fill:#d1d3d4;}</style></defs><title>brand-img-18</title><g id="Layer_2" data-name="Layer 2"><g id="Layer_1-2" data-name="Layer 1"><path class="cls-1" d="M.5.5v100h130V.5Z"/><path class="cls-2" d="M66.41,92.55l0,0S66.32,92.62,66.41,92.55Z"/><path class="cls-2" d="M66.37,92.57l0,0C66.54,92.4,66.42,92.51,66.37,92.57Z"/><path class="cls-3" d="M10.76,59.9q-.73.12-1.34.18t-1.18.06a13.23,13.23,0,0,1-1.32-.08q-.75-.08-1.67-.23l7.14-21.75,1.55-.15q.72-.06,1.45-.06t1.32.06l1.64.15,7,21.78a21.59,21.59,0,0,1-3.19.27q-.64,0-1.27-.06c-.43,0-.88-.1-1.37-.18l-1.21-4.23a14.86,14.86,0,0,1-1.71.37,10.63,10.63,0,0,1-3.11,0,14.34,14.34,0,0,1-1.59-.32Zm4.46-16.08-2.14,7.83c.36.1.7.18,1,.24a5.29,5.29,0,0,0,1,.09,7.3,7.3,0,0,0,1.07-.08,9.29,9.29,0,0,0,1.1-.23Z"/><path class="cls-3" d="M28.13,38.11l1.45-.17q.78-.08,1.45-.08a13.75,13.75,0,0,1,1.39.08l1.39.17,4.53,11.33L43,38.11l1.29-.17a11.13,11.13,0,0,1,1.29-.08,12.68,12.68,0,0,1,1.37.08l1.37.17,1.08,21.75L48.29,60a11.85,11.85,0,0,1-1.64.09A15.22,15.22,0,0,1,44,59.86l-.45-12.61L40,55.57q-.57.09-1.15.15a9.94,9.94,0,0,1-1.05.06c-.32,0-.65,0-1,0a7.93,7.93,0,0,1-1.05-.17l-3.12-8.19-.35,12.49a12.67,12.67,0,0,1-2.55.27,14.19,14.19,0,0,1-2.58-.27Z"/><path class="cls-3" d="M65.07,48.53a11.19,11.19,0,0,1-.29,2.38H58.63v4.33h8a10.67,10.67,0,0,1,.29,2.32A11,11,0,0,1,66.63,60H53V38.05H66.44q.13.67.19,1.25a10.17,10.17,0,0,1,.06,1.1,13.74,13.74,0,0,1-.25,2.41H58.63v3.35h6.15A11.52,11.52,0,0,1,65.07,48.53Z"/><path class="cls-3" d="M74.34,49.05q0,6.46,5.67,6.46a9.82,9.82,0,0,0,1.93-.18,20.38,20.38,0,0,0,2.22-.61,15.9,15.9,0,0,1,1.4,4.51q-.93.34-1.72.55a13.34,13.34,0,0,1-1.53.32q-.73.11-1.45.15t-1.48,0a12.55,12.55,0,0,1-4.76-.84,9.51,9.51,0,0,1-3.44-2.33,9.74,9.74,0,0,1-2.09-3.56,14,14,0,0,1-.7-4.51,13.54,13.54,0,0,1,.73-4.52,10.42,10.42,0,0,1,2.12-3.61,9.55,9.55,0,0,1,3.43-2.38,11.88,11.88,0,0,1,4.62-.85,18.94,18.94,0,0,1,2.9.21,15.56,15.56,0,0,1,3.06.85,8.58,8.58,0,0,1-.48,2.42,17.5,17.5,0,0,1-.86,2.06l-1.16-.37q-.53-.15-1-.24c-.32-.06-.64-.11-1-.14s-.66,0-1,0a5,5,0,0,0-4,1.66A7.45,7.45,0,0,0,74.34,49.05Z"/><path class="cls-3" d="M100.48,48.53a11.19,11.19,0,0,1-.29,2.38H94v4.33h8a10.67,10.67,0,0,1,.29,2.32A11,11,0,0,1,102,60H88.4V38.05h13.45q.13.67.19,1.25a10.17,10.17,0,0,1,.06,1.1,13.74,13.74,0,0,1-.25,2.41H94v3.35h6.15A11.52,11.52,0,0,1,100.48,48.53Z"/><path class="cls-3" d="M109,59.9q-.73.12-1.34.18t-1.18.06a13.23,13.23,0,0,1-1.32-.08q-.75-.08-1.67-.23l7.14-21.75,1.55-.15q.72-.06,1.45-.06t1.32.06l1.64.15,7,21.78a21.59,21.59,0,0,1-3.19.27q-.64,0-1.27-.06c-.43,0-.88-.1-1.37-.18l-1.21-4.23a14.86,14.86,0,0,1-1.71.37,10.63,10.63,0,0,1-3.11,0,14.34,14.34,0,0,1-1.59-.32Zm4.46-16.08-2.14,7.83c.36.1.7.18,1,.24a5.29,5.29,0,0,0,1,.09,7.3,7.3,0,0,0,1.07-.08,9.29,9.29,0,0,0,1.1-.23Z"/></g></g></svg>