<svg xmlns="http://www.w3.org/2000/svg" viewBox="0 0 131 101"><defs><style>.cls-1{fill:none;stroke:#a7a9ac;stroke-miterlimit:10;opacity:0.66;}.cls-2{fill:#d1d3d4;}</style></defs><title>brand-img-10</title><g id="Layer_2" data-name="Layer 2"><g id="Layer_1-2" data-name="Layer 1"><rect class="cls-1" x="0.5" y="0.5" width="130" height="100"/><path class="cls-2" d="M59.29,58.29a5.91,5.91,0,0,1-1.42-.14,1.85,1.85,0,0,1-.88-.46,1.73,1.73,0,0,1-.45-.82,5.08,5.08,0,0,1-.12-1.21V49.45a.72.72,0,0,1,.34-.68,2.1,2.1,0,0,1,1.77,0,.72.72,0,0,1,.34.68v6.21a1,1,0,0,0,.11.59.61.61,0,0,0,.47.13h1.18a.6.6,0,0,1,.55.25,1.66,1.66,0,0,1,0,1.41.6.6,0,0,1-.55.25ZM60.16,52a.6.6,0,0,1-.55-.25,1.67,1.67,0,0,1,0-1.41.6.6,0,0,1,.55-.25h2.35a.6.6,0,0,1,.55.25,1.67,1.67,0,0,1,0,1.41.6.6,0,0,1-.55.25Z"/><path class="cls-2" d="M67.79,52a1.32,1.32,0,0,0-.84.2.79.79,0,0,0-.24.64v4.63a.74.74,0,0,1-.34.7,2.12,2.12,0,0,1-1.78,0,.74.74,0,0,1-.33-.7v-4.8q0-2.59,3.07-2.59h2.88a.6.6,0,0,1,.54.25,1.59,1.59,0,0,1,0,1.41.6.6,0,0,1-.54.25Z"/><path class="cls-2" d="M75.66,54.48a.52.52,0,0,1-.47-.22,1.13,1.13,0,0,1-.14-.61,1.17,1.17,0,0,1,.14-.63.52.52,0,0,1,.47-.22h3.7v-.25q0-.44-.64-.67a5.7,5.7,0,0,0-1.82-.23,5.62,5.62,0,0,0-1.81.23q-.64.23-.63.67v3.2q0,.42.63.65a5.6,5.6,0,0,0,1.81.23,8.62,8.62,0,0,0,1.32-.09,1.83,1.83,0,0,0,.8-.27.55.55,0,0,0,.2-.31.66.66,0,0,1,.21-.34.9.9,0,0,1,.45-.24,2.81,2.81,0,0,1,.62-.06,2,2,0,0,1,.88.17.61.61,0,0,1,.35.6,1.72,1.72,0,0,1-.49,1.29A3.25,3.25,0,0,1,80,58.1a6.49,6.49,0,0,1-1.57.32q-.84.07-1.53.07a12,12,0,0,1-2.19-.17,4.87,4.87,0,0,1-1.5-.5,2.08,2.08,0,0,1-1.13-1.91V52.5a2.08,2.08,0,0,1,1.13-1.91,4.87,4.87,0,0,1,1.5-.5,13.91,13.91,0,0,1,4.37,0,4.88,4.88,0,0,1,1.49.5,2.08,2.08,0,0,1,1.13,1.91v.55a1.4,1.4,0,0,1-.38,1.09,1.59,1.59,0,0,1-1.1.34Z"/><path class="cls-2" d="M91,52.88a.79.79,0,0,0-.24-.64,1.33,1.33,0,0,0-.84-.2H86.18v5.47a.74.74,0,0,1-.33.7,1.74,1.74,0,0,1-.89.2,1.79,1.79,0,0,1-.89-.2.73.73,0,0,1-.35-.7V51.12q0-1,1.29-1h5.35q3.07,0,3.07,2.59v4.8a.74.74,0,0,1-.33.7,1.71,1.71,0,0,1-.88.2,1.79,1.79,0,0,1-.89-.2.73.73,0,0,1-.35-.7Z"/><path class="cls-2" d="M100.21,58.29A12,12,0,0,1,98,58.12a4.87,4.87,0,0,1-1.5-.5A2.08,2.08,0,0,1,95.4,55.7v-3a2.08,2.08,0,0,1,1.13-1.91,4.87,4.87,0,0,1,1.5-.5,12,12,0,0,1,2.19-.17h1.05a.6.6,0,0,1,.55.25,1.67,1.67,0,0,1,0,1.41.6.6,0,0,1-.55.25h-1.05q-2.35,0-2.35.85v2.67q0,.85,2.35.85h2.35v-8.2a.72.72,0,0,1,.34-.68,1.75,1.75,0,0,1,.89-.2,1.8,1.8,0,0,1,.89.2.72.72,0,0,1,.34.68v9.08q0,1-1.27,1Z"/><path class="cls-2" d="M116.85,55.92a2.35,2.35,0,0,1-.24,1.07,2,2,0,0,1-.79.81,4.56,4.56,0,0,1-1.49.52,12.58,12.58,0,0,1-2.33.18,16.17,16.17,0,0,1-2.16-.12,5.22,5.22,0,0,1-1.51-.41,1.92,1.92,0,0,1-1.19-1.9.84.84,0,0,1,.27-.74,1.8,1.8,0,0,1,1-.19,2,2,0,0,1,1,.18.86.86,0,0,1,.31.71.57.57,0,0,0,.13.36.8.8,0,0,0,.38.2,3.21,3.21,0,0,0,.68.09l1,0a11.36,11.36,0,0,0,1.25-.06,2.3,2.3,0,0,0,.75-.19.71.71,0,0,0,.35-.33,1.18,1.18,0,0,0,.09-.48.71.71,0,0,0-.15-.51.72.72,0,0,0-.34-.2,5,5,0,0,0-1-.11l-1.11,0-.93,0c-.34,0-.68,0-1-.06a8.65,8.65,0,0,1-1-.15,2.86,2.86,0,0,1-.86-.32,1.67,1.67,0,0,1-.85-1.54v-.38a1.94,1.94,0,0,1,1.15-1.78,8.13,8.13,0,0,1,3.66-.62l.93,0a10.11,10.11,0,0,1,1,.09,7.68,7.68,0,0,1,1,.2,3.54,3.54,0,0,1,.87.36,1.89,1.89,0,0,1,.61.56,1.41,1.41,0,0,1,.23.81.71.71,0,0,1-.3.63,1.39,1.39,0,0,1-.8.2,2.45,2.45,0,0,1-.8-.1,1,1,0,0,1-.49-.46.92.92,0,0,0-.7-.41,8.63,8.63,0,0,0-1.45-.09q-.74,0-1.2,0a3.19,3.19,0,0,0-.74.13.79.79,0,0,0-.38.23.51.51,0,0,0-.1.32.53.53,0,0,0,.28.47,1.15,1.15,0,0,0,.33.08,5.12,5.12,0,0,0,.56,0l.71,0,.79,0,.88,0,.9,0a6.45,6.45,0,0,1,.86.12,3.6,3.6,0,0,1,.76.24,1.84,1.84,0,0,1,1.08,1.82Z"/><polygon class="cls-2" points="14.76 44.74 33.22 19.24 53.91 32.33 14.76 44.74"/><polygon class="cls-2" points="9.91 49.54 34.03 46.14 34.95 68.61 9.91 49.54"/><polygon class="cls-2" points="42.3 43.76 56.02 40.82 39.16 73.93 42.3 43.76"/><path class="cls-2" d="M62.51,63.44v-.62h1.6v1.47a2,2,0,0,1-.68.4,2.47,2.47,0,0,1-.9.17,2,2,0,0,1-1-.24,1.54,1.54,0,0,1-.65-.69,2.24,2.24,0,0,1-.22-1,2.12,2.12,0,0,1,.24-1,1.62,1.62,0,0,1,.71-.69A1.91,1.91,0,0,1,62.5,61a1.76,1.76,0,0,1,1.07.29,1.3,1.3,0,0,1,.5.8l-.74.14a.78.78,0,0,0-.29-.43.88.88,0,0,0-.54-.16,1,1,0,0,0-.78.31,1.31,1.31,0,0,0-.29.92,1.44,1.44,0,0,0,.29,1,1,1,0,0,0,.76.33,1.27,1.27,0,0,0,.47-.09,1.62,1.62,0,0,0,.4-.22v-.47Z"/><path class="cls-2" d="M64.8,64.79V61.11h2.73v.62h-2v.82h1.85v.62H65.54v1H67.6v.62Z"/><path class="cls-2" d="M68.24,64.79V61.11H69l1.51,2.46V61.11h.69v3.69h-.75l-1.49-2.4v2.4Z"/><path class="cls-2" d="M72,64.79V61.11h2.73v.62h-2v.82h1.85v.62H72.7v1h2.06v.62Z"/><path class="cls-2" d="M75.39,64.79V61.11H77a2.69,2.69,0,0,1,.86.1.85.85,0,0,1,.43.35,1.06,1.06,0,0,1,.16.58,1,1,0,0,1-.24.69,1.17,1.17,0,0,1-.73.34,1.72,1.72,0,0,1,.4.31,4.17,4.17,0,0,1,.42.6l.45.72h-.89l-.54-.8a5.27,5.27,0,0,0-.39-.54.57.57,0,0,0-.22-.15,1.23,1.23,0,0,0-.37,0h-.15v1.54Zm.74-2.13h.55a2.87,2.87,0,0,0,.67,0,.4.4,0,0,0,.21-.16.47.47,0,0,0,.08-.28.44.44,0,0,0-.1-.3.46.46,0,0,0-.28-.14H76.13Z"/><path class="cls-2" d="M82.43,64.79h-.81L81.3,64H79.82l-.3.84h-.79l1.44-3.69H81Zm-1.37-1.46L80.55,62l-.5,1.37Z"/><path class="cls-2" d="M82.84,64.79V61.14h.74v3h1.85v.62Z"/><path class="cls-2" d="M87.12,63.6l.72-.07a.88.88,0,0,0,.27.54.8.8,0,0,0,.54.17.83.83,0,0,0,.54-.15.45.45,0,0,0,.18-.36.34.34,0,0,0-.08-.22.62.62,0,0,0-.27-.16l-.6-.16a2,2,0,0,1-.84-.36,1,1,0,0,1-.34-.74,1,1,0,0,1,.16-.53,1,1,0,0,1,.46-.37,1.84,1.84,0,0,1,.72-.13,1.56,1.56,0,0,1,1,.3,1.08,1.08,0,0,1,.37.81l-.74,0a.63.63,0,0,0-.21-.41.75.75,0,0,0-.47-.12.85.85,0,0,0-.51.13A.27.27,0,0,0,88,62a.28.28,0,0,0,.11.22,2,2,0,0,0,.68.25,3.62,3.62,0,0,1,.8.27,1,1,0,0,1,.41.37,1.1,1.1,0,0,1,.15.59,1.09,1.09,0,0,1-.18.59,1.05,1.05,0,0,1-.5.41,2.08,2.08,0,0,1-.8.13,1.6,1.6,0,0,1-1.07-.32A1.4,1.4,0,0,1,87.12,63.6Z"/><path class="cls-2" d="M90.73,61.11h.74v2a4.29,4.29,0,0,0,0,.62.6.6,0,0,0,.23.36.8.8,0,0,0,.49.14.75.75,0,0,0,.48-.13.51.51,0,0,0,.19-.32,4.17,4.17,0,0,0,0-.63v-2h.74V63a5,5,0,0,1-.06.94,1,1,0,0,1-.22.46,1.13,1.13,0,0,1-.43.3,1.89,1.89,0,0,1-.71.11,2,2,0,0,1-.8-.12,1.15,1.15,0,0,1-.43-.32,1,1,0,0,1-.21-.41,4.46,4.46,0,0,1-.07-.94Z"/><path class="cls-2" d="M94.46,64.79V61.11h1.19a4.36,4.36,0,0,1,.88.06,1,1,0,0,1,.53.36,1.14,1.14,0,0,1,.21.72,1.2,1.2,0,0,1-.12.57,1,1,0,0,1-.31.36,1.08,1.08,0,0,1-.39.17,4.25,4.25,0,0,1-.77.05H95.2v1.39Zm.74-3.06v1h.41a1.92,1.92,0,0,0,.59-.06.49.49,0,0,0,.23-.18.49.49,0,0,0,.08-.29.48.48,0,0,0-.12-.33.52.52,0,0,0-.3-.16,3.6,3.6,0,0,0-.54,0Z"/><path class="cls-2" d="M97.89,64.79V61.11h1.19a4.34,4.34,0,0,1,.88.06,1,1,0,0,1,.53.36,1.14,1.14,0,0,1,.21.72,1.2,1.2,0,0,1-.12.57,1,1,0,0,1-.31.36,1.09,1.09,0,0,1-.39.17,4.24,4.24,0,0,1-.77.05h-.49v1.39Zm.74-3.06v1H99a1.93,1.93,0,0,0,.59-.06.49.49,0,0,0,.23-.18.5.5,0,0,0,.08-.29.48.48,0,0,0-.12-.33.52.52,0,0,0-.3-.16,3.62,3.62,0,0,0-.54,0Z"/><path class="cls-2" d="M101.34,64.79V61.14h.74v3h1.85v.62Z"/><path class="cls-2" d="M104.45,64.79V61.11h.74v3.69Z"/><path class="cls-2" d="M105.9,64.79V61.11h2.73v.62h-2v.82h1.85v.62h-1.85v1h2.06v.62Z"/><path class="cls-2" d="M109.15,63.6l.72-.07a.88.88,0,0,0,.27.54.8.8,0,0,0,.54.17.83.83,0,0,0,.54-.15.45.45,0,0,0,.18-.36.34.34,0,0,0-.08-.22.62.62,0,0,0-.27-.16l-.6-.16a2,2,0,0,1-.84-.36,1,1,0,0,1-.34-.74,1,1,0,0,1,.16-.53,1,1,0,0,1,.46-.37,1.84,1.84,0,0,1,.72-.13,1.56,1.56,0,0,1,1,.3,1.08,1.08,0,0,1,.37.81l-.74,0a.63.63,0,0,0-.21-.41.75.75,0,0,0-.47-.12.85.85,0,0,0-.51.13A.27.27,0,0,0,110,62a.28.28,0,0,0,.11.22,2,2,0,0,0,.68.25,3.62,3.62,0,0,1,.8.27,1,1,0,0,1,.41.37,1.1,1.1,0,0,1,.15.59,1.09,1.09,0,0,1-.18.59,1.05,1.05,0,0,1-.5.41,2.08,2.08,0,0,1-.8.13,1.6,1.6,0,0,1-1.07-.32A1.4,1.4,0,0,1,109.15,63.6Z"/></g></g></svg>