<svg xmlns="http://www.w3.org/2000/svg" viewBox="0 0 352.72 155.02"><defs><style>.cls-1{fill:#fff;}.cls-2{fill:#faaa2a;}.cls-3{fill:#f05a2a;}.cls-4{fill:#fbaf2d;}.cls-5{fill:#f9a124;}.cls-6{fill:#fbb330;}.cls-7{fill:#221f1f;}.cls-8{fill:#8b6658;}</style></defs><title>reflex_logo</title><g id="Layer_2" data-name="Layer 2"><g id="Layer_1-2" data-name="Layer 1"><path class="cls-1" d="M138.67,56.64a1.67,1.67,0,0,1,.33-.57,3.42,3.42,0,0,1,.9-.54,3.92,3.92,0,0,1,.85-.47.53.53,0,0,1,.47.22l.07.29.14.54a1.23,1.23,0,0,0-.05.29.59.59,0,0,0,.19.36,5.1,5.1,0,0,0,.93-.43l.73-.24.73-.48.47-.19a2.89,2.89,0,0,1,.42-.19l.38.07h.05a12,12,0,0,0,1.18-.36,2.41,2.41,0,0,1,.52,0,.74.74,0,0,1,.42.09l.36.35.24.05a4.17,4.17,0,0,0,.5-.24l.09,0a.85.85,0,0,1,.52.26,1.4,1.4,0,0,1,.4.74,9.37,9.37,0,0,1-1,.81q-.38.48-.55.48t-.73-.55l-.52,0a2.35,2.35,0,0,1-.74-.21,3.64,3.64,0,0,0-.85-.21.66.66,0,0,1-.57.38,4.15,4.15,0,0,0-.61.07l-.69.21a.76.76,0,0,1-.28-.12q-.35.31-1.21.93a1.58,1.58,0,0,0-.54,1.4V60c0,.21,0,.38,0,.52s-.13.32-.4.57a.87.87,0,0,1,.29.54,1.58,1.58,0,0,1,0,.29l.26.07.05.52.09,3.1-.07.19-.45.24a2.93,2.93,0,0,0-1,.26,3.49,3.49,0,0,0,1.09.23l.29-.07a3.34,3.34,0,0,1,.17.78.69.69,0,0,1-.4.62,3.33,3.33,0,0,1-.88.17,4.22,4.22,0,0,0-.74.43.42.42,0,0,1-.24.07q-.41,0-.42-.36a8.32,8.32,0,0,1,.26-1,.67.67,0,0,0,0-.21s0-.28-.09-.78a1.7,1.7,0,0,1,.07-.29l.42-.12a2.77,2.77,0,0,0,0-.28.91.91,0,0,0-.26-.54v-.43a7.75,7.75,0,0,0-.1-.81q.05-.57.05-1,.64-.22.64-.55a1,1,0,0,0-.05-.28,1.48,1.48,0,0,1-.35.05.51.51,0,0,1-.29-.14V60.08c0-.09,0-.2,0-.31V59.5a1.85,1.85,0,0,1,.22-.74.74.74,0,0,1-.26-.33s0-.41-.07-1.12A1.54,1.54,0,0,0,138.67,56.64Z"/><path class="cls-1" d="M160.66,55.67l.55-.35a3.88,3.88,0,0,0,.36.4,2.15,2.15,0,0,0,.36.17,15.36,15.36,0,0,1,1.49,1.45,2.73,2.73,0,0,1,.57.81c.09.22.19.48.29.8s.15.37.24.62l-.12.12a3.31,3.31,0,0,1-.52-.16l-.66.24-.59-.1-.52.14a12.54,12.54,0,0,0-1.12-.76,3.51,3.51,0,0,0-.81.71L159,59.56a5,5,0,0,0-.66.05l-.09-.07q-.28,0-1.51,0l-.64.07-.8.07-.81.14-.73,0a10.89,10.89,0,0,1-1.37.36,4.42,4.42,0,0,1-.17.81,1.78,1.78,0,0,1-.42.57q.55.38.59.54a7.9,7.9,0,0,0,.33,1.49l.31.17-.09.64.54.14a1.87,1.87,0,0,0,.45,1,1.7,1.7,0,0,0,.87.31q.09.54.28.64a1.35,1.35,0,0,0,.62.14l.29.45a1.84,1.84,0,0,1,.33,0,6.55,6.55,0,0,1,1,.43,1,1,0,0,0,.45.1,3.73,3.73,0,0,0,.88-.21l1.11-.12.85-.24a3.74,3.74,0,0,0,.81-.1,9.1,9.1,0,0,0,1.07-.61,3.91,3.91,0,0,0,.88-.64,5.92,5.92,0,0,0,.59-.83.54.54,0,0,1,.48-.21.88.88,0,0,1,.45.23,3.41,3.41,0,0,1-.22.81q-.73,1.23-.92,1.63a1,1,0,0,0-.38-.1,1.82,1.82,0,0,0-.57.35,1.59,1.59,0,0,1-.78.24,12.62,12.62,0,0,1-1.49.35,7.28,7.28,0,0,0-.9.12l-.55.17-1-.16-.61.1-.29,0a5.55,5.55,0,0,1-.64.05q-.23,0-1.26-.12l-.33,0-.36-.22q-1.3-.4-1.44-.47a7.23,7.23,0,0,1-.59-.52l-.61-.38q-.48-.29-.52-.45l-.31-.55a4.36,4.36,0,0,0-.59-.66.92.92,0,0,0,.17-.42,10.1,10.1,0,0,0-.45-1,4.87,4.87,0,0,1-.12-1.47,5.35,5.35,0,0,1,.24-1.25,3.47,3.47,0,0,1,.29-.78l.59-.69.38-.81L153,57.37l1.26-.78,1.28-.88.47-.09,1.32-.42.85-.07a8.79,8.79,0,0,1,1.13-.38A1.3,1.3,0,0,1,160.66,55.67Zm-2,2.6.29.36.47-.09a4.64,4.64,0,0,0,.93-.24l1,.09s0-.06.09-.17a1.07,1.07,0,0,0,0-.17.63.63,0,0,0-.21-.38l-.17-.21q-.42-.55-.52-.52l-.57-.28a1.31,1.31,0,0,1-.33-.4,14.47,14.47,0,0,0-1.71-.07l-.35,0-.59.35a7.56,7.56,0,0,1-1,.24q-.73.26-1.28.5-.12.09-.67.59l-.4.31v.1l0,0,1.26.5.38.38.67-.81a.3.3,0,0,1,.19-.07l.85.23h0a6,6,0,0,0,1-.17A3.11,3.11,0,0,1,158.66,58.27Z"/><path class="cls-1" d="M169.16,55.74l.71-.45q0-.29.07-.76l0-1.73a2.51,2.51,0,0,1,.35-1.12,1.46,1.46,0,0,1-.45-.43s0-.63-.05-1.78l0-1.25,0-.85a1.37,1.37,0,0,1,.26-.73,3.58,3.58,0,0,0,.47-.87,2,2,0,0,0,0-.24l-.26-.12a5.05,5.05,0,0,1,1.14-2.49,4.22,4.22,0,0,1,.76-.9l1.11-.92q.29-.21,1.63-.92l.36-.26.52-.07,1-.23.55.16a.71.71,0,0,0,.22,0,1.3,1.3,0,0,0,.28,0l.42-.05a1.54,1.54,0,0,1,1.18.55h.43a.63.63,0,0,1-.12.4l-.38.45a3.13,3.13,0,0,1-.35.45A3.82,3.82,0,0,1,178,42l-1.16-.66a2.35,2.35,0,0,0-1.18-.38,4,4,0,0,0-1.56.54,1.57,1.57,0,0,0-.64.57,9.64,9.64,0,0,0-.93,2.18l-.19.38-.24,1a2.28,2.28,0,0,0-.31.66q0,.19.35.29a2,2,0,0,0-.12.69q0,.16,0,.81l0,1.28a4.16,4.16,0,0,1-.33.78.93.93,0,0,0,0,.33,1.93,1.93,0,0,0,.29.81,16.65,16.65,0,0,1,.09,2.58q0,.29-.52.78v.14a.89.89,0,0,0,.4.23q.31.1.38.93a2.17,2.17,0,0,0,.62.5l.76.21,1,.28,1.21-.47,1.28-.28a3.23,3.23,0,0,1,.92-.5,6.21,6.21,0,0,1,.66-.09,1.19,1.19,0,0,1,.36.68q-1,.59-1.21.75a3,3,0,0,0-.52.53.3.3,0,0,1-.22.12,2,2,0,0,1-.59-.14,2.06,2.06,0,0,0-.66-.1,6.66,6.66,0,0,0-1,.12,3.73,3.73,0,0,1-.57.05,5.07,5.07,0,0,1-1-.12,7.06,7.06,0,0,0-.83-.16.53.53,0,0,0-.36.2.41.41,0,0,0-.16.35l.16.76.1,1.7a.55.55,0,0,1-.09.24c-.24.08-.36.21-.36.38a.77.77,0,0,0,.38.61q0,.47.05.61a17.33,17.33,0,0,0,.26,2.25l-.17.17-.29-.07-.29.28a3.86,3.86,0,0,0,.29.36q.31.36.29.48v0l-.05.55v.05a6.38,6.38,0,0,0,.12.83l-.26.14v.4a12.16,12.16,0,0,0-1.32.57,2.44,2.44,0,0,1-.67.16v-.1a.48.48,0,0,1-.71,0,3.16,3.16,0,0,0,.14-.64l.07-.4.09-.5a4.3,4.3,0,0,0,.26-1.12q0-.17,0-1a.74.74,0,0,0,.38-.55,3.4,3.4,0,0,0-.14-.8,4.58,4.58,0,0,1-.17-.92l0-.55v-3q0-.59.17-.64a2.72,2.72,0,0,0,.64-.28v-.24l-.16-.16a1.1,1.1,0,0,1-.31.05c-.13,0-.21,0-.24-.07l-.59-.8-.85-.14-.42-.1q-.43,0-1.32,1a.41.41,0,0,1-.09-.24,4.37,4.37,0,0,1,.62-1q.4-.52.76-.52A7.08,7.08,0,0,1,169.16,55.74Z"/><path class="cls-1" d="M181.26,40.51a1.36,1.36,0,0,0,.43-.19,3.75,3.75,0,0,1,.64-.36,2.46,2.46,0,0,0,.87-.67h.16q.4,0,.4.47v0a1.73,1.73,0,0,1,0,.23.86.86,0,0,0,0,.1l.17.61-.07,1.45q0,1.4,0,1.47a1.18,1.18,0,0,1-.29.47l-.1.55.36.05a3.13,3.13,0,0,1,.1.62,1,1,0,0,1-.36.69q0,.48,0,.62a.52.52,0,0,0,.23.38c0,.22,0,.38,0,.48l-.09,2.16v2.2a1.78,1.78,0,0,1-.31.68.74.74,0,0,0-.1.35s.08.31.24.87v.09a.89.89,0,0,1-.36.59l.38.83.19.14v1.07l.05,3.89-.31.19a4.73,4.73,0,0,1,.05.62s0,.32-.1.83v.47l.54.07-.05.12.31,2.82,0,.73.1.52a3.85,3.85,0,0,0-.35.61.45.45,0,0,0,.09.23,7.1,7.1,0,0,0-1,.52l-.41.23a1.6,1.6,0,0,1-.34,0,1.23,1.23,0,0,1-.67.33.79.79,0,0,1-.24-.07c0-.17,0-.32,0-.43a3.24,3.24,0,0,0-.07-.54,1.33,1.33,0,0,1,0-.28,4.84,4.84,0,0,1,.14-.54l0-.38.07-.52-.05-.33,1.45-.94-1.4-1,0-.22.12-.62.16-.43a6.18,6.18,0,0,0-.31-.62.44.44,0,0,1-.05-.19,6.74,6.74,0,0,1,.26-.73,3,3,0,0,0,.21-.93l-.4-.21v-.59c0-.27,0-.44,0-.52s.06-.29.19-.76a1.38,1.38,0,0,0,0-.28q0-.6-.07-1.35a3.89,3.89,0,0,1,0-.48,2.69,2.69,0,0,1,.28-.78,3.71,3.71,0,0,1,.1-.85l-.36-.43V49.87a.88.88,0,0,0,.29-.35q.1-.29.28-.68a2.3,2.3,0,0,1-.59-.31,3.71,3.71,0,0,0,.12-.61c0-.12-.1-.23-.31-.35a3,3,0,0,1-.05-.62l0-.71a1.4,1.4,0,0,1,.24-.54.23.23,0,0,0,.05-.14,2.88,2.88,0,0,0-.09-.34,2.11,2.11,0,0,0-.11-.32l-.05-.1,1.3-.92-.88-1.19a4,4,0,0,1-.68-1.06,3.18,3.18,0,0,1,.1-.57A3.55,3.55,0,0,0,181.26,40.51Z"/><path class="cls-1" d="M198.34,55.67l.55-.35a3.66,3.66,0,0,0,.36.4,2.16,2.16,0,0,0,.36.17,15.3,15.3,0,0,1,1.49,1.45,2.73,2.73,0,0,1,.57.81q.14.33.29.8c.07.16.15.37.24.62l-.12.12a3.28,3.28,0,0,1-.52-.16l-.66.24-.59-.1-.52.14a12.2,12.2,0,0,0-1.12-.76,3.53,3.53,0,0,0-.81.71l-1.18-.21a4.94,4.94,0,0,0-.66.05l-.09-.07q-.28,0-1.51,0l-.64.07-.8.07-.81.14-.73,0a10.85,10.85,0,0,1-1.37.36,4.36,4.36,0,0,1-.17.81,1.8,1.8,0,0,1-.42.57q.55.38.59.54a7.88,7.88,0,0,0,.33,1.49l.31.17-.09.64.54.14a1.87,1.87,0,0,0,.45,1,1.7,1.7,0,0,0,.87.31c.06.36.15.57.28.64a1.35,1.35,0,0,0,.62.14l.29.45a1.84,1.84,0,0,1,.33,0,6.55,6.55,0,0,1,1,.43,1,1,0,0,0,.45.1,3.74,3.74,0,0,0,.88-.21l1.11-.12.85-.24a3.74,3.74,0,0,0,.81-.1,9.11,9.11,0,0,0,1.07-.61,3.89,3.89,0,0,0,.88-.64,5.85,5.85,0,0,0,.59-.83.54.54,0,0,1,.48-.21.88.88,0,0,1,.45.23,3.41,3.41,0,0,1-.22.81q-.73,1.23-.92,1.63a.94.94,0,0,0-.38-.1,1.83,1.83,0,0,0-.57.35,1.59,1.59,0,0,1-.78.24,12.66,12.66,0,0,1-1.49.35,7.28,7.28,0,0,0-.9.12l-.55.17-1-.16-.61.1-.29,0a5.55,5.55,0,0,1-.64.05q-.23,0-1.26-.12l-.33,0-.36-.22q-1.3-.4-1.44-.47a7.34,7.34,0,0,1-.59-.52l-.61-.38q-.48-.29-.52-.45l-.31-.55a4.27,4.27,0,0,0-.59-.66.92.92,0,0,0,.17-.42,10.42,10.42,0,0,0-.45-1,4.84,4.84,0,0,1-.12-1.47,5.35,5.35,0,0,1,.24-1.25,3.42,3.42,0,0,1,.29-.78l.59-.69.38-.81,1.35-1.25,1.26-.78,1.28-.88.47-.09,1.32-.42.85-.07a8.79,8.79,0,0,1,1.13-.38A1.3,1.3,0,0,1,198.34,55.67Zm-2,2.6.29.36.47-.09a4.64,4.64,0,0,0,.93-.24l1,.09s0-.06.09-.17a1.18,1.18,0,0,0,0-.17.63.63,0,0,0-.21-.38l-.17-.21q-.42-.55-.52-.52l-.57-.28a1.31,1.31,0,0,1-.33-.4,14.49,14.49,0,0,0-1.71-.07l-.35,0-.59.35a7.45,7.45,0,0,1-1,.24q-.73.26-1.28.5-.12.09-.67.59l-.4.31v.1l0,0,1.26.5.38.38.68-.81a.3.3,0,0,1,.19-.07l.85.23h0a6,6,0,0,0,1-.17A3.11,3.11,0,0,1,196.34,58.27Z"/><path class="cls-1" d="M209.68,60.93l.1-.62a1.86,1.86,0,0,1-.4,0q-.16,0-.47-.36a8.54,8.54,0,0,0-1.3-1q-.09-.73-.09-.76a.42.42,0,0,0-.16-.23l-.57.09c-.22-.23-.37-.38-.45-.45a7.28,7.28,0,0,1-1.07-1,5.56,5.56,0,0,1,1-1,8,8,0,0,1,1.38-.43,1.84,1.84,0,0,0,.22.43l.5.54.55.73.35.43a3.56,3.56,0,0,0,.38.74,1,1,0,0,0,.57.17,6.42,6.42,0,0,0,.64.69,4.5,4.5,0,0,1,.74.93,1.76,1.76,0,0,1-.07.45,1,1,0,0,0,.61.38,6.54,6.54,0,0,0,.78-1q.9,0,.9-.68,0-.14,0-.33l1.07-1.11v-.19A.94.94,0,0,1,215,57l.43-.55a2.65,2.65,0,0,0,.24-.4,2.36,2.36,0,0,1,.26-.42,3.26,3.26,0,0,1,.43-.34,2.38,2.38,0,0,1,1-.55q.4,0,.4.38a1,1,0,0,1-.12.43s-.27.36-.74,1l-.49.76-.67.68-.67.93-.47.43-.43.48q-1.4,1.3-1.37,1.78l.61.05.29.42H214q.61.67,1.56,1.59a7,7,0,0,0,1.14.92l-.09.52a.92.92,0,0,1,.62.29l.28-.1a6.87,6.87,0,0,0,.9.85,7,7,0,0,1,1,.78,2.86,2.86,0,0,1,.21.48,3,3,0,0,1-.85.8,6,6,0,0,0-.55.33,1.51,1.51,0,0,1-.61.31.51.51,0,0,1-.36-.23l-2-2.16-.57-1.19-.42.07a5.72,5.72,0,0,1-.74-.71,4.15,4.15,0,0,0-.8-.8l-.54-.33a2,2,0,0,0-.42-1h-.29a1.16,1.16,0,0,0-.21.42,1.53,1.53,0,0,1-.12.32l-.64.55A5.45,5.45,0,0,1,209,65.38a3,3,0,0,0-.85,1.21,10.8,10.8,0,0,1-.8,1.13,3.55,3.55,0,0,1-.88.66l-.12.4a.52.52,0,0,1-.35.16q-.92,0-.92-.66a1,1,0,0,1,.29-.57,12.42,12.42,0,0,1,2-1.9l.39-.31,1-1.32.43-.38a4.73,4.73,0,0,0,.48-.48,6.92,6.92,0,0,1,.47-.55q.47-.47.47-.66t-.38-.54A5.43,5.43,0,0,1,209.68,60.93Z"/><path class="cls-1" d="M134,99.71q-.48,2.49-.86,5.39a62.7,62.7,0,0,1-12.39,1.37,30.92,30.92,0,0,1-9.68-1.53,21.73,21.73,0,0,1-8.12-4.72,19,19,0,0,1-5-7.52,26.81,26.81,0,0,1-1.58-9.27,30.12,30.12,0,0,1,1.75-10.19,21.27,21.27,0,0,1,5.3-8.32,22.65,22.65,0,0,1,8.58-5.11,32.64,32.64,0,0,1,10.52-1.7,57,57,0,0,1,11.77,1.24q0,1.74.38,5.32a45.56,45.56,0,0,0-6.49-1.56,34.93,34.93,0,0,0-5.08-.39A24.49,24.49,0,0,0,115.22,64a17.6,17.6,0,0,0-6.62,4,18.06,18.06,0,0,0-4.41,6.74A23.12,23.12,0,0,0,102.66,83a23.63,23.63,0,0,0,1.22,7.62,15.28,15.28,0,0,0,3.74,6.09,17.05,17.05,0,0,0,6,3.81,21.72,21.72,0,0,0,7.79,1.32A43.85,43.85,0,0,0,134,99.71Z"/><path class="cls-1" d="M153,70.15a22.67,22.67,0,0,1,6.87,1,14.57,14.57,0,0,1,5.65,3.26,14.19,14.19,0,0,1,3.62,5.63,20.82,20.82,0,0,1,1.24,7.17A23.32,23.32,0,0,1,169,95.07a18.31,18.31,0,0,1-3.71,6.35,14.17,14.17,0,0,1-5.83,3.83,22.07,22.07,0,0,1-7.4,1.22,21.6,21.6,0,0,1-6.93-1.1,14.63,14.63,0,0,1-5.65-3.43,15.13,15.13,0,0,1-3.62-5.71,20.5,20.5,0,0,1-1.24-7.09,22,22,0,0,1,2.27-10.07,14.73,14.73,0,0,1,6.66-6.69A20.61,20.61,0,0,1,153,70.15Zm-.15,4.36a12.3,12.3,0,0,0-6.43,1.75,10.39,10.39,0,0,0-4.34,5.27,20.5,20.5,0,0,0-1.4,7.67,17.4,17.4,0,0,0,1.17,6.54,10,10,0,0,0,3.84,4.68,11.33,11.33,0,0,0,6.44,1.79,13.56,13.56,0,0,0,4.87-.87,9.77,9.77,0,0,0,4-2.9,13,13,0,0,0,2.54-5,22.7,22.7,0,0,0,.82-6.16,19,19,0,0,0-.82-5.66,9.39,9.39,0,0,0-6.36-6.49A14.81,14.81,0,0,0,152.84,74.51Z"/><path class="cls-1" d="M171.47,105.71q1.64-21.52,1.71-34.77l3.09,0,3,0-.45,6.86q.86-1.44,1.37-2.21A11,11,0,0,1,181.55,74a11.46,11.46,0,0,1,4.77-2.83,20.71,20.71,0,0,1,3.21-.74,22.57,22.57,0,0,1,8.94.48A10.43,10.43,0,0,1,203,73.23a8.09,8.09,0,0,1,2.37,3.66,15.27,15.27,0,0,1,.6,4.36q0,.45,0,1.72t-.14,3.33l-.68,14.38q-.07,2.06-.1,5-1.55-.07-2.92-.07-1.68,0-3.16.07.35-4.15.52-8l.45-8q.21-4.12.21-6.21a9.7,9.7,0,0,0-1-4.82,6.69,6.69,0,0,0-3.3-2.78,12.72,12.72,0,0,0-5.09-1,12.11,12.11,0,0,0-6.84,1.89,11.43,11.43,0,0,0-4.05,5,23.28,23.28,0,0,0-1.41,6.8q-.52,5.39-.73,17.13-1.91-.07-3-.07T171.47,105.71Z"/><path class="cls-1" d="M234.22,100.5q-.07.55-.36,2t-.5,2.93a34.86,34.86,0,0,1-4.82.79q-2.32.21-4.07.21a22.58,22.58,0,0,1-6.85-1,13.5,13.5,0,0,1-8.91-8.94,22.9,22.9,0,0,1-1.1-7.12,25.88,25.88,0,0,1,1.79-9.58,14.87,14.87,0,0,1,5.63-7.1q3.84-2.57,10.47-2.57a34.93,34.93,0,0,1,9.51,1.3q.21,2.92.38,4.81a43.35,43.35,0,0,0-5.32-1.39,22.21,22.21,0,0,0-3.81-.36,12.78,12.78,0,0,0-5.41,1.1,11.45,11.45,0,0,0-4.07,3.12,12.37,12.37,0,0,0-2.42,4.81,21.93,21.93,0,0,0-.74,5.66,17.75,17.75,0,0,0,1.2,6.8,8.84,8.84,0,0,0,4.2,4.51,14.15,14.15,0,0,0,6.75,1.6A27.05,27.05,0,0,0,234.22,100.5Z"/><path class="cls-1" d="M264.88,100.26q-.41,1.89-.82,4.8a47.4,47.4,0,0,1-5.71,1.12,40.29,40.29,0,0,1-4.82.29,26.67,26.67,0,0,1-7.71-1,13.21,13.21,0,0,1-5.85-3.59,15.11,15.11,0,0,1-3.5-5.85,22.51,22.51,0,0,1-1.06-7,23,23,0,0,1,2-9.49,15.43,15.43,0,0,1,5.89-6.88,18.24,18.24,0,0,1,10-2.51,19.52,19.52,0,0,1,6,.91,11.72,11.72,0,0,1,4.74,2.76,12.5,12.5,0,0,1,2.92,4.58,16.74,16.74,0,0,1,1,6,13.76,13.76,0,0,1-.21,2.4H241.47q-.14,1.89-.14,2.88a14.71,14.71,0,0,0,1.51,6.64,10.21,10.21,0,0,0,4.46,4.6,14.32,14.32,0,0,0,6.8,1.56A34.06,34.06,0,0,0,264.88,100.26ZM241.75,83.92H262.2a19.91,19.91,0,0,0-.27-3.36,9.81,9.81,0,0,0-.89-2.49,7.12,7.12,0,0,0-1.77-2.23,7.73,7.73,0,0,0-2.68-1.44,11.08,11.08,0,0,0-3.38-.5,12.47,12.47,0,0,0-3.72.55A11,11,0,0,0,246.36,76a10,10,0,0,0-2.3,2.25,10.84,10.84,0,0,0-1.41,2.49A23.12,23.12,0,0,0,241.75,83.92Z"/><path class="cls-1" d="M267.6,121.23q.69-8.85,1.29-24.09t.67-24.92q5.63-1.2,9-1.63a53.82,53.82,0,0,1,6.78-.43,23.39,23.39,0,0,1,9.3,1.7,12.34,12.34,0,0,1,6.14,6,20.84,20.84,0,0,1,2.2,9.66,25.31,25.31,0,0,1-1,7.22,18.9,18.9,0,0,1-3.14,6.23,13.64,13.64,0,0,1-5.1,4.14,15.61,15.61,0,0,1-6.66,1.39,16.58,16.58,0,0,1-4.22-.53,14.38,14.38,0,0,1-3.52-1.39,11,11,0,0,1-2.51-1.92,25.78,25.78,0,0,1-2.46-3.19L273.92,113q-.14,3.33-.14,4.81v3.4q-1.74-.07-3-.07T267.6,121.23Zm7.86-44.93-.24,2.61L275,82.48q-.14,2.81-.21,4.58t-.07,2.49a20.91,20.91,0,0,0,.53,4.8,9.74,9.74,0,0,0,2.13,4.14,10.49,10.49,0,0,0,3.76,2.83,10.88,10.88,0,0,0,4.46,1,10.18,10.18,0,0,0,5.85-1.78,11.61,11.61,0,0,0,4.1-5.32,19.85,19.85,0,0,0,1.48-7.72,16,16,0,0,0-1.54-7.28,9.69,9.69,0,0,0-4.15-4.41,12.61,12.61,0,0,0-5.9-1.36A30,30,0,0,0,275.46,76.3Z"/><path class="cls-1" d="M321.84,101.18q-.38,1.68-.82,4.46a30.62,30.62,0,0,1-3.71.69q-1.37.14-2.61.14a13.08,13.08,0,0,1-4.92-.77,5.77,5.77,0,0,1-2.87-2.47,9.12,9.12,0,0,1-1-4.62q0-.38,0-1.34t.35-6.69l.84-15.38h-4.59q.14-1.44.24-4.12h4.68q.17-1.92.35-6.56,3.22-.62,5.44-1.17-.24,5.08-.27,7.72h9.54q-.17,2.16-.21,4.12h-9.5l-.92,19.32,0,1.48a9.56,9.56,0,0,0,.57,3.76,3.53,3.53,0,0,0,1.7,1.8,5.35,5.35,0,0,0,2.36.55,13.56,13.56,0,0,0,1.85-.14A35.79,35.79,0,0,0,321.84,101.18Z"/><path class="cls-1" d="M319.86,105.06l-.21-2.52q0-.41-.27-2.63a24.62,24.62,0,0,0,9.75,2.3,11.12,11.12,0,0,0,3.95-.62,4.89,4.89,0,0,0,2.42-1.83,4.49,4.49,0,0,0,.81-2.51,4.83,4.83,0,0,0-.22-1.44,5.37,5.37,0,0,0-.67-1.38A8.51,8.51,0,0,0,334.09,93q-.87-.8-3.64-3t-4.19-3.48a18.12,18.12,0,0,1-2.44-2.57,9.9,9.9,0,0,1-1.49-2.66,8,8,0,0,1-.48-2.71,7.51,7.51,0,0,1,1.39-4.26,8.27,8.27,0,0,1,4-3.07,17.1,17.1,0,0,1,6.16-1,45.49,45.49,0,0,1,8.68.93q.14,2.68.34,4.91a19.87,19.87,0,0,0-7.58-1.58,12.76,12.76,0,0,0-3.76.53,4.86,4.86,0,0,0-2.54,1.6,3.78,3.78,0,0,0-.81,2.33,4.57,4.57,0,0,0,.28,1.58,5.89,5.89,0,0,0,1,1.63,13.25,13.25,0,0,0,1.7,1.73q1,.86,4,3.23a48.79,48.79,0,0,1,4.07,3.5,16,16,0,0,1,1.89,2.33,9.32,9.32,0,0,1,1.15,2.39,8.26,8.26,0,0,1,.36,2.42,7.69,7.69,0,0,1-1.42,4.46,9.1,9.1,0,0,1-4.24,3.19,16.77,16.77,0,0,1-6.32,1.13q-1.48,0-3.47-.19t-3.38-.45Q321.92,105.58,319.86,105.06Z"/><path class="cls-2" d="M340.15,62.28l2.42,0a.25.25,0,0,0,.12,0,3,3,0,0,1,2.87,1.22c1.71,1.83,3.52,3.57,5.31,5.34.51.5.9,1.12,1.46,1.58a.46.46,0,0,1,.16.39,18.07,18.07,0,0,1-.05,2.08l0,1.48c-.37.17-.53-.16-.72-.34-1.43-1.41-2.85-2.84-4.28-4.27a1.62,1.62,0,0,0-.56-.46,6.5,6.5,0,0,0-.08,1.47c0,.25.11.56-.25.69a21.09,21.09,0,0,1,.08-2.78c0-.42-.11-.54-.52-.54a10.18,10.18,0,0,1-2.13-.09c.33-.31.78,0,1.18-.24a2.06,2.06,0,0,0-.62-.84c-1.34-1.34-2.68-2.67-4-4C340.3,62.81,340,62.66,340.15,62.28Z"/><path class="cls-3" d="M346.51,71.51a8.09,8.09,0,0,0,.11-2c0-.16-.09-.38.11-.45s.29.14.4.25l4.7,4.69c.17.17.31.41.6.43a5,5,0,0,1-.48,3.05,1,1,0,0,1-.5-.36l-4.49-4.49a1.83,1.83,0,0,1-.44-.61Z"/><path class="cls-4" d="M352.44,72.94a1.2,1.2,0,0,1,0-.31c.34-1.44-.45-2.39-1.37-3.31q-3.36-3.35-6.69-6.72a.75.75,0,0,0-.56-.19,3.38,3.38,0,0,1-1.24-.09c1.43-.06,2.86.08,4.29.11,1.82,2,3.83,3.83,5.69,5.8A46.41,46.41,0,0,1,352.44,72.94Z"/><path class="cls-5" d="M340.15,62.28c0,.29.25.43.42.6l4.06,4.06c.31.31.82.71.71,1s-.75.07-1.16.13h-1.5a2.54,2.54,0,0,1-.69-.54l-3.91-3.92a10.9,10.9,0,0,0-1.06-1C338,61.93,339.08,62.21,340.15,62.28Z"/><path class="cls-6" d="M352.55,68.22c-.27,0-.4-.22-.56-.38l-4.64-4.64a1.39,1.39,0,0,1-.49-.79h.77a11.34,11.34,0,0,0,1.7,0,1.23,1.23,0,0,1,1,.39c.71.72,1.32,1.52,2.06,2.2a.74.74,0,0,1,.27.55,20,20,0,0,1-.05,2.51A.14.14,0,0,1,352.55,68.22Z"/><path class="cls-3" d="M346.5,72c1.84,1.78,3.68,3.57,5.43,5.45a2.25,2.25,0,0,1-1.38,1.16,13.92,13.92,0,0,1-2.35-2.25l-1.55-1.64c-.11.65.17,1.33-.17,2a6.85,6.85,0,0,1-.07-2.24C346.4,73.66,346.47,72.84,346.5,72Z"/><path class="cls-3" d="M337,62.66a.53.53,0,0,1,.46.16l5.21,5.27a40.08,40.08,0,0,1-4.07-.11c.34-.3.76-.1,1.12-.17-1.28-1.16-2.36-2.54-3.62-3.74a.45.45,0,0,1-.14-.28A2.4,2.4,0,0,1,337,62.66Z"/><path class="cls-7" d="M346.48,76.71V74.54l.14-.07,3.93,4.17A2.92,2.92,0,0,1,346.48,76.71Z"/><path class="cls-3" d="M336,63.79c1.45,1.22,2.57,2.76,4,4.09a7.19,7.19,0,0,1-1.41.1A2.86,2.86,0,0,1,336,63.79Z"/><path class="cls-8" d="M352.56,68.11c-.07-.9.27-1.89-.15-2.67s-1.27-1.27-1.8-2a2.06,2.06,0,0,0-2.12-.91,1.13,1.13,0,0,1-.86-.09l4.73.1c.21,0,.38,0,.37.3C352.63,64.59,352.77,66.35,352.56,68.11Z"/><path class="cls-1" d="M88.39,1.42c0-.33.17-.93-.26-.92s-.18.61-.19.94q0,38.05,0,76.1t0,76.1c0,.31-.16.88.17.88.5,0,.27-.58.27-.89Q88.41,77.53,88.39,1.42Z"/><path class="cls-1" d="M88.12,155a.67.67,0,0,1-.51-.22,1.18,1.18,0,0,1-.17-1c0-.07,0-.14,0-.2q0-38.05,0-76.1V72.1q0-35.33,0-70.67a1.7,1.7,0,0,0,0-.22,1.2,1.2,0,0,1,.16-1A.72.72,0,0,1,88.13,0a.8.8,0,0,1,.58.23,1.23,1.23,0,0,1,.2,1c0,.07,0,.14,0,.19q0,76.1,0,152.21a1.29,1.29,0,0,0,0,.18,1.13,1.13,0,0,1-.16.95.8.8,0,0,1-.63.27Z"/><path class="cls-1" d="M38.55,72.87A8.35,8.35,0,0,1,32,68.16c-1.35-2.8-.58-6,3.22-6.35a4.17,4.17,0,0,1,1.45,0c3.13.81,5.46,2.53,6.41,5.75.79,2.68-.3,4.65-2.83,5.31A6.06,6.06,0,0,1,38.55,72.87Z"/><path class="cls-1" d="M17.25,97.25a6.43,6.43,0,0,1,0-7.44,5.91,5.91,0,0,1,8.53-1.14,6.22,6.22,0,0,1,1.81,8.18,2.36,2.36,0,0,1-1.61.33C23.07,97.22,20.16,97.09,17.25,97.25Z"/><path class="cls-1" d="M49.51,67.39c-3.51-.43-6.65-4-6.74-7.08a2.68,2.68,0,0,1,3.31-2.85,7.85,7.85,0,0,1,6.57,5.9c.48,2.16,0,3.14-2.11,4A2.1,2.1,0,0,1,49.51,67.39Z"/><path class="cls-1" d="M56.66,89.89c1.06,2.93.88,5.67-1.38,8-1.61,1.66-3.62,1.45-5.24,0A6.84,6.84,0,0,1,48,93.25a15.6,15.6,0,0,1,0-2.71l.13-.84a10.36,10.36,0,0,1,2.9-.13c1.42,0,2.85,0,4.28,0A1.93,1.93,0,0,1,56.66,89.89Z"/><path class="cls-1" d="M57.51,84.17A10.39,10.39,0,0,1,58,80.84c.7-1.89,3.13-2.07,4.45-1a7.36,7.36,0,0,1,2.83,5.26c0,.41.13.82.2,1.23-.23.32,0,.72-.17,1.06a12,12,0,0,1-.84,2,2.77,2.77,0,0,1-4.45.4,8,8,0,0,1-2.36-4.52C57.51,84.9,57.74,84.5,57.51,84.17Z"/><path class="cls-1" d="M45.89,83.82a8.07,8.07,0,0,1-.67,3.66A4.71,4.71,0,0,1,39,90a7.89,7.89,0,0,1-4.89-6.19c-.21-.37.06-.51.32-.62a2.72,2.72,0,0,1,1-.13h9a2.7,2.7,0,0,1,1,.14C45.81,83.27,45.77,83.59,45.89,83.82Z"/><path class="cls-1" d="M45.71,83.35c-3.52,0-7,0-10.57,0-.37,0-.88-.24-1,.4-.75-2.59.08-5.35,2-6.49a4.47,4.47,0,0,1,2-.7,2.6,2.6,0,0,1,1.25,0,7.72,7.72,0,0,1,6.19,5.9,1,1,0,0,0,.18.26A.63.63,0,0,1,45.71,83.35Z"/><path class="cls-1" d="M59.2,75.6c-2.43-1.25-3.42-3.48-4.06-6a5,5,0,0,1,0-1.66,2.2,2.2,0,0,1,1.74-2.35,2.62,2.62,0,0,1,1.24,0A7.18,7.18,0,0,1,63.21,74a4.59,4.59,0,0,1-.87,1.51A9.55,9.55,0,0,1,59.2,75.6Z"/><path class="cls-1" d="M15.1,56.81c.76-1.82,2.19-2.66,4.78-2.51a5.73,5.73,0,0,1,4.57,2.36,2.83,2.83,0,0,1-.55,3.79c-2.15,1.9-8.24.9-8.79-2.18A3.34,3.34,0,0,1,15.1,56.81Z"/><path class="cls-1" d="M9.2,103.58c.43,3.18-1.82,5.65-5.67,5-1.88-.32-3.49-2.68-3.53-5,.28-.54.8-.52,1.28-.53q3.32,0,6.63,0C8.4,103.06,8.91,103.06,9.2,103.58Z"/><path class="cls-1" d="M55.55,110.33a6.37,6.37,0,0,1-2.74,5.77,2.83,2.83,0,0,1-3.18.26,3,3,0,0,1-1.38-2.73,7.57,7.57,0,0,1,.64-3.5,1.86,1.86,0,0,1,1.19-.33c1.4,0,2.79,0,4.19,0C54.76,109.81,55.28,109.79,55.55,110.33Z"/><path class="cls-1" d="M45.72,52.21c-2-.55-3.66-1.47-4.45-3.51a1.79,1.79,0,0,1,1.53-2.64,5.52,5.52,0,0,1,5.79,4c.18.87-.34,1.65-1.43,2.15A4.9,4.9,0,0,1,45.72,52.21Z"/><path class="cls-1" d="M68.85,92.85c.22-1.81,1-2.84,2.22-2.92,1-.06,2.09,1,2.54,2.53.52,1.85.53,3.65-1,5.13a1.76,1.76,0,0,1-2.75-.23,4.94,4.94,0,0,1-1.06-3.47A2,2,0,0,1,68.85,92.85Z"/><path class="cls-1" d="M68.07,68.89a5.5,5.5,0,0,1-2.72-5.78A1.41,1.41,0,0,1,66.58,62a3.21,3.21,0,0,1,1.23,0,5.78,5.78,0,0,1,3.33,4.24,2.1,2.1,0,0,1-2,2.76C68.79,68.81,68.42,69,68.07,68.89Z"/><path class="cls-1" d="M9.2,103.58a2.66,2.66,0,0,0-.69-.2q-3.91,0-7.82,0a2.67,2.67,0,0,0-.69.19,4.15,4.15,0,0,1,2.83-4.2,5.35,5.35,0,0,1,5.51,2A5,5,0,0,1,9.2,103.58Z"/><path class="cls-1" d="M8.38,50.21C9.2,50.57,10,51,10,52a2.62,2.62,0,0,1-1.75,2.27,7.39,7.39,0,0,1-4,.31c-.93-.09-1.32-1.06-1.49-1.92-.12-.57,1-2,1.73-2.2.33-.12.67-.2,1-.3A20.16,20.16,0,0,1,8.38,50.21Z"/><path class="cls-1" d="M46.91,127a4.55,4.55,0,0,1,3.22-3.83,3.67,3.67,0,0,1,1.45,0c1.18,1.05,1.4,1.78.82,3.2a4.92,4.92,0,0,1-3.07,2.9,1.78,1.78,0,0,1-2.43-1.2A2.51,2.51,0,0,1,46.91,127Z"/><path class="cls-1" d="M17.25,97.25c.14-.64.66-.4,1-.4,3.1,0,6.21,0,9.31,0-.72,1.86-2.29,2.63-4,3.2a9.65,9.65,0,0,1-2.3,0A5.75,5.75,0,0,1,17.25,97.25Z"/><path class="cls-1" d="M56.66,89.89H49.32a2,2,0,0,1-1.22-.19,5.51,5.51,0,0,1,1.6-2.82,3.51,3.51,0,0,1,4.67-.16A6.16,6.16,0,0,1,56.66,89.89Z"/><path class="cls-1" d="M76.18,63.74c-1.27.19-1.9-.59-2.44-1.53a2.81,2.81,0,0,1,0-3c.32-.57,2.15-.68,2.91-.21A3.4,3.4,0,0,1,78,62.45C77.68,63.33,77.23,64,76.18,63.74Z"/><path class="cls-1" d="M43.56,41.83c-1.58.14-3.62-1.53-3.5-3A1.2,1.2,0,0,1,41,37.65a4,4,0,0,1,4.52,2C46.09,40.85,45.23,41.84,43.56,41.83Z"/><path class="cls-1" d="M80.51,101.26a4.52,4.52,0,0,1-.32.76c-.5.76-1,1.52-2.12,1.33s-1.22-1.05-1.43-1.88a4.89,4.89,0,0,1,0-1.66c.22-.71.28-1.54.93-2a1.81,1.81,0,0,1,2.69,1c.1.25.19.52.28.78A5,5,0,0,1,80.51,101.26Z"/><path class="cls-1" d="M55.55,110.33a4.26,4.26,0,0,0-2.15-.19c-1.5,0-3,0-4.49,0,.66-1.15,1.31-2.33,2.72-2.74,1.94-.56,3.3.25,3.77,2.25C55.45,109.86,55.5,110.1,55.55,110.33Z"/><path class="cls-1" d="M8.38,50.21H5.46A5.85,5.85,0,0,1,8.38,50.21Z"/><path class="cls-1" d="M21.26,100h2.3A3.41,3.41,0,0,1,21.26,100Z"/></g></g></svg>