<svg xmlns="http://www.w3.org/2000/svg" viewBox="0 0 453.87 116.37"><defs><style>.cls-1{fill:#b32317;}.cls-2{fill:#ffcf00;}.cls-3{fill:#231f20;}</style></defs><title>logo_ic</title><g id="Layer_2" data-name="Layer 2"><g id="Layer_1-2" data-name="Layer 1"><path d="M93.85,85.55c-1.18-1.9-3.07-2.17-4.9-2.19s-4.89.69-4.89,3.28c0,2.06,2.22,2.54,4.94,3.05,3.12.6,6.35,1.15,6.35,4.64,0,3.65-3.69,4.53-6.4,4.53-2.51,0-5.38-1-6.63-3.51l1.11-.56c1,2,3.53,2.93,5.52,2.93s5.15-.56,5.15-3.42c0-2.43-2.66-3-5.31-3.46-3-.58-6-1.18-6-4.16C82.74,83.26,86.3,82.2,89,82.2c2.31,0,4.32.37,5.91,2.75Z"/><path d="M123.06,98.6l-1.78-4h-9.66l-1.75,4h-1.34l7.25-16.17h1.36L124.4,98.6Zm-2.26-5.13-4.34-9.84-4.34,9.84Z"/><path d="M151.08,96.36a8.33,8.33,0,0,1-5.89,2.43c-5.45,0-8.29-3.81-8.31-8.18s2.77-8.36,8.31-8.36a8.32,8.32,0,0,1,5.89,2.43l-.86.74a7.07,7.07,0,0,0-5-2.06c-4.71,0-7.14,3.32-7.11,7.21s2.45,7.07,7.11,7.07a7.25,7.25,0,0,0,5.06-2.06Z"/><path d="M178.84,96.36a8.33,8.33,0,0,1-5.89,2.43c-5.45,0-8.29-3.81-8.31-8.18s2.77-8.36,8.31-8.36a8.32,8.32,0,0,1,5.89,2.43l-.86.74a7.07,7.07,0,0,0-5-2.06c-4.71,0-7.14,3.32-7.11,7.21s2.45,7.07,7.11,7.07A7.25,7.25,0,0,0,178,95.58Z"/><path d="M209.57,90.54c0,4.25-2.72,8.34-8.15,8.34s-8.15-4.11-8.15-8.39,2.7-8.31,8.15-8.31S209.6,86.17,209.57,90.54Zm-15.08,0c0,3.65,2.33,7.21,6.93,7.21s7-3.56,7-7.21-2.31-7.18-7-7.18S194.47,86.71,194.49,90.51Z"/><path d="M234.56,93.57C233,89.62,234,84.82,239,82.79s9.1.76,10.7,4.72.61,8.72-4.45,10.76S236.18,97.63,234.56,93.57Zm14-5.62c-1.39-3.38-4.86-5.81-9.12-4.09s-5.11,5.9-3.75,9.29,4.83,5.79,9.14,4.06S250,91.47,248.56,87.95Z"/><path d="M262.38,90.12h9.31V91.3h-9.31v7.32h-1.25V82.43H272v1.25h-9.63Z"/><path d="M309.28,82.43v10c0,8.45-12.38,8.47-12.38,0v-10h1.22v10a5,5,0,1,0,9.93,0v-10Z"/><path d="M337.61,85.41a7.51,7.51,0,0,0-5.2-2.08,6.82,6.82,0,0,0-7.14,7.21,6.72,6.72,0,0,0,7.14,7.09,7.29,7.29,0,0,0,4.92-1.87V91.23H331.7V90.15h6.81V96.2a8.34,8.34,0,0,1-6.1,2.61c-5.5,0-8.34-3.84-8.34-8.24,0-5.06,3.42-8.36,8.34-8.36a8.41,8.41,0,0,1,5.91,2.42Z"/><path d="M367,98.6l-1.78-4h-9.65l-1.75,4h-1.34l7.25-16.17h1.36l7.25,16.17Zm-2.26-5.13-4.34-9.84L356,93.47Z"/><path d="M383.16,82.43,394,95.81V82.43h1.22V98.6h-.49l-10.9-13.35V98.6h-1.25V82.43Z"/><path d="M424.63,90.33a7.76,7.76,0,0,1-8.2,8.27H411V82.43h5.47A7.76,7.76,0,0,1,424.63,90.33Zm-12.43-6.72V97.4h4.22a6.89,6.89,0,1,0,0-13.79Z"/><path d="M452.53,98.6l-1.78-4H441.1l-1.75,4H438l7.25-16.17h1.36l7.25,16.17Zm-2.26-5.13-4.34-9.84-4.34,9.84Z"/><rect class="cls-1" x="81.89" y="70.67" width="371.98" height="0.82"/><rect class="cls-2" width="21.16" height="16.46" rx="0.67" ry="0.67"/><path class="cls-1" d="M58.12,96.65v18.28a1.44,1.44,0,0,1-1.44,1.44H2.1a2.11,2.11,0,0,1-2.1-2.1V34.11A2.1,2.1,0,0,1,2.1,32h17a2.08,2.08,0,0,1,2.07,2.07V75.29A19.91,19.91,0,0,0,41.07,95.21h15.6A1.44,1.44,0,0,1,58.12,96.65Z"/><path class="cls-3" d="M37.66,32H57.42a.7.7,0,0,1,.7.7V78.85a.7.7,0,0,1-.7.7H45.91a9,9,0,0,1-9-9V32.71A.7.7,0,0,1,37.66,32Z"/><rect class="cls-3" x="36.96" width="21.16" height="16.46" rx="0.67" ry="0.67"/><path class="cls-1" d="M90.54,26.19c0,4.79-7.27,4.79-7.27,0S90.54,21.39,90.54,26.19ZM83.83,33.1v25H90v-25Z"/><path class="cls-1" d="M120.82,54.9a12.8,12.8,0,0,1-9.59,3.94C104,58.83,98,54.49,98,45.66s6-13.17,13.22-13.17a11.81,11.81,0,0,1,9,3.68l-3.89,4.09a7.55,7.55,0,0,0-5-2,7,7,0,0,0-7.16,7.37c0,4.74,3.23,7.27,7.06,7.27a7.48,7.48,0,0,0,5.45-2.07Z"/><path class="cls-1" d="M136.16,26.19v7.06H143v5.3h-6.91V49.3c0,2.37,1.31,3.53,3.23,3.53a7,7,0,0,0,3-.76L144,57.32a13.76,13.76,0,0,1-5.1,1.06c-5.4.2-8.93-2.88-8.93-9.08V38.55h-4.64v-5.3H130V26.84Z"/><path class="cls-1" d="M172.39,26.19c0,4.79-7.27,4.79-7.27,0S172.39,21.39,172.39,26.19Zm-6.71,6.91v25h6.16v-25Z"/><path class="cls-1" d="M199.64,58.08v-13c0-3.78-2.07-6.66-6-6.66-3.78,0-6.36,3.18-6.36,7V58.08h-6.1V33.15h5.5l.4,3.38c2.52-2.47,5-3.73,8.17-3.73,5.85,0,10.55,4.39,10.55,12.21V58.08Z"/><path class="cls-1" d="M233.35,58.08v-13c0-3.78-2.07-6.66-6-6.66-3.78,0-6.36,3.18-6.36,7V58.08h-6.1V33.15h5.5l.4,3.38c2.52-2.47,5-3.73,8.17-3.73,5.85,0,10.55,4.39,10.55,12.21V58.08Z"/><path class="cls-1" d="M273.47,45.66c0,7.16-4.89,13-13,13s-12.92-5.8-12.92-13,4.94-13,12.87-13A12.58,12.58,0,0,1,273.47,45.66Zm-19.73,0c0,3.78,2.27,7.32,6.76,7.32s6.76-3.53,6.76-7.32-2.62-7.37-6.76-7.37C256.06,38.3,253.74,41.93,253.74,45.66Z"/><path class="cls-1" d="M306.92,33.15l-10.6,25h-6.66L279,33.15h6.71l3.43,8.22L293,51.87l3.78-10.39,3.43-8.33Z"/><path class="cls-1" d="M333.57,33.2h5.9V58.08h-5.8l-.3-3.63c-1.41,2.93-5.3,4.34-8.07,4.39-7.37.05-12.82-4.49-12.82-13.22,0-8.58,5.7-13.07,13-13,3.33,0,6.51,1.56,7.92,4ZM318.63,45.61c0,4.74,3.28,7.57,7.37,7.57,9.69,0,9.69-15.09,0-15.09A7.08,7.08,0,0,0,318.63,45.61Z"/><path class="cls-1" d="M356.23,26.19v7.06h6.86v5.3h-6.91V49.3c0,2.37,1.31,3.53,3.23,3.53a7,7,0,0,0,3-.76l1.72,5.25a13.76,13.76,0,0,1-5.1,1.06c-5.4.2-8.93-2.88-8.93-9.08V38.55h-4.64v-5.3h4.64V26.84Z"/><path class="cls-1" d="M396.34,45.66c0,7.16-4.89,13-13,13s-12.92-5.8-12.92-13,4.94-13,12.87-13A12.58,12.58,0,0,1,396.34,45.66Zm-19.73,0c0,3.78,2.27,7.32,6.76,7.32s6.76-3.53,6.76-7.32-2.62-7.37-6.76-7.37C378.93,38.3,376.61,41.93,376.61,45.66Z"/><path class="cls-1" d="M410.22,33.2l.45,2.88c1.92-3.08,4.49-3.53,7-3.53a9.44,9.44,0,0,1,6.41,2.37l-2.78,5.35a6.15,6.15,0,0,0-4.44-1.61c-3.23,0-6.21,1.72-6.21,6.31V58.08h-6.16V33.2Z"/><path class="cls-1" d="M446.6,39.81a8.39,8.39,0,0,0-6.16-2.22c-2.93,0-4.54.91-4.54,2.47s1.46,2.52,4.64,2.72c4.69.3,10.65,1.36,10.65,8,0,4.39-3.58,8.17-10.7,8.17-3.94,0-7.87-.66-11.5-4.44l3-4.39c1.77,2,5.8,3.43,8.58,3.48,2.32.05,4.49-1.16,4.49-3s-1.41-2.42-4.94-2.62c-4.69-.35-10.29-2.07-10.29-7.72s6-7.77,10.49-7.77c3.89,0,6.81.76,9.69,3.28Z"/></g></g></svg>