<svg xmlns="http://www.w3.org/2000/svg" viewBox="0 0 469.02 110.31"><defs><style>.cls-1{fill:#7e8580;}</style></defs><title>innovators-gray</title><g id="Layer_2" data-name="Layer 2"><g id="Layer_1-2" data-name="Layer 1"><path class="cls-1" d="M109.82,92.84c-1.11-1.78-2.89-2-4.61-2.06s-4.61.65-4.61,3.08c0,1.93,2.09,2.39,4.65,2.87,2.94.56,6,1.09,6,4.37,0,3.44-3.48,4.26-6,4.26-2.37,0-5.06-1-6.24-3.3l1-.52c.93,1.85,3.33,2.76,5.19,2.76s4.85-.52,4.85-3.22c0-2.28-2.5-2.78-5-3.26-2.78-.54-5.63-1.11-5.63-3.91-.07-3.22,3.28-4.22,5.78-4.22,2.17,0,4.07.35,5.57,2.59Z"/><path class="cls-1" d="M137.32,105.12l-1.67-3.74h-9.09l-1.65,3.74h-1.26l6.83-15.22h1.28l6.83,15.22Zm-2.13-4.83L131.1,91,127,100.29Z"/><path class="cls-1" d="M163.69,103a7.84,7.84,0,0,1-5.54,2.28,7.78,7.78,0,1,1,0-15.57A7.83,7.83,0,0,1,163.69,92l-.81.7a6.65,6.65,0,0,0-4.74-1.93c-4.43,0-6.72,3.13-6.7,6.78s2.3,6.65,6.7,6.65a6.82,6.82,0,0,0,4.76-1.93Z"/><path class="cls-1" d="M189.81,103a7.84,7.84,0,0,1-5.54,2.28,7.78,7.78,0,1,1,0-15.57A7.83,7.83,0,0,1,189.81,92l-.81.7a6.65,6.65,0,0,0-4.74-1.93c-4.43,0-6.72,3.13-6.7,6.78s2.3,6.65,6.7,6.65a6.82,6.82,0,0,0,4.76-1.93Z"/><path class="cls-1" d="M218.74,97.53c0,4-2.56,7.85-7.67,7.85s-7.67-3.87-7.67-7.89,2.54-7.83,7.67-7.83S218.76,93.42,218.74,97.53Zm-14.2,0c0,3.44,2.2,6.79,6.52,6.79s6.54-3.35,6.54-6.79-2.17-6.76-6.54-6.76S204.53,93.92,204.55,97.51Z"/><path class="cls-1" d="M265.2,97.53c0,4-2.56,7.85-7.67,7.85s-7.67-3.87-7.67-7.89,2.54-7.83,7.67-7.83S265.22,93.42,265.2,97.53Zm-14.2,0c0,3.44,2.2,6.79,6.52,6.79s6.54-3.35,6.54-6.79-2.17-6.76-6.54-6.76S251,93.92,251,97.51Z"/><path class="cls-1" d="M280.65,97.14h8.76v1.11h-8.76v6.89h-1.17V89.9h10.24v1.17h-9.07Z"/><path class="cls-1" d="M332.93,89.9v9.46c0,8-11.65,8-11.65,0V89.9h1.15v9.46a4.68,4.68,0,1,0,9.35,0V89.9Z"/><path class="cls-1" d="M359.6,92.71a7.07,7.07,0,0,0-4.89-2A6.42,6.42,0,0,0,348,97.53a6.33,6.33,0,0,0,6.72,6.68,6.87,6.87,0,0,0,4.63-1.76V98.18H354v-1h6.41v5.7a7.85,7.85,0,0,1-5.74,2.46c-5.17,0-7.85-3.61-7.85-7.76a7.43,7.43,0,0,1,7.85-7.87A7.92,7.92,0,0,1,360.27,92Z"/><path class="cls-1" d="M387.23,105.12l-1.67-3.74h-9.09l-1.65,3.74h-1.26l6.83-15.22h1.28l6.83,15.22Zm-2.13-4.83L381,91l-4.09,9.26Z"/><path class="cls-1" d="M402.46,89.9l10.24,12.59V89.9h1.15v15.22h-.46L403.14,92.55v12.56H402V89.9Z"/><path class="cls-1" d="M441.5,97.34a7.31,7.31,0,0,1-7.72,7.78h-5.15V89.9h5.15A7.31,7.31,0,0,1,441.5,97.34ZM429.81,91v13h4a6.49,6.49,0,1,0,0-13Z"/><path class="cls-1" d="M467.76,105.12l-1.67-3.74H457l-1.65,3.74h-1.26l6.83-15.22h1.28L469,105.12Zm-2.13-4.83L461.54,91l-4.09,9.26Z"/><rect class="cls-1" x="98.56" y="65.14" width="369.28" height="1.33"/><rect class="cls-1" width="20.06" height="15.6" rx="0.67" ry="0.67"/><path class="cls-1" d="M55.09,91.62v17.32a1.37,1.37,0,0,1-1.37,1.37H2a2,2,0,0,1-2-2v-76a2,2,0,0,1,2-2H18.1a2,2,0,0,1,2,2V71.38A18.88,18.88,0,0,0,38.94,90.25H53.73A1.36,1.36,0,0,1,55.09,91.62Z"/><path class="cls-1" d="M35.49,30.34H54.63a.46.46,0,0,1,.46.46V75a.46.46,0,0,1-.46.46H39.33a4.3,4.3,0,0,1-4.3-4.3V30.8A.46.46,0,0,1,35.49,30.34Z"/><rect class="cls-1" x="35.03" width="20.06" height="15.6" rx="0.67" ry="0.67"/><path class="cls-1" d="M108.54,10.23V16.8h6.38v4.93h-6.43v10c0,2.21,1.22,3.28,3,3.28a6.52,6.52,0,0,0,2.77-.7l1.59,4.88a12.76,12.76,0,0,1-4.74,1c-5,.19-8.31-2.67-8.31-8.45v-10H98.5V16.8h4.32v-6Z"/><path class="cls-1" d="M126.23,30.36c.37,2.86,2.86,4.93,6.9,4.93,2.11,0,4.88-.8,6.19-2.16L143,36.75c-2.44,2.53-6.43,3.76-9.95,3.76-8,0-12.72-4.93-12.72-12.35,0-7,4.79-12.11,12.3-12.11,7.74,0,12.58,4.79,11.69,14.31Zm12.58-4.74c-.37-3-2.72-4.51-6-4.51-3.1,0-5.63,1.5-6.48,4.51Z"/><path class="cls-1" d="M170.72,36.94a11.91,11.91,0,0,1-8.92,3.66c-6.71,0-12.3-4-12.3-12.25s5.58-12.25,12.3-12.25a11,11,0,0,1,8.35,3.43l-3.61,3.8a7,7,0,0,0-4.65-1.83,6.51,6.51,0,0,0-6.67,6.85c0,4.41,3,6.76,6.57,6.76a7,7,0,0,0,5.07-1.92Z"/><path class="cls-1" d="M181.14,7V19.9a8.54,8.54,0,0,1,7.23-3.47c6.57,0,9.48,4.46,9.48,11.26v12.2h-5.72V27.74c0-4.22-2.21-6-5.26-6-3.38,0-5.72,2.86-5.72,6.34V39.89h-5.73V7Z"/><path class="cls-1" d="M222.72,10.23c0,4.46-6.76,4.46-6.76,0S222.72,5.77,222.72,10.23Zm-6.24,6.43V39.89h5.73V16.66Z"/><path class="cls-1" d="M246.56,39.89V27.78c0-3.52-1.92-6.19-5.59-6.19s-5.91,3-5.91,6.48V39.89h-5.68V16.71h5.12l.37,3.14c2.35-2.3,4.69-3.47,7.6-3.47,5.44,0,9.81,4.08,9.81,11.36V39.89Z"/><path class="cls-1" d="M276.41,39.89V27.78c0-3.52-1.92-6.19-5.59-6.19s-5.91,3-5.91,6.48V39.89h-5.68V16.71h5.12l.37,3.14c2.35-2.3,4.69-3.47,7.6-3.47,5.44,0,9.81,4.08,9.81,11.36V39.89Z"/><path class="cls-1" d="M312.22,28.35c0,6.67-4.55,12.06-12.06,12.06s-12-5.4-12-12.06,4.6-12.06,12-12.06A11.7,11.7,0,0,1,312.22,28.35Zm-18.35,0c0,3.52,2.11,6.81,6.29,6.81s6.29-3.28,6.29-6.81S304,21.5,300.16,21.5C296,21.5,293.87,24.87,293.87,28.35Z"/><path class="cls-1" d="M341.83,16.71,332,40h-6.19l-9.9-23.28h6.24l3.19,7.65,3.57,9.76,3.52-9.67,3.19-7.74Z"/><path class="cls-1" d="M365.11,16.76h5.49V39.89h-5.4l-.28-3.38c-1.31,2.72-4.93,4-7.51,4.08-6.85,0-11.92-4.18-11.92-12.3s5.3-12.16,12.06-12.11c3.1,0,6.05,1.46,7.37,3.76ZM351.22,28.3a6.63,6.63,0,0,0,6.85,7c9,0,9-14,0-14A6.59,6.59,0,0,0,351.22,28.3Z"/><path class="cls-1" d="M384.68,10.23V16.8h6.38v4.93h-6.43v10c0,2.21,1.22,3.28,3,3.28a6.52,6.52,0,0,0,2.77-.7L392,39.19a12.76,12.76,0,0,1-4.74,1c-5,.19-8.31-2.67-8.31-8.45v-10h-4.32V16.8H379v-6Z"/><path class="cls-1" d="M420.49,28.35c0,6.67-4.55,12.06-12.06,12.06s-12-5.4-12-12.06,4.6-12.06,12-12.06A11.7,11.7,0,0,1,420.49,28.35Zm-18.35,0c0,3.52,2.11,6.81,6.29,6.81s6.29-3.28,6.29-6.81-2.44-6.85-6.29-6.85C404.3,21.5,402.14,24.87,402.14,28.35Z"/><path class="cls-1" d="M431.89,16.76l.42,2.68c1.78-2.86,4.18-3.29,6.52-3.29a8.78,8.78,0,0,1,6,2.21l-2.58,5a5.72,5.72,0,0,0-4.13-1.5c-3,0-5.77,1.6-5.77,5.87v12.2h-5.73V16.76Z"/><path class="cls-1" d="M464.23,22.9a7.8,7.8,0,0,0-5.73-2.06c-2.72,0-4.22.85-4.22,2.3s1.36,2.35,4.32,2.54c4.37.28,9.9,1.27,9.9,7.41,0,4.08-3.33,7.6-10,7.6-3.66,0-7.32-.61-10.7-4.13l2.81-4.08c1.64,1.83,5.4,3.19,8,3.24,2.16,0,4.18-1.08,4.18-2.77s-1.32-2.25-4.6-2.44c-4.36-.33-9.58-1.92-9.58-7.18s5.54-7.23,9.76-7.23c3.61,0,6.34.7,9,3.05Z"/></g></g></svg>