<svg xmlns="http://www.w3.org/2000/svg" viewBox="0 0 180.56 42.1"><defs><style>.cls-1{font-size:18.85px;}.cls-1,.cls-9{fill:#b32317;}.cls-1,.cls-5{font-family:NexaLight, Nexa Light;}.cls-2{letter-spacing:0.02em;}.cls-3{letter-spacing:0.01em;}.cls-4{letter-spacing:0.02em;}.cls-5{font-size:8.16px;letter-spacing:0.53em;}.cls-6{letter-spacing:0.5em;}.cls-7{letter-spacing:0.56em;}.cls-8{letter-spacing:0.54em;}.cls-10{fill:#ffcf00;}.cls-11{fill:#231f20;}</style></defs><title>logo</title><g id="Layer_2" data-name="Layer 2"><g id="Layer_1-2" data-name="Layer 1"><text class="cls-1" transform="translate(35.34 16.56)"><tspan class="cls-2">tech inn</tspan><tspan class="cls-3" x="72.29" y="0">o</tspan><tspan class="cls-4" x="83.65" y="0">v</tspan><tspan x="93.51" y="0">a</tspan><tspan class="cls-2" x="104.97" y="0">tors</tspan></text><text class="cls-5" transform="translate(37.01 39.47)">S<tspan class="cls-6" x="9.48" y="0">A</tspan><tspan x="19.21" y="0">C</tspan><tspan class="cls-7" x="29.03" y="0">C</tspan><tspan x="39.09" y="0">O OF UG</tspan><tspan class="cls-8" x="103.33" y="0">A</tspan><tspan x="113.4" y="0">NDA</tspan></text><rect class="cls-9" x="37.01" y="24.46" width="138.67" height="0.5"/><rect class="cls-10" width="7.53" height="5.86" rx="0.67" ry="0.67"/><path class="cls-9" d="M20.69,34.4v6.51a.51.51,0,0,1-.51.51H.75A.75.75,0,0,1,0,40.68V12.14a.75.75,0,0,1,.75-.75h6a.74.74,0,0,1,.74.74V26.8a7.09,7.09,0,0,0,7.09,7.09h5.55A.51.51,0,0,1,20.69,34.4Z"/><path class="cls-11" d="M13.61,11.39h6.62a.46.46,0,0,1,.46.46v16a.46.46,0,0,1-.46.46H17.45a4.3,4.3,0,0,1-4.3-4.3V11.85A.46.46,0,0,1,13.61,11.39Z"/><rect class="cls-11" x="13.16" width="7.53" height="5.86" rx="0.67" ry="0.67"/></g></g></svg>