<svg xmlns="http://www.w3.org/2000/svg" viewBox="0 0 889.53 390.77"><defs><style>.cls-1{fill:#f15b2b;}.cls-2{fill:#1d6a36;}.cls-3{fill:#fbab2b;}.cls-4{fill:#fcb12e;}.cls-5{fill:#faa325;}.cls-6{fill:#fcb431;}.cls-7{fill:#231f20;}.cls-8{fill:#8d6759;}.cls-9{fill:#f15a29;}</style></defs><title>reflex_logo</title><g id="Layer_2" data-name="Layer 2"><g id="Layer_1-2" data-name="Layer 1"><path class="cls-1" d="M357.15,145.57a3.35,3.35,0,0,1,.66-1.15,6.89,6.89,0,0,1,1.81-1.08,7.86,7.86,0,0,1,1.7-.94,1.07,1.07,0,0,1,.94.45l.14.59.28,1.08a2.44,2.44,0,0,0-.1.59,1.17,1.17,0,0,0,.38.73,10.25,10.25,0,0,0,1.88-.87l1.46-.49,1.46-1,.94-.38a5.88,5.88,0,0,1,.83-.38l.76.14h.1a24.22,24.22,0,0,0,2.36-.73,4.75,4.75,0,0,1,1-.07,1.49,1.49,0,0,1,.83.17l.73.7a3.68,3.68,0,0,0,.49.1,8.11,8.11,0,0,0,1-.49.4.4,0,0,1,.17,0,1.7,1.7,0,0,1,1,.52,2.8,2.8,0,0,1,.8,1.5,18.58,18.58,0,0,1-2.09,1.63q-.77,1-1.11,1-.56,0-1.46-1.11a9.86,9.86,0,0,1-1,.07,4.75,4.75,0,0,1-1.5-.42,7.35,7.35,0,0,0-1.7-.42,1.33,1.33,0,0,1-1.15.77,8.28,8.28,0,0,0-1.22.14l-1.39.42a1.53,1.53,0,0,1-.56-.24q-.7.63-2.43,1.88a3.17,3.17,0,0,0-1.08,2.82v1.22q0,.63,0,1t-.8,1.15a1.74,1.74,0,0,1,.59,1.08,3.12,3.12,0,0,1-.07.59l.52.14.1,1,.17,6.22-.14.38-.9.49a5.92,5.92,0,0,0-1.95.52,7,7,0,0,0,2.19.45l.59-.14a6.71,6.71,0,0,1,.35,1.56,1.39,1.39,0,0,1-.8,1.25,6.72,6.72,0,0,1-1.77.35,8.35,8.35,0,0,0-1.5.87.86.86,0,0,1-.49.14q-.83,0-.83-.73a16.59,16.59,0,0,1,.52-2,1.32,1.32,0,0,0,.07-.42s-.06-.57-.17-1.56a3.48,3.48,0,0,1,.14-.59l.83-.24a5,5,0,0,0,0-.56,1.82,1.82,0,0,0-.52-1.08v-.87a15.38,15.38,0,0,0-.21-1.63q.1-1.15.1-1.95,1.29-.45,1.29-1.11a2.06,2.06,0,0,0-.1-.56,3,3,0,0,1-.7.1,1,1,0,0,1-.59-.28v-3.48q0-.28,0-.63v-.56a3.75,3.75,0,0,1,.45-1.5,1.48,1.48,0,0,1-.52-.66q0-.1-.14-2.26A3.11,3.11,0,0,0,357.15,145.57Z"/><path class="cls-1" d="M401.35,143.63l1.11-.7a7.45,7.45,0,0,0,.73.8,4.17,4.17,0,0,0,.73.35,30.85,30.85,0,0,1,3,2.92,5.46,5.46,0,0,1,1.15,1.63q.28.66.59,1.6.21.49.49,1.25l-.24.24a6.67,6.67,0,0,1-1-.31l-1.32.49-1.18-.21-1,.28a25,25,0,0,0-2.26-1.53,7,7,0,0,0-1.63,1.43q-2.23-.42-2.36-.42a10,10,0,0,0-1.32.1l-.17-.14q-.56.07-3,.07l-1.29.14-1.6.14L389,152l-1.46,0a22,22,0,0,1-2.75.73,8.77,8.77,0,0,1-.35,1.63,3.62,3.62,0,0,1-.83,1.15q1.11.77,1.18,1.08a15.74,15.74,0,0,0,.66,3l.63.35-.17,1.29,1.08.28a3.74,3.74,0,0,0,.9,1.91,3.42,3.42,0,0,0,1.74.63q.17,1.08.56,1.29a2.72,2.72,0,0,0,1.25.28l.59.9a3.73,3.73,0,0,1,.66-.07,13.34,13.34,0,0,1,2.09.87,2,2,0,0,0,.9.21,7.51,7.51,0,0,0,1.77-.42l2.23-.24,1.7-.49a7.53,7.53,0,0,0,1.63-.21,18.35,18.35,0,0,0,2.16-1.22,7.8,7.8,0,0,0,1.77-1.29,11.81,11.81,0,0,0,1.18-1.67,1.08,1.08,0,0,1,1-.42,1.77,1.77,0,0,1,.9.45,6.85,6.85,0,0,1-.45,1.63q-1.46,2.47-1.84,3.27a1.91,1.91,0,0,0-.76-.21,3.66,3.66,0,0,0-1.15.7,3.19,3.19,0,0,1-1.56.49,25.48,25.48,0,0,1-3,.7,14.68,14.68,0,0,0-1.81.24l-1.11.35-2.05-.31-1.22.21-.59,0a11.23,11.23,0,0,1-1.29.1q-.45,0-2.54-.24l-.66-.07-.73-.45q-2.61-.8-2.89-.94a14.29,14.29,0,0,1-1.18-1s-.45-.3-1.22-.76-1-.7-1-.9l-.63-1.11a8.59,8.59,0,0,0-1.18-1.32,1.86,1.86,0,0,0,.35-.83,21.05,21.05,0,0,0-.9-1.95,9.74,9.74,0,0,1-.24-3,10.68,10.68,0,0,1,.49-2.5,6.88,6.88,0,0,1,.59-1.56l1.18-1.39.76-1.63q1.18-1.11,2.71-2.5l2.54-1.56,2.57-1.77.94-.17,2.64-.83,1.7-.14a17.78,17.78,0,0,1,2.26-.76A2.61,2.61,0,0,1,401.35,143.63Zm-4,5.22.59.73.94-.17a9.31,9.31,0,0,0,1.88-.49l2,.17s.08-.12.17-.35a2.16,2.16,0,0,0,0-.35,1.27,1.27,0,0,0-.42-.76s-.16-.19-.35-.42q-.83-1.11-1-1l-1.15-.56a2.64,2.64,0,0,1-.66-.8,28.91,28.91,0,0,0-3.44-.14l-.7,0-1.18.7a15.35,15.35,0,0,1-1.91.49q-1.46.52-2.57,1-.24.17-1.36,1.18l-.8.63v.21l.07.07,2.54,1,.76.76,1.36-1.63a.6.6,0,0,1,.38-.14q.1,0,1.7.45h.07a11.91,11.91,0,0,0,2-.35A6.28,6.28,0,0,1,397.31,148.84Z"/><path class="cls-1" d="M418.42,143.77l1.42-.9q0-.59.14-1.53l0-3.48a5.06,5.06,0,0,1,.7-2.26,2.92,2.92,0,0,1-.9-.87q-.07-.1-.1-3.58l0-2.5,0-1.7a2.74,2.74,0,0,1,.52-1.46,7.16,7.16,0,0,0,.94-1.74,4,4,0,0,0,0-.49l-.52-.24a10.16,10.16,0,0,1,2.29-5,8.52,8.52,0,0,1,1.53-1.81q1.53-1.29,2.23-1.84t3.27-1.84l.73-.52,1-.14q1.84-.45,1.91-.45a9.66,9.66,0,0,1,1.11.31,1.41,1.41,0,0,0,.45.07,2.57,2.57,0,0,0,.56-.07,7.53,7.53,0,0,1,.83-.1,3.1,3.1,0,0,1,2.37,1.11h.87a1.25,1.25,0,0,1-.24.8s-.28.35-.76.9a6.07,6.07,0,0,1-.7.9,7.72,7.72,0,0,1-1.88.94q-.76-.42-2.33-1.32a4.72,4.72,0,0,0-2.36-.76,8.05,8.05,0,0,0-3.13,1.08A3.12,3.12,0,0,0,427,116.4a19.2,19.2,0,0,0-1.88,4.38l-.38.77-.49,1.91a4.52,4.52,0,0,0-.63,1.32q0,.38.7.59a4,4,0,0,0-.24,1.39c0,.21,0,.75,0,1.63l0,2.57a8.44,8.44,0,0,1-.66,1.56,1.86,1.86,0,0,0-.07.66,3.88,3.88,0,0,0,.59,1.63,33.25,33.25,0,0,1,.17,5.18q0,.59-1,1.56v.28a1.8,1.8,0,0,0,.8.45q.63.21.76,1.88a4.36,4.36,0,0,0,1.25,1l1.53.42,2,.56,2.43-.94,2.57-.56a6.51,6.51,0,0,1,1.84-1,12.3,12.3,0,0,1,1.32-.17,2.39,2.39,0,0,1,.73,1.36q-2,1.18-2.43,1.51a6.06,6.06,0,0,0-1,1.06.6.6,0,0,1-.45.24,4.06,4.06,0,0,1-1.18-.28,4.13,4.13,0,0,0-1.32-.21,13.37,13.37,0,0,0-1.91.24,7.53,7.53,0,0,1-1.15.1,10.25,10.25,0,0,1-2-.24,14.06,14.06,0,0,0-1.67-.31,1.06,1.06,0,0,0-.73.4.82.82,0,0,0-.31.71l.31,1.53.21,3.41a1.11,1.11,0,0,1-.17.49q-.73.24-.73.76a1.54,1.54,0,0,0,.76,1.22q.07.94.1,1.22a34.72,34.72,0,0,0,.52,4.52l-.35.35-.59-.14-.59.56a7.89,7.89,0,0,0,.59.73q.63.73.59,1v0l-.1,1.11v.1a12.92,12.92,0,0,0,.24,1.67l-.52.28v.8a24.79,24.79,0,0,0-2.64,1.15,4.89,4.89,0,0,1-1.36.31v-.21a1,1,0,0,1-1.43-.07,6.48,6.48,0,0,0,.28-1.29l.14-.8.17-1a8.65,8.65,0,0,0,.52-2.26q0-.35,0-2a1.49,1.49,0,0,0,.77-1.11,6.75,6.75,0,0,0-.28-1.6,9.14,9.14,0,0,1-.35-1.84l0-1.11v-6q0-1.18.35-1.29a5.58,5.58,0,0,0,1.29-.56v-.49l-.31-.31a2.22,2.22,0,0,1-.63.1q-.38,0-.49-.14l-1.18-1.6-1.7-.28c-.51-.14-.79-.21-.83-.21q-.87,0-2.64,1.91a.83.83,0,0,1-.17-.49,8.88,8.88,0,0,1,1.25-2q.8-1,1.53-1A14.24,14.24,0,0,1,418.42,143.77Z"/><path class="cls-1" d="M442.73,113.17a2.74,2.74,0,0,0,.87-.38,7.4,7.4,0,0,1,1.29-.73,5,5,0,0,0,1.74-1.36h.31q.8,0,.8.94v.07a3.31,3.31,0,0,1,0,.45,1.72,1.72,0,0,0,0,.21l.35,1.22-.14,2.92q0,2.82-.07,3a2.38,2.38,0,0,1-.59.94l-.21,1.11.73.1a6.12,6.12,0,0,1,.21,1.25,2.05,2.05,0,0,1-.73,1.39q-.07,1-.07,1.25a1,1,0,0,0,.45.76c0,.44,0,.76,0,1l-.17,4.35V136a3.55,3.55,0,0,1-.63,1.36,1.48,1.48,0,0,0-.21.7s.16.63.49,1.74V140a1.78,1.78,0,0,1-.73,1.18l.76,1.67.38.28v2.16l.1,7.82-.63.38a9.65,9.65,0,0,1,.1,1.25q0,.14-.21,1.67v.94l1.08.14-.1.24.63,5.67-.07,1.46.21,1a7.71,7.71,0,0,0-.7,1.22.93.93,0,0,0,.17.45,14.34,14.34,0,0,0-1.95,1l-.82.45a3.3,3.3,0,0,1-.68,0,2.47,2.47,0,0,1-1.36.66,1.61,1.61,0,0,1-.49-.14c0-.35,0-.64,0-.87a6.43,6.43,0,0,0-.14-1.08,2.57,2.57,0,0,1-.07-.56,9.67,9.67,0,0,1,.28-1.08l.07-.76.14-1-.1-.66,2.92-1.88-2.82-1.95.07-.45.24-1.25.31-.87a12.23,12.23,0,0,0-.63-1.25.87.87,0,0,1-.1-.38,13.94,13.94,0,0,1,.52-1.46,6,6,0,0,0,.42-1.88l-.8-.42v-1.18c0-.53-.07-.88-.07-1s.13-.58.38-1.53a2.76,2.76,0,0,0,0-.56q0-1.22-.14-2.71a7.9,7.9,0,0,1-.07-1,5.42,5.42,0,0,1,.56-1.57,7.47,7.47,0,0,1,.21-1.7l-.73-.87V132a1.75,1.75,0,0,0,.59-.7q.21-.59.56-1.36a4.67,4.67,0,0,1-1.18-.62,7.37,7.37,0,0,0,.24-1.22q0-.35-.63-.7a6.16,6.16,0,0,1-.1-1.25l0-1.42a2.83,2.83,0,0,1,.49-1.08.46.46,0,0,0,.1-.28,5.65,5.65,0,0,0-.19-.68A4.47,4.47,0,0,0,443,122l-.1-.21,2.61-1.84-1.77-2.4a8,8,0,0,1-1.36-2.12,6.41,6.41,0,0,1,.21-1.15A7.26,7.26,0,0,0,442.73,113.17Z"/><path class="cls-1" d="M477,143.63l1.11-.7a7.45,7.45,0,0,0,.73.8,4.17,4.17,0,0,0,.73.35,30.85,30.85,0,0,1,3,2.92,5.46,5.46,0,0,1,1.15,1.63q.28.66.59,1.6.21.49.49,1.25l-.24.24a6.67,6.67,0,0,1-1-.31l-1.32.49-1.18-.21-1,.28a25,25,0,0,0-2.26-1.53,7,7,0,0,0-1.63,1.43q-2.23-.42-2.36-.42a10,10,0,0,0-1.32.1l-.17-.14q-.56.07-3,.07l-1.29.14-1.6.14-1.63.28-1.46,0a22,22,0,0,1-2.75.73,8.77,8.77,0,0,1-.35,1.63,3.62,3.62,0,0,1-.83,1.15q1.11.77,1.18,1.08a15.74,15.74,0,0,0,.66,3l.63.35-.17,1.29,1.08.28a3.74,3.74,0,0,0,.9,1.91,3.42,3.42,0,0,0,1.74.63q.17,1.08.56,1.29a2.72,2.72,0,0,0,1.25.28l.59.9a3.73,3.73,0,0,1,.66-.07,13.34,13.34,0,0,1,2.09.87,2,2,0,0,0,.9.21,7.51,7.51,0,0,0,1.77-.42l2.23-.24,1.7-.49a7.53,7.53,0,0,0,1.63-.21,18.35,18.35,0,0,0,2.16-1.22,7.8,7.8,0,0,0,1.77-1.29,11.81,11.81,0,0,0,1.18-1.67,1.08,1.08,0,0,1,1-.42,1.77,1.77,0,0,1,.9.45,6.85,6.85,0,0,1-.45,1.63q-1.46,2.47-1.84,3.27a1.91,1.91,0,0,0-.76-.21,3.66,3.66,0,0,0-1.15.7,3.19,3.19,0,0,1-1.56.49,25.48,25.48,0,0,1-3,.7,14.68,14.68,0,0,0-1.81.24l-1.11.35-2.05-.31-1.22.21-.59,0a11.23,11.23,0,0,1-1.29.1q-.45,0-2.54-.24l-.66-.07-.73-.45q-2.61-.8-2.89-.94a14.29,14.29,0,0,1-1.18-1s-.45-.3-1.22-.76-1-.7-1-.9l-.63-1.11a8.59,8.59,0,0,0-1.18-1.32,1.86,1.86,0,0,0,.35-.83,21.05,21.05,0,0,0-.9-1.95,9.74,9.74,0,0,1-.24-3,10.68,10.68,0,0,1,.49-2.5,6.88,6.88,0,0,1,.59-1.56l1.18-1.39.76-1.63q1.18-1.11,2.71-2.5l2.54-1.56,2.57-1.77.94-.17,2.64-.83,1.7-.14a17.78,17.78,0,0,1,2.26-.76A2.61,2.61,0,0,1,477,143.63Zm-4,5.22.59.73.94-.17a9.31,9.31,0,0,0,1.88-.49l2,.17s.08-.12.17-.35a2.16,2.16,0,0,0,0-.35,1.27,1.27,0,0,0-.42-.76s-.16-.19-.35-.42q-.83-1.11-1-1l-1.15-.56a2.64,2.64,0,0,1-.66-.8,28.91,28.91,0,0,0-3.44-.14l-.7,0-1.18.7a15.35,15.35,0,0,1-1.91.49q-1.46.52-2.57,1-.24.17-1.36,1.18l-.8.63v.21l.07.07,2.54,1,.76.76,1.36-1.63a.6.6,0,0,1,.38-.14q.1,0,1.7.45h.07a11.91,11.91,0,0,0,2-.35A6.28,6.28,0,0,1,473,148.84Z"/><path class="cls-1" d="M499.82,154.2l.21-1.25a3.75,3.75,0,0,1-.8-.07q-.31,0-.94-.73a17,17,0,0,0-2.61-2.05q-.17-1.46-.17-1.53a.85.85,0,0,0-.31-.45l-1.15.17q-.66-.69-.9-.9a14.59,14.59,0,0,1-2.16-2.05,11.25,11.25,0,0,1,2.09-1.91,16.12,16.12,0,0,1,2.78-.87,3.66,3.66,0,0,0,.45.87l1,1.08,1.11,1.46.7.87a7.23,7.23,0,0,0,.76,1.5,1.92,1.92,0,0,0,1.15.35,12.66,12.66,0,0,0,1.29,1.39,9.09,9.09,0,0,1,1.5,1.88,3.59,3.59,0,0,1-.14.9,1.9,1.9,0,0,0,1.22.76,13.19,13.19,0,0,0,1.57-2q1.81,0,1.81-1.36,0-.28,0-.66l2.16-2.23V147a1.88,1.88,0,0,1,.1-.59s.31-.42.87-1.11a5.24,5.24,0,0,0,.49-.8,4.85,4.85,0,0,1,.52-.85,6.48,6.48,0,0,1,.87-.68,4.78,4.78,0,0,1,2.05-1.11q.8,0,.8.76a2,2,0,0,1-.24.87q-.07.14-1.5,1.91l-1,1.53L512,148.25l-1.36,1.88-.94.87-.87,1q-2.82,2.61-2.75,3.58l1.22.1.59.83h.66q1.22,1.36,3.13,3.2a14,14,0,0,0,2.29,1.84l-.17,1a1.85,1.85,0,0,1,1.25.59l.56-.21a13.74,13.74,0,0,0,1.81,1.7,14,14,0,0,1,1.95,1.56,5.72,5.72,0,0,1,.42,1,6.09,6.09,0,0,1-1.7,1.6,12.47,12.47,0,0,0-1.11.66,3,3,0,0,1-1.22.63,1,1,0,0,1-.73-.45l-3.93-4.35-1.15-2.4-.83.14a11.63,11.63,0,0,1-1.5-1.43A8.33,8.33,0,0,0,506,160q-.56-.31-1.08-.66a3.94,3.94,0,0,0-.83-1.91h-.59a2.33,2.33,0,0,0-.42.83,3,3,0,0,1-.24.64q-.07.09-1.29,1.09a11,11,0,0,1-3.13,3.13,6.05,6.05,0,0,0-1.7,2.43,21.73,21.73,0,0,1-1.6,2.26,7.15,7.15,0,0,1-1.77,1.32l-.24.8a1.05,1.05,0,0,1-.7.31q-1.84,0-1.84-1.32a2,2,0,0,1,.59-1.15,25,25,0,0,1,4.07-3.83,9.76,9.76,0,0,0,.78-.62l2-2.64.87-.77a9.65,9.65,0,0,0,1-1,13.75,13.75,0,0,1,.94-1.11q.94-.94.94-1.32t-.76-1.08A11.05,11.05,0,0,1,499.82,154.2Z"/><path class="cls-2" d="M340.53,251.26q-1.21,6.25-2.16,13.54a157.58,157.58,0,0,1-31.14,3.45,77.75,77.75,0,0,1-24.33-3.84,54.64,54.64,0,0,1-20.4-11.86,47.72,47.72,0,0,1-12.64-18.89,67.38,67.38,0,0,1-4-23.29,75.73,75.73,0,0,1,4.4-25.62,53.46,53.46,0,0,1,13.33-20.92A56.91,56.91,0,0,1,285.19,151a82,82,0,0,1,26.44-4.27,143.31,143.31,0,0,1,29.59,3.11q.08,4.37.95,13.37a114.57,114.57,0,0,0-16.3-3.92,87.74,87.74,0,0,0-12.77-1,61.54,61.54,0,0,0-19.67,3.15,44.26,44.26,0,0,0-16.65,10.05,45.38,45.38,0,0,0-11.09,17,58.12,58.12,0,0,0-3.84,20.92,59.39,59.39,0,0,0,3.06,19.15,38.4,38.4,0,0,0,9.4,15.31,42.88,42.88,0,0,0,15.05,9.58A54.62,54.62,0,0,0,309,256.7Q322.68,256.7,340.53,251.26Z"/><path class="cls-2" d="M388.35,177a57,57,0,0,1,17.25,2.59,36.62,36.62,0,0,1,14.19,8.2,35.7,35.7,0,0,1,9.1,14.15,52.34,52.34,0,0,1,3.11,18,58.65,58.65,0,0,1-3.32,19.67,46,46,0,0,1-9.32,16,35.58,35.58,0,0,1-14.67,9.62,55.44,55.44,0,0,1-18.59,3.06,54.25,54.25,0,0,1-17.43-2.76,36.78,36.78,0,0,1-14.19-8.63,38,38,0,0,1-9.1-14.36,51.49,51.49,0,0,1-3.11-17.82A55.31,55.31,0,0,1,348,199.37a37,37,0,0,1,16.74-16.82A51.79,51.79,0,0,1,388.35,177Zm-.39,11a30.91,30.91,0,0,0-16.15,4.4,26.12,26.12,0,0,0-10.9,13.24,51.5,51.5,0,0,0-3.53,19.28,43.74,43.74,0,0,0,2.93,16.43A25.18,25.18,0,0,0,370,253.08a28.49,28.49,0,0,0,16.2,4.49,34.06,34.06,0,0,0,12.23-2.2,24.56,24.56,0,0,0,10.08-7.29,32.64,32.64,0,0,0,6.37-12.47,57.13,57.13,0,0,0,2.07-15.49,47.67,47.67,0,0,0-2.07-14.23,23.6,23.6,0,0,0-16-16.31A37.26,37.26,0,0,0,388,187.94Z"/><path class="cls-2" d="M434.8,266.36q4.13-54.09,4.3-87.39l7.77.09q2.85,0,7.51-.09l-1.14,17.25q2.15-3.62,3.45-5.56a27.6,27.6,0,0,1,3.45-4.1,28.8,28.8,0,0,1,12-7.12,52.13,52.13,0,0,1,8.07-1.85,56.72,56.72,0,0,1,22.48,1.21A26.23,26.23,0,0,1,514,184.71a20.32,20.32,0,0,1,6,9.19,38.36,38.36,0,0,1,1.51,11q0,1.12-.09,4.31t-.34,8.37l-1.71,36.15q-.17,5.18-.26,12.68-3.89-.17-7.34-.17-4.23,0-7.95.17.87-10.44,1.31-20.1l1.13-20.1q.52-10.35.52-15.62,0-7.59-2.59-12.12a16.81,16.81,0,0,0-8.29-7A32,32,0,0,0,483.11,189a30.44,30.44,0,0,0-17.19,4.74,28.73,28.73,0,0,0-10.19,12.51q-2.5,5.78-3.54,17.08-1.32,13.55-1.84,43-4.81-.17-7.47-.17T434.8,266.36Z"/><path class="cls-2" d="M592.53,253.25q-.17,1.38-.91,5.13t-1.25,7.38a87.87,87.87,0,0,1-12.12,2q-5.82.52-10.22.52a56.74,56.74,0,0,1-17.21-2.5,33.93,33.93,0,0,1-22.39-22.47,57.56,57.56,0,0,1-2.76-17.9,65.06,65.06,0,0,1,4.49-24.07,37.38,37.38,0,0,1,14.15-17.86Q554,177,570.61,177a87.82,87.82,0,0,1,23.9,3.28q.52,7.33.95,12.08a109,109,0,0,0-13.37-3.49,55.87,55.87,0,0,0-9.58-.91,32.13,32.13,0,0,0-13.59,2.76,28.76,28.76,0,0,0-10.22,7.85,31.11,31.11,0,0,0-6.08,12.08,55.22,55.22,0,0,0-1.86,14.23,44.61,44.61,0,0,0,3,17.08,22.23,22.23,0,0,0,10.57,11.34,35.55,35.55,0,0,0,17,4Q580.45,257.3,592.53,253.25Z"/><path class="cls-2" d="M669.59,252.64q-1,4.74-2.07,12.08a119.5,119.5,0,0,1-14.36,2.8,101.54,101.54,0,0,1-12.12.73,67,67,0,0,1-19.37-2.59,33.2,33.2,0,0,1-14.71-9,38,38,0,0,1-8.8-14.71,56.63,56.63,0,0,1-2.67-17.51,57.78,57.78,0,0,1,4.92-23.85,38.8,38.8,0,0,1,14.8-17.3q9.88-6.3,25.06-6.3a49.11,49.11,0,0,1,15,2.29,29.45,29.45,0,0,1,11.91,6.95,31.42,31.42,0,0,1,7.33,11.52,42.07,42.07,0,0,1,2.59,15,34.72,34.72,0,0,1-.52,6H610.76q-.35,4.75-.34,7.25a37,37,0,0,0,3.8,16.69,25.66,25.66,0,0,0,11.21,11.56,36,36,0,0,0,17.08,3.92Q653.63,258.17,669.59,252.64Zm-58.15-41.07h51.42a49.65,49.65,0,0,0-.69-8.45,24.56,24.56,0,0,0-2.24-6.25,17.86,17.86,0,0,0-4.44-5.61,19.44,19.44,0,0,0-6.73-3.62,27.88,27.88,0,0,0-8.5-1.25,31.38,31.38,0,0,0-9.36,1.38,27.68,27.68,0,0,0-7.85,3.8,25.09,25.09,0,0,0-5.78,5.65,27.31,27.31,0,0,0-3.54,6.25A58.08,58.08,0,0,0,611.45,211.58Z"/><path class="cls-2" d="M676.44,305.36q1.73-22.26,3.25-60.56t1.69-62.63q14.14-3,22.64-4.1a135.15,135.15,0,0,1,17-1.08q13.45,0,23.37,4.27t15.44,15a52.35,52.35,0,0,1,5.52,24.29,63.69,63.69,0,0,1-2.59,18.16,47.51,47.51,0,0,1-7.9,15.66,34.28,34.28,0,0,1-12.82,10.4,39.24,39.24,0,0,1-16.75,3.49,41.64,41.64,0,0,1-10.62-1.34,36.07,36.07,0,0,1-8.85-3.49,27.5,27.5,0,0,1-6.3-4.83,64.6,64.6,0,0,1-6.17-8l-1.05,34.16q-.35,8.37-.35,12.08v8.54q-4.38-.17-7.64-.17Q681.33,305.18,676.44,305.36Zm19.76-112.93-.6,6.56-.43,9q-.35,7.08-.52,11.52t-.17,6.25a52.69,52.69,0,0,0,1.34,12.08,24.47,24.47,0,0,0,5.35,10.4,26.38,26.38,0,0,0,9.45,7.12,27.33,27.33,0,0,0,11.22,2.42,25.58,25.58,0,0,0,14.71-4.49q6.6-4.49,10.31-13.37a49.89,49.89,0,0,0,3.71-19.41q0-10.61-3.88-18.29a24.36,24.36,0,0,0-10.44-11.09,31.7,31.7,0,0,0-14.84-3.41A75.5,75.5,0,0,0,696.19,192.43Z"/><path class="cls-2" d="M812.77,255q-1,4.23-2.07,11.21a76.56,76.56,0,0,1-9.32,1.73q-3.45.34-6.56.35-7.68,0-12.38-1.94a14.53,14.53,0,0,1-7.2-6.21q-2.5-4.27-2.5-11.6,0-.95.09-3.36t.88-16.82l2.11-38.65H764.29q.35-3.62.61-10.35h11.76q.44-4.83.87-16.48,8.09-1.55,13.68-2.93-.6,12.77-.68,19.41h24q-.43,5.44-.52,10.35H790.09l-2.3,48.57-.08,3.71q0,6.3,1.42,9.45a8.89,8.89,0,0,0,4.26,4.53,13.45,13.45,0,0,0,5.94,1.38A34.06,34.06,0,0,0,804,257Q806.48,256.61,812.77,255Z"/><path class="cls-2" d="M807.79,264.72l-.52-6.34q0-1-.69-6.6,13.28,5.78,24.5,5.78A27.91,27.91,0,0,0,841,256a12.28,12.28,0,0,0,6.08-4.6,11.28,11.28,0,0,0,2-6.32,12.14,12.14,0,0,0-.56-3.61,13.44,13.44,0,0,0-1.68-3.48,21.53,21.53,0,0,0-3.32-3.7q-2.2-2-9.15-7.63t-10.52-8.76a45.59,45.59,0,0,1-6.13-6.47,24.83,24.83,0,0,1-3.75-6.69,20,20,0,0,1-1.21-6.82,18.88,18.88,0,0,1,3.49-10.7,20.79,20.79,0,0,1,10.09-7.72A43,43,0,0,1,841.87,177a114.41,114.41,0,0,1,21.83,2.33q.34,6.73.86,12.34a50,50,0,0,0-19.07-4A32,32,0,0,0,836,189a12.21,12.21,0,0,0-6.38,4,9.5,9.5,0,0,0-2,5.87,11.5,11.5,0,0,0,.69,4,14.81,14.81,0,0,0,2.46,4.1,33.37,33.37,0,0,0,4.27,4.36q2.5,2.16,10,8.11a122.06,122.06,0,0,1,10.22,8.8A40.16,40.16,0,0,1,860,234.1a23.35,23.35,0,0,1,2.89,6,20.76,20.76,0,0,1,.91,6.08,19.33,19.33,0,0,1-3.58,11.21,22.89,22.89,0,0,1-10.66,8,42.18,42.18,0,0,1-15.87,2.85q-3.71,0-8.71-.47t-8.5-1.12Q813,266,807.79,264.72Z"/><path class="cls-3" d="M857.94,154.6l6.07.07a.64.64,0,0,0,.31.07c3.1-.6,5.17.89,7.21,3.07,4.31,4.6,8.86,9,13.34,13.41,1.28,1.27,2.27,2.8,3.67,4a1.15,1.15,0,0,1,.41,1,45.42,45.42,0,0,1-.13,5.23l-.08,3.73c-.94.44-1.34-.39-1.81-.86-3.6-3.55-7.17-7.15-10.76-10.72a4.08,4.08,0,0,0-1.42-1.17c-.41,1.23-.09,2.48-.21,3.69-.06.62.28,1.41-.64,1.72a53,53,0,0,1,.2-7c.12-1.06-.27-1.35-1.31-1.35a25.6,25.6,0,0,1-5.36-.23c.83-.79,2-.12,3-.6a5.17,5.17,0,0,0-1.55-2.11c-3.36-3.37-6.74-6.72-10.08-10.11C858.31,155.94,857.47,155.54,857.94,154.6Z"/><path class="cls-1" d="M873.91,177.79c.58-1.65.11-3.35.27-5,0-.4-.22-.95.27-1.14s.72.34,1,.62q5.91,5.88,11.8,11.78c.44.43.77,1,1.5,1.09,0,2.62.41,5.3-1.2,7.67a2.47,2.47,0,0,1-1.25-.91L875,180.61a4.61,4.61,0,0,1-1.1-1.52Z"/><path class="cls-4" d="M888.83,181.39a3,3,0,0,1,0-.79c.86-3.62-1.13-6-3.46-8.33q-8.44-8.41-16.8-16.89a1.89,1.89,0,0,0-1.42-.48c-1-.1-2.11.25-3.12-.23,3.6-.14,7.19.2,10.79.28,4.56,5.06,9.63,9.63,14.3,14.58A116.66,116.66,0,0,1,888.83,181.39Z"/><path class="cls-5" d="M857.94,154.6c0,.73.63,1.07,1.06,1.51q5.09,5.12,10.21,10.22c.78.77,2.07,1.79,1.78,2.56s-1.9.18-2.91.32a6.23,6.23,0,0,1-.63,0l-3.14,0a6.37,6.37,0,0,1-1.74-1.35L852.72,158a27.39,27.39,0,0,0-2.67-2.45C852.5,153.73,855.25,154.42,857.94,154.6Z"/><path class="cls-6" d="M889.1,169.53c-.67,0-1-.55-1.4-.95L876,156.93a3.48,3.48,0,0,1-1.23-2l1.93,0A28.51,28.51,0,0,0,881,155a3.08,3.08,0,0,1,2.4,1c1.78,1.8,3.32,3.82,5.19,5.54a1.85,1.85,0,0,1,.68,1.39,50.15,50.15,0,0,1-.13,6.3A.36.36,0,0,1,889.1,169.53Z"/><path class="cls-1" d="M873.9,179.09c4.64,4.48,9.26,9,13.65,13.71a5.66,5.66,0,0,1-3.48,2.91,35,35,0,0,1-5.9-5.65q-1.93-2.07-3.89-4.11c-.27,1.63.42,3.34-.44,4.92-.65-1.85-.13-3.75-.16-5.62C873.64,183.19,873.81,181.14,873.9,179.09Z"/><path class="cls-1" d="M850,155.55a1.33,1.33,0,0,1,1.14.4l13.1,13.25a100.75,100.75,0,0,1-10.24-.27c.86-.75,1.91-.26,2.83-.42-3.21-2.93-5.92-6.38-9.09-9.4a1.12,1.12,0,0,1-.34-.7A6,6,0,0,1,850,155.55Z"/><path class="cls-7" d="M873.84,190.86v-5.45l.35-.17,9.88,10.47C879.62,197.53,874.78,195.24,873.84,190.86Z"/><path class="cls-1" d="M847.45,158.4c3.66,3.06,6.46,6.94,10.15,10.28-1.3.39-2.44.1-3.54.24C848.29,168.7,844.88,163.27,847.45,158.4Z"/><path class="cls-8" d="M889.13,169.24c-.18-2.26.68-4.74-.38-6.72s-3.19-3.19-4.53-5.05a5.18,5.18,0,0,0-5.33-2.29,2.85,2.85,0,0,1-2.16-.22l11.88.24c.53,0,1,.09.92.76C889.31,160.39,889.64,164.83,889.13,169.24Z"/><path class="cls-1" d="M223.69,2.83c0-.84.43-2.36-.65-2.33s-.47,1.54-.47,2.37q0,96.3,0,192.59t0,192.59c0,.78-.41,2.23.42,2.22,1.28,0,.69-1.46.69-2.26Q223.73,195.43,223.69,2.83Z"/><path class="cls-1" d="M223,390.77a.94.94,0,0,1-.72-.3,2.37,2.37,0,0,1-.25-1.83c0-.21,0-.42,0-.59q0-89.42,0-178.84V183.79q0-90.46,0-180.92a5.52,5.52,0,0,0-.06-.64,2.44,2.44,0,0,1,.22-1.88A1,1,0,0,1,223,0a1.23,1.23,0,0,1,.89.34,2.49,2.49,0,0,1,.31,1.93c0,.2,0,.4,0,.56,0,136.51,0,262.5,0,385.19a4.36,4.36,0,0,0,.06.56,2.19,2.19,0,0,1-.23,1.79,1.28,1.28,0,0,1-1,.41ZM223.07,1h0c-.17.13-.09.79,0,1.1a6.57,6.57,0,0,1,.07.77q0,90.46,0,180.92v25.43q0,89.42,0,178.84c0,.2,0,.44-.05.7a3,3,0,0,0,0,1.06.64.64,0,0,0,.24-.09c.12-.14,0-.67,0-1a5.13,5.13,0,0,1-.07-.7c0-122.68,0-248.68,0-385.19h0c0-.19,0-.42,0-.65s.09-1,0-1.15A.21.21,0,0,0,223.07,1Z"/><path class="cls-9" d="M97.56,183.65c-7.53-1.23-13.33-5-16.69-11.93S79.4,156.42,89,155.64a10.56,10.56,0,0,1,3.66,0c7.91,2.06,13.81,6.39,16.23,14.56,2,6.77-.76,11.76-7.16,13.43A15.33,15.33,0,0,1,97.56,183.65Z"/><path class="cls-9" d="M43.65,245.35c-3.84-6.28-4.16-12.63,0-18.84,5-7.39,14.93-7.91,21.59-2.88,6.82,5.15,8.63,14,4.57,20.7-1.21,1-2.67.8-4.08.82C58.38,245.25,51,244.94,43.65,245.35Z"/><path class="cls-9" d="M125.29,169.77c-8.87-1.1-16.82-10.14-17-17.91-.15-5.1,3.5-7.83,8.37-7.21a19.86,19.86,0,0,1,16.63,14.94c1.23,5.46-.13,7.94-5.35,10.15A5.3,5.3,0,0,1,125.29,169.77Z"/><path class="cls-7" d="M143.38,226.71c2.69,7.42,2.23,14.36-3.5,20.27-4.08,4.2-9.16,3.67-13.27-.08-3.35-3.06-4.81-7.19-5.21-11.69a39.47,39.47,0,0,1,0-6.86l.34-2.12c2.42-.74,4.89-.29,7.34-.34,3.61-.08,7.21,0,10.82,0C141.1,225.89,142.36,225.81,143.38,226.71Z"/><path class="cls-1" d="M145.54,212.25a26.28,26.28,0,0,1,1.29-8.44c1.77-4.79,7.92-5.24,11.27-2.62a18.63,18.63,0,0,1,7.17,13.3c.11,1,.34,2.07.51,3.11-.59.82,0,1.83-.43,2.67-.75,1.68-1.05,3.5-2.13,5.09-2.81,4.14-7.64,4.49-11.27,1A20.35,20.35,0,0,1,146,215C145.53,214.1,146.11,213.08,145.54,212.25Z"/><path class="cls-9" d="M116.14,211.36a20.43,20.43,0,0,1-1.7,9.26,11.93,11.93,0,0,1-15.75,6.24A20,20,0,0,1,86.33,211.2c-.53-.93.14-1.29.81-1.56a6.89,6.89,0,0,1,2.61-.32q11.39,0,22.77,0a6.84,6.84,0,0,1,2.61.35C115.93,210,115.84,210.78,116.14,211.36Z"/><path class="cls-6" d="M115.68,210.17c-8.92,0-17.84,0-26.75,0-.93,0-2.24-.6-2.6,1-1.89-6.55.2-13.53,5-16.42A11.3,11.3,0,0,1,96.47,193a6.58,6.58,0,0,1,3.15,0c8.16,1.9,13.52,6.72,15.67,14.93a2.42,2.42,0,0,0,.44.65A1.59,1.59,0,0,1,115.68,210.17Z"/><path class="cls-9" d="M149.82,190.54c-6.15-3.16-8.66-8.81-10.27-15.07a12.77,12.77,0,0,1,0-4.2c0-3.07,1.38-5.13,4.41-6a6.62,6.62,0,0,1,3.14-.09A18.18,18.18,0,0,1,160,186.49c-.36,1.58-1.39,2.6-2.2,3.83C155.14,191.09,152.48,190.64,149.82,190.54Z"/><path class="cls-9" d="M38.21,143c1.92-4.62,5.53-6.73,12.1-6.36,4.6.26,8.64,2,11.56,6a7.16,7.16,0,0,1-1.4,9.58c-5.44,4.81-20.85,2.29-22.23-5.5A8.45,8.45,0,0,1,38.21,143Z"/><path class="cls-9" d="M23.28,261.37c1.09,8.06-4.6,14.3-14.34,12.66-4.76-.8-8.83-6.78-8.94-12.66C.7,260,2,260,3.24,260q8.39-.08,16.78,0C21.26,260,22.55,260,23.28,261.37Z"/><path class="cls-9" d="M140.59,278.43c.49,6.19-2.21,10.93-6.92,14.59a7.15,7.15,0,0,1-8,.65c-2.39-1.36-3.47-4-3.48-6.91a19.16,19.16,0,0,1,1.63-8.85,4.71,4.71,0,0,1,3-.83c3.53,0,7.06,0,10.59,0C138.59,277.12,139.88,277.09,140.59,278.43Z"/><path class="cls-9" d="M115.7,131.37c-5-1.39-9.26-3.72-11.27-8.87-1.34-3.44.28-6.16,3.88-6.68,6.21-.89,13.39,4.07,14.64,10.12.45,2.2-.87,4.18-3.61,5.43A12.4,12.4,0,0,1,115.7,131.37Z"/><path class="cls-9" d="M174.23,234.2c.56-4.58,2.55-7.2,5.61-7.38,2.64-.16,5.3,2.41,6.43,6.39,1.32,4.69,1.35,9.23-2.41,13-2.14,2.14-4.92,1.76-6.95-.59-2.22-2.57-2.71-5.57-2.69-8.77A5,5,0,0,1,174.23,234.2Z"/><path class="cls-9" d="M172.27,173.58A13.92,13.92,0,0,1,165.39,159a3.57,3.57,0,0,1,3.11-2.78,8.13,8.13,0,0,1,3.12,0A14.63,14.63,0,0,1,180,166.9c.81,4-1.32,6.85-5.13,7C174.08,173.36,173.14,173.78,172.27,173.58Z"/><path class="cls-9" d="M23.28,261.37a6.73,6.73,0,0,0-1.74-.5q-9.89-.05-19.79,0a6.76,6.76,0,0,0-1.74.49c.17-5.6,2.75-9.13,7.16-10.63,4.87-1.66,11.43,1.31,14,5.08A12.57,12.57,0,0,1,23.28,261.37Z"/><path class="cls-9" d="M21.19,126.29c2.09.91,4.21,2.07,4.13,4.62-.09,2.78-1.92,4.57-4.44,5.75-3.32,1.56-6.83,1.14-10.2.79-2.35-.24-3.33-2.69-3.78-4.87-.29-1.44,2.65-4.94,4.38-5.56.83-.3,1.69-.51,2.54-.77A51,51,0,0,1,21.19,126.29Z"/><path class="cls-9" d="M118.71,320.62a11.51,11.51,0,0,1,8.16-9.68,9.3,9.3,0,0,1,3.68-.1c3,2.66,3.55,4.49,2.08,8.09a12.45,12.45,0,0,1-7.76,7.35c-2.87,1-4.86-.07-6.15-3A6.34,6.34,0,0,1,118.71,320.62Z"/><path class="cls-9" d="M43.65,245.35c.36-1.61,1.67-1,2.6-1,7.85,0,15.71,0,23.57,0C68,249,64,251,59.61,252.43a24.41,24.41,0,0,1-5.81,0C49.53,251.35,45.82,249.45,43.65,245.35Z"/><path class="cls-9" d="M143.38,226.71H124.8c-1,0-2.14.19-3.09-.47.43-2.9,2.22-5.1,4.06-7.13,2.81-3.11,8.1-3.27,11.81-.41A15.58,15.58,0,0,1,143.38,226.71Z"/><path class="cls-9" d="M192.77,160.53c-3.21.48-4.8-1.5-6.19-3.86a7.11,7.11,0,0,1,.06-7.5c.8-1.44,5.43-1.71,7.37-.52,2.49,1.52,4.13,5.86,3.27,8.62C196.58,159.51,195.44,161.13,192.77,160.53Z"/><path class="cls-9" d="M110.24,105.09c-4,.35-9.16-3.88-8.87-7.57a3,3,0,0,1,2.34-3,10,10,0,0,1,11.44,5C116.64,102.62,114.45,105.12,110.24,105.09Z"/><path class="cls-9" d="M203.75,255.49a11.44,11.44,0,0,1-.81,1.92c-1.26,1.93-2.57,3.85-5.36,3.37S194.5,258.12,194,256a12.38,12.38,0,0,1,0-4.21c.55-1.8.7-3.9,2.35-5,2.44-1.68,5.62-.39,6.81,2.55.26.65.47,1.31.71,2A12.72,12.72,0,0,1,203.75,255.49Z"/><path class="cls-9" d="M140.59,278.43c-1.74-1-3.63-.45-5.45-.49-3.79-.08-7.58,0-11.37,0,1.68-2.92,3.31-5.9,6.88-6.93,4.92-1.42,8.35.63,9.55,5.69C140.34,277.26,140.46,277.85,140.59,278.43Z"/><path class="cls-9" d="M21.19,126.29l-7.37,0A14.81,14.81,0,0,1,21.19,126.29Z"/><path class="cls-9" d="M53.8,252.42h5.81A8.63,8.63,0,0,1,53.8,252.42Z"/></g></g></svg>