<svg xmlns="http://www.w3.org/2000/svg" viewBox="0 0 224 224"><defs><style>.cls-1{fill:#1b75bc;}.cls-2{fill:#f1f2f2;}.cls-3{fill:#7cd1ec;}</style></defs><title>account</title><g id="Layer_2" data-name="Layer 2"><g id="Layer_1-2" data-name="Layer 1"><circle class="cls-1" cx="112" cy="112" r="112"/><path class="cls-2" d="M59,83.87C53.52,75.18,46.49,67,39.15,59.13A37.6,37.6,0,0,1,89.61,69.6c3.91-.62,7.79-1.44,11.72-1.82,24.73-2.39,47.2,3,66.08,19.9a50.62,50.62,0,0,1,16.16,27.17c.12.54.32,1.07.49,1.6,4-.89,5.64-4.11,4.55-7.83-.66-2.27-.47-4.78-.67-7.33a6.52,6.52,0,0,1,6,3.24c4.53,6.7.83,15.93-7.36,18.44-.55.17-1.11.31-1.5.42-.45,3.85-.64,7.63-1.38,11.31-1.88,9.35-6.5,17.34-12.92,24.31a3.83,3.83,0,0,0-1.12,3.25c.73,7.6,1.34,15.21,2.13,22.8.58,5.55-3.33,10.91-8.9,11.2-6.15.32-12.32.17-18.48.06a8.9,8.9,0,0,1-7.24-4.14c-2.33-3.3-4.61-6.64-7-9.89a2.5,2.5,0,0,0-2-.92,104,104,0,0,1-22.44,1.38,3,3,0,0,0-2.16,1c-1.94,2.55-3.75,5.2-5.55,7.86a10.32,10.32,0,0,1-9.1,4.82c-5.14,0-10.28.07-15.42,0-7-.12-11.33-5.36-10.46-12.24.58-4.58.93-9.19,1.28-13.8a2.45,2.45,0,0,0-.91-1.84A64.65,64.65,0,0,1,46.3,151.25a3.73,3.73,0,0,0-1.76-1.3c-2.95-1.07-5.93-2-8.9-3-4.86-1.65-7.44-5.16-7.45-10.25q0-11.66,0-23.32a10.19,10.19,0,0,1,7.26-10.21c3.14-1.09,6.7-1.54,9.35-3.34s4.25-5,6.42-7.43C53.69,89.53,56.31,86.79,59,83.87Zm9.46,2.4c-.28.15-.52.26-.74.41a56.44,56.44,0,0,0-17,17.86,3.19,3.19,0,0,1-1.64,1.15c-3.81,1.33-7.63,2.59-11.46,3.86A3.41,3.41,0,0,0,35,113.09q0,11.85,0,23.7a3.47,3.47,0,0,0,2.7,3.69q5.66,1.82,11.28,3.79a3.46,3.46,0,0,1,1.77,1.28,55.86,55.86,0,0,0,19.3,19.24,2.25,2.25,0,0,1,1.29,2.44c-.59,6.06-1.14,12.14-1.59,18.21-.22,3,1.09,4.23,4.08,4.24,4.88,0,9.76,0,14.64,0a4.38,4.38,0,0,0,4-2.08q3.77-5.58,7.75-11a2.66,2.66,0,0,1,2-1,85.72,85.72,0,0,0,28.49-1.7,2.13,2.13,0,0,1,2.62,1.12c2.94,4.29,5.87,8.58,9,12.75a4.75,4.75,0,0,0,3.08,1.88c5.39.19,10.79.13,16.18.07a3.24,3.24,0,0,0,3.41-3.58c0-.83-.12-1.66-.19-2.49-.74-8.31-1.5-16.61-2.18-24.92a2.83,2.83,0,0,1,.77-1.79c1.51-1.75,3.23-3.32,4.65-5.14,9.94-12.68,12.87-26.66,6.87-41.86-5-12.66-14.57-21.29-26.5-27.29-19.05-9.58-39-11-59.48-5.52-1.76.47-2.63.28-3.62-1.39-5.84-9.79-14.6-14.89-26-15.31-2.84-.1-5.71.51-9,.84A164.7,164.7,0,0,1,68.46,86.26Z"/><path class="cls-3" d="M154.27,70.28l-5.89-2.7c4.4-11.15,2.81-21-6.32-28.86-7.43-6.37-16.19-7.49-25-3.38-10.49,4.89-14.73,13.7-13.86,25.3l-6.36.76c-2.15-10,2.44-23.21,13.64-30.31a30.59,30.59,0,0,1,37.89,4C158.68,45.23,159.61,60.55,154.27,70.28Z"/><path class="cls-3" d="M69,94.44a6.81,6.81,0,0,1,6.9,6.78,6.83,6.83,0,0,1-13.66-.07A6.74,6.74,0,0,1,69,94.44Z"/></g></g></svg>