<svg xmlns="http://www.w3.org/2000/svg" viewBox="0 0 224 224"><defs><style>.cls-1{fill:#1b75bc;}.cls-2{fill:#f1f2f2;}.cls-3{fill:#7cd1ec;}.cls-4{fill:#d1d3d4;}</style></defs><title>account-account</title><g id="Layer_2" data-name="Layer 2"><g id="Layer_1-2" data-name="Layer 1"><circle class="cls-1" cx="112" cy="112" r="112"/><path class="cls-2" d="M33.55,93.7A82.28,82.28,0,0,0,24.17,82,17.76,17.76,0,0,1,48,87c1.85-.29,3.68-.68,5.54-.86,11.68-1.13,22.3,1.43,31.22,9.4a23.92,23.92,0,0,1,7.63,12.84c.06.26.15.51.23.75a2.73,2.73,0,0,0,2.15-3.7,17.79,17.79,0,0,1-.32-3.46,3.08,3.08,0,0,1,2.81,1.53c2.14,3.16.39,7.53-3.48,8.71l-.71.2c-.21,1.82-.3,3.61-.65,5.34a23.73,23.73,0,0,1-6.1,11.48,1.81,1.81,0,0,0-.53,1.54c.34,3.59.63,7.19,1,10.77a4.7,4.7,0,0,1-4.21,5.29c-2.9.15-5.82.08-8.73,0a4.2,4.2,0,0,1-3.42-2c-1.1-1.56-2.18-3.14-3.31-4.67a1.18,1.18,0,0,0-.93-.44,49.14,49.14,0,0,1-10.6.65,1.42,1.42,0,0,0-1,.49c-.92,1.21-1.77,2.46-2.62,3.71a4.87,4.87,0,0,1-4.3,2.28c-2.43,0-4.86,0-7.28,0a4.86,4.86,0,0,1-4.94-5.78c.27-2.16.44-4.34.6-6.52a1.16,1.16,0,0,0-.43-.87,30.55,30.55,0,0,1-8.07-8.18,1.76,1.76,0,0,0-.83-.61c-1.39-.5-2.8-1-4.21-1.43A4.78,4.78,0,0,1,19,118.65q0-5.51,0-11a4.81,4.81,0,0,1,3.43-4.82c1.48-.52,3.17-.73,4.42-1.58s2-2.35,3-3.51C31,96.37,32.27,95.08,33.55,93.7ZM38,94.83c-.13.07-.25.12-.35.19a26.67,26.67,0,0,0-8,8.44,1.51,1.51,0,0,1-.77.54c-1.8.63-3.61,1.22-5.41,1.82a1.61,1.61,0,0,0-1.23,1.68q0,5.6,0,11.2a1.64,1.64,0,0,0,1.28,1.74q2.68.86,5.33,1.79a1.64,1.64,0,0,1,.84.6,26.39,26.39,0,0,0,9.12,9.09,1.07,1.07,0,0,1,.61,1.15c-.28,2.87-.54,5.73-.75,8.61-.1,1.4.52,2,1.93,2,2.31,0,4.61,0,6.92,0a2.07,2.07,0,0,0,1.91-1q1.78-2.64,3.66-5.21A1.25,1.25,0,0,1,54,137a40.5,40.5,0,0,0,13.46-.81,1,1,0,0,1,1.24.53c1.39,2,2.77,4.05,4.24,6a2.24,2.24,0,0,0,1.46.89c2.55.09,5.1.06,7.65,0A1.53,1.53,0,0,0,83.62,142c0-.39-.06-.79-.09-1.18-.35-3.92-.71-7.85-1-11.78a1.34,1.34,0,0,1,.37-.85c.71-.83,1.52-1.57,2.2-2.43,4.7-6,6.08-12.6,3.24-19.78-2.37-6-6.89-10.06-12.52-12.89-9-4.52-18.42-5.19-28.1-2.61A1.25,1.25,0,0,1,46,89.84,14.11,14.11,0,0,0,33.71,82.6a33.34,33.34,0,0,0-4.26.4A77.82,77.82,0,0,1,38,94.83Z"/><path class="cls-3" d="M78.56,87.28,75.78,86c2.08-5.27,1.33-9.94-3-13.64A10.42,10.42,0,0,0,61,70.77c-5,2.31-7,6.47-6.55,12l-3,.36c-1-4.73,1.15-11,6.45-14.32a14.42,14.42,0,0,1,20.7,18.52Z"/><path class="cls-3" d="M38.26,98.7a3.22,3.22,0,0,1,3.26,3.2,3.23,3.23,0,0,1-6.45,0A3.18,3.18,0,0,1,38.26,98.7Z"/><path class="cls-2" d="M144.21,93.7A82.28,82.28,0,0,0,134.83,82a17.76,17.76,0,0,1,23.84,5c1.85-.29,3.68-.68,5.54-.86,11.68-1.13,22.3,1.43,31.22,9.4a23.92,23.92,0,0,1,7.63,12.84c.06.26.15.51.23.75a2.73,2.73,0,0,0,2.15-3.7,17.79,17.79,0,0,1-.32-3.46,3.08,3.08,0,0,1,2.81,1.53c2.14,3.16.39,7.53-3.48,8.71l-.71.2c-.21,1.82-.3,3.61-.65,5.34A23.73,23.73,0,0,1,197,129.2a1.81,1.81,0,0,0-.53,1.54c.34,3.59.63,7.19,1,10.77a4.7,4.7,0,0,1-4.21,5.29c-2.9.15-5.82.08-8.73,0a4.2,4.2,0,0,1-3.42-2c-1.1-1.56-2.18-3.14-3.31-4.67a1.18,1.18,0,0,0-.93-.44,49.14,49.14,0,0,1-10.6.65,1.42,1.42,0,0,0-1,.49c-.92,1.21-1.77,2.46-2.62,3.71a4.87,4.87,0,0,1-4.3,2.28c-2.43,0-4.86,0-7.28,0a4.86,4.86,0,0,1-4.94-5.78c.27-2.16.44-4.34.6-6.52a1.16,1.16,0,0,0-.43-.87,30.55,30.55,0,0,1-8.07-8.18,1.76,1.76,0,0,0-.83-.61c-1.39-.5-2.8-1-4.21-1.43a4.78,4.78,0,0,1-3.52-4.84q0-5.51,0-11a4.81,4.81,0,0,1,3.43-4.82c1.48-.52,3.17-.73,4.42-1.58s2-2.35,3-3.51C141.7,96.37,142.94,95.08,144.21,93.7Zm4.47,1.13c-.13.07-.25.12-.35.19a26.67,26.67,0,0,0-8,8.44,1.51,1.51,0,0,1-.77.54c-1.8.63-3.61,1.22-5.41,1.82a1.61,1.61,0,0,0-1.23,1.68q0,5.6,0,11.2a1.64,1.64,0,0,0,1.28,1.74q2.68.86,5.33,1.79a1.64,1.64,0,0,1,.84.6,26.39,26.39,0,0,0,9.12,9.09,1.07,1.07,0,0,1,.61,1.15c-.28,2.87-.54,5.73-.75,8.61-.1,1.4.52,2,1.93,2,2.31,0,4.61,0,6.92,0a2.07,2.07,0,0,0,1.91-1q1.78-2.64,3.66-5.21a1.25,1.25,0,0,1,.92-.5,40.5,40.5,0,0,0,13.46-.81,1,1,0,0,1,1.24.53c1.39,2,2.77,4.05,4.24,6a2.24,2.24,0,0,0,1.46.89c2.55.09,5.1.06,7.65,0a1.53,1.53,0,0,0,1.61-1.69c0-.39-.06-.79-.09-1.18-.35-3.92-.71-7.85-1-11.78a1.34,1.34,0,0,1,.37-.85c.71-.83,1.52-1.57,2.2-2.43,4.7-6,6.08-12.6,3.24-19.78-2.37-6-6.89-10.06-12.52-12.89-9-4.52-18.42-5.19-28.1-2.61a1.25,1.25,0,0,1-1.71-.66,14.11,14.11,0,0,0-12.26-7.23,33.34,33.34,0,0,0-4.26.4A77.82,77.82,0,0,1,148.68,94.83Z"/><path class="cls-3" d="M189.23,87.28,186.45,86c2.08-5.27,1.33-9.94-3-13.64a10.42,10.42,0,0,0-11.82-1.59c-5,2.31-7,6.47-6.55,12l-3,.36c-1-4.73,1.15-11,6.45-14.32a14.42,14.42,0,0,1,20.7,18.52Z"/><path class="cls-3" d="M148.92,98.7a3.22,3.22,0,0,1,3.26,3.2,3.23,3.23,0,0,1-6.45,0A3.18,3.18,0,0,1,148.92,98.7Z"/><rect class="cls-4" x="103.25" y="103.25" width="17.49" height="17.49" rx="4.07" ry="4.07" transform="translate(-46.39 112) rotate(-45)"/></g></g></svg>