<svg xmlns="http://www.w3.org/2000/svg" viewBox="0 0 224 224"><defs><style>.cls-1{fill:#1b75bc;}.cls-2{fill:none;stroke:#d1d3d4;stroke-miterlimit:10;stroke-width:3px;}.cls-3{fill:#f1f2f2;}</style></defs><title>custom_graphical</title><g id="Layer_2" data-name="Layer 2"><g id="Layer_1-2" data-name="Layer 1"><circle class="cls-1" cx="112" cy="112" r="112"/><path class="cls-2" d="M114.57,59.85C77.8,59.85,48,83.2,48,112s29.8,52.15,66.57,52.15a82.24,82.24,0,0,0,26.84-4.42L114.57,112l66.2,5.5a41.43,41.43,0,0,0,.37-5.5C181.14,83.2,151.34,59.85,114.57,59.85Z"/><path class="cls-3" d="M66.36,168l-11.43-8,41.26-58.38,25.69,28,21-39.36-16.7-8L169.29,52l4.91,52.57-18.61-8.48-30.68,57.7L97.63,123.87Z"/></g></g></svg>