<svg xmlns="http://www.w3.org/2000/svg" viewBox="0 0 502 302"><defs><style>.cls-1{fill:#a7a9ac;}.cls-2{fill:#808285;stroke:#fff;}.cls-2,.cls-4,.cls-5,.cls-7{stroke-miterlimit:10;}.cls-3{fill:#fff;}.cls-4,.cls-5,.cls-7{fill:none;}.cls-4,.cls-5{stroke:#d1d3d4;}.cls-4,.cls-7{stroke-width:2px;}.cls-5{stroke-width:0.5px;}.cls-6{fill:#939598;}.cls-7{stroke:#808285;}</style></defs><title>eunique</title><g id="Layer_2" data-name="Layer 2"><g id="Layer_1-2" data-name="Layer 1"><path class="cls-1" d="M166.8,175c-16.43-13.5-23.63-30.16-22.58-50.13.38-7.25,5.46-12.91,11-17,7.62-5.64,15.91-10.4,24.09-15.24,2.46-1.46,3.9-2.45,3.45-5.82-.9-6.69,3.25-10.71,8.68-13.62a123.74,123.74,0,0,1,34.95-12.48c32-6.22,62.51-2.56,90.67,14.41,8.3,5,15.54,11.75,23.27,17.7l-.75,1.57L331.36,94c16.26,15.76,22.78,34,18,56.11l-1.54-.83c-.22-.13-.44-.27-.92-.56-1.1,10-2.5,19.74-9.46,28.38l-2.55-9.11c-12.07,20.32-32.59,24.74-51.56,31.8l-.9-.79,6.76-11.68c-20.64,10.64-41.08,16.86-64.24,13.24,1.17-1,1.74-1.58,2.34-2.09s1.06-.83,2.48-1.94c-11.59,0-22.1-.79-32.56-6,3.74-1.26,6.94-2,9.83-3.39a81,81,0,0,0,11.61-6.55c3.35-2.34,5.22-5.76,4.11-10.16s-3.93-7.17-8.39-7.64c-8.16-.87-16.35-1.63-24.54-2a102.59,102.59,0,0,0-14.7.76c-6.43.66-7.17,1.55-7.91,8C167.12,171,167,172.57,166.8,175Zm90-23.75a30.53,30.53,0,0,1-11.53,21.83c-6.23,5.21-12.94,9.84-19,14.43,18.56-2.72,34.73-11,47.26-26.44-1.11,13.62-10.08,21.39-20,28.68,6.17-1.67,12.18-3.49,18.06-5.68,13.69-5.1,26.58-11.48,35.34-23.88,4.11-5.82,6.55-11.93,5-19.46-1.7-8.35-6-15.21-10.58-22.08-.53-.81-1-1.67-1.47-2.5l1-.57c8.79,8.52,15.49,18.18,16.95,30.94s-4.68,23.22-10.7,33.74c13.61-6.55,22.89-16.23,23.58-32.37l1.34-.46,6.35,7.28c1.65-13.27-2.23-24.58-12-33.78-3.46-3.27-7-6.43-10.5-9.69a15.63,15.63,0,0,1-1.61-2.1c9.23,1.56,16,7.24,23,12.5-6.56-16.77-20.74-26.1-35-35.32l.74-1.2,11.42.85c-1.38-1.09-1.69-1.4-2.05-1.62-1.6-1-3.19-2-4.83-2.89a107.81,107.81,0,0,0-41.8-13.19c-25-2.42-48.62,1.45-70.35,14.6-4.07,2.46-4.61,4.35-1.11,7.69s7.42,5.95,11.24,8.78c2.63,2,5.33,1.81,8,0,4.65-3.18,9.29-6.37,14-9.42,6.91-4.46,14.63-6,22.72-5.55,1.12.06,3.19,2,3,2.76a45.05,45.05,0,0,1-3,8.48c-4.37,10.22-12.32,15.19-24.14,15.31,9.1,6.07,17.68,11.46,22.15,21.14,4.79,10.38,2.38,19.53-5,28l1.06.69ZM162.47,162c3.49-16.55,14.76-22.74,29.47-24.81a177.3,177.3,0,0,1,46.18-.12,26.46,26.46,0,0,0,3.16,0l.84-1.13c-2.21-2.48-4-5.59-6.71-7.33-10-6.48-20.44-12.38-30.54-18.75-5.22-3.29-10-7.2-15.17-10.64-1.06-.71-3.05-1.25-4-.73-9.14,5.16-18.4,10.17-27.08,16-5.84,3.94-9.2,9.88-7.88,17.51.39,2.27.49,4.6.92,6.86A48.68,48.68,0,0,0,162.47,162Zm77.89-17.48c-6.87-.74-13.72-1.66-20.61-2.18A96.46,96.46,0,0,0,185,145.56a23.7,23.7,0,0,0-13.45,9.7c9.82-.65,19.15-1.84,28.46-1.71a104.75,104.75,0,0,1,23.47,2.89C232.69,158.72,239.26,154.8,240.37,144.51Zm-6.44-38.44c6.53-.75,11.33-5.1,13-12.45-3.76-1.88-4.51-1.63-5.93.9C238.67,98.56,236.14,102.45,233.92,106.07Z"/><path class="cls-2" d="M256.8,151.3l-12.27,9.42-1.06-.69c7.39-8.42,9.8-17.58,5-28-4.47-9.68-13-15.08-22.15-21.14,11.82-.12,19.76-5.09,24.14-15.31a45.05,45.05,0,0,0,3-8.48c.15-.72-1.92-2.69-3-2.76-8.09-.46-15.81,1.1-22.72,5.55-4.73,3.05-9.37,6.24-14,9.42-2.7,1.85-5.41,2-8,0-3.82-2.84-7.82-5.52-11.24-8.78s-3-5.23,1.11-7.69c21.74-13.15,45.36-17,70.35-14.6a107.81,107.81,0,0,1,41.8,13.19c1.64.9,3.23,1.91,4.83,2.89.36.22.68.53,2.05,1.62l-11.42-.85-.74,1.2c14.28,9.23,28.46,18.55,35,35.32-7-5.26-13.76-10.94-23-12.5a15.63,15.63,0,0,0,1.61,2.1c3.48,3.25,7,6.42,10.5,9.69,9.72,9.2,13.6,20.5,12,33.78l-6.35-7.28-1.34.46c-.68,16.13-10,25.81-23.58,32.37,6-10.52,12.17-20.87,10.7-33.74s-8.15-22.42-16.95-30.94l-1,.57c.49.83.94,1.7,1.47,2.5,4.54,6.87,8.88,13.73,10.58,22.08,1.53,7.52-.91,13.63-5,19.46-8.76,12.4-21.65,18.78-35.34,23.88-5.87,2.19-11.89,4-18.06,5.68,9.89-7.28,18.86-15.05,20-28.68-12.53,15.4-28.7,23.72-47.26,26.44,6.1-4.59,12.81-9.22,19-14.43A30.53,30.53,0,0,0,256.8,151.3Zm-53-54.35c.86-.23,1.38-.2,1.63-.46,8.8-8.73,20-12.21,31.75-14.36,1.49-.27,2.88-1.1,5.09-2C232.42,76.77,206,86.39,203.79,96.94Z"/><path class="cls-3" d="M233.92,106.07c2.22-3.62,4.75-7.51,7-11.55,1.43-2.54,2.18-2.78,5.93-.9C245.25,101,240.45,105.32,233.92,106.07Z"/><path d="M203.79,96.94c2.24-10.56,28.63-20.18,38.47-16.79-2.21.88-3.6,1.7-5.09,2-11.79,2.15-22.94,5.62-31.75,14.36C205.17,96.74,204.65,96.72,203.79,96.94Z"/><path d="M195.11,115.16c3,.31,1.7-6.15,6.11-3.35a3,3,0,0,1,.46,2.51,60.11,60.11,0,0,1-5.79,2.75Z"/><circle class="cls-4" cx="247.52" cy="129.82" r="106.7"/><line class="cls-5" x1="134.98" y1="245.97" x2="360.06" y2="245.97"/><path class="cls-6" d="M136,258.66h11.48a8.76,8.76,0,0,1,.17,1.72,9.05,9.05,0,0,1-.17,1.77h-7.37v4.39h5.85a9.4,9.4,0,0,1,.17,1.75,9.24,9.24,0,0,1-.17,1.77h-5.85v5.35h7.57a8.74,8.74,0,0,1,.17,1.72,9,9,0,0,1-.17,1.77H136Z"/><path class="cls-6" d="M150.8,258.66c.36-.06.7-.09,1-.11l1,0,1,0c.34,0,.68.06,1,.11v10.49a29,29,0,0,0,.13,2.94,6.26,6.26,0,0,0,.51,2,2.54,2.54,0,0,0,1.07,1.18,3.69,3.69,0,0,0,1.79.38,3.6,3.6,0,0,0,1.77-.38,2.56,2.56,0,0,0,1.05-1.18,6.23,6.23,0,0,0,.51-2,29.24,29.24,0,0,0,.13-2.94V258.66q.56-.08,1.07-.11l1,0,1,0a10.46,10.46,0,0,1,1.05.11V270a19.37,19.37,0,0,1-.34,3.75,7.37,7.37,0,0,1-1.21,2.91,5.71,5.71,0,0,1-2.33,1.87,10.76,10.76,0,0,1-7.43,0,5.7,5.7,0,0,1-2.33-1.87,7.34,7.34,0,0,1-1.21-2.91,19.36,19.36,0,0,1-.34-3.75Z"/><path class="cls-6" d="M169.79,258.66a8.75,8.75,0,0,1,1.66-.17,9.48,9.48,0,0,1,1.74.17L181,271.54V258.66a11.83,11.83,0,0,1,1.94-.17,8.33,8.33,0,0,1,1.69.17v20.23a9,9,0,0,1-1.63.17,9.66,9.66,0,0,1-1.72-.17L173.42,266v12.86a9.93,9.93,0,0,1-1.83.17,9.46,9.46,0,0,1-1.8-.17Z"/><path class="cls-6" d="M188.58,258.66a12.83,12.83,0,0,1,2.05-.17,13.36,13.36,0,0,1,2.08.17v20.23a13.21,13.21,0,0,1-2.05.17,13,13,0,0,1-2.08-.17Z"/><path class="cls-6" d="M204.9,279.22a9.11,9.11,0,0,1-3.94-.79,7.34,7.34,0,0,1-2.73-2.18,9.42,9.42,0,0,1-1.59-3.29,15.67,15.67,0,0,1-.52-4.15,16,16,0,0,1,.52-4.18,9.57,9.57,0,0,1,1.59-3.33,7.3,7.3,0,0,1,2.73-2.19,10.25,10.25,0,0,1,7.88,0,7.31,7.31,0,0,1,2.73,2.19,9.58,9.58,0,0,1,1.59,3.33,16,16,0,0,1,.52,4.18,15.67,15.67,0,0,1-.52,4.15,9.44,9.44,0,0,1-1.59,3.29,7.36,7.36,0,0,1-2.73,2.18A9.1,9.1,0,0,1,204.9,279.22Zm0-3.43q4.36,0,4.36-7a10.31,10.31,0,0,0-1.05-5.23,3.56,3.56,0,0,0-3.28-1.74q-4.42,0-4.42,7T204.9,275.79Zm9.28,4.67q-.06.82-.2,1.67a7.5,7.5,0,0,1-.45,1.62l-7-1.13.14-1a7.61,7.61,0,0,1,.14-.76c.06-.23.12-.47.2-.7l.25-.77Z"/><path class="cls-6" d="M217,258.66c.36-.06.7-.09,1-.11l1,0,1,0c.34,0,.68.06,1,.11v10.49a29,29,0,0,0,.13,2.94,6.26,6.26,0,0,0,.51,2,2.54,2.54,0,0,0,1.07,1.18,3.69,3.69,0,0,0,1.79.38,3.6,3.6,0,0,0,1.77-.38,2.56,2.56,0,0,0,1.05-1.18,6.23,6.23,0,0,0,.51-2,29.24,29.24,0,0,0,.13-2.94V258.66q.56-.08,1.07-.11l1,0,1,0a10.46,10.46,0,0,1,1.05.11V270a19.37,19.37,0,0,1-.34,3.75,7.37,7.37,0,0,1-1.21,2.91,5.71,5.71,0,0,1-2.33,1.87,10.76,10.76,0,0,1-7.43,0,5.7,5.7,0,0,1-2.33-1.87,7.34,7.34,0,0,1-1.21-2.91A19.36,19.36,0,0,1,217,270Z"/><path class="cls-6" d="M236,258.66h11.48a8.76,8.76,0,0,1,.17,1.72,9.05,9.05,0,0,1-.17,1.77h-7.37v4.39h5.85a9.4,9.4,0,0,1,.17,1.75,9.24,9.24,0,0,1-.17,1.77h-5.85v5.35h7.57a8.74,8.74,0,0,1,.17,1.72,9,9,0,0,1-.17,1.77H236Z"/><path class="cls-6" d="M270.44,275.06a11.24,11.24,0,0,1,.6,1.62,11.6,11.6,0,0,1,.35,1.67,13.34,13.34,0,0,1-2.63.7,17.65,17.65,0,0,1-2.52.17,10.55,10.55,0,0,1-4.19-.77,8.34,8.34,0,0,1-3-2.17,9.22,9.22,0,0,1-1.84-3.31,13.43,13.43,0,0,1-.62-4.16,13,13,0,0,1,.65-4.18,9.74,9.74,0,0,1,1.87-3.33,8.46,8.46,0,0,1,3-2.19,10,10,0,0,1,4.06-.79,16.94,16.94,0,0,1,2.49.17,10.84,10.84,0,0,1,2.46.7,6.17,6.17,0,0,1-.34,1.65q-.28.8-.62,1.62a12.51,12.51,0,0,0-1.74-.48,10,10,0,0,0-1.8-.14,5.07,5.07,0,0,0-4.15,1.76,8.06,8.06,0,0,0-1.45,5.22q0,6.86,5.82,6.86a10.51,10.51,0,0,0,1.83-.14A12,12,0,0,0,270.44,275.06Z"/><path class="cls-6" d="M279.17,258.66q.59-.08,1.13-.13t1.18,0q.56,0,1.1,0l1.18.13,6.33,20.23a15.58,15.58,0,0,1-2.25.17,12.67,12.67,0,0,1-2.08-.17l-1.12-4.05h-6.7l-1.15,4.05a11.85,11.85,0,0,1-1.94.17,12.49,12.49,0,0,1-2.05-.17Zm4.5,12.77-2.33-8.5-2.45,8.5Z"/><path class="cls-6" d="M292.36,258.57q1.29-.11,2.62-.18t2.67-.07a15,15,0,0,1,2.86.28,7.15,7.15,0,0,1,2.62,1.05,5.76,5.76,0,0,1,1.9,2.15,7.61,7.61,0,0,1,.73,3.57,7.53,7.53,0,0,1-.73,3.56,6,6,0,0,1-1.88,2.15,6.89,6.89,0,0,1-2.57,1.07,14.4,14.4,0,0,1-2.8.28h-.69l-.61,0v6.5a10.2,10.2,0,0,1-1,.11l-1,0-1,0q-.53,0-1.1-.11ZM296.47,269a3.91,3.91,0,0,0,.63.06h.72a5.25,5.25,0,0,0,1.38-.18,3.21,3.21,0,0,0,1.2-.6,3,3,0,0,0,.83-1.11,4.16,4.16,0,0,0,.31-1.7,4.44,4.44,0,0,0-.31-1.76,3.06,3.06,0,0,0-.83-1.15,3.11,3.11,0,0,0-1.2-.62,5.25,5.25,0,0,0-1.38-.18h-.58l-.77.07Z"/><path class="cls-6" d="M308.76,258.66a12.83,12.83,0,0,1,2.05-.17,13.36,13.36,0,0,1,2.08.17v20.23a13.21,13.21,0,0,1-2.05.17,13,13,0,0,1-2.08-.17Z"/><path class="cls-6" d="M320.77,262.15h-5a9.05,9.05,0,0,1-.17-1.77,8.76,8.76,0,0,1,.17-1.72h14.21a8.76,8.76,0,0,1,.17,1.72,9.05,9.05,0,0,1-.17,1.77h-5v16.74l-1,.1c-.34,0-.67,0-1,0l-1,0q-.55,0-1.11-.11Z"/><path class="cls-6" d="M335.51,258.66q.59-.08,1.13-.13t1.18,0q.56,0,1.1,0l1.18.13,6.33,20.23a15.58,15.58,0,0,1-2.25.17,12.67,12.67,0,0,1-2.08-.17L341,274.83h-6.7l-1.15,4.05a11.85,11.85,0,0,1-1.94.17,12.49,12.49,0,0,1-2.05-.17Zm4.5,12.77-2.33-8.5-2.45,8.5Z"/><path class="cls-6" d="M348.71,258.66a12.5,12.5,0,0,1,2-.17,13.2,13.2,0,0,1,2.05.17v16.68h7a8.26,8.26,0,0,1,.11.91c0,.29,0,.57,0,.83s0,.6,0,.89a8.2,8.2,0,0,1-.11.91H348.71Z"/><rect class="cls-7" x="1" y="1" width="500" height="300"/></g></g></svg>