<svg xmlns="http://www.w3.org/2000/svg" viewBox="0 0 322 322"><defs><style>.cls-1{fill:#24110c;stroke:#00aeef;stroke-width:8px;}.cls-1,.cls-3{stroke-miterlimit:10;}.cls-2,.cls-3{fill:none;stroke:#e6e7e8;stroke-width:7px;}.cls-2{stroke-linecap:round;stroke-linejoin:round;}.cls-4{fill:#e6e7e8;}</style></defs><title>favicon_1</title><g id="Layer_2" data-name="Layer 2"><g id="Layer_1-2" data-name="Layer 1"><circle class="cls-1" cx="161" cy="161" r="157"/><line class="cls-2" x1="160.91" y1="44.98" x2="160.91" y2="287.53"/><line class="cls-2" x1="143.63" y1="80.92" x2="143.63" y2="246.03"/><path class="cls-3" d="M64.3,99.58h79.45a0,0,0,0,1,0,0V227.37a0,0,0,0,1,0,0H64.3A16.3,16.3,0,0,1,48,211.08v-95.2A16.3,16.3,0,0,1,64.3,99.58Z"/><line class="cls-2" x1="178.13" y1="80.92" x2="178.13" y2="246.03"/><path class="cls-3" d="M194.32,99.58H273a0,0,0,0,1,0,0V227.37a0,0,0,0,1,0,0H194.32a16.3,16.3,0,0,1-16.3-16.3v-95.2A16.3,16.3,0,0,1,194.32,99.58Z" transform="translate(451.02 326.95) rotate(180)"/><circle class="cls-4" cx="160.77" cy="19.24" r="5.1"/></g></g></svg>