<svg xmlns="http://www.w3.org/2000/svg" xmlns:xlink="http://www.w3.org/1999/xlink" viewBox="0 0 502 302"><defs><style>.cls-1{fill:#414042;}.cls-2{fill:#58595b;stroke-width:0.3px;}.cls-2,.cls-3,.cls-5,.cls-6,.cls-7{stroke:#fff;}.cls-10,.cls-2,.cls-3,.cls-5,.cls-6,.cls-7{stroke-miterlimit:10;}.cls-3{fill:url(#radial-gradient);}.cls-4{fill:#0e0e0e;}.cls-5{fill:#fff;}.cls-10,.cls-5,.cls-7{stroke-width:2px;}.cls-6{fill:#3d594f;stroke-width:0.75px;}.cls-10,.cls-7{fill:none;}.cls-8{fill:#18793d;}.cls-9{fill:#ed2424;}.cls-10{stroke:#808285;}</style><radialGradient id="radial-gradient" cx="120.04" cy="163.08" r="51.76" gradientTransform="translate(3.11 -2.24) rotate(1.09)" gradientUnits="userSpaceOnUse"><stop offset="0" stop-color="#414042"/><stop offset="1" stop-color="#231f20"/></radialGradient></defs><title>kit</title><g id="Layer_2" data-name="Layer 2"><g id="Layer_1-2" data-name="Layer 1"><rect class="cls-1" x="15.71" y="102.81" width="208.7" height="119.51" rx="0.9" ry="0.9" transform="translate(-15.52 12.7) rotate(-5.69)"/><path class="cls-2" d="M178.56,96.64l-129,12.85A88.85,88.85,0,0,0,61.48,228.95l129-12.85A88.85,88.85,0,0,0,178.56,96.64Z"/><circle class="cls-3" cx="120.04" cy="163.08" r="51.76" transform="translate(-3.07 2.3) rotate(-1.09)"/><circle class="cls-4" cx="120.06" cy="163.5" r="28.61" transform="translate(-3.07 2.3) rotate(-1.09)"/><path class="cls-5" d="M119.57,137.65a25.66,25.66,0,1,0,26.1,25.18A25.63,25.63,0,0,0,119.57,137.65Z"/><circle class="cls-6" cx="120.06" cy="156.87" r="7.95" transform="translate(-45.47 264.68) rotate(-85.65)"/><path class="cls-6" d="M122.22,166.53c-8.75-1.69-17.38,2.7-19.27,9.83s3.66,14.27,12.4,16,17.38-2.7,19.27-9.83S131,168.22,122.22,166.53Z"/><line class="cls-7" x1="241.39" y1="68.99" x2="241.39" y2="232.79"/><path class="cls-8" d="M252.35,207c0-.34-.09-.67-.13-1a8.89,8.89,0,0,1-.05-1,9.9,9.9,0,0,1,.05-1c0-.35.08-.69.13-1,.34,0,.67-.08,1-.11s.66,0,1,0,.67,0,1,0,.67.06,1,.11c0,.34.09.68.13,1a9.36,9.36,0,0,1,0,2c0,.34-.08.68-.13,1q-.51.07-1,.11t-1,0q-.51,0-1,0T252.35,207Z"/><path class="cls-1" d="M278.51,203.24a9.85,9.85,0,0,1,1,3,14.41,14.41,0,0,1-3.11.94,19.22,19.22,0,0,1-3.44.29,13.36,13.36,0,0,1-5.08-.92,10.33,10.33,0,0,1-3.82-2.64,11.73,11.73,0,0,1-2.39-4.18,17.21,17.21,0,0,1-.83-5.54,17.85,17.85,0,0,1,.83-5.63,12.23,12.23,0,0,1,2.39-4.29,10.44,10.44,0,0,1,3.8-2.73,12.68,12.68,0,0,1,5-1,18.85,18.85,0,0,1,3.55.29,20.07,20.07,0,0,1,2.64.69,6.67,6.67,0,0,1-.31,1.54q-.24.71-.56,1.5l-1.05-.33q-.51-.14-1.09-.25a11.89,11.89,0,0,0-1.28-.16c-.47,0-1-.05-1.61-.05a7.48,7.48,0,0,0-6.13,2.68q-2.19,2.68-2.19,7.71a14.34,14.34,0,0,0,.62,4.45,8.43,8.43,0,0,0,1.74,3.11,7.08,7.08,0,0,0,2.7,1.85,9.61,9.61,0,0,0,3.53.62,13.68,13.68,0,0,0,2.75-.25A11.77,11.77,0,0,0,278.51,203.24Z"/><path class="cls-1" d="M293.42,207.47a11.15,11.15,0,0,1-4.89-1,9.29,9.29,0,0,1-3.42-2.79,12.31,12.31,0,0,1-2-4.25,22.06,22.06,0,0,1,0-10.78,12.32,12.32,0,0,1,2-4.25,9.46,9.46,0,0,1,3.42-2.8,12.28,12.28,0,0,1,9.77,0,9.46,9.46,0,0,1,3.42,2.8,12.08,12.08,0,0,1,2,4.25,22.62,22.62,0,0,1,0,10.78,12.08,12.08,0,0,1-2,4.25,9.29,9.29,0,0,1-3.42,2.79A11.14,11.14,0,0,1,293.42,207.47Z"/><path class="cls-1" d="M310.5,181a10,10,0,0,1,1-.11c.37,0,.73,0,1.07,0s.71,0,1.1,0a8.62,8.62,0,0,1,1,.11l6.73,16.28L328.16,181a7.15,7.15,0,0,1,.9-.11q.54,0,1.05,0c.31,0,.66,0,1.05,0a8.58,8.58,0,0,1,1,.11l1.23,26q-.43.07-.89.11t-.92,0q-.47,0-.92,0c-.3,0-.59-.06-.85-.11L329,186.81l-6.37,14.84a10,10,0,0,1-1.48.11,8.77,8.77,0,0,1-1.38-.11l-6.15-14.95L312.75,207q-.4.07-.83.11t-.83,0c-.31,0-.62,0-.9,0s-.57-.06-.83-.11Z"/><path class="cls-2" d="M253.18,144c.29,0,.59-.08.9-.11s.63,0,.94,0,.63,0,.94,0,.61.06.9.11v26q-.44.07-.9.11t-.94,0q-.51,0-1,0a8.7,8.7,0,0,1-.87-.11ZM258,156.77,266.32,144q.51-.07,1-.11c.33,0,.62,0,.89,0s.65,0,1,0,.74.06,1.12.11l-8.25,12.48,9.3,13.53q-.58.07-1.14.11t-1.07,0c-.29,0-.6,0-.94,0s-.69-.06-1.05-.11Z"/><path class="cls-2" d="M274.93,124a6.12,6.12,0,0,1,.9-.19,6.89,6.89,0,0,1,1.88,0,6.16,6.16,0,0,1,.9.19v45.84a6.39,6.39,0,0,1-.89.19,7,7,0,0,1-1,.06,7.56,7.56,0,0,1-1-.06,5.16,5.16,0,0,1-.89-.19Z"/><path class="cls-2" d="M289.48,147.18h-6.77a6.88,6.88,0,0,1-.11-.8c0-.29,0-.57,0-.83s0-.54,0-.81a6.94,6.94,0,0,1,.11-.78h17.23q.07.36.11.76t0,.8c0,.27,0,.55,0,.85a7.46,7.46,0,0,1-.11.81h-6.77V170a14,14,0,0,1-1.81.11,15.15,15.15,0,0,1-1.88-.11Z"/><path class="cls-2" d="M314.52,164h-9.88l-1.77,6q-.47.07-.94.11t-.94,0c-.34,0-.67,0-1,0a8.68,8.68,0,0,1-.89-.11l8.47-26c.31,0,.65-.08,1-.11s.74,0,1.12,0,.69,0,1,0,.71.06,1.05.11l8.43,26q-.43.07-1,.11t-1.05,0c-.31,0-.63,0-1,0s-.63-.06-.92-.11Z"/><path class="cls-2" d="M324.76,144a10,10,0,0,1,1-.11c.37,0,.73,0,1.07,0s.71,0,1.1,0a8.62,8.62,0,0,1,1,.11l6.73,16.28L342.42,144a7.15,7.15,0,0,1,.9-.11q.54,0,1.05,0c.31,0,.66,0,1.05,0a8.58,8.58,0,0,1,1,.11l1.23,26q-.43.07-.89.11t-.92,0q-.47,0-.92,0c-.3,0-.59-.06-.85-.11l-.83-20.23-6.37,14.84a10,10,0,0,1-1.48.11,8.77,8.77,0,0,1-1.38-.11l-6.15-14.95L327,170q-.4.07-.83.11t-.83,0c-.31,0-.62,0-.9,0s-.57-.06-.83-.11Z"/><path class="cls-2" d="M353.6,144a20.77,20.77,0,0,1,2.53-.29q1.63-.11,3.29-.11a18.16,18.16,0,0,1,3.76.36,8.28,8.28,0,0,1,2.91,1.18,5.63,5.63,0,0,1,1.88,2.1,6.71,6.71,0,0,1,.67,3.13,6.09,6.09,0,0,1-1.27,3.78,5.39,5.39,0,0,1-1.34,1.23,5.59,5.59,0,0,1-1.56.71,7.27,7.27,0,0,1,2,.54,6,6,0,0,1,3.22,3.24,7.42,7.42,0,0,1,.53,2.95,7.11,7.11,0,0,1-.83,3.56,6.65,6.65,0,0,1-2.26,2.37,10,10,0,0,1-3.37,1.3,20.58,20.58,0,0,1-4.14.4q-1.37,0-3-.13T353.6,170Zm6.3,10.86a5.81,5.81,0,0,0,3.76-1.07,3.9,3.9,0,0,0,1.3-3.2,3.55,3.55,0,0,0-1.39-3.08,6.31,6.31,0,0,0-3.78-1q-.72,0-1.39,0t-1.14.11v8.21Zm-2.64,12.3q.5.07,1.28.11t1.54,0a13,13,0,0,0,2.44-.22,6,6,0,0,0,2-.74,3.86,3.86,0,0,0,1.38-1.41,4.53,4.53,0,0,0,.51-2.26,5,5,0,0,0-.47-2.26,3.92,3.92,0,0,0-1.28-1.48,5.31,5.31,0,0,0-1.94-.8,11.83,11.83,0,0,0-2.42-.24h-3Z"/><path class="cls-2" d="M374.85,144a15.15,15.15,0,0,1,1.88-.11,14,14,0,0,1,1.81.11v14.76a21.86,21.86,0,0,0,.29,3.84,7,7,0,0,0,.94,2.59,3.89,3.89,0,0,0,1.72,1.47,6.5,6.5,0,0,0,2.62.47,6.37,6.37,0,0,0,2.61-.47,3.92,3.92,0,0,0,1.7-1.47,7,7,0,0,0,.94-2.59,21.86,21.86,0,0,0,.29-3.84V144a15.4,15.4,0,0,1,1.84-.11,15.18,15.18,0,0,1,1.88.11v15.42a20.3,20.3,0,0,1-.49,4.67,8.86,8.86,0,0,1-1.59,3.47,7,7,0,0,1-2.88,2.15,12.87,12.87,0,0,1-8.61,0,7,7,0,0,1-2.88-2.15,8.88,8.88,0,0,1-1.59-3.47,20.31,20.31,0,0,1-.49-4.67Z"/><path class="cls-2" d="M399.49,144a8.56,8.56,0,0,1,.85-.11q.45,0,1,0c.31,0,.63,0,.94,0s.62.06.9.11v22.76h10.2a6.2,6.2,0,0,1,.09.83q0,.43,0,.8a11.39,11.39,0,0,1-.11,1.63H399.49Z"/><path class="cls-2" d="M417.4,152.67l.9-.07.94,0,.94,0,.9.07V170l-.89.07-1,0-1,0q-.49,0-.89-.07Z"/><path class="cls-2" d="M426.81,166a24.93,24.93,0,0,0,2.5.76,13.32,13.32,0,0,0,3.18.33,6.84,6.84,0,0,0,4.43-1.21,4,4,0,0,0,1.47-3.28,4.44,4.44,0,0,0-.31-1.74,3.35,3.35,0,0,0-.92-1.25,6.89,6.89,0,0,0-1.54-1q-.92-.44-2.15-.94l-2.06-.83a14.08,14.08,0,0,1-1.92-1,5.92,5.92,0,0,1-1.5-1.29,5.79,5.79,0,0,1-1-1.76,7,7,0,0,1-.36-2.37,6.34,6.34,0,0,1,2.24-5.16,9.59,9.59,0,0,1,6.3-1.86,18,18,0,0,1,3.29.29,17.56,17.56,0,0,1,2.75.72,11.3,11.3,0,0,1-.8,3,18,18,0,0,0-2.26-.65,13.34,13.34,0,0,0-2.91-.29,5.76,5.76,0,0,0-3.51.92,3.24,3.24,0,0,0-1.23,2.77,2.91,2.91,0,0,0,.31,1.36,3.61,3.61,0,0,0,.81,1,5.91,5.91,0,0,0,1.19.81,13.25,13.25,0,0,0,1.45.65l2,.8a21.53,21.53,0,0,1,2.57,1.21,8,8,0,0,1,1.92,1.48,5.75,5.75,0,0,1,1.21,2,8.06,8.06,0,0,1,.42,2.71,7.27,7.27,0,0,1-2.57,5.88q-2.57,2.15-7.2,2.15-1.12,0-2-.07a16.45,16.45,0,0,1-1.68-.22,14.38,14.38,0,0,1-1.5-.36l-1.48-.47a8.13,8.13,0,0,1,.33-1.63Q426.52,166.83,426.81,166Z"/><path class="cls-2" d="M447.18,144c.29,0,.59-.08.9-.11s.63,0,.94,0,.63,0,.94,0,.61.06.9.11v10.71h11.07V144a8.51,8.51,0,0,1,.87-.11c.31,0,.63,0,.94,0s.63,0,1,0,.63.06.92.11v26a8.7,8.7,0,0,1-.87.11q-.47,0-1,0t-1,0a8.67,8.67,0,0,1-.89-.11V157.93H450.88V170c-.29,0-.59.08-.89.11s-.62,0-1,0-.63,0-1,0a8.67,8.67,0,0,1-.89-.11Z"/><path class="cls-2" d="M482,170.41a11.15,11.15,0,0,1-4.89-1,9.29,9.29,0,0,1-3.42-2.79,12.31,12.31,0,0,1-2-4.25,22.06,22.06,0,0,1,0-10.78,12.32,12.32,0,0,1,2-4.25,9.46,9.46,0,0,1,3.42-2.8,12.28,12.28,0,0,1,9.77,0,9.46,9.46,0,0,1,3.42,2.8,12.08,12.08,0,0,1,2,4.25,22.62,22.62,0,0,1,0,10.78,12.08,12.08,0,0,1-2,4.25,9.29,9.29,0,0,1-3.42,2.79A11.14,11.14,0,0,1,482,170.41Z"/><circle class="cls-9" cx="276.78" cy="112.16" r="7.87"/><circle class="cls-8" cx="419.25" cy="146.46" r="4.64"/><rect class="cls-10" x="1" y="1" width="500" height="300"/></g></g></svg>