<svg xmlns="http://www.w3.org/2000/svg" viewBox="0 0 224 224"><defs><style>.cls-1{fill:#1b75bc;}.cls-2{fill:#f1f2f2;}.cls-3{fill:none;stroke:#f1f2f2;stroke-miterlimit:10;stroke-width:4px;}</style></defs><title>loans</title><g id="Layer_2" data-name="Layer 2"><g id="Layer_1-2" data-name="Layer 1"><circle class="cls-1" cx="112" cy="112" r="112"/><path class="cls-2" d="M153.42,161.77l-5.17,2.16c-4.08,1.71-8.17,3.41-12.24,5.14a2.65,2.65,0,0,1-2.41-.08q-13.18-6.65-26.39-13.26a2.13,2.13,0,0,1-1.39-1.55,1.8,1.8,0,0,1,.74-1.85,1.9,1.9,0,0,1,2.14-.09q5.88,3,11.78,5.92,7,3.51,14,7a1.3,1.3,0,0,0,1,0q8.75-3.63,17.48-7.32c.22-.09.5-.36.51-.56,0-1.39,0-2.79,0-4.32l-5.33,2.21c-4,1.66-8,3.3-12,5a2.82,2.82,0,0,1-2.58-.09Q120.75,153.69,108,147.3c-.36-.18-.74-.34-1.1-.53a1.85,1.85,0,0,1-1.09-1.91,1.8,1.8,0,0,1,1.23-1.65c4.7-2,9.4-3.91,14.1-5.88q20.93-8.78,41.86-17.6a3.48,3.48,0,0,1,3.21.14c8.19,4.13,16.41,8.2,24.63,12.29.63.31,1.25.62,1.89.91a1.92,1.92,0,0,1-.09,3.65c-5.29,2.21-10.57,4.46-15.86,6.66a1.09,1.09,0,0,0-.81,1.22c.06,1.19,0,2.39,0,3.73l.95-.36,14.19-5.89a1.9,1.9,0,0,1,2.67.84,1.88,1.88,0,0,1-1.17,2.6c-3.73,1.57-7.47,3.11-11.21,4.67-1.61.67-3.23,1.33-4.83,2-.24.11-.57.4-.58.62-.05,1.48,0,3,0,4.59l2.57-1.05,12.65-5.3a1.89,1.89,0,0,1,2.19.31,1.62,1.62,0,0,1,.43,2,3.05,3.05,0,0,1-1.37,1.22q-7.79,3.34-15.62,6.56a1.13,1.13,0,0,0-.87,1.27c.06,1.16,0,2.32,0,3.61.4-.15.69-.25,1-.37q7-2.9,14-5.79a3.46,3.46,0,0,1,1.34-.31,1.81,1.81,0,0,1,1.7,1.6,1.83,1.83,0,0,1-1.2,2c-2.65,1.13-5.32,2.22-8,3.33q-24.31,10.11-48.61,20.23a2.83,2.83,0,0,1-2.58,0q-13.18-6.66-26.39-13.26a2.1,2.1,0,0,1-1.37-1.57,1.79,1.79,0,0,1,.77-1.83,1.89,1.89,0,0,1,2.06-.08c3,1.53,6,3,9.06,4.55,5.54,2.78,11.08,5.58,16.64,8.33a1.64,1.64,0,0,0,1.21,0q8.65-3.54,17.26-7.16c.25-.1.58-.39.59-.61.05-1.36,0-2.73,0-4.21l-3,1.21c-4.81,2-9.63,4-14.43,6a2.67,2.67,0,0,1-2.42-.09q-13.22-6.67-26.46-13.3c-1.24-.62-1.67-1.67-1.13-2.7a1.91,1.91,0,0,1,2.79-.67q12.5,6.26,25,12.56A2.43,2.43,0,0,0,136,174c5.52-2.33,11.07-4.62,16.61-6.89a1,1,0,0,0,.77-1.14C153.38,164.63,153.42,163.26,153.42,161.77Zm-21-25.09c.41.23.68.39,1,.52q11.31,5.61,22.62,11.21a2,2,0,0,1,1.21,1.95c0,4.08,0,8.16,0,12.25q0,3.19,0,6.38c0,1.59,0,3.18,0,4.81a2.34,2.34,0,0,0,.37-.06c4.7-2,9.4-3.91,14.12-5.85a.76.76,0,0,0,.52-.86q0-11.38,0-22.76a.9.9,0,0,0-.55-.94c-8-4.15-16-8.32-24-12.46a1.72,1.72,0,0,0-1.28,0c-3.21,1.3-6.4,2.66-9.59,4Zm-20.2,8.48a4.06,4.06,0,0,0,.36.24q10.89,5.47,21.79,10.91a1.78,1.78,0,0,0,1.29,0c3.67-1.48,7.32-3,11-4.53l4-1.69c-.26-.16-.39-.27-.54-.34q-10.91-5.42-21.83-10.81a1.52,1.52,0,0,0-1.11,0c-2.91,1.18-5.8,2.41-8.7,3.63Zm39.44-16.56c.22.16.28.22.36.26q10.84,5.67,21.69,11.31a1.4,1.4,0,0,0,1,0c4-1.66,8-3.35,12-5,.22-.09.42-.22.72-.39-7.64-3.8-15.15-7.54-22.66-11.26a1.33,1.33,0,0,0-1,0c-1.81.73-3.6,1.49-5.4,2.25Z"/><path class="cls-2" d="M147.53,138.77c1.19.75,1.7.73,2.74-.06a6.28,6.28,0,0,1,5.18-1.23,4.53,4.53,0,0,1,3.69,4.2,1.91,1.91,0,0,0,.52,1.08,1.89,1.89,0,0,1,.38,2.38,2,2,0,0,1-2.28.84,3.66,3.66,0,0,0-1.28,0,16.88,16.88,0,0,1-3.06.36,1.79,1.79,0,0,1-1.64-2.3,1.84,1.84,0,0,1,2.46-1.3c.66.22,1,0,1.19-.56s-.21-.87-.69-1.08a1.81,1.81,0,0,0-2,.42,6.28,6.28,0,0,1-4.65,1.37,4.5,4.5,0,0,1-4.19-4.55,2.13,2.13,0,0,0-.41-1.13,1.9,1.9,0,0,1-.08-2.34,1.8,1.8,0,0,1,2.25-.6,2,2,0,0,0,1.72.11,2.68,2.68,0,0,1,1.12-.1,1.81,1.81,0,0,1,1.75,1.82,1.79,1.79,0,0,1-1.69,1.87C148,138,147.64,138.14,147.53,138.77Z"/><circle class="cls-3" cx="84.38" cy="83.28" r="54.36"/><circle class="cls-2" cx="84.49" cy="83.42" r="4.59"/><rect class="cls-2" x="82.92" y="41.26" width="2.92" height="37.57" rx="0.23" ry="0.23"/><rect class="cls-2" x="61.73" y="74.03" width="2.92" height="37.57" rx="0.23" ry="0.23" transform="translate(4.46 188.52) rotate(-114.22)"/></g></g></svg>