<svg xmlns="http://www.w3.org/2000/svg" viewBox="0 0 224 224"><defs><style>.cls-1{fill:#1b75bc;}.cls-2{fill:none;stroke:#f1f2f2;stroke-width:4px;}.cls-2,.cls-3{stroke-miterlimit:10;}.cls-3{fill:#d1d3d4;stroke:#fff;stroke-width:0.3px;}</style></defs><title>member_analytics</title><g id="Layer_2" data-name="Layer 2"><g id="Layer_1-2" data-name="Layer 1"><circle class="cls-1" cx="112" cy="112" r="112"/><path class="cls-2" d="M141.82,73.16c0,18.29-7.35,34.15-18.17,42.48a27.43,27.43,0,0,1-34.88,0C78,107.31,70.6,91.45,70.6,73.16c0-27,15.92-48.8,35.61-48.8S141.82,46.18,141.82,73.16Z"/><path class="cls-2" d="M171.53,156.9a32.56,32.56,0,0,1-.3,4.25h-130a32.63,32.63,0,0,1-.3-4.25c0-19.69,20.24-36.28,47.88-41.26a27.43,27.43,0,0,0,34.88,0C151.3,120.62,171.53,137.21,171.53,156.9Z"/><circle class="cls-3" cx="154.15" cy="143.11" r="36.52"/><path class="cls-1" d="M175.4,121.92a2.12,2.12,0,0,1-.32,2.1l-29.72,34.22a.22.22,0,0,1-.15.13,1.17,1.17,0,0,1-.49.4c-.22.09-.47.13-.64.2a2.16,2.16,0,0,1-1.15-.25,1.09,1.09,0,0,1-.44-.28c0-.06-.08,0,0-.11l-9.66-9.23a2,2,0,0,1,0-2.81,2,2,0,0,1,.72-.49,1.9,1.9,0,0,1,2.15.43l8.07,7.78,28.41-32.63a2,2,0,0,1,2.82-.18A2.14,2.14,0,0,1,175.4,121.92Z"/></g></g></svg>