<svg xmlns="http://www.w3.org/2000/svg" viewBox="0 0 224 224"><defs><style>.cls-1,.cls-2{fill:#1b75bc;}.cls-2{stroke:#f1f2f2;}.cls-2,.cls-3,.cls-4{stroke-miterlimit:10;}.cls-2,.cls-3{stroke-width:3px;}.cls-3{fill:none;stroke:#e6e7e8;}.cls-4{fill:#d1d3d4;stroke:#fff;stroke-width:0.3px;}.cls-5{fill:#f1f2f2;}</style></defs><title>mobile_payment</title><g id="Layer_2" data-name="Layer 2"><g id="Layer_1-2" data-name="Layer 1"><circle class="cls-1" cx="112" cy="112" r="112"/><rect class="cls-2" x="57.68" y="22.99" width="112.64" height="178.01" rx="18.59" ry="18.59"/><rect class="cls-3" x="72.94" y="38.04" width="82.12" height="132.31" rx="2.2" ry="2.2"/><circle class="cls-4" cx="57.68" cy="155.93" r="36.52"/><path class="cls-1" d="M78.92,134.74a2.12,2.12,0,0,1-.32,2.1L48.88,171.06a.22.22,0,0,1-.15.13,1.17,1.17,0,0,1-.49.4c-.22.09-.47.13-.64.2a2.16,2.16,0,0,1-1.15-.25,1.09,1.09,0,0,1-.44-.28c0-.06-.08,0,0-.11l-9.66-9.23a2,2,0,0,1,0-2.81,2,2,0,0,1,.72-.49,1.9,1.9,0,0,1,2.15.43l8.07,7.78L75.61,134.2a2,2,0,0,1,2.82-.18A2.14,2.14,0,0,1,78.92,134.74Z"/><circle class="cls-3" cx="114" cy="186.21" r="8.09"/><path class="cls-5" d="M114.06,94.26l-3,1.25c-2.37,1-4.74,2-7.1,3a1.54,1.54,0,0,1-1.4,0L87.25,90.76a1.24,1.24,0,0,1-.81-.9,1,1,0,0,1,.43-1.07,1.1,1.1,0,0,1,1.24-.05l6.83,3.43q4.05,2,8.11,4.06a.75.75,0,0,0,.56,0q5.08-2.11,10.14-4.25c.13-.05.29-.21.3-.33,0-.81,0-1.62,0-2.5L111,90.46c-2.32,1-4.65,1.92-7,2.9a1.63,1.63,0,0,1-1.49-.05q-7.4-3.73-14.8-7.44l-.64-.31a1.07,1.07,0,0,1-.63-1.11,1,1,0,0,1,.71-1l8.18-3.41Q107.46,75,119.6,69.88a2,2,0,0,1,1.86.08c4.75,2.4,9.52,4.76,14.28,7.13.36.18.73.36,1.1.53a1.12,1.12,0,0,1-.05,2.12c-3.07,1.28-6.13,2.58-9.2,3.86a.63.63,0,0,0-.47.71c0,.69,0,1.38,0,2.16l.55-.21,8.23-3.42a1.1,1.1,0,0,1,1.55.49,1.09,1.09,0,0,1-.68,1.51l-6.5,2.71c-.94.39-1.87.77-2.8,1.18-.14.06-.33.23-.33.36,0,.86,0,1.72,0,2.66l1.49-.61L136,88.06a1.09,1.09,0,0,1,1.27.18.94.94,0,0,1,.25,1.16,1.77,1.77,0,0,1-.79.71q-4.52,1.94-9.06,3.81a.66.66,0,0,0-.5.74c0,.67,0,1.35,0,2.09l.57-.21,8.09-3.36a2,2,0,0,1,.78-.18,1.05,1.05,0,0,1,1,.93,1.06,1.06,0,0,1-.7,1.17c-1.54.65-3.08,1.29-4.63,1.93L104,108.75a1.64,1.64,0,0,1-1.49,0q-7.64-3.86-15.3-7.69a1.22,1.22,0,0,1-.79-.91,1,1,0,0,1,.45-1.06,1.09,1.09,0,0,1,1.2,0l5.26,2.64c3.21,1.61,6.43,3.23,9.65,4.83a1,1,0,0,0,.7,0q5-2.05,10-4.15c.14-.06.34-.23.34-.35,0-.79,0-1.58,0-2.44l-1.74.7c-2.79,1.16-5.59,2.31-8.37,3.48a1.55,1.55,0,0,1-1.4-.05L87.2,96a1.1,1.1,0,1,1,1-2q7.25,3.63,14.49,7.28a1.41,1.41,0,0,0,1.32.07c3.2-1.35,6.42-2.68,9.64-4a.59.59,0,0,0,.45-.66C114,95.91,114.06,95.12,114.06,94.26ZM101.88,79.71l.55.3,13.12,6.5a1.16,1.16,0,0,1,.7,1.13c0,2.37,0,4.73,0,7.1q0,1.85,0,3.7c0,.92,0,1.85,0,2.79a1.36,1.36,0,0,0,.22,0l8.19-3.39a.44.44,0,0,0,.3-.5q0-6.6,0-13.2a.52.52,0,0,0-.32-.55c-4.63-2.41-9.26-4.83-13.89-7.23a1,1,0,0,0-.74,0c-1.86.76-3.71,1.54-5.56,2.32ZM90.17,84.62l.21.14q6.32,3.17,12.64,6.33a1,1,0,0,0,.75,0c2.13-.86,4.24-1.75,6.36-2.63l2.32-1c-.15-.1-.23-.16-.31-.2Q105.81,84.12,99.47,81a.88.88,0,0,0-.64,0c-1.69.69-3.37,1.4-5,2.1ZM113,75l.21.15q6.29,3.29,12.58,6.56a.81.81,0,0,0,.6,0c2.32-1,4.64-1.95,7-2.93.13-.05.24-.13.42-.22-4.43-2.21-8.78-4.37-13.14-6.53a.77.77,0,0,0-.56,0c-1,.42-2.09.87-3.13,1.3Z"/><path class="cls-5" d="M110.64,80.92c.69.43,1,.42,1.59,0a3.64,3.64,0,0,1,3-.71,2.63,2.63,0,0,1,2.14,2.44,1.11,1.11,0,0,0,.3.62,1.09,1.09,0,0,1,.22,1.38,1.15,1.15,0,0,1-1.32.49,2.12,2.12,0,0,0-.74,0,9.79,9.79,0,0,1-1.78.21,1,1,0,0,1-1-1.34,1.07,1.07,0,0,1,1.43-.75c.39.13.57,0,.69-.33s-.12-.5-.4-.63a1.05,1.05,0,0,0-1.17.24,3.64,3.64,0,0,1-2.7.79,2.61,2.61,0,0,1-2.43-2.64,1.23,1.23,0,0,0-.24-.66,1.1,1.1,0,0,1,0-1.36,1,1,0,0,1,1.31-.35,1.13,1.13,0,0,0,1,.06,1.55,1.55,0,0,1,.65-.06,1.05,1.05,0,0,1,1,1.06,1,1,0,0,1-1,1.09C110.93,80.49,110.71,80.55,110.64,80.92Z"/></g></g></svg>