<svg xmlns="http://www.w3.org/2000/svg" viewBox="0 0 224 224"><defs><style>.cls-1{fill:#1b75bc;}.cls-2{fill:#fff;}</style></defs><title>policy</title><g id="Layer_2" data-name="Layer 2"><g id="Layer_1-2" data-name="Layer 1"><circle class="cls-1" cx="112" cy="112" r="112"/><path class="cls-2" d="M123.81,20.53a12.15,12.15,0,0,0,1.1,1q16.29,11.85,32.61,23.66a3.77,3.77,0,0,1,1.77,3.5c-.09,4.24,0,8.49,0,13.11-1.79-1.11-3.37-2-4.87-3.07-.28-.19-.38-.81-.39-1.23,0-2.18-.06-4.36,0-6.54a3.13,3.13,0,0,0-1.46-2.87q-14.44-10.43-28.83-20.92a2.73,2.73,0,0,0-2.88-.38Q96.47,36.16,72.08,45.45a2.64,2.64,0,0,0-2,2.88c.09,2.64,0,5.29,0,7.94,0,.91-.21,1.42-1.16,1.66-1.3.32-2.56.81-4.08,1.3,0-.65-.11-1.18-.11-1.71,0-4.15.06-8.3,0-12.45A3,3,0,0,1,67,41.73Q94,31.5,120.85,21.17c.48-.18.93-.43,1.4-.64Z"/><path class="cls-2" d="M170.68,169.87c1.3,0,2.38,0,3.46,0A2.26,2.26,0,0,1,176.6,172c.14,2.1,0,4.22,0,6.4H47.38c0-2.21-.13-4.43,0-6.62.1-1.27,1.17-1.9,2.47-1.92,1.13,0,2.26,0,3.61,0,0-.67,0-1.22,0-1.77q0-50.22,0-100.43c0-2.27.33-2.72,2.54-3.45q32.41-10.63,64.8-21.29a4.38,4.38,0,0,1,4.07.46q22,13.6,44,27.07a3.41,3.41,0,0,1,1.82,3.28q0,47.26,0,94.51C170.68,168.71,170.68,169.17,170.68,169.87ZM122.87,48.34V169.79h42.55v-1.56q0-45.76,0-91.52a3.49,3.49,0,0,0-1.89-3.38q-18.65-11.39-37.23-22.88Zm-15.5,41.31h0c0-1.24,0-2.49,0-3.73,0-2.31-1.09-3.25-3.35-2.72Q87.72,87.06,71.43,91a2.25,2.25,0,0,0-1.94,2.29c0,2.54-.07,5.08,0,7.62a2.23,2.23,0,0,0,2.9,2.16c1.32-.26,2.63-.54,4-.82l28.87-6a2.36,2.36,0,0,0,2.13-2.6C107.34,92.35,107.37,91,107.37,89.65Zm0-20c0-1.3,0-2.59,0-3.89,0-2.15-1.29-3.1-3.36-2.49-10.82,3.18-21.62,6.4-32.44,9.57a2.57,2.57,0,0,0-2.11,2.81c0,2,0,3.94,0,5.91,0,2.72,1.07,3.51,3.73,2.85l12-3,19.56-4.95c2.19-.55,2.57-1.06,2.58-3.36C107.38,71.91,107.38,70.77,107.38,69.63Zm0,40h0c0-1.19,0-2.38,0-3.58,0-2.54-1-3.35-3.54-2.88s-5.08,1-7.62,1.45L72,109.11c-1.89.35-2.46,1-2.48,2.94s0,3.94,0,5.91c0,2.33,1.08,3.13,3.37,2.79,6.1-.89,12.2-1.75,18.29-2.61,4.61-.65,9.23-1.28,13.84-2,1.78-.26,2.41-1,2.42-2.81C107.41,112.14,107.4,110.9,107.4,109.65Zm0,19.93c0-1,0-2,0-3,0-3.26-.85-3.95-4-3.49-3.69.53-7.39,1-11.09,1.47-6.73.88-13.46,1.73-20.18,2.64-2.08.28-2.56.91-2.57,3s0,3.94,0,5.91c0,2.15,1,2.92,3.16,2.73,6.61-.6,13.22-1.15,19.83-1.73,4.18-.37,8.37-.71,12.54-1.14,1.75-.18,2.32-.92,2.34-2.67C107.42,132.07,107.4,130.83,107.4,129.58Zm-19,26.83v0c5.55-.2,11.1-.39,16.64-.6a2.16,2.16,0,0,0,2.3-2.37q.06-4,0-8.09a2.23,2.23,0,0,0-2.55-2.44c-1.4,0-2.79.2-4.19.31l-28.7,2.18c-1.71.13-2.42.85-2.46,2.57s0,3.74,0,5.6c0,2.75.79,3.47,3.57,3.37Z"/></g></g></svg>