<svg xmlns="http://www.w3.org/2000/svg" viewBox="0 0 502 302"><defs><style>.cls-1{fill:#a7a9ac;}.cls-2{fill:#fbab2b;}.cls-3{fill:#f15b2b;}.cls-4{fill:#fcb12e;}.cls-5{fill:#faa325;}.cls-6{fill:#fcb431;}.cls-7{fill:#231f20;}.cls-8{fill:#8d6759;}.cls-9{fill:#fff;}.cls-10,.cls-11{fill:#808285;}.cls-11{stroke:#fff;}.cls-11,.cls-12{stroke-miterlimit:10;}.cls-12{fill:none;stroke:#808285;stroke-width:2px;}</style></defs><title>reflex</title><g id="Layer_2" data-name="Layer 2"><g id="Layer_1-2" data-name="Layer 1"><path class="cls-1" d="M205.65,119.22a1.54,1.54,0,0,1,.3-.53,3.17,3.17,0,0,1,.83-.5,3.6,3.6,0,0,1,.78-.43.49.49,0,0,1,.43.21l.06.27.13.5a1.1,1.1,0,0,0,0,.27.54.54,0,0,0,.18.34,4.68,4.68,0,0,0,.86-.4l.67-.22.67-.45.43-.18.38-.18.35.06h0a11.27,11.27,0,0,0,1.09-.34,2.17,2.17,0,0,1,.48,0,.69.69,0,0,1,.38.08l.33.32.22,0a3.89,3.89,0,0,0,.46-.22l.08,0a.78.78,0,0,1,.48.24,1.29,1.29,0,0,1,.37.69,8.67,8.67,0,0,1-1,.75q-.35.45-.51.45t-.67-.51l-.48,0a2.19,2.19,0,0,1-.69-.19,3.38,3.38,0,0,0-.78-.19.61.61,0,0,1-.53.35,3.86,3.86,0,0,0-.56.06l-.64.19a.7.7,0,0,1-.26-.11q-.32.29-1.12.86a1.46,1.46,0,0,0-.5,1.29v.56c0,.19,0,.35,0,.48s-.12.29-.37.53a.8.8,0,0,1,.27.5,1.41,1.41,0,0,1,0,.27l.24.06,0,.48.08,2.86-.06.18-.42.22a2.69,2.69,0,0,0-.89.24,3.24,3.24,0,0,0,1,.21l.27-.06a3.09,3.09,0,0,1,.16.72.64.64,0,0,1-.37.58,3.09,3.09,0,0,1-.82.16,3.85,3.85,0,0,0-.69.4.4.4,0,0,1-.22.06q-.38,0-.38-.34a7.65,7.65,0,0,1,.24-.91.62.62,0,0,0,0-.19s0-.26-.08-.72a1.53,1.53,0,0,1,.06-.27l.38-.11c0-.1,0-.18,0-.26a.84.84,0,0,0-.24-.5v-.4a7.06,7.06,0,0,0-.1-.75q0-.53,0-.9.59-.21.59-.51a1,1,0,0,0,0-.26,1.38,1.38,0,0,1-.32,0,.47.47,0,0,1-.27-.13v-1.6c0-.08,0-.18,0-.29v-.26a1.71,1.71,0,0,1,.21-.69.68.68,0,0,1-.24-.3s0-.38-.06-1A1.43,1.43,0,0,0,205.65,119.22Z"/><path class="cls-1" d="M226,118.33l.51-.32a3.5,3.5,0,0,0,.34.37,1.91,1.91,0,0,0,.34.16,14.4,14.4,0,0,1,1.37,1.34,2.49,2.49,0,0,1,.53.75q.13.3.27.74.1.22.22.57l-.11.11a3,3,0,0,1-.48-.14l-.61.22-.54-.1-.48.13a11.43,11.43,0,0,0-1-.7,3.25,3.25,0,0,0-.75.65l-1.09-.19a4.53,4.53,0,0,0-.61,0l-.08-.06q-.25,0-1.39,0l-.59.06-.74.06-.75.13-.67,0a10,10,0,0,1-1.26.34,4,4,0,0,1-.16.75,1.66,1.66,0,0,1-.38.53q.51.35.54.5a7.19,7.19,0,0,0,.3,1.37l.29.16-.08.59.5.13a1.72,1.72,0,0,0,.42.88,1.57,1.57,0,0,0,.8.29q.08.5.25.59a1.25,1.25,0,0,0,.58.13l.27.42.3,0a6.06,6.06,0,0,1,1,.4.91.91,0,0,0,.42.1,3.45,3.45,0,0,0,.82-.19l1-.11.78-.22a3.46,3.46,0,0,0,.75-.1,8.33,8.33,0,0,0,1-.56,3.63,3.63,0,0,0,.82-.59,5.48,5.48,0,0,0,.54-.77.5.5,0,0,1,.45-.19.81.81,0,0,1,.42.21,3.15,3.15,0,0,1-.21.75q-.67,1.13-.85,1.5a.88.88,0,0,0-.35-.1,1.67,1.67,0,0,0-.53.32,1.47,1.47,0,0,1-.72.22,11.7,11.7,0,0,1-1.37.32,6.82,6.82,0,0,0-.83.11l-.51.16-.94-.14-.56.1-.27,0a5.07,5.07,0,0,1-.59,0q-.21,0-1.17-.11l-.3,0-.33-.21q-1.2-.37-1.33-.43a6.53,6.53,0,0,1-.54-.48l-.56-.35q-.45-.27-.48-.42l-.29-.51a4,4,0,0,0-.54-.61.86.86,0,0,0,.16-.38,9.7,9.7,0,0,0-.42-.89,4.44,4.44,0,0,1-.11-1.36,4.9,4.9,0,0,1,.22-1.15,3.23,3.23,0,0,1,.27-.72l.54-.64.35-.75,1.25-1.15,1.17-.72,1.18-.81.43-.08,1.21-.38.78-.06a8.07,8.07,0,0,1,1-.35A1.2,1.2,0,0,1,226,118.33Zm-1.85,2.4.27.34.43-.08a4.25,4.25,0,0,0,.86-.22l.91.08s0-.05.08-.16a1.11,1.11,0,0,0,0-.16.58.58,0,0,0-.19-.35l-.16-.19c-.26-.34-.42-.5-.48-.48l-.53-.26a1.19,1.19,0,0,1-.3-.37,13.34,13.34,0,0,0-1.58-.06l-.32,0-.54.32a7.07,7.07,0,0,1-.88.22q-.67.24-1.18.46-.11.08-.62.54l-.37.29v.1l0,0,1.17.46.35.35.62-.75a.27.27,0,0,1,.18-.06l.78.21h0a5.47,5.47,0,0,0,.91-.16A2.89,2.89,0,0,1,224.1,120.72Z"/><path class="cls-1" d="M233.8,118.39l.66-.42q0-.27.06-.7l0-1.6a2.33,2.33,0,0,1,.32-1,1.36,1.36,0,0,1-.42-.4s0-.58,0-1.65l0-1.15,0-.78a1.26,1.26,0,0,1,.24-.67,3.29,3.29,0,0,0,.43-.8,1.82,1.82,0,0,0,0-.22l-.24-.11a4.66,4.66,0,0,1,1.05-2.3,3.9,3.9,0,0,1,.7-.83l1-.85q.27-.19,1.5-.85l.34-.24.48-.06.88-.21.51.14a.64.64,0,0,0,.21,0l.26,0,.38,0a1.42,1.42,0,0,1,1.09.51h.4a.58.58,0,0,1-.11.37l-.35.42a2.87,2.87,0,0,1-.32.42,3.56,3.56,0,0,1-.86.43l-1.07-.61a2.17,2.17,0,0,0-1.09-.35,3.7,3.7,0,0,0-1.44.5,1.44,1.44,0,0,0-.59.53,8.82,8.82,0,0,0-.86,2l-.17.35-.22.88a2.09,2.09,0,0,0-.29.61q0,.18.32.27a1.84,1.84,0,0,0-.11.64q0,.14,0,.75l0,1.18a3.87,3.87,0,0,1-.3.72.86.86,0,0,0,0,.3,1.79,1.79,0,0,0,.27.75,15.21,15.21,0,0,1,.08,2.38q0,.27-.48.72v.13a.83.83,0,0,0,.37.21q.29.1.35.86a2,2,0,0,0,.58.46l.7.19.93.26,1.12-.43,1.18-.26a3,3,0,0,1,.85-.46,5.58,5.58,0,0,1,.61-.08,1.1,1.1,0,0,1,.33.62q-.91.54-1.12.69a2.76,2.76,0,0,0-.48.49.27.27,0,0,1-.21.11,1.88,1.88,0,0,1-.54-.13,1.9,1.9,0,0,0-.61-.1,6.19,6.19,0,0,0-.88.11,3.4,3.4,0,0,1-.53,0,4.7,4.7,0,0,1-.93-.11,6.46,6.46,0,0,0-.77-.14.49.49,0,0,0-.34.18.38.38,0,0,0-.14.33l.14.7.1,1.57a.52.52,0,0,1-.08.22q-.34.11-.34.35a.71.71,0,0,0,.35.56q0,.43,0,.56a16,16,0,0,0,.24,2.08l-.16.16-.27-.06-.27.26a3.65,3.65,0,0,0,.27.34q.29.34.27.45v0l0,.51v0a6,6,0,0,0,.11.77l-.24.13v.37a11.27,11.27,0,0,0-1.21.53,2.24,2.24,0,0,1-.62.14V130a.45.45,0,0,1-.66,0,3,3,0,0,0,.13-.59l.06-.37.08-.46a4,4,0,0,0,.24-1q0-.16,0-.91a.68.68,0,0,0,.35-.51,3.12,3.12,0,0,0-.13-.73,4.23,4.23,0,0,1-.16-.85l0-.51V121.2q0-.54.16-.59a2.55,2.55,0,0,0,.59-.26v-.22l-.14-.14a1,1,0,0,1-.29,0c-.12,0-.19,0-.22-.06l-.54-.73-.78-.13L233,119q-.4,0-1.21.88a.38.38,0,0,1-.08-.22,4.09,4.09,0,0,1,.58-.91q.37-.48.7-.48A6.45,6.45,0,0,1,233.8,118.39Z"/><path class="cls-1" d="M245,104.33a1.25,1.25,0,0,0,.4-.18,3.39,3.39,0,0,1,.59-.34,2.28,2.28,0,0,0,.8-.62h.14q.37,0,.37.43v0a1.46,1.46,0,0,1,0,.21.86.86,0,0,0,0,.1l.16.56-.06,1.34q0,1.29,0,1.36a1.09,1.09,0,0,1-.27.43l-.1.51.33,0a2.79,2.79,0,0,1,.1.57.94.94,0,0,1-.33.64q0,.45,0,.58a.48.48,0,0,0,.21.35c0,.2,0,.35,0,.45l-.08,2v2a1.63,1.63,0,0,1-.29.62.67.67,0,0,0-.1.32s.07.29.22.8v.08a.82.82,0,0,1-.34.54l.35.77.18.13v1l0,3.59-.29.18a4.56,4.56,0,0,1,0,.58s0,.3-.1.77v.43l.5.06,0,.11.29,2.6,0,.67.1.48a3.55,3.55,0,0,0-.32.56.42.42,0,0,0,.08.21,6.67,6.67,0,0,0-.89.48l-.37.21-.31,0a1.14,1.14,0,0,1-.62.3.74.74,0,0,1-.22-.06c0-.16,0-.29,0-.4a2.93,2.93,0,0,0-.06-.5,1.18,1.18,0,0,1,0-.26,4.4,4.4,0,0,1,.13-.5l0-.35.06-.48,0-.3,1.34-.86-1.29-.89,0-.21.11-.58.14-.4a5.74,5.74,0,0,0-.29-.58.39.39,0,0,1,0-.18,6.16,6.16,0,0,1,.24-.67,2.76,2.76,0,0,0,.19-.86l-.37-.19v-.54q0-.37,0-.48s.06-.27.18-.7a1.27,1.27,0,0,0,0-.26q0-.56-.06-1.25a3.61,3.61,0,0,1,0-.45,2.5,2.5,0,0,1,.25-.72,3.51,3.51,0,0,1,.1-.78l-.33-.4V113a.82.82,0,0,0,.27-.32c.06-.18.15-.39.26-.62a2.12,2.12,0,0,1-.54-.29,3.38,3.38,0,0,0,.11-.56c0-.11-.1-.21-.29-.32a2.8,2.8,0,0,1,0-.58l0-.65a1.3,1.3,0,0,1,.22-.5.21.21,0,0,0,0-.13,2.5,2.5,0,0,0-.09-.31,2.07,2.07,0,0,0-.1-.3l0-.1,1.2-.85-.82-1.1a3.67,3.67,0,0,1-.62-1,2.9,2.9,0,0,1,.1-.53A3.42,3.42,0,0,0,245,104.33Z"/><path class="cls-1" d="M260.74,118.33l.51-.32a3.5,3.5,0,0,0,.34.37,1.91,1.91,0,0,0,.34.16,14.4,14.4,0,0,1,1.37,1.34,2.49,2.49,0,0,1,.53.75q.13.3.27.74.1.22.22.57l-.11.11a3,3,0,0,1-.48-.14l-.61.22-.54-.1-.48.13a11.43,11.43,0,0,0-1-.7,3.25,3.25,0,0,0-.75.65l-1.09-.19a4.53,4.53,0,0,0-.61,0l-.08-.06q-.25,0-1.39,0l-.59.06-.74.06-.75.13-.67,0a10,10,0,0,1-1.26.34,4,4,0,0,1-.16.75,1.66,1.66,0,0,1-.38.53q.51.35.54.5a7.19,7.19,0,0,0,.3,1.37l.29.16-.08.59.5.13a1.72,1.72,0,0,0,.42.88,1.57,1.57,0,0,0,.8.29q.08.5.25.59a1.25,1.25,0,0,0,.58.13l.27.42.3,0a6.06,6.06,0,0,1,1,.4.91.91,0,0,0,.42.1,3.45,3.45,0,0,0,.82-.19l1-.11.78-.22a3.46,3.46,0,0,0,.75-.1,8.33,8.33,0,0,0,1-.56,3.63,3.63,0,0,0,.82-.59,5.48,5.48,0,0,0,.54-.77.5.5,0,0,1,.45-.19.81.81,0,0,1,.42.21,3.15,3.15,0,0,1-.21.75q-.67,1.13-.85,1.5a.88.88,0,0,0-.35-.1,1.67,1.67,0,0,0-.53.32,1.47,1.47,0,0,1-.72.22,11.7,11.7,0,0,1-1.37.32,6.82,6.82,0,0,0-.83.11l-.51.16-.94-.14-.56.1-.27,0a5.07,5.07,0,0,1-.59,0q-.21,0-1.17-.11l-.3,0-.33-.21q-1.2-.37-1.33-.43a6.53,6.53,0,0,1-.54-.48l-.56-.35q-.45-.27-.48-.42l-.29-.51a4,4,0,0,0-.54-.61.86.86,0,0,0,.16-.38,9.7,9.7,0,0,0-.42-.89,4.44,4.44,0,0,1-.11-1.36,4.9,4.9,0,0,1,.22-1.15,3.23,3.23,0,0,1,.27-.72l.54-.64.35-.75,1.25-1.15,1.17-.72,1.18-.81.43-.08,1.21-.38.78-.06a8.07,8.07,0,0,1,1-.35A1.2,1.2,0,0,1,260.74,118.33Zm-1.85,2.4.27.34.43-.08a4.25,4.25,0,0,0,.86-.22l.91.08s0-.05.08-.16a1.11,1.11,0,0,0,0-.16.58.58,0,0,0-.19-.35l-.16-.19c-.26-.34-.42-.5-.48-.48l-.53-.26a1.19,1.19,0,0,1-.3-.37,13.34,13.34,0,0,0-1.58-.06l-.32,0-.54.32a7.07,7.07,0,0,1-.88.22q-.67.24-1.18.46-.11.08-.62.54l-.37.29v.1l0,0,1.17.46.35.35.62-.75a.27.27,0,0,1,.18-.06l.78.21h0a5.47,5.47,0,0,0,.91-.16A2.89,2.89,0,0,1,258.88,120.72Z"/><path class="cls-1" d="M271.2,123.18l.1-.58a1.73,1.73,0,0,1-.37,0q-.14,0-.43-.34a7.9,7.9,0,0,0-1.2-.94q-.08-.67-.08-.7a.39.39,0,0,0-.14-.21l-.53.08c-.2-.21-.34-.35-.42-.42a6.66,6.66,0,0,1-1-.94,5.15,5.15,0,0,1,1-.88,7.31,7.31,0,0,1,1.28-.4,1.71,1.71,0,0,0,.21.4l.46.5.51.67.32.4a3.34,3.34,0,0,0,.35.69.88.88,0,0,0,.53.16,6,6,0,0,0,.59.64,4.17,4.17,0,0,1,.69.86,1.63,1.63,0,0,1-.06.42.87.87,0,0,0,.56.35,6.07,6.07,0,0,0,.72-.93q.83,0,.83-.62c0-.09,0-.19,0-.3l1-1v-.18a.85.85,0,0,1,0-.27l.4-.51a2.44,2.44,0,0,0,.22-.37,2.27,2.27,0,0,1,.24-.39,3,3,0,0,1,.4-.31,2.2,2.2,0,0,1,.94-.51c.25,0,.37.12.37.35a.92.92,0,0,1-.11.4s-.25.34-.69.88l-.45.7-.62.62-.62.86-.43.4-.4.45q-1.29,1.2-1.26,1.65l.56,0,.27.38h.3q.56.62,1.44,1.47a6.44,6.44,0,0,0,1.05.85l-.08.48a.85.85,0,0,1,.58.27l.26-.1a6.31,6.31,0,0,0,.83.78,6.45,6.45,0,0,1,.89.72,2.68,2.68,0,0,1,.19.45,2.79,2.79,0,0,1-.78.73,5.64,5.64,0,0,0-.51.3,1.39,1.39,0,0,1-.56.29.47.47,0,0,1-.33-.21l-1.81-2-.53-1.1-.38.06a5.35,5.35,0,0,1-.69-.65,3.81,3.81,0,0,0-.73-.73l-.5-.3a1.82,1.82,0,0,0-.38-.88h-.27a1.06,1.06,0,0,0-.19.38,1.4,1.4,0,0,1-.11.3l-.59.5a5,5,0,0,1-1.44,1.44,2.79,2.79,0,0,0-.78,1.12,9.82,9.82,0,0,1-.74,1,3.25,3.25,0,0,1-.81.61l-.11.37a.48.48,0,0,1-.32.14q-.85,0-.85-.61a.92.92,0,0,1,.27-.53,11.48,11.48,0,0,1,1.87-1.76l.36-.29.93-1.21.4-.35a4.3,4.3,0,0,0,.45-.45,6.36,6.36,0,0,1,.43-.51q.43-.43.43-.61t-.35-.5A5.12,5.12,0,0,1,271.2,123.18Z"/><path class="cls-1" d="M198,167.78q-.56,2.87-1,6.22a72.41,72.41,0,0,1-14.31,1.58,35.72,35.72,0,0,1-11.18-1.76,25.12,25.12,0,0,1-9.37-5.45,21.93,21.93,0,0,1-5.81-8.68,31,31,0,0,1-1.82-10.7,34.79,34.79,0,0,1,2-11.77,24.55,24.55,0,0,1,6.12-9.61,26.16,26.16,0,0,1,9.91-5.91,37.69,37.69,0,0,1,12.15-2,65.84,65.84,0,0,1,13.6,1.43q0,2,.44,6.14a52.62,52.62,0,0,0-7.49-1.8,40.32,40.32,0,0,0-5.87-.46,28.27,28.27,0,0,0-9,1.45,20.33,20.33,0,0,0-7.65,4.62,20.86,20.86,0,0,0-5.09,7.79,26.72,26.72,0,0,0-1.76,9.61,27.28,27.28,0,0,0,1.41,8.8,17.65,17.65,0,0,0,4.32,7,19.71,19.71,0,0,0,6.92,4.4,25.1,25.1,0,0,0,9,1.53A50.63,50.63,0,0,0,198,167.78Z"/><path class="cls-1" d="M220,133.65a26.16,26.16,0,0,1,7.93,1.19,16.83,16.83,0,0,1,6.52,3.77,16.41,16.41,0,0,1,4.18,6.5,24.06,24.06,0,0,1,1.43,8.28,26.93,26.93,0,0,1-1.53,9,21.15,21.15,0,0,1-4.28,7.33,16.35,16.35,0,0,1-6.74,4.42,25.48,25.48,0,0,1-8.54,1.41,24.91,24.91,0,0,1-8-1.27,16.88,16.88,0,0,1-6.52-4,17.45,17.45,0,0,1-4.18-6.6,23.66,23.66,0,0,1-1.43-8.19,25.41,25.41,0,0,1,2.62-11.63,17,17,0,0,1,7.69-7.73A23.8,23.8,0,0,1,220,133.65Zm-.18,5a14.2,14.2,0,0,0-7.42,2,12,12,0,0,0-5,6.08,23.67,23.67,0,0,0-1.62,8.86,20.1,20.1,0,0,0,1.35,7.55,11.56,11.56,0,0,0,4.43,5.41,13.08,13.08,0,0,0,7.44,2.06,15.65,15.65,0,0,0,5.62-1,11.29,11.29,0,0,0,4.63-3.35,15,15,0,0,0,2.93-5.73,26.26,26.26,0,0,0,1-7.12,21.91,21.91,0,0,0-1-6.54,10.84,10.84,0,0,0-7.34-7.49A17.11,17.11,0,0,0,219.81,138.69Z"/><path class="cls-1" d="M241.32,174.72q1.9-24.85,2-40.15l3.57,0q1.31,0,3.45,0l-.52,7.93q1-1.66,1.58-2.56a12.61,12.61,0,0,1,1.59-1.88,13.23,13.23,0,0,1,5.51-3.27,24,24,0,0,1,3.71-.85,26.06,26.06,0,0,1,10.33.55,12,12,0,0,1,5.21,2.72,9.34,9.34,0,0,1,2.74,4.22,17.65,17.65,0,0,1,.69,5q0,.52,0,2t-.16,3.84l-.79,16.61q-.08,2.38-.12,5.83-1.79-.08-3.37-.08-1.95,0-3.65.08.4-4.8.6-9.24l.52-9.24q.24-4.76.24-7.17a11.19,11.19,0,0,0-1.19-5.57,7.72,7.72,0,0,0-3.81-3.21,14.69,14.69,0,0,0-5.87-1.13,14,14,0,0,0-7.9,2.18,13.2,13.2,0,0,0-4.68,5.75,26.91,26.91,0,0,0-1.63,7.85q-.6,6.22-.85,19.78-2.21-.08-3.43-.08T241.32,174.72Z"/><path class="cls-1" d="M313.8,168.69q-.08.64-.42,2.36t-.57,3.39a40.44,40.44,0,0,1-5.57.91q-2.68.24-4.7.24a26,26,0,0,1-7.91-1.15,15.59,15.59,0,0,1-10.29-10.33,26.44,26.44,0,0,1-1.27-8.22,29.88,29.88,0,0,1,2.06-11.06,17.17,17.17,0,0,1,6.5-8.21q4.44-3,12.09-3a40.34,40.34,0,0,1,11,1.51q.24,3.37.44,5.55A50,50,0,0,0,309,139.1a25.65,25.65,0,0,0-4.4-.42,14.77,14.77,0,0,0-6.24,1.27,13.22,13.22,0,0,0-4.7,3.61,14.3,14.3,0,0,0-2.79,5.55,25.38,25.38,0,0,0-.85,6.54,20.49,20.49,0,0,0,1.39,7.85,10.22,10.22,0,0,0,4.86,5.21,16.34,16.34,0,0,0,7.79,1.84A31.2,31.2,0,0,0,313.8,168.69Z"/><path class="cls-1" d="M349.21,168.42q-.47,2.18-1,5.55a55,55,0,0,1-6.6,1.29,46.5,46.5,0,0,1-5.57.34,30.83,30.83,0,0,1-8.9-1.19,15.26,15.26,0,0,1-6.76-4.14,17.47,17.47,0,0,1-4-6.76,26,26,0,0,1-1.23-8,26.54,26.54,0,0,1,2.26-11,17.82,17.82,0,0,1,6.8-7.95,21.06,21.06,0,0,1,11.52-2.89,22.54,22.54,0,0,1,6.9,1.05,13.54,13.54,0,0,1,5.47,3.19,14.44,14.44,0,0,1,3.37,5.29,19.33,19.33,0,0,1,1.19,6.88,16,16,0,0,1-.24,2.77H322.17Q322,155,322,156.17a17,17,0,0,0,1.74,7.67,11.79,11.79,0,0,0,5.15,5.31,16.52,16.52,0,0,0,7.85,1.8A39.31,39.31,0,0,0,349.21,168.42Zm-26.72-18.87h23.63a22.83,22.83,0,0,0-.32-3.88,11.27,11.27,0,0,0-1-2.87,8.21,8.21,0,0,0-2-2.58,8.92,8.92,0,0,0-3.09-1.67,12.81,12.81,0,0,0-3.9-.57,14.43,14.43,0,0,0-4.3.63,12.69,12.69,0,0,0-3.61,1.74,11.52,11.52,0,0,0-2.66,2.6,12.57,12.57,0,0,0-1.62,2.87A26.78,26.78,0,0,0,322.49,149.55Z"/><path class="cls-1" d="M352.35,192.64q.8-10.23,1.5-27.83t.78-28.78q6.5-1.39,10.4-1.88a62.11,62.11,0,0,1,7.83-.5,27,27,0,0,1,10.74,2,14.25,14.25,0,0,1,7.09,6.9,24.06,24.06,0,0,1,2.54,11.16A29.24,29.24,0,0,1,392,162a21.82,21.82,0,0,1-3.63,7.19,15.75,15.75,0,0,1-5.89,4.78,18,18,0,0,1-7.7,1.61,19.16,19.16,0,0,1-4.88-.61,16.58,16.58,0,0,1-4.07-1.61,12.67,12.67,0,0,1-2.9-2.22,29.71,29.71,0,0,1-2.84-3.69l-.48,15.7q-.16,3.84-.16,5.55v3.92q-2-.08-3.51-.08T352.35,192.64Zm9.08-51.89-.28,3-.2,4.12q-.16,3.25-.24,5.29t-.08,2.87a24.18,24.18,0,0,0,.61,5.55,11.24,11.24,0,0,0,2.46,4.78,12.13,12.13,0,0,0,4.34,3.27,12.56,12.56,0,0,0,5.15,1.11,11.75,11.75,0,0,0,6.76-2.06,13.41,13.41,0,0,0,4.74-6.14,22.93,22.93,0,0,0,1.71-8.92,18.42,18.42,0,0,0-1.78-8.4,11.19,11.19,0,0,0-4.8-5.09,14.56,14.56,0,0,0-6.82-1.57A34.68,34.68,0,0,0,361.43,140.75Z"/><path class="cls-1" d="M415,169.49q-.44,1.94-1,5.15a35.21,35.21,0,0,1-4.28.79q-1.59.16-3,.16a15.13,15.13,0,0,1-5.69-.89,6.67,6.67,0,0,1-3.31-2.85,10.52,10.52,0,0,1-1.15-5.33q0-.44,0-1.55t.4-7.73l1-17.76h-5.3q.16-1.66.28-4.76h5.4q.2-2.22.4-7.57,3.72-.71,6.29-1.35-.28,5.87-.31,8.92h11q-.2,2.5-.24,4.76h-11l-1.06,22.32,0,1.7a11,11,0,0,0,.65,4.34,4.08,4.08,0,0,0,2,2.08,6.18,6.18,0,0,0,2.73.63,15.72,15.72,0,0,0,2.14-.16A41.17,41.17,0,0,0,415,169.49Z"/><path class="cls-1" d="M412.71,174l-.24-2.91q0-.48-.32-3a28.42,28.42,0,0,0,11.26,2.66A12.83,12.83,0,0,0,428,170a5.64,5.64,0,0,0,2.79-2.11,5.19,5.19,0,0,0,.93-2.9,5.56,5.56,0,0,0-.26-1.66,6.15,6.15,0,0,0-.77-1.6,9.89,9.89,0,0,0-1.53-1.7q-1-.93-4.2-3.5t-4.84-4a21,21,0,0,1-2.81-3,11.44,11.44,0,0,1-1.72-3.07,9.2,9.2,0,0,1-.55-3.13,8.67,8.67,0,0,1,1.61-4.92,9.55,9.55,0,0,1,4.64-3.55,19.75,19.75,0,0,1,7.12-1.17,52.58,52.58,0,0,1,10,1.07q.16,3.09.4,5.67a23,23,0,0,0-8.76-1.82,14.74,14.74,0,0,0-4.34.61,5.61,5.61,0,0,0-2.93,1.84,4.36,4.36,0,0,0-.93,2.7,5.28,5.28,0,0,0,.32,1.82,6.79,6.79,0,0,0,1.13,1.88,15.36,15.36,0,0,0,2,2q1.15,1,4.58,3.73a56.39,56.39,0,0,1,4.7,4,18.49,18.49,0,0,1,2.18,2.7,10.75,10.75,0,0,1,1.33,2.75,9.56,9.56,0,0,1,.42,2.79,8.89,8.89,0,0,1-1.64,5.15,10.52,10.52,0,0,1-4.9,3.69,19.39,19.39,0,0,1-7.29,1.31q-1.71,0-4-.22t-3.9-.52Q415.08,174.56,412.71,174Z"/><path class="cls-2" d="M435.74,123.37l2.79,0a.29.29,0,0,0,.14,0c1.43-.28,2.37.41,3.31,1.41,2,2.11,4.07,4.12,6.13,6.16.59.58,1,1.29,1.69,1.82a.53.53,0,0,1,.19.45,20.87,20.87,0,0,1-.06,2.4l0,1.71c-.43.2-.61-.18-.83-.39-1.66-1.63-3.29-3.28-4.94-4.93a1.87,1.87,0,0,0-.65-.54,7.51,7.51,0,0,0-.1,1.7c0,.28.13.65-.29.79a24.35,24.35,0,0,1,.09-3.21c.06-.49-.12-.62-.6-.62a11.76,11.76,0,0,1-2.46-.1c.38-.36.9-.05,1.36-.27a2.38,2.38,0,0,0-.71-1c-1.54-1.55-3.1-3.09-4.63-4.64C435.91,124,435.53,123.8,435.74,123.37Z"/><path class="cls-3" d="M443.08,134a9.34,9.34,0,0,0,.12-2.3c0-.18-.1-.44.12-.53s.33.16.46.28l5.42,5.41c.2.2.36.48.69.5,0,1.2.19,2.44-.55,3.53a1.13,1.13,0,0,1-.58-.42l-5.19-5.18a2.12,2.12,0,0,1-.51-.7Z"/><path class="cls-4" d="M449.94,135.68a1.39,1.39,0,0,1,0-.36c.4-1.66-.52-2.76-1.59-3.83q-3.88-3.86-7.72-7.76a.87.87,0,0,0-.65-.22,3.9,3.9,0,0,1-1.43-.11c1.66-.07,3.3.09,5,.13,2.1,2.33,4.42,4.42,6.57,6.7A53.6,53.6,0,0,1,449.94,135.68Z"/><path class="cls-5" d="M435.74,123.37c0,.34.29.49.49.69l4.69,4.69c.36.36,1,.82.82,1.17s-.87.08-1.34.15h-.29l-1.44,0a2.93,2.93,0,0,1-.8-.62l-4.52-4.53a12.59,12.59,0,0,0-1.23-1.13C433.24,123,434.51,123.29,435.74,123.37Z"/><path class="cls-6" d="M450.06,130.23c-.31,0-.46-.25-.64-.44l-5.36-5.36a1.6,1.6,0,0,1-.56-.91h.89a13.1,13.1,0,0,0,2,0,1.42,1.42,0,0,1,1.1.45c.82.83,1.53,1.76,2.38,2.55a.85.85,0,0,1,.31.64,23,23,0,0,1-.06,2.89A.17.17,0,0,1,450.06,130.23Z"/><path class="cls-3" d="M443.08,134.62c2.13,2.06,4.25,4.13,6.27,6.3a2.6,2.6,0,0,1-1.6,1.34,16.07,16.07,0,0,1-2.71-2.6l-1.79-1.89c-.13.75.19,1.54-.2,2.26a7.91,7.91,0,0,1-.08-2.58C443,136.51,443,135.56,443.08,134.62Z"/><path class="cls-3" d="M432.12,123.81a.61.61,0,0,1,.53.18l6,6.09a46.29,46.29,0,0,1-4.7-.13c.4-.35.88-.12,1.3-.19-1.48-1.35-2.72-2.93-4.18-4.32a.52.52,0,0,1-.16-.32A2.77,2.77,0,0,1,432.12,123.81Z"/><path class="cls-7" d="M443.05,140v-2.51l.16-.08,4.54,4.81A3.37,3.37,0,0,1,443.05,140Z"/><path class="cls-3" d="M430.93,125.12c1.68,1.4,3,3.19,4.66,4.72a8.31,8.31,0,0,1-1.63.11A3.3,3.3,0,0,1,430.93,125.12Z"/><path class="cls-8" d="M450.07,130.1c-.08-1,.31-2.18-.17-3.09s-1.47-1.47-2.08-2.32a2.38,2.38,0,0,0-2.45-1.05,1.31,1.31,0,0,1-1-.1l5.46.11c.24,0,.44,0,.42.35C450.16,126,450.31,128.07,450.07,130.1Z"/><path class="cls-9" d="M144.33,53.64c0-.39.2-1.08-.3-1.07s-.22.71-.22,1.09q0,44.24,0,88.49t0,88.49c0,.36-.19,1,.19,1,.59,0,.32-.67.32-1Q144.35,142.13,144.33,53.64Z"/><path class="cls-10" d="M144,232.15a.7.7,0,0,1-.53-.23,1.31,1.31,0,0,1-.18-1.05,2.36,2.36,0,0,0,0-.24q0-40.84,0-81.68V136.24q0-41.3,0-82.59a2.32,2.32,0,0,0,0-.26,1.33,1.33,0,0,1,.17-1.07.75.75,0,0,1,.56-.25.85.85,0,0,1,.61.24,1.36,1.36,0,0,1,.21,1.1c0,.08,0,.16,0,.23q0,88.49,0,177a1.63,1.63,0,0,0,0,.22,1.24,1.24,0,0,1-.17,1,.85.85,0,0,1-.67.28Z"/><path class="cls-11" d="M86.38,136.72a9.71,9.71,0,0,1-7.67-5.48c-1.57-3.25-.67-7,3.75-7.39a4.85,4.85,0,0,1,1.68,0c3.64.95,6.35,2.94,7.46,6.69.92,3.11-.35,5.41-3.29,6.17A7,7,0,0,1,86.38,136.72Z"/><path class="cls-11" d="M61.61,165.06c-1.76-2.89-1.91-5.8,0-8.66,2.28-3.4,6.86-3.64,9.92-1.32a7.23,7.23,0,0,1,2.1,9.51,2.75,2.75,0,0,1-1.87.38C68.37,165,65,164.88,61.61,165.06Z"/><path class="cls-11" d="M99.12,130.34c-4.08-.51-7.73-4.66-7.83-8.23-.07-2.34,1.61-3.6,3.84-3.31a9.12,9.12,0,0,1,7.64,6.86c.56,2.51-.06,3.65-2.46,4.66A2.44,2.44,0,0,1,99.12,130.34Z"/><path class="cls-11" d="M107.43,156.5c1.24,3.41,1,6.6-1.61,9.31-1.88,1.93-4.21,1.69-6.1,0a8,8,0,0,1-2.4-5.37,18.13,18.13,0,0,1,0-3.15l.16-1a12,12,0,0,1,3.37-.16c1.66,0,3.31,0,5,0A2.24,2.24,0,0,1,107.43,156.5Z"/><path class="cls-11" d="M108.42,149.86A12.08,12.08,0,0,1,109,146c.82-2.2,3.64-2.41,5.18-1.2a8.56,8.56,0,0,1,3.29,6.11c0,.48.16,1,.24,1.43-.27.38,0,.84-.2,1.23a13.91,13.91,0,0,1-1,2.34,3.22,3.22,0,0,1-5.18.46,9.35,9.35,0,0,1-2.75-5.25C108.42,150.71,108.68,150.24,108.42,149.86Z"/><path class="cls-11" d="M94.91,149.45a9.39,9.39,0,0,1-.78,4.26,5.48,5.48,0,0,1-7.24,2.87,9.17,9.17,0,0,1-5.68-7.2c-.25-.43.06-.59.37-.72a3.17,3.17,0,0,1,1.2-.15H93.25a3.14,3.14,0,0,1,1.2.16C94.82,148.81,94.77,149.18,94.91,149.45Z"/><path class="cls-11" d="M94.7,148.9c-4.1,0-8.2,0-12.29,0-.43,0-1-.28-1.2.46-.87-3,.09-6.21,2.3-7.54a5.19,5.19,0,0,1,2.36-.82,3,3,0,0,1,1.45,0,9,9,0,0,1,7.2,6.86,1.11,1.11,0,0,0,.2.3A.73.73,0,0,1,94.7,148.9Z"/><path class="cls-11" d="M110.39,139.88c-2.83-1.45-4-4-4.72-6.92a5.87,5.87,0,0,1,0-1.93,2.56,2.56,0,0,1,2-2.74,3,3,0,0,1,1.44,0,8.35,8.35,0,0,1,5.92,9.77,5.34,5.34,0,0,1-1,1.76A11.11,11.11,0,0,1,110.39,139.88Z"/><path class="cls-11" d="M59.11,118c.88-2.12,2.54-3.09,5.56-2.92A6.67,6.67,0,0,1,70,117.85a3.29,3.29,0,0,1-.64,4.4c-2.5,2.21-9.58,1.05-10.22-2.53A3.88,3.88,0,0,1,59.11,118Z"/><path class="cls-11" d="M52.25,172.42c.5,3.7-2.11,6.57-6.59,5.82-2.19-.37-4.06-3.11-4.11-5.82.32-.63.93-.61,1.49-.61q3.85,0,7.71,0C51.32,171.81,51.91,171.82,52.25,172.42Z"/><path class="cls-11" d="M106.15,180.26A7.41,7.41,0,0,1,103,187a3.29,3.29,0,0,1-3.69.3,3.48,3.48,0,0,1-1.6-3.17,8.8,8.8,0,0,1,.75-4.07,2.16,2.16,0,0,1,1.38-.38c1.62,0,3.24,0,4.87,0C105.23,179.66,105.82,179.65,106.15,180.26Z"/><path class="cls-11" d="M94.71,112.7c-2.29-.64-4.26-1.71-5.18-4.08a2.09,2.09,0,0,1,1.78-3.07A6.42,6.42,0,0,1,98,110.2c.21,1-.4,1.92-1.66,2.5A5.7,5.7,0,0,1,94.71,112.7Z"/><path class="cls-11" d="M121.6,159.94c.26-2.1,1.17-3.31,2.58-3.39,1.21-.07,2.44,1.11,3,2.94.61,2.16.62,4.24-1.11,6a2,2,0,0,1-3.19-.27,5.75,5.75,0,0,1-1.24-4A2.28,2.28,0,0,1,121.6,159.94Z"/><path class="cls-11" d="M120.7,132.09a6.4,6.4,0,0,1-3.16-6.72,1.64,1.64,0,0,1,1.43-1.28,3.73,3.73,0,0,1,1.43,0,6.72,6.72,0,0,1,3.87,4.93,2.44,2.44,0,0,1-2.36,3.21C121.54,132,121.1,132.18,120.7,132.09Z"/><path class="cls-11" d="M52.25,172.42a3.09,3.09,0,0,0-.8-.23q-4.55,0-9.09,0a3.11,3.11,0,0,0-.8.23c.08-2.57,1.26-4.19,3.29-4.88,2.24-.76,5.25.6,6.41,2.33A5.78,5.78,0,0,1,52.25,172.42Z"/><path class="cls-11" d="M51.29,110.36c1,.42,1.94.95,1.9,2.12a3,3,0,0,1-2,2.64,8.59,8.59,0,0,1-4.69.37c-1.08-.11-1.53-1.23-1.74-2.24-.14-.66,1.22-2.27,2-2.55.38-.14.78-.24,1.16-.35A23.44,23.44,0,0,1,51.29,110.36Z"/><path class="cls-11" d="M96.09,199.65a5.29,5.29,0,0,1,3.75-4.45,4.27,4.27,0,0,1,1.69,0c1.37,1.22,1.63,2.06,1,3.72a5.72,5.72,0,0,1-3.57,3.38c-1.32.45-2.23,0-2.83-1.4A2.91,2.91,0,0,1,96.09,199.65Z"/><path class="cls-11" d="M61.61,165.06c.17-.74.77-.46,1.19-.46,3.61,0,7.22,0,10.83,0-.83,2.16-2.67,3.06-4.69,3.73a11.22,11.22,0,0,1-2.67,0A6.68,6.68,0,0,1,61.61,165.06Z"/><path class="cls-11" d="M107.43,156.5H98.89a2.3,2.3,0,0,1-1.42-.22A6.41,6.41,0,0,1,99.34,153a4.08,4.08,0,0,1,5.42-.19A7.16,7.16,0,0,1,107.43,156.5Z"/><path class="cls-11" d="M130.12,126.09c-1.48.22-2.21-.69-2.84-1.77a3.27,3.27,0,0,1,0-3.44c.37-.66,2.5-.79,3.39-.24a4,4,0,0,1,1.5,4C131.87,125.62,131.35,126.37,130.12,126.09Z"/><path class="cls-11" d="M92.2,100.62c-1.84.16-4.21-1.78-4.07-3.48a1.39,1.39,0,0,1,1.08-1.38A4.6,4.6,0,0,1,94.46,98C95.14,99.49,94.14,100.63,92.2,100.62Z"/><path class="cls-11" d="M135.17,169.72a5.26,5.26,0,0,1-.37.88c-.58.89-1.18,1.77-2.46,1.55s-1.41-1.23-1.66-2.19a5.69,5.69,0,0,1,0-1.93c.25-.82.32-1.79,1.08-2.32a2.11,2.11,0,0,1,3.13,1.17c.12.3.22.6.33.9A5.84,5.84,0,0,1,135.17,169.72Z"/><path class="cls-11" d="M106.15,180.26a5,5,0,0,0-2.5-.23c-1.74,0-3.48,0-5.23,0,.77-1.34,1.52-2.71,3.16-3.18,2.26-.65,3.83.29,4.39,2.61C106,179.73,106.09,180,106.15,180.26Z"/><path class="cls-11" d="M51.29,110.36H47.9A6.81,6.81,0,0,1,51.29,110.36Z"/><path class="cls-11" d="M66.27,168.32h2.67A4,4,0,0,1,66.27,168.32Z"/><rect class="cls-12" x="1" y="1" width="500" height="300"/></g></g></svg>