<svg xmlns="http://www.w3.org/2000/svg" viewBox="0 0 224 224"><defs><style>.cls-1{fill:#1b75bc;}.cls-2{fill:#f1f2f2;}.cls-3{fill:none;stroke:#f1f2f2;stroke-miterlimit:10;stroke-width:4px;}</style></defs><title>staff</title><g id="Layer_2" data-name="Layer 2"><g id="Layer_1-2" data-name="Layer 1"><circle class="cls-1" cx="112" cy="112" r="112"/><path class="cls-2" d="M153.46,60.1a20.08,20.08,0,0,0,2.35-.56,9.32,9.32,0,0,0,2.25-1,5.61,5.61,0,0,0,1.69-1.59,4.07,4.07,0,0,0,.66-2.37,3.71,3.71,0,0,0-1.52-3.2,6.68,6.68,0,0,0-4-1.1q-1,0-1.83.07a9.8,9.8,0,0,0-1.49.24q-.69.17-1.39.39t-1.49.51a15.67,15.67,0,0,1-1.12-2.64A11.84,11.84,0,0,1,147,46q1.27-.44,2.35-.76t2.1-.51a17.8,17.8,0,0,1,2.05-.27q1-.07,2.2-.07,5.87,0,8.85,2.67a9.31,9.31,0,0,1,3,7.31,8.36,8.36,0,0,1-.88,4,10.38,10.38,0,0,1-2.13,2.81A12.6,12.6,0,0,1,162,63q-1.32.71-2.15,1.05v4.45a19.36,19.36,0,0,1-3.28.29,15.64,15.64,0,0,1-3.08-.29ZM153,79.57a22.21,22.21,0,0,1-.29-3.57,23.13,23.13,0,0,1,.29-3.62,22.31,22.31,0,0,1,3.57-.29,23.24,23.24,0,0,1,3.62.29,22.84,22.84,0,0,1,.29,3.57,22.5,22.5,0,0,1-.29,3.62,23,23,0,0,1-3.57.29A22.61,22.61,0,0,1,153,79.57Z"/><path class="cls-3" d="M139.72,92.87c0,17.12-6.88,32-17,39.77a25.68,25.68,0,0,1-32.66,0C79.92,124.84,73,110,73,92.87c0-25.26,14.91-45.69,33.34-45.69S139.72,67.61,139.72,92.87Z"/><path class="cls-3" d="M167.54,171.27a30.49,30.49,0,0,1-.28,4H45.5a30.55,30.55,0,0,1-.28-4c0-18.43,18.95-34,44.83-38.63a25.68,25.68,0,0,0,32.66,0C148.6,137.3,167.54,152.83,167.54,171.27Z"/></g></g></svg>