<svg xmlns="http://www.w3.org/2000/svg" viewBox="0 0 1759.4 187.05"><defs><style>.cls-1{opacity:0.67;}.cls-2{fill:#1b75bc;}.cls-3{fill:#27aae1;}.cls-4{fill:#231f20;}</style></defs><title>staqpesa-f</title><g id="Layer_2" data-name="Layer 2"><g id="Layer_1-2" data-name="Layer 1"><path class="cls-2" d="M26.35,89.7a26.66,26.66,0,0,1-18.2-7.14,25.44,25.44,0,0,1-5.63-7.84A25.1,25.1,0,0,1,.2,65a22.83,22.83,0,0,1,0-6,25.11,25.11,0,0,1,2.31-9.75,25.42,25.42,0,0,1,5.63-7.84,26.66,26.66,0,0,1,18.2-7.14H64.16V44.65H26.35a15.23,15.23,0,0,0-10.76,4.22,15.14,15.14,0,0,0-4.93,10.46,17,17,0,0,0,0,5.23A15.14,15.14,0,0,0,15.59,75a15.23,15.23,0,0,0,10.76,4.22H41.43a26.35,26.35,0,0,1,10,1.91,25.42,25.42,0,0,1,8.25,5.33,26.8,26.8,0,0,1,5.63,7.94,25.13,25.13,0,0,1,2.31,9.75v6a23.91,23.91,0,0,1-2.11,10.06,26.7,26.7,0,0,1-5.73,8.15A27,27,0,0,1,51.39,134a25.65,25.65,0,0,1-10.16,2H2.41V125.5H41.23a15.84,15.84,0,0,0,15.69-13.27,9.12,9.12,0,0,1,.1-1.31,9.35,9.35,0,0,0,.1-1.31v-4.22a15.85,15.85,0,0,0-4.83-11.06A15.1,15.1,0,0,0,41.23,89.7Z"/><path class="cls-2" d="M86.28,9.46H96.74V35.8h38V46.26h-38v65a15.08,15.08,0,0,0,4.63,11.06,15.32,15.32,0,0,0,11.26,4.63,15.79,15.79,0,0,0,15.69-15.69h10.46a26.44,26.44,0,0,1-2,10.26,24.8,24.8,0,0,1-5.63,8.35,28.63,28.63,0,0,1-8.35,5.63,24.61,24.61,0,0,1-10.16,2.11,25.3,25.3,0,0,1-10.26-2.11,26.39,26.39,0,0,1-14-14,25.31,25.31,0,0,1-2.11-10.26Z"/><path class="cls-2" d="M200.11,32.79a51.71,51.71,0,0,1,20.51,4.12A52.27,52.27,0,0,1,248.68,65a51.73,51.73,0,0,1,4.12,20.51v50.28H242.15v-18.7a50.46,50.46,0,0,1-18,15.29,51.85,51.85,0,0,1-24,5.63,51,51,0,0,1-20.41-4.12,52.81,52.81,0,0,1-28-28,50.94,50.94,0,0,1-4.12-20.41A51.66,51.66,0,0,1,151.74,65a52.54,52.54,0,0,1,28-28.06A51,51,0,0,1,200.11,32.79Zm0,10.66a40.46,40.46,0,0,0-16.29,3.32,43.78,43.78,0,0,0-13.37,9,41.86,41.86,0,0,0-12.37,29.77,40.46,40.46,0,0,0,3.32,16.29,42.65,42.65,0,0,0,22.43,22.42,40.46,40.46,0,0,0,16.29,3.32,41.87,41.87,0,0,0,29.77-12.37,43.76,43.76,0,0,0,8.95-13.37,40.44,40.44,0,0,0,3.32-16.29,41.18,41.18,0,0,0-3.32-16.39A41.39,41.39,0,0,0,216.5,46.76,41.19,41.19,0,0,0,200.11,43.45Z"/><path class="cls-2" d="M322.39,33.79a51.72,51.72,0,0,1,20.51,4.12A52.28,52.28,0,0,1,371,66a51.73,51.73,0,0,1,4.12,20.51V187H364.62v-69A52.2,52.2,0,0,1,322.39,139,51,51,0,0,1,302,134.86a52.8,52.8,0,0,1-28-28,50.94,50.94,0,0,1-4.12-20.41A51.66,51.66,0,0,1,274,66a52.54,52.54,0,0,1,28-28.06A51,51,0,0,1,322.39,33.79Zm0,10.66a40.44,40.44,0,0,0-16.29,3.32,43.74,43.74,0,0,0-13.37,9,41.86,41.86,0,0,0-12.37,29.77,40.46,40.46,0,0,0,3.32,16.29A42.65,42.65,0,0,0,306.1,125.2a40.46,40.46,0,0,0,16.29,3.32,41.19,41.19,0,0,0,16.39-3.32,42.37,42.37,0,0,0,22.53-22.42,40.44,40.44,0,0,0,3.32-16.29,41.87,41.87,0,0,0-12.37-29.77,43.46,43.46,0,0,0-13.48-9A41.17,41.17,0,0,0,322.39,44.45Z"/><path class="cls-3" d="M448.49,33.59a51,51,0,0,1,20.41,4.12A54.07,54.07,0,0,1,485.6,48.88,52.29,52.29,0,0,1,501,86.08a50.29,50.29,0,0,1-4.12,20.31,53.08,53.08,0,0,1-28,27.85,51,51,0,0,1-20.41,4.12,52,52,0,0,1-19.21-3.52,51.22,51.22,0,0,1-16-10v57.92H396V86.08a52.29,52.29,0,0,1,15.39-37.21,54,54,0,0,1,16.69-11.16A51,51,0,0,1,448.49,33.59Zm0,17.3A35.29,35.29,0,0,0,416,99.76a33.8,33.8,0,0,0,7.54,11.16,37.25,37.25,0,0,0,11.26,7.54,34.62,34.62,0,0,0,27.35,0,37.3,37.3,0,0,0,11.26-7.54A33.82,33.82,0,0,0,481,99.76a35.14,35.14,0,0,0-32.48-48.87Z"/><path class="cls-3" d="M568.56,138.38a51,51,0,0,1-20.41-4.12,53.08,53.08,0,0,1-28-27.85,50.22,50.22,0,0,1-4.12-20.31,52.29,52.29,0,0,1,15.39-37.21,54,54,0,0,1,16.69-11.16,52.61,52.61,0,0,1,40.83,0,51.82,51.82,0,0,1,27.75,27.86,51.73,51.73,0,0,1,4.12,20.51v3q0,1.61-.4,5.43H534.57a32.92,32.92,0,0,0,4.63,10.66,38.22,38.22,0,0,0,7.64,8.45,33.78,33.78,0,0,0,10,5.63,34.13,34.13,0,0,0,11.77,2,20.71,20.71,0,0,0,9.65-2.51,40.61,40.61,0,0,0,9.25-6.74l12.07,12.07A57.29,57.29,0,0,1,585,134.45,36.61,36.61,0,0,1,568.56,138.38Zm34-60.94a40.6,40.6,0,0,0-4.73-10.56,33.9,33.9,0,0,0-7.54-8.45,35.29,35.29,0,0,0-10-5.53,35.41,35.41,0,0,0-23.53,0,34.85,34.85,0,0,0-17.6,14,34.45,34.45,0,0,0-4.63,10.56Z"/><path class="cls-3" d="M668.52,93.12a27.65,27.65,0,0,1-10.56-2,28.82,28.82,0,0,1-8.75-5.53,27.14,27.14,0,0,1-6.13-8.35,26,26,0,0,1-2.51-10.46,24.25,24.25,0,0,1,0-6.23,25.63,25.63,0,0,1,2.51-10.26,28.44,28.44,0,0,1,6.13-8.45,27.74,27.74,0,0,1,19.31-7.64h38.62v17.3H668.52a10.4,10.4,0,0,0-7.34,2.92,11.07,11.07,0,0,0-3.52,7.34,11.13,11.13,0,0,0,0,4.22,10.87,10.87,0,0,0,3.52,7.14A10.39,10.39,0,0,0,668.52,76h13.88a27.25,27.25,0,0,1,10.66,2.11,27.93,27.93,0,0,1,8.75,5.73,29.43,29.43,0,0,1,6,8.45,26.15,26.15,0,0,1,2.51,10.46v5.63A25,25,0,0,1,708,119.17a31.8,31.8,0,0,1-6,8.75,26,26,0,0,1-8.85,5.93,28.52,28.52,0,0,1-11,2.11H642.57v-17.1h39.62a10,10,0,0,0,6.94-2.61,12.88,12.88,0,0,0,3.92-6.23v-.8a2.17,2.17,0,0,1,.1-.7,2.24,2.24,0,0,0,.1-.7V104a11.26,11.26,0,0,0-3.32-7.74,10.52,10.52,0,0,0-7.74-3.12Z"/><path class="cls-3" d="M775.71,33a51.7,51.7,0,0,1,20.51,4.12,52.54,52.54,0,0,1,28.06,28,51,51,0,0,1,4.12,20.41v50.28h-17.5V124.5a53.35,53.35,0,0,1-16,9.75,52,52,0,0,1-19.21,3.52,50.29,50.29,0,0,1-20.31-4.12,54.23,54.23,0,0,1-16.59-11.16,51.86,51.86,0,0,1-11.26-16.59,52.6,52.6,0,0,1,0-40.83,53.08,53.08,0,0,1,27.86-28A50.27,50.27,0,0,1,775.71,33Zm0,17.3A34.81,34.81,0,0,0,762,53a33.79,33.79,0,0,0-11.16,7.54,37.26,37.26,0,0,0-7.54,11.26,34.62,34.62,0,0,0,0,27.35,35.45,35.45,0,0,0,18.7,18.7,33.72,33.72,0,0,0,13.68,2.82,34.22,34.22,0,0,0,13.88-2.82,36,36,0,0,0,11.16-7.54,35.56,35.56,0,0,0,7.44-38.51,35.86,35.86,0,0,0-7.44-11.26A33.85,33.85,0,0,0,789.59,53,35.34,35.34,0,0,0,775.71,50.28Z"/><path class="cls-4" d="M866.83,150.24,949.09,6.64H968.8l-82.46,143.6Z"/><path class="cls-4" d="M1027.12,17a27.29,27.29,0,0,1,6-8.85,29.37,29.37,0,0,1,9-5.93,27.37,27.37,0,0,1,11-2.21,24.59,24.59,0,0,1,11,2.51,29.48,29.48,0,0,1,9,6.74,31.73,31.73,0,0,1,6,10,34.08,34.08,0,0,1,2.21,12.37h-17.3a16.8,16.8,0,0,0-3.12-10.26,9.33,9.33,0,0,0-7.74-4.22A10.65,10.65,0,0,0,1042.2,28v54.1h35.2v17.3h-35.2v51.49h-17.3V28A27.35,27.35,0,0,1,1027.12,17Z"/><path class="cls-4" d="M1142.56,153.25a51,51,0,0,1-20.41-4.12,53.08,53.08,0,0,1-28-27.85,50.22,50.22,0,0,1-4.12-20.31,52.29,52.29,0,0,1,15.39-37.21,54,54,0,0,1,16.69-11.16,52.61,52.61,0,0,1,40.83,0,51.82,51.82,0,0,1,27.75,27.86,51.73,51.73,0,0,1,4.12,20.51v3q0,1.61-.4,5.43h-85.88a32.92,32.92,0,0,0,4.63,10.66,38.22,38.22,0,0,0,7.64,8.45,33.78,33.78,0,0,0,10,5.63,34.13,34.13,0,0,0,11.77,2,20.71,20.71,0,0,0,9.65-2.51,40.61,40.61,0,0,0,9.25-6.74L1173.53,139A57.29,57.29,0,0,1,1159,149.33,36.61,36.61,0,0,1,1142.56,153.25Zm34-60.94a40.6,40.6,0,0,0-4.73-10.56,33.9,33.9,0,0,0-7.54-8.45,35.29,35.29,0,0,0-10-5.53,35.41,35.41,0,0,0-23.53,0,34.85,34.85,0,0,0-17.6,14,34.45,34.45,0,0,0-4.63,10.56Z"/><path class="cls-4" d="M1262.63,47.87A51.7,51.7,0,0,1,1283.14,52a52.54,52.54,0,0,1,28.06,28,51,51,0,0,1,4.12,20.41v50.28h-17.5V139.38a53.35,53.35,0,0,1-16,9.75,52,52,0,0,1-19.21,3.52,50.29,50.29,0,0,1-20.31-4.12,54.23,54.23,0,0,1-16.59-11.16,51.86,51.86,0,0,1-11.26-16.59,52.6,52.6,0,0,1,0-40.83,53.08,53.08,0,0,1,27.86-28A50.27,50.27,0,0,1,1262.63,47.87Zm0,17.3A34.81,34.81,0,0,0,1249,67.88a33.79,33.79,0,0,0-11.16,7.54,37.26,37.26,0,0,0-7.54,11.26,34.62,34.62,0,0,0,0,27.35,35.45,35.45,0,0,0,18.7,18.7,33.72,33.72,0,0,0,13.68,2.82,34.22,34.22,0,0,0,13.88-2.82,36,36,0,0,0,11.16-7.54,35.56,35.56,0,0,0,7.44-38.51,35.86,35.86,0,0,0-7.44-11.26,33.85,33.85,0,0,0-11.16-7.54A35.34,35.34,0,0,0,1262.63,65.16Z"/><path class="cls-4" d="M1335.44,26.15h17.3V50.68h35.2v17.1h-35.2v56.51a10.26,10.26,0,0,0,3.12,7.54,10.5,10.5,0,0,0,7.74,3.12,9.33,9.33,0,0,0,7.74-4.22,16.79,16.79,0,0,0,3.12-10.26h17.09a34.21,34.21,0,0,1-8.15,22.42,27.53,27.53,0,0,1-8.85,6.84,24.6,24.6,0,0,1-11,2.51,27.39,27.39,0,0,1-11-2.21,28.39,28.39,0,0,1-8.95-6,28.72,28.72,0,0,1-6-8.85,26.62,26.62,0,0,1-2.21-10.86Z"/><path class="cls-4" d="M1445.85,152.65a38.91,38.91,0,0,1-15.79-3.22,41.25,41.25,0,0,1-12.77-8.65,39.9,39.9,0,0,1-8.55-12.77,39.42,39.42,0,0,1-3.12-15.59V50.08h17.1v62.35a22.73,22.73,0,0,0,1.81,9.05,22.9,22.9,0,0,0,12.27,12.27,22.72,22.72,0,0,0,9.05,1.81,22,22,0,0,0,8.95-1.81,23.49,23.49,0,0,0,7.24-4.93,23.19,23.19,0,0,0,4.93-7.34,22.73,22.73,0,0,0,1.81-9.05V50.08h17.3v62.35a38.42,38.42,0,0,1-3.22,15.59,40.8,40.8,0,0,1-21.42,21.42A38.44,38.44,0,0,1,1445.85,152.65Z"/><path class="cls-4" d="M1521.67,150.84h-17.3V100.56A48.64,48.64,0,0,1,1508.8,80a51.7,51.7,0,0,1,12.07-16.69,58.43,58.43,0,0,1,17.8-11.16,57.48,57.48,0,0,1,21.82-4.12v17.3a41.56,41.56,0,0,0-15.08,2.71A39.25,39.25,0,0,0,1533,75.62a35.22,35.22,0,0,0-8.35,11.26,31.82,31.82,0,0,0-3,13.68Z"/><path class="cls-4" d="M1617.61,153.25a51,51,0,0,1-20.41-4.12,53.08,53.08,0,0,1-28-27.85,50.22,50.22,0,0,1-4.12-20.31,52.29,52.29,0,0,1,15.39-37.21,54,54,0,0,1,16.69-11.16,52.61,52.61,0,0,1,40.83,0,51.82,51.82,0,0,1,27.75,27.86A51.73,51.73,0,0,1,1669.9,101v3q0,1.61-.4,5.43h-85.88a32.92,32.92,0,0,0,4.63,10.66,38.22,38.22,0,0,0,7.64,8.45,33.78,33.78,0,0,0,10,5.63,34.13,34.13,0,0,0,11.77,2,20.71,20.71,0,0,0,9.65-2.51,40.61,40.61,0,0,0,9.25-6.74L1648.58,139A57.29,57.29,0,0,1,1634,149.33,36.61,36.61,0,0,1,1617.61,153.25Zm34-60.94a40.6,40.6,0,0,0-4.73-10.56,33.9,33.9,0,0,0-7.54-8.45,35.29,35.29,0,0,0-10-5.53,35.41,35.41,0,0,0-23.53,0,34.85,34.85,0,0,0-17.6,14,34.45,34.45,0,0,0-4.63,10.56Z"/><path class="cls-4" d="M1717.56,108a27.65,27.65,0,0,1-10.56-2,28.82,28.82,0,0,1-8.75-5.53,27.14,27.14,0,0,1-6.13-8.35,26,26,0,0,1-2.51-10.46,24.25,24.25,0,0,1,0-6.23,25.63,25.63,0,0,1,2.51-10.26,28.44,28.44,0,0,1,6.13-8.45,27.74,27.74,0,0,1,19.31-7.64h38.62v17.3h-38.62a10.4,10.4,0,0,0-7.34,2.92,11.07,11.07,0,0,0-3.52,7.34,11.13,11.13,0,0,0,0,4.22,10.87,10.87,0,0,0,3.52,7.14,10.39,10.39,0,0,0,7.34,2.92h13.88A27.25,27.25,0,0,1,1742.1,93a27.93,27.93,0,0,1,8.75,5.73,29.43,29.43,0,0,1,6,8.45,26.15,26.15,0,0,1,2.51,10.46v5.63a25,25,0,0,1-2.31,10.76,31.8,31.8,0,0,1-6,8.75,26,26,0,0,1-8.85,5.93,28.52,28.52,0,0,1-11,2.11h-39.62v-17.1h39.62a10,10,0,0,0,6.94-2.61,12.88,12.88,0,0,0,3.92-6.23v-.8a2.17,2.17,0,0,1,.1-.7,2.24,2.24,0,0,0,.1-.7v-3.82a11.26,11.26,0,0,0-3.32-7.74,10.52,10.52,0,0,0-7.74-3.12Z"/></g></g></svg>