<svg xmlns="http://www.w3.org/2000/svg" viewBox="0 0 828.41 177.59"><defs><style>.cls-1{fill:#1b75bc;}.cls-2{fill:#27aae1;}</style></defs><title>staqpesa</title><g id="Layer_2" data-name="Layer 2"><g id="Layer_1-2" data-name="Layer 1"><path class="cls-1" d="M26.35,80.25a26.66,26.66,0,0,1-18.2-7.14,25.44,25.44,0,0,1-5.63-7.84A25.1,25.1,0,0,1,.2,55.51a22.83,22.83,0,0,1,0-6,25.11,25.11,0,0,1,2.31-9.75,25.42,25.42,0,0,1,5.63-7.84,26.66,26.66,0,0,1,18.2-7.14H64.16V35.2H26.35a15.23,15.23,0,0,0-10.76,4.22,15.14,15.14,0,0,0-4.93,10.46,17,17,0,0,0,0,5.23,15.14,15.14,0,0,0,4.93,10.46,15.23,15.23,0,0,0,10.76,4.22H41.43a26.35,26.35,0,0,1,10,1.91A25.42,25.42,0,0,1,59.63,77,26.8,26.8,0,0,1,65.26,85a25.13,25.13,0,0,1,2.31,9.75v6a23.91,23.91,0,0,1-2.11,10.06A26.7,26.7,0,0,1,59.73,119a27,27,0,0,1-8.35,5.53,25.65,25.65,0,0,1-10.16,2H2.41V116H41.23a15.84,15.84,0,0,0,15.69-13.27,9.12,9.12,0,0,1,.1-1.31,9.35,9.35,0,0,0,.1-1.31V95.93a15.85,15.85,0,0,0-4.83-11.06,15.1,15.1,0,0,0-11.06-4.63Z"/><path class="cls-1" d="M86.28,0H96.74V26.35h38V36.8h-38v65a15.08,15.08,0,0,0,4.63,11.06,15.32,15.32,0,0,0,11.26,4.63,15.79,15.79,0,0,0,15.69-15.69h10.46a26.44,26.44,0,0,1-2,10.26,24.8,24.8,0,0,1-5.63,8.35,28.63,28.63,0,0,1-8.35,5.63,24.61,24.61,0,0,1-10.16,2.11A25.3,25.3,0,0,1,102.37,126a26.39,26.39,0,0,1-14-14,25.31,25.31,0,0,1-2.11-10.26Z"/><path class="cls-1" d="M200.11,23.33a51.71,51.71,0,0,1,20.51,4.12,52.27,52.27,0,0,1,28.06,28.06A51.73,51.73,0,0,1,252.8,76V126.3H242.15V107.6a50.46,50.46,0,0,1-18,15.29,51.85,51.85,0,0,1-24,5.63,51,51,0,0,1-20.41-4.12,52.81,52.81,0,0,1-28-28A50.94,50.94,0,0,1,147.62,76a51.66,51.66,0,0,1,4.12-20.51,52.54,52.54,0,0,1,28-28.06A51,51,0,0,1,200.11,23.33Zm0,10.66a40.46,40.46,0,0,0-16.29,3.32,43.78,43.78,0,0,0-13.37,9A41.86,41.86,0,0,0,158.08,76a40.46,40.46,0,0,0,3.32,16.29,42.65,42.65,0,0,0,22.43,22.42,40.46,40.46,0,0,0,16.29,3.32,41.87,41.87,0,0,0,29.77-12.37,43.76,43.76,0,0,0,8.95-13.37A40.44,40.44,0,0,0,242.15,76a41.18,41.18,0,0,0-3.32-16.39A41.39,41.39,0,0,0,216.5,37.31,41.19,41.19,0,0,0,200.11,34Z"/><path class="cls-1" d="M322.39,24.33a51.72,51.72,0,0,1,20.51,4.12A52.28,52.28,0,0,1,371,56.51,51.73,51.73,0,0,1,375.08,77V177.59H364.62v-69a52.2,52.2,0,0,1-42.24,20.92A51,51,0,0,1,302,125.4a52.8,52.8,0,0,1-28-28A50.94,50.94,0,0,1,269.9,77,51.66,51.66,0,0,1,274,56.51a52.54,52.54,0,0,1,28-28.06A51,51,0,0,1,322.39,24.33Zm0,10.66a40.44,40.44,0,0,0-16.29,3.32,43.74,43.74,0,0,0-13.37,9A41.86,41.86,0,0,0,280.35,77a40.46,40.46,0,0,0,3.32,16.29,42.65,42.65,0,0,0,22.43,22.42,40.46,40.46,0,0,0,16.29,3.32,41.19,41.19,0,0,0,16.39-3.32,42.37,42.37,0,0,0,22.53-22.42A40.44,40.44,0,0,0,364.62,77a41.87,41.87,0,0,0-12.37-29.77,43.46,43.46,0,0,0-13.48-9A41.17,41.17,0,0,0,322.39,35Z"/><path class="cls-2" d="M448.49,24.13a51,51,0,0,1,20.41,4.12A54.07,54.07,0,0,1,485.6,39.42,52.29,52.29,0,0,1,501,76.63a50.29,50.29,0,0,1-4.12,20.31,53.08,53.08,0,0,1-28,27.85,51,51,0,0,1-20.41,4.12,52,52,0,0,1-19.21-3.52,51.22,51.22,0,0,1-16-10v57.92H396V76.63a52.29,52.29,0,0,1,15.39-37.21,54,54,0,0,1,16.69-11.16A51,51,0,0,1,448.49,24.13Zm0,17.3A35.29,35.29,0,0,0,416,90.3a33.8,33.8,0,0,0,7.54,11.16A37.25,37.25,0,0,0,434.82,109a34.62,34.62,0,0,0,27.35,0,37.3,37.3,0,0,0,11.26-7.54A33.82,33.82,0,0,0,481,90.3a35.14,35.14,0,0,0-32.48-48.87Z"/><path class="cls-2" d="M568.56,128.92a51,51,0,0,1-20.41-4.12,53.08,53.08,0,0,1-28-27.85,50.22,50.22,0,0,1-4.12-20.31,52.29,52.29,0,0,1,15.39-37.21,54,54,0,0,1,16.69-11.16,52.61,52.61,0,0,1,40.83,0,51.82,51.82,0,0,1,27.75,27.86,51.73,51.73,0,0,1,4.12,20.51v3q0,1.61-.4,5.43H534.57a32.92,32.92,0,0,0,4.63,10.66,38.22,38.22,0,0,0,7.64,8.45,33.78,33.78,0,0,0,10,5.63,34.13,34.13,0,0,0,11.77,2,20.71,20.71,0,0,0,9.65-2.51,40.61,40.61,0,0,0,9.25-6.74l12.07,12.07A57.29,57.29,0,0,1,585,125,36.61,36.61,0,0,1,568.56,128.92Zm34-60.94a40.6,40.6,0,0,0-4.73-10.56A33.9,33.9,0,0,0,590.28,49a35.29,35.29,0,0,0-10-5.53,35.41,35.41,0,0,0-23.53,0,34.85,34.85,0,0,0-17.6,14A34.45,34.45,0,0,0,534.57,68Z"/><path class="cls-2" d="M668.52,83.67a27.65,27.65,0,0,1-10.56-2,28.82,28.82,0,0,1-8.75-5.53,27.14,27.14,0,0,1-6.13-8.35,26,26,0,0,1-2.51-10.46,19.53,19.53,0,0,1-.2-3.12,19.53,19.53,0,0,1,.2-3.12,25.63,25.63,0,0,1,2.51-10.26,28.44,28.44,0,0,1,6.13-8.45,27.74,27.74,0,0,1,19.31-7.64h38.62V42H668.52A10.4,10.4,0,0,0,661.18,45a11.07,11.07,0,0,0-3.52,7.34,11.13,11.13,0,0,0,0,4.22,10.87,10.87,0,0,0,3.52,7.14,10.39,10.39,0,0,0,7.34,2.92h13.88a27.25,27.25,0,0,1,10.66,2.11,27.93,27.93,0,0,1,8.75,5.73,29.43,29.43,0,0,1,6,8.45,26.15,26.15,0,0,1,2.51,10.46V99A25,25,0,0,1,708,109.71a31.8,31.8,0,0,1-6,8.75,26,26,0,0,1-8.85,5.93,28.52,28.52,0,0,1-11,2.11H642.57v-17.1h39.62a10,10,0,0,0,6.94-2.61,12.88,12.88,0,0,0,3.92-6.23v-.8a2.17,2.17,0,0,1,.1-.7,2.24,2.24,0,0,0,.1-.7V94.53a11.26,11.26,0,0,0-3.32-7.74,10.52,10.52,0,0,0-7.74-3.12Z"/><path class="cls-2" d="M775.71,23.53a51.7,51.7,0,0,1,20.51,4.12,52.54,52.54,0,0,1,28.06,28A51,51,0,0,1,828.41,76V126.3h-17.5V115a53.35,53.35,0,0,1-16,9.75,52,52,0,0,1-19.21,3.52,50.29,50.29,0,0,1-20.31-4.12A54.23,54.23,0,0,1,738.81,113a51.86,51.86,0,0,1-11.26-16.59,52.6,52.6,0,0,1,0-40.83,53.08,53.08,0,0,1,27.86-28A50.27,50.27,0,0,1,775.71,23.53Zm0,17.3A34.81,34.81,0,0,0,762,43.54a33.79,33.79,0,0,0-11.16,7.54,37.26,37.26,0,0,0-7.54,11.26,34.62,34.62,0,0,0,0,27.35A35.45,35.45,0,0,0,762,108.4a33.72,33.72,0,0,0,13.68,2.82,34.22,34.22,0,0,0,13.88-2.82,36,36,0,0,0,11.16-7.54,35.56,35.56,0,0,0,7.44-38.51,35.86,35.86,0,0,0-7.44-11.26,33.85,33.85,0,0,0-11.16-7.54A35.34,35.34,0,0,0,775.71,40.83Z"/></g></g></svg>