<svg xmlns="http://www.w3.org/2000/svg" viewBox="0 0 224 224"><defs><style>.cls-1{fill:#1b75bc;}.cls-2{fill:#87d0f3;}.cls-3{fill:#bcbec0;}.cls-4{fill:#f1f2f2;stroke:#fff;stroke-miterlimit:10;stroke-width:0.3px;}</style></defs><title>transactions</title><g id="Layer_2" data-name="Layer 2"><g id="Layer_1-2" data-name="Layer 1"><circle class="cls-1" cx="112" cy="112" r="112"/><path class="cls-2" d="M47.93,138.39c-3.12,1.93-5.87,3.8-8.77,5.4-4,2.18-8.18,3.65-12.82,3-6.58-1-11-4.74-13.2-11.13-2.51-7.35-2.09-14.8-1-22.33a121.47,121.47,0,0,1,5.37-22.36c3.6-10.2,8.93-19.22,19-24.42,7.15-3.68,16.11-2.88,21.93,3.45A31.16,31.16,0,0,1,66,84.7a63.16,63.16,0,0,1,.88,7.11c.34,3.23-3,5.17-5.26,5.42-2.6.3-5.52-2-6-4.71-.72-3.92-1.4-7.85-3.33-11.43-2.11-3.93-4.24-5.31-8.13-4.82a8.93,8.93,0,0,0-3.33,1.38A25.25,25.25,0,0,0,30.18,91.16c-2.13,6-3.57,12.21-5.34,18.32s-1.78,12.17-1.48,18.34a14.63,14.63,0,0,0,1,4.47,4.84,4.84,0,0,0,6.83,2.26c4.25-2.38,8.36-5,12.55-7.48a21.25,21.25,0,0,1,11.51-3.25c4.09.08,6.12,2.76,6.22,6.67.06,2.54-.73,5.11-1.16,7.66-.19,1.12-.44,2.23-.78,3.92,1.06-.5,1.6-.75,2.13-1,5.09-2.54,8.86-1.94,12.39.76a1.92,1.92,0,0,1,.66.71c1,2.5,3.28,2.62,5.42,3.27,2.44.74,5,1.48,7,2.95a29.78,29.78,0,0,1,6.75,6.85c1.57,2.25.55,4.9-1.66,6.68a5.14,5.14,0,0,1-6.73.26c-1.47-1-2.68-2.47-4.19-3.41a10.87,10.87,0,0,0-4.63-1.9c-3.86-.27-7.36-.91-10-4.14-.29-.36-1.8-.12-2.48.29a12.83,12.83,0,0,1-7.91,2c-3.72-.31-7.71-4.15-8.44-7.8-.5-2.47-.84-4.81,0-7.23A7.11,7.11,0,0,0,47.93,138.39Z"/><path class="cls-3" d="M121.36,80.28c1.56.44,3,.75,4.46,1.27,5.25,1.92,10.47,3.9,15.7,5.86l.73.29c1.24.46,1.81.91,1.16,2.55-2.68,6.79-5.15,13.67-7.64,20.54-2.7,7.44-5.45,14.87-8,22.36A67.46,67.46,0,0,1,111,160.09a5.22,5.22,0,0,1-1.3,1.14c-2.33,1.06-3.12,3.13-3.93,5.34a4.26,4.26,0,0,1-2.29,2.28c-1.72.6-3.2-.92-3-2.9.09-.94.61-1.84.75-2.78a17.12,17.12,0,0,0,.2-3.62c-.29-4.24-.94-8.48-.93-12.72a63.59,63.59,0,0,1,1.17-11.58,61.56,61.56,0,0,1,2.86-9.2c2.06-5.75,4.24-11.45,6.37-17.18,1.94-5.21,3.88-10.42,5.79-15.64C118.26,89,119.75,84.79,121.36,80.28Z"/><path class="cls-3" d="M162.25,38.76c-1,3.14-2,6.36-3.14,9.52-2.44,6.78-5,13.53-7.45,20.29-1.15,3.12-2.32,6.23-3.42,9.36-.47,1.33-1.39,1.22-2.36.86-5.73-2.11-11.48-4.2-17.18-6.39-3.91-1.5-3.84-1.69-2.29-5.6,1.77-4.46,3.32-9,5-13.52Q133.67,47.14,136,41c1-2.58,1.84-5.21,3-7.7,2.39-5.07,6.36-7.93,12.1-8,4.61-.09,7.33,2.69,9.09,6.45C161.16,33.82,161.52,36.21,162.25,38.76Z"/><path class="cls-3" d="M135.23,34.31c-.8,2.3-1.63,4.74-2.5,7.16-2.18,6-4.34,12-6.58,18-1.53,4.07-3.19,8.09-4.77,12.15-.39,1-.66,2.06-1,3.07a5.46,5.46,0,0,1-6.89,3.39,5,5,0,0,1-3.53-6.23c1.09-3.82,2.55-7.53,3.9-11.27q3.23-8.88,6.53-17.72c1.34-3.6,2.7-7.2,4.14-10.77a5.37,5.37,0,0,1,9.72-.83A15,15,0,0,1,135.23,34.31Z"/><circle class="cls-4" cx="154.1" cy="154.38" r="44.35"/><path class="cls-1" d="M179.9,128.64a2.58,2.58,0,0,1-.38,2.55l-36.1,41.56a.27.27,0,0,1-.18.15,1.42,1.42,0,0,1-.6.49c-.27.11-.57.16-.78.24a2.62,2.62,0,0,1-1.4-.3,1.33,1.33,0,0,1-.54-.34c0-.07-.1,0-.06-.14l-11.73-11.21a2.47,2.47,0,0,1-.05-3.41,2.36,2.36,0,0,1,.87-.6,2.31,2.31,0,0,1,2.61.52l9.8,9.44L175.87,128a2.45,2.45,0,0,1,3.42-.22A2.6,2.6,0,0,1,179.9,128.64Z"/></g></g></svg>