<svg xmlns="http://www.w3.org/2000/svg" viewBox="0 0 224 224"><defs><style>.cls-1{fill:#1b75bc;}.cls-2{fill:#f1f2f2;}.cls-3{fill:none;stroke:#f1f2f2;stroke-miterlimit:10;stroke-width:4px;}</style></defs><title>user</title><g id="Layer_2" data-name="Layer 2"><g id="Layer_1-2" data-name="Layer 1"><circle class="cls-1" cx="112" cy="112" r="112"/><path class="cls-2" d="M148.33,44.39a22.26,22.26,0,0,1,3.57-.29,23.18,23.18,0,0,1,3.62.29V79.57a22.89,22.89,0,0,1-3.57.29,22.56,22.56,0,0,1-3.62-.29Z"/><path class="cls-2" d="M162.51,44.39q2.06-.24,4.3-.42t5-.17q9.25,0,14.06,4.6t4.82,13.8q0,9.25-4.89,13.6t-14.53,4.35q-2.49,0-4.6-.17t-4.16-.42Zm7.19,29.5,1.13.1q.68,0,1.66,0a16.25,16.25,0,0,0,4.18-.51A7.54,7.54,0,0,0,180,71.64,9.49,9.49,0,0,0,182.27,68a17.7,17.7,0,0,0,.83-5.92,17.8,17.8,0,0,0-.83-5.87A9.46,9.46,0,0,0,180,52.47a8,8,0,0,0-3.25-1.93,13.21,13.21,0,0,0-3.89-.56l-1.59,0a14.28,14.28,0,0,0-1.59.12Z"/><path class="cls-3" d="M139.72,92.87c0,17.12-6.88,32-17,39.77a25.68,25.68,0,0,1-32.66,0C79.92,124.84,73,110,73,92.87c0-25.26,14.91-45.69,33.34-45.69S139.72,67.61,139.72,92.87Z"/><path class="cls-3" d="M167.54,171.27a30.49,30.49,0,0,1-.28,4H45.5a30.55,30.55,0,0,1-.28-4c0-18.43,18.95-34,44.83-38.63a25.68,25.68,0,0,0,32.66,0C148.6,137.3,167.54,152.83,167.54,171.27Z"/></g></g></svg>